<?xml version="1.0" encoding="UTF-8"?>
<!DOCTYPE svg PUBLIC "-//W3C//DTD SVG 1.1//EN" "http://www.w3.org/Graphics/SVG/1.1/DTD/svg11.dtd">
<!-- Creator: CorelDRAW X7 -->
<svg xmlns="http://www.w3.org/2000/svg" xml:space="preserve" width="48.4292mm" height="33.8666mm" version="1.1" style="shape-rendering:geometricPrecision; text-rendering:geometricPrecision; image-rendering:optimizeQuality; fill-rule:evenodd; clip-rule:evenodd"
viewBox="0 0 4843 3387"
 xmlns:xlink="http://www.w3.org/1999/xlink">
 <defs>
  <style type="text/css">
   <![CDATA[
    .fil1 {fill:#0E253F}
    .fil0 {fill:#14365B}
    .fil4 {fill:#FFD43B}
    .fil2 {fill:white;fill-rule:nonzero}
    .fil5 {fill:#1A0000;fill-opacity:0.200000}
    .fil3 {fill:black;fill-opacity:0.301961}
    .fil6 {fill:black;fill-opacity:0.349020}
   ]]>
  </style>
 </defs>
 <g id="Capa_x0020_1">
  <metadata id="CorelCorpID_0Corel-Layer"/>
  <g id="_66849241824">
   <path class="fil0" d="M2426 505c622,2 1130,482 1180,1090l-947 1263c-78,16 -159,24 -242,24 -629,-3 -1143,-494 -1181,-1113l954 -1241c76,-16 155,-23 236,-23z"/>
   <path class="fil1" d="M2293 592c45,-33 90,-62 133,-87 -485,-2 -927,292 -1109,748 -63,158 -91,329 -83,499 3,48 8,96 16,144 20,-44 42,-85 65,-123 23,-35 48,-97 82,-120 44,-30 87,-21 128,10 63,49 212,189 289,197 30,3 46,-20 40,-47 -7,-32 -43,-70 -89,-106 -73,-60 -158,-123 -185,-153 -32,-34 -39,-61 -31,-95 12,-52 64,-130 89,-170 19,-30 40,-61 63,-94l0 1c155,-220 397,-481 534,-560l0 0 58 -44z"/>
   <path class="fil1" d="M2550 2795c-45,33 -90,62 -133,87 485,2 927,-293 1109,-749 61,-152 92,-321 83,-499 -3,-48 -8,-96 -16,-144 -20,44 -42,84 -65,123l-33 51c-21,32 -59,108 -88,128 -44,30 -88,22 -128,-9 -64,-50 -213,-190 -289,-198 -31,-3 -47,20 -41,47 7,32 44,70 89,107 73,59 159,122 186,152 48,52 38,89 8,154 -107,225 -443,601 -624,706l0 0 -58 44z"/>
   <path class="fil2" d="M3276 1042c-6,-8 -5,-19 3,-25 8,-5 19,-4 24,4 65,84 118,179 156,281 38,98 61,204 69,314 21,305 -83,591 -269,805 -187,214 -455,357 -760,379 -306,21 -591,-83 -805,-270 -214,-186 -358,-454 -379,-759 -21,-306 83,-591 269,-805 186,-214 453,-357 758,-379l8 -1c127,-8 251,6 367,38 123,34 238,89 340,160 8,6 10,17 4,25 -5,8 -16,10 -24,4 -99,-69 -210,-122 -329,-155 -114,-32 -236,-45 -361,-36 -296,21 -556,159 -736,367 -180,207 -281,483 -261,779 21,296 160,556 367,736 207,180 484,281 779,261 296,-21 556,-160 736,-367 180,-208 282,-484 261,-780 -8,-107 -31,-209 -66,-304 -38,-99 -89,-190 -151,-272z"/>
   <path class="fil3" d="M1838 1459l0 0c3,221 65,371 276,436 40,12 81,20 122,23 81,6 125,3 201,4 119,0 274,43 266,177 2,-8 3,-17 4,-25l0 -1 0 0c0,-2 0,-3 0,-4l0 -1 0 -1 1 -1 0 0c0,-2 0,-3 0,-5l0 0 0 -2 0 0 0 -1 0 0 0 -1 0 -3 0 0 0 -1 0 0 0 -1 0 -1 0 0 0 -1 0 -1 0 0 0 -1 0 -1 0 -1 0 0 0 -1 0 0 0 -1 0 -1 -1 -1 0 0 0 -1 0 0 0 -2 0 0 0 -1 0 0 0 -1 0 -1 0 -1 0 0 0 -1 0 0 0 -1 0 -1 -1 -1 0 0 0 -2 0 0 0 0 0 -1 0 0 0 -3 0 0 -1 -1 0 -2 0 0 0 -1 0 0 0 -1 0 -1 -1 -1 0 0 0 -1 0 0 0 -2 0 0 0 -1 -1 -1 0 -2 0 -1 0 0 -1 -1 0 -2 0 -1 -1 -1 0 0 0 -2 0 -1 0 0 -1 -1 0 -2 -1 -1 0 -1 0 -2 -1 -1 0 -1 0 0 -1 -2 0 0 0 -1 0 0 -1 -1 0 0 0 -2 0 0 -1 -1 0 -1 -1 -2 0 0 0 -1 -1 -1 0 -1 -1 -2 0 -1 -1 -1 -1 -1 0 -1 0 -1 -1 -1 0 0 0 -1 -1 -2 0 0c0,0 -1,-1 -1,-2l0 0 -1 -1 -1 -2 0 -1 -1 -1 -1 -1 0 -1 -1 -2 0 0 -1 -1 0 0 -1 -1 0 -1 -1 -2 -1 -1 0 0 -1 -1 0 0 0 -1 0 0 -1 -1 -1 -1 0 0 -1 -2 0 0 -1 -1 0 0 -1 -1 0 0 0 -1 0 0 -1 -1 0 0 -1 -1 0 0 -1 -2 0 0 -1 -1 0 0 -1 -1 0 0 -1 -1 0 0 -1 -1 0 0 -1 -1 0 0c0,-1 -1,-2 -2,-2l0 0c0,-1 -1,-2 -2,-3l0 0c0,0 -1,-1 -2,-2l0 0 -2 -2 0 0c-1,-1 -1,-2 -2,-2l0 0c-1,-1 -1,-2 -2,-3l0 0c-1,0 -2,-1 -2,-2l0 0c-1,0 -2,-1 -3,-2l0 0c0,0 -1,-1 -2,-2l0 0c-1,-1 -2,-1 -2,-2l0 0c-1,-1 -2,-1 -3,-2l0 0c-1,-1 -2,-1 -2,-2l0 0c-1,-1 -2,-1 -3,-2l0 0c-1,-1 -2,-1 -3,-2l0 0c0,-1 -1,-1 -2,-2l0 0c-1,-1 -2,-1 -3,-2l0 0c-1,0 -2,-1 -3,-2l0 0c0,0 -1,-1 -2,-2l0 0c-1,0 -2,-1 -3,-1l0 0c-1,-1 -2,-2 -3,-2l0 0c-1,-1 -2,-1 -3,-2l0 0c-1,0 -2,-1 -3,-2l0 0c-1,0 -2,-1 -3,-1l0 0c-1,-1 -2,-1 -3,-2l0 0c-1,-1 -2,-1 -3,-2l0 0c-1,0 -2,-1 -3,-1l0 0c-1,-1 -2,-1 -3,-2l0 0c-2,0 -3,-1 -4,-1l0 0c-1,-1 -2,-1 -3,-2l0 0c-1,0 -2,-1 -3,-1l0 0c-1,-1 -3,-1 -4,-2l0 0c-1,0 -2,-1 -3,-1l0 0c-1,-1 -3,-1 -4,-1l0 0c-1,-1 -2,-1 -3,-2l0 0c-1,0 -3,-1 -4,-1l0 0c-1,0 -2,-1 -3,-1l0 0 -4 -2 0 0c-1,0 -3,0 -4,-1l0 0c-1,0 -2,0 -4,-1l0 0c-1,0 -2,-1 -4,-1l0 0c-1,0 -2,-1 -3,-1l0 0c-2,0 -3,-1 -4,-1l0 0c-2,0 -3,-1 -4,-1l0 0c-2,0 -3,-1 -4,-1l0 0c-2,0 -3,-1 -5,-1l0 0c-1,0 -2,0 -4,-1l0 0 -4 -1 0 0c-1,0 -3,0 -4,0l0 0c-2,-1 -3,-1 -5,-1l0 0c-1,0 -2,-1 -4,-1l0 0c-1,0 -3,0 -4,0l0 0c-2,-1 -3,-1 -5,-1l0 0c-1,0 -3,0 -4,-1l0 0c-2,0 -3,0 -5,0l0 0 -4 -1 0 0c-2,0 -4,0 -5,0l0 0c-2,0 -3,0 -5,0l0 0c-1,0 -3,-1 -5,-1l0 0c-1,0 -3,0 -4,0l0 0c-2,0 -4,0 -5,0l0 0c-2,0 -4,0 -5,0l0 0c-2,0 -3,0 -5,-1l0 0c-2,0 -3,0 -5,0l0 0c-2,0 -4,0 -5,0l0 0 -4 0 0 0 -3 0 0 0 -4 0 0 0 -3 0 0 0 -4 0 -3 0 0 0 -3 0 -3 0 0 0 -4 0 -3 0 0 0 -3 0 -3 0 -3 0 -3 0 -3 0 0 0 -3 0 0 0 -3 0 -3 0 0 0 -3 0 0 0 -3 0 0 0 -3 1 -3 0 -3 0 0 0 -3 0 0 0 -3 0 0 0 -3 0 0 0 -2 0 -3 0 -3 0 -3 0 0 0 -3 0 0 0 -3 0 -3 0 0 0 -3 -1 0 0 -2 0 0 0 -3 0 -3 0 0 0 -3 0 -3 0 0 0 -3 0 0 0 -3 0 0 0 -3 0 0 0 -3 0 0 0 -3 0 0 0 -3 0 0 0 -3 0 0 0 -3 0 -3 0 0 0 -3 -1 0 0 -3 0 0 0 -4 0 0 0 -3 0 -3 0 0 0 -3 0 0 0 -4 -1 0 0 -3 0 0 0 -4 0 0 0 -3 0 -4 0 0 0 -3 -1 0 0 -4 0 0 0 -3 0 0 0 -4 0 0 0 -4 -1 0 0 -2 0 0 0 -2 0 0 0 -2 0 0 0 -2 0 0 0 -2 0 0 0 -2 -1 -2 0 0 0 -2 0 0 0 -2 0 0 0 -1 0 -2 -1 0 0 -2 0 0 0 -2 0 -2 0 -2 -1 -4 0 0 0 -2 0 0 0 -2 -1 -2 0 0 0 -2 0c-2,0 -4,-1 -6,-1l-1 0 0 0 -2 -1 -2 0 0 0 -2 0 -2 -1 -2 0 0 0 -2 0 -4 -1 0 0 -2 0 0 0 -2 -1 0 0 -1 0 -2 0 0 0 -2 -1 0 0 -2 0 -2 -1 -2 0 0 0 -2 0 0 0 -2 -1 -2 0 -2 -1 0 0 -2 0 0 0 -1 -1 -2 0 -2 -1 0 0 -2 0 0 0 -2 -1 -2 0 -2 -1 -2 0 -2 -1 -2 0 0 0 -1 -1 -2 0 -2 -1 -2 0 -2 -1 0 0 -2 0 -2 -1 -2 -1c-3,-1 -6,-2 -10,-3l-3 -1c-2,-1 -5,-2 -8,-3l-1 0c-4,-1 -7,-3 -10,-4l-3 -1c-2,-1 -5,-2 -7,-3l-2 -1c-3,-2 -7,-3 -10,-4l-1 -1c-3,-2 -6,-3 -8,-4l-2 -1c-3,-2 -6,-3 -9,-5l-2 -1c-2,-1 -5,-3 -7,-4l-2 -1c-3,-2 -6,-4 -9,-6l-1 0c-2,-2 -5,-3 -7,-5l-3 -2c-2,-1 -5,-3 -7,-5l-1 0c-3,-2 -5,-4 -8,-6l-2 -2c-2,-1 -4,-3 -6,-5l-2 -1c-2,-2 -5,-4 -7,-6l-2 -2c-2,-2 -4,-3 -6,-5l-2 -2c-2,-2 -5,-4 -7,-6l-2 -2c-2,-2 -3,-3 -5,-5l-2 -2c-2,-2 -4,-5 -7,-7l-1 -2c-2,-2 -4,-3 -5,-5l-2 -3c-2,-2 -4,-4 -6,-6l-1 -2c-2,-2 -4,-4 -5,-6l-3 -3c-1,-2 -2,-3 -4,-5 0,-1 -1,-2 -1,-2 -2,-3 -4,-5 -6,-8l-2 -3c-1,-1 -2,-3 -3,-5l-2 -3c-2,-2 -3,-4 -5,-7l-2 -3c-1,-2 -2,-4 -3,-5l-2 -3c-1,-3 -3,-5 -4,-8 -1,-1 -1,-2 -2,-3 -1,-2 -2,-4 -3,-5l-1 -4c-2,-2 -3,-4 -4,-6 0,-2 -1,-3 -2,-5 -1,-1 -2,-3 -2,-5l-2 -4c-1,-2 -2,-3 -3,-5 0,-2 -1,-4 -2,-5 0,-2 -1,-4 -2,-6 -1,-1 -1,-3 -2,-4 0,-2 -1,-4 -2,-5 0,-2 0,-3 -1,-4 -1,-3 -2,-5 -3,-8 0,-1 0,-3 -1,-4 0,-2 -1,-3 -1,-5 -1,-1 -1,-3 -2,-4 0,-3 -1,-5 -2,-8 0,-1 -1,-3 -1,-4 -1,-2 -1,-3 -1,-5 -1,-1 -1,-3 -1,-4 -1,-3 -2,-5 -2,-8 0,-1 -1,-3 -1,-5 0,-1 -1,-3 -1,-5 0,-1 -1,-3 -1,-4 0,-2 -1,-4 -1,-6 0,-2 -1,-4 -1,-6 0,-2 0,-4 -1,-5 0,-2 0,-3 0,-5 -1,-2 -1,-3 -1,-5 0,-2 0,-4 -1,-6 0,-2 0,-4 0,-6 0,-2 0,-4 0,-5 -1,-2 -1,-3 -1,-5 0,-2 0,-3 0,-4l0 -1zm-55 1237c-22,-30 -16,-63 1,-95 5,-10 12,-20 19,-30 8,-10 16,-20 25,-30 54,-61 135,-175 186,-216l2 -1 0 0 1 -1 0 0 2 -1 0 0 1 -1 0 0 2 -1 0 0 0 -1 1 0 1 -1 1 0 1 -1 0 0 1 -1 0 0 2 -1 0 0 1 0 0 0 1 -1c0,0 1,0 2,-1l0 0 2 -1 0 0 1 0 0 0 1 -1 1 0 1 0 0 -1 1 0 0 0c1,0 2,-1 3,-1l0 0 1 0 1 0 1 -1 0 0c1,0 2,0 4,-1l0 0c1,0 2,0 4,0l0 0 1 -1 0 0c16,-1 30,4 46,13l0 0c23,13 48,35 80,60 91,72 225,166 396,145 287,-35 543,-362 267,-684l0 0 0 0 0 0 0 0 0 1 0 0 0 0 0 0 1 0 0 1 0 0 0 0 0 0 0 0 1 1c0,1 1,2 2,4l0 0c12,18 22,37 30,57l1 2c8,20 15,41 20,63l0 0c0,1 0,3 1,4 0,2 0,4 1,6l0 0c0,1 1,3 1,5l0 0c0,2 1,4 1,6l0 0 0 3 0 0c1,1 1,3 1,5l0 0c1,3 1,6 1,9l0 0c1,2 1,5 1,8l0 0c0,2 1,4 1,6l0 0 0 3 0 2 0 0 0 3 0 0c0,2 1,4 1,6l0 0 0 3c0,2 0,4 0,5l0 0c0,2 0,4 0,6l0 0c0,3 0,6 0,9l0 2 0 0 0 3 0 0 0 3 0 3 0 3 0 0 0 3 0 0 -1 3 0 2 0 3 0 3 0 3 -1 3 0 3 0 2 -1 3 0 3 0 3 -1 3 0 2 -1 3 0 3 0 3 0 0 -1 3 0 0 0 3 -1 2 -1 3 0 0 0 3 0 0 -1 3 0 0 0 3 0 0 -1 2 0 0 -1 3 0 0 0 3 0 0 -1 3 0 0 -1 2 0 0c0,2 -1,4 -1,6l0 0c-1,2 -1,4 -2,6l0 0c0,2 -1,4 -2,6l0 0c-1,4 -2,8 -4,12 0,2 -1,4 -2,6 0,2 -1,4 -2,6 0,2 -1,4 -2,6 -1,2 -2,4 -2,6 -2,4 -4,7 -5,11 -1,2 -2,4 -3,6l0 0c-1,2 -2,4 -3,5 -1,2 -1,4 -2,6l0 0c-2,4 -4,8 -6,11 -2,4 -4,7 -7,11l0 0c-1,2 -2,4 -3,5l0 0c-1,2 -2,4 -3,6 -1,2 -2,3 -4,5 -2,4 -4,7 -7,11 -1,1 -2,3 -3,5l0 0c-2,1 -3,3 -4,5 -2,2 -3,3 -4,5 -1,2 -3,3 -4,5l0 0c-1,1 -3,3 -4,5 -2,1 -3,3 -4,5l0 0c-2,1 -3,3 -5,4l0 0c-1,2 -2,4 -4,5 -1,2 -3,3 -4,5l0 0c-2,1 -3,3 -5,4l0 0c-1,2 -3,3 -4,5 -2,1 -3,3 -5,4 -2,2 -3,3 -5,5 -1,1 -3,3 -5,4 -1,2 -3,3 -5,4 -1,2 -3,3 -5,5l0 0c-1,1 -3,2 -5,4 -1,1 -3,2 -5,4l0 0c-2,1 -3,2 -5,4 -2,1 -4,2 -6,4 -1,1 -3,2 -5,4 -2,1 -4,2 -6,3l0 0c-1,1 -3,3 -5,4 -2,1 -4,2 -6,3l0 0c-2,2 -4,3 -6,4l0 0c-2,1 -4,2 -6,3 -2,1 -4,3 -6,4 -2,1 -4,2 -6,3l0 0c-2,1 -4,2 -6,3l0 0c-2,1 -4,2 -6,3l0 0c-2,1 -4,2 -6,3 -2,1 -5,2 -7,3l0 0c-2,1 -4,2 -6,3l0 0c-2,1 -5,1 -7,2l0 0c-2,1 -4,2 -6,3l0 0c-3,1 -5,2 -7,2l0 0c-2,1 -5,2 -7,3 -2,1 -4,1 -7,2l0 0c-2,1 -4,1 -7,2l0 0c-2,1 -4,2 -7,2l0 0c-2,1 -5,2 -7,2l0 0c-3,1 -6,2 -9,2l0 0c-3,1 -5,2 -8,2l0 0c-3,1 -6,2 -9,2l0 0c-3,1 -5,1 -8,2l0 0c-3,0 -6,1 -9,1l0 0c-2,1 -5,1 -8,1l0 0c-3,1 -5,1 -8,1l0 0c-3,1 -6,1 -8,1l0 0c-3,0 -6,1 -8,1 -3,0 -6,0 -8,0 -3,0 -5,0 -8,1 -3,0 -5,0 -8,0 -2,0 -5,0 -7,-1 -3,0 -6,0 -8,0 -3,0 -5,0 -8,0 -2,0 -5,-1 -7,-1 -3,0 -5,0 -7,-1 -3,0 -5,0 -8,-1l0 0c-2,0 -5,0 -7,-1l0 0c-2,0 -5,0 -7,-1 -3,0 -5,-1 -7,-1 -3,-1 -5,-1 -7,-2 -3,0 -5,-1 -7,-2 -3,0 -5,-1 -7,-1l0 0c-3,-1 -5,-2 -7,-2 -2,-1 -5,-2 -7,-2 -2,-1 -4,-2 -7,-3 -2,0 -4,-1 -6,-2 -3,-1 -5,-2 -7,-2 -2,-1 -4,-2 -7,-3 -2,-1 -4,-2 -6,-3 -2,-1 -4,-2 -7,-3 -2,0 -4,-1 -6,-2l0 0c-2,-1 -4,-2 -6,-3 -3,-1 -5,-3 -7,-4 -2,-1 -4,-2 -6,-3l0 0c-2,-1 -4,-2 -6,-3l0 0c-2,-1 -4,-2 -6,-4l0 0c-3,-1 -5,-2 -7,-3 -2,-1 -4,-2 -6,-4 -2,-1 -4,-2 -6,-3 -2,-1 -4,-3 -6,-4 -4,-2 -8,-5 -12,-8 -2,-1 -4,-2 -6,-4 -2,-1 -4,-2 -6,-4l0 0c-2,-1 -4,-2 -6,-4 -2,-1 -4,-2 -6,-4l0 0c-1,-1 -3,-3 -5,-4l0 0c-2,-1 -4,-3 -6,-4l0 0c-2,-2 -4,-3 -6,-4l0 0c-4,-3 -8,-6 -12,-9l-5 -5 0 0c-6,-4 -12,-8 -17,-13l0 0c-4,-3 -8,-6 -12,-9l0 0c-3,-3 -7,-6 -11,-9l0 0c-6,-5 -11,-9 -17,-14l-5 -3 0 0 -5 -5 0 0c-57,-50 -113,-112 -185,-40l-2 2 0 0c-1,1 -2,1 -2,2l0 0 -2 2 0 0 -2 2 0 0 -2 2 0 0 -2 2 0 0 -2 2 0 0 -2 2 0 0 -2 3 0 0 -2 2 0 0 -2 2 0 0 -24 31 0 0 -190 237 -2 2 -11 14c-3,4 -7,7 -9,11 -2,3 -3,5 -5,8 0,0 0,0 0,0 0,0 0,1 0,1 -16,29 -12,63 10,90l25 21 23 16zm319 -1107c-91,-158 58,-316 205,-233 85,48 147,128 227,171 118,63 278,79 401,-157l-1 1 0 0 -1 1 -1 1 0 0 0 1 -1 1 -1 0 0 1 -1 1 0 1 -1 0 0 1 -1 1 0 0 -2 2 0 0 -1 1 0 1 0 0 -1 1 -4 5 0 0 -1 1 0 1 -2 2 0 0 0 1 -1 0 -1 1 0 0 0 1 -1 1 0 0 -1 1 -1 1 0 0 0 1 -1 0 0 1 0 0 -1 1 -1 1 0 0 0 1 -1 0 0 0 -1 1 0 1 0 0 -1 0 0 1 0 0 -1 1 0 1 -1 0 0 0 0 1 -1 0 0 0 0 1 -1 0 0 1 0 0 -1 1 0 0 0 0 -1 1 0 0 0 0 0 1 -1 0 0 0 0 0 0 1 -1 0 0 0 0 0 -1 1 0 0 0 0 0 1c-127,118 -255,103 -378,12 -1,-1 -3,-2 -5,-3 -36,-25 -50,-40 -81,-65 -5,-4 -10,-8 -15,-12l0 0c-72,-58 -126,-116 -215,-101l-1 0c-1,0 -2,1 -4,1l-1 0c-1,0 -2,0 -3,1l-2 0 -3 1c-2,0 -3,1 -5,1l-2 1 -3 0 -2 1 -3 1 -2 1 -2 0 -3 1 -2 1 -2 1 -3 1 -2 1 -2 1 -2 1 -3 1 -2 1 -2 1 -2 1 -2 1 -3 1 -2 1 -2 2 -2 1 -2 1 -2 1 -2 2 -2 1 -2 1 0 0 -2 2 -2 1 -2 1 0 0 -2 2 0 0 -2 1 -2 2 -1 1 0 0 -2 2 0 0 -2 1 -2 2 -2 1 -1 2 0 0 -2 2 0 0 -2 1 -2 2 -1 2 0 0 -2 1 -2 2 0 0c-2,3 -5,6 -7,9l-2 2 -1 1 0 0 -2 2 -1 2c-1,1 -2,3 -3,4 -1,2 -3,4 -4,6l0 0c-1,1 -2,2 -2,4l0 0c-2,2 -3,4 -4,6 -1,2 -2,4 -3,6l0 0c-5,7 -8,15 -11,23 -1,2 -1,3 -2,5l0 0 0 2 0 0 -1 2c-1,2 -1,3 -2,5l0 2 -1 2 0 0 0 2 -1 3 0 0 0 2 -1 2 0 3 0 0 -1 2 0 0 0 2 0 0 -1 3 0 0 0 2 0 2 0 0 -1 3 0 0 0 2 0 3 -1 2 0 2 0 3 0 2 0 3 0 0 0 2 0 2 0 3 0 0 0 2 0 0 0 3 0 2 0 0 0 3 0 2 0 0 0 3 0 2 1 2 0 3 0 2 0 3 1 2 0 0 0 3 1 2 0 3 1 2 0 3 1 2 0 3 1 2 0 3 1 1 0 2 1 1 0 2 1 1 0 2 1 2 0 0 0 1 1 2 0 0 0 1 1 2 0 0 0 1 0 0 1 2 0 0 0 1 0 0 1 2 0 0 1 1 0 2 0 0 1 1 0 0 0 1 0 0 1 2 0 0 1 1 0 0 0 2 1 1 1 2 0 1 1 2 1 1 0 0 1 1 0 2 0 0 1 1 0 0 1 1 1 2 0 1 0 0 1 2 1 1 1 1 0 0 1 2 0 0 0 1 0 0 1 1 1 2 0 0 1 1 0 0 1 1 1 1 0 0 1 2 0 1 0 0 1 1 0 0 1 1 0 0 1 2 1 1 1 1 0 0 1 1 1 2 1 1 0 0 1 1 1 1 0 0 1 1 1 2 1 1 1 1 1 1 1 1 1 1 1 1 1 1 0 1 0 0 0 0 0 0 1 0 0 0 0 0 0 1 0 0 1 1 0 0 0 0 0 0 0 0 0 0 1 1 0 0 0 0 1 0 0 0 0 1 0 0 0 0 0 0 0 0 1 0 0 0 0 0 0 0 0 1 0 0 0 0 0 0 0 0 1 0 0 0 0 0 0 1 0 0 0 0 0 0 1 0 0 0 0 0 0 0 0 0 0 1 0 0 0 0 1 0 0 0 0 0 0 0 0 0 0 1 0 0 0 0 1 0 0 0z"/>
   <path class="fil4" d="M1754 2677c-47,-31 -52,-89 -15,-128l227 -284c40,-49 88,-72 144,-32 24,17 48,37 73,57 120,98 242,196 429,146 153,-40 250,-154 283,-283 16,-59 17,-121 5,-180 -13,-60 -41,-119 -83,-169 -210,-223 -414,-106 -641,-172 -31,-10 -60,-27 -83,-52 -23,-23 -40,-53 -49,-86 -14,-53 -5,-106 20,-149 25,-44 67,-77 119,-91 101,-27 158,35 234,97 24,19 56,44 88,69 127,101 277,122 391,-1 12,-12 76,-100 83,-104 11,-6 25,7 33,14 29,26 68,18 83,-20l45 -191c9,-36 21,-71 -7,-95 -5,-4 -9,-8 -14,-12l43 -54 77 3c11,0 21,-9 21,-20 1,-12 -8,-21 -20,-22l-71 -2 -19 -69c-3,-11 -15,-18 -26,-15 -11,3 -17,15 -14,26l20 73 -10 12 0 0 -33 42c-4,-2 -7,-5 -10,-8 -18,-15 -38,-17 -58,-11 -13,4 -24,11 -37,17l-175 87c-30,16 -43,54 -19,82 17,20 47,19 19,55l-38 50c-42,54 -82,45 -125,16 -30,-20 -59,-43 -87,-66 -125,-100 -236,-188 -440,-134 -106,28 -176,84 -226,172 -127,218 -17,504 226,578 41,13 81,20 123,23 81,7 125,4 201,4 109,1 182,35 223,84 21,24 33,51 40,80 6,30 5,61 -2,90 -17,63 -65,119 -141,139 -90,24 -171,-43 -252,-108 -45,-36 -92,-75 -143,-101 -55,-29 -112,-40 -170,-29 -34,6 -68,20 -99,43 -53,39 -94,102 -136,153 -46,58 -216,250 -233,303 -7,20 -10,41 -10,63 0,114 92,206 206,206 46,0 87,-14 121,-39l1 0 0 -1 0 0c-23,-13 -35,-20 -57,-34 -13,-7 -25,-15 -35,-22zm1213 -1558c-17,1 -32,-13 -32,-30 -1,-17 13,-31 30,-32 17,0 31,13 32,30 1,17 -13,32 -30,32z"/>
   <path class="fil5" d="M2569 2405c-135,35 -236,-5 -326,-67 102,78 212,140 369,98 153,-41 250,-154 283,-283 16,-59 17,-121 5,-180 -10,-47 -29,-92 -56,-133 -9,-13 -18,-24 -27,-36 -25,-30 -56,-56 -92,-79 18,15 34,31 48,47 43,51 70,109 83,169 13,60 11,122 -4,181 -33,128 -130,242 -283,283zm367 -1115c-89,123 -196,249 -370,172 46,25 94,40 140,42 67,2 132,-24 189,-84 0,-1 0,-1 0,-1 0,0 0,0 1,0 0,0 0,-1 0,-1 6,-5 21,-25 36,-45 21,-27 43,-56 47,-58 11,-6 25,7 33,14 29,26 68,18 83,-20l36 -150c0,-5 -59,168 -121,116 -23,-19 -51,-13 -74,15zm-892 204c-14,-53 -5,-106 20,-149 25,-44 67,-77 119,-91 72,-19 122,7 173,46 -110,-128 -266,-93 -331,8 -56,86 -41,215 89,291 -4,-3 -8,-6 -12,-10 -3,-3 -6,-6 -9,-9 -23,-23 -40,-53 -49,-86zm1065 -536l-22 27 33 26 21 -26c-10,2 -30,-14 -32,-27zm-1380 1604c3,-5 6,-9 10,-13l11 -14 216 -270c38,-46 81,-69 133,-39 -11,-8 -22,-17 -32,-24 -57,-41 -104,-18 -144,31l-212 265 -16 19c-2,2 -4,5 -6,7 -25,34 -22,78 7,109 5,5 10,9 15,13 2,1 3,2 5,3 10,8 21,16 33,24 -36,-30 -44,-75 -20,-111z"/>
   <path class="fil6" d="M1955 1161c52,24 78,35 119,67 5,-46 -5,-89 -21,-133 -38,17 -70,39 -98,66zm581 193c50,-9 95,-35 132,-67 0,0 -1,0 -1,0 -8,-4 -15,-9 -23,-14 -24,-16 -48,-35 -71,-53 -5,56 -16,90 -37,134zm-95 496c41,0 78,6 109,14 -3,-6 -5,-12 -8,-18 -15,-42 -21,-73 -23,-116 -31,25 -54,57 -71,92 -4,9 -8,18 -12,28 2,0 3,0 5,0zm-179 -2c44,3 77,3 113,2 -24,-42 -32,-77 -40,-127 -35,35 -61,78 -73,125zm-145 -25c24,8 48,13 72,17 -2,-8 -4,-17 -6,-24 -8,-40 -8,-70 -4,-110 -38,22 -68,54 -90,90 -3,5 -6,10 -8,14 11,5 24,10 36,13zm-279 -357c49,-23 83,-31 131,-35 -33,-38 -75,-63 -122,-77 -8,35 -11,70 -9,105 0,3 0,5 0,7zm25 -164c53,1 81,0 129,11 -15,-46 -38,-79 -72,-113 -11,14 -20,29 -29,45 -11,18 -20,38 -28,57zm-90 1093c-8,-48 -34,-95 -64,-131 -26,30 -52,61 -78,92 26,3 52,6 71,11 24,7 46,16 71,28zm-38 -163l26 -31c16,-19 31,-40 47,-60 29,36 60,84 67,130 -45,-22 -82,-33 -140,-39zm471 -175c-4,59 -15,93 -37,139 51,-9 95,-35 131,-68 -29,-24 -61,-49 -94,-71l0 0zm131 101c-2,57 -12,92 -31,137 50,-10 92,-37 128,-72 -33,-16 -65,-40 -97,-65zm362 -45c-11,36 -34,70 -66,95 57,2 100,7 145,27 -10,-49 -38,-91 -79,-122zm-296 -856c50,-8 99,-33 136,-65 -33,-25 -64,-50 -97,-70 -6,57 -17,91 -39,135z"/>
  </g>
 </g>
</svg>
