<?xml version="1.0" encoding="UTF-8"?>
<!DOCTYPE svg PUBLIC "-//W3C//DTD SVG 1.1//EN" "http://www.w3.org/Graphics/SVG/1.1/DTD/svg11.dtd">
<!-- Creator: CorelDRAW X7 -->
<svg xmlns="http://www.w3.org/2000/svg" xml:space="preserve" width="48.4292mm" height="33.8666mm" version="1.1" style="shape-rendering:geometricPrecision; text-rendering:geometricPrecision; image-rendering:optimizeQuality; fill-rule:evenodd; clip-rule:evenodd"
viewBox="0 0 4843 3387"
 xmlns:xlink="http://www.w3.org/1999/xlink">
 <defs>
  <style type="text/css">
   <![CDATA[
    .fil0 {fill:#0E253F}
   ]]>
  </style>
 </defs>
 <g id="Capa_x0020_1">
  <metadata id="CorelCorpID_0Corel-Layer"/>
  <g>
   <path class="fil0" d="M2426 505c586,2 1071,428 1167,986l0 -1c8,48 13,96 16,144 9,178 -22,347 -83,499 -151,379 -482,646 -867,725l0 0c-64,13 -129,21 -196,23l-1 0c-7,0 -14,1 -22,1l-1 0c-7,0 -14,0 -22,0 -215,-1 -416,-59 -590,-159 -12,-8 -23,-14 -38,-24 -13,-8 -27,-17 -40,-25 -38,-29 -44,-77 -19,-114 209,168 480,260 769,240 297,-22 564,-155 760,-379 269,-314 344,-731 200,-1119 -38,-102 -91,-197 -156,-281 -5,-8 -16,-9 -24,-4 -8,6 -9,17 -3,25 62,82 113,173 151,272 32,87 58,196 65,288 2,33 -15,61 -31,87 -14,23 -42,75 -63,90 -18,12 -36,17 -53,16l0 0c-19,-1 -38,-10 -57,-25l0 0c-13,-10 -29,-24 -47,-39 -75,-63 -184,-154 -250,-161 -7,-1 -14,0 -20,1 -11,2 -20,8 -27,16 -6,8 -10,17 -11,28 -1,7 -1,13 1,20 4,19 16,39 33,59l0 0c17,19 38,38 61,57 25,20 50,40 73,58 49,39 94,74 111,92 21,23 30,42 29,62 0,21 -9,44 -24,75 -51,110 -159,256 -276,389 -90,102 -234,252 -352,318 -9,5 -19,9 -28,12 -17,5 -47,6 -65,8 -279,19 -541,-70 -744,-232l214 -268c40,-49 88,-72 144,-32 24,17 48,37 73,57 120,98 242,196 429,146 153,-40 250,-154 283,-283 16,-59 17,-121 5,-180 -13,-60 -41,-119 -83,-169 -210,-223 -414,-106 -641,-172 -31,-10 -60,-27 -83,-52 -23,-23 -40,-53 -49,-86 -14,-53 -5,-106 20,-149 25,-44 67,-77 119,-91 101,-27 158,35 234,97 24,19 56,44 88,69 127,101 277,122 391,-1 12,-12 76,-100 83,-104 11,-6 25,7 33,14 29,26 68,18 83,-20l45 -191c9,-36 21,-71 -7,-95 -5,-4 -9,-8 -14,-12l43 -54 77 3c11,0 21,-9 21,-20 1,-12 -8,-21 -20,-22l-71 -2 -19 -69c-3,-11 -15,-18 -26,-15 -11,3 -17,15 -14,26l20 73 -10 12 0 0 -33 42c-4,-2 -7,-5 -10,-8 -18,-15 -38,-17 -58,-11 -13,4 -24,11 -37,17l-175 87c-30,16 -43,54 -19,82 17,20 47,19 19,55l-38 50c-34,44 -67,46 -101,30l-2 2c-37,32 -80,56 -130,65 21,-44 32,-78 37,-134l-16 -13 -18 -15c-37,32 -86,57 -136,65 22,-44 33,-78 39,-135 -88,-56 -184,-86 -325,-49 -23,6 -44,14 -64,22 16,44 26,87 21,133 -41,-32 -67,-43 -119,-67 -12,12 -24,25 -35,39 34,34 57,67 72,113 -48,-11 -76,-10 -129,-11 -6,17 -12,34 -15,52 46,14 88,39 121,77 -48,4 -82,12 -131,35 9,147 99,284 243,344 2,-4 5,-9 8,-14 22,-36 52,-68 90,-90 -4,40 -4,70 4,110 2,7 4,16 6,24 17,3 34,5 51,6 8,1 16,1 23,2l-1 0c12,-47 38,-90 73,-125 8,50 16,85 40,127 19,0 39,0 61,0l0 0c4,-10 8,-19 12,-28 17,-35 40,-67 71,-92 2,43 7,74 23,116 3,6 5,12 8,18l0 1c51,14 89,39 114,69 21,24 33,51 40,80 6,30 5,61 -2,90 -1,3 -2,6 -3,9 41,31 69,73 79,122 -45,-20 -88,-25 -145,-27 -20,15 -44,27 -72,35 -44,12 -86,1 -127,-20 -36,35 -78,62 -128,72 19,-45 29,-80 31,-137 -9,-8 -19,-15 -28,-23l-9 -7c-36,33 -80,59 -131,68 22,-46 33,-80 37,-139l0 0c-13,-8 -26,-16 -40,-23 -55,-29 -112,-40 -170,-29 -34,6 -68,20 -99,43 -34,24 -62,58 -89,93 29,36 60,84 67,130 -45,-22 -82,-33 -140,-39l1 0c-8,9 -18,20 -28,32l1 0c30,36 56,83 64,131 -25,-12 -47,-21 -71,-28 -19,-5 -45,-8 -70,-11 -10,12 -19,23 -28,34 -144,-169 -229,-370 -251,-591 -6,-54 -7,-57 25,-102 8,-13 16,-22 27,-31 18,-12 36,-17 53,-16l0 0c19,2 38,11 57,25l0 0c13,10 29,24 48,39 74,63 183,155 249,161 7,1 14,1 20,-1 11,-2 20,-8 27,-16 7,-7 11,-17 12,-28 0,-6 0,-13 -1,-20 -5,-19 -17,-39 -34,-59l0 0c-16,-18 -37,-38 -61,-56 -25,-21 -50,-40 -73,-59 -49,-38 -94,-73 -111,-92 -14,-15 -22,-29 -26,-42 -4,-12 -4,-25 -1,-39 11,-44 52,-109 78,-150l9 -16 0 0c10,-14 19,-29 30,-45 10,-15 21,-31 33,-47l19 -28 0 0c67,-92 148,-189 228,-276 78,-85 186,-194 283,-254 38,-24 60,-22 103,-25 125,-9 247,4 361,36 119,33 230,86 329,155 8,6 19,4 24,-4 6,-8 4,-19 -4,-25 -102,-71 -217,-126 -340,-160 -116,-32 -240,-46 -367,-38l-8 1c-298,23 -560,154 -758,379 -275,318 -348,759 -189,1149 46,111 109,213 187,304 -19,26 -36,49 -46,67 -146,-163 -247,-366 -286,-590l0 0c-8,-48 -13,-96 -16,-144 -8,-170 20,-341 83,-499 152,-380 485,-648 872,-725l1 0c54,-11 111,-18 168,-21l0 0c7,-1 15,-1 22,-1l1 0c7,-1 14,-1 21,-1l2 0c7,0 15,0 22,0zm806 1893c-147,169 -345,290 -564,341 -24,5 -8,-3 2,-11 50,-35 105,-85 149,-127 50,-49 99,-101 146,-153 118,-135 228,-284 281,-397 16,-34 26,-61 27,-88 0,-28 -11,-53 -38,-83 -19,-21 -64,-56 -114,-96 -25,-19 -51,-39 -73,-58 -22,-17 -42,-35 -57,-53l0 0c-14,-16 -24,-31 -27,-44 0,-4 -1,-8 0,-11 0,-4 2,-8 4,-11 2,-3 6,-5 10,-5 3,-1 6,-1 10,-1 56,6 161,94 232,154 19,16 36,30 49,40l0 0c23,18 48,29 74,31l0 0c24,2 48,-4 73,-21 28,-20 56,-72 74,-103 6,-11 6,-1 5,7 0,115 -23,238 -62,347 -46,126 -113,240 -201,342zm-1621 -1409c148,-170 346,-291 566,-342 21,-4 10,1 0,8 -53,39 -112,94 -159,141 -27,27 -54,55 -80,83 -89,97 -179,206 -250,308l-20 27 1 0c-5,7 -10,14 -14,21 -11,16 -21,31 -30,46l0 0c-6,9 -7,11 -10,15 -27,43 -70,111 -81,160 -5,19 -5,37 1,55 5,18 16,35 33,54 19,21 65,56 115,96 24,19 50,40 73,58 21,18 41,35 56,53l0 0c14,16 24,31 27,45 1,3 1,7 1,10 -1,4 -2,8 -5,11 -2,3 -5,5 -10,6 -3,0 -6,1 -10,0 -56,-5 -161,-93 -232,-154 -19,-16 -36,-30 -49,-40l0 0c-23,-18 -48,-29 -74,-31l0 0c-24,-2 -48,5 -72,21 -19,13 -24,23 -37,40 -4,5 -3,5 -3,-3 -1,-17 1,-41 2,-58 16,-232 107,-452 259,-628l2 -2zm254 308c-1,2 -1,3 -2,5l2 -5zm292 537l1 0 -1 0zm118 15c5,0 9,0 14,0 -5,0 -9,0 -14,0zm692 -730c-17,1 -32,-13 -32,-30 -1,-17 13,-31 30,-32 17,0 31,13 32,30 1,17 -13,32 -30,32z"/>
  </g>
 </g>
</svg>
