<?xml version="1.0" encoding="UTF-8"?>
<!DOCTYPE svg PUBLIC "-//W3C//DTD SVG 1.1//EN" "http://www.w3.org/Graphics/SVG/1.1/DTD/svg11.dtd">
<!-- Creator: CorelDRAW X7 -->
<svg xmlns="http://www.w3.org/2000/svg" xml:space="preserve" width="48.4292mm" height="33.8666mm" version="1.1" style="shape-rendering:geometricPrecision; text-rendering:geometricPrecision; image-rendering:optimizeQuality; fill-rule:evenodd; clip-rule:evenodd"
viewBox="0 0 4843 3387"
 xmlns:xlink="http://www.w3.org/1999/xlink">
 <defs>
  <style type="text/css">
   <![CDATA[
    .fil1 {fill:#0E253F}
    .fil7 {fill:#0F2844}
    .fil0 {fill:#14365B}
    .fil8 {fill:#181818}
    .fil4 {fill:#FFD43B}
    .fil2 {fill:white;fill-rule:nonzero}
    .fil5 {fill:#1A0000;fill-opacity:0.200000}
    .fil3 {fill:black;fill-opacity:0.301961}
    .fil6 {fill:black;fill-opacity:0.349020}
   ]]>
  </style>
 </defs>
 <g id="Capa_x0020_1">
  <metadata id="CorelCorpID_0Corel-Layer"/>
  <g id="_66799527360">
   <g>
    <path class="fil0" d="M2427 153c487,2 886,378 925,855l-743 991c-61,12 -124,19 -189,18 -494,-1 -897,-387 -927,-872l748 -974c60,-12 122,-18 186,-18z"/>
    <path class="fil1" d="M2322 221c36,-26 71,-48 105,-68 -380,-1 -727,229 -870,587 -50,124 -72,258 -65,391 2,38 6,76 12,113 16,-34 33,-66 51,-96 18,-28 38,-76 64,-94 35,-24 69,-17 101,7 49,39 166,149 226,155 24,2 37,-16 32,-37 -5,-25 -34,-55 -70,-83 -57,-47 -124,-97 -145,-120 -25,-27 -30,-48 -24,-74 9,-41 50,-102 70,-134 14,-23 31,-48 49,-73l0 0c122,-173 312,-377 419,-439l0 0 45 -35z"/>
    <path class="fil1" d="M2524 1949c-36,26 -70,49 -104,68 380,2 727,-229 869,-587 48,-119 72,-252 65,-391 -2,-38 -6,-76 -12,-113 -16,34 -33,66 -51,96l-26 40c-17,25 -46,85 -69,101 -35,24 -69,17 -101,-8 -49,-39 -166,-148 -226,-154 -24,-3 -37,15 -32,36 5,26 34,55 70,84 57,46 124,96 145,119 38,41 30,70 6,121 -83,177 -347,472 -488,554l0 0 -46 34z"/>
    <path class="fil2" d="M3093 574c-5,-6 -3,-14 3,-19 6,-5 14,-3 19,3 51,66 92,140 122,220 29,77 48,160 54,247 17,239 -65,463 -211,631 -146,168 -357,280 -596,297 -240,17 -464,-65 -632,-211 -168,-146 -280,-356 -297,-596 -17,-240 65,-463 212,-631 145,-168 355,-280 594,-297l6 -1c100,-6 197,4 288,30 96,26 186,69 266,125 7,5 8,13 4,19 -5,7 -13,8 -19,4 -78,-55 -165,-96 -258,-122 -90,-25 -185,-35 -284,-28 -232,16 -435,125 -577,288 -141,162 -220,379 -204,611 16,232 125,436 287,577 163,141 380,221 612,205 232,-17 435,-125 577,-288 141,-163 221,-379 204,-611 -5,-84 -23,-164 -52,-239 -29,-78 -69,-149 -118,-214z"/>
    <path class="fil3" d="M1965 902l0 0c3,173 52,291 217,341 31,10 63,16 96,18 63,5 98,3 157,3 93,1 216,34 209,139 1,-6 2,-13 3,-19l0 -1 0 0c0,-1 0,-2 0,-3l0 -1 0 0 0 -1 0 0c1,-2 1,-3 1,-5l0 0 0 -1 0 0 0 -1 0 0 0 -1 0 -2 0 0 0 0 0 -1 0 0 0 -1 0 0 0 -1 0 -1 0 0 0 -1 0 0 0 -1 0 0 0 -1 0 0 -1 -1 0 0 0 -1 0 0 0 -1 0 0 0 -1 0 0 0 -1 0 0 0 -1 0 -1 0 -1 0 0 0 -1 0 0 0 -1 0 0 0 -1 0 0 -1 -1 0 0 0 -1 0 0 0 0 0 -2 0 -1 0 -1 0 -1 0 0 -1 -1 0 0 0 -1 0 0 0 -1 0 0 0 -1 0 0 0 -1 0 0 -1 -1 0 -1 0 -1 0 -1 0 0 -1 -1 0 -2 0 -1 0 -1 0 0 -1 -1 0 -1 0 0 0 -1 -1 -1 0 -1 0 -1 -1 -1 0 -1 0 -1 0 0 -1 -1 0 0 0 -1 0 0 0 -1 0 0 -1 -1 0 0 0 -1 0 -1 -1 -1 0 0 0 -1 -1 -1 0 -1 -1 -1 0 -1 0 -1 -1 -1 0 0 0 -1 -1 -1 0 0 0 -1 -1 -1 0 0c0,-1 -1,-1 -1,-2l0 0 0 -1 -1 -1 0 -1 -1 -1 -1 -1 0 -1 -1 -1 0 0 0 -1 0 0 -1 -1 0 -1 -1 -1 -1 -1 0 0 0 -1 0 0 -1 0 0 0 0 -1 -1 -1 0 0 -1 -1 0 0 0 -1 0 0 -1 -1 0 0 -1 -1 0 0 0 -1 0 0 -1 -1 0 0 -1 -1 0 0 -1 -1 0 0 0 0 0 0 -1 -1 0 0 -1 -1 0 0 0 -1 0 0c-1,-1 -1,-1 -2,-2l0 0c0,0 -1,-1 -2,-2l0 0c0,0 -1,-1 -1,-1l0 0 -2 -2 0 0c0,-1 -1,-1 -2,-2l0 0c0,0 -1,-1 -1,-2l0 0c-1,0 -1,-1 -2,-1l0 0c-1,-1 -1,-1 -2,-2l0 0c0,0 -1,-1 -2,-2l0 0c0,0 -1,-1 -2,-1l0 0c0,-1 -1,-1 -1,-2l0 0c-1,0 -2,-1 -2,-1l0 0c-1,-1 -2,-1 -2,-2l0 0c-1,0 -2,-1 -2,-1l0 0c-1,-1 -2,-1 -2,-2l0 0c-1,0 -2,-1 -3,-1l0 0c0,-1 -1,-1 -2,-2l0 0c0,0 -1,-1 -2,-1l0 0c-1,-1 -1,-1 -2,-2l0 0c-1,0 -2,-1 -2,-1l0 0c-1,-1 -2,-1 -3,-2l0 0c0,0 -1,-1 -2,-1l0 0c-1,0 -2,-1 -2,-1l0 0c-1,-1 -2,-1 -3,-2l0 0c-1,0 -1,0 -2,-1l0 0c-1,0 -2,-1 -3,-1l0 0c0,-1 -1,-1 -2,-1l0 0c-1,-1 -2,-1 -3,-2l0 0c-1,0 -1,0 -2,-1l0 0c-1,0 -2,-1 -3,-1l0 0c-1,0 -2,-1 -3,-1l0 0c0,0 -1,-1 -2,-1l0 0c-1,0 -2,-1 -3,-1l0 0c-1,-1 -2,-1 -3,-1l0 0c-1,-1 -2,-1 -3,-1l0 0c-1,-1 -2,-1 -3,-1l0 0 -2 -1 0 0c-1,0 -2,-1 -3,-1l0 0c-1,0 -2,-1 -3,-1l0 0c-1,0 -2,-1 -3,-1l0 0c-1,0 -2,0 -3,-1l0 0c-1,0 -2,0 -4,0l0 0c-1,-1 -2,-1 -3,-1l0 0c-1,0 -2,-1 -3,-1l0 0c-1,0 -2,0 -3,-1l0 0c-1,0 -2,0 -3,0l0 0 -4 -1 0 0c-1,0 -2,0 -3,-1l0 0c-1,0 -2,0 -3,0l0 0c-1,0 -3,-1 -4,-1l0 0c-1,0 -2,0 -3,0l0 0c-1,0 -3,-1 -4,-1l0 0c-1,0 -2,0 -3,0l0 0c-1,0 -3,0 -4,-1l0 0 -3 0 0 0c-2,0 -3,0 -4,0l0 0c-1,0 -3,0 -4,-1l0 0c-1,0 -2,0 -4,0l0 0c-1,0 -2,0 -3,0l0 0c-2,0 -3,0 -4,0l0 0c-1,0 -3,0 -4,0l0 0c-1,0 -3,0 -4,0l0 0c-1,-1 -3,-1 -4,-1l0 0c-1,0 -2,0 -4,0l0 0 -3 0 0 0 -2 0 0 0 -3 0 0 0 -3 0 0 0 -2 0 -3 0 0 0 -3 0 -2 0 0 0 -3 0 -2 0 0 0 -3 0 -2 0 -2 0 -3 0 -2 0 0 0 -3 0 0 0 -2 0 -2 1 0 0 -3 0 0 0 -2 0 0 0 -2 0 -3 0 -2 0 0 0 -2 0 0 0 -2 0 0 0 -3 0 0 0 -2 0 -2 0 -2 0 -3 0 0 0 -2 0 0 0 -2 0 -2 0 0 0 -3 0 0 0 -2 0 0 0 -2 -1 -2 0 0 0 -3 0 -2 0 0 0 -2 0 0 0 -3 0 0 0 -2 0 0 0 -2 0 0 0 -3 0 0 0 -2 0 0 0 -2 0 0 0 -3 0 -2 0 0 0 -3 0 0 0 -2 0 0 0 -3 -1 0 0 -2 0 -3 0 0 0 -2 0 0 0 -3 0 0 0 -3 0 0 0 -2 0 0 0 -3 -1 -3 0 0 0 -3 0 0 0 -2 0 0 0 -3 0 0 0 -3 0 0 0 -3 -1 0 0 -2 0 0 0 -1 0 0 0 -2 0 0 0 -1 0 0 0 -2 0 0 0 -1 0 -2 -1 0 0 -2 0 0 0 -1 0 0 0 -2 0 -1 0 0 0 -2 0 0 0 -1 -1 -2 0 -1 0 -3 0 0 0 -2 -1 0 0 -1 0 -2 0 0 0 -1 0c-2,0 -3,-1 -5,-1l-1 0 0 0 -2 0 -1 -1 0 0 -2 0 -1 0 -2 0 0 0 -1 -1 -3 0 0 0 -2 -1 0 0 -1 0 0 0 -2 0 -1 0 0 0 -2 -1 0 0 -1 0 -2 0 -1 -1 0 0 -2 0 0 0 -1 0 -2 -1 -1 0 0 0 -2 0 0 0 -1 -1 -2 0 -1 0 0 0 -2 -1 0 0 -1 0 -2 -1 -1 0 -2 0 -1 -1 -2 0 0 0 -1 -1 -2 0 -1 0 -2 -1 -1 0 0 0 -2 -1 -1 0 -2 -1c-2,0 -5,-1 -7,-2l-3 -1c-2,-1 -4,-1 -6,-2l-1 -1c-3,-1 -5,-2 -8,-3l-2 0c-2,-1 -4,-2 -6,-3l-2 -1c-2,-1 -4,-2 -7,-3l-1 -1c-2,-1 -4,-2 -6,-3l-2 -1c-2,-1 -5,-2 -7,-3l-1 -1c-2,-1 -4,-2 -6,-3l-2 -1c-2,-2 -4,-3 -6,-4l-1 -1c-2,-1 -4,-2 -6,-4l-2 -1c-2,-1 -4,-3 -6,-4l0 0c-2,-2 -4,-4 -7,-5l-1 -1c-2,-2 -3,-3 -5,-4l-1 -1c-2,-2 -4,-3 -6,-5l-2 -1c-1,-2 -3,-3 -4,-4l-2 -2c-2,-1 -3,-3 -5,-5l-2 -1c-1,-1 -2,-3 -4,-4l-1 -2c-2,-2 -4,-3 -6,-5l-1 -2c-1,-1 -2,-2 -4,-4l-1 -2c-2,-1 -3,-3 -5,-5l-1 -1c-1,-2 -3,-3 -4,-5l-2 -2c-1,-2 -2,-3 -3,-4 0,-1 -1,-2 -1,-2 -2,-2 -3,-4 -4,-6l-2 -2c-1,-2 -2,-3 -3,-4l-1 -2c-1,-2 -3,-4 -4,-6l-1 -3c-1,-1 -2,-2 -3,-4l-1 -2c-1,-2 -3,-4 -4,-6 0,-1 -1,-2 -1,-2 -1,-2 -2,-3 -2,-5l-2 -2c-1,-2 -1,-4 -2,-5 -1,-2 -1,-3 -2,-4 -1,-1 -1,-3 -2,-4l-1 -3c-1,-1 -1,-3 -2,-4 -1,-2 -1,-3 -2,-4 0,-2 -1,-3 -2,-5 0,-1 0,-2 -1,-3 0,-1 -1,-3 -1,-4 -1,-1 -1,-2 -1,-3 -1,-2 -2,-4 -3,-6 0,-1 0,-2 -1,-3 0,-2 0,-3 -1,-4 0,-1 0,-2 -1,-3 0,-3 -1,-5 -2,-7 0,-1 0,-2 0,-3 -1,-1 -1,-3 -1,-4 -1,-1 -1,-2 -1,-3 -1,-2 -1,-4 -2,-6 0,-1 0,-3 0,-4 -1,-1 -1,-2 -1,-4 0,-1 -1,-2 -1,-3 0,-2 0,-3 -1,-5 0,-1 0,-3 0,-5 -1,-1 -1,-2 -1,-4 0,-1 0,-2 0,-3 -1,-2 -1,-3 -1,-4 0,-2 0,-4 0,-5 -1,-2 -1,-3 -1,-5 0,-1 0,-3 0,-4 0,-1 0,-2 0,-4 0,-1 -1,-2 -1,-3l0 0zm-42 970c-18,-24 -14,-50 0,-75 4,-8 9,-16 15,-23 6,-8 13,-16 19,-24 43,-47 106,-137 147,-169l1 -1 0 0 1 -1 0 0 1 -1 0 0 1 0 0 -1 1 0 0 0 1 -1 1 0 1 -1 0 0 1 0 0 -1 1 0 0 0 1 -1 0 0 1 0 0 0 0 -1c1,0 2,0 2,-1l1 0 1 0 0 0 1 -1 0 0 1 0 0 0 1 -1 0 0 1 0 0 0c1,0 1,-1 2,-1l0 0 1 0 0 0 1 0 0 0c1,-1 2,-1 3,-1l0 0c2,0 3,-1 4,-1l0 0 1 0 0 0c12,-1 23,3 36,10l0 0c18,10 37,28 62,47 72,56 177,130 311,114 225,-28 426,-284 209,-537l0 0 0 0 0 1 1 0 0 0 0 0 0 0 0 0 0 0 0 1 0 0 0 0 0 0 1 0 0 0c0,1 1,2 2,3l0 1c9,14 17,29 23,44l1 2c7,16 12,33 15,49l0 0c1,1 1,2 1,4 0,1 1,2 1,4l0 0c0,1 1,3 1,4l0 0c0,2 0,3 1,5l0 0 0 2 0 0c0,1 0,3 1,4l0 0c0,3 0,5 1,7l0 0c0,2 0,4 0,7l0 0c0,1 1,3 1,4l0 0 0 2 0 3 0 0 0 2 0 0c0,1 0,3 0,4l0 0 1 2c0,2 0,3 0,5l0 0c0,1 0,3 0,4l0 0c0,3 0,5 0,7l0 2 0 0 0 2 0 0 0 3 0 2 -1 2 0 0 0 2 0 0 0 3 0 2 0 2 0 2 0 3 -1 2 0 2 0 2 0 2 -1 3 0 2 0 2 -1 2 0 2 0 3 -1 2 0 0 0 2 0 0 0 2 -1 2 0 3 0 0 -1 2 0 0 0 2 0 0 -1 2 0 0 0 2 0 0 -1 3 0 0 0 2 0 0 -1 2 0 0 0 2 0 0c-1,2 -1,3 -1,5l0 0c-1,1 -1,3 -2,5l0 0c0,1 -1,3 -1,4l0 0c-1,3 -2,6 -3,10 -1,1 -1,3 -2,4 0,2 -1,3 -2,5 0,1 -1,3 -1,4 -1,2 -1,3 -2,5 -1,3 -3,6 -4,9 -1,1 -1,3 -2,4l0 0c-1,2 -1,3 -2,5 -1,1 -2,3 -2,4l0 0c-2,3 -3,6 -5,9 -2,3 -3,6 -5,8l0 0c-1,2 -2,3 -2,5l0 0c-1,1 -2,3 -3,4 -1,1 -2,3 -3,4 -2,3 -3,6 -5,8 -1,2 -2,3 -3,4l0 0c-1,2 -2,3 -3,4 -1,2 -2,3 -3,4 -1,2 -2,3 -3,4l0 0c-1,1 -3,3 -4,4 -1,1 -2,3 -3,4l0 0c-1,1 -2,2 -3,4l0 0c-1,1 -2,2 -4,3 -1,1 -2,3 -3,4l0 0c-1,1 -2,2 -4,4l0 0c-1,1 -2,2 -3,3 -1,1 -3,2 -4,4 -1,1 -2,2 -4,3 -1,1 -2,2 -3,3 -2,2 -3,3 -4,4 -2,1 -3,2 -4,3l0 0c-2,1 -3,2 -4,3 -2,1 -3,2 -4,4l0 0c-2,1 -3,2 -4,3 -2,1 -3,2 -5,3 -1,1 -2,2 -4,3 -1,1 -3,2 -4,3l0 0c-2,1 -3,2 -5,2 -1,1 -3,2 -4,3l0 0c-2,1 -3,2 -5,3l0 0c-1,1 -3,2 -4,3 -2,1 -3,1 -5,2 -2,1 -3,2 -5,3l0 0c-1,1 -3,1 -5,2l0 0c-1,1 -3,2 -4,3l0 0c-2,0 -4,1 -5,2 -2,1 -4,1 -5,2l0 0c-2,1 -4,2 -5,2l0 0c-2,1 -4,2 -6,2l0 0c-1,1 -3,2 -5,3l0 0c-2,0 -3,1 -5,1l0 0c-2,1 -4,2 -5,2 -2,1 -4,2 -6,2l0 0c-2,1 -3,1 -5,2l0 0c-2,0 -4,1 -6,1l0 0c-2,1 -4,1 -5,2l0 0c-3,1 -5,1 -7,2l0 0c-3,0 -5,1 -7,1l0 0c-2,1 -5,1 -7,2l0 0c-2,0 -4,1 -6,1l0 0c-3,0 -5,1 -7,1l0 0c-2,0 -4,1 -6,1l0 0c-3,0 -5,1 -7,1l0 0c-2,0 -4,0 -6,0l0 0c-2,1 -4,1 -6,1 -3,0 -5,0 -7,0 -2,0 -4,0 -6,0 -2,0 -4,0 -6,0 -2,0 -4,0 -6,0 -2,0 -4,0 -6,0 -2,0 -4,0 -6,0 -2,0 -4,-1 -6,-1 -2,0 -4,0 -6,0 -1,-1 -3,-1 -5,-1l0 0c-2,0 -4,-1 -6,-1l0 0c-2,0 -4,-1 -6,-1 -1,0 -3,-1 -5,-1 -2,0 -4,-1 -6,-1 -2,-1 -3,-1 -5,-2 -2,0 -4,0 -6,-1l0 0c-1,0 -3,-1 -5,-1 -2,-1 -4,-2 -5,-2 -2,-1 -4,-1 -6,-2 -1,0 -3,-1 -5,-2 -2,0 -3,-1 -5,-2 -2,0 -4,-1 -5,-2 -2,0 -4,-1 -5,-2 -2,0 -4,-1 -5,-2 -2,-1 -4,-1 -5,-2l0 0c-2,-1 -4,-2 -5,-3 -2,0 -4,-1 -5,-2 -2,-1 -4,-2 -5,-3l0 0c-2,0 -4,-1 -5,-2l0 0c-2,-1 -4,-2 -5,-3l0 0c-2,-1 -3,-2 -5,-3 -2,-1 -3,-1 -5,-2 -1,-1 -3,-2 -5,-3 -1,-1 -3,-2 -4,-3 -3,-2 -7,-4 -10,-6 -1,-1 -3,-2 -4,-3 -2,-1 -3,-2 -5,-3l0 0c-2,-2 -3,-3 -5,-4 -1,-1 -3,-2 -4,-3l0 0c-2,-1 -3,-2 -5,-3l0 0c-1,-1 -3,-2 -4,-3l0 0c-2,-2 -3,-3 -5,-4l0 0c-3,-2 -6,-4 -9,-7l-4 -3 0 0c-5,-4 -9,-7 -14,-11l0 0c-3,-2 -6,-4 -9,-7l0 0c-3,-2 -6,-4 -9,-7l0 0c-4,-3 -8,-7 -13,-10l-4 -3 0 0 -4 -4 0 0c-44,-39 -88,-88 -145,-31l-2 1 0 0c0,1 -1,1 -1,2l0 0 -2 1 0 0 -1 2 0 0 -2 1 0 0 -2 2 0 0 -1 2 0 0 -2 1 0 0 -1 2 0 0 -1 2 0 0 -2 2 0 0 -19 24 0 0 -149 186 -2 2 -8 10c-3,3 -5,6 -7,9 -2,2 -3,4 -4,6 0,0 0,0 0,0 0,1 -1,1 -1,1 -11,23 -8,50 8,70l20 18 19 12zm249 -869c-71,-123 46,-248 162,-182 66,37 115,100 177,134 93,49 219,62 315,-123l-1 0 0 0 -1 1 0 1 0 0 -1 1 0 1 -1 0 0 0 -1 1 0 1 0 0 -1 1 0 0 -1 1 -1 1 0 0 0 1 -1 1 0 0 -1 0 -3 4 0 1 0 0 -1 1 -1 1 0 1 0 0 -1 1 0 0 0 0 -1 1 -1 1 0 0 0 0 -1 1 0 0 0 1 -1 0 0 1 0 0 -1 1 0 0 0 0 -1 1 0 0 0 0 0 1 -1 0 0 1 0 0 -1 1 0 0 0 0 -1 1 0 0 0 0 -1 1 0 0 0 0 0 1 -1 0 0 0 0 0 0 1 0 0 -1 0 0 1 0 0 0 0 -1 0 0 1 0 0 0 0 0 0 -1 0 0 1 0 0 0 0 -1 0 0 0 0 1c-99,89 -199,74 -296,9 -1,-1 -3,-2 -4,-3 -10,-7 -17,-15 -24,-21 -13,-10 -24,-17 -39,-29 -4,-4 -8,-7 -12,-10l0 0c-56,-45 -99,-90 -169,-79l-1 1c-1,0 -2,0 -3,0l-1 0c-1,0 -2,1 -2,1l-2 0 -2 1c-1,0 -3,0 -4,1l-2 0 -2 1 -2 0 -2 1 -1 0 -2 1 -2 1 -2 0 -2 1 -2 1 -1 1 -2 0 -2 1 -2 1 -1 1 -2 1 -2 0 -1 1 -2 1 -2 1 -1 1 -2 1 -2 1 -1 1 -2 1 -2 1 -1 1 0 0 -2 1 -1 1 -2 1 0 0 -1 1 0 0 -2 2 -1 1 -2 1 0 0 -1 1 0 0 -1 1 -2 1 -1 2 -2 1 0 0 -1 1 0 0 -1 2 -2 1 -1 1 0 0 -1 1 -2 2 0 0c-2,2 -4,4 -6,7l-1 1 -1 2 0 0 -1 1 -1 1c-1,1 -2,2 -2,3 -1,2 -3,3 -4,5l0 0c0,1 -1,2 -2,3l0 0c-1,2 -1,3 -2,5 -1,1 -2,3 -3,5l0 0c-3,5 -6,12 -8,18 -1,1 -1,2 -2,3l0 0 0 2 0 0 -1 2c0,1 0,2 -1,3l0 2 -1 2 0 0 0 2 -1 2 0 0 0 1 -1 2 0 2 0 0 0 2 0 0 -1 2 0 0 0 2 0 0 0 1 -1 2 0 0 0 2 0 0 0 2 0 2 0 2 -1 2 0 2 0 1 0 2 0 0 0 2 0 2 0 2 0 0 0 2 0 0 0 2 0 2 0 0 0 2 0 2 0 0 0 1 1 2 0 2 0 2 0 2 0 2 1 2 0 0 0 2 0 2 1 2 0 2 0 2 1 2 0 2 1 2 0 2 1 1 0 1 0 1 1 1 0 2 0 1 1 1 0 0 0 1 1 2 0 0 0 1 0 1 0 0 1 1 0 0 0 1 0 0 1 1 0 0 0 2 0 0 1 1 0 1 0 0 1 1 0 0 0 1 0 0 1 1 0 0 0 2 0 0 1 1 0 1 1 1 0 1 1 1 0 1 0 0 1 1 1 1 0 0 0 1 0 0 1 2 0 1 1 1 0 0 1 1 0 1 1 1 0 0 0 1 0 0 1 1 0 0 1 1 0 1 0 0 1 1 0 0 1 1 0 1 0 0 1 1 1 1 0 0 1 1 0 0 0 1 0 0 1 1 1 1 0 1 0 0 1 1 1 1 1 1 0 0 0 1 1 1 0 0 1 1 1 0 1 1 0 1 1 1 1 1 1 1 1 1 0 1 0 0 1 0 0 0 0 0 0 0 0 0 0 0 0 1 0 0 1 0 0 0 0 0 0 1 0 0 0 0 1 0 0 0 0 0 0 1 0 0 1 0 0 0 0 0 0 0 0 0 0 0 0 0 0 1 0 0 0 0 1 0 0 0 0 0 0 0 0 0 0 0 0 0 0 1 0 0 0 0 0 0 1 0 0 0 0 0 0 0 0 0 0 0 0 0 0 1 0 0 0 0 0 0 1 0 0 0 0 0 0 0 0 0 0 0 0 0z"/>
    <path class="fil4" d="M1899 1857c-36,-25 -40,-70 -11,-101l178 -222c31,-39 69,-57 113,-25 18,13 38,29 57,45 94,76 190,153 337,114 120,-32 196,-121 222,-222 12,-46 13,-95 3,-141 -10,-48 -31,-93 -65,-133 -165,-175 -324,-83 -503,-135 -24,-7 -47,-21 -65,-40 -17,-19 -31,-42 -38,-68 -11,-42 -4,-83 16,-117 19,-34 52,-60 93,-71 79,-21 124,27 184,76 18,15 43,34 68,54 100,79 218,96 307,-1 9,-9 60,-78 66,-82 8,-4 19,6 25,11 23,21 54,15 66,-16l35 -149c7,-28 16,-56 -6,-75 -3,-3 -7,-6 -11,-9l34 -42 60 2c9,0 17,-7 17,-16 0,-9 -7,-16 -16,-17l-56 -2 -15 -54c-2,-8 -11,-14 -20,-11 -8,2 -13,11 -11,20l16 57 -8 10 0 0 -26 33c-3,-2 -5,-4 -8,-6 -14,-12 -30,-14 -46,-9 -9,3 -18,8 -28,13l-138 68c-23,13 -33,43 -15,65 14,15 38,14 16,43l-31 39c-33,43 -64,35 -98,13 -23,-16 -46,-34 -68,-52 -98,-79 -185,-148 -345,-105 -83,22 -137,65 -177,134 -100,172 -13,396 177,454 32,10 64,16 97,18 63,5 98,3 157,3 86,1 143,28 176,66 15,18 26,40 30,63 5,23 5,47 -1,70 -13,50 -51,93 -111,109 -70,19 -134,-33 -197,-84 -35,-28 -72,-59 -112,-80 -44,-22 -88,-31 -133,-22 -28,5 -54,16 -79,34 -41,30 -73,79 -106,120 -36,45 -170,195 -183,237 -5,16 -8,32 -8,50 0,89 73,161 162,161 36,0 69,-11 95,-31l0 0 1 0 0 0c-19,-10 -28,-16 -45,-27 -10,-6 -20,-12 -28,-17zm952 -1222c-14,1 -25,-10 -25,-24 -1,-13 10,-24 23,-25 14,0 25,10 26,24 0,13 -11,25 -24,25z"/>
    <path class="fil5" d="M2538 1643c-105,28 -184,-4 -255,-52 80,61 167,110 290,77 120,-32 196,-121 222,-222 12,-46 13,-95 3,-141 -8,-37 -22,-73 -44,-105 -6,-10 -13,-19 -21,-28 -20,-23 -44,-44 -71,-62 13,12 26,24 37,37 33,40 55,85 65,133 10,46 9,95 -3,141 -26,101 -103,190 -223,222zm288 -874c-69,96 -153,195 -289,135 36,20 73,31 109,32 53,2 104,-18 148,-65 0,-1 1,-1 1,-1 0,0 0,0 0,0 0,0 0,0 0,-1 5,-4 16,-19 29,-35 16,-21 33,-44 37,-46 8,-4 19,6 25,11 23,21 54,15 66,-16l27 -117c1,-4 -45,132 -94,91 -18,-15 -40,-10 -59,12zm-699 160c-11,-42 -4,-83 16,-117 19,-34 52,-60 93,-71 57,-15 96,5 135,36 -85,-101 -208,-73 -259,6 -44,68 -32,169 70,229 -4,-3 -7,-6 -10,-9 -2,-2 -4,-4 -7,-6 -17,-19 -31,-42 -38,-68zm835 -420l-17 21 26 20 16 -20c-7,1 -23,-11 -25,-21zm-1082 1257c2,-3 5,-7 8,-10l8 -10 170 -212c29,-37 64,-54 104,-31 -8,-7 -17,-13 -25,-19 -45,-32 -82,-14 -113,25l-167 208 -12 14c-1,2 -3,4 -4,6 -20,27 -18,61 5,85 4,4 7,7 12,10 1,1 2,2 4,3 7,6 16,12 25,19 -28,-24 -34,-59 -15,-88z"/>
    <path class="fil6" d="M2057 667c41,19 61,28 94,53 3,-36 -4,-70 -17,-104 -30,13 -55,30 -77,51zm456 152c39,-7 75,-27 103,-52 0,0 0,-1 0,-1 -6,-3 -12,-6 -19,-10 -18,-13 -37,-28 -55,-42 -4,44 -12,70 -29,105zm-75 389c33,1 61,4 86,12 -2,-6 -4,-11 -6,-15 -13,-33 -17,-57 -18,-91 -25,20 -43,45 -56,72 -3,7 -6,15 -9,22 1,0 2,0 3,0zm-140 -2c34,3 60,3 89,3 -19,-34 -25,-61 -32,-100 -27,27 -48,60 -57,97zm-114 -19c19,6 38,10 57,14 -2,-7 -4,-14 -5,-20 -6,-31 -6,-55 -3,-86 -30,18 -54,43 -71,71 -2,4 -4,7 -6,11 9,4 19,7 28,10zm-218 -280c38,-18 65,-24 102,-28 -26,-29 -59,-49 -95,-60 -6,27 -9,55 -8,83 0,2 1,3 1,5zm19 -129c41,1 64,1 102,9 -13,-36 -30,-62 -57,-88 -9,10 -16,22 -23,34 -9,15 -16,30 -22,45zm-71 858c-6,-38 -26,-75 -50,-103 -20,24 -40,48 -61,72 20,2 41,5 56,9 19,5 36,12 55,22zm-29 -128l20 -24c12,-16 24,-32 37,-48 23,28 47,67 52,103 -35,-18 -64,-27 -109,-31zm369 -137c-3,46 -12,73 -29,108 40,-7 74,-27 103,-53 -23,-19 -48,-39 -74,-55l0 0zm103 79c-2,45 -9,72 -25,108 39,-9 73,-30 101,-57 -26,-13 -51,-32 -76,-51zm284 -36c-9,29 -27,55 -52,75 45,2 79,6 114,21 -8,-39 -30,-71 -62,-96zm-232 -671c38,-6 77,-26 106,-51 -25,-20 -50,-39 -76,-55 -4,45 -13,71 -30,106z"/>
   </g>
   <path class="fil7" d="M2922 2290c31,31 47,78 47,139 0,61 -16,108 -47,139 -32,32 -77,48 -135,48l-105 0 0 176 -108 0 0 -550 213 0c58,0 103,16 135,48zm-60 139c0,-61 -27,-91 -80,-91l-100 0 0 181 100 0c26,0 46,-7 59,-20 14,-14 21,-38 21,-70zm512 -78l-168 491c-7,22 -17,39 -30,51 -20,21 -49,31 -86,31l-68 0 0 -90 51 0c15,0 26,-3 32,-7 7,-5 13,-15 19,-29l7 -22 -133 -425 106 0 79 307 85 -307 106 0z"/>
   <path class="fil8" d="M1588 3223c0,4 -2,6 -7,6l-100 0 0 -286c0,-4 0,-6 2,-7 1,-1 3,-2 7,-2 4,-1 12,-1 25,-1l0 264 73 0 0 26zm294 -593c0,52 -19,93 -57,122 -38,30 -87,45 -146,45 -47,0 -92,-13 -136,-39 -21,-13 -39,-32 -53,-57 -14,-24 -21,-52 -21,-83l97 -5c0,28 12,49 36,65 24,15 50,23 79,23 64,0 96,-23 96,-68 0,-37 -22,-59 -65,-66l-90 -9c-45,-7 -80,-23 -107,-48 -26,-25 -39,-61 -39,-109 0,-47 19,-86 56,-117 38,-31 85,-47 143,-47 57,0 104,15 139,44 35,29 52,67 52,112l-96 5c-8,-45 -39,-67 -90,-67 -32,0 -56,7 -74,20 -18,13 -27,29 -27,47 0,19 7,33 20,44 13,10 29,17 48,19l88 10c98,13 147,66 147,159zm316 1l91 -1c0,4 -1,11 -1,22 -1,11 -1,18 -1,22 -1,4 -1,10 -2,18 -1,9 -2,15 -4,19 -1,4 -3,9 -5,15 -9,27 -34,48 -75,63 -27,10 -54,14 -83,14 -28,0 -54,-5 -77,-14 -24,-9 -42,-21 -55,-35 -31,-33 -46,-92 -46,-180 0,-88 15,-148 46,-180 13,-14 31,-26 55,-35 23,-10 48,-14 77,-14 55,0 98,14 127,42 28,27 43,66 43,115l-91 0c0,-22 -6,-39 -17,-50 -12,-11 -33,-17 -63,-17 -31,0 -51,10 -61,29 -10,19 -15,47 -15,86l0 40c0,61 12,98 35,113 11,6 25,10 43,10 17,0 31,-2 42,-5 12,-4 20,-10 24,-18 5,-8 9,-16 10,-24 2,-8 3,-20 3,-35zm227 -448c24,0 40,3 47,11 7,7 11,23 11,47 0,24 -4,40 -12,47 -7,7 -23,11 -47,11 -24,0 -39,-4 -47,-11 -7,-8 -11,-24 -11,-48 0,-23 4,-39 11,-46 8,-8 23,-11 48,-11zm49 609l-100 0 0 -425 100 0 0 425zm-745 296c0,62 -1,106 -2,131 -16,10 -37,15 -61,15 -12,0 -22,-2 -31,-5 -8,-3 -15,-9 -20,-19 -5,-9 -8,-23 -8,-41 0,-26 5,-45 16,-54 10,-10 24,-15 41,-15 13,0 23,2 31,5l0 -33c0,-10 -2,-16 -7,-20 -4,-3 -10,-5 -19,-5 -22,0 -41,3 -57,9 -3,-6 -4,-12 -4,-19 0,-6 1,-10 4,-12 5,-3 13,-5 25,-8 12,-2 25,-3 40,-3 18,0 32,4 40,12 8,7 12,21 12,39l0 23zm-34 42c-6,-3 -12,-5 -20,-5 -10,0 -18,3 -24,9 -5,6 -8,18 -8,34 0,15 2,25 7,29 4,5 12,8 21,8 10,0 17,-2 23,-7 0,-9 1,-32 1,-68zm55 -83c0,-7 0,-14 1,-18 0,-5 1,-8 2,-9 1,-1 2,-2 4,-2l22 0 0 -64c0,-4 1,-7 3,-9 2,-1 5,-2 9,-3 4,0 11,0 22,0l0 76 44 0c0,8 0,14 -1,19 0,4 -1,7 -2,8 -1,2 -2,2 -4,2l-37 0 0 124c0,11 1,20 3,25 1,6 6,8 12,8 8,0 16,-2 25,-6 2,6 3,11 3,17 0,12 -13,19 -37,19 -11,0 -20,-3 -26,-8 -6,-5 -9,-12 -11,-21 -2,-8 -3,-20 -3,-34l0 -124 -29 0zm170 176c0,2 -1,4 -2,5 -1,1 -4,1 -10,1 -5,0 -13,0 -22,0l0 -195c0,-6 0,-10 2,-12 2,-2 5,-3 9,-3 5,-1 12,-1 23,-1l0 205zm44 -195c9,-4 20,-7 32,-10 13,-3 25,-4 35,-4 22,0 38,4 47,13 8,8 13,23 13,43l0 153c0,2 -1,4 -2,5 -1,1 -5,1 -10,1 -6,0 -14,0 -23,0l0 -148c0,-15 -2,-24 -6,-30 -3,-5 -10,-8 -20,-8 -12,0 -23,3 -32,8l0 172c0,2 0,4 -1,5 -1,1 -5,1 -10,1 -6,0 -13,0 -23,0l0 -201zm159 96c0,-74 23,-110 70,-110 16,0 28,3 38,9 9,7 16,18 21,34 5,16 7,38 7,66 0,38 -6,66 -18,84 -11,18 -29,27 -52,27 -16,0 -28,-3 -37,-8 -10,-6 -17,-16 -22,-32 -5,-16 -7,-40 -7,-70zm37 1c0,22 1,39 3,51 3,11 6,19 10,23 4,4 10,6 17,6 10,0 18,-6 24,-18 5,-12 8,-33 8,-64 0,-22 -1,-39 -3,-51 -3,-11 -6,-19 -10,-23 -4,-4 -10,-7 -17,-7 -10,0 -18,6 -24,18 -5,12 -8,33 -8,65zm360 98c0,3 -1,4 -3,6 -2,1 -6,1 -12,1 -8,0 -15,0 -21,-1l-17 -75 -74 0 -16 69c-1,3 -3,5 -4,6 -2,1 -6,1 -13,1 -5,0 -12,0 -21,-1l76 -291c1,-4 5,-6 13,-6 6,0 12,0 16,1l76 290zm-75 -161c-9,-34 -13,-61 -15,-81 -3,25 -8,52 -15,81l-15 61 59 0 -14 -61zm97 -34c20,-10 41,-14 63,-14 18,0 31,4 39,13 15,-9 33,-13 51,-13 14,0 24,2 31,6 7,5 12,11 14,20 2,8 3,19 3,33l0 150c0,2 0,4 -1,5 -2,1 -5,1 -11,1 -5,0 -13,0 -22,0l0 -156c0,-11 -1,-19 -4,-23 -3,-4 -8,-6 -17,-6 -10,0 -20,2 -29,8l0 51 0 1 0 119c0,2 0,4 -1,5 -1,1 -4,1 -10,1 -5,0 -13,0 -22,0l0 -157c0,-8 -1,-14 -2,-17 0,-4 -2,-7 -5,-9 -3,-2 -8,-3 -14,-3 -11,0 -20,3 -29,8l0 172c0,2 -1,4 -2,5 -1,1 -4,1 -10,1 -6,0 -13,0 -22,0l0 -201zm310 173c17,0 33,-5 49,-14 2,6 3,14 3,23 0,7 -6,12 -18,17 -11,4 -25,7 -41,7 -14,0 -26,-3 -36,-8 -10,-6 -17,-16 -23,-30 -6,-14 -9,-35 -9,-61 0,-33 4,-59 11,-76 7,-18 16,-30 26,-36 11,-6 24,-9 38,-9 36,0 54,22 54,67 0,23 -1,41 -5,55 -22,5 -52,7 -88,7 0,22 4,37 10,45 6,9 16,13 29,13zm-3 -157c-22,0 -34,24 -36,72 25,0 45,-1 58,-5 1,-7 2,-15 2,-25 0,-16 -2,-27 -5,-33 -4,-6 -10,-9 -19,-9zm-28 -51c-3,0 -5,-2 -7,-5 -2,-2 -3,-5 -4,-9 -1,-3 -2,-5 -2,-5 9,-11 20,-21 33,-33 14,-11 21,-17 23,-17 4,0 7,3 10,8 3,6 5,12 6,18 -4,4 -12,11 -27,21 -14,10 -25,18 -32,22zm116 40c18,-13 37,-19 57,-19 20,0 30,6 30,17 0,8 -2,14 -4,20 -6,-3 -13,-5 -20,-5 -11,0 -21,4 -29,10l0 167c0,2 0,4 -2,5 -1,1 -4,1 -10,1 -5,0 -13,0 -22,0l0 -196zm146 190c0,2 -1,4 -2,5 -1,1 -4,1 -10,1 -5,0 -13,0 -22,0l0 -195c0,-6 0,-10 2,-12 2,-2 5,-3 9,-3 5,-1 12,-1 23,-1l0 205zm144 -190c0,6 -1,13 -4,19 -9,-6 -19,-8 -30,-8 -12,0 -22,5 -30,17 -8,11 -12,34 -12,68 0,19 1,34 4,45 3,11 7,19 12,23 6,4 13,6 22,6 13,0 25,-3 34,-10 2,9 3,15 3,19 0,6 -4,11 -13,15 -9,5 -21,7 -34,7 -15,0 -27,-3 -36,-9 -9,-5 -16,-15 -20,-31 -5,-15 -7,-37 -7,-66 0,-45 7,-76 21,-91 14,-16 32,-23 55,-23 10,0 18,2 25,5 7,4 10,8 10,14zm142 55c0,62 -1,106 -2,131 -16,10 -36,15 -61,15 -12,0 -22,-2 -31,-5 -8,-3 -15,-9 -20,-19 -5,-9 -8,-23 -8,-41 0,-26 6,-45 16,-54 10,-10 24,-15 41,-15 13,0 24,2 31,5l0 -33c0,-10 -2,-16 -6,-20 -5,-3 -11,-5 -20,-5 -22,0 -41,3 -57,9 -3,-6 -4,-12 -4,-19 0,-6 1,-10 4,-12 5,-3 13,-5 25,-8 12,-2 25,-3 40,-3 18,0 32,4 40,12 8,7 12,21 12,39l0 23zm-34 42c-5,-3 -12,-5 -20,-5 -10,0 -18,3 -24,9 -5,6 -8,18 -8,34 0,15 2,25 7,29 5,5 12,8 21,8 10,0 18,-2 23,-7 0,-9 1,-32 1,-68z"/>
  </g>
 </g>
</svg>
