<?xml version="1.0" encoding="UTF-8"?>
<!DOCTYPE svg PUBLIC "-//W3C//DTD SVG 1.1//EN" "http://www.w3.org/Graphics/SVG/1.1/DTD/svg11.dtd">
<!-- Creator: CorelDRAW X7 -->
<svg xmlns="http://www.w3.org/2000/svg" xml:space="preserve" width="48.4292mm" height="33.8666mm" version="1.1" style="shape-rendering:geometricPrecision; text-rendering:geometricPrecision; image-rendering:optimizeQuality; fill-rule:evenodd; clip-rule:evenodd"
viewBox="0 0 4843 3387"
 xmlns:xlink="http://www.w3.org/1999/xlink">
 <defs>
  <style type="text/css">
   <![CDATA[
    .fil1 {fill:#0E253F}
    .fil2 {fill:#14365B}
    .fil0 {fill:#181818}
    .fil5 {fill:#FFD43B}
    .fil3 {fill:white;fill-rule:nonzero}
    .fil6 {fill:#1A0000;fill-opacity:0.200000}
    .fil4 {fill:black;fill-opacity:0.301961}
    .fil7 {fill:black;fill-opacity:0.349020}
   ]]>
  </style>
 </defs>
 <g id="Capa_x0020_1">
  <metadata id="CorelCorpID_0Corel-Layer"/>
  <g id="_66799532896">
   <path class="fil0" d="M3182 2685l-116 0c-87,0 -128,-25 -128,-108l0 -333 86 0 0 318c0,26 9,46 37,46l121 0 0 77zm-238 407l548 0 0 22 -548 0 0 -22zm0 -73l548 0 0 22 -548 0 0 -22zm-1594 73l549 0 0 22 -549 0 0 -22zm0 -73l549 0 0 22 -549 0 0 -22zm643 210c-2,-5 -3,-10 -3,-15 0,-8 1,-14 3,-18 2,-4 6,-12 12,-23 14,-23 36,-52 65,-86 23,-27 40,-50 51,-67 10,-17 16,-35 16,-53 0,-26 -15,-39 -45,-39 -15,0 -31,2 -46,5 -16,4 -29,9 -38,15 -4,-9 -6,-20 -6,-34 0,-5 5,-10 14,-14 10,-5 22,-9 38,-12 16,-3 32,-5 50,-5 32,0 54,7 66,20 13,12 19,32 19,59 0,16 -3,32 -10,48 -6,15 -14,29 -24,43 -10,13 -24,30 -42,52 -27,31 -47,58 -61,80l78 0c12,0 26,-1 40,-2 14,-1 23,-2 28,-2 0,19 -1,31 -2,38 -1,6 -4,10 -8,10l-195 0zm238 -171c0,-58 8,-102 25,-131 17,-29 43,-44 80,-44 36,0 62,13 78,40 16,26 24,67 24,121 0,65 -8,113 -23,144 -16,30 -43,46 -82,46 -38,0 -65,-15 -80,-43 -14,-28 -22,-73 -22,-133zm50 4c0,32 2,57 5,76 3,19 9,33 16,41 8,8 19,13 32,13 20,0 34,-12 43,-35 8,-23 13,-61 13,-113 0,-41 -4,-71 -12,-91 -7,-19 -21,-29 -40,-29 -21,0 -36,12 -44,35 -9,23 -13,57 -13,103zm265 -131c-19,2 -45,8 -64,12 -5,-7 -8,-22 -8,-35 0,-2 7,-6 22,-10 15,-4 32,-8 50,-12 18,-4 30,-5 37,-5 6,0 10,0 13,2 0,104 -1,210 -1,313 0,6 3,28 -2,31 -1,1 -3,2 -7,2 -12,0 -33,0 -39,0l-1 -298zm300 -49c0,5 0,11 0,17 0,9 0,18 -3,23 -45,92 -68,187 -69,290 0,19 -11,17 -28,17 -9,-1 -12,-1 -20,-1 1,-109 19,-199 63,-300 -29,2 -75,2 -134,2 -8,0 -9,-20 -9,-48l200 0zm-1164 -327c0,41 -15,74 -46,98 -30,23 -70,35 -117,35 -38,0 -74,-10 -109,-31 -17,-10 -32,-26 -43,-45 -11,-20 -17,-42 -17,-67l79 -4c0,22 9,40 28,52 19,12 40,19 63,19 52,0 78,-19 78,-55 0,-30 -18,-47 -53,-53l-72 -7c-36,-5 -64,-18 -85,-38 -21,-21 -32,-50 -32,-88 0,-38 15,-69 45,-94 30,-25 69,-37 115,-37 46,0 83,11 111,35 28,23 42,53 42,90l-77 4c-7,-36 -31,-54 -72,-54 -26,0 -45,5 -60,16 -14,11 -21,23 -21,38 0,15 5,26 16,35 10,8 23,13 38,15l71 8c78,11 118,53 118,128zm253 0l73 0c0,3 -1,9 -1,18 0,8 -1,14 -1,17 0,3 -1,8 -1,15 -1,6 -2,11 -3,14 -1,3 -3,7 -4,12 -8,22 -28,39 -61,51 -21,8 -43,11 -66,11 -23,0 -44,-3 -62,-11 -19,-7 -33,-17 -44,-28 -24,-26 -37,-74 -37,-144 0,-71 13,-119 37,-144 11,-12 25,-22 44,-29 18,-7 39,-11 62,-11 44,0 78,11 101,33 23,23 35,54 35,93l-73 0c0,-18 -5,-31 -14,-40 -9,-9 -26,-14 -50,-14 -25,0 -41,8 -49,23 -8,16 -12,39 -12,69l0 32c0,49 9,79 28,91 9,5 20,8 34,8 14,0 26,-2 35,-4 9,-3 15,-8 19,-14 4,-7 6,-13 8,-20 1,-6 2,-15 2,-28zm182 -359c19,0 32,3 37,9 6,6 9,18 9,38 0,19 -3,31 -9,37 -6,6 -18,9 -38,9 -19,0 -31,-3 -37,-9 -6,-6 -9,-19 -9,-38 0,-19 3,-31 9,-37 6,-6 18,-9 38,-9zm39 489l-80 0 0 -341 80 0 0 341zm1335 0l-58 0 -14 -32 -83 35c-59,3 -89,-17 -106,-52 -8,-17 -14,-35 -17,-55 -3,-19 -5,-40 -5,-61 0,-21 1,-37 1,-47 0,-10 1,-22 3,-35 2,-14 4,-25 7,-34 3,-9 8,-19 13,-28 6,-10 13,-18 22,-23 18,-13 42,-20 72,-20l165 0 0 352zm-80 -113l0 -166 -61 0c-23,0 -39,9 -48,26 -9,17 -13,43 -13,78 0,34 4,58 13,72 8,14 24,19 47,19l62 -29z"/>
   <path class="fil1" d="M2515 2282c26,25 38,62 38,111 0,50 -12,87 -38,112 -25,26 -61,38 -107,38l-85 0 0 142 -86 0 0 -441 171 0c46,0 82,12 107,38zm-48 111c0,-48 -21,-73 -64,-73l-80 0 0 146 80 0c21,0 37,-6 48,-17 11,-11 16,-30 16,-56zm411 -62l-135 393c-6,18 -14,32 -24,42 -16,16 -39,25 -69,25l-55 0 0 -73 42 0c11,0 20,-2 26,-6 5,-4 10,-11 14,-23l6 -17 -106 -341 85 0 63 246 68 -246 85 0z"/>
   <g>
    <path class="fil2" d="M2421 153c487,2 886,378 925,855l-743 991c-61,12 -124,18 -189,18 -494,-2 -896,-387 -927,-873l749 -973c59,-12 121,-18 185,-18z"/>
    <path class="fil1" d="M2316 221c36,-26 71,-48 105,-68 -380,-2 -727,229 -870,587 -49,123 -71,258 -65,391 2,37 6,75 13,113 16,-34 33,-66 51,-96 17,-28 37,-76 64,-94 34,-24 68,-17 100,7 50,39 167,148 227,155 24,2 36,-16 32,-37 -6,-25 -35,-55 -70,-84 -57,-46 -125,-96 -146,-119 -25,-27 -30,-48 -24,-74 10,-42 50,-102 70,-134 15,-23 31,-48 49,-73l0 0c122,-173 312,-377 419,-440l0 0 45 -34z"/>
    <path class="fil1" d="M2518 1949c-35,26 -70,48 -104,68 380,2 727,-229 869,-587 49,-120 72,-252 65,-391 -1,-38 -6,-76 -12,-113 -16,34 -33,66 -51,96l-26 40c-16,25 -46,85 -69,100 -35,24 -69,17 -100,-7 -50,-39 -167,-148 -227,-155 -24,-2 -36,16 -32,37 6,25 34,55 70,84 57,46 124,96 146,119 37,41 30,70 6,120 -84,178 -348,472 -489,555l0 0 -46 34z"/>
    <path class="fil3" d="M3087 574c-4,-6 -3,-14 3,-19 6,-5 14,-4 19,3 51,66 92,140 122,220 30,77 48,160 54,246 17,240 -65,464 -211,632 -146,168 -356,280 -596,297 -239,16 -463,-65 -631,-212 -168,-146 -281,-356 -297,-595 -17,-240 65,-464 211,-632 146,-167 355,-279 594,-297l7 0c99,-6 196,4 287,30 97,26 187,69 267,125 6,5 7,13 3,19 -4,7 -13,8 -19,4 -78,-55 -165,-96 -258,-122 -90,-25 -185,-35 -283,-28 -232,16 -436,125 -577,287 -142,163 -221,380 -205,612 17,232 125,435 288,577 163,141 379,220 611,204 232,-16 436,-125 577,-287 141,-163 221,-380 205,-612 -6,-84 -24,-164 -52,-238 -30,-78 -70,-150 -119,-214z"/>
    <path class="fil4" d="M1960 902l0 0c2,173 51,290 216,341 32,10 63,16 96,18 64,5 98,3 158,3 93,1 215,34 208,139 2,-6 3,-13 3,-19l0 -1 0 0c0,-2 1,-3 1,-4l0 -1 0 0 0 -1 0 0c0,-1 0,-2 0,-4l0 0 0 -1 0 0 0 -1 0 0 0 -1 0 -2 0 0 0 -1 0 0 0 -1 0 0 0 0 0 -1 0 -1 0 0 0 -1 0 0 0 -1 0 0 0 -1 0 0 0 -1 0 0 0 -1 0 -1 0 -1 0 0 0 -1 0 0 -1 -1 0 0 0 -1 0 0 0 -1 0 0 0 -1 0 0 0 -1 0 0 0 -1 0 0 0 -1 0 0 0 -1 0 -1 0 0 -1 -2 0 0 0 -1 0 -1 0 0 0 -1 0 0 0 -1 -1 0 0 -1 0 0 0 -1 0 0 0 -1 0 0 0 -2 -1 -1 0 -1 0 -1 0 0 0 -1 -1 -1 0 -1 0 -1 0 0 0 -1 -1 -1 0 0 0 -1 0 -1 -1 -1 0 -1 0 -1 -1 -1 0 -1 0 0 0 -1 0 0 -1 -1 0 0 0 -1 0 0 0 -1 0 0 -1 -1 0 -1 -1 -1 0 0 0 -1 0 -1 -1 -1 0 -1 -1 -1 0 -1 -1 -1 0 0 0 -1 -1 -1 0 0 0 -1 -1 -1 0 0c0,-1 0,-2 -1,-2l0 0 0 -1 -1 -1 0 -1 -1 -1 0 -1 -1 -1 0 -1 0 0 -1 -1 0 0 -1 -1 0 -1 -1 -1 0 -1 0 0 -1 -1 0 0 -1 -1 0 0 0 -1 -1 -1 0 0 0 -1 0 0 -1 0 0 0 -1 -1 0 0 0 -1 0 0 -1 -1 0 0 -1 -1 0 0 -1 -1 0 0 0 -1 0 0 -1 -1 0 0 -1 -1 0 0 0 -1 0 0 -1 0 0 0c-1,-1 -1,-2 -2,-2l0 0c0,-1 -1,-1 -1,-2l0 0c-1,-1 -1,-1 -2,-2l0 0 -2 -1 0 0c0,-1 -1,-2 -1,-2l0 0c-1,-1 -1,-1 -2,-2l0 0c-1,0 -1,-1 -2,-2l0 0c0,0 -1,-1 -2,-1l0 0c0,-1 -1,-1 -1,-2l0 0c-1,0 -2,-1 -2,-1l0 0c-1,-1 -2,-2 -2,-2l0 0c-1,-1 -1,-1 -2,-2l0 0c-1,0 -1,-1 -2,-1l0 0c-1,-1 -1,-1 -2,-2l0 0c-1,0 -1,-1 -2,-1l0 0c-1,-1 -2,-1 -2,-2l0 0c-1,0 -2,-1 -2,-1l0 0c-1,-1 -2,-1 -3,-2l0 0c0,0 -1,-1 -2,-1l0 0c-1,-1 -1,-1 -2,-1l0 0c-1,-1 -2,-1 -2,-2l0 0c-1,0 -2,-1 -3,-1l0 0c0,-1 -1,-1 -2,-2l0 0c-1,0 -2,0 -2,-1l0 0c-1,0 -2,-1 -3,-1l0 0c-1,-1 -2,-1 -2,-1l0 0c-1,-1 -2,-1 -3,-2l0 0c-1,0 -2,0 -2,-1l0 0c-1,0 -2,-1 -3,-1l0 0c-1,0 -2,-1 -3,-1l0 0c-1,-1 -1,-1 -2,-1l0 0c-1,-1 -2,-1 -3,-1l0 0c-1,-1 -2,-1 -3,-1l0 0c-1,-1 -2,-1 -3,-1l0 0c0,-1 -1,-1 -2,-1l0 0c-1,-1 -2,-1 -3,-1l0 0 -3 -1 0 0c-1,-1 -2,-1 -3,-1l0 0c-1,-1 -2,-1 -3,-1l0 0c-1,-1 -2,-1 -3,-1l0 0c-1,0 -2,-1 -3,-1l0 0c-1,0 -2,0 -3,-1l0 0c-1,0 -2,0 -3,0l0 0c-1,-1 -2,-1 -4,-1l0 0c-1,0 -2,-1 -3,-1l0 0c-1,0 -2,0 -3,-1l0 0 -3 0 0 0c-1,0 -3,-1 -4,-1l0 0c-1,0 -2,0 -3,0l0 0c-1,-1 -2,-1 -3,-1l0 0c-2,0 -3,0 -4,0l0 0c-1,-1 -2,-1 -3,-1l0 0c-2,0 -3,0 -4,0l0 0c-1,-1 -2,-1 -3,-1l0 0 -4 0 0 0c-1,0 -3,0 -4,-1l0 0c-1,0 -2,0 -3,0l0 0c-2,0 -3,0 -4,0l0 0c-1,0 -3,0 -4,0l0 0c-1,0 -3,0 -4,0l0 0c-1,-1 -2,-1 -4,-1l0 0c-1,0 -2,0 -4,0l0 0c-1,0 -2,0 -4,0l0 0c-1,0 -2,0 -3,0l-1 0 -2 0 0 0 -3 0 0 0 -3 0 0 0 -2 0 0 0 -3 0 -3 0 0 0 -2 0 -3 0 0 0 -2 0 -3 0 0 0 -2 0 -3 0 -2 0 -3 0 -2 0 0 0 -2 0 0 0 -3 0 -2 0 0 0 -2 0 0 0 -3 0 0 0 -2 0 -2 0 -3 0 0 0 -2 0 0 0 -2 0 0 0 -2 0 0 0 -3 0 -2 0 -2 0 -2 0 0 0 -3 0 0 0 -2 0 -2 0 0 0 -2 0 0 0 -3 0 0 0 -2 0 -2 0 0 0 -2 0 -3 0 0 0 -2 0 0 0 -2 0 0 0 -3 0 0 0 -2 0 0 0 -2 0 0 0 -3 0 0 0 -2 0 0 0 -2 0 -3 0 0 0 -2 -1 0 0 -3 0 0 0 -2 0 0 0 -3 0 -2 0 0 0 -3 0 0 0 -3 0 0 0 -2 0 0 0 -3 -1 0 0 -3 0 -3 0 0 0 -2 0 0 0 -3 0 0 0 -3 -1 0 0 -3 0 0 0 -3 0 0 0 -1 0 0 0 -2 0 0 0 -2 0 0 0 -1 0 0 0 -2 -1 0 0 -1 0 -2 0 0 0 -1 0 0 0 -2 0 0 0 -1 0 -2 -1 0 0 -1 0 0 0 -2 0 -1 0 -2 0 -3 -1 0 0 -1 0 0 0 -2 0 -1 0 0 0 -2 0c-1,-1 -3,-1 -4,-1l-2 0 0 0 -1 -1 -2 0 0 0 -1 0 -2 0 -1 -1 0 0 -2 0 -3 0 0 -1 -1 0 0 0 -2 0 0 0 -1 0 -2 -1 0 0 -1 0 0 0 -2 0 -1 -1 -2 0 0 0 -1 0 0 0 -2 -1 -1 0 -2 0 0 0 -1 -1 0 0 -2 0 -1 0 -2 -1 0 0 -1 0 0 0 -2 0 -1 -1 -2 0 -1 -1 -2 0 -1 0 0 0 -2 -1 -1 0 -2 -1 -1 0 -2 -1 0 0 -1 0 -2 0 -1 -1c-3,-1 -5,-2 -8,-2l-2 -1c-2,-1 -5,-2 -7,-3l-1 0c-3,-1 -5,-2 -8,-3l-1 -1c-2,-1 -5,-1 -7,-2l-1 -1c-3,-1 -5,-2 -7,-3l-2 -1c-2,-1 -4,-2 -6,-3l-2 -1c-2,-1 -4,-2 -7,-4l-1 0c-2,-1 -4,-3 -6,-4l-1 -1c-3,-1 -5,-2 -7,-4l-1 0c-2,-1 -4,-3 -6,-4l-2 -1c-1,-2 -3,-3 -5,-4l-1 -1c-2,-1 -4,-3 -6,-4l-2 -2c-1,-1 -3,-2 -5,-3l-1 -2c-2,-1 -4,-3 -6,-4l-1 -2c-2,-1 -3,-2 -5,-4l-1 -1c-2,-2 -4,-3 -6,-5l-1 -1c-2,-2 -3,-3 -5,-5l-1 -1c-2,-2 -3,-4 -5,-5l-1 -2c-2,-1 -3,-3 -4,-4l-2 -2c-1,-2 -3,-3 -4,-5l-2 -1c-1,-2 -2,-4 -3,-5l-2 -2c-1,-2 -2,-3 -3,-5 -1,0 -1,-1 -2,-1 -1,-2 -3,-4 -4,-6l-2 -2c0,-2 -1,-3 -2,-5l-2 -2c-1,-2 -2,-3 -3,-5l-2 -3c-1,-1 -2,-3 -2,-4l-2 -2c-1,-2 -2,-4 -3,-6 -1,-1 -1,-2 -2,-3 0,-1 -1,-3 -2,-4l-1 -3c-1,-1 -2,-3 -3,-5 0,-1 -1,-2 -2,-3 0,-2 -1,-3 -1,-4l-2 -3c0,-2 -1,-3 -2,-5 0,-1 -1,-2 -1,-4 -1,-1 -2,-3 -2,-4 -1,-1 -1,-2 -1,-3 -1,-2 -1,-3 -2,-4 0,-1 -1,-2 -1,-3 -1,-2 -1,-4 -2,-6 -1,-1 -1,-3 -1,-4 -1,-1 -1,-2 -1,-3 -1,-2 -1,-3 -1,-4 -1,-2 -2,-4 -2,-6 0,-1 -1,-2 -1,-3 0,-1 -1,-3 -1,-4 0,-1 -1,-2 -1,-3 0,-2 -1,-4 -1,-6 0,-2 -1,-3 -1,-4 0,-1 -1,-3 -1,-4 0,-1 0,-2 0,-3 -1,-2 -1,-3 -1,-5 -1,-2 -1,-3 -1,-5 0,-1 0,-3 -1,-4 0,-1 0,-2 0,-4 0,-1 0,-2 -1,-4 0,-1 0,-3 0,-4 0,-2 0,-4 0,-5 -1,-2 -1,-3 -1,-4 0,-1 0,-3 0,-4 0,-1 0,-2 0,-3l0 0zm-43 969c-17,-23 -13,-49 0,-74 5,-8 10,-16 15,-23 6,-9 13,-16 20,-24 42,-48 105,-137 146,-169l1 -1 0 0 1 -1 0 0 1 -1 0 0 2 -1 0 0 1 -1 0 0 0 0 1 0 1 -1 0 0 1 -1 0 0 1 0 0 -1 1 0 1 0 0 -1 1 0 0 0c1,0 1,-1 2,-1l0 0 1 0 0 -1 1 0 0 0 1 0 0 -1 1 0 0 0 1 0 0 0c1,-1 2,-1 2,-1l1 0 0 0 1 0 1 -1 0 0c1,0 2,0 3,0l0 -1c1,0 2,0 3,0l0 0 1 0 0 0c12,-1 24,2 36,9l0 0c18,11 38,29 62,48 72,56 177,130 311,113 225,-27 426,-283 209,-536l1 0 0 0 0 0 0 0 0 1 0 0 0 0 0 0 0 0 0 0 0 0 1 1 0 0 0 0 0 0c1,1 1,2 2,3l0 0c9,15 17,30 24,45l0 2c7,16 12,32 16,49l0 0c0,1 0,2 0,3 1,2 1,3 1,5l0 0c1,1 1,3 1,4l0 0c0,2 1,3 1,4l0 0 0 3 0 0c0,1 1,3 1,4l0 0c0,2 1,4 1,7l0 0c0,2 0,4 1,6l0 0c0,2 0,3 0,5l0 0 0 2 0 2 0 0 0 2 0 0c1,2 1,3 1,5l0 0 0 2c0,2 0,3 0,5l0 0c0,1 0,3 0,4l0 0c0,2 0,4 0,7l0 2 0 0 0 2 0 0 0 2 0 3 0 2 0 0 0 2 0 0 -1 2 0 3 0 2 0 2 0 2 0 2 -1 3 0 2 0 2 0 2 -1 3 0 2 0 2 -1 2 0 2 0 3 0 0 -1 2 0 0 0 2 -1 2 0 2 0 0 0 3 0 0 -1 2 0 0 0 2 0 0 -1 2 0 0 0 2 0 0 -1 3 0 0 0 2 0 0 -1 2 0 0c0,1 -1,3 -1,5l0 0c-1,1 -1,3 -2,4l0 0c0,2 0,3 -1,5l0 0c-1,3 -2,6 -3,9 0,2 -1,3 -2,5 0,1 -1,3 -1,4 -1,2 -1,4 -2,5 -1,2 -1,3 -2,5 -1,3 -2,6 -4,9 0,1 -1,3 -2,4l0 0c-1,2 -1,3 -2,4 -1,2 -1,3 -2,5l0 0c-2,3 -3,6 -5,9 -1,2 -3,5 -5,8l0 0c0,2 -1,3 -2,4l0 0c-1,2 -2,3 -3,5 -1,1 -2,2 -3,4 -1,2 -3,5 -5,8 -1,1 -2,3 -3,4l0 0c-1,1 -2,3 -3,4 -1,1 -2,3 -3,4 -1,1 -2,2 -3,4l0 0c-1,1 -2,2 -3,4 -1,1 -2,2 -4,3l0 0c-1,2 -2,3 -3,4l0 0c-1,1 -2,3 -3,4 -1,1 -3,2 -4,4l0 0c-1,1 -2,2 -3,3l0 0c-1,1 -3,3 -4,4 -1,1 -2,2 -4,3 -1,1 -2,3 -3,4 -2,1 -3,2 -4,3 -1,1 -3,2 -4,3 -1,2 -3,3 -4,4l0 0c-1,1 -3,2 -4,3 -1,1 -3,2 -4,3l0 0c-1,1 -3,2 -4,3 -2,1 -3,2 -4,3 -2,1 -3,2 -5,3 -1,1 -3,2 -4,3l0 0c-1,1 -3,2 -4,3 -2,1 -3,2 -5,3l0 0c-1,1 -3,2 -4,3l0 0c-2,1 -3,1 -5,2 -2,1 -3,2 -5,3 -1,1 -3,2 -4,2l0 0c-2,1 -4,2 -5,3l0 0c-2,1 -4,2 -5,2l0 0c-2,1 -3,2 -5,3 -2,0 -3,1 -5,2l0 0c-2,1 -3,1 -5,2l0 0c-2,1 -4,1 -5,2l0 0c-2,1 -4,2 -6,2l0 0c-1,1 -3,1 -5,2l0 0c-2,1 -3,1 -5,2 -2,1 -4,1 -6,2l0 0c-1,0 -3,1 -5,1l0 0c-2,1 -4,2 -6,2l0 0c-1,1 -3,1 -5,2l0 0c-2,0 -5,1 -7,1l0 0c-2,1 -5,1 -7,2l0 0c-2,0 -4,1 -6,1l0 0c-3,1 -5,1 -7,2l0 0c-2,0 -4,0 -7,1l0 0c-2,0 -4,0 -6,1l0 0c-2,0 -4,0 -7,0l0 0c-2,1 -4,1 -6,1l0 0c-2,0 -4,0 -6,1 -2,0 -4,0 -6,0 -2,0 -5,0 -7,0 -2,0 -4,0 -6,0 -2,0 -4,0 -6,0 -2,0 -4,0 -6,0 -2,0 -4,0 -6,-1 -2,0 -3,0 -5,0 -2,0 -4,0 -6,-1 -2,0 -4,0 -6,0l0 0c-2,-1 -4,-1 -6,-1l0 0c-2,-1 -3,-1 -5,-1 -2,-1 -4,-1 -6,-1 -2,-1 -4,-1 -5,-2 -2,0 -4,0 -6,-1 -2,0 -3,-1 -5,-1l0 0c-2,-1 -4,-1 -6,-2 -1,0 -3,-1 -5,-1 -2,-1 -4,-2 -5,-2 -2,-1 -4,-1 -6,-2 -1,-1 -3,-1 -5,-2 -1,-1 -3,-1 -5,-2 -2,-1 -3,-1 -5,-2 -2,-1 -3,-2 -5,-2 -2,-1 -3,-2 -5,-3l0 0c-2,0 -3,-1 -5,-2 -2,-1 -3,-2 -5,-2 -2,-1 -3,-2 -5,-3l0 0c-2,-1 -3,-2 -5,-3l0 0c-2,0 -3,-1 -5,-2l0 0c-1,-1 -3,-2 -5,-3 -1,-1 -3,-2 -4,-3 -2,-1 -4,-2 -5,-3 -2,-1 -3,-2 -5,-3 -3,-2 -6,-4 -9,-6 -2,-1 -3,-2 -5,-3 -2,-1 -3,-2 -5,-3l0 0c-1,-1 -3,-2 -4,-3 -2,-1 -3,-2 -5,-3l0 0c-1,-1 -3,-2 -4,-3l0 0c-2,-2 -4,-3 -5,-4l0 0c-2,-1 -3,-2 -5,-3l0 0c-3,-2 -6,-5 -9,-7l-4 -3 0 0c-5,-4 -9,-7 -14,-11l0 0c-3,-2 -5,-5 -8,-7l0 0c-3,-2 -6,-5 -9,-7l0 0c-5,-4 -9,-7 -14,-11l-3 -3 0 0 -5 -3 0 0c-44,-40 -88,-88 -145,-32l-1 2 0 0c-1,0 -2,1 -2,1l0 0 -2 2 0 0 -1 2 0 0 -2 1 0 0 -1 2 0 0 -2 1 0 0 -1 2 0 0 -2 2 0 0 -1 2 0 0 -2 1 0 0 -19 24 0 0 -149 186 -1 2 -9 11c-3,3 -5,6 -7,9 -1,2 -3,4 -4,6 0,0 0,0 0,0 0,0 0,1 0,1 -12,23 -9,49 8,70l19 17 19 12zm250 -868c-72,-124 45,-248 161,-183 67,38 115,101 178,135 92,49 218,62 314,-124l-1 1 0 0 0 1 -1 1 0 0 -1 1 0 0 0 1 -1 0 0 1 -1 0 0 1 -1 1 0 0 0 0 -1 2 -1 0 0 1 -1 0 0 1 0 0 -3 4 -1 0 0 1 0 1 -2 1 0 1 0 0 -1 0 0 1 0 0 -1 1 0 0 0 1 -1 0 0 1 -1 0 0 0 0 1 -1 0 0 1 0 0 -1 1 0 0 0 1 -1 0 0 0 0 1 -1 0 0 0 0 1 -1 0 0 1 0 0 0 0 -1 1 0 0 0 0 -1 1 0 0 0 0 0 1 0 0 -1 0 0 1 0 0 0 0 -1 0 0 1 0 0 0 0 -1 0 0 1 0 0 0 0 0 0 -1 0 0 1 0 0 0 0 0 0 -1 1c-99,89 -199,74 -295,8 -2,0 -3,-1 -5,-2 -10,-7 -17,-15 -24,-21 -13,-10 -24,-17 -39,-30 -4,-3 -8,-6 -12,-9l0 0c-56,-46 -99,-90 -169,-79l0 0c-1,1 -2,1 -4,1l0 0c-1,0 -2,0 -3,1l-2 0 -2 1c-1,0 -2,0 -4,0l-1 1 -2 1 -2 0 -2 1 -2 0 -2 1 -2 1 -2 0 -1 1 -2 1 -2 0 -2 1 -2 1 -1 1 -2 1 -2 0 -1 1 -2 1 -2 1 -1 1 -2 1 -2 1 -1 1 -2 1 -2 1 -1 1 -2 1 0 0 -1 1 -2 1 -1 1 0 0 -2 1 0 0 -1 1 -2 2 -1 1 0 0 -2 1 0 0 -1 1 -2 1 -1 2 -1 1 0 0 -2 1 0 0 -1 1 -1 2 -2 1 0 0 -1 1 -1 2 0 0c-2,2 -4,4 -6,6l-1 2 -2 1 0 0 -1 2 -1 1c-1,1 -1,2 -2,3 -1,2 -2,3 -3,5l0 0c-1,1 -2,2 -2,3l0 0c-1,1 -2,3 -3,5 -1,1 -2,3 -3,4l0 0c-3,6 -6,12 -8,19 0,1 -1,2 -1,3l0 0 -1 2 0 0 0 2c-1,1 -1,2 -1,3l-1 2 0 2 0 0 -1 2 0 1 0 0 -1 2 0 2 -1 2 0 0 0 2 0 0 0 2 0 0 -1 1 0 0 0 2 0 2 0 0 0 2 0 0 -1 2 0 2 0 2 0 1 0 2 0 2 0 2 0 0 -1 2 0 2 0 2 0 0 0 2 0 0 0 2 0 2 0 0 1 1 0 2 0 0 0 2 0 2 0 2 0 2 1 2 0 2 0 2 0 0 0 2 1 2 0 2 0 2 1 2 0 2 1 1 0 2 1 2 0 2 0 1 1 1 0 1 0 2 1 1 0 1 0 0 1 1 0 1 0 0 0 2 1 1 0 0 0 1 0 0 1 1 0 0 0 1 0 0 1 1 0 0 0 2 1 1 0 0 0 1 0 0 1 1 0 0 0 1 0 0 1 1 0 0 0 1 1 2 0 1 1 1 0 1 1 1 0 0 0 1 1 1 0 0 1 1 0 0 0 1 1 1 0 1 0 0 1 2 1 1 0 1 0 0 1 1 0 0 0 1 0 0 1 1 1 1 0 0 0 1 0 0 1 1 1 1 0 0 1 1 0 1 0 0 1 1 0 0 1 1 0 0 0 1 1 1 1 1 0 0 1 1 0 1 1 1 0 0 1 0 1 1 0 0 0 1 1 1 1 1 1 1 1 1 0 1 1 1 1 1 1 1 0 0 0 0 0 0 0 0 0 0 0 0 0 0 1 0 0 0 0 1 0 0 0 0 1 0 0 0 0 1 0 0 0 0 0 0 1 0 0 0 0 1 0 0 0 0 0 0 0 0 0 0 0 0 1 0 0 0 0 1 0 0 0 0 0 0 0 0 0 0 0 0 0 0 1 0 0 0 0 0 0 1 0 0 0 0 0 0 0 0 0 0 0 0 0 0 1 0 0 0 0 1 0 0 0 0 0 0 0 0 0 0 0 0 0 0 1 0z"/>
    <path class="fil5" d="M1894 1856c-37,-24 -40,-69 -12,-100l178 -223c32,-38 69,-56 113,-24 19,13 38,28 57,44 95,77 190,154 337,115 120,-32 196,-121 222,-222 12,-46 13,-95 3,-142 -10,-47 -31,-93 -65,-132 -164,-175 -324,-83 -502,-135 -25,-8 -47,-22 -65,-40 -18,-19 -31,-42 -38,-69 -11,-41 -5,-83 15,-116 20,-34 52,-61 93,-72 80,-21 124,28 184,77 19,15 44,34 69,54 99,79 217,95 306,-1 10,-9 60,-78 66,-82 8,-5 19,6 25,11 23,21 54,15 66,-16l35 -149c7,-28 17,-56 -6,-75 -3,-3 -7,-6 -10,-9l34 -42 59 2c9,0 17,-7 17,-16 0,-9 -7,-16 -16,-17l-56 -2 -14 -54c-3,-9 -12,-14 -20,-11 -9,2 -14,11 -12,20l16 57 -8 10 1 0 -27 33c-2,-2 -5,-4 -8,-7 -13,-11 -29,-13 -45,-8 -10,3 -19,8 -29,13l-138 68c-23,13 -33,42 -14,64 13,16 37,15 15,44l-30 39c-33,43 -65,35 -98,12 -23,-15 -46,-34 -68,-51 -99,-79 -185,-148 -346,-105 -83,22 -137,65 -177,134 -99,172 -13,396 178,454 32,10 63,16 96,18 64,5 98,3 158,3 85,1 142,27 175,66 16,18 26,40 31,62 5,24 4,48 -2,71 -13,49 -50,93 -110,109 -70,19 -135,-33 -198,-85 -35,-28 -72,-59 -112,-79 -43,-22 -88,-31 -133,-23 -27,5 -53,16 -78,34 -42,30 -74,80 -107,120 -36,45 -169,196 -183,238 -4,16 -7,32 -7,49 0,90 72,162 162,162 35,0 68,-11 95,-31l0 0 0 0 0 0c-18,-11 -27,-16 -45,-27 -10,-6 -19,-12 -27,-18zm951 -1221c-13,0 -25,-10 -25,-24 -1,-13 10,-25 23,-25 14,0 25,10 26,24 0,13 -10,24 -24,25z"/>
    <path class="fil6" d="M2533 1643c-106,28 -185,-4 -256,-53 80,62 167,110 290,78 120,-32 196,-121 222,-222 12,-47 13,-95 3,-142 -7,-36 -22,-72 -44,-104 -6,-10 -13,-19 -21,-28 -19,-23 -43,-44 -71,-62 14,12 26,24 37,37 34,39 55,85 65,132 10,47 9,96 -3,142 -26,101 -102,190 -222,222zm288 -874c-70,96 -154,195 -290,135 36,19 73,31 110,32 52,2 103,-18 148,-66 0,0 0,0 0,0 0,0 0,0 0,0 0,-1 0,-1 1,-1 4,-4 16,-19 28,-35 16,-21 33,-44 37,-46 8,-5 19,6 25,11 23,21 54,15 66,-16l28 -117c0,-4 -46,131 -95,91 -18,-15 -40,-10 -58,12zm-699 159c-11,-41 -5,-83 15,-116 20,-34 52,-61 93,-72 57,-15 96,6 136,37 -86,-101 -209,-73 -260,6 -43,67 -32,168 70,228 -3,-2 -6,-5 -9,-8 -3,-2 -5,-4 -7,-6 -18,-19 -31,-42 -38,-69zm834 -419l-17 21 26 20 16 -21c-7,2 -23,-11 -25,-20zm-1082 1257c2,-4 5,-7 8,-10l9 -11 169 -212c30,-36 64,-54 105,-30 -9,-7 -18,-13 -26,-19 -44,-32 -81,-14 -113,25l-166 207 -12 15c-2,2 -3,4 -5,6 -20,26 -17,60 6,85 3,4 7,7 11,10 1,1 3,2 4,3 8,6 17,12 26,18 -28,-23 -34,-59 -16,-87z"/>
    <path class="fil7" d="M2052 667c40,19 61,28 93,53 4,-36 -4,-70 -17,-104 -29,13 -54,30 -76,51zm455 152c39,-7 75,-27 104,-53 -1,0 -1,0 -1,0 -6,-3 -12,-6 -18,-11 -19,-12 -37,-27 -55,-41 -4,44 -13,70 -30,105zm-75 389c33,0 62,4 86,11 -2,-5 -4,-10 -6,-15 -12,-32 -16,-57 -18,-90 -25,20 -43,44 -56,72 -3,7 -6,14 -9,22 1,0 2,0 3,0zm-140 -2c34,2 60,2 89,2 -19,-33 -25,-60 -31,-99 -28,27 -49,60 -58,97zm-113 -19c18,6 37,10 56,13 -2,-7 -3,-13 -5,-19 -6,-31 -6,-55 -3,-86 -30,17 -53,42 -71,71 -2,3 -4,7 -6,11 9,4 19,7 29,10zm-219 -280c38,-18 65,-24 102,-28 -25,-29 -59,-49 -95,-60 -6,27 -8,55 -7,83 0,1 0,3 0,5zm20 -129c41,1 63,0 101,9 -12,-36 -30,-62 -57,-89 -8,11 -16,23 -23,35 -8,15 -16,30 -21,45zm-71 857c-6,-37 -27,-74 -51,-102 -20,23 -40,48 -60,72 20,2 40,4 56,8 18,6 35,13 55,22zm-30 -127l20 -25c13,-15 25,-31 37,-47 23,28 47,66 53,102 -35,-17 -64,-26 -110,-30zm370 -138c-4,46 -12,73 -29,109 39,-7 74,-27 102,-53 -23,-19 -47,-39 -73,-56l0 0zm102 79c-2,45 -9,72 -24,108 39,-8 72,-29 100,-56 -26,-13 -51,-32 -76,-52zm284 -35c-9,29 -26,55 -52,74 45,3 79,6 114,21 -8,-38 -30,-71 -62,-95zm-232 -671c39,-6 77,-26 106,-51 -25,-20 -50,-39 -76,-55 -4,45 -13,71 -30,106z"/>
   </g>
  </g>
 </g>
</svg>
