<?xml version="1.0" encoding="UTF-8"?>
<!DOCTYPE svg PUBLIC "-//W3C//DTD SVG 1.1//EN" "http://www.w3.org/Graphics/SVG/1.1/DTD/svg11.dtd">
<!-- Creator: CorelDRAW X7 -->
<svg xmlns="http://www.w3.org/2000/svg" xml:space="preserve" width="48.4292mm" height="33.8666mm" version="1.1" style="shape-rendering:geometricPrecision; text-rendering:geometricPrecision; image-rendering:optimizeQuality; fill-rule:evenodd; clip-rule:evenodd"
viewBox="0 0 4843 3387"
 xmlns:xlink="http://www.w3.org/1999/xlink">
 <defs>
  <style type="text/css">
   <![CDATA[
    .fil0 {fill:#181818}
   ]]>
  </style>
 </defs>
 <g id="Capa_x0020_1">
  <metadata id="CorelCorpID_0Corel-Layer"/>
  <g>
   <path class="fil0" d="M2423 154c459,1 840,335 915,773l0 0c7,37 11,75 13,112 7,140 -17,272 -65,392 -119,297 -378,506 -680,568l-1 0c-49,10 -101,16 -153,18l-1 0c-5,0 -11,1 -17,1l0 0c-6,0 -12,0 -18,0 -168,-1 -327,-46 -463,-125 -9,-6 -17,-11 -30,-18 -10,-7 -20,-14 -30,-21 -30,-22 -36,-59 -16,-88 165,131 377,203 603,187 233,-16 443,-121 596,-297 211,-246 270,-573 158,-877 -31,-80 -72,-154 -123,-221 -4,-6 -13,-7 -19,-2 -6,4 -7,13 -3,19 49,64 90,136 119,213 25,68 46,154 51,226 2,26 -11,48 -24,68 -11,19 -33,59 -50,71 -14,10 -28,13 -41,12l0 0c-15,-1 -30,-8 -45,-19l0 0c-10,-8 -23,-19 -37,-31 -59,-49 -144,-121 -196,-126 -5,-1 -10,0 -15,1 -9,2 -16,6 -22,12 -5,6 -8,14 -9,22 0,6 0,11 1,16 4,15 13,31 27,46l0 0c12,15 29,30 47,45 20,16 39,31 58,45 38,31 73,58 87,73 16,18 23,33 23,48 -1,16 -8,35 -19,59 -41,86 -125,201 -217,305 -71,80 -184,198 -276,249 -7,4 -15,8 -22,10 -13,4 -37,5 -51,6 -219,15 -424,-55 -584,-182l169 -210c31,-39 68,-56 112,-25 19,13 38,29 58,45 94,76 189,153 336,114 120,-32 196,-121 222,-221 12,-47 13,-95 4,-142 -10,-47 -32,-93 -65,-132 -165,-175 -325,-83 -503,-135 -25,-8 -47,-22 -65,-41 -18,-18 -31,-41 -38,-68 -11,-41 -4,-83 15,-117 20,-34 53,-60 94,-71 79,-21 123,28 183,76 19,15 44,35 69,55 100,79 217,95 306,-2 10,-9 60,-78 66,-81 8,-5 20,6 26,11 23,21 53,14 65,-16l35 -149c7,-28 17,-56 -5,-75 -4,-3 -8,-6 -11,-9l34 -43 59 3c9,0 17,-7 17,-16 1,-9 -6,-17 -15,-17l-56 -2 -15 -54c-3,-9 -12,-14 -20,-12 -9,3 -14,12 -12,20l16 58 -7 9 0 0 -27 34c-2,-3 -5,-5 -8,-7 -13,-12 -29,-14 -45,-9 -10,3 -19,9 -29,14l-137 68c-23,12 -34,42 -15,64 13,16 37,15 15,43l-30 40c-27,34 -52,36 -79,23l-2 1c-28,26 -63,45 -102,52 17,-35 26,-61 30,-105l-13 -10 -15 -12c-28,25 -67,44 -106,51 17,-35 26,-62 31,-107 -69,-43 -145,-67 -256,-38 -17,5 -34,11 -49,18 12,34 20,67 16,104 -32,-25 -53,-34 -93,-53 -10,9 -19,20 -28,31 27,27 45,53 57,89 -38,-9 -60,-9 -101,-9 -5,13 -9,27 -13,40 37,12 70,31 96,61 -38,3 -64,9 -103,28 7,114 78,222 190,269 2,-3 4,-7 7,-11 17,-28 40,-53 70,-70 -3,31 -3,55 4,86 1,6 2,12 4,19 13,2 27,4 40,5 7,0 12,1 18,1l-1 0c10,-37 30,-71 58,-98 6,39 13,66 31,100 15,0 31,0 48,0l0 0c3,-8 6,-15 10,-23 13,-27 31,-52 55,-71 2,33 6,58 18,90 2,5 4,10 6,15l0 0c40,11 70,31 90,54 16,19 26,41 31,63 5,24 4,48 -2,70 0,3 -1,5 -2,8 32,24 54,57 62,95 -35,-15 -69,-19 -113,-21 -16,12 -35,22 -57,28 -35,9 -68,1 -100,-16 -27,27 -61,48 -100,57 15,-36 23,-63 24,-108 -7,-6 -14,-12 -22,-18l-6 -5c-29,26 -64,46 -103,53 17,-36 25,-63 29,-109l0 0c-10,-7 -21,-13 -32,-19 -43,-22 -88,-30 -133,-22 -27,5 -53,16 -78,34 -26,19 -49,45 -70,72 24,29 47,67 53,103 -35,-17 -64,-26 -109,-31l0 0c-7,8 -14,16 -22,25l0 0c24,29 45,65 51,103 -20,-10 -37,-17 -55,-22 -15,-4 -36,-6 -56,-8 -7,9 -14,18 -21,26 -113,-132 -180,-290 -198,-464 -4,-42 -5,-44 20,-80 6,-9 12,-17 22,-24 14,-9 28,-13 41,-12l0 0c15,1 30,8 45,19l0 0c10,8 23,19 37,31 59,49 144,121 196,126 5,1 10,1 15,0 9,-2 16,-7 22,-13 5,-6 8,-14 9,-22 0,-5 0,-10 -1,-16 -4,-15 -13,-30 -27,-46l0 0c-12,-14 -29,-30 -47,-44 -20,-16 -39,-32 -58,-46 -38,-30 -73,-58 -87,-73 -11,-12 -17,-22 -20,-32 -3,-10 -3,-20 -1,-31 9,-34 41,-85 61,-118l8 -12 0 0c7,-11 15,-23 23,-35 8,-12 16,-25 26,-38l15 -21 0 0c52,-72 115,-149 178,-217 62,-66 146,-152 223,-199 29,-18 46,-17 80,-19 98,-7 194,3 283,28 93,26 180,67 258,121 6,5 15,3 19,-3 5,-6 3,-15 -3,-19 -80,-56 -170,-99 -266,-126 -92,-25 -189,-36 -288,-29l-7 0c-234,18 -439,121 -594,297 -216,250 -273,596 -148,901 36,88 85,167 147,239 -16,20 -29,39 -37,52 -114,-127 -194,-287 -224,-463l0 0c-6,-37 -11,-75 -12,-113 -7,-133 15,-267 65,-390 119,-299 380,-509 684,-569l0 -1c43,-8 87,-14 132,-16l0 0c6,0 11,-1 17,-1l1 0c6,0 11,0 17,0l1 0c6,0 11,0 17,0zm759 2530l-116 0c-87,0 -128,-25 -128,-108l0 -333 86 0 0 318c0,26 9,46 37,46l121 0 0 77zm-238 407l549 0 0 22 -549 0 0 -22zm0 -72l549 0 0 22 -549 0 0 -22zm-1594 72l549 0 0 22 -549 0 0 -22zm0 -72l549 0 0 22 -549 0 0 -22zm643 209c-2,-4 -3,-9 -3,-15 0,-7 1,-13 3,-18 2,-4 6,-12 12,-22 14,-24 36,-52 65,-87 23,-27 40,-50 51,-67 10,-17 16,-34 16,-52 0,-27 -15,-40 -45,-40 -15,0 -31,2 -46,6 -16,3 -29,8 -38,14 -4,-9 -6,-20 -6,-34 0,-5 5,-9 14,-14 10,-5 22,-9 38,-12 16,-3 32,-4 50,-4 32,0 54,6 66,19 13,13 19,32 19,59 0,16 -3,32 -10,48 -6,15 -14,30 -24,43 -10,13 -24,31 -42,52 -27,32 -47,58 -61,80l78 0c12,0 26,0 40,-2 14,-1 23,-2 28,-2 0,19 -1,32 -2,38 -1,7 -4,10 -8,10l-195 0zm238 -170c0,-59 8,-103 25,-132 17,-29 43,-43 80,-43 36,0 62,13 78,39 16,26 24,67 24,122 0,65 -8,112 -23,143 -16,31 -43,46 -82,46 -38,0 -65,-14 -80,-43 -15,-28 -22,-72 -22,-132zm50 3c0,32 2,58 5,76 3,19 9,33 16,41 8,9 19,13 32,13 20,0 34,-12 43,-35 8,-23 13,-61 13,-113 0,-41 -4,-71 -12,-91 -7,-19 -21,-29 -40,-29 -21,0 -36,12 -44,35 -9,23 -13,57 -13,103zm265 -131c-19,3 -45,8 -64,13 -5,-8 -8,-23 -8,-36 0,-2 7,-5 22,-10 15,-4 32,-8 50,-12 18,-3 30,-5 37,-5 6,0 10,1 13,3 0,103 -1,209 -1,313 0,5 3,27 -2,31 -1,0 -3,1 -7,1 -12,0 -33,0 -39,0l-1 -298zm300 -49c0,5 0,11 0,17 0,10 0,18 -3,24 -45,92 -68,186 -69,289 0,20 -11,17 -28,17 -9,0 -12,0 -20,0 1,-109 19,-199 63,-300 -29,1 -75,1 -134,1 -8,0 -9,-19 -9,-47l200 -1zm-1164 -327c0,42 -15,74 -46,98 -30,24 -70,36 -117,36 -38,0 -74,-11 -109,-31 -17,-11 -32,-26 -43,-46 -11,-19 -17,-42 -17,-67l79 -4c0,23 9,40 28,52 19,13 40,19 63,19 52,0 78,-18 78,-55 0,-29 -18,-47 -53,-52l-72 -8c-36,-5 -64,-18 -85,-38 -21,-20 -32,-50 -32,-88 0,-38 15,-69 45,-94 30,-25 69,-37 115,-37 46,0 83,12 111,35 28,23 42,53 42,90l-77 4c-7,-36 -31,-54 -72,-54 -26,0 -45,5 -60,16 -14,11 -21,24 -21,38 0,15 5,27 16,35 10,8 23,14 38,16l71 7c78,11 118,54 118,128zm253 0l73 0c0,3 -1,9 -1,18 0,8 -1,14 -1,17 0,4 -1,8 -1,15 -1,7 -2,11 -3,15 -1,3 -3,7 -4,12 -8,21 -28,38 -61,50 -21,8 -43,12 -66,12 -23,0 -44,-4 -62,-12 -19,-7 -33,-17 -44,-28 -24,-26 -37,-74 -37,-144 0,-70 13,-118 37,-144 11,-12 25,-21 44,-29 18,-7 39,-11 62,-11 44,0 78,11 101,34 23,22 35,53 35,93l-73 0c0,-19 -5,-32 -14,-41 -9,-9 -26,-13 -50,-13 -25,0 -41,7 -49,23 -8,15 -12,38 -12,68l0 33c0,49 9,79 28,90 9,5 20,8 34,8 14,0 26,-1 35,-4 9,-3 15,-7 19,-14 4,-6 6,-13 8,-19 1,-7 2,-16 2,-29zm182 -359c19,0 32,3 37,9 6,6 9,19 9,38 0,19 -3,32 -9,38 -6,6 -18,9 -38,9 -19,0 -31,-3 -37,-10 -6,-6 -9,-18 -9,-37 0,-19 3,-32 9,-38 6,-6 18,-9 38,-9zm39 489l-80 0 0 -341 80 0 0 341zm1335 0l-58 0 -14 -31 -83 35c-59,2 -89,-18 -106,-52 -8,-17 -14,-36 -17,-55 -3,-20 -5,-40 -5,-62 0,-21 1,-37 1,-47 0,-10 1,-22 3,-35 2,-13 4,-25 7,-34 3,-9 8,-18 13,-28 6,-10 13,-17 22,-23 18,-13 42,-19 72,-19l165 0 0 351zm-80 -113l0 -166 -61 0c-23,0 -39,9 -48,26 -9,18 -13,43 -13,78 0,34 4,59 13,73 8,14 24,18 47,18l62 -29zm-896 -290c26,25 38,63 38,112 0,49 -12,86 -38,112 -25,25 -61,38 -107,38l-85 0 0 141 -86 0 0 -441 171 0c46,0 82,13 107,38zm-48 112c0,-49 -21,-73 -64,-73l-80 0 0 145 80 0c21,0 37,-5 48,-16 11,-12 16,-30 16,-56zm411 -63l-135 394c-6,17 -14,31 -24,41 -16,17 -39,25 -69,25l-55 0 0 -73 42 0c11,0 20,-2 26,-5 5,-4 10,-12 14,-24l6 -17 -106 -341 85 0 63 246 68 -246 85 0zm177 -692c-115,133 -270,228 -442,268 -19,4 -6,-3 2,-9 39,-27 82,-66 116,-100 40,-38 78,-78 114,-120 94,-105 179,-222 221,-311 13,-26 21,-48 21,-69 0,-22 -8,-42 -29,-65 -15,-16 -51,-44 -90,-75 -20,-15 -40,-31 -57,-45 -17,-14 -33,-28 -45,-42l0 0c-11,-13 -18,-25 -21,-35 0,-3 0,-6 0,-8 0,-4 1,-7 3,-9 2,-2 5,-4 8,-4 2,-1 5,-1 8,-1 44,5 126,74 182,121 15,13 28,24 38,31l0 1c19,14 38,22 58,24l0 0c19,1 38,-4 57,-17 23,-16 44,-56 58,-80 6,-9 5,-1 5,5 -1,90 -19,187 -49,272 -36,99 -89,189 -158,268zm-1271 -1105c116,-133 272,-228 444,-268 16,-3 8,1 0,7 -42,30 -88,73 -125,110 -21,21 -42,43 -63,65 -69,76 -140,162 -196,241l-15 22 0 0c-3,5 -7,11 -11,16 -8,12 -16,25 -23,36l0 0c-5,7 -6,9 -8,12 -21,34 -55,87 -64,125 -3,16 -3,30 1,44 4,14 13,27 26,42 15,16 51,44 90,75 20,16 40,31 57,46 17,14 33,28 45,41l0 0c11,13 18,25 21,35 0,3 0,6 0,9 0,3 -1,6 -3,8 -2,2 -5,4 -8,5 -2,0 -5,0 -8,0 -44,-4 -126,-73 -182,-121 -15,-12 -28,-23 -38,-31l0 0c-19,-14 -38,-23 -58,-25l0 0c-19,-1 -38,4 -57,17 -14,10 -19,18 -29,31 -3,4 -2,4 -3,-2 0,-13 1,-32 2,-46 13,-182 84,-354 204,-492l1 -2zm199 242c0,1 -1,3 -1,4l1 -4zm229 421l1 0 -1 0zm93 12c3,0 7,0 10,0 -3,0 -7,0 -10,0zm542 -572c-13,0 -25,-11 -25,-24 0,-14 10,-25 24,-25 13,-1 24,10 25,23 0,14 -10,25 -24,26z"/>
  </g>
 </g>
</svg>
