<?xml version="1.0" encoding="UTF-8"?>
<!DOCTYPE svg PUBLIC "-//W3C//DTD SVG 1.1//EN" "http://www.w3.org/Graphics/SVG/1.1/DTD/svg11.dtd">
<!-- Creator: CorelDRAW X7 -->
<svg xmlns="http://www.w3.org/2000/svg" xml:space="preserve" width="48.4292mm" height="33.8666mm" version="1.1" style="shape-rendering:geometricPrecision; text-rendering:geometricPrecision; image-rendering:optimizeQuality; fill-rule:evenodd; clip-rule:evenodd"
viewBox="0 0 4843 3387"
 xmlns:xlink="http://www.w3.org/1999/xlink">
 <defs>
  <style type="text/css">
   <![CDATA[
    .fil1 {fill:#0E253F}
    .fil0 {fill:#14365B}
    .fil4 {fill:#FFD43B}
    .fil7 {fill:white}
    .fil2 {fill:white;fill-rule:nonzero}
    .fil5 {fill:#1A0000;fill-opacity:0.200000}
    .fil3 {fill:black;fill-opacity:0.301961}
    .fil6 {fill:black;fill-opacity:0.349020}
   ]]>
  </style>
 </defs>
 <g id="Capa_x0020_1">
  <metadata id="CorelCorpID_0Corel-Layer"/>
  <g id="_66845128544">
   <g>
    <path class="fil0" d="M938 759c488,2 888,379 927,857l-745 993c-61,12 -124,19 -189,18 -495,-2 -898,-388 -929,-874l750 -976c60,-12 122,-18 186,-18z"/>
    <path class="fil1" d="M833 827c36,-25 71,-48 105,-68 -381,-1 -729,230 -872,589 -49,123 -72,258 -65,391 2,38 6,76 13,113 16,-34 32,-66 51,-96 17,-28 37,-76 64,-94 34,-24 69,-17 100,7 50,39 167,149 227,155 25,3 37,-15 32,-36 -5,-26 -34,-55 -69,-84 -58,-47 -125,-97 -146,-120 -25,-27 -30,-48 -24,-74 9,-42 50,-103 69,-134 15,-24 32,-49 50,-74l0 0c122,-173 312,-378 420,-440l-1 0 46 -35z"/>
    <path class="fil1" d="M1035 2559c-35,26 -70,49 -104,68 380,2 728,-230 871,-588 48,-120 72,-252 65,-392 -2,-38 -6,-76 -12,-113 -16,34 -33,66 -51,96l-26 40c-17,25 -47,85 -70,101 -34,24 -69,17 -100,-7 -50,-39 -167,-149 -227,-155 -24,-3 -37,15 -32,36 5,26 34,55 70,84 57,47 124,96 146,120 37,41 30,69 6,120 -84,178 -348,473 -490,556l0 0 -46 34z"/>
    <path class="fil2" d="M1605 1181c-4,-6 -3,-14 3,-19 6,-4 15,-3 19,3 51,66 93,141 123,221 29,77 48,160 54,247 16,240 -66,464 -212,632 -146,169 -357,281 -597,298 -240,17 -464,-65 -633,-212 -168,-146 -281,-357 -297,-597 -17,-240 65,-464 211,-632 146,-168 356,-281 596,-298l6 0c100,-7 197,4 289,29 96,27 186,70 267,126 6,4 7,13 3,19 -5,6 -13,8 -19,4 -78,-55 -165,-96 -259,-122 -90,-25 -185,-35 -284,-29 -232,17 -436,126 -578,289 -141,163 -221,380 -205,612 17,233 126,437 289,578 163,142 380,221 612,205 233,-16 436,-125 578,-288 142,-163 221,-380 205,-613 -6,-84 -24,-164 -52,-239 -29,-77 -70,-149 -119,-214z"/>
    <path class="fil3" d="M476 1510l0 0c2,173 51,291 216,342 32,10 64,15 97,18 63,5 98,3 157,3 94,0 216,34 209,139 2,-6 3,-13 3,-20l1 0 0 -1c0,-1 0,-2 0,-3l0 -1 0 0 0 -1 0 0c0,-1 0,-3 0,-4l0 0 0 -1 0 0 0 -1 0 0 0 -1 0 -2 0 0 0 -1 0 0 0 -1 0 0 0 0 0 -1 0 -1 0 0 0 -1 0 0 0 -1 0 -1 0 0 0 -1 0 0 0 -1 0 -1 0 0 0 -1 0 0 0 -1 0 0 0 -1 0 0 0 -1 0 0 -1 -1 0 0 0 -1 0 0 0 -1 0 0 0 -1 0 0 0 -2 0 0 0 0 0 -1 0 0 -1 -2 0 0 0 -1 0 -1 0 0 0 -1 0 0 0 -1 0 -1 0 0 -1 -1 0 0 0 -1 0 -1 0 0 0 -1 0 -1 -1 -1 0 -1 0 0 0 -1 0 -1 -1 -1 0 -1 0 0 0 -1 -1 -1 0 0 0 -1 0 -1 0 -1 -1 -1 0 -1 0 -1 -1 -1 0 0 0 -2 0 0 0 -1 0 0 -1 -1 0 0 0 -1 0 0 -1 -1 0 -1 0 -1 0 0 -1 -1 0 -1 -1 -1 0 -1 -1 -1 0 -1 0 -1 0 0 -1 -1 0 -1 0 0 -1 -1 0 -1 0 0c-1,0 -1,-1 -1,-2l0 0 -1 -1 0 -1 -1 -1 -1 -1 0 -1 -1 0 0 -1 0 0 -1 -1 0 0 0 -1 -1 -1 -1 -1 0 -1 0 0 -1 -1 0 0 0 -1 0 0 -1 -1 -1 -1 0 0 0 -1 0 0 -1 -1 0 0 -1 -1 0 0 0 -1 0 0 -1 0 0 0 -1 -1 0 0 0 -1 0 0 -1 -1 0 0 -1 -1 0 0 -1 -1 0 0 0 -1 0 0 -1 -1 0 0c0,0 -1,-1 -2,-1l0 0c0,-1 -1,-2 -1,-2l0 0c-1,-1 -1,-1 -2,-2l0 0 -1 -2 0 0c-1,0 -2,-1 -2,-1l0 0c-1,-1 -1,-2 -2,-2l0 0c0,-1 -1,-1 -2,-2l0 0c0,0 -1,-1 -1,-2l0 0c-1,0 -2,-1 -2,-1l0 0c-1,-1 -2,-1 -2,-2l0 0c-1,0 -1,-1 -2,-1l0 0c-1,-1 -1,-1 -2,-2l0 0c-1,-1 -1,-1 -2,-2l0 0c-1,0 -1,-1 -2,-1l0 0c-1,-1 -1,-1 -2,-2l0 0c-1,0 -1,-1 -2,-1l0 0c-1,-1 -2,-1 -2,-2l0 0c-1,0 -2,-1 -3,-1l0 0c0,-1 -1,-1 -2,-1l0 0c0,-1 -1,-1 -2,-2l0 0c-1,0 -2,-1 -2,-1l0 0c-1,-1 -2,-1 -3,-2l0 0c0,0 -1,0 -2,-1l0 0c-1,0 -2,-1 -2,-1l0 0c-1,-1 -2,-1 -3,-2l0 0c-1,0 -1,0 -2,-1l0 0c-1,0 -2,-1 -3,-1l0 0c-1,0 -2,-1 -2,-1l0 0c-1,-1 -2,-1 -3,-1l0 0c-1,-1 -2,-1 -3,-2l0 0c-1,0 -1,0 -2,-1l0 0c-1,0 -2,0 -3,-1l0 0c-1,0 -2,0 -3,-1l0 0c-1,0 -2,-1 -3,-1l0 0c0,0 -1,-1 -2,-1l0 0c-1,0 -2,-1 -3,-1l0 0 -3 -1 0 0c-1,0 -2,0 -3,-1l0 0c-1,0 -2,0 -3,-1l0 0c-1,0 -2,0 -3,-1l0 0c-1,0 -2,0 -3,0l0 0c-1,-1 -2,-1 -3,-1l0 0c-1,0 -2,-1 -3,-1l0 0c-1,0 -3,0 -4,-1l0 0c-1,0 -2,0 -3,0l0 0c-1,-1 -2,-1 -3,-1l0 0 -3 -1 0 0c-2,0 -3,0 -4,0l0 0c-1,0 -2,-1 -3,-1l0 0c-1,0 -2,0 -4,0l0 0c-1,-1 -2,-1 -3,-1l0 0c-1,0 -2,0 -4,0l0 0c-1,-1 -2,-1 -3,-1l0 0c-1,0 -2,0 -4,0l0 0 -3 -1 0 0c-1,0 -3,0 -4,0l0 0c-1,0 -2,0 -4,0l0 0c-1,0 -2,0 -3,-1l0 0c-2,0 -3,0 -4,0l0 0c-1,0 -3,0 -4,0l0 0c-1,0 -3,0 -4,0l0 0c-1,0 -2,0 -4,0l0 0c-1,0 -2,0 -4,0l0 0c-1,0 -2,0 -4,0l0 0 -3 0 0 0 -2 0 0 0 -3 0 0 0 -3 0 0 0 -2 0 -3 0 0 0 -2 0 -3 0 0 0 -3 0 -2 0 0 0 -3 0 -2 0 -2 0 -3 0 -2 0 0 0 -3 0 0 0 -2 0 -2 0 0 0 -3 0 0 0 -2 0 0 0 -2 0 -3 0 -2 0 0 0 -2 0 0 0 -2 0 0 0 -3 0 0 0 -2 0 -2 0 -2 0 -3 0 0 0 -2 0 0 0 -2 0 -2 0 0 0 -3 0 0 0 -2 0 0 0 -2 0 -2 0 0 0 -3 0 -2 0 0 0 -2 0 0 0 -3 0 0 0 -2 0 0 0 -2 -1 0 0 -3 0 0 0 -2 0 0 0 -2 0 -1 0 -2 0 -2 0 0 0 -3 0 0 0 -2 0 0 0 -3 0 0 0 -2 0 -3 0 0 0 -3 -1 0 0 -2 0 0 0 -3 0 0 0 -3 0 0 0 -2 0 -3 0 0 0 -3 -1 0 0 -3 0 0 0 -3 0 0 0 -2 0 0 0 -3 0 0 0 -2 -1 0 0 -2 0 0 0 -1 0 0 0 -2 0 0 0 -1 0 0 0 -2 0 -1 0 0 0 -2 0 0 0 -1 -1 0 0 -2 0 -1 0 0 0 -2 0 0 0 -1 0 -2 -1 -1 0 -3 0 0 0 -2 0 0 0 -1 0 -2 -1 0 0 -1 0c-2,0 -4,0 -5,-1l-2 0 0 0 -1 0 -2 0 0 0 -1 -1 -2 0 -1 0 0 0 -2 0 -3 -1 0 0 -1 0 0 0 -2 -1 0 0 -1 0 -2 0 0 0 -1 0 0 0 -2 -1 -1 0 -2 0 0 0 -1 -1 0 0 -2 0 -1 0 -2 -1 0 0 -1 0 0 0 -2 0 -1 -1 -2 0 0 0 -1 -1 0 0 -2 0 -1 0 -1 -1 -2 0 -1 -1 -2 0 0 0 -1 0 -2 -1 -1 0 -2 -1 -1 0 0 0 -2 0 -1 -1 -2 0c-3,-1 -5,-2 -8,-3l-2 -1c-2,0 -4,-1 -7,-2l-1 0c-2,-1 -5,-2 -7,-3l-2 -1c-2,-1 -4,-2 -6,-3l-2 0c-2,-2 -5,-3 -7,-4l-2 -1c-2,-1 -4,-2 -6,-3l-1 0c-3,-2 -5,-3 -7,-4l-2 -1c-2,-1 -4,-2 -6,-3l-1 -1c-2,-1 -5,-3 -7,-4l-1 -1c-2,-1 -4,-2 -5,-4l-2 -1c-2,-1 -4,-2 -6,-4l-1 0c-2,-2 -4,-3 -6,-5l-2 -1c-1,-1 -3,-3 -5,-4l-1 -1c-2,-2 -4,-3 -6,-5l-1 -1c-2,-2 -3,-3 -5,-4l-1 -2c-2,-1 -4,-3 -6,-5l-1 -1c-2,-1 -3,-3 -5,-4l-1 -2c-2,-1 -3,-3 -5,-5l-1 -1c-2,-2 -3,-3 -4,-5l-2 -2c-1,-1 -3,-3 -4,-5l-2 -1c-1,-2 -2,-3 -4,-5l-1 -2c-1,-2 -2,-3 -4,-4 0,-1 0,-2 -1,-2 -1,-2 -3,-4 -4,-6l-2 -2c-1,-1 -1,-3 -2,-4l-2 -2c-1,-2 -2,-4 -4,-6l-1 -3c-1,-1 -2,-2 -3,-4l-1 -2c-1,-2 -2,-4 -3,-6 -1,-1 -1,-2 -2,-2 -1,-2 -1,-3 -2,-5l-1 -2c-1,-2 -2,-4 -3,-5 -1,-2 -1,-3 -2,-4 0,-1 -1,-3 -2,-4l-1 -3c-1,-2 -1,-3 -2,-4 0,-2 -1,-3 -2,-4 0,-2 -1,-3 -1,-5 -1,-1 -1,-2 -2,-3 0,-1 -1,-3 -1,-4 0,-1 -1,-2 -1,-3 -1,-2 -2,-4 -2,-6 -1,-1 -1,-2 -1,-4 -1,-1 -1,-2 -2,-3 0,-1 0,-3 -1,-4 0,-2 -1,-4 -1,-6 -1,-1 -1,-2 -1,-3 -1,-1 -1,-3 -1,-4 -1,-1 -1,-2 -1,-3 -1,-2 -1,-4 -1,-6 -1,-1 -1,-3 -1,-4 0,-1 -1,-3 -1,-4 0,-1 0,-2 -1,-3 0,-2 0,-3 0,-5 -1,-2 -1,-3 -1,-5 0,-1 -1,-3 -1,-4 0,-1 0,-2 0,-4 0,-1 -1,-2 -1,-4 0,-1 0,-3 0,-4 0,-2 -1,-4 -1,-5 0,-2 0,-3 0,-4 0,-1 0,-3 0,-4 0,-1 0,-2 0,-3l0 0zm-43 971c-18,-23 -13,-49 0,-74 4,-8 9,-16 15,-24 6,-8 13,-16 20,-23 42,-48 105,-138 146,-170l1 -1 0 0 1 -1 0 0 2 -1 0 0 1 0 0 -1 1 0 0 0 0 -1 1 0 1 -1 0 0 1 0 0 -1 1 0 1 0 0 -1 1 0 1 0 0 -1 0 0c1,0 1,0 2,-1l0 0 1 0 0 0 1 -1 0 0 1 0 0 0 1 -1 1 0 0 0 1 0c0,0 1,-1 2,-1l0 0 1 0 0 0 1 0 0 0c1,-1 2,-1 3,-1l0 0c1,0 2,-1 3,-1l0 0 1 0 0 0c12,-1 24,3 36,10l0 0c18,10 38,28 63,47 71,57 177,130 311,114 226,-27 427,-284 210,-538l0 1 0 0 0 0 0 0 0 0 0 0 0 0 1 0 0 1 0 0 0 0 0 0 0 0 0 0 0 1c1,1 2,2 2,3l0 0c10,14 18,29 24,45l1 1c6,17 11,33 15,50l0 0c0,1 1,2 1,3 0,2 1,3 1,4l0 0c0,2 0,3 1,5l0 0c0,1 0,3 0,4l0 0 1 2 0 0c0,2 0,3 0,5l0 0c1,2 1,4 1,7l0 0c1,2 1,4 1,6l0 0c0,2 0,3 0,5l0 0 1 2 0 2 0 0 0 2 0 0c0,2 0,3 0,5l0 0 0 2c0,1 0,3 0,4l0 0c0,2 1,3 1,5l0 0c0,2 0,4 0,7l-1 2 0 0 0 2 0 0 0 2 0 3 0 2 0 0 0 2 0 0 0 2 0 2 0 3 -1 2 0 2 0 2 0 3 0 2 -1 2 0 2 0 3 0 2 -1 2 0 2 0 2 -1 3 0 0 0 2 0 0 -1 2 0 2 0 2 0 0 -1 3 0 0 0 2 0 0 -1 2 0 0 0 2 0 0 -1 2 0 0 0 3 0 0 -1 2 0 0 0 2 0 0c-1,1 -1,3 -2,5l0 0c0,1 -1,3 -1,4l0 0c0,2 -1,3 -1,5l0 0c-1,3 -2,6 -3,9 -1,2 -2,3 -2,5 -1,2 -1,3 -2,5 0,1 -1,3 -2,4 0,2 -1,3 -1,5 -2,3 -3,6 -4,9 -1,1 -2,3 -2,4l0 0c-1,2 -2,3 -2,5 -1,1 -2,3 -3,4l0 0c-1,3 -3,6 -4,9 -2,3 -4,6 -5,8l0 0c-1,2 -2,3 -3,5l0 0c-1,1 -1,2 -2,4 -1,1 -2,3 -3,4 -2,3 -4,5 -6,8 -1,2 -2,3 -3,4l0 0c-1,2 -2,3 -3,4 -1,2 -2,3 -3,4 -1,1 -2,3 -3,4l0 0c-1,1 -2,3 -3,4 -1,1 -2,3 -3,4l0 0c-1,1 -2,2 -4,4l0 0c-1,1 -2,2 -3,3 -1,2 -2,3 -3,4l0 0c-2,1 -3,2 -4,4l0 0c-1,1 -2,2 -4,3 -1,1 -2,2 -3,4 -1,1 -3,2 -4,3 -1,1 -3,2 -4,4 -1,1 -2,2 -4,3 -1,1 -2,2 -4,3l0 0c-1,1 -2,2 -4,3 -1,1 -2,3 -4,4l0 0c-1,1 -2,2 -4,3 -1,1 -3,2 -4,3 -2,1 -3,2 -4,3 -2,1 -3,2 -5,3l0 0c-1,1 -3,2 -4,3 -2,1 -3,1 -5,2l0 0c-1,1 -3,2 -4,3l0 0c-2,1 -3,2 -5,3 -1,1 -3,2 -5,2 -1,1 -3,2 -4,3l0 0c-2,1 -3,2 -5,2l0 0c-2,1 -3,2 -5,3l0 0c-2,1 -3,1 -5,2 -2,1 -3,2 -5,2l0 0c-2,1 -3,2 -5,3l0 0c-2,0 -3,1 -5,2l0 0c-2,0 -4,1 -5,2l0 0c-2,0 -4,1 -6,2l0 0c-1,0 -3,1 -5,1 -2,1 -4,2 -5,2l0 0c-2,1 -4,1 -6,2l0 0c-2,1 -4,1 -5,2l0 0c-2,0 -4,1 -6,1l0 0c-2,1 -5,1 -7,2l0 0c-2,0 -4,1 -7,1l0 0c-2,1 -4,1 -6,2l0 0c-3,0 -5,1 -7,1l0 0c-2,1 -4,1 -7,1l0 0c-2,1 -4,1 -6,1l0 0c-2,0 -4,1 -7,1l0 0c-2,0 -4,0 -6,1l0 0c-2,0 -4,0 -6,0 -2,0 -4,0 -6,0 -3,0 -5,1 -7,1 -2,0 -4,0 -6,0 -2,0 -4,0 -6,0 -2,0 -4,-1 -6,-1 -2,0 -4,0 -6,0 -2,0 -4,0 -6,-1 -2,0 -3,0 -5,0 -2,0 -4,-1 -6,-1l0 0c-2,0 -4,0 -6,-1l0 0c-2,0 -4,0 -5,-1 -2,0 -4,0 -6,-1 -2,0 -4,-1 -6,-1 -1,0 -3,-1 -5,-1 -2,-1 -4,-1 -6,-2l0 0c-1,0 -3,-1 -5,-1 -2,-1 -4,-1 -5,-2 -2,-1 -4,-1 -6,-2 -1,0 -3,-1 -5,-2 -2,0 -3,-1 -5,-1 -2,-1 -3,-2 -5,-2 -2,-1 -4,-2 -5,-3 -2,0 -4,-1 -5,-2 -2,-1 -4,-1 -5,-2l0 0c-2,-1 -4,-2 -5,-2 -2,-1 -4,-2 -5,-3 -2,-1 -4,-2 -5,-2l0 0c-2,-1 -4,-2 -5,-3l0 0c-2,-1 -4,-2 -5,-3l0 0c-2,-1 -3,-2 -5,-2 -2,-1 -3,-2 -5,-3 -1,-1 -3,-2 -5,-3 -1,-1 -3,-2 -4,-3 -4,-2 -7,-4 -10,-6 -1,-1 -3,-2 -4,-3 -2,-1 -4,-2 -5,-3l0 0c-2,-1 -3,-3 -5,-4 -1,-1 -3,-2 -4,-3l0 0c-2,-1 -3,-2 -5,-3l0 0c-1,-1 -3,-2 -5,-3l0 0c-1,-2 -3,-3 -4,-4l0 0c-3,-2 -6,-4 -9,-7l-5 -3 0 0c-4,-4 -9,-7 -13,-11l0 0c-3,-2 -6,-4 -9,-7l0 0c-3,-2 -6,-4 -9,-7l0 0c-4,-3 -9,-7 -13,-11l-4 -2 0 0 -4 -4 0 0c-45,-39 -89,-88 -146,-31l-1 1 0 0c-1,1 -1,1 -2,2l0 0 -2 1 0 0 -1 2 0 0 -2 1 0 0 -1 2 0 0 -2 2 0 0 -1 1 0 0 -2 2 0 0 -1 2 0 0 -2 2 0 0 -19 24 0 0 -149 186 -2 2 -8 11c-3,3 -5,6 -7,9 -2,2 -3,4 -4,6 0,0 0,0 0,0 0,0 0,0 -1,0 -11,23 -8,50 8,71l20 17 19 12zm250 -870c-72,-124 45,-248 162,-183 66,38 115,101 178,135 92,49 218,62 314,-124l0 1 0 0 -1 1 0 1 -1 0 0 0 -1 1 0 0 0 1 -1 1 0 0 -1 1 0 0 -1 1 0 0 -1 2 0 0 -1 1 0 0 0 0 -1 1 -3 4 0 0 0 1 -1 0 -1 2 -1 0 0 1 0 0 -1 1 0 0 0 1 -1 0 0 0 0 1 -1 1 0 0 0 0 -1 1 0 0 0 1 -1 0 0 1 0 0 -1 0 0 1 0 0 -1 1 0 0 0 0 -1 1 0 0 0 0 0 1 -1 0 0 1 0 0 -1 0 0 1 0 0 -1 0 0 1 0 0 0 0 -1 1 0 0 0 0 0 0 0 0 -1 1 0 0 0 0 0 0 -1 1 0 0 0 0 0 0 0 1 -1 0 0 0 0 0 0 1c-99,89 -200,74 -296,8 -2,-1 -3,-1 -5,-2 -10,-7 -17,-15 -24,-21 -13,-10 -24,-18 -39,-30 -4,-3 -8,-6 -12,-9l0 -1c-57,-45 -99,-90 -170,-78l0 0c-1,0 -2,0 -3,1l-1 0c-1,0 -2,0 -3,0l-1 1 -2 0c-2,0 -3,1 -4,1l-2 1 -2 0 -2 1 -2 0 -2 1 -2 1 -1 0 -2 1 -2 1 -2 0 -2 1 -1 1 -2 1 -2 0 -2 1 -1 1 -2 1 -2 1 -2 1 -1 1 -2 1 -1 1 -2 0 -2 1 -1 1 -2 2 -1 1 0 0 -2 1 -2 1 -1 1 0 0 -2 1 0 0 -1 1 -2 1 -1 1 0 0 -1 2 0 0 -2 1 -1 1 -2 1 -1 1 0 0 -1 2 0 0 -2 1 -1 1 -1 2 0 0 -2 1 -1 1 0 0c-2,3 -4,5 -6,7l-1 2 -1 1 0 0 -2 2 -1 1c0,1 -1,2 -2,3 -1,1 -2,3 -3,4l0 0c-1,1 -1,3 -2,4l0 0c-1,1 -2,3 -3,4 -1,2 -2,3 -3,5l0 0c-3,6 -5,12 -8,19 0,1 -1,2 -1,3l0 0 -1 2 0 0 0 2c-1,1 -1,2 -1,3l-1 2 0 2 0 0 -1 1 0 2 0 0 -1 2 0 2 0 2 0 0 -1 2 0 0 0 1 0 0 0 2 0 0 -1 2 0 2 0 0 0 2 0 0 0 2 -1 2 0 1 0 2 0 2 0 2 0 2 0 0 0 2 0 2 0 2 0 0 0 2 0 0 0 2 0 1 0 0 0 2 0 2 0 0 0 2 0 2 0 2 0 2 1 2 0 2 0 2 0 0 1 2 0 2 0 2 1 2 0 2 0 2 1 1 0 2 1 2 0 2 1 1 0 1 0 1 1 2 0 1 0 1 0 0 1 1 0 1 0 0 1 2 0 1 0 0 0 1 0 0 1 1 0 0 0 1 0 0 1 1 0 0 0 2 1 1 0 0 0 1 0 0 1 1 0 0 0 1 0 0 1 1 0 0 0 1 1 2 0 1 1 1 0 1 1 1 0 0 1 1 0 1 0 0 1 1 0 0 0 1 1 1 1 2 0 0 0 1 1 1 0 1 0 0 1 1 0 0 1 1 0 0 0 1 1 1 0 0 1 1 0 0 0 1 1 1 0 0 1 1 0 1 0 0 1 1 0 0 1 1 0 0 1 1 0 1 1 1 0 0 1 1 1 1 0 1 0 0 1 1 1 1 0 0 1 0 0 1 1 1 1 1 1 1 1 1 0 1 1 1 1 1 0 0 0 0 0 0 0 0 1 0 0 0 0 0 0 1 0 0 1 0 0 0 0 0 0 0 0 1 0 0 0 0 1 0 0 0 0 1 0 0 0 0 0 0 0 0 0 0 0 0 1 0 0 0 0 0 0 1 0 0 0 0 0 0 0 0 0 0 0 0 1 0 0 0 0 0 0 1 0 0 0 0 0 0 0 0 0 0 0 0 1 0 0 0 0 0 0 0 0 1 0 0 0 0 0 0 0 0 0 0 0 0 1 0 0 0 0 0z"/>
    <path class="fil4" d="M410 2466c-37,-24 -41,-70 -12,-100l178 -223c32,-39 69,-57 113,-25 19,13 38,29 58,44 94,77 190,154 337,115 120,-32 197,-121 223,-222 12,-47 13,-95 3,-142 -10,-47 -32,-93 -65,-133 -165,-175 -325,-83 -504,-135 -25,-8 -47,-21 -65,-40 -18,-19 -31,-42 -38,-69 -11,-41 -5,-83 15,-117 20,-34 53,-60 94,-71 79,-21 124,28 184,76 19,16 44,35 69,55 100,79 217,95 307,-1 9,-9 60,-79 65,-82 9,-5 20,6 26,11 23,21 54,14 66,-16l35 -149c7,-29 17,-57 -6,-76 -3,-3 -7,-6 -10,-9l33 -42 60 2c9,0 17,-7 17,-16 1,-9 -7,-16 -16,-17l-56 -2 -14 -54c-3,-9 -12,-14 -21,-11 -8,2 -13,11 -11,20l16 57 -8 10 0 0 -26 33c-3,-2 -5,-4 -8,-6 -14,-12 -30,-14 -46,-9 -9,3 -18,8 -28,13l-138 69c-23,12 -34,42 -15,64 13,16 37,15 15,43l-30 39c-33,43 -64,36 -98,13 -23,-16 -46,-34 -68,-52 -99,-78 -186,-148 -346,-105 -84,22 -138,66 -178,135 -100,172 -13,396 178,455 32,9 64,15 97,18 63,4 98,2 157,3 86,0 143,27 176,65 16,19 26,41 31,63 5,24 4,48 -2,71 -12,49 -50,93 -110,109 -71,19 -135,-33 -198,-85 -35,-28 -72,-59 -113,-79 -43,-23 -88,-31 -133,-23 -27,5 -54,16 -78,34 -42,30 -74,80 -107,120 -36,46 -170,196 -183,239 -5,15 -8,32 -8,49 0,89 73,162 162,162 36,0 69,-11 95,-31l1 0 0 0 0 0c-19,-11 -27,-16 -45,-27 -10,-6 -19,-12 -27,-18zm953 -1224c-14,1 -25,-10 -26,-23 0,-14 11,-25 24,-26 14,0 25,10 25,24 1,14 -10,25 -23,25z"/>
    <path class="fil5" d="M1050 2252c-106,28 -185,-4 -256,-52 80,61 167,110 290,77 120,-32 197,-121 223,-222 11,-47 13,-95 3,-142 -8,-37 -22,-72 -44,-105 -7,-9 -14,-19 -21,-28 -20,-23 -44,-44 -72,-62 14,12 26,24 38,37 33,40 55,86 65,133 10,47 8,96 -4,142 -26,101 -102,190 -222,222zm288 -876c-70,97 -154,196 -290,135 36,20 73,32 110,33 52,2 104,-18 148,-66 0,0 0,0 0,0 1,0 1,0 1,-1 0,0 0,0 0,0 4,-4 16,-19 29,-36 16,-21 33,-43 36,-45 9,-5 20,6 26,11 23,21 54,14 66,-16l28 -117c0,-5 -46,131 -95,91 -18,-15 -40,-11 -59,11zm-700 160c-11,-41 -5,-83 15,-117 20,-34 53,-60 94,-71 57,-15 96,5 135,36 -85,-101 -208,-73 -260,7 -43,67 -32,168 70,229 -3,-3 -6,-6 -9,-9 -3,-2 -5,-4 -7,-6 -18,-19 -31,-42 -38,-69zm836 -420l-17 21 26 20 16 -20c-7,1 -23,-11 -25,-21zm-1084 1260c2,-4 5,-7 8,-10l8 -11 170 -212c30,-37 64,-55 105,-31 -9,-7 -17,-13 -26,-19 -44,-32 -81,-14 -113,25l-167 208 -12 15c-1,2 -3,3 -4,5 -20,27 -18,61 5,86 4,3 8,7 12,10 1,1 2,2 4,3 8,5 16,12 25,18 -28,-23 -34,-59 -15,-87z"/>
    <path class="fil6" d="M568 1275c40,19 61,28 93,53 4,-37 -4,-71 -16,-105 -30,14 -55,30 -77,52zm456 152c39,-7 75,-27 104,-53 0,0 -1,0 -1,0 -6,-3 -12,-7 -18,-11 -19,-13 -37,-27 -55,-41 -5,44 -13,70 -30,105zm-75 390c33,0 62,4 86,11 -2,-5 -4,-10 -6,-15 -12,-32 -16,-57 -18,-90 -25,19 -43,44 -56,71 -3,7 -6,15 -9,23 1,0 2,0 3,0zm-140 -2c34,2 60,2 89,2 -19,-34 -25,-61 -32,-100 -27,27 -48,61 -57,98zm-114 -19c19,5 37,10 56,13 -1,-7 -3,-13 -4,-20 -6,-30 -7,-54 -4,-86 -30,18 -53,43 -70,71 -3,4 -5,7 -7,11 10,4 19,8 29,11zm-219 -281c38,-18 65,-24 102,-28 -25,-30 -59,-49 -95,-61 -6,28 -9,56 -7,84 0,1 0,3 0,5zm19 -129c42,0 64,0 102,9 -12,-36 -30,-63 -57,-89 -8,11 -16,22 -23,35 -9,14 -16,30 -22,45zm-71 859c-6,-38 -26,-75 -50,-103 -20,24 -40,48 -61,72 20,2 41,5 56,9 19,5 36,12 55,22zm-29 -128l20 -25c12,-15 24,-31 37,-47 23,28 47,66 53,102 -35,-17 -65,-26 -110,-30zm370 -138c-4,46 -12,73 -29,109 40,-7 74,-27 103,-53 -23,-19 -48,-39 -74,-56l0 0zm103 79c-2,46 -9,73 -25,108 39,-8 73,-29 101,-56 -26,-13 -51,-32 -76,-52zm284 -35c-9,29 -26,55 -52,75 45,2 79,5 115,21 -9,-39 -31,-72 -63,-96zm-232 -672c39,-7 77,-26 106,-51 -25,-20 -50,-40 -76,-56 -4,45 -13,72 -30,107z"/>
   </g>
   <path class="fil4" d="M3534 1246c31,31 47,77 47,138 0,61 -16,107 -47,139 -32,31 -76,47 -133,47l-105 0 0 175 -107 0 0 -546 212 0c57,0 101,15 133,47zm-60 138c0,-60 -26,-90 -79,-90l-99 0 0 180 99 0c26,0 45,-7 59,-21 13,-14 20,-37 20,-69zm522 -77l-167 487c-7,22 -17,39 -30,51 -20,21 -49,31 -86,31l-69 0 0 -90 53 0c15,0 25,-2 32,-7 7,-5 13,-15 18,-29l8 -21 -132 -422 105 0 78 304 85 -304 105 0z"/>
   <path class="fil7" d="M4838 1745l-111 0 -31 -95 -171 0 -30 95 -111 0 169 -500c6,-18 16,-29 26,-36 9,-6 21,-10 34,-10 14,0 25,3 34,10 8,6 16,18 22,36l169 500zm-2636 518c0,5 -2,7 -6,7l-98 0 0 -279c0,-3 1,-6 2,-7 1,-1 3,-1 7,-2 4,0 12,0 24,0l0 256 71 0 0 25zm517 -131c0,60 0,102 -2,127 -15,10 -35,14 -59,14 -12,0 -22,-1 -30,-4 -8,-3 -14,-9 -19,-18 -5,-9 -8,-23 -8,-40 0,-26 5,-44 15,-53 10,-10 23,-15 40,-15 13,0 23,2 30,6l0 -33c0,-9 -2,-15 -6,-19 -4,-4 -11,-5 -19,-5 -21,0 -40,3 -55,9 -3,-6 -5,-12 -5,-19 0,-6 2,-9 5,-11 4,-3 12,-6 24,-8 12,-2 25,-3 39,-3 18,0 31,3 38,11 8,8 12,21 12,39l0 22zm-33 40c-5,-2 -12,-4 -19,-4 -10,0 -18,3 -23,9 -6,6 -8,17 -8,33 0,14 2,23 6,28 5,5 12,7 21,7 10,0 17,-2 22,-6 1,-10 1,-32 1,-67zm68 -190c0,-5 1,-8 3,-10 1,-3 4,-4 8,-4 4,-1 12,-1 22,-1l0 107c12,-10 27,-14 44,-14 17,0 30,6 38,18 8,12 13,33 13,63 0,52 -8,88 -23,106 -15,17 -34,26 -57,26 -22,0 -38,-4 -48,-12l0 -279zm33 256c5,4 11,6 19,6 11,0 20,-7 27,-20 8,-14 12,-39 12,-76 0,-22 -3,-37 -7,-45 -5,-9 -12,-13 -22,-13 -12,0 -21,3 -29,11l0 137zm-447 -106c0,60 -1,103 -3,128 -15,9 -35,14 -59,14 -12,0 -21,-2 -30,-5 -8,-3 -14,-9 -19,-18 -5,-9 -8,-22 -8,-40 0,-26 5,-43 15,-53 10,-9 23,-14 40,-14 13,0 23,2 30,5l0 -32c0,-10 -2,-16 -6,-20 -4,-3 -11,-5 -19,-5 -21,0 -40,3 -55,10 -3,-6 -5,-13 -5,-20 0,-5 2,-9 5,-11 4,-3 12,-5 24,-7 12,-3 25,-4 39,-4 18,0 31,4 39,12 8,7 12,20 12,38l0 22zm-34 41c-5,-3 -11,-4 -19,-4 -10,0 -18,2 -23,8 -6,6 -8,17 -8,34 0,13 2,23 6,28 5,4 12,7 21,7 10,0 17,-2 22,-7 1,-9 1,-31 1,-66zm264 90c0,3 -1,4 -2,5 -1,1 -4,1 -9,2 -5,0 -13,0 -22,0l0 -140 -66 0 0 133c0,3 0,4 -1,5 -1,1 -5,1 -10,2 -5,0 -13,0 -22,0l0 -282c0,-2 0,-4 1,-4 1,-1 4,-2 10,-2 5,0 13,0 22,0l0 117 66 0 0 -111c0,-2 0,-4 1,-4 1,-1 4,-2 10,-2 5,0 12,0 22,0l0 281zm453 -131c0,60 -1,103 -2,128 -16,9 -35,14 -59,14 -12,0 -22,-2 -30,-5 -8,-3 -14,-9 -20,-18 -5,-9 -7,-22 -7,-40 0,-26 5,-43 15,-53 10,-9 23,-14 40,-14 13,0 23,2 30,5l0 -32c0,-10 -2,-16 -6,-20 -4,-3 -11,-5 -20,-5 -21,0 -39,3 -54,10 -3,-6 -5,-13 -5,-20 0,-5 2,-9 5,-11 4,-3 12,-5 24,-7 11,-3 24,-4 39,-4 17,0 30,4 38,12 8,7 12,20 12,38l0 22zm-33 41c-5,-3 -12,-4 -19,-4 -10,0 -18,2 -23,8 -6,6 -9,17 -9,34 0,13 3,23 7,28 5,4 12,7 21,7 10,0 17,-2 22,-7 1,-9 1,-31 1,-66zm67 -99c8,-4 19,-7 31,-10 13,-3 24,-4 34,-4 22,0 37,4 45,13 9,8 13,22 13,42l0 148c0,3 -1,4 -2,5 -1,1 -4,1 -10,2 -5,0 -13,0 -22,0l0 -145c0,-14 -2,-23 -5,-28 -3,-6 -10,-8 -20,-8 -12,0 -22,2 -31,7l0 167c0,3 0,4 -1,5 -1,1 -5,1 -10,2 -6,0 -13,0 -22,0l0 -196zm269 58c0,60 -1,103 -2,128 -16,9 -35,14 -59,14 -12,0 -22,-2 -30,-5 -8,-3 -14,-9 -20,-18 -5,-9 -7,-22 -7,-40 0,-26 5,-43 15,-53 10,-9 23,-14 40,-14 13,0 23,2 30,5l0 -32c0,-10 -2,-16 -6,-20 -4,-3 -11,-5 -20,-5 -21,0 -39,3 -54,10 -3,-6 -5,-13 -5,-20 0,-5 2,-9 5,-11 4,-3 12,-5 24,-7 11,-3 24,-4 39,-4 18,0 30,4 38,12 8,7 12,20 12,38l0 22zm-33 41c-5,-3 -12,-4 -19,-4 -10,0 -18,2 -23,8 -6,6 -9,17 -9,34 0,13 3,23 7,28 5,4 12,7 21,7 10,0 17,-2 22,-7 1,-9 1,-31 1,-66zm66 75c0,-7 2,-12 6,-16 4,-4 9,-6 15,-6 15,0 22,8 22,24 0,10 -2,19 -6,29 -4,9 -9,17 -14,23 -5,7 -9,10 -12,10 -7,0 -12,-3 -13,-9 5,-8 7,-14 9,-19 1,-4 3,-10 3,-16 -7,-5 -10,-11 -10,-20zm216 -270c14,0 24,2 30,6 6,5 9,10 9,16 0,8 -2,15 -6,21 -8,-7 -17,-11 -26,-11 -11,0 -19,3 -27,10 -8,6 -14,19 -19,37 -5,19 -7,45 -7,79 0,27 2,48 5,63 3,14 8,25 14,30 6,6 13,8 22,8 8,0 15,-1 22,-4 7,-2 12,-5 16,-9 4,7 5,14 5,20 0,8 -5,15 -14,21 -10,6 -22,9 -37,9 -14,0 -27,-3 -36,-10 -10,-6 -18,-19 -24,-39 -5,-20 -8,-49 -8,-87 0,-44 4,-77 12,-101 8,-24 18,-39 29,-47 12,-8 25,-12 40,-12zm188 281c-18,10 -39,15 -61,15 -16,0 -29,-3 -38,-8 -8,-4 -15,-12 -18,-22 -4,-9 -6,-22 -6,-38l0 -135c0,-3 1,-4 2,-5 1,-1 4,-2 10,-2 5,0 13,0 23,0l0 144c0,14 1,24 5,29 4,5 11,8 23,8 10,0 20,-3 27,-8l0 -166c0,-3 1,-4 2,-5 1,-1 4,-2 9,-2 6,0 13,0 22,0l0 195zm39 -276c0,-5 0,-9 2,-11 2,-2 5,-3 9,-4 4,0 11,0 21,0l0 106c13,-9 28,-14 44,-14 17,0 30,6 39,19 8,12 12,33 12,62 0,53 -8,88 -23,106 -15,18 -34,27 -57,27 -22,0 -38,-4 -47,-12l0 -279zm32 256c5,4 11,6 20,6 10,0 19,-7 27,-21 7,-13 11,-39 11,-76 0,-21 -2,-36 -7,-45 -5,-9 -12,-13 -22,-13 -11,0 -21,4 -29,12l0 137zm237 -107c0,60 -1,103 -3,128 -15,9 -35,14 -59,14 -12,0 -21,-2 -30,-5 -8,-3 -14,-9 -19,-18 -5,-9 -8,-22 -8,-40 0,-26 5,-43 15,-53 10,-9 23,-14 40,-14 13,0 23,2 30,5l0 -32c0,-10 -2,-16 -6,-20 -4,-3 -11,-5 -19,-5 -21,0 -40,3 -55,10 -3,-6 -4,-13 -4,-20 0,-5 1,-9 4,-11 4,-3 12,-5 24,-7 12,-3 25,-4 39,-4 18,0 31,4 39,12 8,7 12,20 12,38l0 22zm-34 41c-5,-3 -11,-4 -19,-4 -10,0 -18,2 -23,8 -6,6 -8,17 -8,34 0,13 2,23 6,28 5,4 12,7 21,7 10,0 17,-2 22,-7 1,-9 1,-31 1,-66zm66 75c0,-7 2,-12 6,-16 4,-4 9,-6 15,-6 15,0 23,8 23,24 0,10 -2,19 -7,29 -4,9 -8,17 -14,23 -5,7 -9,10 -11,10 -8,0 -12,-3 -14,-9 5,-8 8,-14 9,-19 2,-4 3,-10 3,-16 -6,-5 -10,-11 -10,-20zm130 22c-1,-3 -2,-7 -2,-11 0,-5 1,-9 2,-12 2,-4 4,-9 9,-17 10,-16 25,-37 46,-61 17,-20 29,-36 36,-48 8,-13 12,-25 12,-38 0,-19 -11,-28 -32,-28 -11,0 -22,1 -33,4 -11,3 -20,6 -27,10 -3,-6 -4,-14 -4,-24 0,-3 3,-7 10,-10 7,-4 15,-7 27,-9 11,-2 23,-3 35,-3 23,0 39,5 48,14 9,9 13,23 13,42 0,12 -2,23 -7,34 -4,11 -10,22 -17,31 -7,10 -17,22 -30,37 -19,23 -34,42 -44,57l56 0c9,0 19,0 29,-1 10,-1 16,-1 20,-1 0,13 -1,22 -2,27 -1,4 -2,7 -5,7l-140 0zm170 -122c0,-42 6,-73 18,-94 12,-21 31,-31 57,-31 26,0 45,9 56,28 12,19 17,48 17,87 0,46 -5,81 -16,103 -12,21 -31,32 -59,32 -27,0 -46,-10 -57,-30 -10,-20 -16,-52 -16,-95zm36 2c0,24 1,42 4,55 2,14 6,23 11,29 6,6 13,9 23,9 14,0 24,-8 31,-24 6,-17 9,-44 9,-81 0,-30 -3,-51 -8,-65 -6,-14 -15,-21 -29,-21 -15,0 -26,8 -32,25 -6,16 -9,41 -9,73zm190 -93c-14,2 -32,6 -46,9 -4,-6 -6,-16 -6,-25 0,-2 5,-4 16,-7 11,-4 23,-6 35,-9 13,-3 22,-4 27,-4 4,0 7,1 9,2 0,74 -1,150 0,224 0,4 1,19 -2,22 -1,0 -2,1 -5,1 -8,0 -23,0 -28,0l0 -213zm214 -35c0,4 0,8 0,12 0,7 0,13 -2,17 -32,66 -49,133 -49,207 0,14 -8,12 -21,12 -6,0 -8,0 -14,0 1,-78 14,-143 45,-215 -20,1 -53,1 -95,1 -6,0 -7,-14 -7,-34l143 0zm-2341 -438c0,51 -19,92 -56,121 -38,30 -87,44 -145,44 -47,0 -92,-13 -135,-38 -22,-13 -39,-32 -53,-56 -14,-25 -21,-52 -21,-84l97 -4c0,27 11,49 35,64 23,16 50,23 78,23 64,0 96,-22 96,-67 0,-37 -22,-59 -65,-65l-89 -10c-45,-6 -80,-22 -106,-47 -26,-25 -39,-61 -39,-108 0,-47 19,-86 56,-117 37,-31 84,-46 141,-46 57,0 103,15 138,43 35,29 52,66 52,112l-95 5c-9,-45 -38,-67 -90,-67 -31,0 -55,6 -73,20 -17,13 -26,29 -26,47 0,18 6,32 19,43 13,10 29,17 47,19l88 10c98,13 146,66 146,158zm314 0l90 0c0,4 -1,11 -1,22 -1,11 -1,18 -1,22 -1,4 -1,10 -2,18 -1,8 -3,14 -4,18 -1,4 -3,9 -5,15 -9,26 -34,48 -75,63 -26,9 -53,13 -82,13 -28,0 -54,-4 -77,-13 -23,-10 -41,-21 -54,-36 -30,-31 -45,-91 -45,-178 0,-87 15,-146 45,-178 13,-14 31,-26 54,-36 23,-9 49,-13 77,-13 55,0 97,13 126,41 28,28 43,66 43,115l-91 0c0,-22 -5,-39 -17,-50 -11,-11 -32,-17 -62,-17 -31,0 -51,10 -61,29 -10,19 -15,47 -15,85l0 40c0,61 12,98 36,112 10,6 24,10 42,10 17,0 31,-2 42,-5 11,-4 19,-9 24,-18 5,-8 8,-16 10,-24 1,-8 2,-19 3,-35zm224 -444c24,0 40,3 47,11 7,7 11,23 11,47 0,23 -4,39 -11,46 -8,8 -23,11 -47,11 -24,0 -39,-3 -47,-11 -7,-8 -11,-23 -11,-47 0,-23 4,-39 11,-46 8,-8 23,-11 47,-11zm50 605l-100 0 0 -422 100 0 0 422zm1227 0l-119 0c-108,0 -131,-31 -131,-134l0 -412 106 0 0 394c0,32 12,57 46,57l129 0 -31 95zm355 -184l-59 -216 -61 216 120 0z"/>
  </g>
 </g>
</svg>
