<?xml version="1.0" encoding="UTF-8"?>
<!DOCTYPE svg PUBLIC "-//W3C//DTD SVG 1.1//EN" "http://www.w3.org/Graphics/SVG/1.1/DTD/svg11.dtd">
<!-- Creator: CorelDRAW X7 -->
<svg xmlns="http://www.w3.org/2000/svg" xml:space="preserve" width="48.4292mm" height="33.8666mm" version="1.1" style="shape-rendering:geometricPrecision; text-rendering:geometricPrecision; image-rendering:optimizeQuality; fill-rule:evenodd; clip-rule:evenodd"
viewBox="0 0 4843 3387"
 xmlns:xlink="http://www.w3.org/1999/xlink">
 <defs>
  <style type="text/css">
   <![CDATA[
    .fil0 {fill:#181818}
   ]]>
  </style>
 </defs>
 <g id="Capa_x0020_1">
  <metadata id="CorelCorpID_0Corel-Layer"/>
  <g>
   <path class="fil0" d="M2430 154c459,1 840,335 915,773l0 0c7,37 11,75 13,113 7,139 -17,271 -65,391 -119,297 -378,507 -680,568l-1 1c-49,10 -101,16 -153,18l-1 0c-5,0 -11,0 -17,0l-1 0c-5,0 -11,0 -17,0 -169,0 -327,-46 -463,-125 -10,-5 -18,-10 -30,-18 -10,-6 -20,-13 -31,-20 -30,-23 -35,-60 -15,-89 164,131 377,204 603,188 233,-17 443,-122 596,-297 211,-247 270,-574 158,-878 -30,-80 -72,-154 -123,-221 -4,-6 -13,-7 -19,-2 -6,4 -7,13 -3,19 49,64 90,136 119,213 25,69 46,154 51,227 2,25 -11,47 -24,68 -11,18 -33,58 -50,70 -14,10 -28,14 -41,13l0 0c-15,-1 -30,-8 -45,-20l0 0c-10,-8 -23,-18 -37,-31 -58,-49 -144,-121 -196,-126 -5,0 -10,0 -15,1 -9,2 -16,6 -22,12 -5,7 -8,14 -9,23 0,5 0,10 1,15 4,15 13,31 27,46l0 0c12,15 29,30 47,45 20,16 39,31 58,46 38,30 73,57 87,72 16,18 23,33 23,48 0,17 -8,35 -19,59 -41,86 -125,201 -217,305 -71,80 -184,198 -276,250 -7,4 -15,7 -22,10 -13,3 -37,4 -51,5 -219,16 -425,-54 -584,-182l168 -210c32,-38 69,-56 113,-24 19,13 38,28 58,44 94,77 189,154 336,115 120,-32 196,-121 222,-222 12,-46 13,-95 4,-142 -10,-47 -32,-93 -65,-132 -165,-175 -325,-83 -503,-135 -25,-8 -47,-22 -65,-41 -18,-18 -31,-41 -38,-68 -11,-41 -5,-83 15,-117 20,-33 52,-60 94,-71 79,-21 123,28 183,76 19,16 44,35 69,55 100,79 217,95 306,-1 10,-9 60,-79 66,-82 8,-5 20,6 26,11 23,21 53,15 65,-16l35 -149c7,-28 17,-56 -5,-75 -4,-3 -8,-6 -11,-9l34 -43 59 3c9,0 17,-7 17,-16 1,-9 -6,-17 -15,-17l-56 -2 -15 -54c-2,-9 -11,-14 -20,-12 -9,3 -14,12 -12,21l16 57 -7 9 0 1 -27 33c-2,-2 -5,-5 -7,-7 -14,-12 -30,-13 -46,-9 -10,3 -19,9 -29,14l-137 68c-23,13 -34,42 -15,64 13,16 37,15 15,44l-30 39c-27,34 -52,36 -79,23l-2 2c-28,25 -63,44 -102,51 17,-35 26,-61 30,-105l-13 -10 -15 -12c-29,25 -67,44 -106,51 17,-35 26,-62 31,-106 -69,-44 -145,-68 -256,-38 -18,4 -34,10 -50,17 13,34 21,68 17,104 -32,-25 -53,-34 -93,-53 -10,10 -19,20 -28,31 27,27 45,53 57,89 -38,-9 -60,-8 -101,-9 -5,13 -10,27 -13,41 36,11 70,31 95,60 -37,4 -64,10 -102,28 7,115 77,222 190,270 2,-4 4,-8 6,-11 18,-29 41,-54 71,-71 -3,31 -3,55 4,86 1,6 2,12 4,19 13,2 27,4 40,5 6,0 12,1 18,1l-1 0c9,-37 30,-70 58,-97 6,38 12,66 31,99 15,0 31,0 48,0l0 0c3,-8 6,-15 10,-22 12,-28 31,-52 55,-72 2,33 6,58 18,90 2,5 4,10 6,15l0 0c40,12 70,31 90,55 16,18 26,40 31,62 5,24 4,48 -2,71 0,2 -1,5 -2,7 32,24 54,57 62,95 -35,-15 -69,-18 -114,-21 -15,13 -34,22 -56,28 -35,9 -68,1 -100,-15 -28,27 -61,48 -100,56 15,-36 22,-63 24,-108 -7,-6 -14,-12 -22,-18l-6 -5c-29,26 -64,46 -103,53 17,-36 25,-62 29,-109l0 0c-11,-6 -21,-13 -32,-18 -43,-22 -88,-31 -133,-23 -27,5 -53,16 -78,34 -26,19 -49,46 -70,73 23,28 47,66 53,102 -35,-17 -64,-26 -110,-30l1 -1c-7,8 -14,17 -22,26l0 0c24,28 45,65 51,102 -20,-9 -37,-16 -55,-21 -15,-5 -36,-7 -56,-9 -7,9 -14,18 -21,27 -113,-133 -180,-291 -198,-464 -4,-42 -5,-45 20,-80 6,-10 12,-17 22,-24 14,-10 27,-14 41,-13l0 0c15,1 30,8 45,20l0 0c10,8 23,18 37,30 58,50 144,122 196,127 5,0 10,0 15,-1 9,-2 16,-6 21,-13 6,-6 9,-13 10,-22 0,-5 0,-10 -1,-15 -4,-15 -13,-31 -27,-47l0 0c-12,-14 -29,-29 -47,-44 -20,-16 -39,-31 -58,-46 -38,-30 -73,-58 -87,-72 -11,-12 -17,-23 -21,-33 -3,-10 -2,-20 0,-31 8,-34 40,-85 61,-118l7 -12 0 0c8,-11 15,-23 23,-35 9,-12 17,-25 26,-37l16 -22 0 0c52,-72 115,-148 178,-217 62,-66 146,-152 222,-199 30,-18 47,-17 81,-19 98,-7 194,3 283,28 93,26 180,67 258,122 6,4 15,2 19,-4 5,-6 3,-15 -3,-19 -80,-56 -170,-99 -266,-126 -92,-25 -189,-36 -288,-29l-7 0c-234,18 -439,121 -594,297 -216,250 -273,596 -148,902 35,87 85,167 146,238 -15,21 -28,39 -36,53 -114,-128 -194,-287 -224,-463l0 0c-7,-38 -11,-76 -13,-113 -6,-133 16,-268 65,-391 119,-299 381,-509 684,-569l1 0c43,-9 87,-15 132,-17l0 0c6,0 11,0 17,-1l1 0c6,0 11,0 17,0l1 0c5,0 11,0 17,0zm492 2135c31,32 47,78 47,139 0,62 -16,108 -47,140 -32,31 -77,47 -135,47l-105 0 0 176 -108 0 0 -550 213 0c58,0 103,16 135,48zm-60 139c0,-60 -27,-91 -80,-91l-100 0 0 182 100 0c26,0 46,-7 59,-21 14,-14 21,-37 21,-70zm512 -78l-168 491c-7,22 -17,39 -30,52 -20,20 -49,31 -86,31l-68 0 0 -91 51 0c15,0 26,-2 32,-7 7,-5 13,-15 19,-29l7 -22 -133 -425 106 0 79 307 85 -307 106 0zm-1786 872c0,4 -2,7 -7,7l-100 0 0 -287c0,-3 0,-6 2,-7 1,-1 3,-2 7,-2 4,0 12,0 25,0l0 264 73 0 0 25zm294 -593c0,52 -19,93 -57,123 -38,29 -87,44 -146,44 -47,0 -92,-13 -136,-39 -21,-13 -39,-32 -53,-56 -14,-25 -21,-53 -21,-84l97 -5c0,28 12,50 36,65 24,16 50,23 79,23 64,0 96,-22 96,-68 0,-37 -22,-59 -65,-65l-90 -10c-45,-6 -80,-22 -107,-48 -26,-25 -39,-61 -39,-109 0,-47 19,-86 56,-117 38,-31 85,-46 143,-46 57,0 104,14 139,43 35,29 52,67 52,113l-96 4c-8,-44 -39,-67 -90,-67 -32,0 -56,7 -74,20 -18,14 -27,29 -27,48 0,18 7,32 20,43 13,11 29,17 48,20l88 9c98,13 147,66 147,159zm316 1l91 -1c0,4 -1,12 -1,23 -1,10 -1,18 -1,22 -1,3 -1,10 -2,18 -1,8 -2,14 -4,18 -1,4 -3,9 -5,15 -9,27 -34,48 -75,63 -27,10 -54,14 -83,14 -28,0 -54,-4 -77,-14 -24,-9 -42,-21 -55,-35 -31,-32 -46,-92 -46,-180 0,-88 15,-147 46,-179 13,-15 31,-27 55,-36 23,-9 48,-14 77,-14 55,0 98,14 127,42 28,28 43,66 43,116l-91 0c0,-23 -6,-40 -17,-51 -12,-11 -33,-17 -63,-17 -31,0 -51,10 -61,29 -10,19 -15,48 -15,86l0 40c0,61 12,99 35,113 11,6 25,10 43,10 17,0 31,-2 42,-5 12,-3 20,-9 24,-18 5,-8 9,-16 10,-24 2,-8 3,-20 3,-35zm227 -448c24,0 40,4 47,11 7,7 11,23 11,47 0,24 -4,40 -12,47 -7,8 -23,11 -47,11 -24,0 -39,-3 -47,-11 -7,-8 -11,-24 -11,-47 0,-24 4,-40 11,-47 8,-7 23,-11 48,-11zm49 609l-100 0 0 -425 100 0 0 425zm-745 296c0,62 -1,106 -2,132 -16,9 -37,14 -61,14 -12,0 -22,-2 -31,-5 -8,-3 -15,-9 -20,-18 -5,-10 -8,-23 -8,-41 0,-27 5,-45 16,-55 10,-10 24,-15 41,-15 13,0 23,2 31,6l0 -34c0,-9 -2,-16 -7,-20 -4,-3 -10,-5 -19,-5 -22,0 -41,3 -57,10 -3,-6 -4,-13 -4,-20 0,-6 1,-10 4,-12 5,-2 13,-5 25,-7 12,-3 25,-4 40,-4 18,0 32,4 40,12 8,8 12,21 12,40l0 22zm-34 42c-6,-3 -12,-4 -20,-4 -10,0 -18,3 -24,9 -5,5 -8,17 -8,34 0,14 2,24 7,29 4,5 12,7 21,7 10,0 17,-2 23,-7 0,-9 1,-32 1,-68zm55 -83c0,-7 0,-13 1,-18 0,-5 1,-8 2,-9 1,-1 2,-2 4,-2l22 0 0 -64c0,-4 1,-7 3,-8 2,-2 5,-3 9,-3 4,-1 11,-1 22,-1l0 76 44 0c0,8 0,14 -1,19 0,5 -1,8 -2,9 -1,1 -2,1 -4,1l-37 0 0 124c0,11 1,20 3,25 1,6 6,9 12,9 8,0 16,-2 25,-7 2,6 3,12 3,17 0,13 -13,19 -37,19 -11,0 -20,-3 -26,-7 -6,-5 -9,-12 -11,-21 -2,-9 -3,-21 -3,-35l0 -124 -29 0zm170 176c0,2 -1,4 -2,5 -1,1 -4,1 -10,1 -5,1 -13,1 -22,1l0 -196c0,-5 0,-9 2,-11 2,-2 5,-4 9,-4 5,-1 12,-1 23,-1l0 205zm44 -195c9,-4 20,-7 32,-10 13,-3 25,-4 35,-4 22,0 38,4 47,13 8,8 13,23 13,44l0 152c0,2 -1,4 -2,5 -1,1 -5,1 -10,1 -6,1 -14,1 -23,1l0 -149c0,-14 -2,-24 -6,-29 -3,-6 -10,-8 -20,-8 -12,0 -23,2 -32,7l0 172c0,2 0,4 -1,5 -1,1 -5,1 -10,1 -6,1 -13,1 -23,1l0 -202zm159 96c0,-73 23,-110 70,-110 16,0 28,3 38,10 9,6 16,17 21,33 5,16 7,38 7,66 0,38 -6,67 -18,84 -11,18 -29,27 -52,27 -16,0 -28,-3 -37,-8 -10,-5 -17,-16 -22,-32 -5,-16 -7,-39 -7,-70zm37 1c0,22 1,39 3,51 3,12 6,19 10,23 4,4 10,6 17,6 10,0 18,-6 24,-18 5,-11 8,-33 8,-64 0,-22 -1,-39 -3,-50 -3,-12 -6,-20 -10,-24 -4,-4 -10,-6 -17,-6 -10,0 -18,6 -24,18 -5,11 -8,33 -8,64zm360 98c0,3 -1,5 -3,6 -2,1 -6,2 -12,2 -8,0 -15,-1 -21,-1l-17 -76 -74 0 -16 70c-1,2 -3,4 -4,5 -2,1 -6,2 -13,2 -5,0 -12,-1 -21,-2l76 -291c1,-4 5,-6 13,-6 6,0 12,1 16,2l76 289zm-75 -160c-9,-35 -13,-62 -15,-82 -3,25 -8,52 -15,82l-15 61 59 0 -14 -61zm97 -35c20,-9 41,-14 63,-14 18,0 31,4 39,13 15,-9 33,-13 51,-13 14,0 24,2 31,7 7,4 12,11 14,19 2,8 3,20 3,34l0 149c0,2 0,4 -1,5 -2,1 -5,1 -11,1 -5,1 -13,1 -22,1l0 -157c0,-11 -1,-18 -4,-23 -3,-4 -8,-6 -17,-6 -10,0 -20,3 -29,8l0 52 0 0 0 119c0,2 0,4 -1,5 -1,1 -4,1 -10,1 -5,1 -13,1 -22,1l0 -158c0,-8 -1,-13 -2,-17 0,-4 -2,-7 -5,-9 -3,-1 -8,-2 -14,-2 -11,0 -20,2 -29,7l0 172c0,2 -1,4 -2,5 -1,1 -4,1 -10,1 -6,1 -13,1 -22,1l0 -202zm310 173c17,0 33,-5 49,-14 2,7 3,14 3,24 0,6 -6,12 -18,16 -11,5 -25,7 -41,7 -14,0 -26,-3 -36,-8 -10,-5 -17,-15 -23,-30 -6,-14 -9,-35 -9,-61 0,-33 4,-58 11,-76 7,-18 16,-30 26,-36 11,-6 24,-9 38,-9 36,0 54,23 54,68 0,22 -1,41 -5,55 -22,4 -52,6 -88,6 0,22 4,37 10,46 6,8 16,12 29,12zm-3 -157c-22,0 -34,24 -36,72 25,0 45,-1 58,-5 1,-6 2,-15 2,-25 0,-16 -2,-27 -5,-33 -4,-6 -10,-9 -19,-9zm-28 -51c-3,0 -5,-2 -7,-4 -2,-3 -3,-6 -4,-9 -1,-3 -2,-5 -2,-6 9,-10 20,-21 33,-33 14,-11 21,-17 23,-17 4,0 7,3 10,9 3,5 5,11 6,17 -4,4 -12,11 -27,21 -14,11 -25,18 -32,22zm116 40c18,-13 37,-19 57,-19 20,0 30,6 30,18 0,7 -2,13 -4,20 -6,-4 -13,-5 -20,-5 -11,0 -21,3 -29,9l0 167c0,2 0,4 -2,5 -1,1 -4,1 -10,1 -5,1 -13,1 -22,1l0 -197zm146 190c0,2 -1,4 -2,5 -1,1 -4,1 -10,1 -5,1 -13,1 -22,1l0 -196c0,-5 0,-9 2,-11 2,-2 5,-4 9,-4 5,-1 12,-1 23,-1l0 205zm144 -190c0,7 -1,13 -4,19 -9,-5 -19,-8 -30,-8 -12,0 -22,6 -30,17 -8,12 -12,34 -12,68 0,19 1,35 4,45 3,11 7,19 12,23 6,4 13,6 22,6 13,0 25,-3 34,-9 2,8 3,14 3,18 0,6 -4,11 -13,16 -9,4 -21,6 -34,6 -15,0 -27,-3 -36,-8 -9,-6 -16,-16 -20,-31 -5,-16 -7,-38 -7,-66 0,-46 7,-76 21,-92 14,-15 32,-23 55,-23 10,0 18,2 25,5 7,4 10,9 10,14zm142 55c0,62 -1,106 -2,132 -16,9 -36,14 -61,14 -12,0 -22,-2 -31,-5 -8,-3 -15,-9 -20,-18 -5,-10 -8,-23 -8,-41 0,-27 6,-45 16,-55 10,-10 24,-15 41,-15 13,0 24,2 31,6l0 -34c0,-9 -2,-16 -6,-20 -5,-3 -11,-5 -20,-5 -22,0 -41,3 -57,10 -3,-6 -4,-13 -4,-20 0,-6 1,-10 4,-12 5,-2 13,-5 25,-7 12,-3 25,-4 40,-4 18,0 32,4 40,12 8,8 12,21 12,40l0 22zm-34 42c-5,-3 -12,-4 -20,-4 -10,0 -18,3 -24,9 -5,5 -8,17 -8,34 0,14 2,24 7,29 5,5 12,7 21,7 10,0 18,-2 23,-7 0,-9 1,-32 1,-68zm-273 -1490c-115,132 -270,227 -442,267 -19,4 -6,-2 2,-8 39,-28 82,-67 116,-100 40,-39 78,-79 114,-120 94,-106 179,-223 221,-311 13,-27 21,-48 21,-69 0,-22 -8,-42 -29,-65 -15,-17 -51,-45 -90,-76 -19,-15 -40,-31 -57,-45 -17,-14 -33,-28 -45,-42l0 0c-11,-12 -18,-24 -21,-35 0,-3 0,-5 0,-8 0,-3 1,-6 3,-9 2,-2 5,-3 8,-4 2,-1 5,-1 8,0 44,4 126,73 182,120 15,13 28,24 38,32l0 0c19,14 38,23 58,24l0 0c19,2 38,-3 57,-16 23,-16 44,-57 58,-81 6,-9 5,-1 5,5 -1,91 -19,187 -49,272 -36,99 -89,189 -158,269zm-1271 -1106c116,-133 272,-228 444,-267 16,-4 8,0 0,6 -42,30 -88,73 -125,110 -21,21 -42,43 -63,66 -70,75 -140,161 -196,240l-15 22 0 0c-4,6 -7,11 -11,16 -8,13 -16,25 -23,36l0 0c-5,7 -6,9 -8,12 -21,34 -55,87 -64,126 -3,15 -3,29 1,43 4,14 12,27 26,42 15,17 51,45 90,76 19,15 40,31 57,45 17,14 33,28 45,42l0 0c11,12 18,24 21,35 0,3 0,5 0,8 0,3 -1,6 -3,8 -2,3 -5,4 -8,5 -3,0 -5,1 -8,0 -44,-4 -126,-73 -182,-120 -15,-13 -28,-24 -38,-32l0 0c-19,-14 -38,-23 -58,-24l0 0c-19,-2 -38,3 -57,16 -15,10 -19,18 -29,31 -3,4 -3,4 -3,-2 0,-13 1,-32 2,-45 13,-183 84,-355 203,-493l2 -2zm199 242c0,1 -1,3 -1,4l1 -4zm229 421l1 1 -1 -1zm93 12c3,0 7,0 10,0 -3,0 -7,0 -10,0zm542 -572c-13,0 -24,-10 -25,-24 0,-13 10,-25 24,-25 13,-1 24,10 25,24 0,13 -10,24 -24,25z"/>
  </g>
 </g>
</svg>
