<?xml version="1.0" encoding="UTF-8"?>
<!DOCTYPE svg PUBLIC "-//W3C//DTD SVG 1.1//EN" "http://www.w3.org/Graphics/SVG/1.1/DTD/svg11.dtd">
<!-- Creator: CorelDRAW X7 -->
<svg xmlns="http://www.w3.org/2000/svg" xml:space="preserve" width="48.4292mm" height="33.8666mm" version="1.1" style="shape-rendering:geometricPrecision; text-rendering:geometricPrecision; image-rendering:optimizeQuality; fill-rule:evenodd; clip-rule:evenodd"
viewBox="0 0 4843 3387"
 xmlns:xlink="http://www.w3.org/1999/xlink">
 <defs>
  <style type="text/css">
   <![CDATA[
    .fil0 {fill:#181818}
   ]]>
  </style>
 </defs>
 <g id="Capa_x0020_1">
  <metadata id="CorelCorpID_0Corel-Layer"/>
  <g>
   <path class="fil0" d="M937 760c460,2 841,336 916,774l0 0c7,37 11,75 13,113 7,140 -17,272 -65,392 -119,297 -379,507 -681,569l0 0c-50,10 -102,16 -154,18l-1 0c-5,0 -11,0 -17,1l-1 0c-5,0 -11,0 -17,0 -169,-1 -327,-46 -463,-125 -10,-6 -18,-11 -30,-19 -11,-6 -21,-13 -31,-20 -30,-22 -35,-60 -16,-89 165,132 378,204 604,188 233,-17 443,-121 597,-297 211,-247 270,-575 158,-879 -31,-80 -72,-154 -123,-221 -5,-6 -13,-7 -19,-2 -6,4 -7,13 -3,19 49,64 90,136 119,213 25,69 46,154 51,227 2,25 -11,48 -24,68 -11,18 -33,59 -50,71 -14,9 -28,13 -41,12l0 0c-15,-1 -30,-8 -45,-19l0 0c-10,-8 -23,-19 -37,-31 -59,-49 -144,-121 -196,-127 -6,0 -11,0 -16,1 -9,2 -16,7 -21,13 -5,6 -8,14 -9,22 -1,5 0,10 1,16 3,15 13,30 26,46l0 0c13,14 30,30 48,44 20,17 39,32 57,46 39,31 74,58 87,73 17,18 24,33 23,48 0,16 -7,35 -19,59 -40,86 -125,201 -216,305 -71,81 -185,198 -277,250 -7,4 -15,8 -22,10 -13,3 -37,5 -51,6 -219,15 -425,-55 -584,-182l168 -211c31,-38 69,-56 113,-25 18,14 38,29 57,45 95,77 190,154 337,115 120,-32 197,-121 223,-222 12,-47 13,-95 3,-142 -10,-48 -32,-93 -65,-133 -165,-175 -325,-83 -503,-135 -25,-7 -47,-21 -65,-40 -18,-19 -32,-42 -39,-69 -11,-41 -4,-83 16,-117 19,-33 52,-60 93,-71 80,-21 124,28 184,77 19,15 44,34 69,54 100,79 217,96 307,-1 9,-9 60,-79 65,-82 9,-5 20,6 26,11 23,21 54,15 66,-16l35 -149c7,-28 16,-56 -6,-75 -3,-3 -7,-6 -11,-9l34 -43 60 2c9,1 17,-6 17,-15 0,-9 -7,-17 -16,-17l-56 -2 -14 -54c-3,-9 -12,-14 -21,-12 -8,2 -13,11 -11,20l16 58 -8 9 0 0 -26 33c-3,-2 -5,-4 -8,-6 -14,-12 -30,-14 -46,-9 -9,3 -18,8 -28,13l-138 69c-23,12 -34,42 -15,64 13,16 37,15 16,43l-31 40c-26,34 -52,36 -79,23l-2 2c-28,25 -62,44 -101,51 16,-35 25,-61 29,-105l-13 -10 -15 -12c-28,25 -67,44 -106,51 17,-35 26,-62 31,-107 -69,-43 -145,-67 -256,-38 -18,5 -34,11 -50,18 13,34 21,67 17,104 -32,-25 -53,-34 -94,-53 -10,9 -19,20 -27,31 27,27 44,53 57,89 -38,-9 -61,-8 -102,-9 -5,13 -9,27 -12,41 36,11 69,31 95,60 -37,4 -64,10 -102,28 7,115 77,223 190,270 2,-4 4,-7 6,-11 18,-28 41,-53 71,-71 -3,32 -3,56 3,86 2,7 3,13 5,20 13,2 26,3 40,5 6,0 12,0 18,1l-1 0c9,-37 30,-71 58,-98 6,39 12,66 31,100 15,0 31,0 48,0l0 0c3,-8 6,-16 10,-23 13,-27 31,-52 55,-72 2,34 6,59 18,91 2,5 4,10 7,15l0 0c39,11 69,30 89,54 16,19 26,40 31,63 5,24 4,48 -1,70 -1,3 -2,5 -3,8 32,24 54,57 63,95 -36,-15 -70,-19 -114,-21 -16,12 -35,22 -57,28 -35,9 -68,1 -100,-15 -28,27 -61,48 -100,56 15,-36 22,-63 24,-108 -7,-6 -15,-12 -22,-18l-7 -5c-28,26 -63,46 -102,53 16,-36 25,-63 28,-109l1 0c-11,-7 -21,-13 -32,-19 -44,-22 -88,-30 -133,-22 -28,5 -54,16 -79,34 -26,19 -48,45 -69,73 23,28 46,66 52,102 -35,-17 -64,-26 -109,-31l0 0c-6,8 -14,16 -21,26l0 0c23,28 44,65 50,102 -19,-9 -36,-16 -55,-21 -15,-5 -36,-7 -56,-9 -7,9 -14,18 -21,27 -113,-133 -180,-291 -198,-465 -4,-42 -5,-44 20,-80 6,-10 12,-17 22,-24 14,-10 28,-13 41,-12l0 0c15,1 30,8 45,19l0 0c10,8 23,19 37,31 59,49 144,121 196,126 6,1 11,1 15,0 9,-2 17,-7 22,-13 5,-6 8,-14 9,-22 1,-5 0,-11 -1,-16 -3,-15 -13,-30 -26,-46l0 0c-13,-15 -30,-30 -48,-45 -20,-16 -39,-31 -57,-45 -39,-31 -74,-58 -88,-73 -11,-12 -17,-23 -20,-33 -3,-10 -3,-20 -1,-31 9,-34 41,-85 61,-118l8 -12 0 0c7,-11 15,-23 23,-35 8,-12 17,-25 26,-37l15 -22 0 0c53,-72 116,-149 179,-217 61,-66 146,-152 222,-200 30,-18 47,-17 81,-19 98,-7 194,3 284,28 93,26 180,68 258,122 6,4 14,3 19,-3 4,-7 3,-15 -3,-20 -81,-56 -171,-99 -267,-125 -92,-26 -189,-36 -288,-30l-7 1c-234,18 -440,121 -595,297 -216,250 -274,596 -148,903 36,87 85,167 147,238 -16,21 -29,39 -37,53 -114,-128 -194,-287 -224,-464l0 0c-7,-37 -11,-75 -13,-113 -7,-133 16,-268 65,-391 120,-299 381,-509 685,-570l0 0c43,-9 88,-14 133,-17l0 0c6,0 11,0 17,0l1 0c6,-1 11,-1 17,-1l1 0c5,0 11,0 17,0zm2598 487c31,31 47,78 47,138 0,61 -16,107 -47,139 -32,31 -76,47 -133,47l-105 0 0 174 -107 0 0 -545 212 0c57,0 101,16 133,47zm-60 138c0,-60 -26,-90 -79,-90l-99 0 0 180 99 0c26,0 45,-7 59,-21 13,-14 20,-37 20,-69zm521 -77l-166 487c-8,21 -18,39 -30,51 -20,20 -49,31 -86,31l-69 0 0 -90 53 0c14,0 25,-3 32,-7 7,-5 13,-15 18,-29l8 -22 -132 -421 105 0 78 304 84 -304 105 0zm842 437l-111 0 -31 -94 -170 0 -30 94 -111 0 168 -499c6,-18 16,-29 26,-36 9,-6 21,-9 35,-9 13,0 25,3 33,9 8,6 16,18 22,36l169 499zm-2634 519c0,4 -2,6 -7,6l-97 0 0 -278c0,-4 1,-6 2,-7 1,-1 3,-2 7,-2 4,0 12,0 24,0l0 256 71 0 0 25zm517 -132c0,60 -1,103 -3,128 -15,9 -35,14 -59,14 -11,0 -21,-2 -29,-5 -8,-3 -15,-9 -20,-18 -5,-9 -7,-22 -7,-40 0,-26 5,-43 15,-53 10,-9 23,-14 40,-14 12,0 22,2 30,5l0 -32c0,-9 -2,-16 -7,-19 -4,-4 -10,-6 -19,-6 -21,0 -39,3 -54,10 -3,-6 -5,-12 -5,-20 0,-5 2,-9 5,-11 4,-2 12,-5 23,-7 12,-3 25,-4 39,-4 18,0 31,4 39,12 8,7 12,20 12,38l0 22zm-33 41c-6,-3 -12,-4 -20,-4 -10,0 -17,3 -23,8 -5,6 -8,17 -8,34 0,13 2,23 7,28 4,4 11,7 21,7 9,0 16,-2 21,-7 1,-9 2,-31 2,-66zm68 -190c0,-5 1,-9 2,-11 2,-2 5,-3 9,-4 4,0 11,0 22,0l0 107c12,-10 27,-15 44,-15 17,0 29,6 38,19 8,12 12,33 12,62 0,53 -8,88 -23,106 -15,18 -34,27 -57,27 -22,0 -37,-4 -47,-13l0 -278zm33 256c4,4 10,6 19,6 10,0 19,-7 27,-21 7,-13 11,-39 11,-76 0,-21 -2,-36 -7,-45 -5,-8 -12,-13 -22,-13 -11,0 -21,4 -28,12l0 137zm-448 -106c0,60 -1,102 -2,127 -16,10 -35,14 -59,14 -12,0 -22,-1 -30,-4 -8,-3 -14,-9 -19,-18 -6,-9 -8,-23 -8,-40 0,-26 5,-44 15,-53 10,-10 23,-15 40,-15 13,0 23,2 30,6l0 -33c0,-9 -2,-15 -6,-19 -4,-4 -11,-5 -19,-5 -22,0 -40,3 -55,9 -3,-6 -5,-12 -5,-19 0,-6 2,-9 5,-11 4,-3 12,-6 24,-8 11,-2 24,-3 39,-3 18,0 30,3 38,11 8,8 12,21 12,39l0 22zm-33 40c-5,-3 -12,-4 -19,-4 -10,0 -18,3 -23,9 -6,5 -9,17 -9,33 0,14 3,23 7,28 5,5 12,7 21,7 10,0 17,-2 22,-6 1,-10 1,-32 1,-67zm263 91c0,2 0,4 -1,5 -1,0 -4,1 -10,1 -5,0 -12,0 -22,0l0 -139 -65 0 0 133c0,2 -1,4 -2,5 -1,0 -4,1 -9,1 -6,0 -13,0 -23,0l0 -281c0,-2 1,-4 2,-5 1,-1 4,-1 10,-1 5,0 12,0 22,0l0 117 65 0 0 -111c0,-2 1,-4 2,-5 1,-1 4,-1 9,-1 6,0 13,0 22,0l0 281zm454 -131c0,60 -1,102 -3,127 -15,10 -35,14 -59,14 -12,0 -21,-1 -29,-4 -9,-3 -15,-9 -20,-18 -5,-9 -8,-23 -8,-40 0,-26 5,-44 15,-53 10,-10 24,-15 40,-15 13,0 23,2 30,6l0 -33c0,-9 -2,-15 -6,-19 -4,-4 -10,-5 -19,-5 -21,0 -40,3 -55,9 -3,-6 -4,-12 -4,-19 0,-6 1,-9 4,-11 4,-3 12,-6 24,-8 12,-2 25,-3 39,-3 18,0 31,3 39,11 8,8 12,21 12,39l0 22zm-34 40c-5,-3 -11,-4 -19,-4 -10,0 -18,3 -23,9 -6,5 -8,17 -8,33 0,14 2,23 6,28 5,5 12,7 21,7 10,0 17,-2 22,-6 1,-10 1,-32 1,-67zm67 -98c9,-4 19,-8 31,-10 13,-3 24,-4 35,-4 21,0 36,4 44,12 9,8 13,23 13,43l0 148c0,2 0,4 -2,5 -1,0 -4,1 -10,1 -5,0 -13,0 -22,0l0 -144c0,-14 -2,-24 -5,-29 -3,-5 -10,-8 -20,-8 -11,0 -22,3 -31,8l0 167c0,2 0,4 -1,5 -1,0 -5,1 -10,1 -5,0 -13,0 -22,0l0 -195zm269 58c0,60 0,102 -2,127 -15,10 -35,14 -59,14 -12,0 -22,-1 -30,-4 -8,-3 -14,-9 -19,-18 -5,-9 -8,-23 -8,-40 0,-26 5,-44 15,-53 10,-10 23,-15 40,-15 13,0 23,2 30,6l0 -33c0,-9 -2,-15 -6,-19 -4,-4 -11,-5 -19,-5 -21,0 -40,3 -55,9 -3,-6 -5,-12 -5,-19 0,-6 2,-9 5,-11 4,-3 12,-6 24,-8 12,-2 25,-3 39,-3 18,0 30,3 38,11 8,8 12,21 12,39l0 22zm-33 40c-5,-3 -12,-4 -19,-4 -10,0 -18,3 -23,9 -6,5 -8,17 -8,33 0,14 2,23 6,28 5,5 12,7 21,7 10,0 17,-2 22,-6 1,-10 1,-32 1,-67zm66 75c0,-6 2,-11 6,-15 4,-4 9,-6 15,-6 15,0 22,8 22,24 0,9 -2,19 -6,28 -4,9 -9,17 -14,24 -5,6 -9,9 -12,9 -7,0 -11,-3 -13,-9 5,-7 7,-13 9,-18 2,-5 3,-11 3,-17 -6,-4 -10,-11 -10,-20zm216 -270c14,0 23,3 30,7 6,4 9,10 9,16 0,7 -2,14 -6,20 -8,-7 -17,-10 -26,-10 -11,0 -20,3 -27,10 -8,6 -14,18 -19,37 -5,18 -7,44 -7,79 0,26 2,47 5,62 3,15 8,25 14,30 6,6 13,9 22,9 8,0 15,-2 22,-4 7,-3 12,-6 16,-9 4,7 5,13 5,20 0,8 -5,15 -14,21 -10,5 -22,8 -37,8 -15,0 -27,-3 -37,-9 -9,-7 -17,-20 -23,-40 -5,-20 -8,-49 -8,-87 0,-43 4,-77 12,-100 8,-24 18,-40 29,-48 12,-8 25,-12 40,-12zm188 281c-18,10 -39,15 -62,15 -16,0 -28,-2 -37,-7 -9,-5 -15,-12 -18,-22 -4,-10 -6,-23 -6,-39l0 -135c0,-2 1,-4 2,-5 1,0 4,-1 10,-1 5,0 13,0 22,0l0 144c0,14 2,23 6,29 4,5 11,8 22,8 11,0 20,-3 28,-8l0 -167c0,-2 0,-4 1,-5 2,0 5,-1 10,-1 5,0 13,0 22,0l0 194zm38 -276c0,-5 1,-8 3,-11 1,-2 4,-3 8,-3 5,-1 12,-1 22,-1l0 107c13,-10 27,-14 44,-14 17,0 30,6 38,18 9,12 13,33 13,63 0,52 -8,88 -23,106 -15,17 -34,26 -57,26 -22,0 -38,-4 -48,-12l0 -279zm33 256c5,4 11,6 20,6 10,0 19,-7 26,-20 8,-14 12,-39 12,-76 0,-22 -3,-37 -7,-45 -5,-9 -12,-13 -22,-13 -12,0 -21,3 -29,11l0 137zm236 -106c0,60 -1,102 -2,127 -16,10 -35,14 -60,14 -11,0 -21,-1 -29,-4 -8,-3 -15,-9 -20,-18 -5,-9 -7,-23 -7,-40 0,-26 5,-44 15,-53 10,-10 23,-15 40,-15 13,0 23,2 30,6l0 -33c0,-9 -2,-15 -6,-19 -5,-4 -11,-5 -20,-5 -21,0 -39,3 -54,9 -3,-6 -5,-12 -5,-19 0,-6 2,-9 5,-11 4,-3 12,-6 23,-8 12,-2 25,-3 40,-3 17,0 30,3 38,11 8,8 12,21 12,39l0 22zm-33 40c-5,-3 -12,-4 -20,-4 -9,0 -17,3 -23,9 -5,5 -8,17 -8,33 0,14 2,23 7,28 5,5 11,7 21,7 9,0 17,-2 22,-6 0,-10 1,-32 1,-67zm66 75c0,-6 2,-11 6,-15 4,-4 9,-6 15,-6 15,0 22,8 22,24 0,9 -2,19 -6,28 -4,9 -9,17 -14,24 -5,6 -9,9 -12,9 -7,0 -12,-3 -13,-9 4,-7 7,-13 9,-18 1,-5 2,-11 3,-17 -7,-4 -10,-11 -10,-20zm130 22c-2,-3 -2,-6 -2,-10 0,-6 1,-10 2,-13 1,-3 4,-9 8,-16 10,-17 26,-37 47,-62 16,-19 28,-36 36,-48 7,-12 11,-25 11,-37 0,-19 -10,-29 -31,-29 -11,0 -22,2 -34,4 -11,3 -20,7 -27,11 -3,-7 -4,-15 -4,-25 0,-3 3,-6 10,-10 7,-3 16,-6 27,-8 11,-2 23,-3 36,-3 23,0 38,4 47,13 9,10 14,24 14,43 0,11 -3,23 -7,34 -5,11 -11,21 -18,31 -7,9 -17,22 -30,37 -19,22 -33,41 -43,57l55 0c9,0 19,0 29,-1 10,-1 17,-2 20,-2 0,13 -1,23 -1,27 -1,5 -3,7 -6,7l-139 0zm170 -121c0,-42 6,-73 18,-94 11,-21 30,-31 56,-31 26,0 45,9 57,28 11,19 17,48 17,87 0,46 -6,80 -17,102 -11,22 -31,33 -59,33 -27,0 -46,-10 -56,-31 -11,-20 -16,-51 -16,-94zm35 2c0,23 2,41 4,55 2,13 6,23 12,29 5,6 13,9 22,9 14,0 25,-8 31,-25 6,-17 9,-43 9,-81 0,-29 -3,-51 -8,-64 -6,-14 -15,-21 -29,-21 -15,0 -26,8 -32,24 -6,17 -9,41 -9,74zm190 -93c-14,1 -32,5 -46,8 -4,-5 -6,-16 -6,-25 0,-1 6,-4 16,-7 11,-3 23,-6 36,-8 12,-3 21,-4 26,-4 4,0 7,0 9,2 0,74 -1,150 0,223 0,4 2,20 -2,22 -1,1 -2,2 -5,2 -8,0 -23,-1 -28,-1l0 -212zm214 -35c0,3 0,8 0,12 0,6 0,13 -2,16 -32,66 -49,134 -49,207 0,14 -8,12 -21,12 -6,0 -8,0 -14,0 1,-78 14,-142 45,-214 -20,1 -53,1 -95,1 -6,0 -7,-14 -7,-34l143 0zm-2339 -438c0,51 -19,92 -57,121 -38,29 -86,44 -145,44 -46,0 -91,-13 -134,-38 -22,-14 -40,-32 -53,-57 -14,-24 -21,-52 -21,-83l97 -4c0,27 11,49 35,64 23,15 49,23 78,23 64,0 96,-22 96,-67 0,-37 -22,-59 -65,-66l-89 -9c-45,-6 -80,-22 -106,-47 -26,-25 -39,-61 -39,-108 0,-47 19,-86 56,-117 37,-30 84,-46 141,-46 57,0 103,15 138,44 35,28 52,66 52,111l-95 5c-9,-45 -39,-67 -90,-67 -31,0 -55,7 -73,20 -18,13 -26,29 -26,47 0,18 6,32 19,43 13,10 28,17 47,19l88 10c97,13 146,66 146,158zm313 0l91 0c-1,4 -1,11 -2,22 0,11 -1,18 -1,22 0,3 -1,9 -2,18 -1,8 -2,14 -3,18 -2,3 -3,8 -5,15 -10,26 -35,47 -75,62 -26,10 -54,14 -82,14 -28,0 -54,-4 -77,-14 -23,-9 -41,-21 -55,-35 -30,-32 -45,-91 -45,-178 0,-87 15,-146 45,-178 14,-14 32,-26 55,-35 23,-10 48,-14 77,-14 55,0 97,14 125,41 29,28 43,66 43,115l-90 0c0,-22 -6,-39 -17,-50 -11,-11 -32,-17 -63,-17 -30,0 -50,10 -60,29 -10,19 -15,47 -15,85l0 40c0,60 12,98 35,112 11,6 25,10 42,10 18,0 32,-2 43,-5 11,-4 19,-10 24,-18 4,-8 8,-16 9,-24 2,-8 3,-19 3,-35zm225 -444c24,0 39,4 46,11 8,7 11,23 11,47 0,23 -4,39 -11,46 -7,8 -23,12 -47,12 -23,0 -39,-4 -46,-12 -8,-8 -12,-23 -12,-47 0,-23 4,-39 12,-46 7,-7 23,-11 47,-11zm49 604l-100 0 0 -421 100 0 0 421zm1227 0l-120 0c-108,0 -131,-30 -131,-133l0 -412 107 0 0 394c0,32 11,56 46,56l128 0 -30 95zm354 -183l-58 -216 -62 216 120 0zm-3102 685c-116,132 -271,227 -443,267 -18,5 -6,-2 2,-8 39,-28 82,-67 116,-100 40,-39 78,-79 115,-120 93,-106 179,-223 221,-312 12,-26 21,-48 21,-69 0,-22 -8,-42 -29,-65 -15,-16 -51,-44 -91,-75 -19,-16 -39,-31 -57,-46 -17,-14 -32,-28 -44,-41l0 0c-11,-13 -19,-25 -21,-36 -1,-2 -1,-5 -1,-8 1,-3 2,-6 4,-8 2,-2 4,-4 8,-5 2,0 5,0 8,0 44,4 126,73 182,121 15,12 28,23 38,31l0 0c19,14 38,23 58,25l0 0c19,1 38,-4 57,-17 23,-16 44,-57 58,-81 6,-8 5,-1 5,5 -1,91 -19,188 -49,273 -36,99 -89,189 -158,269zm-1273 -1107c116,-133 272,-228 445,-268 16,-4 8,0 0,6 -42,30 -88,74 -125,111 -22,21 -43,43 -63,65 -70,76 -140,162 -197,241l-15 22 0 0c-3,5 -7,11 -11,16 -8,13 -16,25 -23,36l0 0c-5,7 -6,9 -8,12 -21,34 -55,87 -64,126 -3,15 -3,29 1,43 4,14 13,28 26,43 15,16 51,44 90,75 20,15 40,31 58,45 17,14 32,28 44,42l0 0c11,13 19,25 21,35 1,3 1,6 1,8 -1,4 -2,7 -4,9 -2,2 -4,4 -8,4 -2,1 -5,1 -8,1 -44,-5 -126,-74 -182,-121 -15,-12 -28,-24 -38,-31l0 -1c-19,-14 -38,-23 -58,-24l0 0c-19,-1 -38,4 -57,17 -15,10 -19,18 -29,31 -3,3 -3,3 -3,-3 0,-13 1,-32 2,-45 13,-182 84,-355 204,-493l1 -2zm200 242c-1,1 -1,3 -2,4l2 -4zm229 422l1 0 -1 0zm92 11c4,0 8,1 11,1 -3,0 -7,-1 -11,-1zm544 -572c-14,0 -25,-11 -25,-24 -1,-14 10,-25 23,-25 14,-1 25,10 25,23 1,14 -10,25 -23,26z"/>
  </g>
 </g>
</svg>
