<?xml version="1.0" encoding="UTF-8"?>
<!DOCTYPE svg PUBLIC "-//W3C//DTD SVG 1.1//EN" "http://www.w3.org/Graphics/SVG/1.1/DTD/svg11.dtd">
<!-- Creator: CorelDRAW X7 -->
<svg xmlns="http://www.w3.org/2000/svg" xml:space="preserve" width="4.2332mm" height="4.2332mm" version="1.1" style="shape-rendering:geometricPrecision; text-rendering:geometricPrecision; image-rendering:optimizeQuality; fill-rule:evenodd; clip-rule:evenodd"
viewBox="0 0 423 423"
 xmlns:xlink="http://www.w3.org/1999/xlink">
 <defs>
  <style type="text/css">
   <![CDATA[
    .fil0 {fill:black}
   ]]>
  </style>
 </defs>
 <g id="Capa_x0020_1">
  <metadata id="CorelCorpID_0Corel-Layer"/>
  <path class="fil0" d="M299 202l-39 39c-21,21 -56,21 -77,0 -4,-4 -6,-7 -9,-11l18 -18c1,-1 2,-2 3,-2 1,4 4,8 7,11 11,11 28,11 39,0l39 -38c10,-11 10,-29 0,-39 -11,-11 -29,-11 -39,0l-14 14c-11,-5 -23,-6 -35,-4l29 -30c22,-21 57,-21 78,0 21,22 21,57 0,78zm-103 64l-13 14c-11,10 -29,10 -39,0 -11,-11 -11,-29 0,-39l39 -39c10,-11 28,-11 38,0 4,3 6,7 7,12 1,-1 2,-1 3,-2l18 -18c-2,-4 -5,-8 -8,-11 -22,-22 -56,-22 -78,0l-39 38c-21,22 -21,57 0,78 22,21 57,21 78,0l29 -29c-11,1 -23,0 -35,-4z"/>
 </g>
</svg>
