<?xml version="1.0" encoding="UTF-8"?>
<!DOCTYPE svg PUBLIC "-//W3C//DTD SVG 1.1//EN" "http://www.w3.org/Graphics/SVG/1.1/DTD/svg11.dtd">
<!-- Creator: CorelDRAW X7 -->
<svg xmlns="http://www.w3.org/2000/svg" xml:space="preserve" width="4.2332mm" height="4.2332mm" version="1.1" style="shape-rendering:geometricPrecision; text-rendering:geometricPrecision; image-rendering:optimizeQuality; fill-rule:evenodd; clip-rule:evenodd"
viewBox="0 0 423 423"
 xmlns:xlink="http://www.w3.org/1999/xlink">
 <defs>
  <style type="text/css">
   <![CDATA[
    .fil0 {fill:black}
   ]]>
  </style>
 </defs>
 <g id="Capa_x0020_1">
  <metadata id="CorelCorpID_0Corel-Layer"/>
  <path class="fil0" d="M79 370l47 0c1,5 4,10 9,10l107 0c5,0 8,-5 9,-10 15,0 31,0 46,0 7,0 12,-5 14,-12 3,-8 -3,-8 -9,-8 -25,1 -50,0 -75,0 -48,0 -97,0 -145,0 -4,0 -15,-1 -16,2 -3,3 1,10 3,13 3,3 6,4 10,5zm129 -254c-12,-22 -25,-37 -8,-59 8,-10 15,-19 -5,-9 -37,18 -53,40 -28,75 10,14 18,30 5,42 -4,3 18,-5 19,-5 20,-9 27,-26 17,-44zm165 93c-12,-8 -21,-9 -35,-9 -2,0 -3,0 -5,0 -2,-7 3,-21 -3,-23 -2,-1 -8,-1 -10,0 -16,0 -32,0 -48,0 -72,0 -143,0 -215,0 -4,0 -14,-1 -17,1 -4,2 -2,15 -2,19 2,62 14,114 80,136 11,4 20,3 31,3 30,0 59,0 88,0 9,0 12,-1 20,-4 19,-7 34,-17 47,-33 5,-6 6,-5 13,-6 29,-2 67,-16 69,-50l0 -1c0,-18 -7,-27 -13,-33zm-53 62c7,-16 8,-26 10,-43 1,-5 1,-5 7,-6 3,0 7,0 10,0 5,1 8,2 12,4 1,1 5,5 5,15 -1,21 -27,28 -44,30z"/>
 </g>
</svg>
