<?xml version="1.0" encoding="UTF-8"?>
<!DOCTYPE svg PUBLIC "-//W3C//DTD SVG 1.1//EN" "http://www.w3.org/Graphics/SVG/1.1/DTD/svg11.dtd">
<!-- Creator: CorelDRAW X7 -->
<svg xmlns="http://www.w3.org/2000/svg" xml:space="preserve" width="4.2332mm" height="4.2332mm" version="1.1" style="shape-rendering:geometricPrecision; text-rendering:geometricPrecision; image-rendering:optimizeQuality; fill-rule:evenodd; clip-rule:evenodd"
viewBox="0 0 423 423"
 xmlns:xlink="http://www.w3.org/1999/xlink">
 <defs>
  <style type="text/css">
   <![CDATA[
    .fil0 {fill:black}
   ]]>
  </style>
 </defs>
 <g id="Capa_x0020_1">
  <metadata id="CorelCorpID_0Corel-Layer"/>
  <path class="fil0" d="M227 296c46,0 83,-37 83,-83 0,-45 -37,-82 -83,-82 -45,0 -82,37 -82,82 0,46 37,83 82,83zm-188 -113l17 8c2,1 4,2 6,2l-6 147c0,5 11,8 16,8 5,0 16,-3 16,-8l-6 -147c2,-1 4,-2 6,-3l13 -8c9,-5 16,-17 16,-28l0 -66c0,-5 -5,-10 -10,-10 -6,0 -10,5 -10,10l0 60 -5 0 0 -60c0,-5 -5,-10 -10,-10 -6,0 -10,5 -10,10l0 60 -5 0 0 -60c0,-5 -5,-10 -10,-10 -6,0 -10,5 -10,10l0 60 -5 0 0 -58c0,-5 -5,-9 -10,-9 -6,0 -10,4 -10,9l0 65c0,11 7,23 17,28zm362 153l-6 -251c0,-6 -5,-10 -10,-10 -1,0 -3,0 -4,1l0 0c0,0 0,0 -1,0 -1,1 -1,1 -2,2 -7,6 -30,30 -32,62 -3,50 21,70 29,88l-6 108c0,5 11,9 16,9 5,0 16,-4 16,-9zm-174 -11c62,0 112,-50 112,-112 0,-61 -50,-111 -112,-111 -61,0 -111,50 -111,111 0,62 50,112 111,112zm0 -206c53,0 95,42 95,94 0,53 -42,95 -95,95 -52,0 -94,-42 -94,-95 0,-52 42,-94 94,-94z"/>
 </g>
</svg>
