<?xml version="1.0" encoding="UTF-8"?>
<!DOCTYPE svg PUBLIC "-//W3C//DTD SVG 1.1//EN" "http://www.w3.org/Graphics/SVG/1.1/DTD/svg11.dtd">
<!-- Creator: CorelDRAW X7 -->
<svg xmlns="http://www.w3.org/2000/svg" xml:space="preserve" width="4.2332mm" height="4.2332mm" version="1.1" style="shape-rendering:geometricPrecision; text-rendering:geometricPrecision; image-rendering:optimizeQuality; fill-rule:evenodd; clip-rule:evenodd"
viewBox="0 0 423 423"
 xmlns:xlink="http://www.w3.org/1999/xlink">
 <defs>
  <style type="text/css">
   <![CDATA[
    .fil0 {fill:black}
   ]]>
  </style>
 </defs>
 <g id="Capa_x0020_1">
  <metadata id="CorelCorpID_0Corel-Layer"/>
  <path class="fil0" d="M297 319c5,7 18,21 20,30 1,5 -2,5 -7,6 -16,2 -33,-1 -49,-6 -7,-2 -4,-4 0,-8 7,-11 9,-25 7,-37 -1,-3 -2,-6 -3,-10 -3,-9 0,-5 5,0 10,8 19,15 27,25zm26 -272l4 0c9,0 17,4 22,10 3,3 4,5 6,9 4,10 3,23 -3,31 -3,4 -8,9 -14,10 3,4 6,6 8,10 20,26 11,58 1,85 -8,22 -29,62 -23,84 3,10 21,32 21,51 0,13 -4,19 -12,29 -6,7 -15,10 -27,11l-8 0c-20,-1 -43,-7 -61,-14 -5,-2 -8,0 -13,1 -8,0 -15,0 -23,-3 -3,-1 -5,-2 -8,-3 -4,-3 -10,-7 -13,-11 -10,-13 -6,-14 -15,-19 -14,-8 -35,-23 -47,-33l-13 -11c-2,-2 -3,-4 -5,-6l-12 -12c-9,-11 -23,-30 -22,-46 0,-4 3,-14 5,-17 16,-31 71,-13 93,-35 10,-10 27,-37 40,-52 1,-1 2,-2 3,-3 1,-1 1,-2 2,-3 7,-8 17,-16 26,-21 9,-5 22,-10 36,-10 12,0 18,3 23,3l0 -4c0,-5 1,-9 3,-13 4,-8 7,-11 15,-15 3,-2 7,-3 11,-3zm-180 241c-7,-5 -11,-9 -17,-14 -8,-6 -24,-23 -30,-31 -3,-5 -9,-13 -10,-19 0,-6 8,-6 12,-6 14,0 12,0 26,2 28,5 71,24 95,38 10,7 1,4 -6,5 -22,2 -37,15 -44,36 -1,5 -1,7 -6,3 -7,-4 -14,-9 -20,-14z"/>
 </g>
</svg>
