<?xml version="1.0" encoding="UTF-8"?>
<!DOCTYPE svg PUBLIC "-//W3C//DTD SVG 1.1//EN" "http://www.w3.org/Graphics/SVG/1.1/DTD/svg11.dtd">
<!-- Creator: CorelDRAW X7 -->
<svg xmlns="http://www.w3.org/2000/svg" xml:space="preserve" width="4.2332mm" height="4.2332mm" version="1.1" style="shape-rendering:geometricPrecision; text-rendering:geometricPrecision; image-rendering:optimizeQuality; fill-rule:evenodd; clip-rule:evenodd"
viewBox="0 0 423 423"
 xmlns:xlink="http://www.w3.org/1999/xlink">
 <defs>
  <style type="text/css">
   <![CDATA[
    .fil0 {fill:black}
   ]]>
  </style>
 </defs>
 <g id="Capa_x0020_1">
  <metadata id="CorelCorpID_0Corel-Layer"/>
  <path class="fil0" d="M212 105l-86 -31c-2,0 -3,0 -4,1l-2 3 0 0 0 0c-35,44 -91,140 -18,179l-28 76c-1,0 -2,1 -3,1 -9,-3 -19,-5 -27,-6 -8,0 -15,0 -19,0 -2,0 -7,0 -9,5l0 0 -1 3c-1,2 0,3 2,4l0 0 113 41c2,0 4,-1 5,-2l0 -1 1 -2 0 0 0 0c0,-2 2,-7 -4,-13 -5,-5 -16,-12 -37,-21 0,0 0,0 0,-1l28 -77c52,11 77,-35 89,-76 11,41 37,87 88,76l28 77c0,1 0,1 0,1 -21,9 -31,16 -36,21 -6,6 -5,11 -5,13l0 0 0 0 1 2 0 1c1,1 3,2 5,2l113 -41 0 0c2,-1 3,-2 2,-4l-1 -3 0 0c-2,-5 -7,-5 -9,-5 -3,0 -10,0 -19,0 -8,1 -18,3 -27,6 -1,0 -2,-1 -2,-1l-29 -76c74,-39 18,-135 -17,-179l0 0 0 0 -3 -3c0,-1 -2,-1 -4,-1l-85 31zm28 -18c-2,2 -4,2 -6,2 -2,0 -4,-1 -5,-3 -3,-4 -2,-8 1,-11l21 -16c4,-2 9,-2 11,2 3,3 2,8 -1,11l-21 15zm-28 -3c0,0 1,0 2,0 3,-1 6,-4 6,-8l0 -26c0,-4 -4,-7 -8,-7 -1,0 -1,0 -1,0l-2 0c-3,1 -5,4 -5,7l0 26c0,5 3,8 8,8zm-28 3c2,2 4,2 6,2 2,0 4,-1 5,-3 3,-4 2,-8 -1,-11l-21 -16c-4,-2 -8,-2 -11,2 -3,3 -2,8 1,11l21 15zm37 55c18,30 55,-5 103,9 -7,-26 -27,-51 -32,-57l-71 26c0,1 0,4 0,6 0,5 -1,9 0,16zm-19 0c-17,30 -55,-5 -103,9 8,-26 27,-51 32,-57l71 26c0,1 1,4 1,6 -1,5 0,9 -1,16z"/>
 </g>
</svg>
