<?xml version="1.0" encoding="UTF-8"?>
<!DOCTYPE svg PUBLIC "-//W3C//DTD SVG 1.1//EN" "http://www.w3.org/Graphics/SVG/1.1/DTD/svg11.dtd">
<!-- Creator: CorelDRAW X7 -->
<svg xmlns="http://www.w3.org/2000/svg" xml:space="preserve" width="4.2332mm" height="4.2332mm" version="1.1" style="shape-rendering:geometricPrecision; text-rendering:geometricPrecision; image-rendering:optimizeQuality; fill-rule:evenodd; clip-rule:evenodd"
viewBox="0 0 423 423"
 xmlns:xlink="http://www.w3.org/1999/xlink">
 <defs>
  <style type="text/css">
   <![CDATA[
    .fil0 {fill:black}
   ]]>
  </style>
 </defs>
 <g id="Capa_x0020_1">
  <metadata id="CorelCorpID_0Corel-Layer"/>
  <g id="_495243233728">
   <path class="fil0" d="M207 251l-2 115c0,11 -9,20 -21,20l0 0c-12,0 -21,-9 -21,-20 0,-63 -1,-126 0,-189 0,-18 -2,-20 -16,-31l-70 -53 -2 -1c-7,-7 -7,-19 1,-26l0 0c7,-7 19,-5 27,1l62 43c17,11 33,16 47,16 14,0 29,-5 46,-16l62 -43c9,-6 20,-8 28,-1l0 0c7,7 8,19 0,26l-1 1 -70 53c-15,11 -17,13 -17,31 1,72 9,118 21,189 2,11 -10,20 -21,20l0 0c-12,0 -20,-9 -21,-20l-21 -115 -11 0z"/>
   <path class="fil0" d="M212 113l1 0c21,0 38,-17 38,-38 0,-21 -17,-38 -38,-38l-1 0 -2 0c-21,0 -38,17 -38,38 0,21 17,38 38,38l2 0z"/>
  </g>
 </g>
</svg>
