<?xml version="1.0" encoding="UTF-8"?>
<!DOCTYPE svg PUBLIC "-//W3C//DTD SVG 1.1//EN" "http://www.w3.org/Graphics/SVG/1.1/DTD/svg11.dtd">
<!-- Creator: CorelDRAW X7 -->
<svg xmlns="http://www.w3.org/2000/svg" xml:space="preserve" width="4.2332mm" height="4.2332mm" version="1.1" style="shape-rendering:geometricPrecision; text-rendering:geometricPrecision; image-rendering:optimizeQuality; fill-rule:evenodd; clip-rule:evenodd"
viewBox="0 0 423 423"
 xmlns:xlink="http://www.w3.org/1999/xlink">
 <defs>
  <style type="text/css">
   <![CDATA[
    .fil0 {fill:black}
   ]]>
  </style>
 </defs>
 <g id="Capa_x0020_1">
  <metadata id="CorelCorpID_0Corel-Layer"/>
  <path class="fil0" d="M165 189c0,33 26,59 59,59 13,0 25,-5 35,-12 -20,-7 -35,-26 -35,-48 0,-21 14,-40 33,-47 -10,-7 -21,-10 -33,-10 -33,0 -59,26 -59,58zm172 80l0 -147c0,-10 -13,-12 -14,-12l-216 0c-2,0 -14,2 -14,12l0 0 1 147 243 0zm-312 60c0,15 17,15 17,15l339 0c0,0 17,0 17,-15 0,-4 -1,-6 -2,-8l0 0c-1,-2 -2,-3 -3,-4l-26 -46 0 -155c0,-37 -37,-37 -37,-37l-231 0c-1,0 -38,0 -38,37l0 155 -31 47c-3,2 -5,5 -5,11zm149 -17l0 0 0 0 0 0 1 0 0 -1 0 0 0 0 0 0 0 0 0 0 0 0 0 -1 0 0 0 0 1 0 0 0 0 0 0 0 0 0 0 0 0 0 0 -1 0 0 0 0 0 0 0 0 0 0 1 0 0 -1 0 0 0 0 0 0 0 0 1 0 0 0c0,-1 0,-1 0,-1l0 0 0 0 1 0 0 0 0 0 0 0 0 0c0,-1 1,-1 1,-1l0 0 1 0 0 0 1 0 0 0 0 0 0 0 1 0 0 0 1 0 0 0 0 0 1 0 0 0 0 0 1 0 0 0 1 0 0 0 0 0 1 0 0 0 0 0 1 0 0 0 1 0 0 0 1 0 0 0 0 0 1 0 0 0 0 0 1 0 0 0 0 0 1 0 0 0 1 0 0 0 0 0 1 0 0 0 0 0 1 0 0 0 0 0 1 0 1 0 3 0 8 0 1 0 7 0 3 0 2 0 0 0 0 0 1 0 0 0 1 0 0 0 0 0 1 0 0 0 0 0 0 0 1 0 0 0 0 0 1 0 1 0 0 0 0 0 1 0 0 0 0 0 1 0 0 0 0 0 0 0 1 0 0 0 1 0 0 0 0 0 1 0 0 0 1 0c1,0 2,0 2,0l1 0 0 0 0 0 1 0 0 0c1,0 2,0 2,1l0 0 1 0 0 0 0 0 0 0 0 0c0,0 1,0 1,1l0 0 0 0 0 0 0 0 0 0 0 0 1 1 0 0 0 0 0 0 0 0 0 0 0 0 1 1 0 0 0 0 0 0 0 0 0 0 0 0 0 0 0 0 0 0 0 1 0 0 0 0 0 0 0 0 1 0 0 0 0 1 0 0 0 0 0 0 0 0c1,2 2,3 3,5 4,5 5,9 -4,10l0 0 0 0 0 0 0 0 0 0 -1 0 0 0 0 0 0 0 0 0 0 0 0 0 0 0 0 0 0 0 0 0 -1 0 0 0 0 0 0 0 -1 0 0 0 0 0 0 0 0 0 0 0 -1 0 0 0 0 0 -1 0 -1 0 -1 0 -1 0 -2 0 -1 0 -1 0 0 0 -1 0 -1 0 0 0 -1 0 0 0 -1 0 -1 0 0 0 -2 0 -3 0 -2 0 -1 0 -2 0 -1 0 -1 0 -1 0 -1 0 -1 0 -1 0 -1 0 -1 0 -2 0 0 0 -2 0 -1 0 -1 0 -1 0 -1 0 -1 0 -1 0 -3 0 -3 0 -1 0 -1 0 -1 0 -1 0 0 0 -1 0 0 0 0 0 -1 0 -1 0 0 0 -1 0 -2 0 -1 0 -1 0 0 0 -1 0 0 0 0 0 -2 0 -1 0 0 0 -1 0 0 0 -1 0 0 0 -1 0 0 0 0 0c-1,0 -1,0 -1,0l-1 0 0 0 0 0c-1,0 -1,-1 -2,-1l0 0 0 0 0 0c0,0 0,0 -1,0l0 0 0 0 0 0 0 -1 0 0 -1 0 0 0 0 0 0 0 0 0 0 0 0 0 0 0 0 0 0 0 0 -1 0 0 0 0 0 0 0 0 0 0 0 0 0 -1 0 0 0 0 0 0 0 -1c0,0 0,0 0,0l0 -1 0 0 0 0 0 0c1,-1 1,-3 2,-4 1,-2 2,-3 3,-5z"/>
 </g>
</svg>
