<?xml version="1.0" encoding="UTF-8"?>
<!DOCTYPE svg PUBLIC "-//W3C//DTD SVG 1.1//EN" "http://www.w3.org/Graphics/SVG/1.1/DTD/svg11.dtd">
<!-- Creator: CorelDRAW X7 -->
<svg xmlns="http://www.w3.org/2000/svg" xml:space="preserve" width="4.2332mm" height="4.2332mm" version="1.1" style="shape-rendering:geometricPrecision; text-rendering:geometricPrecision; image-rendering:optimizeQuality; fill-rule:evenodd; clip-rule:evenodd"
viewBox="0 0 423 423"
 xmlns:xlink="http://www.w3.org/1999/xlink">
 <defs>
  <style type="text/css">
   <![CDATA[
    .fil0 {fill:black}
   ]]>
  </style>
 </defs>
 <g id="Capa_x0020_1">
  <metadata id="CorelCorpID_0Corel-Layer"/>
  <path class="fil0" d="M101 82l222 0c24,0 45,21 45,45l0 169c0,25 -21,45 -45,45l-222 0c-25,0 -45,-20 -45,-45l0 -169c0,-24 20,-45 45,-45zm-7 187l0 -116 34 0c12,0 22,3 28,8 7,5 10,13 10,24 0,5 -1,10 -3,15 -3,4 -6,7 -11,9 6,2 10,5 13,9 3,5 5,11 5,17 0,11 -4,20 -10,25 -6,6 -15,9 -27,9l-39 0zm23 -51l0 33 16 0c5,0 8,-1 10,-4 3,-3 4,-7 4,-12 0,-5 -1,-10 -3,-13 -2,-3 -5,-4 -10,-4l-17 0zm0 -16l12 0c5,0 8,-1 11,-4 2,-3 4,-6 4,-11 0,-6 -2,-9 -4,-12 -3,-3 -7,-4 -12,-4l-11 0 0 31zm64 18c0,-11 3,-21 9,-28 7,-7 15,-11 26,-11 11,0 20,4 26,11 6,7 9,17 9,28l0 11c0,12 -3,21 -9,29 -6,7 -15,10 -26,10 -11,0 -19,-3 -26,-10 -6,-8 -9,-17 -9,-29l0 -11zm23 11c0,7 1,12 3,16 1,4 5,5 9,5 5,0 8,-2 10,-5 2,-4 3,-9 3,-16l0 -11c0,-6 -1,-11 -3,-15 -2,-4 -5,-6 -10,-6 -4,0 -7,2 -9,6 -2,4 -3,9 -3,15l0 11zm120 -10l-34 0 0 48 -23 0 0 -116 64 0 0 18 -41 0 0 32 34 0 0 18z"/>
 </g>
</svg>
