<?xml version="1.0" encoding="UTF-8"?>
<!DOCTYPE svg PUBLIC "-//W3C//DTD SVG 1.1//EN" "http://www.w3.org/Graphics/SVG/1.1/DTD/svg11.dtd">
<!-- Creator: CorelDRAW X7 -->
<svg xmlns="http://www.w3.org/2000/svg" xml:space="preserve" width="4.2332mm" height="4.2332mm" version="1.1" style="shape-rendering:geometricPrecision; text-rendering:geometricPrecision; image-rendering:optimizeQuality; fill-rule:evenodd; clip-rule:evenodd"
viewBox="0 0 423 423"
 xmlns:xlink="http://www.w3.org/1999/xlink">
 <defs>
  <style type="text/css">
   <![CDATA[
    .fil0 {fill:black}
   ]]>
  </style>
 </defs>
 <g id="Capa_x0020_1">
  <metadata id="CorelCorpID_0Corel-Layer"/>
  <path class="fil0" d="M348 257c10,-26 12,-54 5,-82 -2,-11 -6,-17 -9,-26 -4,-9 -17,-28 -25,-36 -8,-8 -13,-13 -23,-20 -22,-14 -49,-26 -78,-26 -26,0 -46,3 -68,13 -4,2 -8,4 -11,6 -25,14 -46,36 -59,62 -7,13 -14,35 -14,54 0,27 3,44 14,66 30,60 100,93 166,76 39,-10 19,-15 66,2 7,3 15,6 23,9 12,4 9,-2 7,-11 -2,-7 -4,-14 -6,-20 -1,-4 -2,-9 -3,-13 -8,-31 -1,-14 15,-54zm-218 -65c-5,4 -9,13 -8,19 1,5 2,10 7,14 20,18 48,-8 32,-29l-3 -3c-2,-1 -4,-3 -6,-4 -2,-1 -7,-2 -10,-2 -5,1 -8,2 -12,5zm131 18c1,4 2,7 5,11 4,6 12,10 18,9 9,-1 16,-6 19,-14 3,-5 2,-13 0,-18l-4 -5c-6,-7 -17,-9 -26,-4l-3 2c-6,4 -10,13 -9,19zm-68 -10c0,1 -2,8 -1,10l0 4c2,6 8,12 13,14 9,4 18,1 24,-5 19,-20 -9,-50 -30,-31l-2 1c-1,2 -3,5 -4,7z"/>
 </g>
</svg>
