<?xml version="1.0" encoding="UTF-8"?>
<!DOCTYPE svg PUBLIC "-//W3C//DTD SVG 1.1//EN" "http://www.w3.org/Graphics/SVG/1.1/DTD/svg11.dtd">
<!-- Creator: CorelDRAW X7 -->
<svg xmlns="http://www.w3.org/2000/svg" xml:space="preserve" width="4.2332mm" height="4.2332mm" version="1.1" style="shape-rendering:geometricPrecision; text-rendering:geometricPrecision; image-rendering:optimizeQuality; fill-rule:evenodd; clip-rule:evenodd"
viewBox="0 0 423 423"
 xmlns:xlink="http://www.w3.org/1999/xlink">
 <defs>
  <style type="text/css">
   <![CDATA[
    .fil0 {fill:black}
   ]]>
  </style>
 </defs>
 <g id="Capa_x0020_1">
  <metadata id="CorelCorpID_0Corel-Layer"/>
  <path class="fil0" d="M348 257c10,-26 12,-54 5,-82 -2,-11 -6,-17 -9,-26 -4,-9 -17,-28 -25,-36 -8,-8 -13,-13 -23,-20 -22,-14 -49,-26 -78,-26 -26,0 -46,3 -68,13 -4,2 -8,4 -11,6 -25,14 -46,36 -59,62 -7,13 -14,35 -14,54 0,27 3,44 14,66 30,60 100,93 166,76 39,-10 20,-15 66,2 7,3 15,6 23,9 12,4 9,-2 7,-11 -2,-7 -4,-14 -6,-20 -1,-4 -2,-9 -3,-13 -8,-31 -1,-14 15,-54zm-80 -68c9,0 13,3 4,11l-99 91c-11,11 -16,13 -8,-4l27 -59 -20 0c-14,0 -21,2 -16,-14l7 -23c6,-19 12,-39 17,-59 3,-8 3,-10 12,-9l4 0c16,0 32,0 49,0 10,-1 16,-2 9,9 -7,12 -15,23 -22,34l-14 23c17,0 33,0 50,0z"/>
 </g>
</svg>
