<?xml version="1.0" encoding="UTF-8"?>
<!DOCTYPE svg PUBLIC "-//W3C//DTD SVG 1.1//EN" "http://www.w3.org/Graphics/SVG/1.1/DTD/svg11.dtd">
<!-- Creator: CorelDRAW X7 -->
<svg xmlns="http://www.w3.org/2000/svg" xml:space="preserve" width="4.2332mm" height="4.2332mm" version="1.1" style="shape-rendering:geometricPrecision; text-rendering:geometricPrecision; image-rendering:optimizeQuality; fill-rule:evenodd; clip-rule:evenodd"
viewBox="0 0 423 423"
 xmlns:xlink="http://www.w3.org/1999/xlink">
 <defs>
  <style type="text/css">
   <![CDATA[
    .fil0 {fill:black}
   ]]>
  </style>
 </defs>
 <g id="Capa_x0020_1">
  <metadata id="CorelCorpID_0Corel-Layer"/>
  <path class="fil0" d="M212 275c-58,0 -105,-47 -105,-105 0,-59 47,-106 105,-106 58,0 105,47 105,106 0,58 -47,105 -105,105zm116 -48c8,-17 13,-36 13,-56 0,-71 -58,-128 -129,-128 -72,0 -130,57 -130,128 0,20 5,39 14,56l-53 89c0,0 34,7 67,14 23,25 45,50 45,50l48 -82c3,0 6,0 9,0 2,0 5,0 8,0l48 82c0,0 22,-25 45,-50 34,-7 67,-14 67,-14l-52 -89zm-116 -131c-41,0 -74,33 -74,74 0,40 33,73 74,73 40,0 73,-33 73,-73 0,-41 -33,-74 -73,-74z"/>
 </g>
</svg>
