<?xml version="1.0" encoding="UTF-8"?>
<!DOCTYPE svg PUBLIC "-//W3C//DTD SVG 1.1//EN" "http://www.w3.org/Graphics/SVG/1.1/DTD/svg11.dtd">
<!-- Creator: CorelDRAW X7 -->
<svg xmlns="http://www.w3.org/2000/svg" xml:space="preserve" width="4.2332mm" height="4.2332mm" version="1.1" style="shape-rendering:geometricPrecision; text-rendering:geometricPrecision; image-rendering:optimizeQuality; fill-rule:evenodd; clip-rule:evenodd"
viewBox="0 0 423 423"
 xmlns:xlink="http://www.w3.org/1999/xlink">
 <defs>
  <style type="text/css">
   <![CDATA[
    .fil0 {fill:black}
   ]]>
  </style>
 </defs>
 <g id="Capa_x0020_1">
  <metadata id="CorelCorpID_0Corel-Layer"/>
  <path class="fil0" d="M216 96c0,17 -2,24 4,24l181 0c6,0 4,-7 4,-24 0,-5 -1,-6 -4,-6l-181 0c-3,0 -4,1 -4,6zm47 47c0,17 -2,24 5,24l133 0c6,0 4,-7 4,-24 0,-4 -1,-6 -4,-6l-133 0c-4,0 -5,2 -5,6zm-245 111c0,30 0,60 0,90 0,12 4,10 15,10 20,-1 42,0 63,0 7,0 14,0 22,0 19,0 37,0 56,0 12,0 11,-4 10,-15 -1,-15 0,-30 0,-44 0,-7 0,-13 0,-20 11,13 26,55 44,55l77 0c4,0 7,-2 10,-4 16,-9 8,-17 16,-25l64 -90c14,-20 1,-21 -11,-8l-65 72c-6,6 -8,9 -15,8 -18,-2 -39,0 -58,0 -16,-31 -30,-72 -65,-72 -22,0 -19,0 -32,19 -6,8 -12,17 -17,26 -8,11 -10,8 -16,-3 -6,-9 -13,-18 -19,-28l-1 -1c-10,-16 -6,-13 -35,-13 -11,0 -23,6 -30,14 -8,8 -13,17 -13,29zm47 -130l0 9c0,27 28,55 55,55l9 0c27,0 55,-28 55,-55l0 -9c0,-27 -28,-55 -55,-55l-9 0c-27,0 -55,28 -55,55z"/>
 </g>
</svg>
