<?xml version="1.0" encoding="UTF-8"?>
<!DOCTYPE svg PUBLIC "-//W3C//DTD SVG 1.1//EN" "http://www.w3.org/Graphics/SVG/1.1/DTD/svg11.dtd">
<!-- Creator: CorelDRAW X7 -->
<svg xmlns="http://www.w3.org/2000/svg" xml:space="preserve" width="4.2332mm" height="4.2332mm" version="1.1" style="shape-rendering:geometricPrecision; text-rendering:geometricPrecision; image-rendering:optimizeQuality; fill-rule:evenodd; clip-rule:evenodd"
viewBox="0 0 423 423"
 xmlns:xlink="http://www.w3.org/1999/xlink">
 <defs>
  <style type="text/css">
   <![CDATA[
    .fil0 {fill:black}
   ]]>
  </style>
 </defs>
 <g id="Capa_x0020_1">
  <metadata id="CorelCorpID_0Corel-Layer"/>
  <path class="fil0" d="M104 70c-6,0 -9,3 -9,8 0,25 0,51 0,75 0,12 2,46 0,53 0,1 0,-1 0,1l1 19c0,15 -1,77 0,85 0,8 7,6 15,6l11 0 0 1 2 0 27 0 -8 44 0 0c0,5 -1,9 -2,13l0 0 -1 3 0 0c0,5 -1,7 0,10 2,9 15,11 20,4 2,-3 4,-8 5,-14 1,-3 1,-6 2,-8 1,-6 2,-6 2,-12l100 0 5 25 0 0c2,6 5,10 9,12 2,0 4,0 6,0l0 0c1,0 3,-1 4,-2 3,-3 5,-8 4,-15l-9 -55 -20 17 0 0 -95 -1 3 -21 70 -1 0 -79 83 0 -1 -104 0 -3 0 -27 0 -25c0,-6 -1,-5 -3,-8l-1 -1 -8 0 -89 0 -1 -32 0 0c0,-5 -3,-8 -6,-10l0 0c-2,-1 -4,-1 -6,-1 -1,0 -3,0 -5,1l0 0c-4,1 -7,5 -7,10 0,6 0,12 0,18l0 0c0,5 0,9 0,14l-98 0zm161 247l63 -58 -63 0 0 58z"/>
 </g>
</svg>
