<?xml version="1.0" encoding="UTF-8"?>
<!DOCTYPE svg PUBLIC "-//W3C//DTD SVG 1.1//EN" "http://www.w3.org/Graphics/SVG/1.1/DTD/svg11.dtd">
<!-- Creator: CorelDRAW X7 -->
<svg xmlns="http://www.w3.org/2000/svg" xml:space="preserve" width="4.2332mm" height="4.2332mm" version="1.1" style="shape-rendering:geometricPrecision; text-rendering:geometricPrecision; image-rendering:optimizeQuality; fill-rule:evenodd; clip-rule:evenodd"
viewBox="0 0 423 423"
 xmlns:xlink="http://www.w3.org/1999/xlink">
 <defs>
  <style type="text/css">
   <![CDATA[
    .fil0 {fill:black}
   ]]>
  </style>
 </defs>
 <g id="Capa_x0020_1">
  <metadata id="CorelCorpID_0Corel-Layer"/>
  <path class="fil0" d="M76 183l49 0 52 -77c-2,-5 -3,-10 -3,-15 0,-20 16,-37 37,-37 20,0 36,17 36,37 0,5 -1,9 -2,14l52 78 50 0c16,0 30,13 30,30l0 127c0,16 -14,29 -30,29l-271 0c-16,0 -29,-13 -29,-29l0 -127c0,-17 13,-30 29,-30zm130 56c3,-1 6,0 7,3 3,4 2,47 2,55 0,8 1,15 -6,16 -9,2 -11,-6 -11,-13l0 -46c0,-3 0,-7 1,-10 2,-5 2,-4 7,-5zm-70 87l39 1 0 -15 -22 0 -1 -87 -16 0 0 101zm168 0l44 1 0 -15 -28 0 0 -29 22 0 -1 -15 -21 0 0 -28 28 0 0 -14 -44 -1 0 101zm-46 -30l-15 0c-1,10 0,19 7,26 8,9 30,9 38,-6 7,-14 1,-30 -10,-41 -7,-6 -17,-15 -18,-24 -3,-16 11,-13 13,-10 2,2 2,7 2,11l15 1c0,-11 -1,-17 -6,-23 -5,-4 -13,-8 -22,-6 -8,2 -14,6 -16,13 -6,12 -2,28 8,38l16 16c5,6 8,19 -2,22 -12,3 -10,-13 -10,-17zm-182 -44l0 48c0,8 2,17 7,22 4,4 12,7 21,6 21,-3 20,-21 20,-39l-15 0c0,8 3,27 -11,24 -8,-2 -6,-19 -6,-30 0,-11 -1,-25 0,-36 0,-5 3,-9 9,-8 9,0 8,10 8,21l15 0c0,-19 -2,-36 -24,-36 -17,0 -24,11 -24,28zm125 -28c-11,3 -16,8 -18,20 -2,10 -1,28 -1,38 0,11 -1,26 4,35 3,7 14,13 26,10 11,-2 17,-8 19,-19 1,-9 0,-28 0,-38 0,-13 4,-38 -13,-44 -4,-2 -11,-3 -17,-2zm23 -99c-4,2 -9,3 -13,3 -4,0 -8,-1 -12,-2l-39 57 103 0 -39 -58z"/>
 </g>
</svg>
