<?xml version="1.0" encoding="UTF-8"?>
<!DOCTYPE svg PUBLIC "-//W3C//DTD SVG 1.1//EN" "http://www.w3.org/Graphics/SVG/1.1/DTD/svg11.dtd">
<!-- Creator: CorelDRAW X7 -->
<svg xmlns="http://www.w3.org/2000/svg" xml:space="preserve" width="4.2332mm" height="4.2332mm" version="1.1" style="shape-rendering:geometricPrecision; text-rendering:geometricPrecision; image-rendering:optimizeQuality; fill-rule:evenodd; clip-rule:evenodd"
viewBox="0 0 423 423"
 xmlns:xlink="http://www.w3.org/1999/xlink">
 <defs>
  <style type="text/css">
   <![CDATA[
    .fil0 {fill:black;fill-rule:nonzero}
   ]]>
  </style>
 </defs>
 <g id="Capa_x0020_1">
  <metadata id="CorelCorpID_0Corel-Layer"/>
  <path class="fil0" d="M152 177c-4,-4 -11,-4 -15,0 -4,5 -4,11 0,15l67 68c2,1 5,2 7,3l1 0c3,-1 5,-2 7,-3l0 -1 67 -67c4,-4 4,-10 0,-15 -4,-4 -10,-4 -14,0l-60 60 -60 -60zm67 -158c50,1 96,23 129,56l0 0 0 0c35,35 57,83 57,137 0,53 -22,101 -57,136l0 0c-35,35 -83,57 -136,57 -54,0 -102,-22 -137,-57l0 0c-35,-35 -56,-83 -56,-136 0,-54 21,-102 56,-137l0 0 0 0c33,-33 79,-55 130,-56l14 0zm124 62c-34,-34 -80,-55 -131,-55 -51,0 -98,21 -131,55l0 0c-34,33 -55,79 -55,131 0,51 21,97 55,131l0 0c33,33 80,54 131,54 51,0 97,-21 131,-54l0 0c33,-34 54,-80 54,-131 0,-52 -21,-98 -54,-131l0 0z"/>
 </g>
</svg>
