<?xml version="1.0" encoding="UTF-8"?>
<!DOCTYPE svg PUBLIC "-//W3C//DTD SVG 1.1//EN" "http://www.w3.org/Graphics/SVG/1.1/DTD/svg11.dtd">
<!-- Creator: CorelDRAW X7 -->
<svg xmlns="http://www.w3.org/2000/svg" xml:space="preserve" width="4.2332mm" height="4.2332mm" version="1.1" style="shape-rendering:geometricPrecision; text-rendering:geometricPrecision; image-rendering:optimizeQuality; fill-rule:evenodd; clip-rule:evenodd"
viewBox="0 0 423 423"
 xmlns:xlink="http://www.w3.org/1999/xlink">
 <defs>
  <style type="text/css">
   <![CDATA[
    .fil0 {fill:black}
   ]]>
  </style>
 </defs>
 <g id="Capa_x0020_1">
  <metadata id="CorelCorpID_0Corel-Layer"/>
  <path class="fil0" d="M67 218c-2,4 -2,7 -1,11 1,4 3,6 7,8l74 38 -30 103c-1,3 0,6 4,8l0 0c1,1 3,1 5,0 1,0 3,-1 4,-3l60 -86 80 41c3,1 7,2 10,1 4,-2 7,-4 8,-7 14,-27 7,-72 -17,-87l47 -93c7,3 14,4 21,1 8,-2 13,-6 16,-13 4,-7 4,-14 2,-21 -3,-8 -7,-13 -14,-16l-123 -63c-7,-4 -14,-4 -21,-2 -7,2 -13,7 -16,14 -4,6 -4,13 -2,21 3,7 7,13 14,16l-48 93c-29,-9 -67,10 -80,36zm127 -20c-1,2 -2,3 -4,3 -3,2 -9,-1 -10,-4 -1,-2 -1,-4 0,-6l42 -80c1,-2 2,-3 4,-4 3,-1 9,1 10,5 1,2 0,3 -1,5l-41 81z"/>
 </g>
</svg>
