<?xml version="1.0" encoding="UTF-8"?>
<!DOCTYPE svg PUBLIC "-//W3C//DTD SVG 1.1//EN" "http://www.w3.org/Graphics/SVG/1.1/DTD/svg11.dtd">
<!-- Creator: CorelDRAW X7 -->
<svg xmlns="http://www.w3.org/2000/svg" xml:space="preserve" width="4.2332mm" height="4.2332mm" version="1.1" style="shape-rendering:geometricPrecision; text-rendering:geometricPrecision; image-rendering:optimizeQuality; fill-rule:evenodd; clip-rule:evenodd"
viewBox="0 0 423 423"
 xmlns:xlink="http://www.w3.org/1999/xlink">
 <defs>
  <style type="text/css">
   <![CDATA[
    .fil0 {fill:black}
   ]]>
  </style>
 </defs>
 <g id="Capa_x0020_1">
  <metadata id="CorelCorpID_0Corel-Layer"/>
  <path class="fil0" d="M235 60l4 0c1,0 3,1 4,1l0 0c3,0 6,1 9,2l0 0c3,1 7,3 9,5l0 0c3,3 6,8 9,13 3,7 6,15 7,20 3,8 4,13 5,18 1,6 2,11 1,18 0,1 0,3 -1,5 0,1 0,3 -1,5l0 1 0 0 0 0 -1 6 0 0c-1,5 -2,10 -2,15 5,0 10,0 16,0l12 0 0 0c5,0 9,0 14,0 9,0 18,0 27,0 9,0 18,2 25,6 7,4 13,11 15,22l0 1c0,5 0,11 -2,16 -1,5 -4,10 -8,14l0 0c-1,1 -1,1 -1,1l0 2 0 0c1,4 2,7 1,14l0 0c-1,3 -2,6 -4,10 -1,3 -3,6 -5,9l0 0c-1,1 -2,2 -3,2l0 0c0,1 1,0 1,0 2,6 2,11 1,16 -2,6 -4,11 -8,16l0 0 -2 3 0 0c0,0 0,1 -1,1 1,1 1,3 1,4 1,3 1,5 1,8l0 0c-1,3 -1,5 -2,7l0 0c0,3 -1,5 -3,7l0 0c-4,9 -11,15 -18,19 -8,4 -16,6 -26,6 -27,0 -54,0 -81,0l-16 0 0 0c-3,0 -4,0 -5,0 -10,0 -23,1 -32,-5l0 0 0 0 0 0 0 0c-1,2 -1,4 -3,6l0 0 0 1 -1 0 0 1c-1,2 -4,4 -6,5l0 0c-3,1 -6,2 -10,2l-80 0 -2 0c-10,0 -18,0 -24,-11l0 0c-3,-6 -3,-12 -3,-17l0 0 0 0 0 0 -9 -112 0 0 0 -2 0 0c0,-4 -1,-8 0,-12l0 0c0,-8 4,-13 9,-15l0 0c4,-3 9,-3 15,-3 12,0 23,0 35,0 12,0 25,0 37,0 2,0 4,0 7,0 6,0 12,0 18,0l0 0 1 0 0 0c1,1 2,1 4,1l0 0c3,-1 10,-12 14,-19 1,-1 2,-3 3,-5 3,-5 7,-10 11,-16l2 -4 1 -1 0 0 0 -1 0 0c4,-6 7,-12 11,-19l0 0c1,-3 1,-13 0,-21 0,-2 0,-3 0,-5l0 0c0,-2 0,-3 0,-4l0 0 0 -5 0 -2c0,-7 0,-13 7,-19l0 -1 0 0 0 0c5,-4 10,-7 15,-8l0 0c2,-1 5,-1 8,-2zm-60 259c3,1 5,3 9,5 2,2 4,3 5,3 2,1 4,1 7,1l0 0c10,0 20,0 30,0 6,0 11,0 17,0l49 0 0 0 6 0c6,0 12,0 16,0l0 0c4,-1 8,-3 12,-5 2,-2 4,-4 6,-7 0,-2 0,-4 0,-5 0,-2 -1,-3 -2,-4l0 0c0,-1 0,-1 -1,-1l0 0c-3,-4 -6,-7 -1,-13 1,-2 3,-3 5,-5 2,-1 4,-2 6,-5l0 0c5,-8 2,-12 0,-14 -2,-2 -3,-3 -3,-6l-1 0 1 -1c0,-6 3,-8 7,-10l0 0 1 -1 0 0c2,-2 5,-4 6,-6 1,-3 2,-5 2,-7 0,-1 0,-2 -1,-3l0 0c0,-1 -1,-1 -2,-2l0 0c-1,-1 -2,-1 -3,-2l0 0c-1,-2 -1,-4 -1,-6l0 0c0,-1 1,-2 2,-3 1,-3 3,-5 5,-6 3,-2 5,-4 7,-6 2,-2 2,-5 2,-8 0,-3 -1,-5 -3,-6 -2,-1 -6,-1 -10,-1 -18,-1 -36,-1 -53,-1l-10 0c-3,0 -5,0 -7,0 -4,0 -9,0 -13,0 0,0 -1,0 -2,1 -3,0 -5,0 -7,-1 -6,-1 -8,-4 -6,-14l0 0c1,-3 1,-5 2,-8l0 0 1 -8 0 0c0,-1 1,-4 1,-6 0,-4 1,-7 2,-10l0 0c0,-3 1,-6 1,-9 1,-4 1,-7 1,-10l0 0c0,-3 -1,-7 -2,-12 -2,-6 -4,-13 -6,-17l0 0 -1 -4 0 0c-2,-3 -3,-6 -4,-8 -1,-1 -2,-2 -4,-2 -2,-1 -4,0 -7,0 -2,0 -3,1 -3,1 -1,0 -1,1 -1,2 0,5 0,10 1,15 0,6 0,12 0,18l0 0c0,8 0,9 -2,12 0,1 -1,2 -2,3 -3,8 -7,15 -11,22l-2 2 0 0c-4,7 -10,17 -16,27 -7,10 -14,20 -20,25l0 0c-1,0 -3,1 -4,2l0 0c0,0 0,0 0,0l0 0 0 0 0 0c-1,1 -5,3 -7,5 -2,1 -2,0 -3,1l0 0c0,2 1,67 1,93l0 3c4,0 7,1 10,2l0 0zm-1 -104l0 0c0,0 0,0 0,0z"/>
 </g>
</svg>
