<?xml version="1.0" encoding="UTF-8"?>
<!DOCTYPE svg PUBLIC "-//W3C//DTD SVG 1.1//EN" "http://www.w3.org/Graphics/SVG/1.1/DTD/svg11.dtd">
<!-- Creator: CorelDRAW X7 -->
<svg xmlns="http://www.w3.org/2000/svg" xml:space="preserve" width="4.2332mm" height="4.2332mm" version="1.1" style="shape-rendering:geometricPrecision; text-rendering:geometricPrecision; image-rendering:optimizeQuality; fill-rule:evenodd; clip-rule:evenodd"
viewBox="0 0 423 423"
 xmlns:xlink="http://www.w3.org/1999/xlink">
 <defs>
  <style type="text/css">
   <![CDATA[
    .fil0 {fill:black}
   ]]>
  </style>
 </defs>
 <g id="Capa_x0020_1">
  <metadata id="CorelCorpID_0Corel-Layer"/>
  <path class="fil0" d="M190 281l-109 0c-3,0 -6,0 -8,-1l0 54c0,10 8,18 18,18l241 0c10,0 18,-8 18,-18l0 -54c-2,1 -5,1 -7,1l-106 0 1 1 0 12c0,5 -5,10 -11,10l-27 0c-6,0 -10,-5 -10,-10l0 -12 0 -1zm-109 -18l262 0c3,0 5,0 7,-1 7,-3 11,-10 11,-17l0 -101c0,-10 -7,-18 -17,-19l-76 0 0 -24 -29 -30 -59 0 -29 30 0 24 -72 0c-9,1 -17,9 -17,19l0 101c0,7 5,14 11,17 2,1 5,1 8,1zm158 -138l-59 0 0 -24 59 0 0 24z"/>
 </g>
</svg>
