<?xml version="1.0" encoding="UTF-8"?>
<!DOCTYPE svg PUBLIC "-//W3C//DTD SVG 1.1//EN" "http://www.w3.org/Graphics/SVG/1.1/DTD/svg11.dtd">
<!-- Creator: CorelDRAW X7 -->
<svg xmlns="http://www.w3.org/2000/svg" xml:space="preserve" width="4.2332mm" height="4.2332mm" version="1.1" style="shape-rendering:geometricPrecision; text-rendering:geometricPrecision; image-rendering:optimizeQuality; fill-rule:evenodd; clip-rule:evenodd"
viewBox="0 0 423 423"
 xmlns:xlink="http://www.w3.org/1999/xlink">
 <defs>
  <style type="text/css">
   <![CDATA[
    .fil0 {fill:black}
   ]]>
  </style>
 </defs>
 <g id="Capa_x0020_1">
  <metadata id="CorelCorpID_0Corel-Layer"/>
  <path class="fil0" d="M143 207c0,-2 -3,-12 2,-13 4,-2 8,-4 13,-6 45,-19 75,-36 98,-57 0,7 2,26 3,27 -36,23 -93,45 -116,49zm-82 21c0,5 1,11 2,16 1,1 1,3 2,4 2,8 6,14 12,20 1,1 6,5 8,6 23,15 33,-4 44,23 7,19 12,46 16,57 3,8 6,15 13,20 9,6 19,2 26,-3 3,-2 7,-5 8,-9 1,-3 2,-7 0,-10 -11,-9 -26,-50 -23,-72 2,-17 12,-13 26,-12l17 1c1,0 4,0 5,0 4,1 7,1 11,1 26,3 51,8 75,18l11 6c7,5 11,10 21,10 3,0 7,-2 9,-3 8,-7 14,-22 15,-34 2,-9 2,-12 3,-22 0,-2 0,-4 0,-6l0 -21c-1,-8 -1,-15 -2,-23 -2,-12 -4,-22 -6,-34 -1,-5 -2,-9 -3,-14 -4,-12 -7,-24 -12,-37 -3,-8 -7,-17 -11,-25l-5 -8c-4,-8 -10,-16 -17,-23 -4,-4 -11,-8 -17,-8 -19,0 -28,39 -49,58 -5,4 -9,8 -13,11l-24 17c-5,4 -10,7 -15,10 -1,0 -2,1 -3,2 -2,0 -3,1 -4,2 -1,1 -3,1 -4,2 -12,7 -27,13 -40,19 -23,11 -52,11 -64,27 -7,9 -12,22 -12,34zm256 -122c15,33 24,81 25,107 2,39 -1,82 -23,49l-5 -9c-4,-9 -7,-16 -11,-25 -8,-23 -16,-56 -20,-80 -1,-6 -3,-24 -3,-29 -1,-44 14,-65 37,-13z"/>
 </g>
</svg>
