<?xml version="1.0" encoding="UTF-8"?>
<!DOCTYPE svg PUBLIC "-//W3C//DTD SVG 1.1//EN" "http://www.w3.org/Graphics/SVG/1.1/DTD/svg11.dtd">
<!-- Creator: CorelDRAW X7 -->
<svg xmlns="http://www.w3.org/2000/svg" xml:space="preserve" width="4.2332mm" height="4.2332mm" version="1.1" style="shape-rendering:geometricPrecision; text-rendering:geometricPrecision; image-rendering:optimizeQuality; fill-rule:evenodd; clip-rule:evenodd"
viewBox="0 0 423 423"
 xmlns:xlink="http://www.w3.org/1999/xlink">
 <defs>
  <style type="text/css">
   <![CDATA[
    .fil0 {fill:black}
   ]]>
  </style>
 </defs>
 <g id="Capa_x0020_1">
  <metadata id="CorelCorpID_0Corel-Layer"/>
  <path class="fil0" d="M317 41l3 0c11,0 22,5 29,12l0 0c8,8 13,19 13,31 0,12 -5,23 -13,31l0 0c-8,8 -19,13 -31,13 -12,0 -23,-5 -30,-13 -8,-8 -13,-19 -13,-31 0,-12 5,-23 13,-31l0 0c7,-7 17,-12 29,-12zm-291 257c3,-5 8,-8 14,-9l70 -14c10,-12 19,-24 29,-36 4,-6 4,-2 6,4 4,11 13,15 23,20 4,2 4,1 2,5 -10,12 -20,24 -30,37 0,0 -1,1 -2,2l0 0c-2,2 -3,4 -6,5l0 0c-2,2 -4,2 -6,3l0 0 -67 13c-10,2 -19,5 -29,-3l0 0c-3,-2 -6,-7 -7,-12 -1,-5 0,-11 3,-15zm141 -97c6,-5 11,-11 17,-17 13,-15 26,-29 40,-44 7,-8 3,-10 -4,-17 -4,-4 -7,-8 -11,-12l-2 -3 -60 15 0 0c-1,0 -1,0 -2,0 -1,0 -2,0 -3,0 -4,0 -9,-2 -12,-4 -4,-3 -6,-7 -7,-11l0 -1c-1,-5 0,-10 2,-15l0 0c3,-4 7,-8 13,-9l0 0 71 -17 0 0c1,0 2,0 3,0 1,0 2,0 3,0 2,0 5,0 7,1 2,1 5,3 7,5 5,6 19,20 36,35 30,29 66,65 66,65l36 -33c2,-2 4,-3 6,-4 2,-1 5,-1 7,-1 3,0 6,0 9,1l0 0c2,1 4,3 6,5l0 0c4,4 6,9 6,15 0,5 -3,10 -7,14l-47 44 0 0c-8,7 -19,7 -27,1l0 0c-10,-9 -19,-17 -29,-25 -9,-8 -11,-5 -18,3 -13,14 -26,27 -39,40 -2,1 -3,3 -4,4l43 22c12,7 22,18 13,32l-51 83c-2,3 -4,5 -7,7 -3,2 -7,3 -10,3 -2,0 -4,-1 -6,-1 -2,-1 -4,-1 -5,-2l0 0c-5,-4 -9,-8 -10,-13 -1,-6 0,-11 3,-16l0 0 39 -63c-15,-8 -29,-15 -44,-23 -9,-4 -18,-9 -27,-13 -11,-6 -17,-12 -16,-26 0,-11 9,-17 15,-25z"/>
 </g>
</svg>
