<?xml version="1.0" encoding="UTF-8"?>
<!DOCTYPE svg PUBLIC "-//W3C//DTD SVG 1.1//EN" "http://www.w3.org/Graphics/SVG/1.1/DTD/svg11.dtd">
<!-- Creator: CorelDRAW X7 -->
<svg xmlns="http://www.w3.org/2000/svg" xml:space="preserve" width="4.2332mm" height="4.2332mm" version="1.1" style="shape-rendering:geometricPrecision; text-rendering:geometricPrecision; image-rendering:optimizeQuality; fill-rule:evenodd; clip-rule:evenodd"
viewBox="0 0 423 423"
 xmlns:xlink="http://www.w3.org/1999/xlink">
 <defs>
  <style type="text/css">
   <![CDATA[
    .fil0 {fill:black}
   ]]>
  </style>
 </defs>
 <g id="Capa_x0020_1">
  <metadata id="CorelCorpID_0Corel-Layer"/>
  <path class="fil0" d="M148 355c0,3 1,9 -2,11 -2,1 -9,0 -12,0 -24,0 -48,-6 -72,-5 -6,0 -17,2 -18,-7 0,-5 0,-13 1,-18 0,-7 -1,-13 -1,-19 0,-13 0,-25 0,-38 0,-4 3,-3 7,-2 12,5 47,10 66,8 5,0 4,1 6,5 13,20 23,39 25,65zm127 -5c0,2 -1,8 2,10 2,1 10,1 13,1 23,-1 46,-1 69,0 6,0 19,2 20,-6 1,-4 0,-13 0,-19 0,-6 0,-12 0,-18l0 -1c0,-13 0,-25 0,-38 0,-4 -3,-3 -6,-2 -12,5 -48,10 -67,8 -5,0 -3,1 -6,5 -12,20 -22,33 -25,60zm104 -216c0,9 1,82 0,83 -16,10 -78,19 -78,18 -21,-7 -43,-58 -50,-79 -2,-4 -8,-20 -5,-23 2,-3 14,-5 18,-6 39,-11 76,-22 105,-53 10,-10 11,-5 10,6l0 1c-1,11 0,20 0,31 0,7 0,15 0,22zm-4 102c5,-1 4,0 4,6 0,3 1,13 -1,16 -2,4 -72,18 -76,12 -1,-2 -2,-14 0,-17 1,-1 2,-2 3,-2 4,-2 10,-2 15,-2 17,-4 39,-6 55,-13zm-171 -122c33,0 67,-6 99,-18 17,-6 40,-18 53,-32 6,-8 0,-7 -6,-7 -5,0 -9,0 -14,0 -84,0 -169,0 -253,0 -19,0 -27,-2 -7,14 3,2 5,4 7,5 11,8 23,14 36,20 27,11 55,17 85,18zm-160 20c0,9 -1,82 0,83 16,10 78,19 79,18 20,-7 42,-58 50,-79 1,-4 7,-20 4,-23 -2,-3 -14,-5 -18,-6 -38,-11 -75,-22 -105,-53 -9,-10 -11,-5 -10,6l0 1c1,11 1,20 0,31 0,7 0,15 0,22zm4 102c-4,-1 -4,0 -4,6 0,3 0,13 1,16 2,4 73,18 76,12 1,-2 2,-14 0,-17 0,-1 -1,-2 -3,-2 -3,-2 -10,-2 -14,-2 -18,-4 -39,-6 -56,-13z"/>
 </g>
</svg>
