<?xml version="1.0" encoding="UTF-8"?>
<!DOCTYPE svg PUBLIC "-//W3C//DTD SVG 1.1//EN" "http://www.w3.org/Graphics/SVG/1.1/DTD/svg11.dtd">
<!-- Creator: CorelDRAW X7 -->
<svg xmlns="http://www.w3.org/2000/svg" xml:space="preserve" width="4.2332mm" height="4.2332mm" version="1.1" style="shape-rendering:geometricPrecision; text-rendering:geometricPrecision; image-rendering:optimizeQuality; fill-rule:evenodd; clip-rule:evenodd"
viewBox="0 0 423 423"
 xmlns:xlink="http://www.w3.org/1999/xlink">
 <defs>
  <style type="text/css">
   <![CDATA[
    .fil0 {fill:black}
   ]]>
  </style>
 </defs>
 <g id="Capa_x0020_1">
  <metadata id="CorelCorpID_0Corel-Layer"/>
  <path class="fil0" d="M84 246c6,-9 34,-19 43,-23l53 55c5,5 15,15 19,18 -2,10 -15,39 -22,43l-93 -93zm-51 23l0 -2 0 -1c0,-6 20,-28 26,-32 35,-30 79,-44 131,-44 6,0 8,1 14,1 0,-6 -1,-9 -1,-15 1,-12 -1,-4 0,-21 1,-3 0,-6 0,-8 2,-33 18,-73 44,-93 6,-5 10,-9 17,-13 10,-5 15,-8 25,-8 8,0 12,10 9,17 -2,6 -9,6 -14,8 -2,1 -2,2 -5,2 1,4 7,9 10,12 10,9 69,69 73,72l5 -13c7,-12 24,-9 24,6 0,5 -5,15 -7,19 -14,28 -43,49 -73,57 -13,4 -28,7 -45,7 -6,0 -29,0 -33,-2 0,51 -2,74 -24,118l-12 19c-3,3 -4,6 -7,9 -3,3 -5,5 -8,8 -3,3 -5,4 -8,7 -25,26 -34,2 -30,-6 2,-2 15,-13 18,-15l-97 -96c-2,1 -7,8 -8,10 -3,4 -5,8 -11,8 -5,0 -6,0 -9,-3 -4,-3 -4,-4 -4,-8zm152 -54l23 1c0,7 1,13 1,19 0,12 -2,22 -3,32l-49 -49c-1,-2 1,-1 4,-2 3,0 5,0 8,0 6,0 10,-1 16,-1zm43 -52l0 -17 49 49c-10,0 -39,1 -48,-2 0,-11 -1,-19 -1,-30zm29 -86l89 89c-5,7 -28,20 -39,23 -3,-3 -21,-21 -27,-27l-10 -9c-8,-7 -31,-32 -36,-36 1,-3 2,-8 4,-11 2,-5 3,-7 5,-11 3,-5 9,-15 14,-18z"/>
 </g>
</svg>
