<?xml version="1.0" encoding="UTF-8"?>
<!DOCTYPE svg PUBLIC "-//W3C//DTD SVG 1.1//EN" "http://www.w3.org/Graphics/SVG/1.1/DTD/svg11.dtd">
<!-- Creator: CorelDRAW X7 -->
<svg xmlns="http://www.w3.org/2000/svg" xml:space="preserve" width="4.2332mm" height="4.2332mm" version="1.1" style="shape-rendering:geometricPrecision; text-rendering:geometricPrecision; image-rendering:optimizeQuality; fill-rule:evenodd; clip-rule:evenodd"
viewBox="0 0 423 423"
 xmlns:xlink="http://www.w3.org/1999/xlink">
 <defs>
  <style type="text/css">
   <![CDATA[
    .fil0 {fill:black}
   ]]>
  </style>
 </defs>
 <g id="Capa_x0020_1">
  <metadata id="CorelCorpID_0Corel-Layer"/>
  <path class="fil0" d="M137 268c18,0 32,-14 32,-31 0,-15 -11,-28 -25,-31l0 -98 50 0 0 98c-14,3 -24,16 -24,31 0,17 14,31 31,31 18,0 32,-14 32,-31 0,-15 -11,-28 -25,-31l0 -98 53 0 25 96c-13,7 -20,21 -16,36 5,17 22,27 39,22 17,-4 27,-21 22,-38 -3,-15 -17,-24 -32,-24l-24 -92 79 0 0 178 -281 0 0 -178 57 0 0 98c-14,3 -25,16 -25,31 0,17 15,31 32,31zm142 -43c0,-6 4,-10 10,-10 5,0 10,4 10,10 0,6 -5,10 -10,10 -6,0 -10,-4 -10,-10zm89 -144l-309 0c-7,0 -13,7 -13,14l0 191 -6 0c-9,0 -15,7 -15,15l0 26c0,8 6,15 15,15l344 0c8,0 15,-7 15,-15l0 -26c0,-8 -7,-15 -15,-15l-3 0 0 -191c0,-7 -6,-14 -13,-14zm-232 147c0,5 -5,10 -10,10 -6,0 -10,-5 -10,-10 0,-6 4,-11 10,-11 5,0 10,5 10,11zm55 10c-6,0 -10,-5 -10,-10 0,-6 4,-11 10,-11 5,0 10,5 10,11 0,5 -5,10 -10,10z"/>
 </g>
</svg>
