<?xml version="1.0" encoding="UTF-8"?>
<!DOCTYPE svg PUBLIC "-//W3C//DTD SVG 1.1//EN" "http://www.w3.org/Graphics/SVG/1.1/DTD/svg11.dtd">
<!-- Creator: CorelDRAW X7 -->
<svg xmlns="http://www.w3.org/2000/svg" xml:space="preserve" width="4.2332mm" height="4.2332mm" version="1.1" style="shape-rendering:geometricPrecision; text-rendering:geometricPrecision; image-rendering:optimizeQuality; fill-rule:evenodd; clip-rule:evenodd"
viewBox="0 0 423 423"
 xmlns:xlink="http://www.w3.org/1999/xlink">
 <defs>
  <style type="text/css">
   <![CDATA[
    .fil0 {fill:black}
   ]]>
  </style>
 </defs>
 <g id="Capa_x0020_1">
  <metadata id="CorelCorpID_0Corel-Layer"/>
  <path class="fil0" d="M328 47c-16,-12 -35,-21 -56,-25 -12,-3 -12,2 -13,13 -1,17 -4,37 -6,55 -3,18 -5,37 -8,56 -2,13 2,11 13,6 19,-8 39,-16 58,-24 16,-7 32,-13 48,-20 8,-3 8,-5 4,-13 -10,-19 -23,-35 -40,-48zm-29 356c-23,-1 -54,-6 -66,-28 -3,-6 -1,-15 -1,-21 0,-20 -1,-41 0,-61 0,-1 0,-2 0,-3 1,-3 -1,-6 4,-12 12,-16 46,-20 65,-20 17,0 56,5 63,24 1,3 1,5 1,8 2,1 0,16 1,18 0,2 0,12 0,14 0,8 1,46 -1,51 -11,24 -43,29 -66,30zm0 -86c-18,0 -37,-3 -53,-11 0,8 4,11 12,15l2 1c10,5 23,8 39,8 15,0 29,-3 39,-8 7,-3 13,-7 13,-16 0,-1 -1,0 -3,1 -14,8 -33,10 -49,10zm-39 35c10,4 23,8 39,8 15,0 29,-4 39,-8 5,-4 12,-7 13,-15l0 0 0 -5c-2,1 -5,3 -7,4 -12,6 -28,9 -45,9 -18,0 -34,-3 -46,-9 -2,-1 -5,-3 -7,-4 1,10 1,12 10,17l4 3zm39 36c15,0 29,-3 39,-8 7,-4 12,-7 13,-16 0,-4 1,-3 -4,-1 -15,8 -32,11 -48,11 -18,0 -32,-2 -48,-10 -5,-3 -4,-4 -4,1 0,17 35,23 48,23l4 0zm-95 -54c8,0 14,6 14,13 0,7 -6,13 -12,13l-6 0c-40,-1 -76,-18 -103,-44 -27,-27 -45,-65 -45,-107 0,-42 18,-80 45,-108 28,-27 66,-44 107,-44 3,0 6,0 10,0 4,0 7,1 10,1 7,1 12,7 11,15 0,0 0,0 0,1 -5,38 -10,76 -15,114 31,-12 61,-25 91,-38 6,-2 12,-4 17,-6 7,-3 14,0 17,7 4,9 7,18 8,28 2,10 3,20 3,30 0,5 0,10 -1,16 0,5 -1,10 -2,15 -1,7 -8,12 -15,10 -8,-1 -12,-8 -10,-15 1,-4 1,-9 2,-13 0,-4 0,-9 0,-13 0,-9 0,-17 -2,-25 -1,-4 -2,-7 -3,-11l-115 48 0 0c-2,1 -5,1 -7,1 -7,-1 -12,-8 -11,-15l15 -124 -3 0c-34,0 -66,14 -88,37 -23,22 -37,54 -37,89 0,34 14,66 37,89 22,22 54,36 88,36z"/>
 </g>
</svg>
