<?xml version="1.0" encoding="UTF-8"?>
<!DOCTYPE svg PUBLIC "-//W3C//DTD SVG 1.1//EN" "http://www.w3.org/Graphics/SVG/1.1/DTD/svg11.dtd">
<!-- Creator: CorelDRAW X7 -->
<svg xmlns="http://www.w3.org/2000/svg" xml:space="preserve" width="4.2332mm" height="4.2332mm" version="1.1" style="shape-rendering:geometricPrecision; text-rendering:geometricPrecision; image-rendering:optimizeQuality; fill-rule:evenodd; clip-rule:evenodd"
viewBox="0 0 423 423"
 xmlns:xlink="http://www.w3.org/1999/xlink">
 <defs>
  <style type="text/css">
   <![CDATA[
    .fil0 {fill:black}
   ]]>
  </style>
 </defs>
 <g id="Capa_x0020_1">
  <metadata id="CorelCorpID_0Corel-Layer"/>
  <path class="fil0" d="M347 280l0 -163c0,-12 -13,-14 -15,-14l-242 0c-2,0 -15,2 -15,14l0 0 2 163 270 0zm-135 -49c-10,0 -17,8 -17,17 0,10 7,18 17,18 9,0 17,-8 17,-18 0,-9 -8,-17 -17,-17zm91 -59c-23,-27 -56,-43 -91,-43 -35,0 -69,16 -92,43 -3,3 -2,9 1,12 2,1 4,2 6,2 2,0 5,-1 6,-3 20,-24 48,-37 79,-37 30,0 58,13 78,37 2,2 4,3 7,3 1,0 3,-1 5,-2 4,-3 4,-9 1,-12zm-91 -9c-26,0 -49,11 -65,30 -4,4 -3,10 1,13 1,1 3,2 5,2 2,0 5,-1 6,-3 13,-16 33,-25 53,-25 20,0 39,9 52,25 2,2 4,3 6,3 2,0 4,-1 6,-2 4,-3 4,-9 1,-13 -16,-19 -40,-30 -65,-30zm0 34c-15,0 -30,7 -40,18 -2,4 -2,9 2,13 1,1 3,2 5,2 2,0 5,-1 6,-4 7,-7 16,-12 27,-12 10,0 19,5 26,12 1,3 4,4 6,4 2,0 4,-1 6,-2 3,-4 4,-9 1,-13 -10,-11 -24,-18 -39,-18zm-198 133c0,16 17,16 17,16l360 0c0,0 18,0 18,-16 0,-4 0,-7 -2,-9l0 0c-1,-1 -2,-2 -3,-3l-31 -38 0 -163c0,-40 -39,-40 -39,-40l-246 0c0,0 -39,0 -39,40l0 163 -30 38c-3,2 -5,6 -5,12zm158 -18l0 0 0 0 0 0 0 0 1 -1 0 0 0 0 0 0 0 0 0 0 0 0 0 -1 0 0 0 0 0 0 0 0 0 0 0 0 1 0 0 0 0 -1 0 0 0 0 0 0 0 0 0 0 0 -1 0 0 1 0 0 0 0 0 0 -1 0 0 1 0 0 0c0,0 0,0 0,0l0 0 0 0 1 -1 0 0 0 0 0 0 0 0c1,0 1,0 1,0l0 0 1 0 0 0 1 0 0 0 0 0 1 0 0 -1 0 0 1 0 1 0 0 0 0 0 0 0 1 0 0 0 1 0 0 0 0 0 1 0 0 0 0 0 1 0 0 0 1 0 1 0 0 0 0 0 1 0 0 0 1 0 0 0 0 0 1 0 0 0 0 0 1 0 0 0 0 0 1 0 0 0 1 0 0 0 0 0 1 0 0 0 1 0 0 0 2 0 2 0 8 0 2 0 8 0 3 0 1 0 1 0 0 0 0 0 1 0 0 0 0 0 1 0 0 0 1 0 0 0 0 0 1 0 0 0 1 0 0 0 1 0 0 0 0 0 1 0 0 0 1 0 0 0 0 0 1 0 0 0 0 0 1 0 0 0 0 0 1 0 0 0 1 0 0 0c1,0 2,0 3,0l0 0 1 1 0 0 0 0 1 0c1,0 1,0 2,0l0 0 0 0 1 0 0 0 0 1 0 0c0,0 1,0 1,0l0 0 0 0 0 0 0 1 0 0 0 0 1 0 0 0 0 1 0 0 0 0 0 0 0 0 0 0 0 1 1 0 0 0 0 0 0 0 0 0 0 0 0 0 0 0 0 1 0 0 0 0 0 0 0 0 0 0 1 0 0 1 0 0 0 0 0 0 0 0c1,2 2,3 3,5 4,6 6,10 -4,11l0 0 0 0 0 0 0 0 0 0 -1 0 0 0 0 0 0 0 0 0 0 0 0 0 0 0 0 0 -1 0 0 0 0 0 0 0 0 0 -1 0 0 0 0 0 0 0 0 0 -1 0 0 0 0 0 0 0 0 0 -1 0 -1 0 -2 0 -1 0 -2 0 -1 0 0 0 -1 0 -1 0 -1 0 0 0 -1 0 0 0 -1 0 0 0 -1 0 -2 0 -3 0 -3 0 -1 0 -1 0 -1 0 -1 0 -2 0 -1 0 -1 0 -1 0 -2 0 0 0 -2 0 0 0 -2 0 -1 0 -1 0 -2 0 -1 0 -1 0 -1 0 -3 0 -3 0 -1 0 -1 0 -1 0 -1 0 0 0 -1 0 0 0 -1 0 -1 0 -1 0 0 0 -1 0 -2 0 -1 0 0 0 -1 0 0 0 -1 0 0 0 -2 0 -1 0 0 0 -1 0 0 0 -1 0 0 0 -1 0 -1 0 0 0c0,0 -1,0 -1,0l0 0 0 0 -1 0c0,-1 0,-1 -1,-1l0 0 0 0 0 0c-1,0 -1,0 -1,0l0 0 0 0 -1 -1 0 0 0 0 0 0 0 0 0 0 0 0 0 0 0 0 -1 0 0 -1 0 0 0 0 0 0 0 0 0 0 0 -1 0 0 0 0 0 0 0 0 0 0 0 -1 0 0 0 0c0,0 0,-1 0,-1l0 0 0 0 0 -1 0 0c1,-1 2,-2 3,-4 1,-2 2,-3 3,-5z"/>
 </g>
</svg>
