<?xml version="1.0" encoding="UTF-8"?>
<!DOCTYPE svg PUBLIC "-//W3C//DTD SVG 1.1//EN" "http://www.w3.org/Graphics/SVG/1.1/DTD/svg11.dtd">
<!-- Creator: CorelDRAW X7 -->
<svg xmlns="http://www.w3.org/2000/svg" xml:space="preserve" width="4.2332mm" height="4.2332mm" version="1.1" style="shape-rendering:geometricPrecision; text-rendering:geometricPrecision; image-rendering:optimizeQuality; fill-rule:evenodd; clip-rule:evenodd"
viewBox="0 0 423 423"
 xmlns:xlink="http://www.w3.org/1999/xlink">
 <defs>
  <style type="text/css">
   <![CDATA[
    .fil0 {fill:black}
   ]]>
  </style>
 </defs>
 <g id="Capa_x0020_1">
  <metadata id="CorelCorpID_0Corel-Layer"/>
  <g id="_494654484560">
   <g>
    <path class="fil0" d="M57 193c-2,-1 -2,-1 -1,1l1 -1zm-2 4l-2 2c-10,11 -4,31 3,40 15,28 30,56 45,84 4,7 24,47 27,50 5,3 22,2 29,2 27,-1 53,0 80,0 9,0 7,-3 2,-10 -6,-8 -12,-17 -18,-25 -26,-37 -51,-74 -77,-111 -1,0 -3,-4 -3,-4 -12,41 -90,37 -83,-26l2 -4 -1 -2c1,-1 3,3 1,-2 -4,0 -2,1 -3,2l-2 4zm182 -44c7,5 15,11 22,16 10,7 13,3 23,-3 5,-2 37,-20 37,-24 0,-4 -19,-7 -22,-7 -8,-2 -39,-9 -45,-12 -4,-5 1,-13 2,-19 4,-10 6,-20 9,-31 3,-8 4,-6 11,-1 15,12 31,23 46,35 18,14 16,6 12,-10 -4,-17 -8,-33 -12,-51 -1,-9 -3,-8 -13,-8 -20,1 -40,1 -61,0 -12,0 -11,4 -15,15 -8,23 -18,46 -24,69 -1,2 -2,4 -2,6 0,6 10,11 15,14 5,4 11,7 17,11zm81 198c18,-26 36,-52 55,-78 6,-8 1,-7 -7,-7 -13,0 -26,0 -40,0 14,-29 29,-57 42,-85 10,-19 3,-13 -10,-5 -19,11 -39,23 -59,33 -14,8 -12,14 -14,28 -2,17 -4,33 -7,49 -2,13 3,12 15,12 5,0 10,0 16,0 -2,7 -13,54 -18,77 -4,17 3,9 9,2 7,-11 16,-23 18,-26zm-222 -162c23,-5 30,30 7,35 -22,4 -30,-30 -7,-35zm93 -131c13,-5 18,16 6,20 -13,4 -22,-14 -6,-20zm-5 -6c-11,5 -30,32 -39,44l-75 91c-13,25 6,48 25,52 29,5 36,-17 45,-36 16,-28 31,-58 47,-86 6,-12 12,-24 18,-36 6,-9 6,-19 -3,-26 -6,-4 -11,-5 -18,-3z"/>
   </g>
  </g>
 </g>
</svg>
