<?xml version="1.0" encoding="UTF-8"?>
<!DOCTYPE svg PUBLIC "-//W3C//DTD SVG 1.1//EN" "http://www.w3.org/Graphics/SVG/1.1/DTD/svg11.dtd">
<!-- Creator: CorelDRAW X7 -->
<svg xmlns="http://www.w3.org/2000/svg" xml:space="preserve" width="4.2332mm" height="4.2332mm" version="1.1" style="shape-rendering:geometricPrecision; text-rendering:geometricPrecision; image-rendering:optimizeQuality; fill-rule:evenodd; clip-rule:evenodd"
viewBox="0 0 423 423"
 xmlns:xlink="http://www.w3.org/1999/xlink">
 <defs>
  <style type="text/css">
   <![CDATA[
    .fil0 {fill:black}
   ]]>
  </style>
 </defs>
 <g id="Capa_x0020_1">
  <metadata id="CorelCorpID_0Corel-Layer"/>
  <g id="_495024545152">
   <g>
    <path class="fil0" d="M318 150c11,-36 -15,-94 -35,-124 -7,-10 -7,-7 -11,6 -8,26 -16,37 -40,51 -30,18 -38,45 -24,76l0 2c8,17 17,4 25,-6 14,-19 17,-32 27,-51 5,-9 13,-17 22,-8 7,6 7,18 8,26 -2,29 -12,35 -22,60 -3,9 6,5 12,3 17,-5 31,-18 38,-35zm-194 207c-22,22 -57,5 -59,30 -2,20 24,13 38,12 50,-3 99,-3 149,0 22,2 43,2 64,2 12,0 66,10 64,-12 -1,-13 -26,-24 -38,-26 -19,-4 -26,-1 -39,-17 -8,-10 -16,-6 -27,-3 -6,3 -12,5 -19,0 -2,-2 -2,-4 -3,-7 -2,-9 -7,-20 -12,-29 -9,-15 -22,-30 -26,-47 -8,-41 21,-59 41,-88 10,-15 20,-29 22,-47 0,-6 -2,-25 -9,-16 -6,7 -7,25 -18,39 -13,17 -27,30 -43,44 -6,7 -11,13 -16,22 -12,23 -13,43 -1,67 7,14 17,26 25,40 0,1 2,4 1,5 0,0 -4,0 -4,0 -1,0 -2,0 -2,1 -34,4 -36,30 -63,22 -12,-3 -17,-1 -25,8zm43 -100c2,-13 -9,-16 -19,-23 -13,-8 -23,-13 -37,-20 -33,-15 -14,-16 8,-9 13,4 22,8 35,14 4,2 7,3 11,4 5,0 2,-9 2,-12 -6,-29 -33,-35 -59,-35 -22,-1 -41,4 -60,13 -11,5 -2,9 5,15 16,15 19,33 34,49 13,16 27,24 47,25 15,1 28,-6 33,-21zm98 -137c0,-1 0,-2 1,-3l-1 3z"/>
   </g>
  </g>
 </g>
</svg>
