<?xml version="1.0" encoding="UTF-8"?>
<!DOCTYPE svg PUBLIC "-//W3C//DTD SVG 1.1//EN" "http://www.w3.org/Graphics/SVG/1.1/DTD/svg11.dtd">
<!-- Creator: CorelDRAW X7 -->
<svg xmlns="http://www.w3.org/2000/svg" xml:space="preserve" width="4.2332mm" height="4.2332mm" version="1.1" style="shape-rendering:geometricPrecision; text-rendering:geometricPrecision; image-rendering:optimizeQuality; fill-rule:evenodd; clip-rule:evenodd"
viewBox="0 0 423 423"
 xmlns:xlink="http://www.w3.org/1999/xlink">
 <defs>
  <style type="text/css">
   <![CDATA[
    .fil0 {fill:black;fill-rule:nonzero}
   ]]>
  </style>
 </defs>
 <g id="Capa_x0020_1">
  <metadata id="CorelCorpID_0Corel-Layer"/>
  <path class="fil0" d="M87 354c0,0 0,-2 1,-4 2,-6 4,-12 5,-15l0 0c8,-37 -5,-58 -18,-80 -13,-23 -27,-47 -27,-86 1,-54 25,-95 59,-121 21,-16 46,-26 72,-30 26,-5 52,-3 77,6 41,13 77,44 94,95 6,16 14,49 6,65 -8,14 -10,3 1,22 6,9 17,24 18,35 2,15 -8,27 -23,30 0,0 -1,1 -1,2 6,9 6,14 -1,23 -5,6 -2,2 -2,11 0,11 -9,13 -9,20 1,8 3,8 2,19 -2,8 -6,13 -12,19 -4,4 -11,6 -18,7l0 0c-5,1 -10,1 -16,0l-1 -1c-11,-2 -29,-6 -34,-2 -1,2 -5,9 -8,16 -4,6 -7,12 -7,13l-1 0c-7,17 -28,11 -23,-6 0,-2 4,-11 8,-19 5,-8 10,-17 12,-20l0 0c14,-16 42,-10 58,-6l1 0c3,1 5,1 8,0l0 0c18,-3 -2,-19 8,-34 7,-10 6,-3 3,-15 -5,-19 9,-10 6,-23 -3,-9 -4,-15 4,-21 8,-6 19,-7 20,-8 3,-2 -6,-15 -8,-18 -5,-9 -20,-32 -17,-41 2,-9 10,-10 10,-21 0,-19 -8,-46 -18,-63 -15,-27 -38,-46 -68,-56 -21,-7 -43,-8 -65,-5 -22,4 -43,12 -61,26 -29,21 -48,56 -49,101 0,33 12,53 24,73 16,26 31,52 20,99l0 0c-1,3 -3,11 -5,17 -2,6 -5,11 -7,13 -13,12 -27,-3 -18,-17zm87 -154c14,9 38,29 47,36 10,8 17,5 17,-3 -2,-12 -8,-25 -6,-32 8,-1 16,-4 23,-7l2 -1 0 0c24,-13 41,-34 41,-58 0,-39 -41,-70 -92,-70 -51,0 -92,31 -92,70 0,30 25,55 60,65zm72 -78c8,0 14,6 14,13 0,8 -6,14 -14,14 -7,0 -13,-6 -13,-14 0,-7 6,-13 13,-13zm-40 0c7,0 13,6 13,13 0,8 -6,14 -13,14 -7,0 -14,-6 -14,-14 0,-7 7,-13 14,-13zm-42 0c7,0 13,6 13,13 0,8 -6,14 -13,14 -8,0 -14,-6 -14,-14 0,-7 6,-13 14,-13zm183 125c0,0 -1,0 0,0z"/>
 </g>
</svg>
