<?xml version="1.0" encoding="UTF-8"?>
<!DOCTYPE svg PUBLIC "-//W3C//DTD SVG 1.1//EN" "http://www.w3.org/Graphics/SVG/1.1/DTD/svg11.dtd">
<!-- Creator: CorelDRAW X7 -->
<svg xmlns="http://www.w3.org/2000/svg" xml:space="preserve" width="4.2332mm" height="4.2332mm" version="1.1" style="shape-rendering:geometricPrecision; text-rendering:geometricPrecision; image-rendering:optimizeQuality; fill-rule:evenodd; clip-rule:evenodd"
viewBox="0 0 423 423"
 xmlns:xlink="http://www.w3.org/1999/xlink">
 <defs>
  <style type="text/css">
   <![CDATA[
    .fil0 {fill:black}
   ]]>
  </style>
 </defs>
 <g id="Capa_x0020_1">
  <metadata id="CorelCorpID_0Corel-Layer"/>
  <path class="fil0" d="M210 182c-30,-2 -58,-18 -76,-42 -3,6 -5,13 -5,20 0,13 7,26 17,33 -6,-1 -12,-2 -17,-5l0 0c0,19 13,35 30,39 -3,1 -7,1 -10,1 -3,0 -5,0 -7,-1 5,16 18,28 34,28 -12,10 -28,17 -45,17l-9 -1c16,11 36,18 56,18 68,0 105,-59 105,-110l0 -6c7,-5 14,-12 19,-19 -7,3 -14,5 -22,5 8,-4 14,-12 17,-21 -8,5 -15,8 -24,9 -7,-7 -16,-12 -27,-12 -20,-1 -37,17 -37,38 0,3 1,6 1,9z"/>
 </g>
</svg>
