<?xml version="1.0" encoding="UTF-8"?>
<!DOCTYPE svg PUBLIC "-//W3C//DTD SVG 1.1//EN" "http://www.w3.org/Graphics/SVG/1.1/DTD/svg11.dtd">
<!-- Creator: CorelDRAW X7 -->
<svg xmlns="http://www.w3.org/2000/svg" xml:space="preserve" width="4.2332mm" height="4.2332mm" version="1.1" style="shape-rendering:geometricPrecision; text-rendering:geometricPrecision; image-rendering:optimizeQuality; fill-rule:evenodd; clip-rule:evenodd"
viewBox="0 0 423 423"
 xmlns:xlink="http://www.w3.org/1999/xlink">
 <defs>
  <style type="text/css">
   <![CDATA[
    .fil0 {fill:black;fill-rule:nonzero}
   ]]>
  </style>
 </defs>
 <g id="Capa_x0020_1">
  <metadata id="CorelCorpID_0Corel-Layer"/>
  <g>
   <path class="fil0" d="M308 197l0 15c-1,2 -2,2 -3,2l-24 0 0 23 0 1c0,2 -1,3 -3,3l-13 0 0 0c-2,0 -4,-1 -4,-3l0 -24 -23 0 0 0c-2,0 -3,-1 -3,-3l0 -13 0 0c0,-2 1,-3 3,-3l23 0 0 -23 0 -1c0,-1 2,-3 4,-3l13 0 0 0c2,0 3,2 3,3l0 24 23 0 1 0c1,0 2,0 3,2zm-134 15c0,-2 0,-4 1,-6l-3 0 0 0c-13,0 -24,-4 -31,-11l0 0c-9,-8 -13,-19 -13,-30 0,-7 1,-13 4,-20 3,-5 7,-11 13,-16l0 0c7,-6 15,-9 23,-11 8,-2 16,-3 23,-3l50 0 0 0c1,0 3,1 3,2 1,1 0,3 -1,4l-16 9c0,0 -1,0 -1,0l-7 0c2,2 3,4 5,7 4,5 7,13 7,23 0,10 -3,17 -7,23 -4,6 -9,10 -15,14l0 1c-3,2 -5,5 -5,9 0,4 2,6 4,8l1 0 0 0 8 7 1 0c5,5 10,9 14,15 5,6 7,12 7,22 0,13 -6,26 -20,36 -11,8 -27,13 -47,13l-1 0 0 0c-18,0 -32,-4 -41,-11l0 0c-10,-7 -14,-17 -14,-27l0 0 0 0c0,-5 1,-12 5,-19 3,-5 8,-10 15,-14 13,-8 31,-10 42,-11 -2,-4 -4,-8 -4,-14zm-2 -6l0 0 0 0zm39 49c-4,-5 -10,-10 -19,-16l-5 0 0 0c-1,0 -7,0 -13,1l0 0c-4,1 -8,2 -11,3l0 0c-3,1 -8,2 -12,6 -4,3 -7,8 -7,16 0,7 4,14 10,19l0 0c7,5 17,7 30,7 10,0 18,-2 24,-6 5,-4 8,-10 8,-17 0,-5 -1,-9 -5,-13l0 0zm-20 -64c3,-1 5,-2 7,-4l0 0c2,-2 3,-5 4,-8 1,-3 1,-5 1,-7 0,-10 -3,-22 -9,-31 -5,-7 -11,-11 -19,-11 -2,0 -5,0 -8,2 -2,1 -5,3 -6,5l0 0 0 0c-2,2 -3,4 -4,7l0 0c-1,3 -1,6 -1,9 0,8 3,21 9,29 5,6 11,11 18,11 3,0 6,-1 8,-2z"/>
  </g>
 </g>
</svg>
