<?xml version="1.0" encoding="UTF-8"?>
<!DOCTYPE svg PUBLIC "-//W3C//DTD SVG 1.1//EN" "http://www.w3.org/Graphics/SVG/1.1/DTD/svg11.dtd">
<!-- Creator: CorelDRAW X7 -->
<svg xmlns="http://www.w3.org/2000/svg" xml:space="preserve" width="4.2332mm" height="4.2332mm" version="1.1" style="shape-rendering:geometricPrecision; text-rendering:geometricPrecision; image-rendering:optimizeQuality; fill-rule:evenodd; clip-rule:evenodd"
viewBox="0 0 423 423"
 xmlns:xlink="http://www.w3.org/1999/xlink">
 <defs>
  <style type="text/css">
   <![CDATA[
    .fil0 {fill:black}
   ]]>
  </style>
 </defs>
 <g id="Capa_x0020_1">
  <metadata id="CorelCorpID_0Corel-Layer"/>
  <path class="fil0" d="M125 151c2,24 44,22 41,-4 -3,-25 -43,-21 -41,4zm173 142l-37 0 0 -49c0,-12 0,-31 -16,-33 -18,-3 -23,11 -24,26l0 56 -36 0 0 -109 37 0 -1 6c0,3 0,6 0,9 14,-29 65,-24 74,14 5,17 3,60 3,80zm-134 0l-37 0 0 -21 0 -88 37 0 0 109z"/>
 </g>
</svg>
