<?xml version="1.0" encoding="UTF-8"?>
<!DOCTYPE svg PUBLIC "-//W3C//DTD SVG 1.1//EN" "http://www.w3.org/Graphics/SVG/1.1/DTD/svg11.dtd">
<!-- Creator: CorelDRAW X7 -->
<svg xmlns="http://www.w3.org/2000/svg" xml:space="preserve" width="48.4292mm" height="33.8666mm" version="1.1" style="shape-rendering:geometricPrecision; text-rendering:geometricPrecision; image-rendering:optimizeQuality; fill-rule:evenodd; clip-rule:evenodd"
viewBox="0 0 4843 3387"
 xmlns:xlink="http://www.w3.org/1999/xlink">
 <defs>
  <style type="text/css">
   <![CDATA[
    .fil3 {fill:#0E253F}
    .fil2 {fill:#14365B}
    .fil0 {fill:#FFD43B}
    .fil1 {fill:white}
    .fil4 {fill:white;fill-rule:nonzero}
    .fil6 {fill:#1A0000;fill-opacity:0.200000}
    .fil5 {fill:black;fill-opacity:0.301961}
    .fil7 {fill:black;fill-opacity:0.349020}
   ]]>
  </style>
 </defs>
 <g id="Capa_x0020_1">
  <metadata id="CorelCorpID_0Corel-Layer"/>
  <g id="_66849184064">
   <path class="fil0" d="M2922 2289c31,32 47,79 47,140 0,61 -16,108 -47,139 -32,32 -77,48 -135,48l-105 0 0 176 -108 0 0 -550 213 0c58,0 103,16 135,47zm-60 140c0,-61 -27,-91 -80,-91l-100 0 0 181 100 0c26,0 46,-7 59,-21 14,-14 21,-37 21,-69zm512 -78l-168 490c-7,23 -17,40 -30,52 -20,21 -49,31 -86,31l-68 0 0 -90 51 0c15,0 26,-3 32,-8 7,-5 13,-14 19,-29l7 -21 -133 -425 106 0 79 307 85 -307 106 0z"/>
   <path class="fil1" d="M1591 3222c0,5 -3,7 -7,7l-108 0 0 -307c0,-4 1,-7 2,-8 1,-1 4,-2 8,-2 4,0 13,-1 27,-1l0 284 78 0 0 27zm291 -592c0,52 -19,93 -57,122 -38,30 -87,45 -146,45 -47,0 -92,-13 -136,-39 -21,-13 -39,-32 -53,-57 -14,-24 -21,-52 -21,-84l97 -4c0,28 12,49 36,65 24,15 50,23 79,23 64,0 96,-23 96,-68 0,-37 -22,-59 -65,-66l-90 -9c-45,-7 -80,-23 -107,-48 -26,-25 -39,-62 -39,-109 0,-47 19,-87 56,-117 38,-31 85,-47 143,-47 57,0 104,15 139,44 35,29 52,66 52,112l-96 5c-8,-45 -39,-67 -90,-67 -32,0 -56,6 -74,20 -18,13 -27,29 -27,47 0,19 7,33 20,44 13,10 29,17 48,19l88 10c98,13 147,66 147,159zm316 0l91 0c0,4 -1,11 -1,22 -1,11 -1,18 -1,22 -1,4 -1,10 -2,18 -1,9 -2,15 -4,18 -1,4 -3,9 -5,16 -9,26 -34,48 -75,63 -27,9 -54,14 -83,14 -28,0 -54,-5 -77,-14 -24,-9 -42,-21 -55,-36 -31,-32 -46,-91 -46,-179 0,-88 15,-148 46,-180 13,-14 31,-26 55,-36 23,-9 48,-13 77,-13 55,0 98,14 127,41 28,28 43,67 43,116l-91 0c0,-22 -6,-39 -17,-50 -12,-11 -33,-17 -63,-17 -31,0 -51,10 -61,29 -10,19 -15,47 -15,85l0 41c0,61 12,98 35,112 11,7 25,10 43,10 17,0 31,-1 42,-5 12,-3 20,-9 24,-17 5,-8 9,-16 10,-24 2,-8 3,-20 3,-36zm227 -448c24,0 40,4 47,12 7,7 11,23 11,47 0,24 -4,39 -12,47 -7,7 -23,11 -47,11 -24,0 -39,-4 -47,-12 -7,-7 -11,-23 -11,-47 0,-23 4,-39 11,-46 8,-8 23,-12 48,-12zm49 610l-100 0 0 -425 100 0 0 425zm-732 285c0,67 0,114 -2,141 -17,11 -39,16 -66,16 -12,0 -23,-2 -32,-5 -9,-3 -16,-10 -22,-20 -5,-10 -8,-25 -8,-44 0,-29 5,-49 16,-59 11,-10 26,-16 45,-16 14,0 25,2 33,6l0 -36c0,-10 -3,-17 -7,-21 -5,-4 -12,-6 -21,-6 -24,0 -44,4 -61,11 -3,-7 -5,-14 -5,-22 0,-6 2,-10 5,-12 5,-3 13,-6 26,-8 14,-3 28,-4 44,-4 19,0 34,4 42,12 9,9 13,23 13,43l0 24zm-36 45c-6,-3 -13,-4 -22,-4 -11,0 -19,3 -25,9 -6,6 -9,19 -9,37 0,15 2,26 7,31 5,5 13,8 23,8 11,0 19,-2 24,-7 1,-11 2,-35 2,-74zm59 -88c0,-9 0,-15 1,-20 0,-5 1,-8 2,-10 1,-1 2,-2 5,-2l23 0 0 -69c0,-4 1,-7 3,-9 2,-1 5,-2 10,-3 4,0 12,-1 23,-1l0 82 48 0c0,8 -1,15 -1,20 0,5 -1,9 -2,10 -1,1 -3,2 -5,2l-40 0 0 132c0,12 1,22 3,28 2,5 7,8 14,8 8,0 17,-2 27,-6 1,6 2,12 2,18 0,13 -13,20 -39,20 -12,0 -22,-3 -28,-8 -6,-5 -10,-13 -12,-22 -2,-10 -3,-22 -3,-38l0 -132 -31 0zm182 188c0,3 0,5 -1,5 -1,1 -5,2 -11,2 -6,0 -14,0 -25,0l0 -210c0,-6 1,-10 3,-12 2,-2 6,-4 10,-4 5,-1 13,-1 24,-1l0 220zm48 -209c9,-4 21,-8 34,-11 14,-3 27,-4 38,-4 24,0 40,4 50,14 9,9 14,25 14,47l0 163c0,3 -1,5 -2,5 -1,1 -5,2 -11,2 -6,0 -15,0 -25,0l0 -160c0,-15 -2,-25 -5,-31 -4,-6 -11,-9 -22,-9 -13,0 -25,3 -34,9l0 184c0,3 -1,5 -2,5 -1,1 -5,2 -11,2 -6,0 -14,0 -24,0l0 -216zm459 209c0,3 0,5 -2,6 -3,2 -7,2 -14,2 -8,0 -15,0 -22,-1l-19 -81 -79 0 -18 75c-1,3 -2,5 -4,6 -2,1 -6,1 -13,1 -6,0 -14,0 -23,-1l82 -313c1,-4 5,-6 13,-6 7,0 13,1 18,1l81 311zm-81 -172c-8,-37 -14,-66 -15,-88 -4,27 -9,56 -17,88l-15 65 63 0 -16 -65zm104 -37c23,-10 45,-15 69,-15 19,0 33,4 41,14 17,-10 35,-14 56,-14 14,0 25,2 33,7 7,5 12,12 14,21 3,9 4,21 4,36l0 160c0,3 -1,5 -2,5 -1,1 -5,2 -11,2 -6,0 -14,0 -24,0l0 -168c0,-12 -1,-20 -4,-24 -3,-5 -9,-7 -18,-7 -11,0 -21,3 -31,9l0 55 0 1 0 127c0,3 0,5 -1,5 -1,1 -5,2 -11,2 -6,0 -14,0 -24,0l0 -169c0,-8 -1,-14 -2,-18 0,-5 -2,-8 -6,-10 -3,-2 -8,-3 -15,-3 -11,0 -21,3 -31,9l0 184c0,3 0,5 -2,5 -1,1 -4,2 -10,2 -7,0 -15,0 -25,0l0 -216zm334 185c18,0 36,-4 52,-14 2,7 3,15 3,25 0,7 -6,13 -18,18 -12,4 -27,7 -45,7 -15,0 -28,-3 -38,-9 -11,-6 -19,-16 -25,-32 -6,-15 -9,-37 -9,-65 0,-36 4,-63 11,-82 7,-19 17,-32 28,-39 12,-6 25,-9 41,-9 39,0 58,24 58,72 0,25 -2,44 -5,59 -25,5 -56,8 -95,8 0,23 4,39 11,48 6,9 17,13 31,13zm-4 -168c-23,0 -36,26 -38,77 27,1 48,-1 62,-5 2,-7 2,-16 2,-27 0,-17 -2,-29 -5,-35 -4,-7 -11,-10 -21,-10zm95 -12c19,-13 40,-20 61,-20 22,0 32,6 32,19 0,7 -1,14 -4,21 -6,-4 -14,-5 -22,-5 -11,0 -21,3 -30,10l0 179c0,3 -1,5 -2,5 -1,1 -5,2 -11,2 -6,0 -14,0 -24,0l0 -211zm157 204c0,3 -1,5 -2,5 -1,1 -5,2 -11,2 -6,0 -14,0 -24,0l0 -210c0,-6 1,-10 3,-12 2,-2 5,-4 10,-4 4,-1 12,-1 24,-1l0 220zm155 -204c0,7 -2,14 -5,21 -10,-6 -21,-9 -32,-9 -13,0 -24,6 -32,18 -9,13 -13,37 -13,73 0,21 1,37 4,49 3,12 7,20 13,24 6,5 14,7 24,7 14,0 26,-3 36,-10 2,8 4,15 4,20 0,6 -5,11 -15,16 -10,5 -22,7 -36,7 -16,0 -29,-3 -38,-9 -10,-6 -17,-17 -22,-33 -5,-17 -8,-40 -8,-71 0,-49 8,-82 23,-98 15,-17 34,-25 58,-25 11,0 20,2 28,6 7,4 11,8 11,14zm152 59c0,67 -1,114 -3,141 -17,11 -38,16 -65,16 -13,0 -24,-2 -32,-5 -9,-4 -17,-10 -22,-20 -6,-10 -9,-25 -9,-44 0,-29 6,-49 17,-59 11,-10 26,-16 44,-16 14,0 25,2 33,6l0 -36c0,-10 -2,-17 -6,-21 -5,-4 -12,-6 -22,-6 -23,0 -43,4 -60,11 -4,-7 -5,-14 -5,-22 0,-6 1,-10 5,-12 4,-3 13,-6 26,-8 13,-3 28,-4 43,-4 20,0 34,4 43,12 9,9 13,23 13,43l0 24zm-37 45c-5,-3 -13,-4 -21,-4 -11,0 -19,3 -25,9 -6,6 -10,19 -10,37 0,15 3,26 8,31 5,5 13,8 23,8 10,0 19,-2 24,-7 1,-11 1,-35 1,-74z"/>
   <g>
    <path class="fil2" d="M2421 153c488,2 887,378 926,855l-743 991c-61,12 -125,19 -189,18 -494,-2 -897,-387 -927,-872l748 -974c60,-12 122,-18 185,-18z"/>
    <path class="fil3" d="M2317 221c36,-26 71,-49 104,-68 -380,-2 -726,229 -869,587 -50,123 -72,258 -65,391 2,37 6,75 12,113 16,-34 33,-66 51,-96 18,-28 37,-76 64,-94 35,-24 69,-17 101,7 49,39 166,149 226,155 24,2 37,-16 32,-37 -6,-25 -34,-55 -70,-83 -57,-47 -124,-97 -145,-120 -25,-27 -30,-48 -24,-74 9,-42 50,-102 69,-134 15,-23 32,-48 50,-73l-1 0c123,-173 313,-377 420,-440l0 0 45 -34z"/>
    <path class="fil3" d="M2519 1949c-36,26 -71,49 -104,68 380,2 726,-229 869,-587 48,-119 72,-252 65,-391 -2,-38 -6,-76 -12,-113 -16,34 -33,66 -51,96l-26 40c-17,25 -47,85 -69,101 -35,23 -69,16 -101,-8 -49,-39 -166,-148 -226,-155 -24,-2 -37,16 -32,37 5,25 34,55 69,84 58,46 125,96 146,119 38,41 30,70 6,121 -83,177 -347,471 -489,554l0 0 -45 34z"/>
    <path class="fil4" d="M3088 574c-5,-6 -4,-15 2,-19 6,-5 15,-4 20,2 51,67 92,141 122,221 29,77 48,160 54,246 17,240 -65,464 -211,632 -146,168 -357,280 -596,297 -240,17 -464,-65 -632,-211 -168,-146 -280,-357 -297,-596 -17,-240 65,-464 211,-632 146,-167 356,-279 594,-297l7 0c100,-7 197,4 288,29 96,27 186,70 266,126 7,4 8,13 4,19 -5,6 -13,8 -19,4 -78,-55 -165,-96 -258,-122 -90,-25 -185,-35 -284,-28 -232,16 -435,125 -577,287 -141,163 -221,380 -204,612 16,232 125,435 287,577 163,141 380,221 612,204 232,-16 435,-125 577,-287 141,-163 221,-380 204,-612 -6,-84 -24,-164 -52,-238 -29,-78 -69,-150 -118,-214z"/>
    <path class="fil5" d="M1960 902l0 0c3,173 52,291 217,341 31,10 63,16 96,18 63,5 98,3 157,3 93,1 215,34 209,139 1,-6 2,-13 3,-19l0 -1 0 0c0,-1 0,-2 0,-3l0 -1 0 -1 0 -1 0 0c0,-1 1,-2 1,-4l0 0 0 -1 0 0 0 -1 0 0 0 -1 0 -2 0 0 0 0 0 -1 0 -1 0 0 0 0 0 -1 0 -1 0 0 0 -1 0 0 -1 -1 0 0 0 -1 0 0 0 -1 0 0 0 -1 0 0 0 -1 0 0 0 -2 0 0 0 -1 0 0 0 -1 0 0 0 -1 0 0 0 -1 0 0 0 -1 0 0 0 -1 -1 0 0 -1 0 0 0 -1 0 0 0 -1 0 -2 0 0 0 -1 0 -1 -1 0 0 -1 0 0 0 -1 0 0 0 -1 0 0 0 -1 0 0 -1 -1 0 0 0 -1 0 -1 0 -2 0 -1 0 0 -1 -1 0 -1 0 -1 -1 -1 0 0 0 -1 0 -1 0 0 0 -1 -1 -1 0 -1 0 -1 -1 -1 0 -1 0 -1 0 0 -1 -1 0 0 0 -1 0 0 0 -1 0 0 -1 -1 0 0 0 -1 -1 -1 0 -1 0 0 0 -1 -1 -1 0 -1 -1 -1 0 -1 -1 -1 0 -1 0 0 -1 -1 0 -1 0 0 0 -1 -1 -1 0 0c0,-1 -1,-2 -1,-2l0 0 -1 -1 0 -1 -1 -1 0 -1 -1 -1 0 -1 -1 -1 0 0 0 -1 0 0 -1 -1 -1 -1 0 -1 -1 -1 0 0 0 -1 0 0 -1 -1 0 0 -1 -1 0 -1 0 0 -1 0 0 0 -1 -1 0 0 0 -1 0 0 -1 -1 0 0 -1 -1 0 0 0 -1 0 0 -1 -1 0 0 -1 -1 0 0 0 -1 0 0 -1 -1 0 0 -1 0 0 0 -1 -1 0 0c0,-1 -1,-1 -1,-2l0 0c-1,-1 -1,-1 -2,-2l0 0c0,0 -1,-1 -1,-2l0 0 -2 -1 0 0c0,-1 -1,-1 -2,-2l0 0c0,-1 -1,-1 -1,-2l0 0c-1,0 -2,-1 -2,-1l0 0c-1,-1 -1,-2 -2,-2l0 0c-1,-1 -1,-1 -2,-2l0 0c0,0 -1,-1 -2,-1l0 0c0,-1 -1,-1 -2,-2l0 0c0,-1 -1,-1 -2,-2l0 0c0,0 -1,-1 -1,-1l0 0c-1,-1 -2,-1 -3,-2l0 0c0,0 -1,-1 -2,-1l0 0c0,-1 -1,-1 -2,-2l0 0c0,0 -1,-1 -2,-1l0 0c-1,-1 -1,-1 -2,-2l0 0c-1,0 -1,-1 -2,-1l0 0c-1,0 -2,-1 -2,-1l0 0c-1,-1 -2,-1 -3,-2l0 0c-1,0 -1,-1 -2,-1l0 0c-1,-1 -2,-1 -2,-1l0 0c-1,-1 -2,-1 -3,-2l0 0c-1,0 -1,-1 -2,-1l0 0c-1,0 -2,-1 -3,-1l0 0c-1,-1 -1,-1 -2,-2l0 0c-1,0 -2,0 -3,-1l0 0c-1,0 -2,-1 -2,-1l0 0c-1,0 -2,-1 -3,-1l0 0c-1,0 -2,-1 -3,-1l0 0c-1,-1 -2,-1 -2,-1l0 0c-1,-1 -2,-1 -3,-1l0 0c-1,-1 -2,-1 -3,-1l0 0c-1,-1 -2,-1 -3,-1l0 0c-1,-1 -2,-1 -3,-1l0 0 -3 -1 0 0c-1,-1 -1,-1 -2,-1l0 0c-1,-1 -2,-1 -3,-1l0 0c-1,0 -2,-1 -3,-1l0 0c-1,0 -3,-1 -4,-1l0 0c-1,0 -2,0 -3,-1l0 0c-1,0 -2,0 -3,0l0 0c-1,-1 -2,-1 -3,-1l0 0c-1,0 -2,-1 -3,-1l0 0c-1,0 -2,0 -3,-1l0 0 -4 0 0 0c-1,0 -2,-1 -3,-1l0 0c-1,0 -2,0 -3,0l0 0c-2,-1 -3,-1 -4,-1l0 0c-1,0 -2,0 -3,0l0 0c-1,-1 -3,-1 -4,-1l0 0c-1,0 -2,0 -3,0l0 0c-2,0 -3,-1 -4,-1l0 0 -4 0 0 0c-1,0 -2,0 -3,0l0 0c-1,-1 -3,-1 -4,-1l0 0c-1,0 -2,0 -4,0l0 0c-1,0 -2,0 -3,0l0 0c-2,0 -3,0 -4,0l0 0c-2,0 -3,-1 -4,-1l0 0c-1,0 -3,0 -4,0l0 0c-1,0 -3,0 -4,0l0 0c-1,0 -3,0 -4,0l0 0 -3 0 0 0 -2 0 0 0 -3 0 0 0 -3 0 0 0 -2 0 -3 0 0 0 -3 0 -2 0 0 0 -3 0 -2 0 0 0 -3 0 -2 0 -3 0 -2 0 -2 0 0 0 -3 0 0 0 -2 0 -2 0 0 0 -3 0 0 0 -2 0 0 0 -2 0 -3 0 -2 0 0 0 -2 0 0 0 -2 0 0 0 -3 0 0 0 -2 0 -2 0 -2 0 -3 0 0 0 -2 0 0 0 -2 0 -2 0 0 0 -3 0 0 0 -2 0 0 0 -2 0 -2 0 -1 0 -2 0 -2 0 0 0 -2 0 0 0 -3 0 0 0 -2 0 0 0 -2 0 0 0 -3 0 0 0 -2 0 0 0 -3 0 0 0 -2 0 -2 0 0 0 -3 -1 0 0 -2 0 0 0 -3 0 0 0 -2 0 -3 0 0 0 -3 0 0 0 -2 0 0 0 -3 0 0 0 -2 -1 -1 0 -2 0 -3 0 0 0 -3 0 0 0 -3 0 0 0 -2 0 0 0 -3 -1 0 0 -3 0 0 0 -2 0 0 0 -1 0 0 0 -2 0 0 0 -1 0 0 0 -2 -1 0 0 -2 0 -1 0 0 0 -2 0 0 0 -1 0 0 0 -2 0 -1 0 0 0 -2 -1 0 0 -1 0 -2 0 -1 0 -3 -1 0 0 -2 0 0 0 -1 0 -2 0 0 0 -1 0c-2,-1 -3,-1 -5,-1l-1 0 0 0 -2 -1 -1 0 0 0 -2 0 -1 0 -2 -1 0 0 -1 0 -3 0 0 0 -2 -1 0 0 -1 0 0 0 -2 0 -1 -1 0 0 -2 0 0 0 -1 0 -2 -1 -1 0 0 0 -2 0 0 0 -1 -1 -2 0 -1 0 0 0 -2 -1 0 0 -1 0 -2 0 -1 -1 0 0 -2 0 0 0 -1 0 -2 -1 -1 0 -2 -1 -1 0 -2 0 0 0 -1 -1 -2 0 -1 -1 -2 0 -1 -1 0 0 -2 0 -1 0 -2 -1c-2,-1 -5,-1 -7,-2l-3 -1c-2,-1 -4,-2 -6,-2l-1 -1c-3,-1 -6,-2 -8,-3l-2 -1c-2,0 -4,-1 -6,-2l-2 -1c-2,-1 -4,-2 -7,-3l-1 -1c-2,-1 -4,-2 -6,-3l-2 -1c-2,-1 -5,-2 -7,-4l-1 0c-2,-1 -4,-2 -6,-4l-2 -1c-2,-1 -4,-2 -7,-4l0 0c-2,-1 -4,-3 -6,-4l-2 -1c-2,-2 -4,-3 -6,-4l0 -1c-3,-1 -5,-3 -7,-4l-1 -2c-2,-1 -4,-2 -5,-3l-2 -1c-2,-2 -3,-4 -5,-5l-2 -2c-1,-1 -3,-2 -4,-4l-2 -1c-2,-2 -4,-3 -5,-5l-2 -1c-1,-2 -3,-3 -4,-4l-2 -2c-1,-2 -3,-4 -5,-5l-1 -2c-1,-1 -3,-3 -4,-4l-1 -2c-2,-2 -3,-3 -5,-5l-1 -1c-1,-2 -3,-4 -4,-5l-2 -2c-1,-2 -2,-3 -3,-5 0,0 -1,-1 -1,-1 -2,-2 -3,-4 -4,-6l-2 -2c-1,-2 -2,-3 -3,-5l-1 -2c-2,-1 -3,-3 -4,-5l-2 -3c0,-1 -1,-3 -2,-4l-1 -2c-2,-2 -3,-4 -4,-6 0,-1 -1,-2 -1,-3 -1,-1 -2,-2 -2,-4l-2 -3c-1,-1 -2,-3 -2,-5 -1,-1 -1,-2 -2,-3 -1,-1 -1,-3 -2,-4l-1 -3c-1,-2 -2,-3 -2,-5 -1,-1 -1,-2 -2,-4 -1,-1 -1,-3 -2,-4 0,-1 -1,-2 -1,-3 0,-2 -1,-3 -2,-4 0,-1 0,-2 -1,-3 0,-2 -1,-4 -2,-6 0,-1 0,-3 -1,-4 0,-1 -1,-2 -1,-3 0,-2 -1,-3 -1,-4 -1,-2 -1,-4 -2,-6 0,-1 0,-2 -1,-3 0,-1 0,-3 -1,-4 0,-1 0,-2 0,-3 -1,-2 -1,-4 -2,-6 0,-1 0,-3 -1,-4 0,-1 0,-3 0,-4 -1,-1 -1,-2 -1,-3 0,-2 0,-3 -1,-5 0,-2 0,-3 -1,-5 0,-1 0,-3 0,-4 0,-1 0,-2 -1,-4 0,-1 0,-2 0,-4 0,-1 0,-3 -1,-4 0,-2 0,-4 0,-5 0,-2 0,-3 0,-4 0,-1 0,-3 -1,-4 0,-1 0,-2 0,-3l0 0zm-42 970c-18,-24 -14,-50 0,-75 4,-8 9,-16 15,-23 6,-8 12,-16 19,-24 43,-48 106,-137 146,-169l2 -1 0 0 1 -1 0 0 1 -1 0 0 1 -1 0 0 1 0 0 -1 1 0 0 0 2 -1 0 0 1 -1 0 0 1 0 0 0 1 -1 0 0 1 -1 0 0 0 0c1,0 2,0 2,-1l1 0 0 0 1 0 1 -1 0 0 1 0 0 0 1 -1 0 0 1 0 0 0c1,0 1,-1 2,-1l0 0 1 0 0 0 1 -1 0 0c1,0 2,0 3,0l0 0c1,-1 2,-1 3,-1l1 0 1 0 0 0c12,-1 23,2 36,10l0 -1c18,11 37,29 62,48 71,56 177,130 311,113 225,-27 426,-283 209,-536l0 0 0 0 0 0 0 0 1 1 0 0 0 0 0 0 0 0 0 0 0 0 0 1 0 0 0 0 1 0c0,1 1,2 2,3l0 0c9,15 17,30 23,45l1 2c6,16 12,32 15,49l0 0c1,1 1,2 1,3 0,2 1,3 1,5l0 0c0,1 1,3 1,4l0 0c0,2 0,3 1,5l0 0 0 2 0 0c0,1 0,3 1,4l0 0c0,2 0,5 0,7l0 0c1,2 1,4 1,6l0 0c0,2 0,3 1,5l0 0 0 2 0 2 0 0 0 3 0 0c0,1 0,3 0,4l0 0 0 2c0,2 1,3 1,5l0 0c0,1 0,3 0,4l0 0c0,2 0,5 0,7l0 2 0 0 0 2 0 0 -1 2 0 3 0 2 0 0 0 2 0 0 0 2 0 3 0 2 0 2 -1 2 0 3 0 2 0 2 -1 2 0 2 0 3 0 2 -1 2 0 2 0 2 -1 3 0 0 0 2 0 0 -1 2 0 2 0 2 0 0 -1 3 0 0 0 2 0 0 -1 2 0 0 0 2 0 0 -1 2 0 0 0 3 0 0 -1 2 0 0 0 2 0 0c-1,2 -1,3 -2,5l0 0c0,1 0,3 -1,4l0 0c0,2 -1,4 -1,5l0 0c-1,3 -2,6 -3,9 -1,2 -1,3 -2,5 0,2 -1,3 -2,5 0,1 -1,3 -1,4 -1,2 -2,3 -2,5 -1,3 -3,6 -4,9 -1,1 -1,3 -2,4l0 0c-1,2 -2,3 -2,5 -1,1 -2,3 -2,4l-1 0c-1,3 -3,6 -4,9 -2,3 -3,5 -5,8l0 0c-1,2 -2,3 -3,5l0 0c0,1 -1,2 -2,4 -1,1 -2,2 -3,4 -2,3 -4,5 -5,8 -1,1 -2,3 -3,4l0 0c-1,1 -2,3 -3,4 -1,1 -2,3 -3,4 -1,1 -2,3 -4,4l0 0c-1,1 -2,3 -3,4 -1,1 -2,2 -3,4l0 0c-1,1 -2,2 -3,3l0 0c-1,2 -3,3 -4,4 -1,1 -2,3 -3,4l0 0c-1,1 -2,2 -4,3l0 0c-1,2 -2,3 -3,4 -1,1 -3,2 -4,3 -1,2 -2,3 -4,4 -1,1 -2,2 -3,3 -2,1 -3,3 -4,4 -2,1 -3,2 -4,3l0 0c-2,1 -3,2 -4,3 -2,1 -3,2 -4,3l0 0c-2,1 -3,2 -5,3 -1,1 -2,3 -4,4 -1,1 -3,2 -4,3 -1,0 -3,1 -4,2l0 0c-2,1 -3,2 -5,3 -1,1 -3,2 -4,3l0 0c-2,1 -3,2 -5,3l0 0c-1,1 -3,2 -4,3 -2,0 -4,1 -5,2 -2,1 -3,2 -5,3l0 0c-1,0 -3,1 -5,2l0 0c-1,1 -3,2 -5,2l0 0c-1,1 -3,2 -5,3 -1,1 -3,1 -5,2l0 0c-1,1 -3,1 -5,2l0 0c-1,1 -3,2 -5,2l0 0c-1,1 -3,2 -5,2l0 0c-2,1 -3,2 -5,2l0 0c-2,1 -4,2 -6,2 -1,1 -3,1 -5,2l0 0c-2,0 -4,1 -5,2l0 0c-2,0 -4,1 -6,1l0 0c-2,1 -4,1 -6,2l0 0c-2,0 -4,1 -6,2l0 0c-3,0 -5,1 -7,1l0 0c-2,1 -5,1 -7,2l0 0c-2,0 -4,0 -6,1l-1 0c-2,0 -4,1 -6,1l0 0c-2,0 -4,1 -7,1l0 0c-2,0 -4,0 -6,1l0 0c-2,0 -4,0 -6,0l0 0c-2,0 -5,1 -7,1 -2,0 -4,0 -6,0 -2,0 -4,0 -6,0 -2,0 -4,0 -6,0 -2,0 -4,0 -6,0 -2,0 -4,0 -6,0 -2,0 -4,0 -6,0 -2,-1 -4,-1 -6,-1 -2,0 -4,0 -6,-1 -2,0 -3,0 -5,0l0 0c-2,-1 -4,-1 -6,-1l0 0c-2,0 -4,-1 -6,-1 -2,0 -3,-1 -5,-1 -2,-1 -4,-1 -6,-1 -2,-1 -3,-1 -5,-2 -2,0 -4,-1 -6,-1l0 0c-2,-1 -3,-1 -5,-2 -2,0 -4,-1 -5,-1 -2,-1 -4,-1 -6,-2 -1,-1 -3,-1 -5,-2 -2,-1 -3,-1 -5,-2 -2,0 -4,-1 -5,-2 -2,-1 -4,-1 -5,-2 -2,-1 -4,-1 -6,-2 -1,-1 -3,-2 -5,-2l0 0c-1,-1 -3,-2 -5,-3 -1,-1 -3,-1 -5,-2 -1,-1 -3,-2 -4,-3l0 0c-2,-1 -4,-2 -5,-2l0 0c-2,-1 -4,-2 -5,-3l0 0c-2,-1 -3,-2 -5,-3 -2,-1 -3,-2 -5,-3 -1,-1 -3,-1 -5,-2 -1,-1 -3,-2 -4,-3 -4,-2 -7,-4 -10,-6 -1,-1 -3,-2 -4,-4 -2,-1 -4,-2 -5,-3l0 0c-2,-1 -3,-2 -5,-3 -1,-1 -3,-2 -4,-3l0 0c-2,-1 -3,-2 -5,-3l0 0c-1,-1 -3,-3 -4,-4l0 0c-2,-1 -4,-2 -5,-3l0 0c-3,-2 -6,-5 -9,-7l-5 -3 0 0c-4,-4 -9,-7 -13,-11l0 0c-3,-2 -6,-4 -9,-7l0 0c-3,-2 -6,-5 -9,-7l0 0c-4,-3 -9,-7 -13,-11l-4 -3 0 0 -4 -3 0 0c-44,-40 -88,-88 -145,-31l-2 1 0 0c0,1 -1,1 -2,2l0 0 -1 1 0 0 -2 2 0 0 -1 1 0 0 -2 2 0 0 -1 2 0 0 -2 1 0 0 -1 2 0 0 -2 2 0 0 -1 2 0 0 -19 23 0 0 -149 186 -2 2 -8 11c-3,3 -5,6 -8,9 -1,2 -2,4 -3,6 0,0 0,0 0,0 -1,1 -1,1 -1,1 -12,23 -9,49 8,70l20 17 19 13zm249 -869c-71,-124 46,-248 162,-183 66,38 115,101 177,135 92,49 219,62 315,-124l-1 1 0 0 -1 1 0 1 0 0 -1 1 -1 0 0 1 0 0 -1 1 0 0 0 1 -1 1 -1 0 0 0 -1 2 0 0 -1 1 0 1 0 0 -1 0 -3 4 0 0 0 1 -1 1 -1 1 0 1 0 0 -1 0 -1 1 0 0 0 1 -1 0 0 1 0 0 -1 1 0 0 0 0 -1 1 0 0 0 1 -1 0 0 1 0 0 -1 1 0 0 0 0 -1 1 0 0 0 0 -1 1 0 0 0 1 0 0 -1 0 0 1 0 0 -1 0 0 1 0 0 0 0 -1 1 0 0 0 0 0 1 0 0 -1 0 0 0 0 1 -1 0 0 0 0 0 0 1 0 0 -1 0 0 0 0 0 0 1 0 0 -1 0 0 0 0 1c-99,89 -199,74 -296,8 -1,0 -3,-1 -4,-2 -10,-7 -17,-15 -24,-21 -13,-10 -24,-17 -39,-30 -4,-3 -8,-6 -12,-9l0 0c-57,-46 -99,-90 -170,-79l0 0c-1,1 -2,1 -3,1l-1 0c-1,0 -2,0 -3,1l-1 0 -2 1c-1,0 -3,0 -4,0l-2 1 -2 1 -2 0 -2 1 -1 0 -2 1 -2 1 -2 0 -2 1 -2 1 -1 0 -2 1 -2 1 -2 1 -1 1 -2 0 -2 1 -2 1 -1 1 -2 1 -2 1 -1 1 -2 1 -1 1 -2 1 -2 1 -1 1 0 0 -2 1 -1 1 -2 1 0 0 -1 1 0 0 -2 1 -1 2 -2 1 0 0 -1 1 0 0 -2 1 -1 1 -1 2 -2 1 0 0 -1 1 0 0 -1 1 -2 2 -1 1 0 0 -1 1 -2 2 0 0c-2,2 -4,4 -6,6l-1 2 -1 1 0 0 -1 2 -1 1c-1,1 -2,2 -3,3 -1,2 -2,3 -3,5l0 0c0,1 -1,2 -2,3l0 0c-1,1 -2,3 -2,5 -1,1 -2,3 -3,4l0 0c-3,6 -6,12 -8,19 -1,1 -1,2 -2,3l0 0 0 2 0 0 -1 2c0,1 -1,2 -1,3l0 2 -1 2 0 0 0 2 -1 1 0 0 0 2 -1 2 0 2 0 0 0 2 0 0 -1 2 0 0 0 1 0 0 0 2 -1 2 0 0 0 2 0 0 0 2 0 2 0 2 -1 1 0 2 0 2 0 2 0 0 0 2 0 2 0 2 0 0 0 2 0 0 0 2 0 2 0 0 0 1 0 2 0 0 0 2 0 2 1 2 0 2 0 2 0 2 1 2 0 0 0 2 0 2 1 2 0 2 0 2 1 2 0 1 1 2 0 2 1 2 0 1 0 1 1 1 0 2 0 1 1 1 0 0 0 1 1 1 0 0 0 2 0 1 0 0 1 1 0 0 0 1 0 0 1 1 0 0 0 1 0 0 1 2 0 1 0 0 1 1 0 0 0 1 0 0 1 1 0 0 0 1 0 0 1 1 0 2 1 1 0 1 1 1 0 1 0 0 1 1 0 1 0 0 1 1 0 0 1 1 0 1 1 2 0 0 0 1 1 1 1 1 0 0 0 1 0 0 1 1 0 0 1 1 0 1 0 0 1 1 0 0 1 1 0 1 0 0 1 1 1 1 0 0 0 1 0 0 1 1 0 0 1 1 1 1 0 1 0 0 1 1 1 1 1 1 0 0 0 1 1 0 0 0 1 1 1 1 0 1 1 1 1 1 1 1 1 1 0 1 1 1 0 0 0 0 1 0 0 0 0 0 0 0 0 0 0 0 0 0 1 1 0 0 0 0 0 0 0 0 0 1 1 0 0 0 0 0 0 0 0 1 0 0 1 0 0 0 0 0 0 0 0 0 0 0 0 0 0 0 0 1 0 0 0 0 1 0 0 0 0 0 0 0 0 0 0 0 0 0 0 1 0 0 0 0 0 0 1 0 0 0 0 0 0 0 0 0 0 0 0 0 0 1 0 0 0 0 1 0 0 0 0 0 0 0 0 0 0 0z"/>
    <path class="fil0" d="M1894 1856c-36,-24 -40,-69 -11,-100l178 -222c31,-39 68,-57 113,-25 18,13 38,29 57,44 94,77 190,154 336,115 120,-32 197,-121 223,-222 12,-46 13,-95 3,-142 -10,-47 -31,-93 -65,-132 -165,-175 -324,-83 -503,-135 -24,-8 -47,-22 -65,-40 -17,-19 -31,-42 -38,-69 -11,-41 -4,-83 16,-116 19,-34 52,-61 93,-72 79,-21 123,28 183,77 19,15 44,34 69,54 100,79 217,95 307,-1 9,-9 60,-78 65,-82 9,-5 20,6 26,11 23,21 53,15 65,-16l36 -149c7,-28 16,-56 -6,-75 -4,-3 -7,-6 -11,-9l34 -42 60 2c9,0 16,-7 17,-16 0,-9 -7,-17 -16,-17l-56 -2 -15 -54c-2,-9 -11,-14 -20,-11 -8,2 -14,11 -11,20l16 57 -8 10 0 0 -26 33c-3,-2 -5,-4 -8,-7 -14,-11 -30,-13 -46,-8 -9,2 -18,8 -28,13l-138 68c-23,13 -33,42 -15,64 14,16 38,15 16,44l-31 39c-33,43 -64,35 -98,12 -23,-15 -46,-34 -68,-51 -98,-79 -185,-148 -345,-105 -83,22 -138,65 -177,134 -100,172 -13,396 177,454 32,10 64,16 97,18 63,5 97,3 157,3 86,1 143,27 175,66 16,18 26,40 31,63 5,23 5,47 -1,70 -13,49 -51,93 -111,109 -70,19 -134,-33 -197,-85 -35,-28 -72,-58 -112,-79 -44,-22 -88,-31 -133,-22 -28,4 -54,16 -79,33 -41,30 -73,80 -106,120 -36,46 -170,196 -183,238 -5,16 -8,32 -8,49 0,90 73,162 162,162 36,0 68,-11 95,-31l0 0 1 0 0 0c-19,-10 -28,-16 -46,-27 -10,-6 -19,-12 -27,-18zm952 -1221c-14,0 -25,-10 -25,-24 -1,-13 10,-25 23,-25 14,0 25,10 25,24 1,13 -10,24 -23,25z"/>
    <path class="fil6" d="M2533 1643c-105,28 -184,-4 -255,-53 80,62 167,110 289,78 120,-32 197,-121 223,-222 12,-46 13,-95 3,-142 -8,-36 -22,-72 -44,-104 -6,-10 -13,-19 -21,-28 -20,-23 -44,-44 -72,-62 14,12 27,24 38,37 33,40 55,85 65,133 10,46 8,95 -3,141 -26,101 -103,190 -223,222zm288 -874c-69,96 -153,195 -289,135 36,20 73,31 109,32 53,2 104,-18 148,-66 0,0 0,0 1,0 0,0 0,0 0,0 0,0 0,-1 0,-1 5,-4 16,-19 29,-35 16,-21 33,-44 36,-46 9,-5 20,6 26,11 23,21 53,15 65,-16l28 -117c1,-4 -46,131 -94,91 -18,-15 -40,-10 -59,12zm-699 159c-11,-41 -4,-83 16,-116 19,-34 52,-61 93,-72 57,-15 96,6 135,37 -85,-101 -208,-73 -259,6 -44,67 -32,168 70,228 -4,-2 -7,-5 -10,-8 -2,-2 -5,-4 -7,-6 -17,-19 -31,-42 -38,-69zm835 -419l-17 21 25 20 17 -21c-7,2 -23,-11 -25,-20zm-1082 1257c2,-3 4,-7 7,-10l9 -11 170 -211c29,-37 64,-55 104,-31 -9,-7 -17,-13 -25,-19 -45,-32 -82,-14 -113,25l-167 207 -12 15c-1,2 -3,4 -4,6 -21,26 -18,61 5,85 4,4 7,7 12,10 1,1 2,2 4,3 7,6 16,12 25,18 -28,-23 -34,-59 -15,-87z"/>
    <path class="fil7" d="M2052 667c41,19 61,28 93,53 4,-36 -3,-70 -16,-104 -30,13 -55,30 -77,51zm456 152c39,-7 75,-27 103,-53 0,0 0,0 0,0 -6,-3 -13,-6 -19,-11 -18,-12 -37,-27 -55,-41 -4,44 -12,70 -29,105zm-75 389c33,0 61,4 86,11 -2,-5 -4,-10 -6,-15 -13,-32 -17,-57 -19,-90 -24,20 -42,44 -55,72 -3,7 -7,14 -9,22 1,0 2,0 3,0zm-140 -2c34,2 60,2 89,2 -19,-33 -25,-60 -32,-99 -27,27 -48,60 -57,97zm-114 -19c19,6 38,10 56,13 -1,-6 -3,-13 -4,-19 -6,-31 -6,-55 -3,-86 -30,17 -54,42 -71,71 -2,3 -4,7 -6,11 9,4 18,7 28,10zm-218 -280c38,-18 64,-24 102,-28 -26,-29 -59,-49 -95,-60 -7,27 -9,55 -8,83 0,1 0,3 1,5zm19 -129c41,1 64,0 101,9 -12,-36 -29,-62 -56,-89 -9,11 -16,23 -23,35 -9,15 -16,30 -22,45zm-71 857c-6,-37 -27,-74 -50,-102 -20,23 -40,48 -61,72 20,2 41,5 56,9 19,5 36,12 55,21zm-29 -127l20 -25c12,-15 24,-31 37,-47 23,28 46,66 52,102 -35,-17 -64,-26 -109,-30zm369 -138c-4,47 -12,73 -29,109 40,-7 74,-27 103,-53 -23,-19 -48,-39 -74,-56l0 0zm103 79c-2,46 -9,72 -25,108 39,-8 73,-29 101,-56 -26,-13 -51,-32 -76,-52zm284 -35c-9,29 -27,55 -52,75 44,2 78,5 114,21 -8,-39 -30,-71 -62,-96zm-232 -671c38,-6 77,-26 106,-51 -25,-20 -50,-39 -76,-55 -4,45 -13,71 -30,106z"/>
   </g>
  </g>
 </g>
</svg>
