<?xml version="1.0" encoding="UTF-8"?>
<!DOCTYPE svg PUBLIC "-//W3C//DTD SVG 1.1//EN" "http://www.w3.org/Graphics/SVG/1.1/DTD/svg11.dtd">
<!-- Creator: CorelDRAW X7 -->
<svg xmlns="http://www.w3.org/2000/svg" xml:space="preserve" width="48.4292mm" height="33.8666mm" version="1.1" style="shape-rendering:geometricPrecision; text-rendering:geometricPrecision; image-rendering:optimizeQuality; fill-rule:evenodd; clip-rule:evenodd"
viewBox="0 0 4843 3387"
 xmlns:xlink="http://www.w3.org/1999/xlink">
 <defs>
  <style type="text/css">
   <![CDATA[
    .fil0 {fill:#181818}
   ]]>
  </style>
 </defs>
 <g id="Capa_x0020_1">
  <metadata id="CorelCorpID_0Corel-Layer"/>
  <g>
   <path class="fil0" d="M938 759c460,2 841,337 917,775l0 0c6,37 10,75 12,113 7,140 -17,272 -65,392 -119,298 -379,508 -681,570l-1 0c-49,10 -101,16 -153,18l-1 0c-6,0 -11,0 -17,0l-1 0c-6,0 -11,0 -17,0 -169,0 -328,-46 -464,-125 -10,-6 -18,-11 -30,-18 -10,-7 -21,-13 -31,-20 -30,-23 -35,-60 -15,-89 164,131 377,204 604,188 233,-17 443,-122 597,-298 212,-247 270,-575 158,-879 -30,-80 -72,-155 -123,-221 -4,-6 -13,-7 -19,-3 -6,5 -7,13 -3,19 49,65 90,137 119,214 25,69 46,154 51,227 2,25 -11,48 -24,68 -11,18 -33,59 -50,71 -14,9 -27,13 -41,12l0 0c-15,-1 -30,-8 -45,-19l0 0c-10,-8 -23,-19 -37,-31 -59,-49 -144,-121 -196,-127 -6,0 -11,0 -16,1 -9,2 -16,6 -21,13 -5,6 -8,13 -9,22 -1,5 0,10 1,16 3,15 13,30 26,46l0 0c13,15 30,30 48,44 20,17 39,32 57,46 39,31 74,58 88,73 16,18 23,33 23,48 -1,16 -8,35 -19,59 -41,87 -126,202 -218,306 -70,80 -184,198 -277,250 -7,3 -14,7 -22,10 -12,3 -36,4 -50,5 -220,16 -426,-55 -585,-182l168 -210c32,-39 69,-57 113,-25 19,13 38,29 58,44 94,77 190,154 337,115 120,-32 197,-121 223,-222 12,-47 13,-95 3,-142 -10,-47 -32,-93 -65,-133 -165,-175 -325,-83 -504,-135 -24,-8 -47,-21 -65,-40 -18,-19 -31,-42 -38,-69 -11,-41 -4,-83 15,-117 20,-34 53,-60 94,-71 79,-21 124,28 184,76 19,16 44,35 69,55 100,79 217,95 307,-1 9,-9 60,-79 65,-82 9,-5 20,6 26,11 23,21 54,14 66,-16l35 -149c7,-29 17,-57 -6,-76 -3,-3 -7,-6 -10,-9l33 -42 60 2c9,0 17,-7 17,-16 1,-9 -7,-16 -16,-17l-56 -2 -14 -54c-3,-9 -12,-14 -20,-11 -9,2 -14,11 -12,20l16 57 -8 10 0 0 -26 33c-3,-2 -5,-4 -8,-6 -14,-12 -30,-14 -46,-9 -9,3 -18,8 -28,13l-138 69c-23,12 -34,42 -15,64 13,16 37,15 15,43l-30 39c-27,35 -52,37 -79,24l-2 1c-28,26 -63,45 -102,52 17,-35 26,-61 30,-105l-13 -11 -15 -11c-29,25 -67,44 -106,51 17,-35 26,-62 30,-107 -69,-44 -144,-67 -255,-38 -18,5 -35,11 -50,17 12,34 20,68 16,105 -32,-25 -53,-34 -93,-53 -10,9 -19,20 -28,31 27,26 45,53 57,89 -38,-9 -60,-9 -102,-9 -5,13 -9,27 -12,40 36,12 70,31 95,61 -37,4 -64,10 -102,28 7,115 77,223 190,270 2,-4 4,-7 7,-11 17,-28 40,-53 70,-71 -3,32 -2,56 4,86 1,7 3,13 4,20 14,2 27,4 41,5 6,0 12,0 18,1l-1 0c9,-37 30,-71 57,-98 7,39 13,66 32,100 15,0 30,0 48,0l0 0c3,-8 6,-16 9,-23 13,-27 31,-52 56,-71 2,33 6,58 18,90 2,5 4,10 6,15l0 0c40,11 70,31 90,54 16,19 26,41 31,63 5,24 4,48 -2,71 0,2 -1,5 -2,7 32,25 54,57 63,96 -36,-16 -70,-19 -115,-21 -15,12 -34,21 -56,27 -35,9 -68,1 -100,-15 -28,27 -62,48 -101,56 16,-35 23,-62 25,-108 -8,-6 -15,-12 -22,-18l-7 -5c-29,26 -63,46 -103,53 17,-36 25,-63 29,-109l0 0c-10,-7 -21,-13 -32,-18 -43,-23 -88,-31 -133,-23 -27,5 -53,16 -78,34 -26,19 -49,46 -70,73 23,28 47,66 53,102 -35,-17 -65,-26 -110,-30l0 -1c-6,8 -13,17 -21,26l0 0c24,28 44,65 50,103 -19,-10 -36,-17 -55,-22 -15,-4 -35,-7 -55,-9 -8,9 -15,18 -22,27 -113,-133 -180,-291 -198,-465 -4,-42 -5,-44 20,-80 6,-10 12,-17 22,-24 14,-10 28,-13 41,-12l0 0c15,1 30,8 45,19l0 0c10,8 23,19 37,31 59,49 145,121 196,126 6,1 11,1 16,0 9,-2 16,-7 21,-13 5,-6 9,-14 9,-22 1,-5 1,-11 -1,-16 -3,-15 -12,-30 -26,-46l0 0c-13,-15 -29,-30 -48,-45 -19,-16 -39,-31 -57,-45 -39,-31 -74,-58 -87,-73 -11,-12 -18,-23 -21,-33 -3,-10 -3,-20 0,-31 8,-34 40,-85 60,-118l8 -12 0 0c7,-11 15,-23 23,-35 8,-12 17,-25 26,-38l15 -22 0 0c53,-72 116,-148 179,-217 62,-66 147,-152 223,-199 30,-19 47,-17 80,-20 99,-6 194,4 284,29 94,26 181,67 259,122 6,4 14,2 19,-4 4,-6 3,-15 -3,-19 -81,-56 -171,-99 -267,-126 -92,-25 -189,-36 -289,-30l-6 1c-235,18 -441,121 -596,297 -216,251 -274,597 -148,904 36,87 85,167 147,238 -16,21 -29,39 -37,53 -114,-128 -194,-287 -224,-464l0 0c-7,-37 -11,-75 -13,-113 -7,-133 16,-268 65,-391 120,-299 381,-510 686,-571l0 0c43,-8 87,-14 132,-16l0 0c6,-1 12,-1 17,-1l2 0c5,0 11,0 16,-1l1 0c6,0 12,0 18,0zm3900 986l-111 0 -31 -95 -171 0 -29 95 -112 0 169 -500c6,-18 16,-29 26,-36 9,-6 21,-10 35,-10 13,0 24,3 33,10 8,6 16,18 22,36l169 500zm-2588 560c0,3 -1,4 -2,5 -1,1 -5,2 -11,2 -6,0 -14,0 -25,0l0 -160 -76 0 0 153c0,3 0,4 -2,5 -1,1 -4,2 -11,2 -6,0 -15,0 -25,0l0 -324c0,-3 0,-4 1,-5 1,-1 5,-2 12,-2 6,0 14,0 25,0l0 135 76 0 0 -128c0,-3 0,-4 2,-5 1,-1 4,-2 10,-2 7,0 15,0 26,0l0 324zm171 -151c0,69 -1,118 -3,147 -17,11 -40,16 -68,16 -13,0 -24,-2 -34,-5 -9,-4 -17,-11 -22,-21 -6,-10 -9,-26 -9,-46 0,-30 6,-50 17,-61 12,-11 27,-17 46,-17 15,0 27,2 35,7l0 -38c0,-11 -3,-18 -7,-22 -5,-4 -12,-6 -23,-6 -24,0 -45,3 -63,11 -3,-7 -5,-14 -5,-23 0,-6 2,-10 5,-12 5,-4 14,-7 28,-9 14,-3 28,-4 45,-4 20,0 35,4 44,13 10,9 14,24 14,45l0 25zm-38 46c-6,-3 -14,-4 -22,-4 -12,0 -21,3 -27,10 -6,6 -9,19 -9,38 0,16 2,27 7,33 6,5 14,8 24,8 11,0 20,-3 25,-8 1,-11 2,-36 2,-77zm65 -113c-1,-3 -1,-5 -1,-5 0,-2 1,-4 3,-5 2,-1 6,-1 13,-1 7,0 15,-1 25,-1l15 77c5,20 9,43 12,69 4,26 6,43 7,51l1 0c1,-8 3,-25 7,-51 3,-26 7,-49 11,-70l13 -67c0,-3 1,-5 3,-6 1,-1 5,-2 11,-2 7,0 15,-1 26,-1l-54 239c-5,1 -14,1 -27,1 -8,0 -13,-8 -17,-23l-48 -205zm299 67c0,69 -1,118 -3,147 -18,11 -40,16 -68,16 -13,0 -25,-2 -34,-5 -9,-4 -17,-11 -23,-21 -5,-10 -8,-26 -8,-46 0,-30 5,-50 17,-61 11,-11 27,-17 46,-17 15,0 26,2 35,7l0 -38c0,-11 -3,-18 -7,-22 -5,-4 -13,-6 -23,-6 -24,0 -45,3 -63,11 -3,-7 -5,-14 -5,-23 0,-6 2,-10 5,-12 5,-4 14,-7 28,-9 13,-3 28,-4 45,-4 20,0 35,4 44,13 9,9 14,24 14,45l0 25zm-38 46c-6,-3 -14,-4 -23,-4 -11,0 -20,3 -26,10 -6,6 -10,19 -10,38 0,16 3,27 8,33 5,5 13,8 24,8 11,0 20,-3 25,-8 1,-11 2,-36 2,-77zm77 -113c10,-5 22,-8 36,-12 14,-3 27,-4 39,-4 25,0 42,5 52,14 10,10 14,26 14,49l0 171c0,3 0,4 -1,5 -2,1 -6,2 -12,2 -7,0 -15,0 -26,0l0 -166c0,-16 -2,-27 -6,-33 -3,-6 -11,-9 -22,-9 -14,0 -26,3 -36,8l0 193c0,3 0,4 -2,5 -1,1 -5,2 -11,2 -6,0 -15,0 -25,0l0 -225zm310 67c0,69 -1,118 -3,147 -17,11 -40,16 -68,16 -13,0 -25,-2 -34,-5 -9,-4 -17,-11 -23,-21 -5,-10 -8,-26 -8,-46 0,-30 5,-50 17,-61 11,-11 27,-17 46,-17 15,0 26,2 35,7l0 -38c0,-11 -3,-18 -7,-22 -5,-4 -13,-6 -23,-6 -24,0 -45,3 -63,11 -3,-7 -5,-14 -5,-23 0,-6 2,-10 5,-12 5,-4 14,-7 28,-9 13,-3 28,-4 45,-4 20,0 35,4 44,13 9,9 14,24 14,45l0 25zm-38 46c-6,-3 -14,-4 -23,-4 -11,0 -20,3 -26,10 -6,6 -10,19 -10,38 0,16 3,27 8,33 5,5 13,8 24,8 11,0 20,-3 25,-8 1,-11 2,-36 2,-77zm76 87c0,-8 2,-13 7,-18 4,-5 10,-7 17,-7 17,0 26,9 26,28 0,11 -3,22 -7,32 -5,11 -11,20 -17,28 -6,7 -10,11 -13,11 -9,0 -14,-4 -15,-11 5,-8 8,-15 10,-21 1,-5 3,-12 3,-19 -7,-5 -11,-13 -11,-23zm249 -311c15,0 27,3 34,8 7,5 10,11 10,18 0,9 -2,16 -6,23 -10,-8 -20,-12 -31,-12 -12,0 -22,4 -31,12 -8,7 -16,21 -21,42 -6,22 -8,52 -8,91 0,31 1,55 5,72 4,17 9,29 16,35 7,7 16,10 26,10 9,0 17,-2 25,-5 8,-3 14,-6 19,-10 4,8 6,16 6,23 0,9 -6,17 -17,24 -11,7 -25,10 -42,10 -17,0 -31,-4 -42,-11 -12,-8 -21,-23 -27,-46 -6,-22 -10,-56 -10,-100 0,-50 5,-89 14,-116 9,-27 20,-45 34,-54 13,-9 29,-14 46,-14zm216 324c-21,11 -44,17 -71,17 -18,0 -33,-3 -43,-9 -10,-5 -17,-14 -21,-25 -4,-11 -6,-26 -6,-45l0 -155c0,-3 0,-5 2,-6 1,-1 4,-1 11,-1 6,0 15,-1 26,-1l0 167c0,16 2,27 7,33 4,6 12,9 25,9 13,0 24,-3 32,-9l0 -192c0,-3 1,-5 2,-6 1,-1 5,-1 11,-1 6,0 15,-1 25,-1l0 225zm45 -318c0,-6 0,-11 2,-13 2,-2 6,-4 10,-4 5,-1 13,-1 25,-1l0 123c15,-11 32,-16 51,-16 20,0 34,7 44,21 10,14 14,38 14,72 0,61 -8,102 -26,122 -17,21 -39,31 -66,31 -25,0 -43,-5 -54,-14l0 -321zm37 295c5,4 13,6 23,6 11,0 22,-7 30,-23 9,-16 14,-45 14,-88 0,-25 -3,-42 -8,-52 -6,-10 -14,-15 -25,-15 -14,0 -25,5 -34,14l0 158zm272 -123c0,69 -1,118 -3,147 -17,11 -40,16 -68,16 -13,0 -24,-2 -34,-5 -9,-4 -17,-11 -22,-21 -6,-10 -9,-26 -9,-46 0,-30 6,-50 17,-61 12,-11 27,-17 46,-17 15,0 27,2 35,7l0 -38c0,-11 -2,-18 -7,-22 -5,-4 -12,-6 -22,-6 -25,0 -46,3 -63,11 -4,-7 -6,-14 -6,-23 0,-6 2,-10 6,-12 4,-4 13,-7 27,-9 14,-3 29,-4 45,-4 21,0 35,4 45,13 9,9 13,24 13,45l0 25zm-38 46c-6,-3 -14,-4 -22,-4 -12,0 -21,3 -27,10 -6,6 -9,19 -9,38 0,16 2,27 7,33 6,5 14,8 24,8 11,0 20,-3 25,-8 1,-11 2,-36 2,-77zm76 87c0,-8 2,-13 7,-18 5,-5 10,-7 17,-7 17,0 26,9 26,28 0,11 -2,22 -7,32 -5,11 -10,20 -16,28 -6,7 -11,11 -14,11 -9,0 -14,-4 -15,-11 5,-8 8,-15 10,-21 2,-5 3,-12 4,-19 -8,-5 -12,-13 -12,-23zm150 25c-2,-3 -2,-7 -2,-12 0,-6 0,-11 2,-14 1,-4 4,-10 9,-19 12,-19 30,-43 54,-71 19,-23 33,-41 42,-55 9,-14 13,-29 13,-44 0,-22 -12,-32 -37,-32 -12,0 -25,1 -38,4 -13,3 -23,7 -31,12 -3,-7 -5,-16 -5,-28 0,-4 4,-7 12,-11 7,-4 18,-8 31,-10 13,-3 26,-4 41,-4 26,0 44,5 55,16 10,11 15,27 15,49 0,13 -3,26 -8,39 -5,13 -12,25 -20,36 -8,10 -20,25 -34,42 -22,26 -39,48 -51,66l64 0c11,0 22,0 33,-1 12,-1 20,-2 23,-2 0,15 0,26 -1,31 -1,6 -3,8 -7,8l-160 0zm196 -140c0,-48 6,-84 20,-108 14,-24 36,-36 66,-36 30,0 51,11 64,33 14,21 20,55 20,100 0,53 -6,92 -19,118 -13,25 -36,38 -68,38 -31,0 -53,-12 -65,-36 -12,-23 -18,-59 -18,-109zm41 3c0,26 1,47 4,63 3,15 7,27 13,34 7,6 15,10 26,10 17,0 29,-10 36,-29 7,-19 10,-50 10,-93 0,-34 -3,-58 -9,-74 -6,-16 -18,-24 -33,-24 -18,0 -30,9 -37,28 -7,19 -10,47 -10,85zm218 -108c-16,2 -37,7 -53,11 -4,-7 -6,-19 -6,-29 0,-2 6,-5 18,-9 12,-3 26,-7 41,-10 15,-3 25,-4 30,-4 5,0 9,1 11,2 0,85 -1,173 -1,258 0,5 2,22 -2,25 0,1 -2,2 -5,2 -10,0 -27,-1 -32,-1l-1 -245zm246 -40c1,4 1,9 1,14 0,8 0,15 -2,19 -37,76 -57,154 -57,238 0,17 -9,14 -24,14 -7,0 -9,0 -16,0 1,-90 16,-164 52,-247 -24,1 -62,1 -110,1 -7,0 -7,-16 -7,-39l163 0zm-2340 -443c0,51 -19,92 -56,121 -38,30 -87,44 -145,44 -47,0 -92,-13 -135,-38 -22,-13 -39,-32 -53,-56 -14,-25 -21,-52 -21,-84l97 -4c0,27 11,49 35,64 24,16 50,23 78,23 64,0 96,-22 96,-67 0,-37 -22,-59 -65,-65l-89 -10c-45,-6 -80,-22 -106,-47 -26,-25 -39,-61 -39,-108 0,-47 19,-86 56,-117 37,-31 84,-46 141,-46 57,0 103,15 138,43 35,29 52,66 52,112l-95 5c-9,-45 -38,-67 -90,-67 -31,0 -55,6 -73,20 -17,13 -26,29 -26,47 0,18 6,32 19,43 13,10 29,17 47,19l88 10c98,13 146,66 146,158zm314 0l90 0c0,4 -1,11 -1,22 -1,11 -1,18 -1,22 -1,4 -1,10 -2,18 -1,8 -2,14 -4,18 -1,4 -3,9 -5,15 -9,26 -34,48 -75,63 -26,9 -53,13 -82,13 -28,0 -54,-4 -77,-13 -23,-10 -41,-21 -54,-36 -30,-31 -45,-91 -45,-178 0,-87 15,-146 45,-178 13,-14 31,-26 54,-36 23,-9 49,-13 77,-13 55,0 97,13 126,41 28,28 43,66 43,115l-91 0c0,-22 -5,-39 -17,-50 -11,-11 -32,-17 -62,-17 -31,0 -51,10 -61,29 -10,19 -15,47 -15,85l0 40c0,61 12,98 36,112 10,6 24,10 42,10 17,0 31,-2 42,-5 11,-4 19,-9 24,-18 5,-8 8,-16 10,-24 1,-8 2,-19 3,-35zm224 -444c25,0 40,3 47,11 7,7 11,23 11,47 0,23 -4,39 -11,46 -8,8 -23,11 -47,11 -24,0 -39,-3 -47,-11 -7,-8 -11,-23 -11,-47 0,-23 4,-39 11,-46 8,-8 23,-11 47,-11zm50 605l-100 0 0 -422 100 0 0 422zm1227 0l-119 0c-108,0 -131,-31 -131,-134l0 -412 106 0 0 394c0,32 12,57 46,57l129 0 -31 95zm355 -184l-58 -216 -62 216 120 0zm-1138 -315c31,31 47,77 47,138 0,61 -16,107 -47,139 -32,31 -76,47 -133,47l-105 0 0 175 -107 0 0 -546 212 0c57,0 101,15 133,47zm-60 138c0,-60 -26,-90 -79,-90l-99 0 0 180 99 0c26,0 45,-7 59,-21 13,-14 20,-37 20,-69zm522 -77l-167 487c-7,22 -17,39 -30,51 -20,21 -49,31 -85,31l-70 0 0 -90 53 0c15,0 25,-2 32,-7 7,-5 13,-15 18,-29l8 -21 -132 -422 105 0 78 304 85 -304 105 0zm-2425 940c-116,133 -271,228 -443,268 -19,4 -6,-2 2,-8 39,-28 82,-67 116,-101 40,-38 78,-78 115,-120 93,-106 179,-223 221,-311 13,-27 21,-49 21,-70 0,-22 -8,-42 -29,-65 -15,-16 -51,-44 -90,-75 -20,-15 -40,-31 -58,-46 -17,-14 -32,-28 -44,-41l0 0c-11,-13 -19,-25 -21,-36 -1,-2 -1,-5 -1,-8 1,-3 2,-6 4,-8 2,-2 4,-4 8,-5 2,0 5,0 7,0 45,4 127,73 183,121 15,12 28,23 38,31l0 0c19,14 38,23 58,25l0 0c19,1 38,-4 57,-17 23,-16 44,-57 59,-81 5,-8 4,-1 4,5 0,91 -19,188 -49,273 -36,99 -89,189 -158,269zm-1274 -1107c117,-134 272,-229 445,-269 17,-3 8,1 0,7 -42,30 -88,73 -125,110 -21,21 -42,43 -63,66 -70,76 -140,162 -196,241l-16 22 1 0c-4,5 -8,11 -11,16 -9,12 -17,24 -24,36l0 0c-4,7 -5,9 -7,12 -22,34 -55,87 -64,126 -4,15 -4,29 0,43 4,14 13,28 26,43 16,16 51,44 91,75 19,15 39,31 57,45 17,14 32,28 44,42l0 0c11,13 19,25 21,35 1,3 1,6 1,8 0,4 -2,7 -4,9 -1,2 -4,4 -7,5 -3,0 -5,0 -8,0 -44,-5 -127,-74 -183,-121 -15,-13 -28,-24 -38,-31l0 -1c-18,-14 -38,-23 -58,-24l0 0c-19,-1 -38,4 -57,17 -15,10 -19,18 -29,31 -3,3 -3,3 -3,-3 0,-13 1,-32 2,-45 13,-183 84,-356 204,-494l1 -1zm200 242c-1,1 -1,3 -2,4l2 -4zm230 422l0 0 0 0zm92 11c4,1 7,1 11,1 -4,0 -7,0 -11,-1zm544 -573c-14,1 -25,-10 -26,-23 0,-14 11,-25 24,-26 14,0 25,10 25,24 1,14 -10,25 -23,25z"/>
  </g>
 </g>
</svg>
