<?xml version="1.0" encoding="UTF-8"?>
<!DOCTYPE svg PUBLIC "-//W3C//DTD SVG 1.1//EN" "http://www.w3.org/Graphics/SVG/1.1/DTD/svg11.dtd">
<!-- Creator: CorelDRAW X7 -->
<svg xmlns="http://www.w3.org/2000/svg" xml:space="preserve" width="48.4292mm" height="33.8666mm" version="1.1" style="shape-rendering:geometricPrecision; text-rendering:geometricPrecision; image-rendering:optimizeQuality; fill-rule:evenodd; clip-rule:evenodd"
viewBox="0 0 4843 3387"
 xmlns:xlink="http://www.w3.org/1999/xlink">
 <defs>
  <style type="text/css">
   <![CDATA[
    .fil0 {fill:#181818}
   ]]>
  </style>
 </defs>
 <g id="Capa_x0020_1">
  <metadata id="CorelCorpID_0Corel-Layer"/>
  <g>
   <path class="fil0" d="M3182 2681l-116 0c-87,0 -128,-24 -128,-108l0 -333 86 0 0 318c0,26 9,46 37,46l121 0 0 77zm-667 -403c26,25 38,63 38,112 0,49 -12,86 -38,112 -25,25 -61,38 -107,38l-85 0 0 141 -86 0 0 -441 171 0c46,0 82,13 107,38zm-92 -2121c460,1 840,335 915,773l0 0c7,37 11,75 13,113 7,139 -17,271 -65,391 -119,297 -378,507 -680,568l0 0c-50,10 -101,17 -154,18l-1 0c-5,1 -11,1 -16,1l-1 0c-6,0 -12,0 -18,0 -168,-1 -326,-46 -463,-125 -9,-6 -17,-11 -29,-18 -11,-7 -21,-13 -31,-20 -30,-23 -35,-60 -16,-89 165,131 377,203 603,188 233,-17 443,-122 596,-297 212,-247 270,-574 158,-878 -30,-80 -72,-154 -122,-221 -5,-6 -14,-7 -20,-2 -6,4 -7,13 -2,19 49,64 89,136 118,213 25,68 46,154 51,226 2,26 -11,48 -23,69 -11,18 -34,58 -50,70 -14,10 -28,13 -42,12l0 0c-15,-1 -30,-8 -44,-19l0 0c-11,-8 -23,-19 -38,-31 -58,-49 -144,-121 -195,-126 -6,-1 -11,0 -16,1 -9,2 -16,6 -21,12 -5,6 -9,14 -9,22 -1,6 -1,11 1,16 3,15 12,31 26,46l0 0c13,15 29,30 48,45 19,16 39,31 57,45 39,31 73,58 87,73 17,18 23,33 23,48 0,16 -8,35 -19,59 -41,86 -125,201 -217,305 -70,80 -184,198 -276,249 -7,4 -14,8 -22,10 -13,4 -37,5 -50,6 -220,15 -425,-55 -585,-182l169 -210c31,-39 68,-56 112,-25 19,14 38,29 58,45 94,76 189,154 336,114 120,-31 197,-120 222,-221 12,-47 14,-95 4,-142 -10,-47 -32,-93 -65,-132 -165,-175 -325,-83 -503,-135 -24,-8 -47,-22 -65,-41 -18,-18 -31,-41 -38,-68 -11,-41 -4,-83 15,-117 20,-34 53,-60 94,-71 79,-21 123,28 183,76 19,15 44,35 69,55 100,79 217,95 307,-2 9,-9 59,-78 65,-81 8,-5 20,6 26,11 23,21 53,14 65,-16l36 -149c6,-29 16,-56 -6,-75 -4,-3 -7,-6 -11,-9l34 -43 60 3c9,0 16,-7 17,-16 0,-9 -7,-17 -16,-17l-56 -2 -15 -54c-2,-9 -11,-14 -20,-12 -9,3 -14,12 -11,20l15 58 -7 9 0 0 -26 34c-3,-3 -6,-5 -8,-7 -14,-12 -30,-14 -46,-9 -10,3 -19,9 -29,14l-137 68c-23,12 -34,42 -15,64 13,16 37,15 15,43l-30 39c-26,35 -52,37 -79,24l-1 1c-29,26 -63,45 -102,52 16,-35 25,-61 29,-105l-13 -11 -14 -11c-29,25 -68,44 -107,51 18,-35 26,-62 31,-107 -69,-43 -144,-67 -255,-38 -18,5 -35,11 -50,18 12,34 20,67 16,104 -32,-25 -53,-34 -93,-53 -10,9 -19,20 -28,31 27,27 45,53 57,89 -38,-9 -60,-9 -101,-9 -5,13 -9,27 -12,40 36,12 69,31 95,61 -38,3 -64,9 -103,28 8,114 78,222 190,269 2,-3 4,-7 7,-10 17,-29 40,-54 70,-71 -3,31 -2,55 4,86 1,6 3,12 4,19 14,2 27,4 40,5 7,0 13,1 18,1l0 0c9,-37 30,-70 57,-98 6,39 13,67 32,100 14,0 30,0 48,0l0 0c2,-8 5,-15 9,-23 13,-27 31,-52 55,-71 2,33 6,58 19,90 1,5 3,10 6,15l0 0c40,11 69,31 89,54 16,19 26,41 31,63 5,24 4,48 -1,70 -1,3 -2,5 -2,8 31,24 53,57 62,95 -36,-15 -70,-19 -114,-21 -16,12 -35,22 -57,28 -34,9 -67,1 -100,-15 -27,27 -61,47 -100,56 15,-36 23,-63 25,-108 -8,-6 -15,-12 -23,-18l-6 -5c-29,26 -63,46 -103,53 17,-36 25,-63 29,-109l0 0c-10,-7 -21,-13 -32,-18 -43,-23 -88,-31 -133,-23 -27,5 -53,16 -78,34 -26,19 -48,45 -69,73 23,28 46,66 52,102 -35,-17 -64,-26 -109,-31l0 0c-7,8 -14,16 -22,26l1 -1c23,29 44,66 50,103 -20,-10 -36,-17 -55,-22 -15,-4 -36,-6 -56,-8 -7,9 -14,18 -21,26 -113,-132 -180,-290 -197,-464 -5,-41 -5,-44 19,-80 6,-9 13,-17 22,-24 14,-9 28,-13 41,-12l0 0c15,1 30,8 45,19l0 0c10,8 23,19 37,31 59,49 144,121 196,127 5,0 11,0 15,-1 9,-2 16,-7 22,-13 5,-6 8,-14 9,-22 0,-5 0,-10 -1,-16 -3,-15 -13,-30 -27,-46l0 0c-12,-14 -29,-29 -47,-44 -20,-16 -39,-32 -57,-46 -39,-30 -74,-58 -88,-73 -11,-12 -17,-22 -20,-32 -3,-10 -3,-20 0,-31 8,-34 40,-85 60,-118l8 -12 0 0c7,-11 15,-23 23,-35 8,-12 17,-25 26,-38l15 -21 0 0c52,-72 116,-149 179,-217 61,-66 146,-152 222,-199 29,-19 47,-17 80,-20 98,-6 194,4 284,29 93,25 180,67 257,121 7,5 15,3 20,-3 4,-6 2,-15 -4,-19 -80,-56 -170,-99 -266,-126 -91,-25 -188,-36 -288,-29l-7 0c-233,18 -439,121 -594,297 -216,250 -273,596 -148,902 36,87 85,166 147,238 -16,20 -29,39 -37,53 -114,-128 -194,-287 -224,-464l0 0c-6,-37 -11,-75 -12,-113 -7,-133 15,-267 65,-390 119,-299 380,-509 684,-569l0 -1c43,-8 87,-14 132,-16l0 0c6,0 11,-1 17,-1l1 0c6,0 11,0 17,0l1 0c6,0 11,0 17,0zm633 1484c-116,133 -271,228 -443,268 -18,4 -6,-3 2,-8 39,-28 82,-67 116,-100 40,-39 78,-79 115,-121 93,-105 179,-222 220,-311 13,-26 21,-48 22,-69 0,-22 -9,-42 -30,-65 -15,-16 -50,-44 -90,-75 -19,-15 -39,-31 -57,-45 -17,-14 -33,-28 -44,-42l0 0c-11,-13 -19,-25 -21,-35 -1,-3 -1,-6 -1,-8 0,-4 2,-7 4,-9 1,-2 4,-4 7,-4 3,-1 5,-1 8,-1 44,5 126,74 182,121 15,13 28,24 38,31l1 1c18,14 37,23 58,24l0 0c18,1 37,-4 56,-17 23,-16 45,-56 59,-80 5,-9 4,-1 4,5 0,90 -18,187 -49,272 -36,99 -89,189 -157,268zm-1272 -1105c116,-133 272,-228 444,-268 16,-3 8,1 0,7 -42,30 -88,73 -124,110 -22,21 -43,43 -63,65 -70,76 -141,162 -197,241l-15 22 0 0c-3,5 -7,11 -11,16 -8,12 -16,25 -23,36l0 0c-4,7 -6,9 -8,12 -21,34 -54,87 -63,125 -4,16 -4,30 0,44 4,14 13,27 26,42 15,16 51,44 90,75 20,16 40,32 57,46 18,14 33,28 45,41l0 0c11,13 19,25 21,36 0,2 1,5 0,8 0,3 -1,6 -3,8 -2,2 -5,4 -8,5 -2,0 -5,0 -8,0 -44,-4 -126,-73 -182,-121 -15,-12 -28,-23 -38,-31l0 0c-19,-14 -38,-23 -58,-25l0 0c-19,-1 -38,4 -57,17 -14,10 -19,18 -29,31 -3,4 -2,4 -3,-2 0,-13 1,-32 2,-46 13,-182 84,-354 204,-492l1 -2zm199 242c0,1 -1,3 -1,4l1 -4zm230 421l0 0 0 0zm92 12c4,0 7,0 11,0 -4,0 -7,0 -11,0zm543 -572c-14,0 -25,-11 -26,-24 0,-14 10,-25 24,-25 13,-1 25,10 25,23 1,14 -10,25 -23,26zm-381 1751c0,-49 -21,-73 -64,-73l-80 0 0 145 80 0c21,0 37,-5 48,-16 11,-12 16,-30 16,-56zm411 -63l-135 394c-6,17 -14,31 -24,41 -16,17 -39,25 -69,25l-55 0 0 -72 42 0c11,0 20,-2 26,-6 5,-4 10,-12 14,-24l6 -17 -106 -341 85 0 63 246 68 -246 85 0zm66 761l548 0 0 22 -548 0 0 -22zm0 -72l548 0 0 22 -548 0 0 -22zm-1594 72l549 0 0 22 -549 0 0 -22zm0 -72l549 0 0 22 -549 0 0 -22zm643 209c-2,-4 -3,-9 -3,-14 0,-8 1,-14 3,-19 2,-4 6,-12 12,-22 14,-24 36,-52 65,-87 23,-27 40,-50 51,-67 10,-17 16,-34 16,-52 0,-27 -15,-40 -45,-40 -15,0 -31,2 -46,6 -16,4 -29,8 -38,14 -4,-9 -6,-20 -6,-34 0,-4 5,-9 14,-14 10,-5 22,-9 38,-12 16,-3 32,-4 50,-4 32,0 54,6 66,19 13,13 19,32 19,59 0,16 -3,32 -10,48 -6,16 -14,30 -24,43 -10,13 -24,31 -42,52 -27,32 -47,58 -61,80l78 0c12,0 26,0 40,-2 14,-1 23,-1 28,-2 0,19 -1,32 -2,38 -1,7 -4,10 -8,10l-195 0zm238 -170c0,-59 8,-102 25,-132 17,-29 43,-43 80,-43 36,0 62,13 78,39 16,26 24,67 24,122 0,65 -8,112 -23,143 -16,31 -43,46 -82,46 -38,0 -65,-14 -80,-42 -14,-29 -22,-73 -22,-133zm50 3c0,32 2,58 5,77 3,18 9,32 16,40 8,9 19,13 32,13 20,0 34,-12 43,-35 8,-23 13,-61 13,-113 0,-41 -4,-71 -12,-90 -7,-20 -21,-29 -40,-29 -21,0 -36,11 -44,34 -9,23 -13,57 -13,103zm265 -131c-19,3 -45,8 -64,13 -5,-8 -8,-23 -8,-35 0,-3 7,-6 22,-10 15,-5 32,-9 50,-13 18,-3 30,-5 37,-5 6,0 10,1 13,3 0,103 -1,210 -1,313 0,6 3,27 -2,31 -1,1 -3,2 -7,2 -12,-1 -33,-1 -39,-1l-1 -298zm300 -49c0,5 0,11 0,17 0,10 0,19 -3,24 -45,92 -68,186 -69,289 0,20 -11,17 -28,17 -9,0 -12,0 -20,0 1,-109 19,-199 63,-300 -29,1 -75,1 -134,1 -8,0 -9,-19 -9,-47l200 -1zm-1164 -327c0,42 -15,74 -46,98 -30,24 -70,36 -117,36 -38,0 -74,-11 -109,-31 -17,-11 -32,-26 -43,-46 -11,-19 -17,-42 -17,-67l79 -4c0,23 9,40 28,52 19,13 40,19 63,19 52,0 78,-18 78,-55 0,-29 -18,-47 -53,-52l-72 -8c-36,-5 -64,-18 -85,-38 -21,-20 -32,-49 -32,-87 0,-38 15,-70 45,-95 30,-24 69,-37 115,-37 46,0 83,12 111,35 28,24 42,54 42,90l-77 4c-7,-36 -31,-54 -72,-54 -26,0 -45,6 -60,16 -14,11 -21,24 -21,38 0,15 5,27 16,35 10,9 23,14 38,16l71 7c78,11 118,54 118,128zm253 1l73 -1c0,3 -1,9 -1,18 0,9 -1,14 -1,18 0,3 -1,8 -1,14 -1,7 -2,12 -3,15 -1,3 -3,7 -4,12 -8,21 -28,38 -61,51 -21,7 -43,11 -66,11 -23,0 -44,-4 -62,-11 -19,-8 -33,-17 -44,-29 -24,-26 -37,-74 -37,-144 0,-70 13,-118 37,-144 11,-11 25,-21 44,-29 18,-7 39,-11 62,-11 44,0 78,12 101,34 23,22 35,53 35,93l-73 0c0,-18 -5,-32 -14,-41 -9,-9 -26,-13 -50,-13 -25,0 -41,7 -49,23 -8,15 -12,38 -12,69l0 32c0,49 9,79 28,90 9,5 20,8 34,8 14,0 26,-1 35,-4 9,-2 15,-7 19,-14 4,-6 6,-13 8,-19 1,-7 2,-16 2,-28zm182 -360c19,0 32,3 37,9 6,6 9,19 9,38 0,19 -3,32 -9,38 -6,6 -18,9 -38,9 -19,0 -31,-3 -37,-10 -6,-6 -9,-18 -9,-37 0,-19 3,-32 9,-38 6,-6 18,-9 38,-9zm39 489l-80 0 0 -341 80 0 0 341zm1335 0l-58 0 -14 -31 -83 35c-59,2 -89,-18 -106,-52 -8,-17 -14,-35 -17,-55 -3,-20 -5,-40 -5,-61 0,-22 1,-37 1,-48 0,-10 1,-21 3,-35 2,-13 4,-25 7,-34 3,-9 8,-18 13,-28 6,-9 13,-17 22,-23 18,-13 42,-19 72,-19l165 0 0 351zm-80 -113l0 -166 -61 0c-23,0 -39,9 -48,26 -9,18 -13,44 -13,78 0,35 4,59 13,73 8,14 24,19 47,19l62 -30z"/>
  </g>
 </g>
</svg>
