<?xml version="1.0" encoding="UTF-8"?>
<!DOCTYPE svg PUBLIC "-//W3C//DTD SVG 1.1//EN" "http://www.w3.org/Graphics/SVG/1.1/DTD/svg11.dtd">
<!-- Creator: CorelDRAW X7 -->
<svg xmlns="http://www.w3.org/2000/svg" xml:space="preserve" width="48.4292mm" height="33.8666mm" version="1.1" style="shape-rendering:geometricPrecision; text-rendering:geometricPrecision; image-rendering:optimizeQuality; fill-rule:evenodd; clip-rule:evenodd"
viewBox="0 0 4843 3387"
 xmlns:xlink="http://www.w3.org/1999/xlink">
 <defs>
  <style type="text/css">
   <![CDATA[
    .fil0 {fill:#181818}
   ]]>
  </style>
 </defs>
 <g id="Capa_x0020_1">
  <metadata id="CorelCorpID_0Corel-Layer"/>
  <g>
   <path class="fil0" d="M2922 2289c31,31 47,78 47,139 0,61 -16,108 -47,140 -32,31 -77,47 -135,47l-105 0 0 176 -108 0 0 -550 213 0c58,0 103,16 135,48zm-497 -2135c459,1 840,335 915,773l0 0c7,37 11,75 13,113 7,139 -17,271 -65,391 -119,297 -378,507 -681,568l0 0c-50,11 -101,17 -153,18l-1 0c-6,1 -11,1 -17,1l-1 0c-5,0 -11,0 -17,0 -169,-1 -327,-46 -463,-125 -10,-6 -18,-11 -30,-18 -10,-7 -21,-13 -31,-20 -30,-23 -35,-60 -15,-89 164,131 377,203 603,188 233,-17 442,-122 596,-297 211,-247 270,-574 158,-878 -31,-80 -72,-154 -123,-221 -4,-6 -13,-7 -19,-2 -6,4 -7,13 -3,19 49,64 90,136 119,213 25,68 46,154 51,226 2,26 -11,48 -24,69 -11,18 -33,58 -50,70 -14,10 -28,13 -41,12l0 0c-15,-1 -30,-8 -45,-19l0 0c-10,-8 -23,-19 -37,-31 -59,-49 -144,-121 -196,-126 -5,-1 -11,0 -15,1 -9,2 -16,6 -22,12 -5,6 -8,14 -9,23 0,5 0,10 1,15 3,15 13,31 27,46l0 0c12,15 29,30 47,45 20,16 39,31 58,45 38,31 73,58 87,73 16,18 23,33 23,48 -1,16 -8,35 -19,59 -41,86 -125,201 -217,305 -71,80 -184,198 -277,249 -7,4 -14,8 -22,10 -12,4 -36,5 -50,6 -219,15 -425,-55 -584,-182l168 -210c32,-39 69,-56 113,-25 19,14 38,29 57,45 95,76 190,154 337,114 120,-31 196,-120 222,-221 12,-47 13,-95 3,-142 -10,-47 -31,-93 -65,-132 -164,-175 -324,-83 -502,-135 -25,-8 -47,-22 -65,-41 -18,-18 -31,-41 -38,-68 -11,-41 -5,-83 15,-117 20,-34 52,-60 93,-71 80,-21 124,28 184,76 19,15 44,35 69,55 99,79 217,95 306,-2 10,-9 60,-78 66,-81 8,-5 19,6 25,11 24,21 54,14 66,-16l35 -149c7,-28 17,-56 -6,-75 -3,-3 -7,-6 -10,-9l34 -43 59 3c9,0 17,-7 17,-16 1,-9 -7,-17 -16,-17l-55 -2 -15 -54c-3,-9 -12,-14 -20,-12 -9,3 -14,12 -12,20l16 58 -7 9 0 0 -27 34c-2,-3 -5,-5 -8,-7 -13,-12 -29,-14 -45,-9 -10,3 -19,9 -29,14l-137 68c-24,12 -34,42 -15,64 13,16 37,15 15,43l-30 40c-27,34 -52,36 -79,23l-2 1c-28,26 -63,45 -102,52 17,-35 26,-61 30,-105l-13 -11 -15 -11c-29,25 -67,44 -106,51 17,-35 26,-62 30,-107 -68,-43 -144,-67 -255,-38 -18,5 -34,11 -50,18 13,34 21,67 17,104 -32,-25 -53,-34 -93,-53 -10,9 -19,20 -28,31 27,27 45,53 57,89 -38,-9 -60,-9 -102,-9 -5,13 -9,27 -12,40 36,12 70,31 95,61 -37,3 -64,9 -102,28 7,114 77,222 190,269 2,-3 4,-7 6,-10 18,-29 41,-54 71,-71 -3,31 -3,55 3,86 2,6 3,12 5,19 13,2 27,4 40,5 6,0 12,1 18,1l-1 0c9,-37 30,-70 58,-98 6,39 12,67 31,100 15,0 30,0 48,0l0 0c3,-8 6,-15 9,-23 13,-27 31,-52 56,-71 2,33 6,58 18,90 2,5 4,10 6,15l0 0c40,11 70,31 90,54 16,19 26,41 31,63 5,24 4,48 -2,70 0,3 -1,5 -2,8 32,24 54,57 62,95 -35,-15 -69,-19 -114,-21 -15,12 -34,22 -56,28 -35,9 -68,1 -100,-15 -28,27 -61,47 -100,56 15,-36 22,-63 24,-108 -7,-6 -15,-12 -22,-18l-7 -5c-28,26 -63,46 -102,53 17,-36 25,-63 28,-109l1 0c-11,-7 -21,-13 -32,-18 -43,-23 -88,-31 -133,-23 -27,5 -54,16 -78,34 -26,19 -49,45 -70,73 23,28 47,66 53,102 -35,-17 -65,-26 -110,-31l1 0c-7,8 -14,16 -22,26l0 -1c24,29 44,66 50,103 -19,-10 -36,-17 -55,-22 -15,-4 -35,-6 -55,-8 -7,9 -15,18 -21,27 -114,-133 -180,-291 -198,-465 -4,-41 -5,-44 20,-80 6,-9 12,-17 21,-24 15,-9 28,-13 42,-12l0 0c15,1 30,8 45,19l0 0c10,8 22,19 37,31 58,49 144,121 195,127 6,0 11,0 16,-1 9,-2 16,-7 21,-13 5,-6 9,-14 9,-22 1,-5 1,-10 -1,-16 -3,-15 -12,-30 -26,-46l0 0c-13,-14 -29,-29 -47,-44 -20,-16 -40,-32 -58,-46 -38,-30 -73,-58 -87,-73 -11,-12 -18,-22 -21,-32 -3,-10 -2,-20 0,-31 8,-34 40,-85 61,-118l7 -12 0 0c8,-11 15,-23 23,-35 9,-12 17,-25 26,-38l16 -21 0 0c52,-72 115,-149 178,-217 61,-66 146,-152 222,-199 30,-18 47,-17 81,-20 98,-6 193,4 283,29 93,26 180,67 258,121 6,5 15,3 19,-3 5,-6 3,-15 -3,-19 -80,-56 -170,-99 -266,-126 -92,-25 -189,-36 -289,-29l-6 0c-234,18 -439,121 -594,297 -216,250 -274,596 -148,902 35,87 85,166 146,238 -15,20 -28,39 -36,53 -114,-128 -194,-287 -224,-464l0 0c-7,-37 -11,-75 -13,-113 -7,-133 16,-267 65,-390 119,-299 380,-509 684,-569l0 -1c43,-8 88,-14 132,-16l1 0c5,0 11,-1 17,-1l1 0c5,0 11,0 16,0l2 0c5,0 11,0 17,0zm632 1484c-115,133 -271,228 -442,268 -19,4 -6,-3 2,-8 39,-28 81,-67 116,-100 40,-39 78,-79 114,-121 94,-105 179,-222 221,-311 13,-26 21,-48 21,-69 0,-22 -8,-42 -29,-65 -15,-16 -51,-44 -90,-75 -20,-15 -40,-31 -57,-45 -17,-14 -33,-28 -45,-42l0 0c-11,-13 -18,-24 -21,-35 0,-3 -1,-6 0,-8 0,-4 1,-7 3,-9 2,-2 5,-4 8,-4 2,-1 5,-1 8,-1 44,5 126,74 182,121 15,13 28,24 38,31l0 1c19,14 38,23 58,24l0 0c19,1 38,-4 57,-17 23,-16 44,-56 58,-80 6,-9 5,-1 5,5 -1,90 -19,187 -49,272 -36,99 -89,189 -158,268zm-1271 -1105c116,-133 271,-228 444,-268 16,-3 8,1 0,7 -42,30 -88,73 -125,110 -21,21 -42,43 -63,65 -70,76 -140,162 -196,241l-15 22 0 0c-4,5 -7,11 -11,16 -8,12 -16,25 -24,36l0 0c-4,7 -5,9 -7,12 -21,34 -55,87 -64,125 -3,16 -4,30 1,44 4,14 12,27 26,42 15,16 51,44 90,75 19,16 40,32 57,46 17,14 33,28 45,41l0 0c11,13 18,25 20,36 1,2 1,5 1,8 0,3 -2,6 -3,8 -2,2 -5,4 -8,5 -3,0 -5,0 -8,0 -44,-4 -126,-73 -182,-121 -15,-12 -28,-23 -38,-31l-1 0c-18,-14 -37,-23 -57,-25l0 0c-19,-1 -38,4 -57,17 -15,10 -19,18 -29,31 -3,4 -3,4 -3,-2 0,-13 1,-32 2,-45 12,-183 84,-355 203,-493l2 -2zm199 242c-1,1 -1,3 -2,4l2 -4zm229 421l1 0 -1 0zm92 12c4,0 8,0 11,0 -3,0 -7,0 -11,0zm543 -572c-13,0 -25,-11 -25,-24 -1,-14 10,-25 24,-25 13,-1 24,10 25,23 0,14 -10,25 -24,26zm-1258 2585c0,5 -3,8 -7,8l-108 0 0 -308c0,-4 1,-6 2,-8 1,-1 4,-2 8,-2 4,0 13,0 27,0l0 283 78 0 0 27zm291 -592c0,52 -19,93 -57,122 -38,30 -87,45 -146,45 -47,0 -92,-13 -136,-39 -21,-13 -39,-32 -53,-57 -14,-24 -21,-52 -21,-83l97 -5c0,28 12,49 36,65 24,15 50,23 79,23 64,0 96,-23 96,-68 0,-37 -22,-59 -65,-66l-90 -9c-45,-7 -80,-23 -107,-48 -26,-25 -39,-61 -39,-109 0,-47 19,-86 56,-117 38,-31 85,-47 143,-47 57,0 104,15 139,44 35,29 52,67 52,113l-96 4c-8,-45 -39,-67 -90,-67 -32,0 -56,7 -74,20 -18,13 -27,29 -27,48 0,18 7,32 20,43 13,10 29,17 48,20l88 9c98,13 147,66 147,159zm316 1l91 -1c0,4 -1,12 -1,22 -1,11 -1,19 -1,22 -1,4 -1,10 -2,19 -1,8 -2,14 -4,18 -1,4 -3,9 -5,15 -9,27 -34,48 -75,63 -27,10 -54,14 -83,14 -28,0 -54,-5 -77,-14 -24,-9 -42,-21 -55,-35 -31,-32 -46,-92 -46,-180 0,-88 15,-148 46,-180 13,-14 31,-26 55,-35 23,-9 48,-14 77,-14 55,0 98,14 127,42 28,27 43,66 43,116l-91 0c0,-23 -6,-40 -17,-51 -12,-11 -33,-17 -63,-17 -31,0 -51,10 -61,29 -10,19 -15,48 -15,86l0 40c0,61 12,99 35,113 11,6 25,10 43,10 17,0 31,-2 42,-5 12,-4 20,-9 24,-18 5,-8 9,-16 10,-24 2,-8 3,-20 3,-35zm227 -448c24,0 40,3 47,11 7,7 11,23 11,47 0,24 -4,40 -12,47 -7,8 -23,11 -47,11 -24,0 -39,-4 -47,-11 -7,-8 -11,-24 -11,-47 0,-24 4,-40 11,-47 8,-8 23,-11 48,-11zm49 609l-100 0 0 -425 100 0 0 425zm-732 285c0,67 0,114 -2,142 -17,10 -39,15 -66,15 -12,0 -23,-2 -32,-5 -9,-3 -16,-10 -22,-20 -5,-10 -8,-25 -8,-44 0,-29 5,-48 16,-59 11,-10 26,-15 45,-15 14,0 25,2 33,6l0 -36c0,-11 -3,-18 -7,-22 -5,-4 -12,-6 -21,-6 -24,0 -44,4 -61,11 -3,-7 -5,-14 -5,-21 0,-7 2,-11 5,-13 5,-3 13,-6 26,-8 14,-3 28,-4 44,-4 19,0 34,4 42,13 9,8 13,22 13,42l0 24zm-36 45c-6,-3 -13,-4 -22,-4 -11,0 -19,3 -25,9 -6,7 -9,19 -9,37 0,16 2,26 7,31 5,6 13,8 23,8 11,0 19,-2 24,-7 1,-10 2,-35 2,-74zm59 -88c0,-8 0,-15 1,-20 0,-5 1,-8 2,-9 1,-2 2,-2 5,-2l23 0 0 -69c0,-5 1,-8 3,-9 2,-2 5,-3 10,-4 4,0 12,0 23,0l0 82 48 0c0,8 -1,14 -1,20 0,5 -1,8 -2,9 -1,1 -3,2 -5,2l-40 0 0 132c0,13 1,22 3,28 2,6 7,9 14,9 8,0 17,-2 27,-7 1,6 2,12 2,18 0,13 -13,20 -39,20 -12,0 -22,-3 -28,-8 -6,-5 -10,-13 -12,-22 -2,-10 -3,-22 -3,-38l0 -132 -31 0zm182 188c0,3 0,5 -1,6 -1,1 -5,1 -11,1 -6,0 -14,1 -25,1l0 -211c0,-5 1,-9 3,-12 2,-2 6,-3 10,-4 5,0 13,0 24,0l0 219zm48 -209c9,-4 21,-7 34,-10 14,-3 27,-5 38,-5 24,0 40,5 50,14 9,9 14,25 14,47l0 163c0,3 -1,5 -2,6 -1,1 -5,1 -11,1 -6,0 -15,1 -25,1l0 -160c0,-15 -2,-26 -5,-32 -4,-5 -11,-8 -22,-8 -13,0 -25,2 -34,8l0 184c0,3 -1,5 -2,6 -1,1 -5,1 -11,1 -6,0 -14,1 -24,1l0 -217zm459 210c0,2 0,4 -2,6 -3,1 -7,1 -14,1 -8,0 -15,0 -22,0l-19 -81 -79 0 -18 74c-1,3 -2,5 -4,6 -2,1 -6,1 -13,1 -6,0 -14,0 -23,-1l82 -312c1,-5 5,-7 13,-7 7,0 13,1 18,2l81 311zm-81 -173c-8,-37 -14,-66 -15,-87 -4,27 -9,56 -17,87l-15 66 63 0 -16 -66zm104 -37c23,-10 45,-15 69,-15 19,0 33,5 41,14 17,-9 35,-14 56,-14 14,0 25,2 33,7 7,5 12,12 14,21 3,9 4,21 4,36l0 160c0,3 -1,5 -2,6 -1,1 -5,1 -11,1 -6,0 -14,1 -24,1l0 -168c0,-12 -1,-20 -4,-25 -3,-5 -9,-7 -18,-7 -11,0 -21,3 -31,9l0 55 0 1 0 127c0,3 0,5 -1,6 -1,1 -5,1 -11,1 -6,0 -14,1 -24,1l0 -169c0,-9 -1,-15 -2,-19 0,-4 -2,-7 -6,-9 -3,-2 -8,-3 -15,-3 -11,0 -21,2 -31,8l0 184c0,3 0,5 -2,6 -1,1 -4,1 -10,1 -7,0 -15,1 -25,1l0 -217zm334 186c18,0 36,-5 52,-15 2,7 3,15 3,25 0,7 -6,13 -18,18 -12,5 -27,7 -45,7 -15,0 -28,-3 -38,-9 -11,-5 -19,-16 -25,-31 -6,-16 -9,-38 -9,-66 0,-36 4,-63 11,-82 7,-19 17,-32 28,-38 12,-7 25,-10 41,-10 39,0 58,24 58,73 0,24 -2,44 -5,59 -25,5 -56,7 -95,7 0,24 4,40 11,49 6,8 17,13 31,13zm-4 -169c-23,0 -36,26 -38,77 27,1 48,-1 62,-5 2,-7 2,-16 2,-27 0,-17 -2,-29 -5,-35 -4,-7 -11,-10 -21,-10zm95 -12c19,-13 40,-20 61,-20 22,0 32,6 32,19 0,8 -1,15 -4,21 -6,-3 -14,-5 -22,-5 -11,0 -21,3 -30,10l0 179c0,3 -1,5 -2,6 -1,1 -5,1 -11,1 -6,0 -14,1 -24,1l0 -212zm157 204c0,3 -1,5 -2,6 -1,1 -5,1 -11,1 -6,0 -14,1 -24,1l0 -211c0,-5 1,-9 3,-12 2,-2 5,-3 10,-4 4,0 12,0 24,0l0 219zm155 -204c0,7 -2,14 -5,21 -10,-6 -21,-9 -32,-9 -13,0 -24,6 -32,19 -9,12 -13,36 -13,72 0,21 1,38 4,49 3,12 7,20 13,25 6,4 14,6 24,6 14,0 26,-3 36,-10 2,9 4,15 4,20 0,6 -5,12 -15,16 -10,5 -22,7 -36,7 -16,0 -29,-3 -38,-9 -10,-6 -17,-17 -22,-33 -5,-16 -8,-40 -8,-71 0,-49 8,-81 23,-98 15,-17 34,-25 58,-25 11,0 20,2 28,6 7,4 11,9 11,14zm152 59c0,67 -1,114 -3,142 -17,10 -38,15 -65,15 -13,0 -24,-2 -32,-5 -9,-3 -17,-10 -22,-20 -6,-10 -9,-25 -9,-44 0,-29 6,-48 17,-59 11,-10 26,-15 44,-15 14,0 25,2 33,6l0 -36c0,-11 -2,-18 -6,-22 -5,-4 -12,-6 -22,-6 -23,0 -43,4 -60,11 -4,-7 -5,-14 -5,-21 0,-7 1,-11 5,-13 4,-3 13,-6 26,-8 13,-3 28,-4 43,-4 20,0 34,4 43,13 9,8 13,22 13,42l0 24zm-37 45c-5,-3 -13,-4 -21,-4 -11,0 -19,3 -25,9 -6,7 -10,19 -10,37 0,16 3,26 8,31 5,6 13,8 23,8 10,0 19,-2 24,-7 1,-10 1,-35 1,-74zm-467 -693c0,-61 -27,-91 -80,-91l-100 0 0 182 100 0c26,0 46,-7 59,-21 14,-14 21,-37 21,-70zm512 -78l-168 491c-7,22 -17,39 -30,51 -20,21 -49,31 -86,31l-68 0 0 -90 51 0c15,0 26,-2 32,-7 7,-5 13,-15 19,-29l7 -22 -133 -425 106 0 79 307 85 -307 106 0z"/>
  </g>
 </g>
</svg>
