<?xml version="1.0" encoding="UTF-8"?>
<!DOCTYPE svg PUBLIC "-//W3C//DTD SVG 1.1//EN" "http://www.w3.org/Graphics/SVG/1.1/DTD/svg11.dtd">
<!-- Creator: CorelDRAW X7 -->
<svg xmlns="http://www.w3.org/2000/svg" xml:space="preserve" width="297mm" height="150.989mm" version="1.1" style="shape-rendering:geometricPrecision; text-rendering:geometricPrecision; image-rendering:optimizeQuality; fill-rule:evenodd; clip-rule:evenodd"
viewBox="0 0 29700 15099"
 xmlns:xlink="http://www.w3.org/1999/xlink">
 <defs>
  <style type="text/css">
   <![CDATA[
    .fil2 {fill:#091727}
    .fil7 {fill:#14365B}
    .fil3 {fill:#CCCCCC}
    .fil0 {fill:#EDEDED}
    .fil1 {fill:white}
    .fil6 {fill:black;fill-opacity:0.070588}
    .fil4 {fill:#1A0000;fill-opacity:0.101961}
    .fil8 {fill:black;fill-opacity:0.168627}
    .fil5 {fill:black;fill-opacity:0.250980}
   ]]>
  </style>
 </defs>
 <g id="Capa_x0020_1">
  <metadata id="CorelCorpID_0Corel-Layer"/>
  <g id="_66869601616">
   <rect class="fil0" width="29700" height="15099"/>
   <polygon class="fil1" points="14496,14289 684,14289 684,723 14496,723 "/>
   <polygon class="fil2" points="29016,14289 15200,14289 15200,723 29016,723 "/>
   <g>
    <path class="fil3" d="M1891 725c86,213 67,463 72,740 3,135 9,311 14,489 19,709 369,1270 1103,1306 71,8 547,-25 583,-12 49,19 45,105 44,149 -6,173 130,280 302,223l765 -382c145,-73 298,-131 300,-294 0,-26 0,-52 -1,-78l304 -7 204 263c31,40 88,47 128,16 39,-31 47,-88 16,-128l-191 -247 178 -256c28,-41 18,-98 -23,-127 -42,-29 -99,-19 -127,23l-190 273 -67 2 1 0 -237 6c0,-18 0,-37 0,-56 1,-101 -48,-176 -126,-227 -48,-31 -103,-50 -160,-75l-784 -343c-136,-54 -300,7 -328,166 -20,114 71,212 -129,220l-276 11c-301,12 -381,-148 -406,-374 -14,-156 -18,-318 -22,-475 -6,-282 -12,-551 -66,-806l-881 0z"/>
    <path class="fil4" d="M3624 3032c-662,48 -1386,43 -1613,-755 43,225 126,425 252,585 180,231 449,378 811,397 1,0 2,0 3,0 1,0 2,0 3,0 0,0 1,1 2,1 35,3 142,-1 255,-6 148,-6 306,-13 326,-6 49,18 45,105 44,149 -6,173 130,280 302,223l601 -301c20,-13 -726,275 -727,-77 -1,-132 -98,-210 -259,-210zm1597 -351l-152 3 6 182 147 -3c-33,-25 -35,-137 -1,-182z"/>
    <path class="fil5" d="M2288 1872c168,143 372,221 583,253 0,-1 -1,-2 -1,-3 0,-1 0,-2 1,-3 -1,-12 -3,-24 -4,-36 -5,-53 -3,-43 -6,-77 -12,-126 -17,-256 -20,-384 -203,140 -346,197 -553,250zm-49 -717c166,143 388,238 597,272 -5,-180 -11,-354 -34,-523 -208,142 -352,199 -563,251z"/>
   </g>
   <g>
    <path class="fil6" d="M10655 10128l0 0c-110,960 74,1645 950,2043 169,77 340,132 520,169 347,72 539,86 868,130 513,69 1166,340 1053,918 13,-35 23,-70 32,-106l0 -4 1 -2c1,-5 2,-11 3,-17l1 -5 1 0 1 -6 0 0c1,-8 2,-15 4,-23l0 -1 1 -5 0 -1 0 -5 1 -1 0 -4 2 -12 0 0 0 -3 1 -3 0 -3 0 -3 0 0 1 -5 0 -4 0 -2 1 -4 0 -2 0 -4 0 -2 1 -4 0 -2 0 -5 0 -1 1 -5 0 0 0 -6 0 0 0 -6 0 0 1 -6 0 0 0 -6 0 -1 0 -5 0 -1 0 -5 0 -1 0 -5 0 -1 1 -4 0 -2 0 -7 0 0 0 -3 0 -3 -1 -1 0 -11 0 -3 0 -4 0 -6 0 -2 0 -4 0 -2 -1 -4 0 -2 0 -4 0 -1 0 -6 0 0 -1 -6 0 0 0 -6 -1 -6 0 -6 -1 -6 0 0 -1 -6 0 -6 -1 -6 -1 -6 0 0 -1 -6 0 -6 0 0 -1 -6 -1 -6 -1 -6 -1 -6 -1 -6 -2 -6 -1 -6 0 0 -1 -6 0 0 -1 -6 0 0 -1 -6 -1 0 -1 -6 0 0 -1 -6 -2 -6 -1 -6 0 0 -2 -6 -1 -5 -2 -6 -2 -6 -1 -6 -2 -6 -2 -6 0 0 -2 -6 -2 -5 0 0 -2 -6 -2 -6 0 0c-1,-4 -3,-8 -4,-12l0 0 -2 -5 -2 -6 -3 -6 -2 -6 -2 -5 -3 -6 -2 -6 0 0 -3 -5 0 0 -2 -6 -3 -6 -2 -5 -3 -6 0 0 -3 -6 0 0 -2 -5 0 0 -3 -6 -3 -5 0 0 -3 -6 0 0 -3 -6 0 0 -3 -5 0 0 -3 -6 0 0 -3 -5 0 0 -3 -5 0 -1 -4 -5 0 0 -3 -5 0 0 -3 -6 0 0 -3 -5 0 0 -4 -6 0 0 -3 -5 0 0c-3,-4 -5,-7 -8,-11l0 0c-2,-4 -5,-7 -7,-11l0 0c-3,-4 -5,-7 -8,-11l0 0 -8 -11 0 0c-2,-3 -5,-7 -8,-10l0 0c-3,-4 -5,-7 -8,-11l0 0c-3,-3 -6,-7 -9,-10l0 0c-3,-4 -5,-7 -8,-11l0 0c-3,-3 -6,-7 -9,-10l0 0c-3,-4 -7,-7 -10,-11l0 0c-3,-3 -6,-6 -9,-10l0 0c-3,-3 -6,-7 -10,-10l0 0c-3,-3 -6,-7 -10,-10l0 0c-3,-3 -6,-7 -10,-10l0 0c-3,-3 -7,-7 -10,-10l0 0c-4,-3 -7,-6 -11,-10l0 0c-3,-3 -7,-6 -10,-9l0 0c-4,-4 -8,-7 -11,-10l0 0c-4,-3 -8,-6 -12,-9l0 0c-3,-3 -7,-7 -11,-10l0 0c-4,-3 -8,-6 -12,-9l0 0c-4,-3 -7,-6 -12,-9l0 0c-3,-3 -8,-6 -12,-9l0 0c-4,-3 -8,-6 -12,-9l0 0c-4,-3 -8,-6 -13,-9l0 0c-4,-3 -8,-6 -12,-9l0 0c-5,-3 -9,-5 -13,-8l0 0c-5,-3 -9,-6 -14,-9l0 0c-4,-3 -9,-5 -13,-8l0 0c-5,-3 -9,-6 -14,-8l0 0c-4,-3 -9,-6 -14,-8l0 0c-4,-3 -9,-6 -14,-8l0 0c-5,-3 -10,-6 -14,-8l0 0c-5,-3 -10,-6 -15,-8l0 0c-5,-3 -10,-5 -15,-8l0 0c-5,-2 -10,-5 -15,-7l0 0 -15 -8 0 0c-6,-2 -11,-4 -16,-7l0 0c-5,-2 -11,-4 -16,-7l0 0c-5,-2 -11,-4 -16,-7l0 0c-5,-2 -11,-4 -16,-7l0 0c-6,-2 -11,-4 -17,-6l0 0c-5,-2 -11,-5 -17,-7l0 0c-5,-2 -11,-4 -17,-6l0 0c-5,-2 -11,-4 -17,-6l0 0c-6,-2 -12,-4 -17,-6l0 0 -18 -6 0 0c-6,-2 -12,-4 -18,-6l0 0c-6,-2 -12,-4 -18,-6l0 0c-7,-1 -13,-3 -19,-5l0 0c-6,-2 -12,-4 -19,-5l0 0c-6,-2 -12,-4 -19,-6l0 0c-6,-1 -12,-3 -19,-4l0 0c-6,-2 -13,-4 -19,-5l0 0 -20 -5 0 0c-7,-1 -13,-3 -20,-4l0 0c-7,-2 -14,-3 -20,-5l0 0c-7,-1 -14,-2 -21,-4l0 0c-7,-1 -14,-2 -21,-4l0 0c-7,-1 -14,-2 -21,-4l0 0c-7,-1 -14,-2 -21,-3l0 0c-7,-1 -14,-2 -21,-4l0 0c-8,-1 -15,-2 -22,-3l0 0c-7,-1 -15,-2 -22,-3l0 0 -15 -2 0 0 -16 -2 0 0 -15 -2 0 0 -14 -2 0 0 -15 -2 -14 -2 0 0 -15 -1 -14 -2 0 0 -14 -2 -14 -2 0 0 -13 -2 -14 -1 -13 -2 -14 -2 -13 -1 0 0 -13 -2 0 0 -13 -1 -13 -2 0 0 -13 -2 0 0 -13 -1 0 0 -12 -2 -13 -1 -13 -2 0 0 -12 -2 0 0 -13 -1 0 0 -12 -2 0 0 -12 -1 -13 -2 -12 -2 -13 -1 0 0 -12 -2 0 0 -13 -1 -12 -2 0 0 -12 -2 0 0 -13 -2 0 0 -12 -1 -13 -2 0 0 -12 -2 -13 -2 0 0 -13 -2 0 0 -13 -2 0 0 -12 -2 0 0 -13 -2 0 0 -13 -2 0 0 -13 -2 0 0 -14 -2 0 0 -13 -2 -13 -2 0 0 -14 -3 0 0 -14 -2 0 0 -13 -2 0 0 -14 -3 -15 -2 0 0 -14 -3 0 0 -14 -3 0 0 -15 -2 0 0 -15 -3 0 0 -14 -3 -16 -3 0 0 -15 -3 0 0 -15 -3 0 0 -16 -3 0 0 -16 -4 0 0 -16 -3 0 0 -9 -2 0 0 -8 -2 0 0 -9 -1 0 0 -8 -2 0 0 -8 -2 0 0 -9 -2 -8 -2 0 0 -8 -2 0 0 -9 -2 0 0 -8 -2 -8 -2 0 0 -9 -2 0 0 -8 -2 -8 -2 -8 -2 -17 -4 0 0 -8 -3 0 0 -8 -2 -9 -2 0 0 -8 -2c-8,-3 -16,-5 -24,-7l-8 -3 0 0 -9 -2 -8 -3 0 0 -8 -2 -8 -3 -8 -2 0 0 -8 -3 -16 -5 0 0 -8 -3 0 0 -8 -2 -1 0 -8 -3 -8 -3 0 0 -8 -3 0 0 -8 -2 -8 -3 -8 -3 0 0 -8 -3 0 0 -8 -3 -8 -3 -8 -3 0 0 -8 -3 0 0 -8 -3 -8 -3 -8 -3 0 0 -8 -3 0 0 -8 -3 -8 -4 -8 -3 -8 -3 -8 -3 -8 -4 0 0 -7 -3 -8 -3 -8 -4 -8 -3 -8 -4 0 0 -8 -3 -8 -4 -8 -3c-14,-7 -28,-13 -41,-20l-12 -6c-12,-6 -23,-11 -35,-17l-6 -4c-13,-7 -27,-14 -40,-21l-10 -6c-10,-6 -21,-12 -31,-19l-9 -5c-13,-8 -25,-15 -38,-24l-7 -4c-11,-7 -21,-14 -32,-21l-8 -6c-12,-8 -24,-17 -36,-26l-6 -4c-10,-8 -20,-16 -30,-23l-9 -7c-11,-9 -23,-18 -34,-27l-4 -3c-10,-9 -19,-17 -29,-26l-10 -8c-10,-9 -20,-18 -29,-26l-3 -3c-11,-10 -21,-20 -31,-30l-9 -8c-8,-8 -16,-17 -24,-25l-7 -7c-10,-10 -19,-20 -28,-31l-8 -9c-8,-8 -15,-16 -22,-25l-7 -8c-9,-11 -18,-21 -27,-32l-7 -8c-7,-9 -13,-18 -20,-26l-8 -10c-8,-11 -16,-22 -24,-33l-6 -9c-6,-9 -13,-17 -19,-26l-7 -12c-7,-10 -14,-20 -21,-31l-6 -9c-6,-10 -12,-19 -18,-29l-8 -13c-5,-9 -10,-18 -15,-26 -2,-4 -4,-7 -6,-11 -6,-11 -12,-22 -18,-34l-8 -14c-4,-8 -8,-17 -12,-25l-7 -13c-5,-11 -11,-23 -16,-34l-7 -15c-3,-8 -7,-16 -11,-24l-6 -15c-5,-11 -10,-23 -14,-35 -2,-5 -4,-9 -6,-14 -3,-9 -6,-17 -9,-25l-6 -16c-4,-10 -7,-20 -11,-30 -2,-6 -4,-13 -6,-20 -3,-8 -6,-16 -8,-25l-5 -17c-3,-8 -5,-17 -8,-25 -2,-8 -4,-16 -6,-23 -3,-9 -5,-18 -7,-27 -2,-6 -3,-12 -5,-18 -2,-8 -3,-16 -5,-24 -2,-6 -3,-11 -4,-16 -3,-12 -5,-24 -7,-36 -2,-6 -3,-13 -4,-19 -1,-7 -3,-15 -4,-22 -1,-6 -2,-12 -3,-18 -2,-12 -4,-25 -5,-37 -1,-6 -2,-12 -3,-18 -1,-7 -2,-15 -2,-22 -1,-6 -2,-13 -3,-19 -1,-12 -2,-23 -3,-34 0,-7 -1,-14 -1,-21 -1,-7 -2,-15 -2,-22 0,-7 -1,-13 -1,-20 -1,-8 -1,-17 -1,-26 -1,-9 -1,-18 -1,-27 0,-8 0,-16 0,-23 0,-7 0,-14 0,-21 0,-8 0,-15 0,-23 0,-8 0,-17 1,-26 0,-9 0,-18 1,-28 0,-6 0,-13 1,-20 0,-7 1,-15 1,-22 1,-6 1,-12 2,-19l0 0zm3841 688l0 252c-321,45 -619,-82 -861,-255 -321,-230 -544,-615 -886,-871 -594,-444 -1330,160 -1024,896l0 -1 -1 0 0 -1 -1 -1 0 0 -1 -1 0 0 0 0 -1 -1 0 -1 -1 0 -1 -1 0 -1 -1 0 0 -1 -1 -1 0 0 0 0 -1 -1 0 -1 -1 0 0 -1 -1 0 0 -1 -1 -1 0 0 0 0 -1 -1 0 -1 -1 0 0 -1 -1 -1 0 0 -1 -1 0 0 0 -1 -1 0 0 -1 -1 -1 -1 -1 -1 -1 0 -1 -1 0 -2 -3 -1 -1 0 -1 0 0 -1 0 0 -1 -3 -5 -1 0 0 0 -1 -1 0 -1 -1 0 0 -1 -1 -1 0 0 -1 -1 -3 -5 -4 -6 -4 -5 -4 -6 -4 -5 -4 -6 -3 -6 -4 -5 -4 -6 0 0 -3 -6 -4 -5 0 0 -3 -6 -4 -6 -3 -6 0 0 -3 -5 -4 -6 -3 -6 0 0 -3 -6 0 0 -3 -6 0 0 -3 -6 -4 -6 0 0 -3 -6 -3 -6 0 0 -3 -6 0 0 -2 -7 -3 -6 0 0 -3 -6 0 0 -3 -6 0 0 -3 -6 -2 -7 -3 -6 0 0 -3 -6 -2 -7 -3 -6 0 0 -2 -7 0 0 -2 -6 -3 -6 0 0 -2 -7 -2 -6 -3 -7 -2 -7 -2 -6 -2 -7 0 0 -2 -6 0 0 -2 -7 0 0 -2 -7 0 0 -2 -7 0 0 -1 -6 -2 -7 0 0 -2 -7 0 0 -2 -7 0 0 -1 -6 0 0 -2 -7 0 0 -1 -7 -2 -7 0 0 -1 -7 -1 -7 0 0 -2 -7 -1 -7 -1 -7 -1 -7 -1 -7 -1 -7 -1 -7 -2 -11 -1 -11 -1 -11 -1 -11 -1 -12 0 -11 -1 -11 0 -10 -1 -11 0 0 0 -11 0 -11 0 -11 1 -11 0 -11 1 -10 0 -11 0 0 1 -11 1 -11 0 0 1 -10 1 -11 0 0 2 -10 0 0 1 -11 2 -10 1 -11 0 0 2 -10 2 -10 2 -11 3 -10 2 -10 2 -11 3 -10 0 0 3 -10 0 0 2 -10 3 -10 0 0 3 -10 0 0 4 -10 0 0 3 -10 0 0 3 -9 4 -10 3 -10 0 0 4 -9 4 -10 0 0 4 -10 4 -9c3,-6 6,-13 9,-19l4 -9 0 0 5 -9 0 0c3,-7 6,-13 9,-19 18,-33 37,-65 59,-96l0 0c6,-8 12,-16 18,-24 7,-8 13,-16 19,-24l0 0c5,-6 9,-11 14,-16l0 0c6,-8 13,-15 20,-23 5,-5 10,-10 14,-15l8 -7 7 -7 0 0 7 -7 8 -7c12,-12 25,-23 39,-34l0 0 8 -6 8 -7 0 0 8 -6 8 -6 8 -6 0 0 9 -6 0 0 8 -6 9 -6 9 -6 8 -5 0 0 9 -6 0 0 9 -5 9 -6 9 -5 0 0 9 -5 0 0 9 -5 9 -5 10 -4 0 0 9 -5 10 -5 9 -4 10 -4 9 -5 10 -4 10 -4 10 -4 10 -3 10 -4 10 -4 10 -3 10 -3 11 -3 10 -3 10 -3 11 -3 10 -3 11 -2 10 -3 11 -2 11 -2 11 -2 10 -2 11 -2 11 -2 11 -1c7,-1 15,-2 22,-3l12 -1 9 -1c5,0 10,-1 15,-1l5 0c6,-1 13,-1 19,-1l0 0c398,-15 599,268 878,559l0 0c20,21 39,42 59,63 118,122 170,195 313,323 8,6 15,12 23,18 271,262 562,420 874,429zm0 3468l0 0 0 0 0 0zm-2456 0l-442 0c-111,-115 -200,-216 -286,-282l0 0c-63,-48 -124,-77 -192,-79l-1 0 -5 0 -1 0c-5,0 -11,0 -17,1l0 0c-6,0 -12,1 -18,2l-1 0 -4 1 -2 0 -5 1 -1 0c-4,1 -8,1 -12,2l0 0 -6 2 -1 0 -5 1 -1 1 -6 1 0 1 -6 1 -1 1 -5 1 -2 1c-3,1 -7,2 -11,4l-1 0 -1 1 -6 2 -1 0 -6 3 -1 0 -5 3 -1 0 -6 3 -1 0 -6 3 -4 2 -3 1 -1 1 -6 3 -1 0 -6 4 0 0 -7 4 0 0 -7 4 -1 0 -7 4c-102,61 -233,174 -370,302l-417 0 490 -472 1 0 123 -118 0 0 9 -9 0 0 10 -9 0 0 9 -8 0 0 10 -8 0 0 9 -9 0 0 10 -8 0 0 9 -7 0 0 10 -8 0 0 9 -7 0 0c4,-3 7,-5 10,-7l0 0 10 -7c355,-272 564,27 780,276l0 0 23 23 0 0 18 19c22,23 43,46 65,69l0 0c15,16 30,31 44,46l0 0c15,15 30,30 44,46l0 0c23,22 45,45 67,67l0 0 23 22c15,15 30,30 45,44l0 0c7,8 15,15 22,22l0 0c8,7 16,15 23,22l0 0c8,7 16,14 23,21l0 0 0 0z"/>
    <path class="fil3" d="M10144 14284l614 -590c201,-192 419,-263 641,-57 93,87 189,187 285,288 116,123 233,246 356,359l44 0 2412 0 0 0 0 -2362c-742,-770 -1608,-476 -2473,-856 -131,-60 -245,-153 -331,-270 -84,-115 -141,-253 -161,-404 -31,-237 35,-462 168,-635 133,-173 333,-295 568,-326 453,-60 663,242 960,552 94,98 218,224 342,351 277,285 599,465 927,485l0 -912c-83,-13 -162,-64 -242,-134 -117,-105 -229,-221 -338,-334 -488,-506 -917,-950 -1836,-829 -475,62 -806,263 -1076,615 -673,877 -355,2179 657,2639 169,76 340,131 520,168 347,72 538,86 868,130 472,64 770,252 923,488 74,114 114,241 125,370 10,133 -10,266 -59,387 -106,265 -346,480 -689,525 -402,53 -719,-280 -1033,-610 -172,-180 -354,-377 -562,-520 -224,-154 -464,-233 -719,-219 -155,7 -308,50 -458,131 -251,136 -464,387 -674,587 -183,177 -748,673 -1030,983l1271 0z"/>
    <path class="fil4" d="M14496 11911c-44,-45 -91,-89 -142,-131 52,56 99,114 142,175l0 -44zm-4352 2373l-339 0 782 -752c201,-192 419,-263 641,-57 42,39 85,81 128,125 -207,-160 -411,-86 -598,94l-614 590zm1387 -3892c-31,-237 35,-462 168,-635 133,-173 333,-295 568,-326 325,-43 527,98 723,296 -402,-618 -1101,-552 -1440,-150 -289,341 -298,908 222,1313 -16,-17 -32,-34 -47,-52 -11,-14 -22,-28 -33,-42 -84,-115 -141,-253 -161,-404z"/>
    <path class="fil5" d="M13742 10063c220,-9 423,-90 600,-210 -1,0 -2,-1 -2,-1 -1,-1 -2,-2 -2,-3 -9,-8 -18,-16 -27,-24 -39,-35 -32,-29 -57,-52 -94,-85 -186,-177 -275,-269 -54,240 -120,379 -237,559zm-2411 -1166c210,135 318,199 478,359 47,-198 29,-390 -17,-587 -173,52 -325,127 -461,228zm1718 3265c180,24 335,67 466,123 -8,-30 -16,-59 -23,-86 -45,-188 -50,-328 -36,-513 -149,90 -267,214 -358,355 -25,39 -47,78 -68,118 6,1 13,2 19,3zm-775 -111c188,36 332,55 491,75 -80,-199 -95,-354 -103,-574 -171,131 -310,300 -388,499zm-613 -187c99,45 199,82 301,113 -5,-39 -8,-75 -11,-110 -12,-175 4,-308 43,-477 -178,74 -325,195 -442,340 -15,18 -29,37 -43,55 49,29 100,55 152,79zm-1009 -1707c226,-73 377,-87 586,-80 -120,-182 -291,-313 -483,-403 -54,148 -87,300 -100,454 -1,10 -2,19 -3,29zm200 -697c228,31 352,46 555,121 -42,-208 -120,-365 -251,-531 -53,54 -104,112 -152,175 -58,76 -108,154 -152,235zm-1007 4688c-7,-212 -94,-430 -205,-604 -127,117 -256,236 -386,357 109,26 222,54 302,87 100,42 188,93 289,160zm-70 -727l128 -120c78,-75 157,-156 238,-237 108,173 211,402 217,605 -181,-121 -336,-191 -583,-248zm2140 -494c-53,253 -118,395 -237,581 223,-11 428,-96 606,-220 -116,-122 -237,-249 -368,-361l-1 0zm512 510c-43,249 -103,392 -214,580 222,-20 423,-111 595,-241 -132,-91 -258,-211 -381,-339zm1594 9c-70,152 -185,285 -339,374 244,44 430,89 615,199 -18,-219 -116,-415 -276,-573zm-801 -3878c219,-7 446,-87 623,-204 -125,-129 -248,-253 -379,-361 -56,245 -124,384 -244,565z"/>
   </g>
   <g>
    <path class="fil6" d="M13778 2623l0 0c257,56 497,89 718,89l0 -103c-5,1 -10,2 -15,3 -8,2 -17,4 -25,6l-18 3c-9,2 -17,3 -26,5 -8,1 -16,3 -24,4 -9,1 -18,3 -27,4 -6,1 -12,2 -18,3 -9,1 -17,2 -25,3 -5,1 -11,1 -16,2 -12,1 -25,3 -37,4 -6,0 -12,1 -19,1 -7,1 -15,1 -22,2 -6,0 -13,1 -19,1 -12,1 -24,2 -36,2 -6,0 -12,0 -18,0 -8,1 -15,1 -23,1 -6,0 -13,0 -20,0 -11,0 -22,0 -33,0 -7,0 -14,0 -21,-1 -7,0 -15,0 -22,0 -7,-1 -14,-1 -20,-1 -9,-1 -17,-1 -26,-2 -9,0 -18,-1 -27,-2 -8,0 -16,-1 -24,-2 -7,0 -13,-1 -20,-2 -8,-1 -15,-1 -23,-2 -8,-1 -17,-3 -25,-4 -10,-1 -19,-2 -28,-4 -7,-1 -13,-2 -20,-3 -7,-1 -15,-2 -22,-3 -6,-2 -12,-3 -18,-4l-1 0zm-505 -1900l397 0c-226,492 204,1052 826,931l0 33 -1 0 0 0 -6 3 -6 3 0 0 -6 3 -6 3 -6 3 0 0 -7 2 -6 3 -6 3 0 0 -6 2 0 0 -6 3 0 0 -7 2 -6 3 0 0 -6 2 -7 3 0 0 -6 2 0 0 -6 2 -7 3 0 0 -6 2 0 0 -7 2 0 0 -6 2 -7 2 -6 2 0 0 -7 2 -7 2 -6 2 0 0 -7 1 0 0 -6 2 -7 2 0 0 -7 1 -7 2 -6 2 -7 1 -7 2 -7 1 0 0 -6 1 0 0 -7 1 0 0 -7 2 0 0 -7 1 0 0 -7 1 -7 1 0 0 -7 1 0 0 -7 1 0 0 -7 1 0 0 -7 1 0 0 -7 0 -7 1 0 0 -7 1 -7 1 0 0 -7 0 -7 1 -7 0 -7 0 -7 1 -7 0 -7 0 -12 1 -11 0 -11 0 -11 0 -11 -1 -11 0 -11 -1 -11 -1 -11 0 0 0 -11 -1 -11 -1 -10 -2 -11 -1 -11 -2 -10 -1 -11 -2 0 0 -11 -2 -10 -2 0 0 -11 -2 -10 -2 0 0 -10 -3 0 0 -11 -2 -10 -3 -10 -3 0 0 -10 -2 -10 -3 -10 -4 -11 -3 -9 -3 -10 -4 -10 -3 0 0 -10 -4 0 0 -10 -4 -9 -4 0 0 -10 -4 0 0 -9 -4 0 0 -10 -4 0 0 -9 -5 -10 -4 -9 -5 0 0 -9 -4 -9 -5 0 0 -9 -5 -9 -5c-6,-4 -12,-7 -18,-10l-9 -6 0 0 -9 -5 0 0c-6,-4 -11,-8 -17,-11 -31,-21 -61,-44 -89,-69l0 0c-8,-7 -16,-14 -23,-21 -8,-7 -15,-14 -22,-21l0 0c-5,-5 -10,-10 -14,-15l0 0c-7,-7 -14,-15 -21,-23 -4,-5 -9,-10 -13,-15l-7 -8 -6 -8 0 0 -6 -8 -7 -8c-10,-14 -20,-28 -29,-42l0 0 -6 -9 -5 -9 -1 0 -5 -8 -5 -9 -5 -9 0 0 -6 -9 0 0 -5 -9 -5 -9 -4 -10 -5 -9 0 0 -5 -9 0 0 -4 -9 -4 -10 -5 -9 0 0 -4 -10 0 0 -4 -10 -4 -9 -4 -10 0 0 -3 -10 -4 -10 -3 -10 -4 -10 -3 -10 -3 -10 -3 -10 -3 -10 -2 -11 -3 -10 -3 -10 -2 -11 -2 -10 -2 -11 -2 -10 -2 -11 -2 -11 -1 -10 -2 -11 -1 -11 -1 -11 -1 -11 -1 -11 -1 -11 -1 -11 0 -11 -1 -11c0,-7 0,-14 0,-21l0 -12 0 -10c0,-5 0,-10 0,-15l1 -5c0,-6 0,-12 1,-19l0 0c3,-51 11,-99 23,-143z"/>
    <path class="fil3" d="M14496 1687c-110,55 -235,88 -366,91 -240,7 -456,-82 -615,-232 -159,-149 -260,-361 -267,-598 -2,-83 7,-158 25,-225l-847 0c-12,102 -17,210 -14,328 14,479 181,829 504,1134 440,415 1038,547 1580,424l0 -922z"/>
    <path class="fil4" d="M13153 723l119 0c-18,68 -26,142 -24,225 7,237 108,449 267,598 159,150 375,239 615,232 131,-3 256,-36 366,-91l0 39c-422,322 -899,237 -1176,-49 -236,-245 -317,-625 -167,-954z"/>
    <path class="fil5" d="M12622 1825c156,-195 231,-296 406,-438 -192,-68 -385,-69 -585,-43 33,177 93,336 179,481zm1185 803c-50,-231 -48,-383 -20,-591 -193,101 -341,259 -450,440 141,69 290,118 441,146 10,2 19,4 29,5zm-674 -269c55,-224 82,-345 178,-539 -212,20 -376,82 -554,196 48,58 101,114 159,169 69,65 142,123 217,174z"/>
   </g>
   <g>
    <path class="fil7" d="M16411 725c85,213 66,463 72,740 2,135 8,311 13,489 19,709 370,1270 1103,1306 71,8 548,-25 583,-12 50,19 45,105 44,149 -5,173 130,280 303,223l764 -382c145,-73 298,-131 300,-294 0,-26 0,-52 0,-78l303 -7 204 263c31,40 88,47 128,16 40,-31 47,-88 16,-128l-191 -247 178 -256c29,-41 18,-98 -23,-127 -41,-29 -98,-19 -127,23l-190 273 -66 2 0 0 -237 6c0,-18 0,-37 0,-56 1,-101 -48,-176 -126,-227 -47,-31 -102,-50 -159,-75l-785 -343c-135,-54 -300,7 -327,166 -20,114 70,212 -130,220l-276 11c-301,12 -381,-148 -405,-374 -15,-156 -19,-318 -22,-475 -7,-282 -13,-551 -67,-806l-880 0z"/>
    <path class="fil4" d="M18143 3032c-662,48 -1386,43 -1613,-755 43,225 126,425 252,585 181,231 449,378 812,397 1,0 2,0 3,0 0,0 1,0 2,0 1,0 2,1 3,1 34,3 141,-1 255,-6 147,-6 305,-13 325,-6 50,18 45,105 44,149 -5,173 130,280 303,223l601 -301c20,-13 -726,275 -727,-77 -2,-132 -99,-210 -260,-210zm1598 -351l-152 3 5 182 148 -3c-34,-25 -36,-137 -1,-182z"/>
    <path class="fil5" d="M16807 1872c168,143 372,221 583,253 0,-1 0,-2 0,-3 0,-1 0,-2 1,-3 -2,-12 -3,-24 -4,-36 -5,-53 -4,-43 -7,-77 -12,-126 -17,-256 -20,-384 -202,140 -345,197 -553,250zm-48 -717c165,143 387,238 596,272 -4,-180 -11,-354 -33,-523 -208,142 -353,199 -563,251z"/>
   </g>
   <path class="fil8" d="M25174 10128l0 0c-109,960 75,1645 951,2043 169,77 339,132 519,169 348,72 539,86 869,130 513,69 1165,340 1052,918 13,-35 24,-70 32,-106l1 -4 0 -2c1,-5 3,-11 4,-17l1 -5 0 0 1 -6 0 0c2,-8 3,-15 4,-23l0 -1 1 -5 0 -1 1 -5 0 -1 1 -4 1 -12 0 0 1 -3 0 -3 0 -3 1 -3 0 0 0 -5 1 -4 0 -2 0 -4 0 -2 1 -4 0 -2 0 -4 0 -2 1 -5 0 -1 0 -5 0 0 1 -6 0 0 0 -6 0 0 0 -6 0 0 0 -6 0 -1 1 -5 0 -1 0 -5 0 -1 0 -5 0 -1 0 -4 0 -2 0 -7 0 0 0 -3 0 -3 0 -1 0 -11 0 -3 0 -4 -1 -6 0 -2 0 -4 0 -2 0 -4 0 -2 -1 -4 0 -1 0 -6 0 0 0 -6 0 0 -1 -6 0 -6 -1 -6 0 -6 0 0 -1 -6 -1 -6 -1 -6 0 -6 0 0 -1 -6 -1 -6 0 0 -1 -6 -1 -6 -1 -6 -1 -6 -1 -6 -1 -6 -1 -6 0 0 -1 -6 0 0 -2 -6 0 0 -1 -6 0 0 -1 -6 0 0 -2 -6 -1 -6 -2 -6 0 0 -1 -6 -2 -5 -2 -6 -1 -6 -2 -6 -2 -6 -2 -6 0 0 -1 -6 -2 -5 0 0 -2 -6 -2 -6 0 0c-2,-4 -3,-8 -5,-12l0 0 -2 -5 -2 -6 -2 -6 -2 -6 -3 -5 -2 -6 -3 -6 0 0 -2 -5 0 0 -3 -6 -2 -6 -3 -5 -3 -6 0 0 -2 -6 0 0 -3 -5 0 0 -3 -6 -3 -5 0 0 -3 -6 0 0 -3 -6 0 0 -3 -5 0 0 -3 -6 0 0 -3 -5 0 0 -3 -5 0 -1 -3 -5 0 0 -3 -5 0 0 -4 -6 0 0 -3 -5 0 0 -3 -6 0 0 -4 -5 0 0c-2,-4 -5,-7 -7,-11l0 0c-3,-4 -5,-7 -8,-11l0 0c-2,-4 -5,-7 -7,-11l0 0 -8 -11 0 0c-3,-3 -6,-7 -8,-10l0 0c-3,-4 -6,-7 -9,-11l0 0c-3,-3 -5,-7 -8,-10l0 0c-3,-4 -6,-7 -9,-11l0 0c-3,-3 -6,-7 -9,-10l0 0c-3,-4 -6,-7 -9,-11l0 0c-3,-3 -7,-6 -10,-10l0 0c-3,-3 -6,-7 -9,-10l0 0c-4,-3 -7,-7 -10,-10l0 0c-4,-3 -7,-7 -10,-10l0 0c-4,-3 -7,-7 -11,-10l0 0c-3,-3 -7,-6 -10,-10l0 0c-4,-3 -7,-6 -11,-9l0 0c-4,-4 -7,-7 -11,-10l0 0c-4,-3 -7,-6 -11,-9l0 0c-4,-3 -8,-7 -12,-10l0 0c-3,-3 -7,-6 -11,-9l0 0c-4,-3 -8,-6 -12,-9l0 0c-4,-3 -8,-6 -12,-9l0 0c-4,-3 -8,-6 -13,-9l0 0c-4,-3 -8,-6 -12,-9l0 0c-4,-3 -9,-6 -13,-9l0 0c-4,-3 -9,-5 -13,-8l0 0c-4,-3 -9,-6 -13,-9l0 0c-5,-3 -9,-5 -14,-8l0 0c-4,-3 -9,-6 -13,-8l0 0c-5,-3 -10,-6 -14,-8l0 0c-5,-3 -10,-6 -15,-8l0 0c-4,-3 -9,-6 -14,-8l0 0c-5,-3 -10,-6 -15,-8l0 0c-5,-3 -9,-5 -14,-8l-1 0c-5,-2 -10,-5 -15,-7l0 0 -15 -8 0 0c-5,-2 -10,-4 -16,-7l0 0c-5,-2 -10,-4 -15,-7l0 0c-6,-2 -11,-4 -17,-7l0 0c-5,-2 -10,-4 -16,-7l0 0c-5,-2 -11,-4 -16,-6l0 0c-6,-2 -12,-5 -17,-7l0 0c-6,-2 -11,-4 -17,-6l0 0c-6,-2 -12,-4 -17,-6l0 0c-6,-2 -12,-4 -18,-6l0 0 -18 -6 0 0c-6,-2 -12,-4 -18,-6l0 0c-6,-2 -12,-4 -18,-6l0 0c-6,-1 -12,-3 -19,-5l0 0c-6,-2 -12,-4 -18,-5l0 0c-7,-2 -13,-4 -19,-6l0 0c-7,-1 -13,-3 -20,-4l0 0c-6,-2 -12,-4 -19,-5l0 0 -20 -5 0 0c-6,-1 -13,-3 -20,-4l0 0c-6,-2 -13,-3 -20,-5l0 0c-7,-1 -14,-2 -20,-4l0 0c-7,-1 -14,-2 -21,-4l0 0c-7,-1 -14,-2 -21,-4l0 0c-7,-1 -14,-2 -21,-3l0 0c-8,-1 -15,-2 -22,-4l0 0c-7,-1 -14,-2 -22,-3l0 0c-7,-1 -14,-2 -22,-3l0 0 -15 -2 0 0 -15 -2 0 0 -15 -2 0 0 -15 -2 0 0 -15 -2 -14 -2 0 0 -14 -1 -14 -2 0 0 -14 -2 -14 -2 0 0 -14 -2 -13 -1 -14 -2 -13 -2 -13 -1 0 0 -14 -2 0 0 -13 -1 -13 -2 0 0 -12 -2 0 0 -13 -1 0 0 -13 -2 -13 -1 -12 -2 0 0 -13 -2 0 0 -12 -1 0 0 -13 -2 0 0 -12 -1 -13 -2 -12 -2 -12 -1 0 0 -13 -2 0 0 -12 -1 -13 -2 0 0 -12 -2 0 0 -12 -2 0 0 -13 -1 -12 -2 0 0 -13 -2 -13 -2 0 0 -12 -2 0 0 -13 -2 0 0 -13 -2 0 0 -13 -2 0 0 -13 -2 0 0 -13 -2 0 0 -13 -2 0 0 -14 -2 -13 -2 0 0 -14 -3 0 0 -13 -2 0 0 -14 -2 0 0 -14 -3 -14 -2 0 0 -14 -3 0 0 -15 -3 0 0 -14 -2 0 0 -15 -3 0 0 -15 -3 -15 -3 0 0 -16 -3 0 0 -15 -3 0 0 -16 -3 0 0 -16 -4 0 0 -16 -3 0 0 -8 -2 0 0 -9 -2 0 0 -8 -1 0 0 -9 -2 0 0 -8 -2 0 0 -8 -2 -9 -2 0 0 -8 -2 0 0 -8 -2 0 0 -9 -2 -8 -2 0 0 -8 -2 0 0 -8 -2 -9 -2 -8 -2 -17 -4 1 0 -9 -3 0 0 -8 -2 -8 -2 0 0 -8 -2c-9,-3 -17,-5 -25,-7l-8 -3 0 0 -8 -2 -8 -3 0 0 -8 -2 -9 -3 -8 -2 0 0 -8 -3 -16 -5 0 0 -8 -3 0 0 -8 -2 0 0 -8 -3 -8 -3 0 0 -8 -3 0 0 -8 -2 -8 -3 -8 -3 0 0 -8 -3 0 0 -8 -3 -8 -3 -8 -3 0 0 -8 -3 0 0 -8 -3 -8 -3 -8 -3 0 0 -8 -3 0 0 -8 -3 -8 -4 -8 -3 -8 -3 -8 -3 -8 -4 0 0 -8 -3 -8 -3 -8 -4 -8 -3 -8 -4 0 0 -8 -3 -8 -4 -8 -3c-13,-7 -27,-13 -41,-20l-12 -6c-11,-6 -23,-11 -34,-17l-7 -4c-13,-7 -26,-14 -39,-21l-10 -6c-11,-6 -22,-12 -32,-19l-8 -5c-13,-8 -26,-15 -38,-24l-8 -4c-10,-7 -21,-14 -31,-21l-8 -6c-13,-8 -25,-17 -37,-26l-6 -4c-10,-8 -20,-16 -30,-23l-8 -7c-12,-9 -23,-18 -35,-27l-3 -3c-10,-9 -20,-17 -30,-26l-10 -8c-10,-9 -19,-18 -29,-26l-3 -3c-10,-10 -21,-20 -31,-30l-8 -8c-8,-8 -16,-17 -24,-25l-8 -7c-9,-10 -19,-20 -28,-31l-8 -9c-7,-8 -15,-16 -22,-25l-7 -8c-9,-11 -18,-21 -27,-32l-6 -8c-7,-9 -14,-18 -21,-26l-7 -10c-9,-11 -17,-22 -25,-33l-6 -9c-6,-9 -12,-17 -18,-26l-8 -12c-7,-10 -14,-20 -20,-31l-6 -9c-6,-10 -12,-19 -18,-29l-8 -13c-5,-9 -10,-18 -15,-26 -2,-4 -4,-7 -6,-11 -7,-11 -13,-22 -19,-34l-7 -14c-5,-8 -9,-17 -13,-25l-6 -13c-6,-11 -11,-23 -17,-34l-6 -15c-4,-8 -8,-16 -11,-24l-6 -15c-5,-11 -10,-23 -15,-35 -2,-5 -4,-9 -5,-14 -4,-9 -7,-17 -10,-25l-6 -16c-3,-10 -7,-20 -10,-30 -2,-6 -5,-13 -7,-20 -3,-8 -5,-16 -8,-25l-5 -17c-3,-8 -5,-17 -7,-25 -3,-8 -5,-16 -7,-23 -2,-9 -5,-18 -7,-27 -1,-6 -3,-12 -4,-18 -2,-8 -4,-16 -6,-24 -1,-6 -2,-11 -4,-16 -2,-12 -5,-24 -7,-36 -1,-6 -2,-13 -3,-19 -2,-7 -3,-15 -4,-22 -1,-6 -2,-12 -3,-18 -2,-12 -4,-25 -6,-37 -1,-6 -2,-12 -2,-18 -1,-7 -2,-15 -3,-22 -1,-6 -2,-13 -2,-19 -1,-12 -2,-23 -3,-34 -1,-7 -2,-14 -2,-21 -1,-7 -1,-15 -2,-22 0,-7 0,-13 -1,-20 0,-8 -1,-17 -1,-26 0,-9 0,-18 -1,-27 0,-8 0,-16 0,-23 0,-7 0,-14 0,-21 0,-8 0,-15 0,-23 1,-8 1,-17 1,-26 0,-9 1,-18 1,-28 0,-6 1,-13 1,-20 1,-7 1,-15 2,-22 0,-6 1,-12 1,-19l0 0zm3842 688l0 252c-322,45 -619,-82 -861,-255 -322,-230 -545,-615 -886,-871 -595,-444 -1331,160 -1024,896l-1 -1 0 0 -1 -1 0 -1 -1 0 0 -1 -1 0 0 0 -1 -1 0 -1 -1 0 0 -1 -1 -1 0 0 -1 -1 0 -1 0 0 -1 0 0 -1 -1 -1 0 0 -1 -1 0 0 -1 -1 0 -1 -1 0 0 0 0 -1 -1 -1 0 0 -1 -1 0 -1 -1 0 -1 -1 0 0 0 -1 -1 0 0 -1 -1 -1 -1 -1 -1 -1 0 -1 0 0 -3 -3 0 -1 -1 -1 0 0 0 0 -1 -1 -3 -5 0 0 -1 0 0 -1 -1 -1 0 0 -1 -1 0 -1 -1 0 0 -1 -4 -5 -4 -6 -4 -5 -4 -6 -3 -5 -4 -6 -4 -6 -3 -5 -4 -6 0 0 -4 -6 -3 -5 0 0 -4 -6 -3 -6 -4 -6 0 0 -3 -5 -3 -6 -3 -6 0 0 -4 -6 0 0 -3 -6 0 0 -3 -6 -3 -6 0 0 -3 -6 -3 -6 0 0 -3 -6 0 0 -3 -7 -3 -6 0 0 -3 -6 0 0 -3 -6 0 0 -2 -6 -3 -7 -3 -6 0 0 -2 -6 -3 -7 -2 -6 0 0 -3 -7 0 0 -2 -6 -2 -6 0 0 -3 -7 -2 -6 -2 -7 -2 -7 -2 -6 -2 -7 0 0 -2 -6 -1 0 -1 -7 0 0 -2 -7 0 0 -2 -7 0 0 -2 -6 -2 -7 0 0 -1 -7 0 0 -2 -7 0 0 -2 -6 0 0 -1 -7 0 0 -2 -7 -1 -7 0 0 -2 -7 -1 -7 0 0 -1 -7 -1 -7 -2 -7 -1 -7 -1 -7 -1 -7 -1 -7 -1 -11 -1 -11 -2 -11 0 -11 -1 -12 -1 -11 -1 -11 0 -10 0 -11 0 0 0 -11 0 -11 0 -11 0 -11 1 -11 0 -10 1 -11 0 0 1 -11 0 -11 0 0 2 -10 1 -11 0 0 1 -10 0 0 2 -11 1 -10 2 -11 0 0 2 -10 2 -10 2 -11 2 -10 2 -10 3 -11 2 -10 0 0 3 -10 0 0 3 -10 3 -10 0 0 3 -10 0 0 3 -10 0 0 3 -10 0 0 4 -9 3 -10 4 -10 0 0 4 -9 3 -10 0 0 4 -10 4 -9c3,-6 6,-13 9,-19l4 -9 0 0 5 -9 0 0c3,-7 6,-13 9,-19 18,-33 38,-65 59,-96l0 0c6,-8 12,-16 19,-24 6,-8 12,-16 19,-24l0 0c4,-6 9,-11 13,-16l0 0c7,-8 14,-15 21,-23 4,-5 9,-10 14,-15l7 -7 7 -7 0 0 8 -7 7 -7c13,-12 26,-23 39,-34l0 0 8 -6 8 -7 0 0 8 -6 8 -6 9 -6 0 0 8 -6 0 0 9 -6 8 -6 9 -6 9 -5 0 0 8 -6 0 0 9 -5 9 -6 9 -5 0 0 9 -5 0 0 10 -5 9 -5 9 -4 0 0 10 -5 9 -5 10 -4 9 -4 10 -5 10 -4 9 -4 10 -4 10 -3 10 -4 10 -4 10 -3 11 -3 10 -3 10 -3 11 -3 10 -3 11 -3 10 -2 11 -3 10 -2 11 -2 11 -2 11 -2 11 -2 11 -2 11 -1c7,-1 14,-2 21,-3l12 -1 9 -1c5,0 11,-1 16,-1l4 0c7,-1 13,-1 19,-1l1 0c397,-15 599,268 877,559l1 0c19,21 39,42 59,63 117,122 170,195 312,323 8,6 16,12 24,18 270,262 561,420 874,429zm0 3468l0 0 0 0 0 0zm-2456 0l-442 0c-112,-115 -200,-216 -286,-282l0 0c-63,-48 -125,-77 -193,-79l0 0 -6 0 0 0c-6,0 -12,0 -18,1l0 0c-6,0 -12,1 -17,2l-2 0 -4 1 -2 0 -5 1 0 0c-4,1 -9,1 -13,2l0 0 -5 2 -1 0 -6 1 -1 1 -5 1 -1 1 -5 1 -2 1 -5 1 -1 1c-4,1 -8,2 -12,4l-1 0 -1 1 -6 2 -1 0 -5 3 -1 0 -6 3 -1 0 -6 3 -1 0 -6 3 -4 2 -3 1 0 1 -7 3 0 0 -7 4 0 0 -7 4 0 0 -7 4 0 0 -7 4c-102,61 -233,174 -371,302l-417 0 491 -472 0 0 123 -118 0 0 10 -9 0 0 9 -9 0 0 9 -8 0 0 10 -8 0 0 10 -9 0 0 9 -8 0 0 10 -7 0 0 9 -8 0 0 10 -7 0 0c3,-3 6,-5 10,-7l0 0 9 -7c356,-272 564,27 781,276l0 0 22 23 0 0 18 19c22,23 44,46 66,69l0 0c14,16 29,31 44,46l0 0c14,15 29,30 44,46l0 0c22,22 44,45 67,67l0 0 22 22c15,15 30,30 45,44l0 0c8,8 15,15 23,22l0 0c7,7 15,15 23,22l0 0c7,7 15,14 23,21l0 0 0 0z"/>
   <path class="fil7" d="M24663 14284l614 -590c201,-192 420,-263 641,-57 93,87 189,187 285,288 117,123 234,246 357,359l43 0 2413 0 0 0 0 -2362c-743,-770 -1608,-476 -2473,-856 -131,-60 -245,-153 -331,-270 -84,-115 -142,-253 -162,-404 -31,-237 36,-462 169,-635 133,-173 333,-295 568,-326 453,-60 662,242 960,552 93,98 217,224 341,351 277,285 599,465 928,485l0 -912c-84,-13 -163,-64 -243,-134 -116,-105 -229,-221 -338,-334 -488,-506 -917,-950 -1835,-829 -476,62 -807,263 -1077,615 -673,877 -354,2179 657,2639 169,76 340,131 520,168 348,72 539,86 868,130 473,64 770,252 923,488 74,114 115,241 125,370 11,133 -10,266 -58,387 -106,265 -347,480 -689,525 -402,53 -719,-280 -1033,-610 -172,-180 -354,-377 -563,-520 -224,-154 -464,-233 -719,-219 -154,7 -307,50 -457,131 -252,136 -465,387 -674,587 -184,177 -749,673 -1030,983l1270 0z"/>
   <path class="fil4" d="M29016 11911c-45,-45 -92,-89 -142,-131 52,56 99,114 142,175l0 -44zm-4353 2373l-339 0 782 -752c201,-192 420,-263 641,-57 42,39 85,81 128,125 -207,-160 -410,-86 -598,94l-614 590zm1387 -3892c-31,-237 36,-462 169,-635 133,-173 333,-295 568,-326 324,-43 526,98 722,296 -401,-618 -1100,-552 -1440,-150 -288,341 -298,908 223,1313 -17,-17 -32,-34 -47,-52 -12,-14 -23,-28 -33,-42 -84,-115 -142,-253 -162,-404z"/>
   <path class="fil5" d="M28262 10063c220,-9 423,-90 599,-210 -1,0 -1,-1 -2,-1 -1,-1 -1,-2 -1,-3 -9,-8 -19,-16 -27,-24 -40,-35 -32,-29 -58,-52 -94,-85 -186,-177 -275,-269 -54,240 -120,379 -236,559zm-2411 -1166c209,135 318,199 477,359 48,-198 29,-390 -16,-587 -174,52 -325,127 -461,228zm1717 3265c181,24 336,67 467,123 -9,-30 -17,-59 -23,-86 -46,-188 -51,-328 -37,-513 -149,90 -267,214 -358,355 -24,39 -47,78 -67,118 6,1 12,2 18,3zm-774 -111c188,36 331,55 490,75 -80,-199 -95,-354 -103,-574 -170,131 -310,300 -387,499zm-614 -187c100,45 199,82 301,113 -4,-39 -8,-75 -11,-110 -12,-175 5,-308 43,-477 -178,74 -324,195 -441,340 -15,18 -29,37 -43,55 48,29 99,55 151,79zm-1008 -1707c225,-73 376,-87 586,-80 -120,-182 -292,-313 -483,-403 -55,148 -88,300 -101,454 -1,10 -1,19 -2,29zm200 -697c228,31 351,46 554,121 -41,-208 -120,-365 -251,-531 -53,54 -103,112 -152,175 -58,76 -108,154 -151,235zm-1008 4688c-6,-212 -94,-430 -204,-604 -128,117 -257,236 -386,357 109,26 221,54 301,87 101,42 189,93 289,160zm-69 -727l128 -120c78,-75 157,-156 237,-237 108,173 211,402 217,605 -181,-121 -336,-191 -582,-248zm2139 -494c-52,253 -118,395 -237,581 224,-11 429,-96 606,-220 -116,-122 -237,-249 -367,-361l-2 0zm512 510c-43,249 -103,392 -213,580 222,-20 423,-111 595,-241 -133,-91 -258,-211 -382,-339zm1595 9c-70,152 -186,285 -340,374 245,44 430,89 615,199 -18,-219 -116,-415 -275,-573zm-802 -3878c219,-7 446,-87 624,-204 -126,-129 -249,-253 -379,-361 -57,245 -125,384 -245,565z"/>
   <path class="fil8" d="M28297 2623l0 0c258,56 497,89 719,89l0 -103c-5,1 -10,2 -16,3 -8,2 -17,4 -25,6l-18 3c-8,2 -17,3 -26,5 -8,1 -15,3 -23,4 -9,1 -19,3 -28,4 -6,1 -12,2 -18,3 -8,1 -16,2 -25,3 -5,1 -10,1 -16,2 -12,1 -24,3 -36,4 -7,0 -13,1 -19,1 -8,1 -15,1 -23,2 -6,0 -12,1 -18,1 -13,1 -25,2 -37,2 -6,0 -12,0 -18,0 -8,1 -15,1 -22,1 -7,0 -14,0 -20,0 -11,0 -22,0 -33,0 -7,0 -14,0 -21,-1 -8,0 -15,0 -23,0 -7,-1 -13,-1 -20,-1 -8,-1 -17,-1 -25,-2 -10,0 -19,-1 -28,-2 -8,0 -15,-1 -23,-2 -7,0 -14,-1 -21,-2 -7,-1 -15,-1 -22,-2 -9,-1 -17,-3 -26,-4 -9,-1 -18,-2 -28,-4 -6,-1 -13,-2 -20,-3 -7,-1 -14,-2 -22,-3 -6,-2 -12,-3 -18,-4l-1 0zm-505 -1900l397 0c-226,492 205,1052 827,931l0 33 -2 0 0 0 -6 3 -6 3 0 0 -6 3 -6 3 -6 3 0 0 -6 2 -6 3 -6 3 -1 0 -6 2 0 0 -6 3 0 0 -6 2 -7 3 0 0 -6 2 -6 3 0 0 -7 2 0 0 -6 2 -7 3 0 0 -6 2 0 0 -6 2 0 0 -7 2 -6 2 -7 2 0 0 -7 2 -6 2 -7 2 0 0 -6 1 0 0 -7 2 -7 2 0 0 -6 1 -7 2 -7 2 -7 1 -6 2 -7 1 0 0 -7 1 0 0 -7 1 0 0 -7 2 0 0 -7 1 0 0 -6 1 -7 1 0 0 -7 1 0 0 -7 1 0 0 -7 1 0 0 -7 1 0 0 -7 0 -7 1 0 0 -7 1 -7 1 0 0 -7 0 -7 1 -7 0 -8 0 -7 1 -7 0 -7 0 -11 1 -11 0 -11 0 -12 0 -11 -1 -11 0 -11 -1 -11 -1 -10 0 0 0 -11 -1 -11 -1 -11 -2 -11 -1 -10 -2 -11 -1 -11 -2 0 0 -10 -2 -11 -2 0 0 -10 -2 -11 -2 0 0 -10 -3 0 0 -10 -2 -11 -3 -10 -3 0 0 -10 -2 -10 -3 -10 -4 -10 -3 -10 -3 -10 -4 -10 -3 0 0 -10 -4 0 0 -9 -4 -10 -4 0 0 -10 -4 0 0 -9 -4 0 0 -10 -4 1 0 -10 -5 -9 -4 -10 -5 0 0 -9 -4 -9 -5 0 0 -9 -5 -9 -5c-6,-4 -12,-7 -18,-10l-9 -6 0 0 -8 -5 0 0c-6,-4 -12,-8 -18,-11 -31,-21 -61,-44 -89,-69l0 0c-8,-7 -15,-14 -23,-21 -7,-7 -15,-14 -22,-21l0 0c-5,-5 -9,-10 -14,-15l0 0c-7,-7 -14,-15 -21,-23 -4,-5 -8,-10 -13,-15l-6 -8 -7 -8 0 0 -6 -8 -6 -8c-11,-14 -20,-28 -30,-42l0 0 -6 -9 -5 -9 0 0 -6 -8 -5 -9 -5 -9 0 0 -5 -9 0 0 -5 -9 -5 -9 -5 -10 -5 -9 0 0 -4 -9 0 0 -5 -9 -4 -10 -4 -9 0 0 -4 -10 0 0 -4 -10 -4 -9 -4 -10 0 0 -4 -10 -3 -10 -4 -10 -3 -10 -3 -10 -3 -10 -3 -10 -3 -10 -3 -11 -3 -10 -2 -10 -2 -11 -3 -10 -2 -11 -2 -10 -2 -11 -1 -11 -2 -10 -1 -11 -2 -11 -1 -11 -1 -11 -1 -11 -1 -11 0 -11 -1 -11 0 -11c-1,-7 -1,-14 -1,-21l0 -12 0 -10c0,-5 1,-10 1,-15l0 -5c0,-6 1,-12 1,-19l0 0c3,-51 11,-99 23,-143z"/>
   <path class="fil7" d="M29016 1687c-111,55 -235,88 -367,91 -239,7 -456,-82 -615,-232 -159,-149 -259,-361 -266,-598 -3,-83 6,-158 24,-225l-847 0c-12,102 -17,210 -13,328 14,479 180,829 503,1134 441,415 1038,547 1581,424l0 -922z"/>
   <path class="fil4" d="M27672 723l120 0c-18,68 -27,142 -24,225 7,237 107,449 266,598 159,150 376,239 615,232 132,-3 256,-36 367,-91l0 39c-423,322 -900,237 -1176,-49 -236,-245 -317,-625 -168,-954z"/>
   <path class="fil5" d="M27142 1825c155,-195 230,-296 405,-438 -192,-68 -385,-69 -585,-43 33,177 93,336 180,481zm1185 803c-50,-231 -49,-383 -20,-591 -194,101 -342,259 -451,440 142,69 290,118 441,146 10,2 20,4 30,5zm-674 -269c54,-224 82,-345 177,-539 -211,20 -376,82 -554,196 48,58 101,114 159,169 69,65 142,123 218,174z"/>
  </g>
 </g>
</svg>
