<?xml version="1.0" encoding="UTF-8"?>
<!DOCTYPE svg PUBLIC "-//W3C//DTD SVG 1.1//EN" "http://www.w3.org/Graphics/SVG/1.1/DTD/svg11.dtd">
<!-- Creator: CorelDRAW X7 -->
<svg xmlns="http://www.w3.org/2000/svg" xml:space="preserve" width="146.732mm" height="56.948mm" version="1.1" style="shape-rendering:geometricPrecision; text-rendering:geometricPrecision; image-rendering:optimizeQuality; fill-rule:evenodd; clip-rule:evenodd"
viewBox="0 0 14673 5695"
 xmlns:xlink="http://www.w3.org/1999/xlink">
 <defs>
  <style type="text/css">
   <![CDATA[
    .fil0 {fill:#CCCCCC}
    .fil3 {fill:black;fill-opacity:0.070588}
    .fil1 {fill:#1A0000;fill-opacity:0.101961}
    .fil2 {fill:black;fill-opacity:0.250980}
   ]]>
  </style>
 </defs>
 <g id="Capa_x0020_1">
  <metadata id="CorelCorpID_0Corel-Layer"/>
  <g id="_66799534144">
   <path class="fil0" d="M0 -1c86,213 67,463 72,740 3,135 9,311 13,489 20,709 370,1270 1104,1306 71,8 547,-25 582,-12 50,18 46,105 44,149 -5,173 130,280 303,223l765 -382c145,-73 298,-131 299,-294 1,-26 1,-52 0,-78l304 -7 203 263c31,40 89,47 129,16 39,-31 47,-88 16,-128l-191 -247 177 -256c29,-41 19,-98 -22,-127 -42,-29 -99,-19 -127,23l-190 273 -67 2 0 0 -236 6c0,-19 0,-38 0,-56 1,-102 -48,-176 -126,-227 -48,-32 -103,-51 -160,-75l-784 -344c-136,-53 -300,8 -328,167 -20,114 71,212 -129,220l-276 11c-301,12 -381,-149 -406,-374 -14,-156 -18,-318 -22,-475 -6,-282 -12,-551 -66,-806l-881 0z"/>
   <path class="fil1" d="M1733 2306c-662,48 -1386,42 -1614,-755 43,225 127,425 252,585 181,231 450,378 812,397 1,0 2,0 3,0 1,0 2,0 3,0 0,0 1,0 2,1 34,3 142,-2 255,-6 148,-6 306,-13 326,-6 49,18 45,105 43,149 -5,173 130,280 303,223l601 -301c20,-13 -726,274 -727,-77 -2,-132 -98,-210 -259,-210zm1597 -351l-152 3 6 182 147 -3c-33,-25 -35,-137 -1,-182z"/>
   <path class="fil2" d="M397 1146c168,143 372,221 583,252 -1,0 -1,-1 -1,-2 0,-1 0,-2 1,-3 -2,-12 -3,-24 -4,-36 -5,-53 -3,-43 -7,-77 -11,-126 -16,-256 -19,-384 -203,140 -346,197 -553,250zm-49 -718c166,143 387,238 597,273 -5,-180 -12,-354 -34,-523 -208,142 -352,199 -563,250z"/>
  </g>
  <g id="_66799532256">
   <path class="fil3" d="M7284 1897l0 0c257,56 497,89 718,89l0 -103c-5,1 -10,2 -15,3 -8,2 -17,4 -25,6l-18 3c-9,2 -17,3 -26,5 -8,1 -16,3 -24,4 -9,1 -18,3 -27,4 -6,1 -12,2 -18,3 -9,1 -17,2 -25,3 -5,1 -11,1 -16,2 -12,1 -25,2 -37,4 -6,0 -12,1 -19,1 -7,1 -15,1 -22,2 -6,0 -13,1 -19,1 -12,1 -24,1 -36,2 -6,0 -12,0 -18,0 -8,1 -15,1 -23,1 -6,0 -13,0 -20,0 -11,0 -22,0 -33,0 -7,0 -14,0 -21,-1 -7,0 -15,0 -22,0 -7,-1 -14,-1 -20,-1 -9,-1 -17,-1 -26,-2 -9,0 -18,-1 -27,-2 -8,0 -16,-1 -24,-2 -7,-1 -13,-1 -20,-2 -8,-1 -15,-2 -23,-2 -8,-2 -17,-3 -25,-4 -10,-1 -19,-2 -28,-4 -7,-1 -13,-2 -20,-3 -7,-1 -15,-2 -22,-4 -6,-1 -12,-2 -18,-3l-1 0zm-505 -1900l397 0c-226,492 205,1052 826,931l0 33 -1 0 0 0 -6 3 -6 3 0 0 -6 3 -6 3 -6 3 0 0 -6 2 -7 3 -6 3 0 0 -6 2 0 0 -6 3 0 0 -7 2 -6 3 0 0 -6 2 -7 3 0 0 -6 2 0 0 -6 2 -7 2 0 0 -6 3 0 0 -7 2 0 0 -6 2 -7 2 -6 2 0 0 -7 2 -7 2 -6 2 0 0 -7 1 0 0 -6 2 -7 2 0 0 -7 1 -7 2 -6 1 -7 2 -7 1 -7 2 0 0 -6 1 0 0 -7 1 0 0 -7 2 0 0 -7 1 0 0 -7 1 -7 1 0 0 -7 1 0 0 -7 1 0 0 -7 1 0 0 -7 1 0 0 -7 0 -7 1 0 0 -7 1 -7 0 0 0 -7 1 -7 1 -7 0 -7 0 -7 1 -7 0 -7 0 -12 1 -11 0 -11 0 -11 -1 -11 0 -11 0 -11 -1 -11 -1 -11 0 0 0 -11 -1 -11 -2 -10 -1 -11 -1 -11 -2 -10 -1 -11 -2 0 0 -11 -2 -10 -2 0 0 -11 -2 -10 -2 0 0 -10 -3 0 0 -11 -2 -10 -3 -10 -3 0 0 -10 -3 -10 -3 -10 -3 -11 -3 -9 -3 -10 -4 -10 -3 0 0 -10 -4 0 0 -10 -4 -9 -4 0 0 -10 -4 0 0 -9 -4 0 0 -10 -4 0 0 -9 -5 -10 -4 -9 -5 0 0 -9 -4 -9 -5 0 0 -9 -5 -9 -5c-6,-4 -12,-7 -18,-11l-9 -5 0 0 -9 -5 0 0c-6,-4 -11,-8 -17,-12 -31,-20 -61,-43 -89,-68l0 0c-8,-7 -16,-14 -23,-21 -8,-7 -15,-14 -22,-21l0 0c-5,-5 -10,-10 -14,-15l0 0c-7,-7 -14,-15 -21,-23 -4,-5 -9,-10 -13,-15l-7 -8 -6 -8 0 0 -6 -8 -7 -8c-10,-14 -20,-28 -29,-42l0 0 -6 -9 -5 -9 -1 0 -5 -9 -5 -8 -5 -9 0 0 -6 -9 0 0 -5 -9 -5 -9 -4 -10 -5 -9 0 0 -5 -9 0 0 -4 -10 -4 -9 -5 -10 0 0 -4 -9 0 0 -4 -10 -4 -9 -4 -10 0 0 -3 -10 -4 -10 -3 -10 -4 -10 -3 -10 -3 -10 -3 -10 -3 -10 -2 -11 -3 -10 -3 -10 -2 -11 -2 -10 -2 -11 -2 -10 -2 -11 -2 -11 -1 -10 -2 -11 -1 -11 -1 -11 -1 -11 -1 -11 -1 -11 -1 -11 0 -11 -1 -11c0,-7 0,-14 0,-21l0 -12 0 -10c0,-5 0,-10 0,-15l1 -5c0,-6 0,-12 1,-19l0 0c3,-51 11,-99 23,-143z"/>
   <path class="fil0" d="M8002 961c-110,55 -235,87 -366,91 -240,7 -456,-82 -615,-232 -159,-150 -260,-361 -267,-598 -2,-83 7,-158 25,-225l-847 0c-12,102 -17,210 -14,328 14,479 181,829 504,1133 440,416 1038,548 1580,425l0 -922z"/>
   <path class="fil1" d="M6659 -3l119 0c-18,67 -26,142 -24,225 7,237 108,448 267,598 159,150 375,239 615,232 131,-4 256,-36 366,-91l0 39c-422,321 -899,237 -1176,-49 -236,-245 -317,-625 -167,-954z"/>
   <path class="fil2" d="M6128 1099c156,-195 231,-296 406,-438 -192,-68 -385,-69 -585,-44 33,178 93,337 179,482zm1185 803c-50,-231 -48,-383 -20,-591 -193,101 -341,259 -450,440 141,69 290,118 441,146 10,2 19,4 29,5zm-674 -269c55,-224 82,-345 178,-540 -212,21 -376,83 -554,196 48,58 101,115 159,169 69,65 142,123 217,175z"/>
  </g>
  <g id="_66799531808">
   <path class="fil3" d="M10832 1538l0 0c-110,960 74,1646 950,2044 169,77 340,131 520,168 347,73 539,86 868,130 513,69 1166,341 1053,918 13,-34 23,-70 32,-105l0 -4 1 -2c1,-6 2,-11 3,-17l1 -5 1 -1 1 -5 0 -1c1,-7 2,-15 4,-23l0 -1 1 -4 0 -2 0 -4 1 -2 0 -4 2 -11 0 -1 0 -2 1 -3 0 -3 0 -3 0 -1 1 -5 0 -4 0 -2 1 -4 0 -2 0 -4 1 -2 0 -4 0 -1 0 -5 0 -1 1 -5 0 -1 0 -6 0 0 0 -6 0 0 1 -6 0 0 0 -6 0 0 0 -5 0 -1 0 -5 0 -2 0 -4 0 -2 1 -4 0 -2 0 -6 0 0 0 -4 0 -2 0 -2 -1 -11 0 -3 0 -3 0 -6 0 -2 0 -5 0 -1 -1 -5 0 -1 0 -5 0 -1 0 -5 0 -1 -1 -6 0 0 0 -6 -1 -6 0 -6 -1 -6 0 0 0 -6 -1 -6 -1 -6 -1 -6 0 0 -1 -6 0 -6 0 0 -1 -6 -1 -6 -1 -6 -1 -6 -1 -6 -2 -6 -1 -6 0 0 -1 -6 0 0 -1 -6 0 0 -1 -6 0 0 -2 -5 0 0 -1 -6 -2 -6 -1 -6 0 0 -2 -6 -1 -6 -2 -6 -2 -6 -1 -6 -2 -6 -2 -5 0 0 -2 -6 -2 -6 0 0 -2 -6 -2 -6 0 0c-1,-4 -3,-7 -4,-11l0 0 -2 -6 -2 -6 -3 -6 -2 -5 -2 -6 -3 -6 -2 -5 0 0 -3 -6 0 0 -2 -6 -3 -5 -2 -6 -3 -6 0 0 -3 -5 0 0 -2 -6 0 0 -3 -5 -3 -6 0 0 -3 -6 0 0 -3 -5 0 0 -3 -6 0 0 -3 -5 0 0 -3 -6 0 0 -3 -5 0 0 -4 -6 0 0 -3 -5 0 0 -3 -5 0 0 -3 -6 0 0 -4 -5 0 0 -3 -5 0 0c-3,-4 -5,-8 -8,-11l0 -1c-2,-3 -4,-7 -7,-10l0 0c-3,-4 -5,-8 -8,-11l0 0 -8 -11 0 0c-2,-4 -5,-7 -8,-11l0 0c-3,-3 -5,-7 -8,-10l0 0c-3,-4 -6,-8 -9,-11l0 0c-3,-4 -5,-7 -8,-11l0 0c-3,-3 -6,-6 -9,-10l0 0c-3,-3 -7,-7 -10,-10l0 0c-3,-4 -6,-7 -9,-10l0 0c-3,-4 -6,-7 -10,-11l0 0c-3,-3 -6,-6 -10,-10l0 0c-3,-3 -6,-6 -10,-10l0 0c-3,-3 -7,-6 -10,-9l0 0c-4,-4 -7,-7 -11,-10l0 0c-3,-3 -7,-7 -10,-10l0 0c-4,-3 -8,-6 -11,-9l0 0c-4,-4 -8,-7 -12,-10l0 0c-3,-3 -7,-6 -11,-9l0 0c-4,-3 -8,-6 -12,-10l0 0c-4,-3 -7,-6 -11,-9l-1 0c-3,-3 -8,-6 -12,-9l0 0c-4,-3 -8,-6 -12,-9l0 0c-4,-3 -8,-6 -13,-9l0 0c-4,-2 -8,-5 -12,-8l0 0c-5,-3 -9,-6 -13,-9l0 0c-5,-3 -9,-5 -14,-8l0 0c-4,-3 -9,-6 -13,-9l0 0c-5,-2 -9,-5 -14,-8l0 0c-4,-3 -9,-5 -14,-8l0 0c-4,-3 -9,-5 -14,-8l0 0c-5,-3 -10,-5 -14,-8l0 0c-5,-3 -10,-5 -15,-8l0 0c-5,-2 -10,-5 -15,-7l0 0c-5,-3 -10,-5 -15,-8l0 0 -15 -7 0 0c-6,-3 -11,-5 -16,-7l0 0c-5,-3 -11,-5 -16,-7l0 0c-5,-3 -11,-5 -16,-7l0 0c-5,-3 -11,-5 -16,-7l0 0c-6,-2 -11,-5 -17,-7l0 0c-5,-2 -11,-4 -17,-6l0 0c-5,-2 -11,-5 -17,-7l0 0c-5,-2 -11,-4 -17,-6l0 0c-6,-2 -12,-4 -17,-6l0 0 -18 -6 0 0c-6,-2 -12,-4 -18,-6l0 0c-6,-1 -12,-3 -18,-5l0 0c-7,-2 -13,-4 -19,-6l0 0c-6,-1 -12,-3 -19,-5l0 0c-6,-2 -12,-3 -19,-5l0 0c-6,-2 -12,-3 -19,-5l0 0c-6,-2 -13,-3 -19,-5l0 0 -20 -4 0 0c-7,-2 -13,-4 -20,-5l0 0c-7,-1 -14,-3 -20,-4l0 0c-7,-2 -14,-3 -21,-4l0 0c-7,-2 -14,-3 -21,-4l0 0c-7,-2 -14,-3 -21,-4l0 0c-7,-1 -14,-3 -21,-4l0 0c-7,-1 -14,-2 -21,-3l0 0c-8,-1 -15,-2 -22,-3l0 0c-7,-1 -15,-3 -22,-4l0 0 -15 -2 0 0 -16 -2 0 0 -15 -2 0 0 -14 -1 0 0 -15 -2 -14 -2 0 0 -15 -2 -14 -2 0 0 -14 -2 -14 -1 0 0 -13 -2 -14 -2 -13 -1 -14 -2 -13 -2 0 0 -13 -1 0 0 -13 -2 -13 -2 0 0 -13 -1 0 0 -13 -2 0 0 -12 -1 -13 -2 -13 -2 0 0 -12 -1 0 0 -13 -2 0 0 -12 -1 0 0 -12 -2 -13 -1 -12 -2 -13 -2 0 0 -12 -1 0 0 -13 -2 -12 -2 0 0 -12 -1 0 0 -13 -2 0 0 -12 -2 -13 -2 0 0 -12 -2 -13 -1 0 0 -13 -2 0 0 -13 -2 0 0 -12 -2 0 0 -13 -2 0 0 -13 -2 0 0 -13 -2 0 0 -14 -3 0 0 -13 -2 -13 -2 0 0 -14 -2 0 0 -14 -3 0 0 -13 -2 0 0 -14 -3 -15 -2 0 0 -14 -3 0 0 -14 -2 0 0 -15 -3 0 0 -15 -3 0 0 -14 -3 -16 -3 0 0 -15 -3 0 0 -15 -3 0 0 -16 -3 0 0 -16 -3 0 0 -16 -4 0 0 -9 -1 0 0 -8 -2 0 0 -9 -2 0 0 -8 -2 0 0 -8 -2 0 0 -9 -2 -8 -1 0 0 -8 -2 0 0 -9 -2 0 0 -8 -2 -8 -2 0 0 -9 -2 0 0 -8 -2 -8 -3 -8 -2 -17 -4 0 0 -8 -2 0 0 -8 -2 -9 -3 0 0 -8 -2c-8,-2 -16,-5 -24,-7l-8 -2 0 0 -9 -3 -8 -2 0 0 -8 -3 -8 -2 -8 -3 0 0 -8 -2 -16 -6 0 0 -8 -2 0 0 -8 -3 0 0 -9 -3 -8 -2 0 0 -8 -3 0 0 -8 -3 -8 -3 -8 -3 0 0 -8 -3 0 0 -8 -2 -8 -3 -8 -3 0 0 -8 -3 0 0 -8 -3 -8 -4 -8 -3 0 0 -8 -3 0 0 -8 -3 -8 -3 -8 -3 -8 -4 -8 -3 -8 -3 0 0 -7 -4 -8 -3 -8 -3 -8 -4 -8 -3 0 0 -8 -4 -8 -3 -8 -4c-14,-6 -28,-13 -41,-19l-12 -6c-12,-6 -23,-12 -35,-18l-6 -3c-13,-7 -27,-15 -40,-22l-10 -6c-10,-6 -21,-12 -31,-18l-9 -5c-13,-8 -25,-16 -38,-24l-7 -5c-11,-7 -21,-14 -32,-21l-8 -6c-12,-8 -24,-17 -36,-25l-6 -5c-10,-7 -20,-15 -30,-23l-9 -6c-11,-9 -23,-19 -34,-28l-4 -3c-10,-8 -19,-17 -29,-25l-10 -9c-10,-9 -20,-17 -29,-26l-3 -3c-11,-10 -21,-20 -31,-30l-9 -8c-8,-8 -16,-16 -24,-24l-7 -8c-10,-10 -19,-20 -28,-30l-8 -9c-8,-8 -15,-17 -22,-25l-7 -9c-9,-10 -18,-21 -27,-32l-7 -8c-7,-8 -13,-17 -20,-26l-8 -10c-8,-11 -16,-22 -24,-33l-6 -8c-6,-9 -13,-18 -19,-27l-7 -11c-7,-11 -14,-21 -21,-31l-6 -9c-6,-10 -12,-20 -18,-30l-8 -13c-5,-9 -10,-17 -15,-26 -2,-3 -4,-7 -6,-10 -6,-12 -12,-23 -18,-34l-8 -15c-4,-8 -8,-16 -12,-25l-7 -12c-5,-12 -11,-23 -16,-35l-7 -14c-3,-9 -7,-17 -11,-25l-6 -14c-5,-12 -10,-24 -14,-35 -2,-5 -4,-10 -6,-15 -3,-8 -6,-16 -9,-25l-6 -16c-4,-9 -7,-19 -11,-29 -2,-7 -4,-14 -6,-21 -3,-8 -6,-16 -8,-24l-5 -17c-3,-9 -5,-17 -8,-26 -2,-8 -4,-15 -6,-23 -3,-9 -5,-18 -7,-27 -2,-6 -3,-12 -5,-18 -2,-8 -3,-16 -5,-24 -2,-5 -3,-11 -4,-16 -3,-12 -5,-24 -7,-36 -2,-6 -3,-12 -4,-19 -1,-7 -2,-14 -4,-22 -1,-6 -2,-12 -3,-18 -2,-12 -4,-24 -5,-36 -1,-6 -2,-12 -3,-18 -1,-8 -2,-15 -2,-22 -1,-7 -2,-14 -3,-20 -1,-11 -2,-22 -3,-33 0,-7 -1,-14 -1,-21 -1,-8 -2,-15 -2,-23 0,-6 -1,-13 -1,-20 -1,-8 -1,-17 -1,-25 -1,-9 -1,-18 -1,-28 0,-7 0,-15 0,-23 0,-7 0,-14 0,-21 0,-7 0,-15 0,-22 0,-9 0,-18 1,-26 0,-10 0,-19 1,-28 0,-7 0,-14 1,-20 0,-8 1,-15 1,-23 1,-6 1,-12 2,-18l0 -1zm3841 689l0 252c-321,44 -619,-82 -861,-256 -321,-230 -544,-615 -886,-870 -594,-445 -1330,159 -1024,895l0 0 -1 -1 0 0 -1 -1 0 -1 -1 0 0 -1 0 0 -1 -1 0 0 -1 -1 -1 -1 0 0 -1 -1 0 -1 -1 0 0 0 0 -1 -1 0 0 -1 -1 -1 0 0 -1 -1 0 -1 -1 0 0 -1 0 0 -1 -1 0 0 -1 -1 0 -1 -1 0 0 -1 -1 -1 0 0 0 0 -1 -1 0 -1 -1 -1 -1 -1 -1 -1 0 0 -1 -1 -2 -3 -1 0 0 -1 0 -1 -1 0 0 0 -3 -5 -1 0 0 -1 -1 0 0 -1 -1 -1 0 -1 -1 0 0 -1 -1 -1 -3 -5 -4 -5 -4 -6 -4 -5 -4 -6 -4 -5 -3 -6 -4 -6 -4 -5 0 0 -3 -6 -4 -6 0 0 -3 -6 -4 -5 -3 -6 0 0 -3 -6 -4 -6 -3 -6 0 0 -3 -6 0 0 -3 -6 0 0 -3 -6 -4 -6 0 0 -3 -6 -3 -6 0 0 -3 -6 0 0 -2 -6 -3 -6 0 0 -3 -7 0 0 -3 -6 0 0 -3 -6 -2 -6 -3 -7 0 0 -3 -6 -2 -6 -3 -7 0 0 -2 -6 0 0 -2 -7 -3 -6 0 0 -2 -7 -2 -6 -3 -7 -2 -6 -2 -7 -2 -6 0 0 -2 -7 0 0 -2 -7 0 0 -2 -6 0 0 -2 -7 0 0 -1 -7 -2 -7 0 0 -2 -6 0 0 -2 -7 0 0 -1 -7 0 0 -2 -7 0 0 -1 -7 -2 -7 0 0 -1 -7 -1 -7 0 0 -2 -6 -1 -7 -1 -7 -1 -8 -1 -7 -1 -7 -1 -7 -2 -11 -1 -11 -1 -11 -1 -11 -1 -11 0 -11 -1 -11 0 -11 -1 -11 0 0 0 -11 0 -11 0 -11 1 -10 0 -11 1 -11 0 -11 0 0 1 -10 1 -11 0 0 1 -11 1 -10 0 0 2 -11 0 0 1 -10 2 -11 1 -10 0 0 2 -11 2 -10 2 -10 3 -11 2 -10 2 -10 3 -10 0 0 3 -10 0 0 2 -10 3 -10 0 0 3 -10 0 0 4 -10 0 0 3 -10 0 0 3 -10 4 -10 3 -9 0 0 4 -10 4 -10 0 0 4 -9 4 -10c3,-6 6,-12 9,-18l4 -10 0 0 5 -9 0 0c3,-6 6,-12 9,-18 18,-34 37,-66 59,-96l0 0c6,-9 12,-17 18,-25 7,-8 13,-16 19,-24l0 0c5,-5 9,-10 14,-16l0 0c6,-7 13,-15 20,-22 5,-5 10,-10 14,-15l8 -7 7 -8 0 0 7 -7 8 -7c12,-11 25,-23 39,-33l0 0 8 -7 8 -6 0 0 8 -7 8 -6 8 -6 0 0 9 -6 0 0 8 -6 9 -6 9 -5 8 -6 0 0 9 -5 0 0 9 -6 9 -5 9 -5 0 0 9 -5 0 0 9 -5 9 -5 10 -5 0 0 9 -5 10 -4 9 -5 10 -4 10 -4 9 -4 10 -4 10 -4 10 -4 10 -4 10 -3 10 -4 10 -3 11 -3 10 -3 10 -3 11 -3 10 -2 11 -3 10 -2 11 -3 11 -2 11 -2 10 -2 11 -2 11 -1 11 -2c7,-1 15,-2 22,-2l12 -1 9 -1c5,-1 10,-1 15,-1l5 -1c6,0 13,-1 19,-1l0 0c398,-15 599,268 878,559l0 1c20,20 39,41 59,62 118,122 170,195 313,323 8,7 15,13 23,19 271,261 562,419 874,429zm0 3468l0 0 0 0 0 0zm-2456 0l-442 0c-111,-115 -200,-217 -286,-283l0 0c-63,-48 -124,-77 -192,-78l-1 0 -5 0 -1 0c-5,0 -11,0 -17,0l0 0c-6,1 -12,1 -18,2l-1 0 -4 1 -2 0 -5 1 -1 0c-4,1 -8,2 -12,3l0 0 -6 1 -1 1 -5 1 -1 0 -6 2 0 0 -6 2 -1 0 -5 2 -2 0c-3,1 -7,3 -11,4l-1 1 -1 0 -6 2 -1 1 -6 2 -1 1 -5 2 -1 0 -6 3 -1 1 -6 2 -4 3 -3 1 -1 0 -6 3 -1 1 -6 3 0 0 -7 4 0 0 -7 4 -1 0 -7 4c-102,62 -233,175 -370,303l-417 0 490 -472 1 0 123 -118 0 0 9 -9 0 0 10 -9 0 0 9 -9 0 0 10 -8 0 0 9 -8 0 0 10 -8 0 0 9 -8 0 0 10 -8 0 0 9 -7 0 0c4,-2 7,-5 10,-7l0 0 10 -7c355,-272 564,28 780,276l0 0 23 24 0 0 18 19c22,23 43,46 65,69l0 0c15,15 30,30 44,45l0 0c15,16 30,31 44,46l0 0c23,23 45,45 67,67l0 0 23 23c15,15 30,29 45,44l0 0c7,7 15,14 22,22l0 0c8,7 16,14 23,21l0 0c8,7 16,15 23,22l0 0 0 0z"/>
   <path class="fil0" d="M10321 5695l614 -590c201,-193 419,-264 641,-57 93,86 189,187 285,288 116,122 233,245 356,359l44 0 2412 0 0 0 0 -2363c-742,-770 -1608,-476 -2473,-856 -131,-59 -245,-152 -331,-270 -84,-115 -141,-252 -161,-404 -31,-237 35,-462 168,-635 133,-173 333,-295 568,-326 453,-59 663,242 960,553 94,97 218,223 342,350 277,285 599,465 927,486l0 -913c-83,-13 -162,-64 -242,-134 -117,-104 -229,-221 -338,-334 -488,-505 -917,-950 -1836,-829 -475,63 -806,264 -1076,616 -673,877 -355,2178 657,2638 169,77 340,131 520,168 347,73 538,86 868,130 472,64 770,253 923,489 74,114 115,241 125,369 11,133 -10,266 -59,388 -106,264 -346,479 -689,524 -402,53 -719,-280 -1033,-610 -172,-180 -354,-377 -562,-520 -224,-153 -464,-233 -719,-219 -155,8 -308,50 -458,132 -251,136 -464,387 -674,587 -183,176 -748,672 -1029,983l1270 0z"/>
   <path class="fil1" d="M14673 3321c-44,-45 -91,-89 -142,-131 52,56 99,115 142,175l0 -44zm-4352 2374l-339 0 782 -752c201,-193 419,-264 641,-57 42,39 85,81 128,125 -207,-160 -411,-86 -598,93l-614 591zm1387 -3893c-31,-237 35,-462 168,-635 133,-173 333,-295 568,-326 325,-42 527,98 723,297 -402,-618 -1101,-553 -1440,-151 -289,341 -298,908 222,1313 -16,-16 -32,-34 -47,-52 -11,-13 -22,-27 -33,-42 -84,-115 -141,-252 -161,-404z"/>
   <path class="fil2" d="M13919 1473c220,-9 423,-90 600,-209 -1,-1 -2,-1 -2,-2 -1,-1 -2,-2 -2,-3 -9,-7 -18,-15 -27,-23 -39,-36 -32,-30 -57,-53 -94,-84 -186,-177 -275,-269 -54,240 -120,380 -237,559zm-2411 -1165c210,135 318,199 478,358 47,-197 29,-390 -17,-586 -173,51 -325,127 -461,228zm1718 3264c180,25 335,67 466,124 -8,-30 -16,-59 -23,-87 -45,-187 -50,-327 -36,-512 -149,90 -267,213 -358,355 -25,38 -47,77 -68,118 6,1 13,1 19,2zm-775 -111c188,37 332,56 491,75 -80,-198 -95,-353 -103,-574 -171,131 -310,301 -388,499zm-613 -187c99,45 199,82 301,113 -5,-39 -8,-75 -11,-110 -12,-174 4,-307 43,-477 -178,74 -325,195 -442,340 -15,18 -29,37 -43,56 49,28 100,54 152,78zm-1009 -1706c226,-73 377,-87 586,-80 -120,-182 -291,-314 -483,-403 -54,147 -87,300 -100,453 -1,10 -2,20 -3,30zm200 -698c228,32 352,47 555,122 -42,-208 -120,-366 -251,-531 -53,53 -104,112 -152,175 -58,75 -108,153 -152,234zm-1007 4688c-7,-211 -94,-430 -205,-603 -127,117 -256,236 -386,357 109,25 222,53 302,87 100,41 188,92 289,159zm-70 -727l128 -120c79,-74 157,-156 238,-236 108,173 211,402 217,604 -181,-120 -336,-191 -583,-248zm2140 -494c-53,253 -118,395 -237,581 223,-11 428,-96 606,-220 -116,-121 -237,-249 -368,-361l-1 0zm512 511c-43,248 -103,392 -214,579 222,-19 423,-111 595,-240 -132,-91 -258,-212 -381,-339zm1594 9c-70,152 -185,284 -339,374 244,43 430,88 615,198 -18,-218 -116,-414 -276,-572zm-801 -3878c219,-8 446,-88 623,-205 -125,-129 -248,-252 -379,-361 -56,245 -124,385 -244,566z"/>
  </g>
 </g>
</svg>
