<?xml version="1.0" encoding="UTF-8"?>
<!DOCTYPE svg PUBLIC "-//W3C//DTD SVG 1.1//EN" "http://www.w3.org/Graphics/SVG/1.1/DTD/svg11.dtd">
<!-- Creator: CorelDRAW X7 -->
<svg xmlns="http://www.w3.org/2000/svg" xml:space="preserve" width="12.799mm" height="12.799mm" version="1.1" style="shape-rendering:geometricPrecision; text-rendering:geometricPrecision; image-rendering:optimizeQuality; fill-rule:evenodd; clip-rule:evenodd"
viewBox="0 0 1280 1280"
 xmlns:xlink="http://www.w3.org/1999/xlink">
 <defs>
  <style type="text/css">
   <![CDATA[
    .fil9 {fill:#F8F8F9}
    .fil6 {fill:#C6C8C8}
    .fil12 {fill:#C1C3C3}
    .fil11 {fill:#C5C7C7}
    .fil3 {fill:#008EC3}
    .fil0 {fill:#14365B}
    .fil5 {fill:#D2AA2F}
    .fil1 {fill:#FFD43B}
    .fil13 {fill:black;fill-opacity:0.129412}
    .fil8 {fill:#7688A1;fill-opacity:0.149020}
    .fil4 {fill:black;fill-opacity:0.168627}
    .fil14 {fill:white;fill-opacity:0.211765}
    .fil10 {fill:#EBECEC;fill-opacity:0.560784}
    .fil2 {fill:#E6E6E6}
    .fil7 {fill:#D2AA2F}
   ]]>
  </style>
 </defs>
 <g id="Capa_x0020_1">
  <metadata id="CorelCorpID_0Corel-Layer"/>
  <g id="_494809019440">
   <circle class="fil0" cx="640" cy="640" r="640"/>
   <g>
    <path class="fil1" d="M289 765c6,12 18,20 32,20l0 0c1,0 1,0 2,0 14,-1 27,3 30,20 0,2 0,4 0,6l15 213c1,14 12,25 27,25l105 0c15,0 26,-11 27,-25l13 -216 0 0c1,-20 15,-24 30,-23 1,0 2,0 2,0l1 0c14,0 26,-8 31,-20 2,-5 3,-10 4,-15l0 0c0,0 0,1 0,1l19 -210c0,-1 0,-2 0,-3 1,-24 -19,-43 -43,-46 -1,0 -1,0 -2,0 -1,0 -1,0 -2,-1 -1,0 -2,0 -3,0l0 0 -261 0 0 0c-1,0 -2,0 -3,0 -1,1 -1,1 -2,1 -1,0 -1,0 -2,0 -23,3 -43,22 -43,46 0,1 0,2 0,3l19 210c0,0 0,-1 0,-1l0 0c1,5 2,10 4,15z"/>
    <path class="fil2" d="M351 778l1 24c0,0 0,-1 0,-1 -3,-12 -13,-17 -29,-17 9,-2 17,-11 18,-28l0 -21 0 -2 1 -79 1 17 4 59 0 3 3 31 1 14z"/>
    <g>
     <path class="fil1" d="M990 765c-6,12 -18,20 -32,20l0 0c-1,0 -1,0 -2,0 -15,-1 -28,3 -30,20 0,2 -1,4 -1,6l-14 213c-1,14 -12,25 -27,25l-106 0c-14,0 -25,-11 -26,-25l-13 -216 0 0c-2,-20 -15,-24 -31,-23 0,0 -1,0 -2,0l0 0c-14,0 -26,-8 -32,-20 -2,-5 -3,-10 -3,-15l0 0c0,0 0,1 0,1l-19 -210c-1,-1 -1,-2 -1,-3 0,-24 20,-43 44,-46 0,0 1,0 1,0 1,0 2,0 3,-1 1,0 1,0 2,0l0 0 262 0 0 0c1,0 2,0 2,0 1,1 2,1 3,1 0,0 1,0 1,0 24,3 44,22 44,46 0,1 0,2 0,3l-20 210c0,0 0,-1 0,-1l0 0c0,5 -1,10 -3,15z"/>
     <path class="fil2" d="M928 778l-2 24c0,0 0,-1 1,-1 3,-12 13,-17 28,-17 -8,-2 -16,-11 -17,-28l0 -21 0 -2 -1 -79 -1 17 -5 59 0 3 -2 31 -1 14z"/>
     <polygon class="fil3" points="849,507 811,507 787,695 830,734 873,695 "/>
     <path class="fil3" d="M853 488l-44 0c-3,0 -5,2 -5,5l0 20c0,3 2,5 5,5l44 0c3,0 5,-2 5,-5l0 -20c0,-3 -2,-5 -5,-5z"/>
     <path class="fil4" d="M829 488c6,10 15,24 15,33 0,1 -1,2 -1,4l-22 239 0 -1 0 -1c0,6 -2,13 -5,19 -8,13 -19,20 -35,20l0 0 -2 0c-19,-1 -34,5 -35,28l-1 0 -1 39 10 156c0,5 2,10 4,13 1,3 3,4 4,6 4,4 8,5 10,6 3,1 6,2 11,2l19 0c-15,-9 -23,-17 -24,-27l-10 -163c0,-16 -2,-31 23,-36 2,-1 5,-1 6,-1 30,-4 44,-30 50,-58l3 -31 2 -184c0,-27 3,-48 -14,-63l-7 0z"/>
     <path class="fil5" d="M845 1038l0 0 39 0c15,0 26,-12 27,-27l4 -57c0,0 0,0 0,0 -2,24 -3,48 -4,70 -1,14 -12,27 -27,27l-85 0 -21 0c-14,0 -25,-13 -26,-27l-10 -156 1 -9 9 152c1,15 12,27 26,27l4 0 35 0 1 0c6,-1 9,-6 10,-13l4 -131 4 131c0,7 3,12 9,13z"/>
     <path class="fil6" d="M748 794l-2 26c1,-3 2,-6 5,-11 6,-6 15,-8 27,-8 -10,-2 -18,-12 -19,-31l-1 -23 0 -3 -1 -87 -1 19 -5 65 0 3 -2 34 -1 16z"/>
     <path class="fil1" d="M825 215c-65,0 -119,54 -119,120 0,67 54,120 119,120 66,0 119,-53 119,-120 0,-66 -53,-120 -119,-120z"/>
     <path class="fil7" d="M732 410c13,-14 23,-31 30,-49 0,0 0,0 0,0 0,0 0,0 0,0 0,0 0,-1 0,-1 2,-5 3,-10 4,-15 0,-2 1,-3 1,-5 1,-7 2,-14 2,-22 0,-2 0,-3 0,-5 -1,-23 -9,-45 -20,-64 3,4 5,9 8,14 -3,-7 -6,-12 -10,-18 6,-5 12,-10 18,-14 17,25 27,55 27,87 0,42 -17,80 -44,108 -6,-5 -11,-10 -16,-16z"/>
     <path class="fil8" d="M766 345c0,-2 1,-3 1,-5 0,0 0,0 0,0 1,-7 2,-15 2,-22 0,-2 0,-3 0,-5 -1,-18 -5,-35 -12,-50 13,26 18,60 5,98 0,0 0,-1 0,-1 0,0 0,0 0,0 2,-5 3,-10 4,-15z"/>
     <path class="fil8" d="M762 361c0,0 0,0 0,0 0,0 0,0 0,0z"/>
    </g>
    <polygon class="fil3" points="430,507 467,507 491,695 449,734 406,695 "/>
    <path class="fil5" d="M434 1038l0 0 -39 0c-15,0 -26,-12 -27,-27l-4 -57c0,0 0,0 0,0 1,24 2,48 4,70 1,14 12,27 27,27l84 0 21 0c15,0 26,-13 27,-27l9 -156 0 -9 -9 152c-1,15 -12,27 -27,27l-4 0 -35 0 0 0c-6,-1 -10,-6 -10,-13l-4 -131 -4 131c0,7 -3,12 -9,13z"/>
    <path class="fil1" d="M453 215c66,0 119,54 119,120 0,67 -53,120 -119,120 -65,0 -119,-53 -119,-120 0,-66 54,-120 119,-120z"/>
    <g>
     <path class="fil3" d="M426 488l43 0c4,0 6,2 6,5l0 20c0,3 -2,5 -6,5l-43 0c-3,0 -5,-2 -5,-5l0 -20c0,-3 2,-5 5,-5z"/>
     <path class="fil4" d="M450 488c-7,10 -15,24 -15,33 0,1 0,2 0,4l23 239 -1 -1 0 -1c1,6 2,13 5,19 8,13 20,20 35,20l1 0 2 0c18,-1 34,5 35,28l0 0 1 39 -9 156c-1,5 -2,10 -4,13 -1,3 -3,4 -5,6 -4,4 -7,5 -10,6 -3,1 -5,2 -10,2l-20 0c15,-9 24,-17 24,-27l10 -163c0,-16 3,-31 -23,-36 -1,-1 -4,-1 -5,-1 -30,-4 -45,-30 -50,-58l-3 -31 -2 -184c0,-27 -3,-48 14,-63l7 0z"/>
     <path class="fil9" d="M819 779c-6,13 -20,22 -35,22l-1 0c-1,0 -1,0 -2,0 -16,-1 -30,2 -33,20 -1,2 -1,4 -1,6l-1 0 -16 246c-1,16 -13,28 -30,28l-120 0c-17,0 -30,-12 -31,-28l-15 -242c0,-3 0,-4 0,-7 0,-1 -1,-2 -1,-3 -2,-10 -5,-16 -11,-19 -6,-3 -15,-1 -22,-1 -1,0 -2,0 -2,0l-1 0c-16,0 -29,-9 -36,-22 -2,-6 -3,-12 -4,-18l0 1c0,0 0,0 0,1l-22 -238c0,-2 0,-3 0,-4 0,-27 22,-49 49,-53 1,0 2,0 2,0 1,0 2,0 3,0 1,0 2,0 3,0l0 0 297 0 0 0c1,0 2,0 3,0 1,0 2,0 2,0 1,0 2,0 2,0 27,4 50,26 50,53 0,1 0,2 -1,4l-22 238c0,-1 0,-1 0,-1l0 -1c0,6 -1,12 -4,18z"/>
     <path class="fil10" d="M699 1091l-120 0c-16,0 -29,-13 -30,-30l-12 -199 0 0 -1 0 1 3 12 208c1,16 14,30 30,30l120 0c17,0 30,-14 31,-30l13 -197 1 -14 -1 0 0 8 -13 191c-1,17 -14,30 -31,30z"/>
     <path class="fil11" d="M653 1099l5 -8c-7,0 -12,-6 -13,-16l-5 -157 -4 157c-1,10 -6,16 -13,16l8 6 22 2z"/>
     <path class="fil6" d="M531 794l2 26c-1,-3 -2,-6 -6,-11 -5,-6 -14,-8 -26,-8 9,-2 18,-12 19,-31l0 -23 0 -3 1 -87 2 19 4 65 0 3 3 34 1 16z"/>
     <path class="fil6" d="M749 794l-2 26c1,0 1,0 1,0 3,-14 15,-19 32,-19 -10,-2 -19,-12 -20,-31l0 -23 0 -3 -1 -87 -1 19 -5 65 0 3 -3 34 -1 16z"/>
     <polygon class="fil3" points="619,496 662,496 690,715 640,762 590,715 "/>
     <path class="fil3" d="M614 466l51 0c3,0 6,3 6,7l0 23c0,3 -3,6 -6,6l-51 0c-3,0 -6,-3 -6,-6l0 -23c0,-4 3,-7 6,-7z"/>
     <path class="fil12" d="M636 1075c-1,10 -6,16 -13,16l-40 0 -4 0c-16,0 -29,-13 -30,-30l-12 -199 0 0 0 0 0 3 0 0 12 208c1,16 14,30 30,30l120 0c17,0 30,-14 31,-30l13 -197 1 -14 -1 0 0 8 -13 191c-1,17 -14,30 -31,30l-3 0 -38 0c-7,0 -12,-6 -13,-16l-5 -157 -4 157z"/>
     <path class="fil7" d="M547 410c-13,-14 -24,-31 -30,-49 0,0 0,0 0,0 0,0 0,0 0,0 0,0 0,-1 0,-1 -2,-5 -3,-10 -4,-15 -1,-2 -1,-3 -1,-5 -2,-7 -2,-14 -2,-22 0,-2 0,-3 0,-5 1,-23 8,-45 20,-64 -3,4 -6,9 -8,14 3,-7 6,-12 10,-18 -6,-5 -12,-10 -19,-14 -16,25 -26,55 -26,87 0,42 17,80 44,108 6,-5 11,-10 16,-16z"/>
     <path class="fil8" d="M513 345c-1,-2 -1,-3 -1,-5 0,0 0,0 0,0 -2,-7 -2,-15 -2,-22 0,-2 0,-3 0,-5 1,-18 5,-35 12,-50 -13,26 -19,60 -5,98 0,0 0,-1 0,-1 0,0 0,0 0,0 -2,-5 -3,-10 -4,-15z"/>
     <path class="fil8" d="M517 361c0,0 0,0 0,0 0,0 0,0 0,0z"/>
     <path class="fil8" d="M767 345c0,-2 0,-3 1,-5 0,0 0,0 0,0 1,-7 2,-15 2,-22 0,-2 0,-3 -1,-5 0,-18 -4,-35 -12,-50 13,26 19,60 5,98 1,0 1,-1 1,-1 0,0 0,0 0,0 1,-5 3,-10 4,-15z"/>
     <path class="fil8" d="M762 361c0,0 0,0 0,0 0,0 0,0 0,0z"/>
     <path class="fil9" d="M640 187c72,0 130,59 130,131 0,72 -58,131 -130,131 -72,0 -130,-59 -130,-131 0,-72 58,-131 130,-131z"/>
     <polygon class="fil13" points="663,502 618,502 617,510 616,518 623,518 656,518 665,518 664,508 "/>
     <polygon class="fil14" points="616,518 590,715 609,733 640,762 640,518 623,518 "/>
     <polygon class="fil14" points="640,502 618,502 617,510 616,518 623,518 640,518 "/>
     <path class="fil14" d="M639 466l-25 0c-1,0 -3,1 -4,2 -1,1 -2,3 -2,5l0 23c0,3 3,6 6,6l4 0 22 0 0 -6 -1 -28 0 -2z"/>
    </g>
   </g>
  </g>
 </g>
</svg>
