<?xml version="1.0" encoding="UTF-8"?>
<!DOCTYPE svg PUBLIC "-//W3C//DTD SVG 1.1//EN" "http://www.w3.org/Graphics/SVG/1.1/DTD/svg11.dtd">
<!-- Creator: CorelDRAW X7 -->
<svg xmlns="http://www.w3.org/2000/svg" xml:space="preserve" width="53.133mm" height="17.133mm" version="1.1" style="shape-rendering:geometricPrecision; text-rendering:geometricPrecision; image-rendering:optimizeQuality; fill-rule:evenodd; clip-rule:evenodd"
viewBox="0 0 5313 1713"
 xmlns:xlink="http://www.w3.org/1999/xlink">
 <defs>
  <style type="text/css">
   <![CDATA[
    .fil2 {fill:#3288B3;fill-rule:nonzero}
    .fil1 {fill:#FFD43B;fill-rule:nonzero}
    .fil0 {fill:black;fill-rule:nonzero;fill-opacity:0.400000}
    .fil3 {fill:black;fill-opacity:0.501961}
   ]]>
  </style>
 </defs>
 <g id="Capa_x0020_1">
  <metadata id="CorelCorpID_0Corel-Layer"/>
  <g id="_494670470080">
   <path class="fil0" d="M708 365c0,-201 -159,-364 -354,-364 -187,0 -339,147 -354,334l0 1044c14,187 167,334 353,334l0 0 531 0c-5,0 -11,0 -16,0l54 0c-192,-46 -215,-175 -214,-363l0 0 0 0 0 -55 0 0 0 -53 0 -5 0 0c0,-61 0,-122 0,-122 0,-202 0,-386 0,-750z"/>
   <path class="fil1" d="M579 1451c0,190 97,257 131,262l-354 0c-10,-5 -244,17 -225,-276l1 -15 222 -136 225 136c0,0 0,-21 0,29z"/>
   <path class="fil0" d="M4605 369c0,-201 159,-363 355,-363 186,0 339,147 353,334l0 1039c-14,187 -167,334 -353,334l0 0 -531 0c6,0 11,0 16,0l-54 0c192,-46 215,-175 214,-363l0 0 0 0 0 -55 0 0 0 -53 0 -5 0 0c0,-61 0,-122 0,-122 0,-202 0,-381 0,-746z"/>
   <path class="fil2" d="M4735 1357l0 94c0,190 -98,257 -132,262l355 0c10,-5 245,9 223,-356l0 -1095 -222 -135 -224 136c0,0 0,1043 0,1094z"/>
   <path class="fil0" d="M2645 1l-1 0c-186,0 -339,147 -354,334l0 1015 0 0c1,196 -27,319 -214,363l57 0c-6,0 -11,0 -16,0l527 0 3 0 527 0c-5,0 -10,0 -16,0l57 0c-187,-44 -215,-167 -214,-363l0 0 0 -1015c-15,-187 -168,-334 -354,-334l-2 0z"/>
   <path class="fil0" d="M1504 0l-2 0c-186,0 -339,147 -353,334l0 1016 0 0c1,196 -28,319 -214,363l56 0c-5,0 -10,0 -16,0l527 0 4 0 527 0c-5,0 -11,0 -16,0l56 0c-186,-44 -215,-167 -213,-363l-1 0 0 -1016c-14,-187 -167,-334 -353,-334l-2 0z"/>
   <path class="fil1" d="M1727 1433l0 18c0,190 98,257 132,262l-355 0c0,-1 0,-1 -1,-1 -1,0 -1,0 -1,1l-355 0c34,-5 131,-72 131,-262l0 -18c0,-51 0,-174 0,-174l225 -154 225 154c0,0 -1,123 -1,174z"/>
   <path class="fil1" d="M2869 1451c0,190 137,256 171,262l-394 0c-1,-1 -1,-1 -2,-1 0,0 -1,0 -1,1l-394 0c33,-6 171,-72 171,-262 0,-76 0,-109 0,-109l224 -135 225 135c0,0 0,33 0,109z"/>
   <path class="fil3" d="M580 1483l0 4 0 0 0 0 0 0 0 3 0 0 0 1 0 0 0 1 0 0 0 2 1 1 0 0 0 0 0 1 0 0 0 1 0 0 0 1 0 1 0 0 0 1 0 3 0 0 0 1 0 0 0 1 1 0 0 1 0 1 0 0 0 0c-1,1 -2,1 -3,1l0 0 0 0c-8,0 -14,-7 -14,-15 0,-7 6,-14 14,-14l0 0 0 0 0 0 0 0 1 4zm-342 -126l20 -12c0,8 -6,14 -14,14 -2,0 -4,-1 -6,-2zm215 -11l20 12c-2,1 -4,1 -6,1l0 0 0 0c-7,0 -13,-6 -14,-13zm-314 153l-1 -6 0 0 -1 -1 0 0 0 -4 0 -1c-1,-2 -1,-5 -1,-7l0 0c6,1 10,7 10,13 0,6 -2,10 -6,13l0 -1 0 0 -1 -5 0 -1zm510 214l-27 0 0 0c0,0 0,-1 0,-2 0,-7 6,-14 14,-14 7,0 14,7 14,14 0,1 0,2 -1,2zm-223 0l-28 0c0,-1 0,-1 0,-2 0,-7 7,-14 14,-14 8,0 14,7 14,14 0,1 0,1 0,2zm-112 -7l-1 0 -1 0 0 0 0 0 -1 0 0 0 -1 0 0 0 0 0 -1 0 0 -1 -1 0 0 0 0 0 -1 0 0 0 0 0 -1 0 0 0 0 0 -1 0 0 -1 -2 0 0 0 0 0 -1 0 0 0 0 0 -1 -1 0 0 0 0 -3 0 0 -1 -1 0 -4 -1 -1 0 0 0 0 0c2,-3 5,-4 9,-4 6,0 11,4 13,9zm265 -76c8,0 14,6 14,14 0,8 -6,15 -14,15l0 0 0 0c-8,0 -14,-7 -14,-15 0,-8 6,-14 14,-14l0 0 0 0zm-112 0c8,0 14,6 14,14 0,8 -6,15 -14,15l0 0 0 0c-7,0 -14,-7 -14,-15 0,-8 7,-14 14,-14l0 0 0 0zm57 -232c8,0 14,6 14,14 0,8 -6,14 -14,14l0 0 0 0c-8,0 -14,-6 -14,-14 0,-8 6,-14 14,-14l0 0 0 0zm-57 81c8,0 14,7 14,14 0,8 -6,15 -14,15l0 0 0 0c-7,0 -14,-7 -14,-15 0,-7 7,-14 14,-14l0 0 0 0zm57 67c8,0 14,7 14,14 0,8 -6,15 -14,15l0 0 0 0c-8,0 -14,-7 -14,-15 0,-7 6,-14 14,-14l0 0 0 0zm-280 84c8,0 14,6 14,14 0,8 -6,15 -14,15 -8,0 -14,-7 -14,-15 0,-8 6,-14 14,-14zm112 0c7,0 14,6 14,14 0,8 -7,15 -14,15 -8,0 -14,-7 -14,-15 0,-8 6,-14 14,-14zm0 -299c7,0 14,6 14,14 0,8 -7,14 -14,14 -8,0 -14,-6 -14,-14 0,-8 6,-14 14,-14zm-167 67c8,0 14,6 14,14 0,8 -6,14 -14,14 -8,0 -14,-6 -14,-14 0,-8 6,-14 14,-14zm112 0c7,0 14,6 14,14 0,8 -7,14 -14,14 -8,0 -14,-6 -14,-14 0,-8 6,-14 14,-14zm111 0c8,0 14,6 14,14 0,8 -6,14 -14,14 -7,0 -14,-6 -14,-14 0,-8 7,-14 14,-14zm-168 81c8,0 14,7 14,14 0,8 -6,15 -14,15 -8,0 -14,-7 -14,-15 0,-7 6,-14 14,-14zm112 0c7,0 14,7 14,14 0,8 -7,15 -14,15 -8,0 -14,-7 -14,-15 0,-7 6,-14 14,-14zm-167 67c8,0 14,7 14,14 0,8 -6,15 -14,15 -8,0 -14,-7 -14,-15 0,-7 6,-14 14,-14zm112 0c7,0 14,7 14,14 0,8 -7,15 -14,15 -8,0 -14,-7 -14,-15 0,-7 6,-14 14,-14zm111 0c8,0 14,7 14,14 0,8 -6,15 -14,15 -7,0 -14,-7 -14,-15 0,-7 7,-14 14,-14z"/>
   <path class="fil3" d="M2869 1357l0 8c-1,0 -2,0 -2,0 -8,0 -14,-7 -14,-15 0,-5 3,-10 8,-12l8 4 0 3 0 3 0 4 0 3 0 2zm4 151l1 2 0 0 0 0 0 1 0 0 0 0c-2,2 -5,2 -7,2 -8,0 -14,-6 -14,-14 0,-8 6,-14 14,-14 1,0 2,0 3,0l0 0 0 1c1,2 1,4 1,7l0 0 0 0 0 1 0 0 0 0c1,2 1,4 1,6l0 0 0 0 0 0 0 0 0 0 0 2 1 1m-610 206l1 -1 0 0 1 0 0 0 1 -1 1 0c0,1 0,3 0,4 0,1 0,1 0,2l-18 0 1 -1 0 0 0 0 1 0 0 0 0 0 0 0 0 0 1 0 0 0 0 0 0 0 0 0 1 0 0 0 0 0 0 0 1 0 0 -1 0 0 0 0 0 0 1 0 0 0 0 0 0 0 1 0 0 0 0 0 0 0 1 0 0 0 0 -1 1 0 1 0 0 0 1 0 0 0 0 0 2 -1 0 0 1 0zm152 -198l1 -4 0 0 0 -1 0 0 0 0 0 -1 0 0 0 -1 0 0 0 -1 0 0 0 0 0 0 1 -3 0 0 0 -1 0 0 0 -1 0 -3 0 0 0 0 0 -2 0 0 0 -1 1 0c0,-2 0,-4 0,-6l0 0 0 0 0 0 0 -1c1,0 1,0 2,0 8,0 14,6 14,14 0,8 -6,14 -14,14 -2,0 -4,0 -5,-1l0 0 0 -1zm5 -169l7 -4c4,3 7,7 7,12 0,8 -6,15 -14,15l0 0 0 -8 0 -2 0 -3 0 -4 0 -3 0 -3zm209 -126l15 -9 13 7c0,1 0,2 0,2 0,8 -6,14 -13,14l-1 0 0 0c-7,0 -14,-6 -14,-14l0 0zm244 287l0 0 0 0 0 3 0 1 0 0 0 0 0 0 0 1m64 205l-28 0c0,-1 0,-1 0,-2 0,-7 7,-14 14,-14 8,0 14,7 14,14 0,1 0,1 0,2zm-111 0l-28 0c0,-1 0,-1 0,-2 0,-7 6,-14 14,-14 7,0 14,7 14,14 0,1 0,1 0,2zm-112 0l-28 0c0,-1 0,-1 0,-2 0,-7 6,-14 14,-14 8,0 14,7 14,14 0,1 0,1 0,2zm-112 0l-28 0c0,-1 0,-1 0,-2 0,-7 7,-14 14,-14l0 0 1 0c7,0 13,7 13,14 0,1 0,1 0,2zm-111 0l-28 0c0,-1 0,-1 0,-2 0,-7 6,-14 14,-14 7,0 14,7 14,14 0,1 0,1 0,2zm-112 0l-28 0c0,-1 0,-1 0,-2 0,-7 6,-14 14,-14 8,0 14,7 14,14 0,1 0,1 0,2zm265 -83c7,0 13,6 13,14 0,8 -6,15 -13,15l-1 0 0 0c-7,0 -14,-7 -14,-15 0,-8 7,-14 14,-14l0 0 1 0zm-112 0c8,0 14,6 14,14 0,8 -6,15 -14,15l0 0 0 0c-8,0 -14,-7 -14,-15 0,-8 6,-14 14,-14l0 0 0 0zm223 0c8,0 14,6 14,14 0,8 -6,15 -14,15 -8,0 -14,-7 -14,-15 0,-8 6,-14 14,-14zm112 0c7,0 14,6 14,14 0,8 -7,15 -14,15 -8,0 -14,-7 -14,-15 0,-8 6,-14 14,-14zm-223 -294c7,0 13,7 13,14 0,8 -6,15 -13,15l-1 0 0 0c-7,0 -14,-7 -14,-15 0,-7 7,-14 14,-14l0 0 1 0zm-112 0c8,0 14,7 14,14 0,8 -6,15 -14,15l0 0 0 0c-8,0 -14,-7 -14,-15 0,-7 6,-14 14,-14l0 0 0 0zm223 0c8,0 14,7 14,14 0,8 -6,15 -14,15 -8,0 -14,-7 -14,-15 0,-7 6,-14 14,-14zm-166 67c7,0 13,7 13,15 0,7 -6,14 -13,14l-1 0 0 0c-7,0 -14,-7 -14,-14 0,-8 7,-15 14,-15l0 0 1 0zm111 0c8,0 14,7 14,15 0,7 -6,14 -14,14 -8,0 -14,-7 -14,-14 0,-8 6,-15 14,-15zm112 0c7,0 14,7 14,15 0,7 -7,14 -14,14 -8,0 -14,-7 -14,-14 0,-8 6,-15 14,-15zm-168 82c7,0 13,6 13,14 0,8 -6,14 -13,14l-1 0 0 0c-7,0 -14,-6 -14,-14 0,-8 7,-14 14,-14l0 0 1 0zm-112 0c8,0 14,6 14,14 0,8 -6,14 -14,14l0 0 0 0c-8,0 -14,-6 -14,-14 0,-8 6,-14 14,-14l0 0 0 0zm223 0c8,0 14,6 14,14 0,8 -6,14 -14,14 -8,0 -14,-6 -14,-14 0,-8 6,-14 14,-14zm-166 67c7,0 13,6 13,14 0,8 -6,14 -13,14l-1 0 0 0c-7,0 -14,-6 -14,-14 0,-8 7,-14 14,-14l0 0 1 0zm111 0c8,0 14,6 14,14 0,8 -6,14 -14,14 -8,0 -14,-6 -14,-14 0,-8 6,-14 14,-14zm112 0c7,0 14,6 14,14 0,8 -7,14 -14,14 -8,0 -14,-6 -14,-14 0,-8 6,-14 14,-14zm-223 -283c7,0 13,6 13,14 0,8 -6,15 -13,15l-1 0 0 0c-7,0 -14,-7 -14,-15 0,-8 7,-14 14,-14l0 0 1 0zm111 0c8,0 14,6 14,14 0,8 -6,15 -14,15 -8,0 -14,-7 -14,-15 0,-8 6,-14 14,-14zm-280 361c8,0 14,6 14,14 0,8 -6,15 -14,15 -8,0 -14,-7 -14,-15 0,-8 6,-14 14,-14zm57 -227c7,0 14,7 14,15 0,7 -7,14 -14,14 -8,0 -14,-7 -14,-14 0,-8 6,-15 14,-15zm0 149c7,0 14,6 14,14 0,8 -7,14 -14,14 -8,0 -14,-6 -14,-14 0,-8 6,-14 14,-14z"/>
   <path class="fil3" d="M1728 1365c-1,0 -2,0 -3,0 -7,0 -14,-7 -14,-15 0,-7 7,-14 14,-14 1,0 2,0 3,0l0 29zm2 142l1 5c-2,1 -4,1 -6,1 -7,0 -14,-6 -14,-14 0,-8 7,-14 14,-14 1,0 3,0 4,0l0 0 0 1c0,2 0,4 0,6l0 1 0 0 0 1 0 0 0 1 0 0 1 5 0 1 0 0 0 1 0 0 0 1 0 0 0 0 0 1 0 1 0 0 0 1 0 0 0 1zm-455 6l0 -1 0 -1 0 -4 0 -1 0 0 0 0 0 -1 1 0 0 -1 0 0 0 -1 0 0 0 0 0 -1 0 -2 0 0 0 -1 0 0 0 -3 1 -1 0 0 0 -1 0 -1 0 -1 0 0 0 -5 0 -1 0 0 0 -1c1,0 1,0 2,0 7,0 14,6 14,14 0,8 -7,14 -14,14 -2,0 -3,0 -4,0zm166 -365l20 -14 0 1c0,8 -6,14 -14,14l0 0 0 0c-2,0 -4,0 -6,-1zm104 -14l20 14c-2,1 -4,1 -6,1 -8,0 -14,-6 -14,-14l0 -1zm251 579l-28 0c0,-1 0,-1 0,-2 0,-7 6,-14 14,-14 8,0 14,7 14,14 0,1 0,1 0,2zm-112 0l-27 0c-1,-1 -1,-1 -1,-2 0,-7 7,-14 14,-14 8,0 14,7 14,14 0,1 0,1 0,2zm-111 0l-28 0c0,-1 0,-1 0,-2 0,-7 6,-14 14,-14 7,0 14,7 14,14 0,1 0,1 0,2zm-112 0l-28 0c0,-1 0,-1 0,-2 0,-7 6,-14 14,-14l0 0 0 0c8,0 14,7 14,14 0,1 0,1 0,2zm-112 0l-28 0c0,-1 0,-1 0,-2 0,-7 7,-14 14,-14 8,0 14,7 14,14 0,1 0,1 0,2zm-111 0l-28 0c0,-1 0,-1 0,-2 0,-7 6,-14 14,-14 7,0 14,7 14,14 0,1 0,1 0,2zm40 -348l0 -8 0 -21 1 0c7,0 14,7 14,14 0,8 -7,15 -14,15l-1 0zm224 265c8,0 14,6 14,14 0,8 -6,15 -14,15l0 0 0 0c-8,0 -14,-7 -14,-15 0,-8 6,-14 14,-14l0 0 0 0zm-111 0c7,0 14,6 14,14 0,8 -7,15 -14,15l-1 0 0 0c-7,0 -14,-7 -14,-15 0,-8 7,-14 14,-14l0 0 1 0zm223 0c7,0 14,6 14,14 0,8 -7,15 -14,15 -8,0 -14,-7 -14,-15 0,-8 6,-14 14,-14zm111 0c8,0 14,6 14,14 0,8 -6,15 -14,15 -7,0 -14,-7 -14,-15 0,-8 7,-14 14,-14zm-223 -294c8,0 14,7 14,14 0,8 -6,15 -14,15l0 0 0 0c-8,0 -14,-7 -14,-15 0,-7 6,-14 14,-14l0 0 0 0zm-111 0c7,0 14,7 14,14 0,8 -7,15 -14,15l-1 0 0 0c-7,0 -14,-7 -14,-15 0,-7 7,-14 14,-14l0 0 1 0zm223 0c7,0 14,7 14,14 0,8 -7,15 -14,15 -8,0 -14,-7 -14,-15 0,-7 6,-14 14,-14zm-167 67c8,0 14,7 14,15 0,7 -6,14 -14,14l0 0 0 0c-8,0 -14,-7 -14,-14 0,-8 6,-15 14,-15l0 0 0 0zm112 0c7,0 14,7 14,15 0,7 -7,14 -14,14 -8,0 -14,-7 -14,-14 0,-8 6,-15 14,-15zm111 0c8,0 14,7 14,15 0,7 -6,14 -14,14 -7,0 -14,-7 -14,-14 0,-8 7,-15 14,-15zm-168 82c8,0 14,6 14,14 0,8 -6,14 -14,14l0 0 0 0c-8,0 -14,-6 -14,-14 0,-8 6,-14 14,-14l0 0 0 0zm-111 0c7,0 14,6 14,14 0,8 -7,14 -14,14l-1 0 0 0c-7,0 -14,-6 -14,-14 0,-8 7,-14 14,-14l0 0 1 0zm223 0c7,0 14,6 14,14 0,8 -7,14 -14,14 -8,0 -14,-6 -14,-14 0,-8 6,-14 14,-14zm-167 67c8,0 14,6 14,14 0,8 -6,14 -14,14l0 0 0 0c-8,0 -14,-6 -14,-14 0,-8 6,-14 14,-14l0 0 0 0zm112 0c7,0 14,6 14,14 0,8 -7,14 -14,14 -8,0 -14,-6 -14,-14 0,-8 6,-14 14,-14zm111 0c8,0 14,6 14,14 0,8 -6,14 -14,14 -7,0 -14,-6 -14,-14 0,-8 7,-14 14,-14zm-168 -350c8,0 14,6 14,14 0,8 -6,14 -14,14l0 0 0 0c-8,0 -14,-6 -14,-14 0,-8 6,-14 14,-14l0 0 0 0zm-111 0c7,0 14,6 14,14 0,8 -7,14 -14,14l-1 0 0 0c-7,0 -14,-6 -14,-14 0,-8 7,-14 14,-14l0 0 1 0zm223 0c7,0 14,6 14,14 0,8 -7,14 -14,14 -8,0 -14,-6 -14,-14 0,-8 6,-14 14,-14zm-167 67c8,0 14,6 14,14 0,8 -6,15 -14,15l0 0 0 0c-8,0 -14,-7 -14,-15 0,-8 6,-14 14,-14l0 0 0 0zm112 0c7,0 14,6 14,14 0,8 -7,15 -14,15 -8,0 -14,-7 -14,-15 0,-8 6,-14 14,-14zm111 0c8,0 14,6 14,14 0,8 -6,15 -14,15 -7,0 -14,-7 -14,-15 0,-8 7,-14 14,-14zm-391 361c7,0 14,6 14,14 0,8 -7,15 -14,15 -8,0 -14,-7 -14,-15 0,-8 6,-14 14,-14zm56 -227c8,0 14,7 14,15 0,7 -6,14 -14,14 -7,0 -14,-7 -14,-14 0,-8 7,-15 14,-15zm0 149c8,0 14,6 14,14 0,8 -6,14 -14,14 -7,0 -14,-6 -14,-14 0,-8 7,-14 14,-14zm0 -283c8,0 14,6 14,14 0,8 -6,15 -14,15 -7,0 -14,-7 -14,-15 0,-8 7,-14 14,-14z"/>
   <path class="fil0" d="M3827 1l-2 0c-186,0 -339,147 -353,334l0 1015 0 0c1,196 -28,319 -214,363l56 0c-5,0 -10,0 -16,0l527 0 4 0 527 0c-5,0 -11,0 -16,0l56 0c-186,-44 -215,-167 -214,-363l0 0 0 -1015c-14,-187 -167,-334 -353,-334l-2 0z"/>
   <path class="fil1" d="M4050 1357l0 94c0,190 138,256 171,262l-394 0c0,-1 0,-1 -1,-1 -1,0 -1,0 -2,1l-393 0c33,-6 170,-72 170,-262l0 -94c0,-51 0,-300 0,-300l225 -135 224 135c1,0 0,249 0,300z"/>
   <path class="fil3" d="M4050 1357l0 8c0,0 -1,0 -2,0 -7,0 -14,-7 -14,-15 0,-7 7,-14 14,-14 1,0 2,0 2,0l0 2 0 2 0 2 0 3 0 1 0 2 0 1 0 3 0 0 0 3 0 0 0 2zm5 151l0 2 0 0 0 1 0 0c-2,2 -4,2 -7,2 -7,0 -14,-6 -14,-14 0,-8 7,-14 14,-14 2,0 3,0 4,0l0 0 0 1c0,2 0,4 1,7l0 0 0 0 0 1 0 0c0,2 0,4 1,6l0 0 0 0 0 0 0 0 0 0 0 2 0 1 0 0 0 0 1 3 0 1 0 0 0 0 0 1zm-611 201l2 -1 0 0 0 0m150 -196l0 0 0 -1c1,-1 1,-3 1,-5l0 0 0 -1 0 0 0 -1 1 0 0 -1 0 0 0 -3 0 -1 0 0 0 0 0 -1 1 -3 0 0 0 0 0 -2 0 -1 0 0c0,-2 0,-4 1,-5l0 0 0 -1 0 0 0 0 0 0 0 -1c0,0 1,0 2,0 7,0 13,6 13,14 0,8 -6,14 -13,14 -2,0 -4,0 -6,-1zm5 -455l5 -3c6,2 9,7 9,14 0,8 -6,14 -13,14l-1 0 0 -25zm215 -129l10 -6 9 5c-3,2 -6,4 -10,4l0 0 0 0c-4,0 -7,-1 -9,-3zm229 126l5 3 0 25c0,0 -1,0 -2,0 -7,0 -14,-6 -14,-14 0,-7 5,-13 11,-14zm-597 653l0 0c1,1 1,3 1,4 0,1 0,1 0,2l-18 0 1 -1 0 0 0 0 0 0 0 0 0 0 0 0 1 0 0 0 0 0 1 0 0 0 0 0 0 0 0 0 1 0 0 0 0 0 0 -1 1 0 0 0 0 0 0 0 0 0 1 0 0 0 0 0 0 0 1 0 0 0 0 0 1 0 0 -1 0 0 0 0 2 0 0 0 0 0 0 0 1 0 0 0 2 -1 0 0 0 0m3 -1l1 -1m671 6l-28 0c0,-1 0,-1 0,-2 0,-7 6,-14 14,-14 7,0 14,7 14,14 0,1 0,1 0,2zm-112 0l-28 0c0,-1 0,-1 0,-2 0,-7 7,-14 14,-14 8,0 14,7 14,14 0,1 0,1 0,2zm-111 0l-28 0c0,-1 0,-1 0,-2 0,-7 6,-14 14,-14 7,0 14,7 14,14 0,1 0,1 0,2zm-112 0l-28 0c0,-1 0,-1 0,-2 0,-7 6,-14 14,-14l0 0 0 0c8,0 14,7 14,14 0,1 0,1 0,2zm-112 0l-28 0c0,-1 0,-1 0,-2 0,-7 7,-14 14,-14 8,0 14,7 14,14 0,1 0,1 0,2zm-112 0l-27 0c0,-1 0,-1 0,-2 0,-7 6,-14 14,-14 7,0 14,7 14,14 0,1 0,1 -1,2zm41 -348l0 -8 0 -2 0 -3 0 -4 0 -3 0 -5 0 -4 1 0c7,0 13,7 13,14 0,8 -6,15 -13,15l-1 0zm0 -135l0 -28 1 0c7,0 13,6 13,14 0,8 -6,14 -13,14l-1 0zm449 -28l0 28c0,0 -1,0 -2,0 -7,0 -14,-6 -14,-14 0,-8 7,-14 14,-14 1,0 2,0 2,0zm-225 428c8,0 14,6 14,14 0,8 -6,15 -14,15l0 0 0 0c-8,0 -14,-7 -14,-15 0,-8 6,-14 14,-14l0 0 0 0zm-112 0c8,0 14,6 14,14 0,8 -6,15 -14,15l0 0 0 0c-8,0 -14,-7 -14,-15 0,-8 6,-14 14,-14l0 0 0 0zm224 0c7,0 14,6 14,14 0,8 -7,15 -14,15 -8,0 -14,-7 -14,-15 0,-8 6,-14 14,-14zm111 0c8,0 14,6 14,14 0,8 -6,15 -14,15 -7,0 -14,-7 -14,-15 0,-8 7,-14 14,-14zm-223 -294c8,0 14,7 14,14 0,8 -6,15 -14,15l0 0 0 0c-8,0 -14,-7 -14,-15 0,-7 6,-14 14,-14l0 0 0 0zm-112 0c8,0 14,7 14,14 0,8 -6,15 -14,15l0 0 0 0c-8,0 -14,-7 -14,-15 0,-7 6,-14 14,-14l0 0 0 0zm224 0c7,0 14,7 14,14 0,8 -7,15 -14,15 -8,0 -14,-7 -14,-15 0,-7 6,-14 14,-14zm-167 67c8,0 14,7 14,15 0,7 -6,14 -14,14l0 0 0 0c-8,0 -14,-7 -14,-14 0,-8 6,-15 14,-15l0 0 0 0zm112 0c7,0 14,7 14,15 0,7 -7,14 -14,14 -8,0 -14,-7 -14,-14 0,-8 6,-15 14,-15zm111 0c8,0 14,7 14,15 0,7 -6,14 -14,14 -7,0 -14,-7 -14,-14 0,-8 7,-15 14,-15zm-168 82c8,0 14,6 14,14 0,8 -6,14 -14,14l0 0 0 0c-8,0 -14,-6 -14,-14 0,-8 6,-14 14,-14l0 0 0 0zm-112 0c8,0 14,6 14,14 0,8 -6,14 -14,14l0 0 0 0c-8,0 -14,-6 -14,-14 0,-8 6,-14 14,-14l0 0 0 0zm224 0c7,0 14,6 14,14 0,8 -7,14 -14,14 -8,0 -14,-6 -14,-14 0,-8 6,-14 14,-14zm-167 67c8,0 14,6 14,14 0,8 -6,14 -14,14l0 0 0 0c-8,0 -14,-6 -14,-14 0,-8 6,-14 14,-14l0 0 0 0zm112 0c7,0 14,6 14,14 0,8 -7,14 -14,14 -8,0 -14,-6 -14,-14 0,-8 6,-14 14,-14zm111 0c8,0 14,6 14,14 0,8 -6,14 -14,14 -7,0 -14,-6 -14,-14 0,-8 7,-14 14,-14zm-168 -499c8,0 14,7 14,15 0,8 -6,14 -14,14l0 0 0 0c-8,0 -14,-6 -14,-14 0,-8 6,-15 14,-15l0 0 0 0zm-112 0c8,0 14,7 14,15 0,8 -6,14 -14,14l0 0 0 0c-8,0 -14,-6 -14,-14 0,-8 6,-15 14,-15l0 0 0 0zm224 0c7,0 14,7 14,15 0,8 -7,14 -14,14 -8,0 -14,-6 -14,-14 0,-8 6,-15 14,-15zm-167 67c8,0 14,7 14,15 0,8 -6,14 -14,14l0 0 0 0c-8,0 -14,-6 -14,-14 0,-8 6,-15 14,-15l0 0 0 0zm112 0c7,0 14,7 14,15 0,8 -7,14 -14,14 -8,0 -14,-6 -14,-14 0,-8 6,-15 14,-15zm111 0c8,0 14,7 14,15 0,8 -6,14 -14,14 -7,0 -14,-6 -14,-14 0,-8 7,-15 14,-15zm-168 82c8,0 14,6 14,14 0,8 -6,14 -14,14l0 0 0 0c-8,0 -14,-6 -14,-14 0,-8 6,-14 14,-14l0 0 0 0zm-112 0c8,0 14,6 14,14 0,8 -6,14 -14,14l0 0 0 0c-8,0 -14,-6 -14,-14 0,-8 6,-14 14,-14l0 0 0 0zm224 0c7,0 14,6 14,14 0,8 -7,14 -14,14 -8,0 -14,-6 -14,-14 0,-8 6,-14 14,-14zm-167 67c8,0 14,6 14,14 0,8 -6,15 -14,15l0 0 0 0c-8,0 -14,-7 -14,-15 0,-8 6,-14 14,-14l0 0 0 0zm112 0c7,0 14,6 14,14 0,8 -7,15 -14,15 -8,0 -14,-7 -14,-15 0,-8 6,-14 14,-14zm111 0c8,0 14,6 14,14 0,8 -6,15 -14,15 -7,0 -14,-7 -14,-15 0,-8 7,-14 14,-14zm-223 -299c8,0 14,6 14,14 0,8 -6,14 -14,14l0 0 0 0c-8,0 -14,-6 -14,-14 0,-8 6,-14 14,-14l0 0 0 0zm112 0c7,0 14,6 14,14 0,8 -7,14 -14,14 -8,0 -14,-6 -14,-14 0,-8 6,-14 14,-14zm-280 660c7,0 13,6 13,14 0,8 -6,15 -13,15 -8,0 -14,-7 -14,-15 0,-8 6,-14 14,-14zm56 -227c8,0 14,7 14,15 0,7 -6,14 -14,14 -7,0 -14,-7 -14,-14 0,-8 7,-15 14,-15zm0 149c8,0 14,6 14,14 0,8 -6,14 -14,14 -7,0 -14,-6 -14,-14 0,-8 7,-14 14,-14zm0 -432c8,0 14,7 14,15 0,8 -6,14 -14,14 -7,0 -14,-6 -14,-14 0,-8 7,-15 14,-15zm0 149c8,0 14,6 14,14 0,8 -6,15 -14,15 -7,0 -14,-7 -14,-15 0,-8 7,-14 14,-14z"/>
   <path class="fil3" d="M4650 1713l27 0c0,-1 0,-1 0,-2 0,-8 -6,-14 -14,-14 -7,0 -13,6 -13,14 0,1 0,1 0,2zm109 0l27 0c0,-1 0,-2 0,-2 0,-8 -6,-14 -13,-14 -8,0 -14,6 -14,14 0,0 0,1 0,2zm110 0l26 0c1,-1 1,-2 1,-2 0,-8 -6,-14 -14,-14 -8,0 -14,6 -14,14 0,0 0,1 1,2zm109 -3c7,-1 16,-2 26,-5 -2,-4 -7,-8 -12,-8l0 0 -1 0c-7,0 -13,6 -13,13zm-32 -1575l-6 4c2,-1 4,-2 6,-4zm100 1356c7,0 13,6 13,13 0,8 -6,14 -13,14l-1 0 0 0c-7,0 -13,-6 -13,-14 0,-7 6,-13 13,-13l0 0 1 0zm-110 0c8,0 14,6 14,13 0,8 -6,14 -14,14l0 0 0 0c-8,0 -14,-6 -14,-14 0,-7 6,-13 14,-13l0 0 0 0zm219 0c8,0 14,6 14,13 0,8 -6,14 -14,14 -7,0 -14,-6 -14,-14 0,-7 7,-13 14,-13zm-163 64c7,0 13,6 13,14 0,7 -6,13 -13,13l0 0 -1 0c-7,0 -13,-6 -13,-13 0,-8 6,-14 13,-14l1 0 0 0zm109 0c8,0 14,6 14,14 0,7 -6,13 -14,13 -7,0 -13,-6 -13,-13 0,-8 6,-14 13,-14zm-55 78c7,0 13,6 13,14 0,7 -6,13 -13,13l-1 0 0 0c-7,0 -13,-6 -13,-13 0,-8 6,-14 13,-14l0 0 1 0zm-110 0c8,0 14,6 14,14 0,7 -6,13 -14,13l0 0 0 0c-8,0 -14,-6 -14,-13 0,-8 6,-14 14,-14l0 0 0 0zm110 -413c7,0 13,6 13,14 0,7 -6,14 -13,14l-1 0 0 0c-7,0 -13,-7 -13,-14 0,-8 6,-14 13,-14l0 0 1 0zm-110 0c8,0 14,6 14,14 0,7 -6,14 -14,14l0 0 0 0c-8,0 -14,-7 -14,-14 0,-8 6,-14 14,-14l0 0 0 0zm219 0c8,0 14,6 14,14 0,7 -6,14 -14,14 -7,0 -14,-7 -14,-14 0,-8 7,-14 14,-14zm-163 65c7,0 13,6 13,13 0,8 -6,14 -13,14l0 0 -1 0c-7,0 -13,-6 -13,-14 0,-7 6,-13 13,-13l1 0 0 0zm109 0c8,0 14,6 14,13 0,8 -6,14 -14,14 -7,0 -13,-6 -13,-14 0,-7 6,-13 13,-13zm-55 77c7,0 13,7 13,14 0,8 -6,14 -13,14l-1 0 0 0c-7,0 -13,-6 -13,-14 0,-7 6,-14 13,-14l0 0 1 0zm-110 0c8,0 14,7 14,14 0,8 -6,14 -14,14l0 0 0 0c-8,0 -14,-6 -14,-14 0,-7 6,-14 14,-14l0 0 0 0zm219 0c8,0 14,7 14,14 0,8 -6,14 -14,14 -7,0 -14,-6 -14,-14 0,-7 7,-14 14,-14zm-163 65c7,0 13,6 13,13 0,8 -6,14 -13,14l0 0 -1 0c-7,0 -13,-6 -13,-14 0,-7 6,-13 13,-13l1 0 0 0zm109 0c8,0 14,6 14,13 0,8 -6,14 -14,14 -7,0 -13,-6 -13,-14 0,-7 6,-13 13,-13zm-55 -488c7,0 13,6 13,14 0,7 -6,14 -13,14l-1 0 0 0c-7,0 -13,-7 -13,-14 0,-8 6,-14 13,-14l0 0 1 0zm-110 0c8,0 14,6 14,14 0,7 -6,14 -14,14l0 0 0 0c-8,0 -14,-7 -14,-14 0,-8 6,-14 14,-14l0 0 0 0zm219 0c8,0 14,6 14,14 0,7 -6,14 -14,14 -7,0 -14,-7 -14,-14 0,-8 7,-14 14,-14zm-163 64c7,0 13,7 13,14 0,8 -6,14 -13,14l0 0 -1 0c-7,0 -13,-6 -13,-14 0,-7 6,-14 13,-14l1 0 0 0zm109 0c8,0 14,7 14,14 0,8 -6,14 -14,14 -7,0 -13,-6 -13,-14 0,-7 6,-14 13,-14zm-55 78c7,0 13,6 13,14 0,8 -6,14 -13,14l-1 0 0 0c-7,0 -13,-6 -13,-14 0,-8 6,-14 13,-14l0 0 1 0zm-110 0c8,0 14,6 14,14 0,8 -6,14 -14,14l0 0 0 0c-8,0 -14,-6 -14,-14 0,-8 6,-14 14,-14l0 0 0 0zm219 0c8,0 14,6 14,14 0,8 -6,14 -14,14 -7,0 -14,-6 -14,-14 0,-8 7,-14 14,-14zm-163 65c7,0 13,6 13,13 0,8 -6,14 -13,14l0 0 -1 0c-7,0 -13,-6 -13,-14 0,-7 6,-13 13,-13l1 0 0 0zm109 0c8,0 14,6 14,13 0,8 -6,14 -14,14 -7,0 -13,-6 -13,-14 0,-7 6,-13 13,-13zm-55 -477c7,0 13,6 13,13 0,8 -6,14 -13,14l-1 0 0 0c-7,0 -13,-6 -13,-14 0,-7 6,-13 13,-13l0 0 1 0zm-110 0c8,0 14,6 14,13 0,8 -6,14 -14,14l0 0 0 0c-8,0 -14,-6 -14,-14 0,-7 6,-13 14,-13l0 0 0 0zm219 0c8,0 14,6 14,13 0,8 -6,14 -14,14 -7,0 -14,-6 -14,-14 0,-7 7,-13 14,-13zm-163 64c7,0 13,6 13,14 0,7 -6,13 -13,13l0 0 -1 0c-7,0 -13,-6 -13,-13 0,-8 6,-14 13,-14l1 0 0 0zm109 0c8,0 14,6 14,14 0,7 -6,13 -14,13 -7,0 -13,-6 -13,-13 0,-8 6,-14 13,-14zm-55 78c7,0 13,6 13,14 0,7 -6,13 -13,13l-1 0 0 0c-7,0 -13,-6 -13,-13 0,-8 6,-14 13,-14l0 0 1 0zm-110 0c8,0 14,6 14,14 0,7 -6,13 -14,13l0 0 0 0c-8,0 -14,-6 -14,-13 0,-8 6,-14 14,-14l0 0 0 0zm219 0c8,0 14,6 14,14 0,7 -6,13 -14,13 -7,0 -14,-6 -14,-13 0,-8 7,-14 14,-14zm-163 64c7,0 13,6 13,14 0,7 -6,13 -13,13l0 0 -1 0c-7,0 -13,-6 -13,-13 0,-8 6,-14 13,-14l1 0 0 0zm109 0c8,0 14,6 14,14 0,7 -6,13 -14,13 -7,0 -13,-6 -13,-13 0,-8 6,-14 13,-14zm-55 -493c7,0 13,6 13,14 0,7 -6,14 -13,14l-1 0 0 0c-7,0 -13,-7 -13,-14 0,-8 6,-14 13,-14l0 0 1 0zm-110 0c8,0 14,6 14,14 0,7 -6,14 -14,14l0 0 0 0c-8,0 -14,-7 -14,-14 0,-8 6,-14 14,-14l0 0 0 0zm219 0c8,0 14,6 14,14 0,7 -6,14 -14,14 -7,0 -14,-7 -14,-14 0,-8 7,-14 14,-14zm-163 64c7,0 13,7 13,14 0,8 -6,14 -13,14l0 0 -1 0c-7,0 -13,-6 -13,-14 0,-7 6,-14 13,-14l1 0 0 0zm109 0c8,0 14,7 14,14 0,8 -6,14 -14,14 -7,0 -13,-6 -13,-14 0,-7 6,-14 13,-14zm-55 78c7,0 13,7 13,14 0,8 -6,14 -13,14l-1 0 0 0c-7,0 -13,-6 -13,-14 0,-7 6,-14 13,-14l0 0 1 0zm-110 0c8,0 14,7 14,14 0,8 -6,14 -14,14l0 0 0 0c-8,0 -14,-6 -14,-14 0,-7 6,-14 14,-14l0 0 0 0zm219 0c8,0 14,7 14,14 0,8 -6,14 -14,14 -7,0 -14,-6 -14,-14 0,-7 7,-14 14,-14zm-163 65c7,0 13,6 13,13 0,8 -6,14 -13,14l0 0 -1 0c-7,0 -13,-6 -13,-14 0,-7 6,-13 13,-13l1 0 0 0zm109 0c8,0 14,6 14,13 0,8 -6,14 -14,14 -7,0 -13,-6 -13,-14 0,-7 6,-13 13,-13zm-109 -413c7,0 13,6 13,14 0,7 -6,13 -13,13l0 0 -1 0c-7,0 -13,-6 -13,-13 0,-8 6,-14 13,-14l1 0 0 0zm54 78c7,0 13,6 13,14 0,7 -6,13 -13,13l-1 0 0 0c-7,0 -13,-6 -13,-13 0,-8 6,-14 13,-14l0 0 1 0zm-110 0c8,0 14,6 14,14 0,7 -6,13 -14,13l0 0 0 0c-8,0 -14,-6 -14,-13 0,-8 6,-14 14,-14l0 0 0 0zm219 0c8,0 14,6 14,14 0,7 -6,13 -14,13 -7,0 -14,-6 -14,-13 0,-8 7,-14 14,-14zm-163 64c7,0 13,6 13,14 0,7 -6,13 -13,13l0 0 -1 0c-7,0 -13,-6 -13,-13 0,-8 6,-14 13,-14l1 0 0 0zm109 0c8,0 14,6 14,14 0,7 -6,13 -14,13 -7,0 -13,-6 -13,-13 0,-8 6,-14 13,-14zm-275 1173c8,0 14,6 14,13 0,8 -6,14 -14,14 -7,0 -13,-6 -13,-14 0,-7 6,-13 13,-13zm-53 64c7,0 13,6 13,14 0,7 -6,13 -13,13 -8,0 -14,-6 -14,-13 0,-8 6,-14 14,-14zm109 0c8,0 14,6 14,14 0,7 -6,13 -14,13 -8,0 -14,-6 -14,-13 0,-8 6,-14 14,-14zm-165 78c8,0 14,6 14,14 0,7 -6,13 -14,13 -7,0 -14,-6 -14,-13 0,-8 7,-14 14,-14zm109 0c8,0 14,6 14,14 0,7 -6,13 -14,13 -7,0 -13,-6 -13,-13 0,-8 6,-14 13,-14zm0 -413c8,0 14,6 14,14 0,7 -6,14 -14,14 -7,0 -13,-7 -13,-14 0,-8 6,-14 13,-14zm-53 65c7,0 13,6 13,13 0,8 -6,14 -13,14 -8,0 -14,-6 -14,-14 0,-7 6,-13 14,-13zm109 0c8,0 14,6 14,13 0,8 -6,14 -14,14 -8,0 -14,-6 -14,-14 0,-7 6,-13 14,-13zm-56 77c8,0 14,7 14,14 0,8 -6,14 -14,14 -7,0 -13,-6 -13,-14 0,-7 6,-14 13,-14zm-53 65c7,0 13,6 13,13 0,8 -6,14 -13,14 -8,0 -14,-6 -14,-14 0,-7 6,-13 14,-13zm109 0c8,0 14,6 14,13 0,8 -6,14 -14,14 -8,0 -14,-6 -14,-14 0,-7 6,-13 14,-13zm-56 -488c8,0 14,6 14,14 0,7 -6,14 -14,14 -7,0 -13,-7 -13,-14 0,-8 6,-14 13,-14zm-53 64c7,0 13,7 13,14 0,8 -6,14 -13,14 -8,0 -14,-6 -14,-14 0,-7 6,-14 14,-14zm109 0c8,0 14,7 14,14 0,8 -6,14 -14,14 -8,0 -14,-6 -14,-14 0,-7 6,-14 14,-14zm-56 78c8,0 14,6 14,14 0,8 -6,14 -14,14 -7,0 -13,-6 -13,-14 0,-8 6,-14 13,-14zm-53 65c7,0 13,6 13,13 0,8 -6,14 -13,14 -8,0 -14,-6 -14,-14 0,-7 6,-13 14,-13zm109 0c8,0 14,6 14,13 0,8 -6,14 -14,14 -8,0 -14,-6 -14,-14 0,-7 6,-13 14,-13zm-56 -477c8,0 14,6 14,13 0,8 -6,14 -14,14 -7,0 -13,-6 -13,-14 0,-7 6,-13 13,-13zm-53 64c7,0 13,6 13,14 0,7 -6,13 -13,13 -8,0 -14,-6 -14,-13 0,-8 6,-14 14,-14zm109 0c8,0 14,6 14,14 0,7 -6,13 -14,13 -8,0 -14,-6 -14,-13 0,-8 6,-14 14,-14zm-56 78c8,0 14,6 14,14 0,7 -6,13 -14,13 -7,0 -13,-6 -13,-13 0,-8 6,-14 13,-14zm-53 64c7,0 13,6 13,14 0,7 -6,13 -13,13 -8,0 -14,-6 -14,-13 0,-8 6,-14 14,-14zm109 0c8,0 14,6 14,14 0,7 -6,13 -14,13 -8,0 -14,-6 -14,-13 0,-8 6,-14 14,-14zm-56 -493c8,0 14,6 14,14 0,7 -6,14 -14,14 -7,0 -13,-7 -13,-14 0,-8 6,-14 13,-14zm-53 64c7,0 13,7 13,14 0,8 -6,14 -13,14 -8,0 -14,-6 -14,-14 0,-7 6,-14 14,-14zm109 0c8,0 14,7 14,14 0,8 -6,14 -14,14 -8,0 -14,-6 -14,-14 0,-7 6,-14 14,-14zm-56 78c8,0 14,7 14,14 0,8 -6,14 -14,14 -7,0 -13,-6 -13,-14 0,-7 6,-14 13,-14zm-53 65c7,0 13,6 13,13 0,8 -6,14 -13,14 -8,0 -14,-6 -14,-14 0,-7 6,-13 14,-13zm109 0c8,0 14,6 14,13 0,8 -6,14 -14,14 -8,0 -14,-6 -14,-14 0,-7 6,-13 14,-13zm0 -413c8,0 14,6 14,14 0,7 -6,13 -14,13 -8,0 -14,-6 -14,-13 0,-8 6,-14 14,-14zm-56 78c8,0 14,6 14,14 0,7 -6,13 -14,13 -7,0 -13,-6 -13,-13 0,-8 6,-14 13,-14zm-53 64c7,0 13,6 13,14 0,7 -6,13 -13,13 -8,0 -14,-6 -14,-13 0,-8 6,-14 14,-14zm109 0c8,0 14,6 14,14 0,7 -6,13 -14,13 -8,0 -14,-6 -14,-13 0,-8 6,-14 14,-14z"/>
  </g>
 </g>
</svg>
