<?xml version="1.0" encoding="UTF-8"?>
<!DOCTYPE svg PUBLIC "-//W3C//DTD SVG 1.1//EN" "http://www.w3.org/Graphics/SVG/1.1/DTD/svg11.dtd">
<!-- Creator: CorelDRAW X7 -->
<svg xmlns="http://www.w3.org/2000/svg" xml:space="preserve" width="47.964mm" height="31.053mm" version="1.1" style="shape-rendering:geometricPrecision; text-rendering:geometricPrecision; image-rendering:optimizeQuality; fill-rule:evenodd; clip-rule:evenodd"
viewBox="0 0 4796 3105"
 xmlns:xlink="http://www.w3.org/1999/xlink">
 <defs>
  <style type="text/css">
   <![CDATA[
    .fil13 {fill:none}
    .fil16 {fill:#FDFCF2}
    .fil17 {fill:#EFECDB}
    .fil25 {fill:#E9E4CF}
    .fil18 {fill:#DAD4D0}
    .fil19 {fill:#CCC4C2}
    .fil24 {fill:#ACA8AA}
    .fil20 {fill:#102B49}
    .fil11 {fill:#112E4F}
    .fil22 {fill:#123152}
    .fil1 {fill:#14365B}
    .fil15 {fill:#CEAB2F}
    .fil3 {fill:#D2AA2F}
    .fil26 {fill:#E9474F}
    .fil23 {fill:#F1F1F1}
    .fil4 {fill:#F2C737}
    .fil2 {fill:#FFD43B}
    .fil12 {fill:black}
    .fil6 {fill:#9C947A;fill-rule:nonzero}
    .fil14 {fill:#D2AA2F;fill-rule:nonzero}
    .fil7 {fill:#E1A40B;fill-rule:nonzero}
    .fil5 {fill:#EBEBEB;fill-rule:nonzero}
    .fil8 {fill:#FFD43B;fill-rule:nonzero}
    .fil10 {fill:black;fill-opacity:0.129412}
    .fil21 {fill:black;fill-opacity:0.168627}
    .fil9 {fill:black;fill-opacity:0.188235}
    .fil28 {fill:black;fill-opacity:0.211765}
    .fil27 {fill:white;fill-opacity:0.231373}
    .fil0 {fill:#EBEBEB;fill-opacity:0.690196}
   ]]>
  </style>
 </defs>
 <g id="Capa_x0020_1">
  <metadata id="CorelCorpID_0Corel-Layer"/>
  <g id="_495008824464">
   <path class="fil0" d="M3055 2927c212,-99 62,-88 352,-87 280,-20 455,-128 733,-157 88,-9 334,-33 339,-140 6,-141 -764,-69 -862,-64 -67,2 -134,4 -201,5 -321,13 -568,42 -895,14 -396,-34 -732,47 -1130,30l-35 -1c-112,-6 -510,-21 -523,125 -13,136 502,183 611,221 63,22 114,52 170,85 287,167 631,169 958,118 176,-29 324,-78 483,-149z"/>
   <path class="fil1" d="M1034 938c142,-191 544,-205 712,29 132,-204 322,-309 514,-308 187,1 374,102 509,308 186,-271 663,-271 841,140 1,-3 3,-5 5,-8l30 484c-8,-16 -45,-24 -52,-40 -13,32 -28,65 -47,98 -18,34 -52,53 -88,53 -16,0 -33,-4 -48,-13 -5,-2 -10,-6 -15,-9l0 934c0,65 -53,118 -118,118 -66,0 -119,-53 -119,-118l0 -825c-4,0 -9,1 -14,1 -1,0 -2,0 -3,0l0 824c0,65 -53,118 -118,118 -66,0 -119,-53 -119,-118l0 -945c-7,8 -16,15 -26,20 -15,9 -31,13 -48,13 -32,0 -65,-17 -83,-46 -40,76 -132,105 -192,62l0 1105c0,77 -63,140 -141,140 -77,0 -140,-63 -140,-140l0 -976c-5,0 -11,1 -17,1 -1,0 -2,0 -3,0l0 975c0,77 -63,140 -140,140 -78,0 -140,-63 -140,-140l0 -1118c-9,10 -19,18 -31,24 -18,10 -37,15 -57,15 -42,0 -82,-23 -104,-62 -5,-9 -9,-17 -13,-26 -19,29 -51,46 -84,46 -16,0 -32,-4 -48,-13 -5,-2 -10,-6 -14,-9l0 934c-1,65 -54,118 -119,118 -66,0 -119,-53 -119,-118l0 -825c-4,0 -9,1 -14,1 -1,0 -2,0 -3,0l0 824c0,65 -53,118 -118,118 -66,0 -119,-53 -119,-118l-24 -1450c-13,22 -81,143 -89,151 -13,26 -26,47 -40,65 -96,121 -234,35 -143,-138 59,-115 123,-211 199,-296zm2375 526c54,-134 44,-232 0,-309l0 309zm-529 0l0 -308c-13,21 -22,44 -28,68 2,39 1,81 -5,125 5,35 16,73 33,115zm-310 0c31,-76 48,-175 47,-246 0,-6 -19,-3 -20,-8 -5,-114 -27,-133 -27,254zm-626 0c0,-110 -1,-220 1,-330 0,-66 -21,19 -23,34 -3,16 -9,25 -8,41 0,3 -9,1 -9,4 -11,70 -1,152 39,251zm-308 0c17,-41 27,-79 32,-113 -6,-45 -7,-88 -5,-128 -6,-24 -15,-47 -27,-68l0 309z"/>
   <path class="fil1" d="M3732 475c0,137 111,247 248,247 136,0 247,-110 247,-247 0,-136 -111,-247 -247,-247 -137,0 -248,111 -248,247z"/>
   <path class="fil1" d="M1952 306c0,169 137,306 305,306 169,0 306,-137 306,-306 0,-169 -137,-306 -306,-306 -168,0 -305,137 -305,306z"/>
   <path class="fil1" d="M1113 485c0,143 116,258 258,258 143,0 259,-115 259,-258 0,-143 -116,-259 -259,-259 -142,0 -258,116 -258,259z"/>
   <path class="fil1" d="M2886 485c0,143 115,258 258,258 143,0 258,-115 258,-258 0,-143 -115,-259 -258,-259 -143,0 -258,116 -258,259z"/>
   <path class="fil2" d="M2091 686c30,57 93,97 166,97 73,0 136,-40 166,-97 157,33 251,131 346,281 23,39 34,58 56,99 38,73 -162,152 -215,151 -6,-1 -13,-1 -13,-4 -2,-44 -9,-66 -12,-62 -4,6 -8,77 -14,310 0,-1 0,2 0,1 -16,40 -76,111 -61,164 -170,57 -431,41 -506,-3 -2,-33 -2,-78 -60,-161l-3 -19c-6,-84 -12,-151 -1,-264 0,-66 -15,-22 -18,-7 -2,15 -3,20 -4,35 0,8 -3,8 -12,7 -12,-2 -29,-6 -41,-10 -35,-11 -76,-29 -108,-47 -26,-15 -83,-52 -65,-89 0,0 2,-6 3,-6 90,-170 167,-331 396,-376z"/>
   <path class="fil3" d="M2574 1456l-29 56c0,-72 -1,-143 -1,-214 0,-87 29,-120 41,-147 -5,93 -7,193 -11,305z"/>
   <path class="fil4" d="M2109 713c-7,2 -18,5 -34,9 -83,16 -145,47 -196,88 -32,26 -60,56 -84,89 -40,54 -73,116 -106,179 0,-3 1,-7 3,-10l3 -6c17,-33 33,-65 51,-96 3,-5 6,-11 9,-16 72,-125 158,-229 336,-264 5,10 11,19 18,27z"/>
   <path class="fil4" d="M2423 686c157,33 251,131 346,281 23,39 34,58 56,99 2,5 3,9 4,13 2,15 -4,30 -16,44 0,-7 -1,-14 -5,-20 -22,-41 -32,-61 -55,-99 -92,-145 -193,-249 -352,-286 9,-10 16,-20 22,-32z"/>
   <path class="fil5" d="M2031 250c3,-5 45,-17 106,-16 61,0 87,2 91,19 0,0 15,-7 39,-8l0 0c0,0 0,0 0,0 0,0 0,0 0,0l0 0c24,1 39,8 39,8 5,-17 30,-19 91,-19 62,-1 104,11 107,16 3,6 -1,76 -1,76 0,0 -1,14 -6,13 -9,-1 2,-70 -13,-79 -16,-9 -139,-18 -154,-4 -15,15 -18,47 -17,70 0,11 4,12 1,13 -4,1 -8,-3 -11,-10 -6,-14 -1,-64 -36,-64 -35,0 -30,50 -36,64 -3,7 -7,11 -11,10 -3,-1 1,-2 1,-13 1,-23 -2,-55 -17,-70 -15,-14 -137,-5 -153,4 -15,9 -4,78 -13,79 -5,1 -6,-13 -6,-13 0,0 -4,-70 -1,-76z"/>
   <path class="fil6" d="M3067 2079c0,17 14,32 31,32l503 0c18,0 32,-15 32,-32l0 -366c0,-17 -14,-31 -32,-31l-503 0c-17,0 -31,14 -31,31l0 366z"/>
   <g>
    <image x="-3" y="562" width="4487" height="2565" xlink:href="13_Images\13_ImgID1.png"/>
   </g>
   <path class="fil7" d="M3266 1745c-10,0 -13,-10 -10,-15l21 -58c5,-9 10,-22 31,-22l84 0c21,0 25,13 31,22l21 58c3,5 0,15 -10,15 -11,0 -11,0 -42,-42l-84 0c-31,42 -32,42 -42,42z"/>
   <g>
    <image x="-3" y="562" width="4487" height="2565" xlink:href="13_Images\13_ImgID2.png"/>
   </g>
   <g>
    <path class="fil8" d="M3107 862c-5,-5 -34,-61 -34,-61 0,0 20,-34 25,-34 15,1 66,0 72,0 6,1 24,33 24,33 0,0 -27,53 -38,63 0,0 0,0 0,1 -1,2 27,497 27,497 0,0 -37,44 -51,44 -9,0 -50,-46 -50,-46l27 -496c0,0 -1,0 -2,-1z"/>
    <path class="fil9" d="M3132 1405l0 -633 0 -4c17,0 34,-1 38,-1 0,0 0,0 0,0 2,1 4,3 7,6 7,9 17,27 17,27 0,0 -27,53 -38,63l0 1c-1,2 27,497 27,497 0,0 -37,43 -51,44z"/>
   </g>
   <path class="fil10" d="M1994 1657c6,-13 8,-21 10,-34 75,44 336,60 506,3 1,8 4,17 13,29 -178,69 -355,77 -529,2z"/>
   <path class="fil11" d="M2617 1217c44,-4 154,-45 196,-94 2,-3 4,-6 6,-8 3,1 14,59 13,60 -22,24 -154,79 -215,71 0,-10 0,-19 0,-28 0,0 0,-1 0,-1z"/>
   <path class="fil11" d="M1905 1214c-45,-7 -159,-51 -200,-97 -3,-3 -5,-6 -7,-8 -3,1 -12,58 -12,59 22,24 154,78 216,70 0,-6 2,-15 2,-24 0,0 0,0 1,0z"/>
   <path class="fil1" d="M3358 1616c-5,-25 -4,-75 31,-77 68,-5 70,28 70,90 -1,14 61,31 47,53 -9,13 -130,29 -148,-66z"/>
   <path class="fil11" d="M3324 1650l47 0c-31,-62 11,-124 38,-186l0 -44c-71,119 -92,168 -85,230z"/>
   <path class="fil9" d="M3395 2111l-237 0 0 37 237 0 0 -37zm-298 37c-21,-4 -32,-16 -30,-67 1,17 15,30 31,30l43 0 0 39c-16,-1 -30,1 -44,-2z"/>
   <path class="fil1" d="M4297 903c-121,-162 -439,-191 -622,-39 -24,19 -45,42 -64,68 -206,212 -36,778 119,702l0 876c0,63 51,114 115,114 63,0 114,-51 114,-114l0 -794c4,0 9,0 13,0 1,0 2,0 3,0l0 794c0,63 51,114 114,114 63,0 114,-51 114,-114l24 -1397c12,22 78,138 86,146 84,169 177,138 254,53 41,-45 113,-118 134,-174 39,-100 -68,-201 -152,-84 -43,61 -57,67 -90,108 -57,-111 -89,-177 -162,-259zm-579 508c-17,-40 -27,-76 -32,-110 -3,-42 -2,-83 5,-123 6,-23 15,-45 27,-65l0 298z"/>
   <g>
    <g>
     <ellipse class="fil1" cx="4608" cy="935" rx="95" ry="106"/>
     <g>
      <path class="fil2" d="M4580 960c1,-2 3,-3 6,-4 4,-3 10,-4 15,-5l0 40c-9,-1 -18,-4 -23,-12 -2,-4 -2,-9 -1,-13 0,-2 1,-4 3,-6z"/>
      <path class="fil12" d="M4578 979c0,0 0,0 0,0 0,0 0,0 0,0z"/>
      <path class="fil2" d="M4640 896c2,2 3,5 3,7 0,3 0,5 -1,8 -1,2 -3,4 -5,5 -2,2 -5,3 -7,4 -2,1 -5,2 -7,2l0 -36c6,1 13,4 17,10z"/>
      <path class="fil12" d="M4578 979c0,0 0,0 0,0 0,0 0,0 0,0z"/>
      <path class="fil2" d="M4587 760c-35,-29 -57,-94 -43,-97 18,-3 59,13 78,16 28,3 59,-30 76,-11 13,15 -10,70 -47,94 110,54 266,328 -6,347 -375,28 -187,-296 -58,-349zm-33 215c2,11 7,20 16,27 9,7 20,10 31,11l0 12c0,3 1,6 4,8 3,3 8,3 11,2 4,-2 7,-6 7,-10l0 -13c2,-1 4,-1 6,-2 10,-2 20,-8 27,-16 3,-4 6,-9 8,-14 0,-1 1,-3 1,-4 1,-1 1,-2 1,-4 0,-2 0,-4 -1,-6 -2,-4 -6,-6 -11,-6 -4,1 -8,4 -9,8 -1,1 -1,2 -2,4 0,1 -1,2 -1,3 -2,2 -3,5 -5,6 -4,4 -9,7 -14,8l0 -44c10,-2 20,-6 29,-12 4,-3 7,-7 10,-12 2,-5 3,-10 3,-16 0,-5 -1,-11 -3,-16 -2,-4 -6,-9 -9,-12 -8,-8 -19,-12 -30,-13l0 -13c0,-3 -1,-6 -4,-8 -3,-3 -8,-3 -12,-2 -4,2 -6,6 -6,10l0 13c-2,0 -3,0 -5,0 -10,2 -21,7 -28,14 -4,4 -7,8 -9,13 -1,1 -1,3 -2,4 0,1 -1,3 -1,4 0,2 0,4 1,6 2,4 6,7 11,7 4,-1 8,-3 9,-8 1,-1 1,-2 2,-3 0,-1 1,-3 1,-4 2,-2 4,-4 6,-5 4,-3 9,-5 15,-6l0 42c-7,1 -13,3 -19,5 -9,4 -18,10 -23,18 1,-1 1,-2 0,0 -2,3 -1,2 0,0 -4,8 -5,16 -5,24z"/>
      <path class="fil12" d="M4578 979c1,0 1,0 1,0 0,0 0,0 -1,0z"/>
     </g>
    </g>
    <path class="fil4" d="M4735 1026c31,-150 -91,-195 -96,-255 -1,-3 -1,-5 -1,-7 5,0 10,-1 14,-1 99,50 232,272 65,332 -20,7 -43,12 -72,14 -23,2 -45,2 -64,1 43,0 91,-11 122,-36 16,-12 28,-28 32,-48z"/>
    <path class="fil4" d="M4638 764c-5,-25 -21,-46 7,-68 3,-2 8,-15 11,-25 2,-1 3,-1 5,-2 14,-6 27,-12 37,-1 13,15 -10,70 -47,94 0,0 0,0 1,1 -4,0 -9,1 -14,1z"/>
    <path class="fil13" d="M4657 762c-19,4 -59,0 -79,-4l-1 0"/>
    <path class="fil14" d="M4659 774c7,-2 11,-8 9,-15 -1,-6 -8,-11 -14,-9 -7,2 -19,2 -31,1 -15,0 -32,-3 -42,-5 -1,0 -1,0 -2,0l0 0c-7,-1 -13,4 -14,11l0 0 0 2c1,6 5,11 11,11l1 0c11,3 29,5 45,5 14,1 28,1 37,-1z"/>
   </g>
   <path class="fil15" d="M1545 1810l-190 -200 191 -181 289 243c13,10 14,29 4,41l-175 209c-10,12 -29,14 -41,3l-106 -88 28 -27z"/>
   <path class="fil16" d="M1563 1908c11,11 30,12 42,1l197 -187c12,-12 13,-30 2,-42l-279 -295c-11,-11 -30,-12 -42,-1l-198 187c-12,12 -12,30 -1,42l279 295z"/>
   <path class="fil17" d="M1285 1571l100 -94 319 338 -99 94c-12,11 -31,10 -42,-1l-279 -295c-11,-12 -11,-30 1,-42z"/>
   <polygon class="fil18" points="1366,1647 1553,1469 1524,1440 1337,1617 "/>
   <polygon class="fil18" points="1423,1707 1610,1530 1582,1500 1395,1677 "/>
   <polygon class="fil18" points="1478,1765 1665,1588 1637,1558 1450,1736 "/>
   <polygon class="fil18" points="1535,1826 1723,1649 1694,1619 1507,1796 "/>
   <path class="fil18" d="M1462 1427c4,4 10,4 14,0l0 0c4,-3 4,-9 0,-13l-21 -23c-4,-4 -10,-4 -14,-1l0 0c-4,4 -4,10 -1,14l22 23z"/>
   <path class="fil18" d="M1431 1455c4,4 10,4 14,0l0 0c4,-3 4,-10 1,-13l-22 -23c-4,-4 -10,-4 -14,-1l0 0c-4,4 -4,10 0,14l21 23z"/>
   <path class="fil18" d="M1403 1483c3,4 9,4 13,1l0 0c4,-4 4,-10 1,-14l-22 -23c-4,-4 -10,-4 -14,0l0 0c-4,3 -4,10 0,14l22 22z"/>
   <path class="fil18" d="M1372 1513c3,4 9,4 13,0l0 0c4,-4 5,-10 1,-14l-22 -23c-3,-4 -10,-4 -14,0l0 0c-4,4 -4,10 0,14l22 23z"/>
   <path class="fil18" d="M1342 1541c4,4 10,4 14,0l0 0c4,-4 4,-10 0,-14l-21 -23c-4,-4 -10,-4 -14,0l0 0c-4,4 -4,10 -1,14l22 23z"/>
   <path class="fil18" d="M1312 1569c4,4 10,4 14,0l0 0c4,-3 4,-10 0,-14l-21 -22c-4,-4 -10,-4 -14,-1l0 0c-4,4 -4,10 0,14l21 23z"/>
   <polygon class="fil19" points="1432,1527 1460,1557 1366,1647 1337,1617 "/>
   <polygon class="fil19" points="1489,1588 1518,1617 1423,1707 1395,1677 "/>
   <polygon class="fil19" points="1544,1646 1573,1676 1478,1765 1450,1736 "/>
   <polygon class="fil19" points="1602,1706 1630,1736 1535,1826 1507,1796 "/>
   <path class="fil1" d="M1623 1672c-75,-53 -35,-152 13,-208 6,-15 11,-30 16,-45 8,-24 13,-47 16,-68l0 -7 240 0c6,30 15,61 27,95l0 286c-16,7 -32,11 -49,11 -28,0 -56,-10 -77,-29 -11,-9 -20,-20 -27,-33 -5,-9 -9,-17 -13,-26 -19,29 -51,46 -84,46 -16,0 -32,-4 -48,-13 -5,-2 -10,-6 -14,-9z"/>
   <path class="fil20" d="M4694 1154c-65,1 -142,-1 -193,-40 5,-5 7,-7 12,-14 19,6 42,9 68,10 19,1 41,1 64,-1 25,-1 46,-5 64,-11 0,13 -2,26 -8,40 -3,8 -2,7 -7,16z"/>
   <path class="fil21" d="M1605 1909l18 -17 81 -77 101 -96 -180 208 -21 -17c0,-1 0,-1 1,-1z"/>
   <path class="fil22" d="M2271 900l0 0c2,0 3,0 4,0l1 0c13,0 25,2 38,4l0 0c77,16 143,69 173,145 13,31 19,65 17,99 -1,10 -2,19 -3,29l0 0c-8,44 -28,85 -57,117 -4,-6 -11,-16 -19,-25 -5,0 -11,1 -14,2 -5,1 -9,3 -14,5 1,-9 6,-19 12,-26 -2,-2 -3,-4 -5,-6l0 0c-11,1 -19,3 -28,8 2,-10 8,-19 14,-26 -6,-7 -11,-14 -18,-19 -6,-4 -13,-7 -20,-8 -11,-3 -23,0 -34,5 -3,2 -5,3 -8,5l0 0c1,12 3,18 8,28 -10,-2 -19,-7 -27,-14l-1 1c-2,2 -4,3 -6,5 1,11 2,18 6,27 -10,-2 -18,-7 -25,-14 -8,4 -17,6 -25,4 -6,-2 -11,-4 -15,-7 -11,0 -20,1 -29,5 2,-9 8,-18 16,-24 0,-1 0,-1 -1,-2 -1,-6 -1,-12 0,-18 1,-5 4,-11 8,-16 8,-9 23,-16 44,-16 6,0 10,0 15,0l-1 0c4,-9 6,-16 8,-26 6,7 12,16 14,25 -1,0 -3,0 -4,0 3,0 5,0 8,0 9,-1 17,-2 25,-5l0 0 0 0c-5,2 -10,3 -14,4 0,-2 0,-4 1,-5 1,-8 1,-14 1,-22 7,4 13,11 18,18 0,1 1,2 1,3 29,-12 47,-40 48,-69 -9,-4 -16,-6 -25,-7 6,-7 15,-12 24,-15 -1,-4 -2,-7 -3,-11 -11,1 -17,1 -26,3 3,-9 7,-16 14,-23 -2,-3 -4,-5 -7,-8 -10,5 -15,7 -23,14 -1,-10 1,-18 4,-27 -4,-1 -8,-3 -13,-4 -28,-8 -47,-2 -65,10 1,11 4,18 8,27 -10,-2 -20,-7 -27,-13l-4 3 -3 2c1,11 3,18 7,27 -9,-2 -18,-7 -26,-14 -7,4 -13,3 -20,-6l-8 -9c-5,-8 1,-7 4,-11 5,-6 2,-14 -3,-17l-35 -17c-3,-1 -5,-3 -8,-4 -4,-1 -8,0 -11,3 -1,0 -2,1 -2,1l-7 -8 0 0 -2 -2 4 -15c1,-2 -1,-5 -3,-5 -2,-1 -4,1 -5,3l-4 13 -14 1c-2,0 -4,2 -4,4 0,3 2,4 5,4l15 0 8 11c-1,0 -2,1 -2,2 -6,5 -4,12 -2,19l9 38c3,7 11,9 17,4 1,-2 4,-4 6,-3 2,1 14,18 17,21 23,24 52,20 78,0 6,-5 12,-10 17,-14 15,-12 27,-24 47,-19 10,3 19,9 24,18 5,9 6,19 3,30 -1,6 -5,12 -9,17 -5,5 -10,8 -17,10 -45,13 -86,-10 -127,34 -9,11 -14,22 -17,34 -2,12 -2,24 1,36 6,26 26,48 56,56 38,10 62,-9 86,-29 5,-4 10,-8 14,-11 12,-8 21,-4 29,6l45 57c7,7 7,18 -2,25 -2,2 -5,3 -8,5 -2,1 -4,3 -6,4 -35,20 -76,32 -119,32 -1,0 -3,0 -4,0l-1 0c-1,0 -2,0 -4,0l0 0c-13,0 -26,-2 -39,-4l0 -1c-77,-15 -143,-68 -173,-144 -12,-30 -18,-64 -16,-99 0,-10 1,-20 3,-29l0 0c19,-111 116,-196 232,-196 2,0 3,0 5,0zm18 268c1,0 2,0 4,0 -2,0 -3,0 -4,0zm-65 -116l-1 1c0,0 -1,0 -2,1 1,-1 2,-1 2,-1l1 -1zm-3 2c0,0 0,0 -1,0 1,0 1,0 1,0zm-1 0c0,1 -1,1 -1,1 0,0 1,0 1,-1zm43 114c-8,0 -15,1 -21,3 0,-2 1,-3 1,-4 3,-8 4,-15 5,-23 6,5 11,11 14,18 1,2 2,4 2,6 0,0 0,0 -1,0zm-104 -146c3,0 6,-3 6,-6 0,-3 -3,-6 -6,-6 -3,0 -6,2 -6,6 0,3 2,6 6,6z"/>
   <path class="fil23" d="M1100 2528c-154,4 -371,19 -552,-4 -87,-11 -205,-20 -266,20 -54,37 -70,149 88,149 106,0 116,-65 287,-65 19,0 146,9 202,74 46,56 166,-107 167,-124 2,-35 81,-50 74,-50z"/>
   <g>
    <path class="fil1" d="M896 1430c111,-27 79,-173 -31,-194 -18,-3 -28,-1 -47,-8 -30,-10 -51,-20 -90,-48 -85,-64 -132,-94 -188,-69 -9,6 -18,13 -25,21 -12,13 -19,28 -23,44 -8,35 14,82 42,107 96,85 184,125 303,147 21,5 40,5 58,1 1,0 1,-1 1,-1z"/>
    <g>
     <path class="fil24" d="M486 916l0 0c7,-7 20,1 24,10l221 508c4,9 1,24 -9,24l0 0c-10,0 -20,0 -24,-9l-222 -508c-4,-10 3,-17 10,-25z"/>
     <g>
      <rect class="fil25" transform="matrix(0.92032 -0.409653 0.358869 0.80623 -6.38007 739.402)" width="751" height="499" rx="23" ry="23"/>
      <path class="fil26" d="M416 893c13,-6 27,-39 31,-56 11,-38 14,-111 -42,-111 -34,3 -46,34 -43,48 -7,-12 -38,-24 -63,-1 -38,42 18,89 54,106 15,8 49,20 63,14z"/>
      <path class="fil1" d="M154 824l-3 -6c-1,-2 0,-4 3,-5l60 -27c3,-1 4,-2 5,-1 1,0 2,1 3,4 2,4 3,6 3,7 0,1 -1,2 -3,3 -4,3 -6,8 -4,12l59 131c1,3 4,5 8,4 3,0 5,1 6,1 1,1 2,2 2,4l2 4c1,2 2,4 1,4 0,1 -1,1 -3,2l-62 28c-2,1 -4,1 -5,-1 -2,-5 -3,-8 -3,-10 0,-1 1,-3 3,-5 4,-3 5,-6 4,-9l-58 -129c-1,-3 -2,-5 -4,-6 -1,-1 -4,-2 -7,-2 -3,0 -4,0 -5,0 -1,0 -1,-2 -2,-3z"/>
      <path class="fil27" d="M391 1045l0 -483 -379 169c-10,5 -15,17 -10,27l163 366c4,10 16,14 26,10l200 -89z"/>
      <path class="fil1" d="M690 729l0 0zm-76 -21l0 0zm17 -25l0 0zm-22 -54l0 0zm-9 -7l0 0zm-55 12l0 0zm-21 17l0 0zm-1 1l0 0zm-1 1l0 0zm-2 7l0 0zm1 6l0 0zm-14 44l0 0zm-5 6l0 0zm-5 19l0 0zm17 44l0 0zm21 17l0 0zm3 1l0 0zm13 -48l0 0zm14 -20c4,-2 35,-15 45,-20l4 -1c4,-2 8,-5 11,-8 3,-3 5,-7 6,-11 0,-2 0,-4 0,-6 0,-2 0,-4 -1,-6 0,-1 -5,-12 -10,-24 -5,-11 -11,-23 -11,-24 -1,-1 -2,-3 -4,-4 -2,-1 -4,-2 -5,-3 -1,-1 -3,-1 -4,-1 -2,0 -4,-1 -5,-1 -4,0 -9,0 -15,2 -6,1 -12,3 -17,5 -5,2 -9,5 -14,7 -4,2 -8,5 -12,8 -2,1 -4,3 -5,4 -2,1 -3,3 -4,5l-1 1 -1 1c-1,2 -2,5 -2,7 0,2 0,4 1,6l9 20 44 -19 2 -1 1 2 2 6 1 2 -2 1 -66 30c-2,0 -4,2 -5,3 -2,2 -4,4 -5,6 -4,5 -5,12 -5,19 1,8 3,17 6,24l1 1c2,4 3,7 5,10 1,3 3,6 5,9 1,2 3,3 4,5 1,1 2,3 4,4l2 2c4,3 9,6 11,6 1,0 2,1 3,1 1,0 2,0 4,0 1,0 2,0 3,0 1,-1 2,-1 4,-1l14 -7 -9 -21c-1,-3 -2,-6 -3,-9 0,-4 0,-7 0,-10 1,-4 3,-8 5,-11 3,-4 6,-6 9,-9zm-20 -75c5,3 5,12 -2,15 -7,3 -14,-4 -12,-11 1,-2 2,-4 5,-5 3,-2 7,-1 9,1zm149 37l0 0zm-26 -41l0 0zm-25 34l0 0zm-31 36l0 0zm-47 27l0 0zm-1 6l0 0zm-1 6l0 0zm2 7l0 0zm12 27l0 0zm6 13l0 0zm1 2l0 0zm87 -18l0 0zm1 -20l0 0zm-58 -5l2 -1 64 -28c1,-1 1,-1 2,-1l0 0 0 0c1,-1 2,-1 4,-2 1,-1 2,-2 3,-3l1 -1c8,-9 8,-23 4,-38 -4,-14 -12,-28 -21,-37l-1 -2c-1,-1 -2,-1 -4,-2 -1,-1 -2,-2 -3,-3 -4,-1 -7,-2 -11,-3 -3,0 -6,1 -9,2l-14 6 9 21c2,3 3,7 3,11 1,4 0,8 0,11 -1,1 -1,2 -2,4 0,1 -1,2 -1,3 -1,1 -1,2 -2,3 -1,1 -2,2 -3,2 -5,5 -11,8 -17,10l-6 3 -10 4c-8,4 -15,7 -22,10 -3,1 -6,3 -9,6 -2,2 -4,5 -6,7 -1,2 -1,4 -1,6 -1,2 -1,4 -1,6 0,1 1,2 1,3 0,2 1,3 1,4 4,8 8,18 12,27l6 13 1 2c2,4 3,7 7,9 4,3 8,4 12,4 4,0 8,0 12,-1 10,-2 23,-6 34,-12 9,-5 18,-12 22,-18 2,-2 3,-5 4,-8 0,-2 0,-4 -1,-6 0,-2 -1,-4 -2,-6 -1,-2 -2,-4 -2,-5 -2,-1 -3,-5 -5,-9l0 -1 -44 19 -2 1 -1 -2 -3 -6 -1 -2zm33 20c-1,-3 -2,-5 0,-8 0,-1 1,-2 2,-3 3,-3 8,-3 12,-1 5,5 3,13 -2,15l-1 1c-4,2 -9,-1 -11,-4z"/>
     </g>
     <polygon class="fil28" points="501,996 534,981 547,1010 514,1025 "/>
    </g>
   </g>
  </g>
 </g>
</svg>
