<?xml version="1.0" encoding="UTF-8"?>
<!DOCTYPE svg PUBLIC "-//W3C//DTD SVG 1.1//EN" "http://www.w3.org/Graphics/SVG/1.1/DTD/svg11.dtd">
<!-- Creator: CorelDRAW X7 -->
<svg xmlns="http://www.w3.org/2000/svg" xml:space="preserve" width="53.133mm" height="31.053mm" version="1.1" style="shape-rendering:geometricPrecision; text-rendering:geometricPrecision; image-rendering:optimizeQuality; fill-rule:evenodd; clip-rule:evenodd"
viewBox="0 0 5313 3105"
 xmlns:xlink="http://www.w3.org/1999/xlink">
 <defs>
  <style type="text/css">
   <![CDATA[
    .fil13 {fill:none}
    .fil16 {fill:#FDFCF2}
    .fil17 {fill:#EFECDB}
    .fil18 {fill:#DAD4D0}
    .fil19 {fill:#CCC4C2}
    .fil20 {fill:#102B49}
    .fil11 {fill:#112E4F}
    .fil22 {fill:#123152}
    .fil1 {fill:#14365B}
    .fil15 {fill:#CEAB2F}
    .fil3 {fill:#D2AA2F}
    .fil23 {fill:#F1F1F1}
    .fil4 {fill:#F2C737}
    .fil2 {fill:#FFD43B}
    .fil12 {fill:black}
    .fil6 {fill:#9C947A;fill-rule:nonzero}
    .fil14 {fill:#D2AA2F;fill-rule:nonzero}
    .fil7 {fill:#E1A40B;fill-rule:nonzero}
    .fil5 {fill:#EBEBEB;fill-rule:nonzero}
    .fil8 {fill:#FFD43B;fill-rule:nonzero}
    .fil10 {fill:black;fill-opacity:0.129412}
    .fil21 {fill:black;fill-opacity:0.168627}
    .fil9 {fill:black;fill-opacity:0.188235}
    .fil0 {fill:#EBEBEB;fill-opacity:0.690196}
   ]]>
  </style>
 </defs>
 <g id="Capa_x0020_1">
  <metadata id="CorelCorpID_0Corel-Layer"/>
  <path class="fil0" d="M3314 2927c211,-99 62,-88 352,-87 279,-20 454,-128 732,-157 89,-9 334,-33 339,-140 6,-141 -764,-69 -862,-64 -66,2 -133,4 -200,5 -322,13 -568,42 -896,14 -395,-34 -731,47 -1130,30l-35 -1c-112,-6 -509,-21 -523,125 -13,136 503,183 611,221 63,22 114,52 170,85 288,167 631,169 959,118 176,-29 324,-77 483,-149z"/>
  <path class="fil1" d="M1292 938c142,-191 545,-205 713,29 131,-204 322,-309 514,-308 186,1 374,102 509,308 185,-271 663,-271 840,140 2,-3 3,-5 5,-8l31 484c-8,-16 -46,-24 -52,-40 -13,32 -29,65 -47,98 -18,34 -53,53 -88,53 -17,0 -33,-4 -48,-12 -6,-3 -10,-7 -15,-10l0 934c0,65 -53,118 -119,118 -65,0 -118,-53 -118,-118l0 -825c-5,0 -10,1 -14,1 -1,0 -2,0 -3,0l0 824c0,65 -53,118 -119,118 -65,0 -118,-53 -118,-118l0 -945c-8,8 -16,15 -26,21 -16,8 -32,12 -48,12 -33,0 -65,-17 -84,-46 -39,76 -132,105 -192,62l0 1105c0,77 -63,140 -140,140 -78,0 -141,-63 -140,-140l0 -976c-6,0 -12,1 -17,1 -1,0 -2,0 -3,0l0 975c0,77 -63,140 -141,140 -77,0 -140,-63 -140,-140l0 -1118c-9,10 -19,18 -31,24 -18,10 -37,15 -56,15 -42,0 -83,-23 -105,-62 -4,-9 -8,-17 -13,-26 -19,29 -51,46 -83,46 -17,0 -33,-4 -48,-12 -6,-3 -11,-7 -15,-10l0 934c0,65 -53,118 -119,118 -65,0 -118,-53 -118,-118l0 -825c-5,0 -10,1 -14,1 -1,0 -2,0 -3,0l0 824c0,65 -53,118 -119,118 -65,0 -118,-53 -118,-118l-25 -1450c-12,22 -81,143 -89,151 -13,26 -26,47 -39,65 -97,121 -234,35 -143,-138 59,-115 122,-211 198,-296zm2375 526c55,-134 44,-232 0,-309l0 309zm-529 0l0 -308c-12,21 -22,44 -28,68 3,39 1,81 -5,125 6,35 16,73 33,115zm-309 0c31,-76 48,-175 46,-246 0,-6 -19,-3 -19,-8 -5,-114 -27,-133 -27,254zm-626 0c0,-110 -1,-220 0,-330 1,-66 -20,19 -23,34 -3,16 -8,25 -8,41 1,3 -8,1 -9,4 -10,70 0,152 40,251zm-309 0c17,-41 27,-79 33,-113 -6,-45 -8,-88 -5,-128 -6,-24 -16,-47 -28,-68l0 309z"/>
  <path class="fil1" d="M3991 475c0,137 111,247 247,247 137,0 247,-110 247,-247 0,-136 -110,-247 -247,-247 -136,0 -247,111 -247,247z"/>
  <path class="fil1" d="M2210 306c0,169 137,306 306,306 169,0 306,-137 306,-306 0,-169 -137,-306 -306,-306 -169,0 -306,137 -306,306z"/>
  <path class="fil1" d="M1371 485c0,143 116,258 259,258 142,0 258,-115 258,-258 0,-143 -116,-259 -258,-259 -143,0 -259,116 -259,259z"/>
  <path class="fil1" d="M3144 485c0,143 116,258 259,258 142,0 258,-115 258,-258 0,-143 -116,-259 -258,-259 -143,0 -259,116 -259,259z"/>
  <path class="fil2" d="M2350 686c30,57 93,97 166,97 73,0 136,-40 166,-97 156,33 250,131 346,281 23,39 33,58 55,99 39,73 -162,152 -215,151 -5,-1 -13,-1 -13,-4 -2,-44 -8,-66 -11,-62 -5,6 -9,77 -15,310 1,-1 0,2 1,1 -17,40 -77,111 -62,164 -170,57 -431,41 -506,-3 -1,-33 -2,-78 -60,-161l-2 -19c-6,-84 -13,-151 -2,-264 1,-66 -14,-22 -17,-7 -3,15 -4,20 -4,35 -1,8 -4,8 -12,7 -13,-2 -29,-6 -41,-10 -35,-11 -77,-29 -109,-47 -25,-15 -82,-52 -65,-89 0,0 3,-6 3,-6 90,-170 167,-331 397,-376z"/>
  <path class="fil3" d="M2832 1456l-29 56c0,-72 -1,-143 -1,-214 0,-87 29,-120 42,-147 -6,93 -7,193 -12,305z"/>
  <path class="fil4" d="M2368 713c-7,2 -18,5 -35,9 -82,16 -145,47 -196,88 -32,26 -59,56 -84,89 -40,54 -72,116 -106,179 0,-3 1,-7 3,-10l3 -6c17,-33 34,-65 51,-96 3,-5 7,-11 10,-16 72,-125 158,-229 336,-264 5,10 11,19 18,27z"/>
  <path class="fil4" d="M2682 686c156,33 250,131 346,281 23,39 33,58 55,99 2,5 4,9 4,13 3,15 -4,30 -16,44 1,-7 -1,-14 -5,-20 -21,-41 -32,-61 -55,-99 -92,-145 -192,-249 -351,-286 8,-10 16,-20 22,-32z"/>
  <path class="fil5" d="M2290 250c3,-5 45,-17 106,-16 61,0 86,2 90,19 0,0 15,-7 39,-8l0 0c0,0 0,0 0,0 1,0 1,0 1,0l0 0c24,1 39,8 39,8 4,-17 29,-19 91,-19 61,-1 103,11 106,16 3,6 -1,76 -1,76 0,0 0,14 -5,13 -9,-1 2,-70 -14,-79 -15,-9 -138,-18 -153,-4 -15,15 -18,47 -18,70 1,11 4,12 1,13 -3,1 -8,-3 -11,-10 -5,-14 -1,-64 -36,-64 -34,0 -30,50 -35,64 -3,7 -8,11 -11,10 -3,-1 1,-2 1,-13 0,-23 -3,-55 -18,-70 -14,-14 -137,-5 -152,4 -16,9 -5,78 -14,79 -5,1 -5,-13 -5,-13 0,0 -4,-70 -1,-76z"/>
  <path class="fil6" d="M3326 2079c0,17 14,32 31,32l503 0c17,0 31,-15 31,-32l0 -366c0,-17 -14,-31 -31,-31l-503 0c-17,0 -31,14 -31,31l0 366z"/>
  <g id="_494844028432">
   <image x="1078" y="767" width="3665" height="2360" xlink:href="14_Images\14_ImgID1.png"/>
  </g>
  <path class="fil7" d="M3525 1745c-10,0 -14,-10 -11,-15l22 -58c5,-9 9,-22 30,-22l84 0c21,0 26,13 31,22l22 58c3,5 0,15 -11,15 -10,0 -10,0 -42,-42l-84 0c-31,42 -32,42 -41,42z"/>
  <g id="_494844025456">
   <image x="1078" y="767" width="3665" height="2360" xlink:href="14_Images\14_ImgID2.png"/>
  </g>
  <g id="_494844024144">
   <path class="fil8" d="M3366 862c-5,-5 -35,-61 -35,-61 0,0 20,-34 26,-34 15,1 65,0 72,0 5,1 23,33 23,33 0,0 -26,53 -38,63 0,0 0,0 0,1 0,2 28,497 28,497 0,0 -38,44 -52,44 -8,0 -49,-46 -49,-46l27 -496c-1,0 -2,0 -2,-1z"/>
   <path class="fil9" d="M3391 1405l0 -633 0 -4c17,0 34,-1 38,-1 0,0 0,0 0,0 1,1 4,3 6,6 8,9 17,27 17,27 0,0 -26,53 -38,63l0 1c0,2 28,497 28,497 0,0 -37,43 -51,44z"/>
  </g>
  <path class="fil10" d="M2252 1657c7,-13 9,-21 10,-34 75,44 336,60 506,3 2,8 4,17 13,29 -178,69 -354,77 -529,2z"/>
  <path class="fil11" d="M2875 1217c45,-4 154,-45 196,-94 3,-3 5,-6 7,-8 2,1 13,59 12,60 -22,24 -154,79 -215,71 0,-10 1,-19 0,-28 0,0 0,-1 0,-1z"/>
  <path class="fil11" d="M2163 1214c-45,-7 -159,-51 -200,-97 -2,-3 -5,-6 -7,-8 -2,1 -12,58 -11,59 22,24 154,78 215,70 1,-6 3,-15 3,-24 0,0 0,0 0,0z"/>
  <path class="fil1" d="M3616 1616c-5,-25 -3,-75 32,-77 68,-5 70,28 69,90 0,14 62,31 47,53 -9,13 -129,29 -148,-66z"/>
  <path class="fil11" d="M3582 1650l48 0c-31,-62 10,-124 37,-186l0 -44c-70,119 -92,168 -85,230z"/>
  <path class="fil9" d="M3654 2111l-237 0 0 37 237 0 0 -37zm-298 37c-22,-4 -33,-16 -30,-67 1,17 14,30 31,30l43 0 0 39c-16,-1 -30,1 -44,-2z"/>
  <path class="fil1" d="M4556 903c-122,-162 -440,-191 -623,-39 -24,19 -45,42 -63,68 -207,212 -37,778 119,702l0 876c0,63 51,114 114,114 63,0 114,-51 114,-114l0 -794c5,0 9,0 14,0 1,0 2,0 2,0l0 794c0,63 51,114 115,114 63,0 114,-51 114,-114l23 -1397c13,22 78,138 86,146 84,169 177,138 255,53 41,-45 112,-118 134,-174 38,-100 -69,-201 -153,-84 -43,61 -57,67 -90,108 -57,-111 -88,-177 -161,-259zm-580 508c-16,-40 -26,-76 -32,-110 -3,-42 -1,-83 5,-123 6,-23 15,-45 27,-65l0 298z"/>
  <g id="_494844016656">
   <g>
    <ellipse class="fil1" cx="4867" cy="935" rx="95" ry="106"/>
    <g>
     <path class="fil2" d="M4838 960c2,-2 4,-3 6,-4 5,-3 10,-4 15,-5l0 40c-8,-1 -18,-4 -22,-12 -2,-4 -3,-9 -2,-13 1,-2 2,-4 3,-6z"/>
     <path class="fil12" d="M4837 979c0,0 0,0 0,0 0,0 0,0 0,0z"/>
     <path class="fil2" d="M4899 896c1,2 2,5 2,7 1,3 0,5 -1,8 0,2 -2,4 -4,5 -3,2 -5,3 -8,4 -2,1 -4,2 -7,2l0 -36c7,1 14,4 18,10z"/>
     <path class="fil12" d="M4837 979c0,0 0,0 0,0 0,0 0,0 0,0z"/>
     <path class="fil2" d="M4845 760c-34,-29 -57,-94 -43,-97 19,-3 59,13 79,16 28,3 58,-30 75,-11 14,15 -10,70 -47,94 111,54 266,328 -5,347 -376,28 -188,-296 -59,-349zm-32 215c1,11 7,20 15,27 9,7 20,10 31,11l0 12c0,3 2,6 4,8 3,3 8,3 12,2 4,-2 6,-6 6,-10l0 -13c2,-1 4,-1 6,-2 10,-2 20,-8 27,-16 4,-4 6,-9 8,-14 1,-1 1,-3 2,-4 0,-1 0,-2 1,-4 0,-2 -1,-4 -2,-6 -2,-4 -6,-6 -10,-6 -5,1 -9,4 -10,8 0,1 -1,2 -1,4 -1,1 -1,2 -2,3 -1,2 -3,5 -5,6 -4,4 -8,7 -14,8l0 -44c10,-2 21,-6 29,-12 4,-3 8,-7 10,-12 2,-5 3,-10 3,-16 1,-5 -1,-11 -3,-16 -2,-4 -5,-9 -9,-12 -8,-8 -19,-12 -30,-13l0 -13c0,-3 -1,-6 -3,-8 -4,-3 -8,-3 -12,-2 -4,2 -7,6 -7,10l0 13c-1,0 -3,0 -4,0 -11,2 -21,7 -29,14 -4,4 -7,8 -9,13 0,1 -1,3 -1,4 -1,1 -1,3 -1,4 -1,2 0,4 1,6 1,4 6,7 10,7 4,-1 8,-3 10,-8 0,-1 1,-2 1,-3 1,-1 1,-3 2,-4 1,-2 3,-4 5,-5 5,-3 10,-5 15,-6l0 42c-6,1 -13,3 -19,5 -9,4 -18,10 -23,18 1,-1 2,-2 0,0 -1,3 0,2 0,0 -4,8 -5,16 -4,24z"/>
     <path class="fil12" d="M4837 979c0,0 0,0 0,0 0,0 0,0 0,0z"/>
    </g>
   </g>
   <path class="fil4" d="M4993 1026c32,-150 -91,-195 -96,-255 0,-3 -1,-5 -1,-7 5,0 10,-1 14,-1 99,50 233,272 65,332 -19,7 -43,12 -71,14 -24,2 -45,2 -65,1 43,0 91,-11 123,-36 15,-12 27,-28 31,-48z"/>
   <path class="fil4" d="M4896 764c-5,-25 -21,-46 7,-68 3,-2 8,-15 11,-25 2,-1 4,-1 5,-2 15,-6 28,-12 37,-1 14,15 -10,70 -47,94 0,0 1,0 1,1 -4,0 -9,1 -14,1z"/>
   <path class="fil13" d="M4915 762c-19,4 -59,0 -78,-4l-1 0"/>
   <path class="fil14" d="M4918 774c6,-2 10,-8 9,-15 -2,-6 -8,-11 -15,-9 -7,2 -18,2 -30,1 -16,0 -32,-3 -43,-5 0,0 -1,0 -1,0l-1 0c-7,-1 -13,4 -13,11l0 0 0 2c0,6 5,11 11,11l0 0c12,3 29,5 46,5 14,1 27,1 37,-1z"/>
  </g>
  <path class="fil15" d="M1804 1810l-190 -200 190 -181 290 243c12,10 14,29 4,41l-176 209c-10,12 -29,14 -41,3l-106 -88 29 -27z"/>
  <path class="fil16" d="M1821 1908c12,11 30,12 42,1l198 -187c12,-11 12,-30 1,-42l-279 -295c-11,-11 -30,-12 -41,-1l-198 187c-12,12 -13,30 -1,42l278 295z"/>
  <path class="fil17" d="M1544 1571l99 -94 320 338 -100 94c-12,11 -30,10 -42,-1l-278 -295c-12,-12 -11,-30 1,-42z"/>
  <polygon class="fil18" points="1624,1647 1811,1469 1783,1440 1596,1617 "/>
  <polygon class="fil18" points="1681,1707 1868,1530 1840,1500 1653,1677 "/>
  <polygon class="fil18" points="1737,1765 1924,1588 1895,1558 1708,1736 "/>
  <polygon class="fil18" points="1794,1826 1981,1649 1953,1619 1765,1796 "/>
  <path class="fil18" d="M1720 1427c4,4 10,4 14,0l0 0c4,-3 4,-9 1,-13l-22 -23c-4,-4 -10,-4 -14,-1l0 0c-4,4 -4,10 0,14l21 23z"/>
  <path class="fil18" d="M1690 1455c4,4 10,4 14,0l0 0c4,-3 4,-10 0,-13l-21 -23c-4,-4 -10,-4 -14,-1l0 0c-4,4 -4,10 -1,14l22 23z"/>
  <path class="fil18" d="M1661 1483c4,4 10,4 14,1l0 0c4,-4 4,-10 0,-14l-21 -23c-4,-4 -10,-4 -14,0l0 0c-4,3 -4,10 -1,14l22 22z"/>
  <path class="fil18" d="M1630 1513c4,4 10,4 14,0l0 0c4,-4 4,-10 0,-14l-21 -23c-4,-4 -10,-4 -14,0l0 0c-4,4 -4,10 -1,14l22 23z"/>
  <path class="fil18" d="M1600 1541c4,4 10,4 14,0l0 0c4,-4 4,-10 1,-14l-22 -23c-4,-4 -10,-4 -14,0l0 0c-4,4 -4,10 0,14l21 23z"/>
  <path class="fil18" d="M1571 1569c3,4 10,4 13,0l0 0c4,-3 5,-10 1,-14l-22 -22c-3,-4 -10,-4 -14,-1l0 0c-4,4 -4,10 0,14l22 23z"/>
  <polygon class="fil19" points="1690,1527 1719,1557 1624,1647 1596,1617 "/>
  <polygon class="fil19" points="1748,1588 1776,1617 1681,1707 1653,1677 "/>
  <polygon class="fil19" points="1803,1646 1831,1676 1737,1765 1708,1736 "/>
  <polygon class="fil19" points="1860,1706 1888,1736 1794,1826 1765,1796 "/>
  <path class="fil1" d="M1881 1672c-75,-53 -34,-152 13,-208 6,-15 12,-30 17,-45 7,-24 12,-47 16,-68l-1 -7 241 0c5,30 14,61 26,95l0 286c-15,7 -32,11 -48,11 -29,0 -56,-10 -78,-29 -10,-9 -20,-20 -27,-33 -4,-9 -8,-17 -13,-26 -19,29 -51,46 -83,46 -17,0 -33,-4 -48,-12 -6,-3 -11,-7 -15,-10z"/>
  <path class="fil20" d="M4952 1154c-65,1 -141,-1 -192,-40 5,-5 6,-7 12,-14 19,6 41,9 67,10 20,1 41,1 65,-1 25,-1 46,-5 64,-11 0,13 -3,26 -8,40 -3,8 -2,7 -8,16z"/>
  <path class="fil21" d="M1863 1909l18 -17 82 -77 100 -96 -180 208 -21 -17c0,-1 1,-1 1,-1z"/>
  <path class="fil22" d="M2529 900l1 0c1,0 2,0 4,0l0 0c13,0 26,2 38,4l0 0c77,16 144,69 174,145 12,31 18,65 16,99 0,10 -1,19 -3,29l0 0c-8,44 -28,85 -57,117 -3,-6 -11,-16 -19,-25 -5,0 -10,1 -14,2 -5,1 -9,3 -14,5 2,-9 7,-19 13,-26 -2,-2 -4,-4 -6,-6l0 0c-11,1 -18,3 -27,8 1,-10 7,-19 13,-26 -5,-7 -11,-14 -18,-19 -6,-4 -13,-7 -20,-8 -11,-3 -22,0 -33,5 -3,2 -6,3 -8,5l0 0c1,12 3,18 7,28 -10,-2 -19,-7 -26,-14l-2 1c-2,2 -4,3 -5,5 0,11 2,18 6,27 -10,-2 -19,-7 -26,-14 -8,4 -16,6 -25,4 -6,-2 -10,-4 -14,-7 -12,0 -20,1 -29,5 2,-9 7,-18 15,-24 0,-1 0,-1 0,-2 -2,-6 -2,-12 0,-18 1,-5 3,-11 7,-16 9,-9 23,-16 45,-16 5,0 10,0 14,0l-1 0c5,-9 6,-16 8,-26 7,7 12,16 15,25 -2,0 -3,0 -4,0 2,0 5,0 8,0 8,-1 16,-2 24,-5l0 0 0 0c-4,2 -9,3 -14,4 1,-2 1,-4 1,-5 2,-8 2,-14 1,-22 8,4 14,11 18,18 1,1 1,2 2,3 28,-12 46,-40 48,-69 -10,-4 -17,-6 -26,-7 6,-7 15,-12 24,-15 -1,-4 -2,-7 -3,-11 -10,1 -16,1 -26,3 3,-9 8,-16 15,-23 -2,-3 -5,-5 -7,-8 -11,5 -16,7 -24,14 -1,-10 1,-18 4,-27 -4,-1 -8,-3 -12,-4 -29,-8 -48,-2 -65,10 1,11 3,18 7,27 -9,-2 -19,-7 -27,-13l-3 3 -4 2c2,11 4,18 8,27 -10,-2 -19,-7 -26,-14 -7,4 -14,3 -20,-6l-8 -9c-6,-8 0,-7 4,-11 5,-6 2,-14 -4,-17l-35 -17c-2,-1 -5,-3 -7,-4 -4,-1 -8,0 -12,3 0,0 -1,1 -2,1l-6 -8 0 0 -2 -2 4 -15c0,-2 -1,-5 -3,-5 -2,-1 -5,1 -5,3l-4 13 -14 1c-3,0 -4,2 -4,4 0,3 2,4 4,4l15 0 9 11c-1,0 -2,1 -3,2 -6,5 -3,12 -1,19l9 38c3,7 10,9 16,4 2,-2 5,-4 7,-3 1,1 14,18 16,21 23,24 53,20 78,0 7,-5 13,-10 18,-14 15,-12 26,-24 46,-19 11,3 19,9 24,18 5,9 7,19 4,30 -2,6 -5,12 -10,17 -4,5 -10,8 -16,10 -46,13 -86,-10 -128,34 -8,11 -14,22 -17,34 -2,12 -2,24 1,36 7,26 26,48 57,56 37,10 61,-9 85,-29 5,-4 10,-8 15,-11 11,-8 21,-4 28,6l46 57c7,7 6,18 -2,25 -3,2 -6,3 -8,5 -3,1 -5,3 -7,4 -35,20 -75,32 -118,32 -2,0 -3,0 -5,0l0 0c-2,0 -3,0 -4,0l0 0c-14,0 -27,-2 -39,-4l0 -1c-77,-15 -143,-68 -173,-144 -13,-30 -19,-64 -17,-99 1,-10 2,-20 3,-29l0 0c20,-111 116,-196 233,-196 1,0 3,0 4,0zm18 268c1,0 3,0 4,0 -1,0 -3,0 -4,0zm-65 -116l0 1c-1,0 -2,0 -2,1 0,-1 1,-1 2,-1l0 -1zm-2 2c0,0 -1,0 -1,0 0,0 1,0 1,0zm-1 0c-1,1 -1,1 -2,1 1,0 1,0 2,-1zm43 114c-8,0 -16,1 -22,3 1,-2 1,-3 2,-4 3,-8 4,-15 4,-23 7,5 11,11 14,18 1,2 2,4 3,6 0,0 -1,0 -1,0zm-105 -146c4,0 6,-3 7,-6 0,-3 -3,-6 -6,-6 -4,0 -7,2 -7,6 0,3 3,6 6,6z"/>
  <path class="fil23" d="M1358 2528c-154,4 -371,19 -551,-4 -88,-11 -206,-20 -267,20 -54,37 -70,149 89,149 106,0 115,-65 286,-65 19,0 147,9 202,74 47,56 166,-107 167,-124 3,-35 81,-50 74,-50z"/>
 </g>
</svg>
