<?xml version="1.0" encoding="UTF-8"?>
<!DOCTYPE svg PUBLIC "-//W3C//DTD SVG 1.1//EN" "http://www.w3.org/Graphics/SVG/1.1/DTD/svg11.dtd">
<!-- Creator: CorelDRAW X7 -->
<svg xmlns="http://www.w3.org/2000/svg" xml:space="preserve" width="9.647mm" height="10.1968mm" version="1.1" style="shape-rendering:geometricPrecision; text-rendering:geometricPrecision; image-rendering:optimizeQuality; fill-rule:evenodd; clip-rule:evenodd"
viewBox="0 0 965 1020"
 xmlns:xlink="http://www.w3.org/1999/xlink">
 <defs>
  <style type="text/css">
   <![CDATA[
    .fil2 {fill:#E9E4CF}
    .fil1 {fill:#ACA8AA}
    .fil0 {fill:#14365B}
    .fil3 {fill:#E9474F}
    .fil5 {fill:black;fill-opacity:0.211765}
    .fil4 {fill:white;fill-opacity:0.231373}
   ]]>
  </style>
 </defs>
 <g id="Capa_x0020_1">
  <metadata id="CorelCorpID_0Corel-Layer"/>
  <g id="_494843973936">
   <path class="fil0" d="M896 992c111,-28 78,-173 -31,-194 -19,-3 -28,-1 -47,-8 -30,-10 -51,-21 -91,-49 -84,-63 -132,-94 -187,-68 -9,5 -18,12 -25,21 -12,13 -19,28 -23,44 -8,34 14,82 42,107 96,84 184,125 303,147 21,4 40,4 58,0 0,0 1,0 1,0z"/>
   <g>
    <path class="fil1" d="M486 478l0 0c7,-7 20,0 24,9l221 509c4,9 1,24 -9,24l0 0c-10,0 -20,0 -24,-10l-222 -508c-4,-9 3,-17 10,-24z"/>
    <g>
     <rect class="fil2" transform="matrix(0.92032 -0.409653 0.358869 0.80623 -6.43007 301.132)" width="751" height="499" rx="23" ry="23"/>
     <path class="fil3" d="M416 455c13,-7 26,-39 31,-56 11,-38 14,-111 -42,-111 -34,3 -46,34 -43,48 -7,-12 -38,-24 -63,-1 -38,42 18,89 54,106 15,8 49,19 63,14z"/>
     <path class="fil0" d="M154 385l-3 -5c-1,-3 0,-4 3,-6l60 -26c3,-1 4,-2 5,-2 1,1 2,2 3,4 2,4 3,7 3,8 0,1 -1,2 -3,3 -4,3 -6,7 -4,12l59 131c1,3 4,4 8,4 3,0 5,0 6,1 1,0 2,2 2,4l2 4c1,2 2,3 1,4 0,0 -1,1 -3,2l-62 28c-3,1 -4,0 -5,-1 -2,-5 -3,-9 -3,-10 -1,-1 1,-3 3,-5 4,-3 5,-6 4,-9l-58 -129c-1,-3 -2,-5 -4,-7 -1,-1 -4,-1 -7,-1 -3,0 -4,0 -5,0 -1,-1 -2,-2 -2,-4z"/>
     <path class="fil4" d="M391 607l0 -483 -379 169c-10,4 -15,16 -10,26l163 366c4,11 16,15 26,11l200 -89z"/>
     <path class="fil0" d="M690 291l0 0zm-76 -22l0 0zm17 -24l0 0zm-22 -54l0 0zm-9 -7l0 0zm-55 12l0 0zm-21 16l0 0zm-1 2l0 0zm-1 1l0 0zm-2 7l0 0zm1 6l0 0zm-14 44l0 0zm-5 6l0 0zm-5 18l0 0zm17 45l0 0zm21 17l0 0zm3 0l0 0zm13 -47l0 0zm14 -20c4,-2 34,-15 45,-20l4 -2c4,-2 8,-4 11,-8 3,-2 5,-6 6,-10 0,-2 0,-4 0,-6 0,-2 0,-4 -1,-7 0,0 -5,-12 -10,-23 -5,-12 -11,-23 -11,-24 -1,-2 -3,-3 -4,-4 -2,-2 -4,-3 -5,-3 -1,-1 -3,-1 -4,-1 -2,-1 -4,-1 -5,-1 -4,0 -9,0 -15,1 -6,2 -12,4 -17,6 -5,2 -9,4 -14,7 -4,2 -8,4 -12,8 -2,1 -4,2 -5,4 -2,1 -3,3 -4,4l-1 2 -1 1c-1,2 -2,4 -2,7 -1,2 0,4 1,6l9 20 44 -19 2 -1 0 2 3 6 1 2 -2 1 -66 29c-2,1 -4,3 -5,4 -2,2 -4,4 -5,6 -4,5 -5,12 -5,18 1,9 3,17 6,25l1 1c2,4 3,7 5,10 1,3 3,6 5,9 1,2 2,3 4,4 1,2 2,3 4,5l2 2c4,3 9,5 11,6 1,0 2,0 3,0 1,1 2,1 3,1 2,0 3,0 4,-1 1,0 2,0 4,-1l14 -6 -9 -21c-1,-3 -2,-6 -3,-9 0,-4 0,-7 0,-10 1,-5 3,-8 5,-12 2,-3 6,-5 9,-8zm-20 -76c5,4 5,13 -2,16 -7,3 -15,-4 -12,-11 1,-2 2,-5 5,-6 3,-1 6,0 9,1zm149 38l0 0zm-26 -42l0 0zm-25 35l0 0zm-31 35l0 0zm-47 28l0 0zm-2 6l0 0zm0 6l0 0zm2 6l0 0zm12 27l0 0zm6 14l0 0zm1 2l0 0zm87 -18l0 0zm1 -20l0 0zm-58 -5l2 -1 64 -29c1,0 1,0 1,0l1 0 0 0c1,-1 2,-2 4,-3 1,0 2,-1 3,-2l1 -1c8,-9 8,-24 4,-38 -4,-14 -12,-29 -21,-37l-1 -2c-1,-1 -2,-2 -4,-3 -1,0 -2,-1 -3,-2 -4,-2 -7,-3 -11,-3 -3,0 -6,0 -9,2l-14 6 9 20c2,4 3,8 3,12 1,4 0,8 -1,11 0,1 0,2 -1,3 0,1 -1,2 -1,3 -1,1 -1,2 -2,3 -1,1 -2,2 -3,3 -5,5 -11,7 -17,10l-6 2 -10 5c-8,3 -15,7 -22,10 -3,1 -6,3 -9,6 -2,2 -4,4 -6,7 -1,2 -1,4 -2,6 0,1 0,3 0,6 0,1 1,2 1,3 0,1 1,2 1,3 4,9 8,18 12,27l6 14 1 2c2,4 3,6 7,9 4,2 7,3 12,4 4,0 8,0 12,-1 10,-2 23,-6 34,-12 9,-6 18,-12 22,-18 2,-2 3,-5 4,-8 0,-2 0,-4 -1,-7 0,-1 -1,-3 -2,-5 -1,-2 -2,-4 -2,-5 -2,-2 -3,-6 -5,-9l0 -1 -44 19 -2 1 -1 -2 -3 -6 -1 -2zm33 20c-1,-3 -2,-6 0,-9 0,-1 1,-1 2,-2 3,-4 8,-3 12,-1 5,4 3,13 -2,15l-1 1c-4,1 -9,-1 -11,-4z"/>
    </g>
    <polygon class="fil5" points="501,558 534,543 547,572 514,587 "/>
   </g>
  </g>
 </g>
</svg>
