<?xml version="1.0" encoding="UTF-8"?>
<!DOCTYPE svg PUBLIC "-//W3C//DTD SVG 1.1//EN" "http://www.w3.org/Graphics/SVG/1.1/DTD/svg11.dtd">
<!-- Creator: CorelDRAW X7 -->
<svg xmlns="http://www.w3.org/2000/svg" xml:space="preserve" width="46.119mm" height="26.111mm" version="1.1" style="shape-rendering:geometricPrecision; text-rendering:geometricPrecision; image-rendering:optimizeQuality; fill-rule:evenodd; clip-rule:evenodd"
viewBox="0 0 4612 2611"
 xmlns:xlink="http://www.w3.org/1999/xlink">
 <defs>
  <style type="text/css">
   <![CDATA[
    .fil1 {fill:#14365B;fill-rule:nonzero}
    .fil8 {fill:#1DC5DF;fill-rule:nonzero}
    .fil3 {fill:#1E7397;fill-rule:nonzero}
    .fil9 {fill:#719C74;fill-rule:nonzero}
    .fil2 {fill:#7DAD81;fill-rule:nonzero}
    .fil11 {fill:olive;fill-rule:nonzero}
    .fil0 {fill:#94989D;fill-rule:nonzero}
    .fil6 {fill:#A3990D;fill-rule:nonzero}
    .fil7 {fill:#ABA111;fill-rule:nonzero}
    .fil5 {fill:#B5AA17;fill-rule:nonzero}
    .fil4 {fill:#BDB32A;fill-rule:nonzero}
    .fil10 {fill:#BFB52E;fill-rule:nonzero}
   ]]>
  </style>
    <mask id="id0">
  <linearGradient id="id1" gradientUnits="userSpaceOnUse" x1="3456.75" y1="585.83" x2="3509.87" y2="698.45">
   <stop offset="0" style="stop-opacity:1; stop-color:white"/>
   <stop offset="0.388235" style="stop-opacity:0.501961; stop-color:white"/>
   <stop offset="1" style="stop-opacity:0; stop-color:white"/>
  </linearGradient>
     <rect style="fill:url(#id1)" x="2345" y="17" width="2277" height="1250"/>
    </mask>
    <mask id="id2">
  <linearGradient id="id3" gradientUnits="userSpaceOnUse" x1="2310.13" y1="635.12" x2="2145.15" y2="607.9">
   <stop offset="0" style="stop-opacity:1; stop-color:white"/>
   <stop offset="0.211765" style="stop-opacity:0.501961; stop-color:white"/>
   <stop offset="1" style="stop-opacity:0; stop-color:white"/>
  </linearGradient>
     <rect style="fill:url(#id3)" x="1826" y="130" width="803" height="983"/>
    </mask>
 </defs>
 <g id="Capa_x0020_1">
  <metadata id="CorelCorpID_0Corel-Layer"/>
  <g id="_495115930464">
   <path class="fil0" d="M1349 1686l0 -3 -4 0c-2,0 -5,5 -5,9 0,1 3,0 4,0 3,0 5,-4 5,-6z"/>
   <path class="fil1" d="M1236 1541l0 3c0,0 1,0 2,0 2,0 5,-1 7,-3l0 -4c-2,2 -6,5 -9,4zm-44 -68c-1,0 -2,-2 -2,-4l2 4zm-22 -6c1,-1 4,-3 6,-3 3,0 5,2 5,3 -4,1 -9,0 -11,0zm8 22c4,1 5,4 5,7 0,1 -1,2 -2,2 -4,0 -4,-5 -4,-9 0,0 1,0 1,0zm117 79c4,4 9,6 12,10l-17 0c-3,2 -5,4 -8,4 -3,0 -2,-2 -5,-2 -6,0 -5,8 -10,8 -4,0 -3,-5 -5,-6 -5,-3 -15,-2 -21,-2 -3,0 -3,2 -5,0 0,2 -1,3 -1,4 -2,0 -5,-4 -5,-7 1,0 2,-1 2,-2 11,0 15,2 20,0 -2,-3 -3,-6 -3,-10 -2,0 -6,-2 -6,-5 0,-1 3,-3 4,-3 4,0 7,3 11,3 6,0 9,-2 13,-2 15,0 18,8 26,12l-2 -2zm47 13c-2,3 -5,3 -8,3 -5,0 -11,-1 -11,-5 0,-3 4,-3 5,-3 1,0 12,2 14,5zm-143 -1c2,0 3,2 4,4 -6,1 -10,2 -15,2 -4,0 -7,-3 -7,-6 0,-2 2,-3 4,-3 6,0 12,3 15,3l-1 0zm-79 -48c0,2 0,4 0,7 -1,0 -7,0 -7,0 0,-4 3,-4 4,-4l0 -4 1 0 2 1zm109 23c-3,5 -12,5 -17,5 -11,0 -18,-3 -26,-3l0 -3c2,0 4,-1 4,-4 -7,-3 -14,-2 -15,-9 -4,0 -3,-3 -5,-4 -4,-2 -6,-1 -10,-1 -6,0 -9,-6 -16,-6l-13 0c-2,-2 -2,-4 -1,-5 -1,-2 -4,-2 -6,-2 -9,0 -21,7 -25,11l-4 0c7,-12 16,-20 37,-20 20,0 29,12 44,12 3,0 7,4 8,5 6,6 17,11 28,11 0,1 -1,2 0,3l7 1c5,1 7,7 10,9z"/>
   <path class="fil2" d="M1166 1699c-5,5 7,22 11,22 5,0 2,-18 -8,-31 -21,-25 -64,35 -70,-45 -1,-19 2,-25 -20,-23 1,-7 35,-6 5,-16 -19,-7 -34,3 -48,-1 -15,-3 7,4 4,-34 -1,-6 8,7 13,-19 2,-13 4,-14 -16,-14 -33,0 -11,28 -64,36 -39,5 -57,-78 -42,-100 7,-10 -15,3 -29,-17 -27,-41 -12,-46 -47,-36 -45,-42 -22,-32 -80,-27 -29,3 -43,-19 -73,-17 -23,2 -19,-1 -1,37 11,23 23,11 25,36 -31,-2 5,0 12,15 14,31 12,26 37,48 12,-10 -3,-20 -14,-36 -17,-23 -40,-48 -45,-76 -3,-14 -5,-12 16,-2 12,6 7,24 23,40 9,8 26,19 28,31 2,24 37,32 44,55 12,46 -2,29 52,55 43,21 32,19 76,21 15,1 31,17 52,25 7,3 43,10 44,11 10,30 44,24 22,31 -3,13 3,4 16,14 43,35 -10,3 45,25 11,-24 32,-13 32,-8zm-128 -71c-12,-7 -14,-17 0,0z"/>
   <path class="fil1" d="M1132 1060c4,1 7,3 7,7 0,0 -1,0 -2,0 20,23 10,-14 23,8 6,-22 7,-18 -1,-41 -10,-29 -15,-25 5,-35 12,-7 26,-23 23,-38l-1 -9c-6,-43 -30,-20 -16,-45 4,-7 17,-42 4,-41 -17,1 9,-6 0,-28 -14,-33 28,-3 41,-7 25,-10 4,8 34,16 3,15 11,21 25,16 0,5 2,19 -5,21 -24,5 -2,-11 8,18 4,13 -19,18 -8,14 9,-3 23,-2 18,7 -17,34 -4,-12 10,9 10,-8 10,-15 20,-11 8,-13 19,-60 29,-24 1,4 10,28 10,29 1,5 14,17 13,33 -1,13 16,32 28,37 33,17 -13,22 20,29 23,5 33,29 12,42 -46,30 -52,24 -105,26 -16,0 -41,35 -15,26 19,-6 37,4 20,11 -40,14 5,-1 0,16 -10,32 72,25 26,45 -12,5 -30,21 -33,17 -6,-10 -2,-11 7,-16 6,-4 19,-9 12,-10 -22,-4 9,-17 -25,-1 -13,7 -14,-2 -13,3 3,14 -18,11 -33,26 -34,33 24,24 -29,39 -24,6 -21,4 -7,6 -7,5 -28,23 -30,31 -13,49 -7,-19 -13,0 -11,27 -2,4 -3,17 -1,13 14,27 12,26 -11,-5 -8,7 -9,7 -11,13 1,11 -23,26 -68,43 -15,56 -28,119 -25,-4 -24,-44 -32,-54 -9,-9 -55,-14 -58,-16 -3,-3 -24,4 -24,5 13,29 -38,-14 -71,14 -31,24 -15,19 -23,42 -13,-3 -23,-1 -30,-12 -22,-30 -9,-38 -37,-33 -15,3 -30,-28 -43,-32 -12,-5 -45,8 -65,0 -40,-17 -25,-17 -66,-13 -19,-24 -9,-20 -37,-28 -12,-3 -19,-26 -25,-36 -9,-17 11,-19 -10,-17 -4,-9 -8,-17 -12,-25 -9,-27 -7,-52 -4,-79 7,-51 11,-9 2,-57 -2,-15 13,-9 17,7 6,-7 7,-11 4,-19 -9,-24 15,-11 7,-18 -11,-10 9,3 -9,-1 -15,-3 -6,-8 -11,-7 -8,2 -1,-3 -6,-3 -8,0 -10,-8 -9,-13 4,-21 -15,13 -14,-1 0,-12 -23,1 -16,-14 4,-9 -16,-6 -2,-13 21,-10 -6,-5 -11,-13 -1,-2 0,-29 -8,-22 -13,12 -8,-6 -11,-10 -6,-9 5,-24 -5,-23 -11,1 -9,-10 -12,-2 -1,5 -13,-21 -2,-19 25,5 -23,-7 -24,-23 0,-23 -9,-24 -18,-43 9,15 7,26 0,14 -12,-20 0,2 -9,5 0,0 -18,-17 -14,-9 16,25 -34,-5 -36,-20 0,-1 16,-4 2,-5 -21,-1 -46,-2 -66,-9 -28,-8 -15,-4 -14,-4 -18,-19 14,-16 -24,-11 -1,-4 5,-11 0,-6 -19,17 1,8 -1,19 -5,23 -16,-7 -19,16 -7,-16 -23,19 -26,13 22,-37 -5,4 0,-23 8,-48 51,2 21,-25 2,-7 15,-11 -2,-5 -17,6 -37,31 -47,46 -3,6 -5,7 -1,9 2,1 4,2 6,3 13,7 -53,59 -61,64 -13,12 -10,14 -16,6 -6,3 -11,7 -16,10 -8,-6 -5,-5 -14,2 -7,5 -16,14 -6,1 5,-6 7,-11 13,-11 20,-1 17,3 18,-12 2,-1 19,-11 19,-11 2,-2 19,-43 22,-49 -18,9 -14,12 -19,-3 -7,21 -3,19 -22,0 -20,14 -18,17 -20,0 -2,-10 0,-24 -9,-22 -13,3 -14,8 -20,1 -15,-15 -14,-8 -11,-23 2,-7 -9,-16 -9,-24 0,-4 12,-24 15,-28 7,-11 13,-1 20,-7 12,-10 6,-9 23,-9 3,-5 5,-7 3,-12 -7,-13 -8,-11 1,-21 -8,-12 -17,11 -23,7 -11,-7 1,2 -14,0 -14,-1 -33,-4 -37,-20 -1,-8 -4,-6 -7,-15 7,-8 32,-29 43,-24 8,3 -1,11 19,11 1,0 9,0 11,-1 3,-1 -23,-22 -2,-13 1,-17 -12,-8 -29,-25 -6,-7 -32,-26 -31,-33 0,-12 11,-16 20,-19 22,-6 22,-23 34,-42 3,-4 30,-22 35,-23 12,-4 11,7 23,-7 12,-14 10,-16 22,-3 -5,17 -6,13 6,1 15,14 11,9 32,11 1,8 -2,12 14,12 29,0 29,1 56,10 24,7 18,4 40,5 10,0 56,27 69,33 39,19 24,7 28,-1 1,0 12,-11 15,-17 7,3 5,5 8,7 4,1 29,-16 34,-18 22,-13 23,-6 6,7 0,0 -26,17 -15,14 9,-2 4,2 9,3 2,1 12,-28 24,-21 6,3 14,-11 15,-12 5,-17 8,23 34,13 15,-6 3,18 20,9 21,-12 34,1 54,9 15,7 67,16 52,34 -31,36 50,2 74,22 26,22 -10,9 16,36 -8,-18 -8,-17 3,-15 -3,-24 -18,-23 9,-47 16,-15 -11,14 -23,3 33,-42 40,16 54,10 15,-7 6,5 27,9 24,4 39,5 38,-19 7,-2 11,-1 10,-7 23,7 12,9 15,13 19,-12 -4,7 5,26 11,-4 3,2 6,3 13,2 -8,-20 13,-35 22,-15 10,-26 6,-22 -11,10 -7,0 -4,-8 8,-16 8,0 9,0 9,-17 -51,-9 -28,-52 -8,-9 -13,-14 0,-25 12,-11 -3,-15 15,-20 10,-3 30,44 35,53 10,18 -15,4 -7,15 5,6 -13,10 1,14 41,11 9,-3 16,24 14,42 11,-2 23,-5 21,-3 11,41 15,50 13,36 23,-23 33,-38 10,-17 -11,-34 8,-36 27,-3 17,6 29,17 9,8 10,16 4,27 -12,22 20,28 0,52 -21,25 -17,6 -25,-1 -4,5 1,4 -4,0 -21,-14 4,8 5,17 1,21 -42,-32 -28,6 -5,6 -10,15 -18,16 0,0 -75,-24 -14,5 21,10 20,26 2,36 -40,24 -72,-1 -47,12 35,19 -13,34 -20,61 -7,28 -18,40 1,63 26,32 -2,31 36,40 39,10 49,30 104,42 2,11 1,41 5,47 5,7 9,12 12,16zm351 -352c32,59 49,17 59,44 2,6 -5,3 14,3 7,0 -6,-1 5,-7 3,-2 -4,0 2,-6 4,-4 -3,0 1,-3 0,0 3,-7 3,-8 -3,-2 3,0 3,-4 -1,-5 3,-4 -1,-11 -2,-2 -1,-7 1,-8 3,-2 12,-10 10,-12 -3,-4 3,-1 5,-6 3,-6 7,0 2,-10 -1,-4 3,-18 4,-21 8,-11 21,-8 31,-21 11,-15 -2,16 5,7 6,-7 7,1 19,-8 24,-17 12,-9 29,-30 10,-12 13,-7 10,-23 22,17 21,3 33,4 17,1 60,-19 61,-30 0,-3 1,1 4,-4 5,-7 33,-9 3,-13 -35,-5 -12,-5 -42,3 -5,2 -14,2 -5,-3 21,-10 -19,1 -11,-12 12,-19 21,-8 29,-15 9,-8 -17,-7 -22,-15 -6,-12 -3,-6 9,0 26,13 22,5 40,27 15,19 12,-6 14,2 4,9 16,1 9,-10 -3,-3 -6,2 -3,-8 2,-6 -9,5 -4,-6 2,-5 5,-3 -3,-4 -6,0 4,-6 -15,-15 -8,-4 -21,2 -20,-6 0,-1 19,-9 -4,-9 -4,0 -15,-2 -4,-5 13,-3 10,-8 -6,-6 -17,2 2,-4 -1,-10 -1,-2 18,6 21,-4 2,-6 -9,-14 -2,-8 11,8 11,-3 26,3 -19,6 15,16 25,6 7,-7 4,-17 -10,-12 -8,2 -9,-8 0,-10 20,-5 5,-4 -1,-10 5,1 29,9 28,0 -1,-3 -13,-9 -19,-14 -4,-5 -5,-3 -11,-6 18,3 -2,-14 0,-15 8,-3 32,16 26,-7 -5,-17 -34,-2 -6,-14 10,-5 -3,-2 -19,-12 -18,-11 12,6 -6,-8 -11,-11 7,3 11,-8 12,-10 26,9 37,-17 4,-17 2,-13 -6,-23 9,-10 59,-16 34,-40 -6,-6 -8,-7 5,-9 18,-2 20,3 4,-16 4,-11 -5,-2 -18,-11 -14,-9 5,-18 2,-27l-3 -4c0,-2 11,-3 13,-6 -5,-8 19,-12 1,-17 46,-7 15,-17 -9,-33 -29,-18 -28,-39 -54,-15 -14,13 -23,21 -43,21 -14,0 -6,-9 -2,-15 19,-39 -49,-12 -64,-10l-3 1c-8,0 6,-4 0,-14 -6,-10 -9,-12 -14,-23 -10,-23 -3,-19 18,-19 11,0 51,-4 46,-22 -3,-14 -33,-15 -45,-18 -32,-7 -56,-16 -90,-12 -28,5 -42,22 -71,24 -5,1 -29,4 -31,8 -1,5 13,7 1,9 -8,1 -14,-3 2,3 4,1 37,11 12,6 -10,-2 -44,-15 -51,-6 -7,9 8,17 -23,14 -17,-2 1,10 -8,10 -6,0 -6,-5 -26,-1 -18,4 -33,12 -50,18 -39,13 -14,28 -37,26 -9,-1 2,-8 -18,8 -10,9 -47,20 -18,25 -3,25 -21,4 -19,39 0,10 0,14 -11,17 2,0 3,-2 4,-4 8,0 30,-2 13,9l-27 0c-2,2 -3,3 -8,3 -8,3 -5,6 -5,7 -1,2 0,2 14,6 -2,3 -5,4 -9,6 4,4 11,6 19,8 -6,6 3,4 -17,12 -6,2 -29,9 -31,14 -3,42 40,20 27,29 -15,10 24,-6 4,6 -14,9 45,-5 45,6 -1,18 -9,0 -33,8 5,4 7,5 7,5l0 0c-4,0 -25,-8 -32,4 -3,5 7,15 14,4 5,23 35,-3 12,18 -15,13 12,19 24,20 -4,-11 -5,-6 10,-10 8,-1 -1,8 13,-1 6,-3 5,1 14,-1 19,-5 53,19 60,31 5,8 13,30 19,35 5,3 -5,0 4,10 3,3 -2,5 5,15 19,28 -2,57 10,62 5,2 33,-17 31,2 -1,3 2,-3 3,6 1,7 27,19 -4,19 -47,-1 43,11 15,43 -17,20 6,17 -13,23 -7,2 -4,2 1,2 -3,4 0,9 3,12 0,1 -2,2 -3,2 -26,19 4,14 4,14 0,0 -15,43 14,40 9,-1 -8,12 -3,26l8 16zm-209 -392c0,0 0,0 0,0l0 0zm-19 -245c-2,5 9,10 7,12 47,-28 10,-5 66,-1 25,1 -60,30 -60,31 3,2 33,0 35,0 -13,10 -20,14 -37,19 -6,2 -18,24 -23,27l0 0c-7,8 -14,14 -17,8 -10,-17 0,2 1,10 -11,5 -13,7 -24,1 -1,11 7,5 19,5 5,0 -6,17 -10,18 -18,8 -22,-6 -31,-6 -16,-1 9,4 10,7 4,7 3,10 -7,11 -12,1 -11,5 -19,3 -30,-6 11,6 -13,2 -7,5 -14,2 0,4 5,1 12,2 17,3 10,3 42,13 14,6 -15,-3 -11,-4 -4,1 -1,4 -11,7 -7,6 9,-2 16,-1 23,4 16,11 -6,13 -5,25 -14,7 -3,7 -2,11 -1,3 -1,4 -5,5 -28,4 -11,-1 -21,18 -10,19 -39,-2 -42,11 -1,5 17,-5 28,9 10,11 22,1 12,17 -8,12 -20,19 -34,8 -18,-15 -35,3 -52,1 -7,-1 -21,-2 -27,-4 -10,-6 -3,1 -8,-2 -8,-4 8,-20 11,-23 12,-13 -4,-23 2,-28 12,-11 33,38 53,7 3,-6 10,-14 0,-5 -19,16 -26,-1 -24,-15 2,-13 -1,0 -8,-4 -4,-3 -23,6 -16,-14 7,-18 24,-17 42,-10 11,4 9,3 9,-1 1,-3 18,-12 11,-10 -8,2 -15,2 -21,0 -5,2 -10,2 -13,2 -6,0 -7,-1 -9,-3 -5,2 -5,2 0,0 -1,-1 -2,-2 -7,-2l0 0c-5,4 -13,13 -15,12 -7,-3 -3,-10 -4,3 -1,14 -6,3 -11,15 -10,-6 -9,-6 -9,4 -2,0 -4,0 -6,1 3,8 -3,10 -7,5 0,-1 -1,-1 -1,-2 -2,1 -5,1 -8,-1 -13,-5 -11,-8 -7,-15 -4,-1 -11,-3 -12,-7 -2,-8 -8,-13 -4,-17 -3,0 -6,-1 -9,-2 -2,2 -4,4 -6,4 -3,0 -5,-2 -5,-3 0,-3 1,-6 3,-7 -1,-1 0,-1 0,0 3,-2 6,-3 11,-4 -6,-2 -19,0 -13,-10 7,-11 0,-1 -9,-14 -7,-10 -8,-14 7,-12 7,1 19,-1 8,-4 -5,-1 -6,-3 -7,-3 -7,-1 -14,-5 -9,-7 15,-4 -2,-10 10,-12 21,-2 11,4 10,-9 -4,-2 -9,-4 -10,-8l46 0c0,1 1,1 1,2l0 0c5,0 16,-1 25,1 1,0 1,0 2,0 -1,-1 -2,-2 -3,-3l16 0 0 0 23 0c9,-3 17,-5 23,-10l-7 0c-9,6 -20,8 -35,8 -9,0 -12,-3 -17,-3 -3,0 -5,4 -9,4 -9,0 -22,-2 -19,-7l-6 0c-3,2 -6,3 -10,3 -10,0 -23,-4 -26,-7 3,-2 7,-4 13,-4 -9,0 -19,-1 -22,0 5,-10 16,-9 29,-12 -5,-1 -6,-1 -10,-1 -9,0 -10,7 -19,7 -2,0 -7,-3 -8,-3 5,-4 8,-5 13,-6l-14 0c-3,1 -6,2 -7,2l-10 0c3,-9 33,-13 47,-13l10 0c2,0 4,-2 4,-3 15,0 9,-8 19,-8 8,0 27,7 31,8 4,-9 10,-17 23,-17 8,0 4,3 10,-1 2,-3 6,-4 11,-4l54 0c0,-2 3,-3 5,-3 9,0 11,4 18,4 7,0 8,-6 15,-6 7,0 10,3 14,3l13 0c11,0 37,-10 46,-2zm-206 -9c5,5 10,9 18,8l0 0c-2,-1 -7,-5 -11,-8 -2,1 -4,1 -7,0zm-819 886c6,13 4,12 12,5 -9,20 18,-10 18,-11 0,0 -15,-9 -15,-3 -1,23 -2,-5 -13,7l-2 2zm231 -5c18,0 0,-15 -2,-5 0,1 1,4 2,5zm-385 87c18,-13 5,-1 1,1 -3,1 -4,1 -1,-1zm182 -106c-19,9 9,5 4,3 -2,-1 -3,-2 -4,-3zm238 73c1,3 2,4 0,0zm-404 -106c8,-4 7,-3 -1,-15 -14,5 -15,4 -3,14l2 1 2 0zm-41 -83c8,-10 -23,-16 -25,-14 -9,6 23,15 23,15l2 -1zm62 201c12,-2 20,-2 3,-8 -3,-1 -6,7 -6,8l3 0zm203 -134c-2,5 -2,7 0,0zm188 102c-1,-1 -2,-2 0,0zm-445 62c-2,2 14,-12 4,-2 -1,0 -3,1 -4,2zm257 -149c7,-11 9,-14 0,0zm-152 110c5,-9 3,-6 0,1l0 -1zm-161 58c-5,1 -3,1 0,0zm623 76c-2,-4 -2,-3 0,0zm-295 -255c5,-3 6,-3 0,0zm-318 -2c-10,-6 -6,-4 1,1l-1 -1zm475 51c-6,-3 7,11 2,2l-2 -2zm712 409c-1,5 -1,6 0,0zm-1043 -422c-7,7 -4,4 0,0l0 0zm315 45c-5,-17 4,13 0,0zm21 -3c-11,-9 -1,14 2,5 0,-2 -1,-3 -2,-5zm-9 -18c1,-4 -15,-15 -7,7 4,9 7,-3 7,-7zm1 24c-3,-6 3,20 0,2l0 -2zm22 36c9,5 -23,-39 -13,-15 3,6 7,11 13,15zm964 138c-3,-6 -1,-25 -17,-26 -4,0 -22,-11 -20,-17 2,-10 15,-40 -5,-9 -6,9 -25,38 -24,46 2,18 22,3 44,12 5,2 -9,7 6,3 3,0 28,16 21,-3 -1,-2 -3,-4 -5,-6zm-902 -44c42,53 56,20 13,0 -5,-2 -9,-3 -14,-2l1 2zm448 -751c1,-5 -4,0 4,-7 5,-4 -4,-5 -7,-14 -13,-19 -33,13 -37,-13 -1,-11 -44,-25 -32,6 0,0 19,18 21,18 17,0 26,-1 29,28 0,12 -3,63 21,45 -2,-5 -14,4 10,8 6,0 8,-4 14,-7 37,29 43,-6 77,6 38,14 47,-51 -3,-54 -36,-2 -54,31 -88,-2 -6,-5 -11,-7 -9,-14zm-285 -10c-6,-5 -20,-20 -17,2 0,3 -34,12 -3,18 5,0 -21,2 -19,13 31,5 16,-9 -2,8 -16,15 23,23 29,17 24,-25 2,-7 33,-5 25,2 -46,23 -13,31 23,5 31,-18 60,-19 25,-1 36,-12 33,-39 0,-6 -4,-8 -9,-10 -6,7 -17,13 -20,1 -2,-10 -6,-8 -8,-28 -3,-32 -22,4 -17,11 15,22 -8,11 10,27 10,9 -13,27 -34,-8 -7,-12 -11,-12 -23,-19zm158 127c-11,14 20,14 8,25 -14,12 -58,-17 14,56 12,11 1,-13 18,-8 13,4 23,-28 8,-39 -2,-1 -14,-12 -11,-18 2,-3 10,-23 9,-24 -7,-8 -15,-1 -13,-11 2,-10 -13,7 -15,8 -12,1 -12,-1 -18,11zm193 283c-7,-17 -1,-12 -12,23 -5,21 -16,26 10,35 16,5 20,-28 31,-14 28,33 44,-15 14,-3 -7,3 5,-12 -15,-26 -10,-7 -13,-13 -24,-12 -1,0 -3,-2 -4,-3zm-189 -419c11,13 -2,8 11,14 1,1 -6,11 -9,8 -35,-35 -1,3 -16,9 -3,1 -16,17 9,13 20,-3 3,-5 9,13 3,9 2,21 23,11 10,-5 -1,-7 9,-18 9,-8 2,-72 -16,-54 -6,6 -10,-11 -21,2l1 2zm-306 192c0,23 46,64 65,9 9,-27 83,-62 38,-88 -15,-9 -13,5 -24,-3 -4,-3 -5,3 -24,-13 -8,-7 -39,-2 -40,8 -2,21 10,19 -4,55 -5,12 -8,20 -11,32zm377 -76c-12,11 10,5 -6,17 -7,5 -4,83 15,64 16,-15 -12,-26 11,-28 24,-6 29,-26 34,-47 -21,-12 -31,-16 -54,-6zm-452 604c-8,-10 -4,4 2,5 -1,-2 -1,-3 -2,-5zm841 120c-15,-2 -12,-14 -14,-5 -3,16 42,7 14,5zm-495 -1003c-8,-3 -14,-3 -23,-2 2,51 7,13 19,33 1,2 3,15 -6,16 -12,2 -4,14 2,13 27,-4 8,2 31,6 7,2 17,34 27,18 7,-11 1,-44 -17,-55 -5,-3 -4,-2 -8,-7 -4,-10 -8,-1 -13,0 -4,-6 -5,-19 -12,-22zm-351 865c2,-5 -18,-5 -5,6 3,2 5,-3 5,-6zm651 -55c-8,-14 -12,17 0,0zm-612 68c0,1 1,2 0,0zm375 -842c1,31 12,30 14,36 0,2 -12,6 -1,13 13,9 39,-8 20,-36 -6,-8 -12,-12 -21,-17 -4,-2 -10,-2 -12,4zm421 906c-1,0 -1,0 -1,0 1,1 3,2 5,3 6,4 14,9 19,9 4,0 5,0 6,-3 -9,-5 -17,-13 -31,-10l2 1zm-193 -620c40,27 49,-33 -1,-24 -19,3 -8,16 1,24zm-204 -93c6,22 42,33 34,-3 -5,-22 -28,-30 -34,3zm-412 637c2,2 2,2 0,0zm242 -794c-26,7 -42,5 -36,31 4,18 36,9 37,-4 3,-19 -23,-6 1,-16 8,-4 2,-12 -2,-11zm-1 -37c-8,-5 -25,12 -33,17 -3,2 -8,12 6,10 13,-1 26,-1 38,-2 -2,-7 -4,-21 -11,-25zm488 624c-5,-4 -5,-5 0,0zm-430 -338c18,10 8,-40 -8,-21 -6,7 3,17 8,21zm272 253c-12,-9 -13,-10 0,0zm-132 -465c19,-4 2,-29 -19,-15 -16,11 12,14 19,15zm141 544c-28,3 -4,35 6,4 2,-5 -2,-5 -6,-4zm59 -10c4,-10 -17,-2 -3,2 2,0 2,-1 3,-2zm14 -5c-6,-1 -7,-1 0,0zm-38 -190c-1,-12 -13,7 -3,4 1,-1 2,-3 3,-4zm-618 423c1,2 1,3 0,0zm424 -417c7,4 -7,-8 -4,3 2,-1 -1,-6 4,-3zm381 210c-3,0 -3,0 0,0zm38 138c1,-2 1,-2 0,0zm-176 -303c-16,-9 -23,38 0,21 8,-7 6,-15 0,-21zm-70 378c-15,4 9,9 9,8 -2,-6 -3,-9 -9,-8zm19 -195c4,-4 12,-9 4,-15 -1,-1 -4,14 -4,15zm-463 -493c7,-19 -32,20 -12,19 6,0 10,-14 12,-19zm160 -66c-3,-8 -22,-48 -12,-14 1,4 7,17 12,14zm313 718c-8,2 -9,3 0,0zm184 -200c-2,-2 -2,-2 0,0zm-778 255c-1,2 -2,2 0,0zm596 -427c5,-8 -4,6 0,0zm-74 98c5,9 6,10 0,0zm-236 -400c9,4 19,-8 3,-13 -8,-3 -7,8 -3,13zm37 290c1,-4 1,-6 0,0zm295 3c-1,14 10,-9 0,0zm28 30c-3,-6 -3,-6 0,0zm-265 -284c-10,8 7,11 4,0 -2,-1 -2,-1 -4,0zm-39 -249c17,31 9,-8 7,-11 -4,-7 -17,-5 -7,11zm255 858c1,-6 1,-7 0,0zm-4 -624c3,-8 3,-8 0,0zm-92 314c-3,-13 3,13 0,0zm-203 -324c23,-14 -20,-8 -12,1 3,2 9,0 12,-1zm354 324c-6,-1 9,9 7,3 -1,-2 -5,-3 -7,-3zm-488 -428c-3,-6 -12,2 -8,8 4,5 10,15 15,4 1,-2 -5,-10 -7,-12zm-183 810c1,0 1,2 0,0zm302 -659c8,13 13,-20 1,-9 -2,2 -1,6 -1,9zm33 255c-5,-2 -8,-2 0,0zm283 -30c3,-3 3,-3 0,0zm68 -67c-1,-1 -1,-1 0,0zm-282 66c2,1 -9,-2 -3,0l3 0zm215 33c-3,2 -3,2 0,0zm-441 -342c-4,8 23,1 0,0zm336 290c9,2 9,1 0,0zm-182 -340c23,2 -6,-14 -3,-2 0,1 2,1 3,2zm147 61c7,1 -5,-13 -3,-4 0,2 1,3 3,4zm27 243c19,10 -36,-13 -12,17 19,24 9,-5 36,16 8,6 44,18 42,0 13,7 6,10 31,6 21,-4 -5,-40 28,2 18,23 14,-3 16,35 18,11 51,7 44,54 -2,16 -11,19 -15,43 -5,29 -35,-10 -50,33 -2,12 28,20 28,8 3,-9 18,5 15,-9 11,17 4,-2 25,21 11,13 2,0 10,16 5,9 73,58 56,20 -21,-45 -17,-21 23,-4 6,-6 7,-7 3,-15 18,-29 -57,-55 -29,-85 17,-18 31,26 43,25 13,-1 33,-37 23,-39 -8,-2 -13,3 -19,-7 -14,2 -2,-14 -26,-24 -6,-3 -33,-22 -33,-29 0,-23 -2,-11 6,-20 6,-6 -8,1 -2,-16 5,-15 -15,2 -16,-19 -2,-30 -20,5 -26,-13 -8,-26 1,-20 -26,-25 -14,-3 1,-11 -13,-5 -9,5 5,-9 -8,-21 -5,-4 -14,-36 -31,-24 -16,12 7,31 -13,24 -7,-2 -3,-19 -16,-7 -2,2 -2,0 -4,-1 0,-1 -1,-69 -29,-60 -12,4 -5,12 -16,11 -4,0 2,5 -7,7 -4,0 14,9 -2,4 -8,-2 9,9 -1,9 -19,0 11,46 5,33 -3,-8 -24,-5 -9,11 10,10 17,26 -2,28 -25,3 10,5 0,-19 -24,-59 7,-73 3,-85 -7,-18 -65,16 -58,74 2,20 9,23 26,30zm239 323c1,-8 1,-6 0,0zm-420 -534c10,-7 -24,6 -8,3 2,-1 6,-2 8,-3zm-5 11c12,-3 12,-16 0,0zm43 -47c-5,-1 -4,-1 0,0zm387 299c-1,1 -1,1 0,0zm-403 -241c4,0 4,0 0,0zm1 -57c8,-4 -22,10 -2,1l2 -1zm-46 339c-7,-3 -7,-3 0,0zm87 -238c-5,3 -5,4 0,0zm7 70c1,-3 2,-6 0,0zm-295 -132c-5,8 -5,10 0,0zm324 6c-4,-5 -4,-5 0,0zm-277 132c-8,7 -35,44 -15,48 7,2 1,4 18,7 26,5 -61,20 29,32 79,11 -17,10 -27,25 -7,9 28,28 39,37 36,31 79,-20 87,-17 22,10 18,20 52,10 3,-1 3,-20 -8,-8 -8,8 -11,-14 -4,-13 19,1 1,-14 24,-5 6,3 4,-14 -14,-21 -46,-19 -24,-104 -60,-116 -20,-6 2,49 -6,62 -2,-3 -25,-56 -32,-44 -1,2 8,21 -11,20 -4,-1 -2,-28 -27,-13 -23,14 9,-42 -45,-4zm-47 -145c9,-14 -1,19 13,9 7,-6 -7,-30 9,-13 3,-20 1,-18 14,-33 0,7 -3,23 9,23 2,0 2,-8 9,-14 17,-15 -8,-15 9,-37 5,-6 -6,-18 -10,-10 -13,25 -22,-8 -38,20 -8,13 -15,33 -30,38 -13,4 -6,32 0,23 7,-14 4,9 15,-6zm512 638c2,-5 3,-6 0,0zm-198 -565c-5,-3 -5,-3 0,0zm-10 -352c8,2 18,2 0,0zm11 219c-3,-1 -6,-2 0,0zm53 0c-4,1 -4,1 0,0zm300 374c0,0 -1,0 0,0zm-454 -305c-4,0 -4,0 0,0zm-313 677c0,-1 0,-1 0,0zm475 -412c-1,5 -1,4 0,0zm127 353c10,-9 -9,9 0,0zm184 -123c-6,-8 -6,7 1,4 0,-2 0,-2 -1,-4zm41 295c-5,5 -5,4 0,0zm-159 -324c6,3 6,3 0,0zm110 -51c2,-1 2,-1 0,0zm-428 -189c-3,-6 -3,-7 0,0zm24 37c2,16 -31,7 15,29 13,7 33,-1 15,-20 -41,-44 -12,-5 -28,-11l-2 2zm-22 22c-2,-7 -4,-9 0,0zm486 534c-7,1 3,-23 -5,-6 -7,15 15,9 9,3l-4 3zm212 -286c-5,1 -5,1 0,0zm32 -121c2,3 -1,-5 0,0zm-180 -253c-1,1 0,-1 0,0zm53 261c0,0 0,0 0,0zm-28 -71c1,0 1,0 0,0zm-6 -147c-1,10 1,-10 0,0zm-728 876c-7,-9 -4,-5 0,0z"/>
   <path class="fil3" d="M1320 2590c-27,-21 -20,-11 -34,-40 -1,18 2,80 -2,15 -1,-20 4,-19 -20,-14 -1,15 -2,12 13,14 -11,16 -13,10 4,21 -7,8 -10,1 -23,-7 17,14 9,4 -14,8 20,3 61,12 80,7l-4 -4zm59 -918c2,-10 -17,5 -6,3 2,-1 4,0 6,-3zm245 399l23 -56 4 -61 43 -44 6 -26 -8 -24c-30,-4 -21,-3 -48,-23 -12,-8 -27,-8 -40,-9 -27,-3 -24,27 -27,-7 -1,-10 -30,-22 -44,-9 -18,17 -26,11 -13,7 9,-4 8,-5 8,-15 -45,1 -19,-11 -19,-26 0,0 -9,-37 -21,-23 -17,21 8,-6 -4,-15 -21,-16 -14,-2 -22,-10 -2,-3 -32,-6 -38,3 -16,22 8,-4 -5,-12 -18,-11 -22,-21 -42,-37 -12,-9 -17,-9 -14,-16 -26,5 -58,12 -80,-6 -26,-21 -4,-9 -22,0 -15,7 -11,3 -9,25 -13,-11 -8,-12 0,-33 -8,5 -5,5 1,-6 -55,21 -42,7 -67,54 -10,-13 -6,-14 -12,5 -7,19 18,43 -5,63 -10,8 -13,7 -8,11 -22,10 -15,6 -25,36 -3,11 -3,7 14,11 -7,13 -9,27 -10,12 -12,13 -9,6 -8,26 0,6 33,46 40,58 5,10 10,21 14,31 20,47 79,49 79,71 2,45 2,40 -6,87 -9,55 -7,96 -24,149 -6,17 -15,72 -5,89 10,17 0,25 3,48 2,9 -8,6 -1,16 -14,10 -5,22 -13,10 -6,-8 -14,6 -17,10 14,7 12,2 11,19 9,4 14,1 11,10 -20,-4 -2,-5 -7,14 -4,16 0,-6 6,13 -16,0 6,10 -8,11 -5,0 1,5 4,10 10,-11 12,-6 1,4 -2,1 4,23 6,17 3,-8 10,7 3,-5 20,5 -5,-21 8,4 1,1 4,24 -2,4 -5,13 -11,-6 -12,4 -19,-19 -1,-6 0,6 0,6 1,4 10,0 -9,7 -10,4 -3,11 4,-13 1,-11 16,-10 15,1 5,20 -2,18 -13,-3 3,4 9,8 7,-29 2,-22 35,-29 1,-1 -12,-7 -8,-28 7,-32 55,-49 32,-79 -14,-19 2,-15 13,-43 5,-15 9,-12 10,-25 30,-8 -10,-4 -2,-23 3,-9 21,-5 25,-16 12,-30 5,-15 40,-26 25,-9 39,-17 29,-45 -6,-17 -18,-7 -16,-32 -4,18 49,32 58,9 8,-19 8,-28 5,-7 8,-16 16,-33 24,-50 15,7 6,10 -8,28 3,-4 38,-49 39,-49 0,-2 0,-42 1,-43 0,0 51,-32 52,-32 13,-4 24,7 35,-5 2,-2 5,-5 7,-7zm-483 -220c-1,-7 9,2 18,7 -4,-1 -16,-5 -18,-7zm325 356c6,3 18,18 0,0zm-236 369c11,1 9,3 9,-8 -26,-7 -13,-4 -12,0 1,5 -1,7 3,8zm-4 -16c-31,-20 -5,-2 3,2l-3 -2zm-22 -61c2,7 1,4 0,0zm19 -123c6,-16 -2,-34 -6,-4 -1,5 3,9 6,4zm38 223c0,0 4,-4 4,-4 -1,1 -3,3 -4,4zm-7 -17c-6,-11 -3,-7 1,1l-1 -1zm41 18c0,1 20,0 0,-3 -10,-2 -6,-2 0,3zm-65 -197c3,-6 2,-4 0,0zm41 195c2,1 18,11 23,13 -15,-14 -17,-11 -6,-15 -43,6 11,-5 -17,2zm-8 -19c-4,-12 -3,-7 0,1l0 -1zm-44 -177c-5,0 -3,0 0,0zm-9 114c6,-6 4,-4 0,0zm24 45c-12,-4 -4,10 11,-7 9,-9 1,-4 -12,-1 0,2 2,6 1,8zm-26 -23c0,2 4,-17 0,0zm5 -72c2,8 1,5 0,0zm33 115c-4,-7 -6,-10 0,0zm-37 -57c7,-5 4,-3 0,0zm4 -36c1,20 0,-7 0,-11 -5,8 -1,7 -10,8 8,9 6,1 9,2l1 1zm43 107c-5,0 -8,0 0,0zm-40 -56c7,6 4,4 0,0zm-11 -12c4,-7 2,-4 0,0zm26 -50c9,-19 17,-40 4,-3 -10,28 -12,20 -4,3zm18 -43c-1,7 5,-29 0,0zm-1 -36c-2,-1 8,2 0,0zm-3 -44c1,-8 3,-36 9,-42 -9,33 -8,36 -9,71 -1,-10 -1,-19 0,-29zm-41 115c-2,-6 -3,-9 0,0zm314 -675c-5,5 -4,4 0,0z"/>
   <path class="fil4" d="M4073 2126l4 -12 -4 12 0 0zm261 138l-21 -14 28 39 -4 27 -11 7 18 13c-8,21 -11,17 1,24 2,-3 21,-38 22,-38 0,0 10,-1 11,-2 9,-28 13,-22 -16,-19 -5,-7 -10,-14 -15,-21 2,14 4,12 -7,7l-6 -23 0 0zm-76 187c-4,-7 -2,-6 -7,3 0,0 6,-1 7,-2l0 -1zm-26 70c6,-7 3,-4 -1,0l1 0zm99 -170c-15,6 -11,8 -14,-8 -14,6 -8,2 -18,20 -11,23 -7,17 -28,30 -15,9 -20,21 -30,35 0,0 0,7 0,9 2,0 35,6 35,5 1,0 13,-10 14,-11 1,-2 7,-26 7,-27 0,0 19,-7 21,-8 -7,-15 -6,-8 4,-26 3,-5 8,-13 10,-19l-1 0zm-321 -3c-15,3 -12,1 -10,8 -9,-3 -18,-7 -27,-10 1,5 14,46 16,46 1,1 8,1 9,1 5,-19 2,-12 18,-23 -1,-7 -1,-16 -3,-22l-3 0zm-211 -404c7,9 4,9 12,2 -16,1 -4,0 -13,-3l1 1zm75 30c-3,4 -7,9 3,6 1,-1 -2,-2 -3,-6zm3 297c14,0 19,2 9,-4 -3,1 -10,2 -12,4l3 0zm-84 -321c0,1 16,-2 0,0zm211 435c-3,7 -2,4 0,0l0 0zm7 -53c5,9 3,6 0,-1l0 1zm-101 -324c-7,2 -8,4 0,0zm107 333c-8,-1 -5,-1 0,0l0 0zm-433 -215l4 8 -4 -8 0 0zm379 203c-2,10 -1,6 0,0l0 0zm82 -230l1 -14c-19,2 -12,6 -20,-17 -6,-17 -2,-11 -20,-21 -22,-13 -15,-10 -22,-39 -1,-6 -3,-13 -4,-19 -26,-9 -20,-6 -29,-38 -6,-19 -4,-19 -14,2 -8,18 6,30 -5,47 -21,30 -8,29 -46,6 -11,-6 -22,-13 -32,-19 4,-5 20,-20 20,-25 -2,-25 -1,0 -14,-5 -12,-6 -30,-11 -43,-15 12,16 14,11 -12,15 -9,1 -5,0 -11,10 -10,16 -10,10 -6,25 -17,-7 -11,-8 -21,6 5,-14 6,-10 -4,-20 -3,-3 -11,-2 -16,-2 -5,0 -7,4 -11,8 -4,3 -2,3 2,8 -11,-1 -10,-2 -3,5 -14,-1 -12,-4 -4,10 -22,-3 -17,-8 -17,16 -11,-22 -5,-21 -19,4 -4,7 -7,13 -11,20l-52 13 -30 25 -5 -8 -7 34 10 25 -9 -11 4 15 -8 -6 32 78 -9 35 36 13 23 -17 45 0c3,-3 30,-24 30,-24 1,-1 62,-12 63,-12 1,0 35,14 37,15 0,0 19,31 21,35 8,-12 15,-24 22,-35 4,20 3,15 -8,35 -3,7 -3,5 8,3 7,-24 4,-13 5,7 5,2 11,4 16,5 -14,-11 -5,-2 2,10 14,26 8,20 36,30 15,5 10,6 25,-8 7,-6 3,-3 1,4 13,-2 9,-1 21,12 -4,-10 -2,-7 12,-16 7,-6 22,-7 31,-9 3,-34 0,-23 17,-54l-6 -5 21 -15 6 -20 7 -33 -5 -37 -31 -32 0 0z"/>
   <path class="fil4" d="M4168 1915l8 8 -10 -16 2 8zm-136 -42l-16 2 26 7 20 -10 4 -13 -34 14 0 0zm37 -14l3 6 0 -11 -26 -17 23 22 0 0zm26 19l14 10 -15 -16 1 6 0 0zm-98 -48l7 1 -7 -1 0 0zm45 90l6 3 -6 -3 0 0zm-6 -84l6 2 -6 -2 0 0zm-77 76l-6 -4 6 4 0 0zm0 -7l-2 -10 13 1 20 9 19 24 30 7 8 -6 -45 -33 5 -18 -22 -7 -15 -20 -43 -14 -21 19 21 60 20 2 9 -7 -15 -6 18 -1zm157 -19l13 10 -13 -10 0 0zm39 37l14 3 -15 -3 1 0zm-24 -17l-7 0 7 0zm22 -2l-13 -7 17 13 -4 -6 0 0z"/>
   <g>
    <path class="fil5" d="M3032 1510l14 -1 -7 2 7 -2 0 0 -5 6 10 8 16 -4 -19 11 20 20 18 -6 4 -15 9 8 -6 25 10 48 38 88 12 10 23 -13 -6 -5 11 -9 5 -67 75 -54 20 -29 13 7 0 -2 11 -11 1 11 6 -7 -18 -22 20 4 0 11 17 5 -3 8 0 1 3 8 12 -1 35 -1 -23 -16 0 -17 12 -37 25 -6 13 -29 -24 -12 -23 -10 -31 31 -1 -2 -13 -1 -1 0 -11 -2 -7 14 -5 -13 -5 3 -27 -1c-72,-51 -55,-82 -79,-97l-12 -17c-8,-5 6,-13 -36,-23l21 -2 -18 -11 -25 6 -20 12 -8 -28 -21 22 -43 -7 -30 14 -18 -5 -5 12 4 -27 -61 -8 -27 25 -13 17 -29 3 -32 -16 -13 -31 -22 13 -19 -14 -5 29 14 29 3 6 -8 23 23 29 20 28 5 -7 15 4 15 30 0 0 40 21 26 -9 7 19 50 9 5 -15 -1 15 58 -8 14 25zm55 -193l1 -2 -1 2zm101 417l17 -16 -20 -31 -6 21 9 26 0 0z"/>
   </g>
   <path class="fil2" d="M2697 1935l3 -2 -20 -49 5 -21 29 -37 78 -74 42 -72 -2 -18 -82 18 -15 -14 -4 7 -14 0 7 -19 -10 -10 15 11 -20 -27 -18 -6 -11 -32 0 0 -17 5c4,-4 10,-9 11,-10 -11,-17 -8,-5 -13,-29 -1,-2 -3,-7 -7,-14l0 0 0 0c-3,-6 -7,-14 -12,-22l7 -17 -25 -46 5 -15 0 0 -5 -35 -26 4 -13 -8 -24 11 -43 -10 -6 -5c-1,-1 -41,-14 -41,-14 -1,0 -18,10 -19,10 -2,5 3,16 -3,21 -14,9 -10,6 -27,-1 -21,-8 -18,-4 -29,-20 -6,-7 -30,-10 -39,-11 -5,0 -6,1 -9,3l-16 -18 14 -18 -9 -14 8 -14 -30 2 -4 2c-34,-5 -73,-3 -103,13 -6,3 -23,9 -25,15 -1,2 -19,-5 -22,-6 -8,-2 -16,-4 -23,-6 -16,32 -7,21 -36,43 -9,7 -5,3 -7,16 -4,27 -2,21 -21,42 0,0 -23,13 -24,15 -7,6 -39,66 -41,77 -2,6 -3,5 7,6l2 0 -15 0 11 41 0 0 -5 24 -13 19 12 14 10 1 -11 5 -1 0 0 0 -1 1 1 -1 -1 10c47,-5 48,-2 1,0l9 5 1 0 10 0 -6 3 6 9 4 -4c34,54 12,32 67,75l21 9 55 -8 12 4 36 -13 -2 -11 13 5 -1 -5 12 4 22 1 19 24 31 -8 -2 6 15 4 2 11 0 0 1 11 -2 0 -5 13 0 0 4 2 3 11 -15 10 30 40 8 11 0 0 11 -2c-15,18 2,3 -6,13 15,1 15,-1 0,4 2,6 19,58 19,60 0,2 -15,26 -17,36 -3,13 -5,28 -8,42l2 0 -2 0 34 68 10 64c27,35 8,4 36,63l-6 13 8 23 19 7 85 -19 68 -76 4 -18 0 -18 32 -18 -11 -58 22 -14 0 1 50 -40 0 -62c-1,0 -3,0 -4,1zm-677 -294l-14 4 14 -4zm220 88l0 0zm139 130c-13,3 -10,0 -17,9 2,-9 3,-6 17,-9zm-36 -5c12,-20 15,-11 0,0zm2 -60c0,-16 1,-16 0,0zm243 289l1 1 0 0 -1 -1zm146 -4l11 40 13 7 23 -8 34 -105 -3 -17 7 6 3 -7 -14 -43 -25 43 -34 9 -6 18 7 31 -16 25 0 1z"/>
   <path class="fil4" d="M3197 1425l12 -4 47 34 32 -3 4 11 11 -14 30 7 26 -19 20 -3 5 14 15 -2 12 13 0 23 -14 26 16 -3 8 16 -5 10 13 10 11 -5 8 9 -1 -18c3,0 28,0 28,0 0,0 15,-11 17,-12 22,9 16,3 25,24 9,-1 17,-1 26,-2 12,24 7,24 11,4 3,0 28,-6 29,-7 0,0 7,-11 8,-13 18,7 13,6 34,-3 10,-4 41,-21 41,-33 0,-27 1,-1 10,-24 6,-13 19,-10 18,-26 -1,-5 -4,0 -2,-5 3,-7 -21,-3 -10,-13 12,-10 -4,-11 -3,-17 11,-3 19,3 1,-17 -4,-5 -17,-23 -17,-29 1,-6 11,-18 17,-22 13,-9 36,-16 5,-18 -25,-2 -20,21 -38,-13 -6,-13 3,-6 21,-19 8,-6 16,-12 24,-18 13,14 -4,18 -5,32 -1,6 35,-17 38,-18 5,0 22,11 7,26 -8,8 6,10 15,6 4,-2 5,-1 5,1l-2 2 5 9c0,1 0,2 -1,3l-9 3 6 7c2,6 2,9 2,14l-3 15 10 -4c7,0 13,-2 18,-6l4 -1 6 -14 -3 -6c0,-2 -1,-5 -2,-7 -1,-3 -2,-5 -3,-8l-7 -18 -1 0c-3,-6 -6,-13 -8,-19 27,-17 23,-11 37,-41 -4,-4 -1,-1 6,-13 3,-7 2,-16 2,-24l11 -8 11 -1 16 -22 3 -34 -29 1 -20 -11 -32 -19 -10 -73 -36 -14 -47 7 -17 7 8 18 -10 37 -18 11 -14 -6 -5 -4 -24 -5 -44 22 -26 -4 -22 -18 -29 0 0 0 -18 0 -10 -21 -39 -15 -18 46 -34 -5 -4 -10 -19 8 -42 22 -4 -3 -14 15 -21 13 -2 23 -30 -3 -7 37 -32 4 8 3 3 26c-20,13 -24,18 -42,34 -19,17 -12,7 -22,8 -1,0 -17,8 -18,9 -1,2 -3,18 -2,20 2,7 11,12 11,21 0,8 3,8 11,14 18,15 25,8 38,27 6,9 -4,9 3,20 7,11 8,6 -7,11 4,21 3,16 23,28l10 6zm570 47l-3 8 3 -8 0 0zm-95 46l9 17 13 -43 -11 2 -11 24 0 0zm16 -117l6 4 -6 -4 0 0zm58 -22l9 -2 -9 2 0 0zm270 -187c0,0 -26,20 -12,9 5,-4 10,-8 15,-11l-3 2zm-25 17c-12,13 -8,8 1,-1l-1 1zm-63 51c-18,9 -14,9 -16,30 -4,21 -31,43 -31,35 1,-6 4,-10 -4,-6 -8,5 -6,24 -15,25 -16,0 -43,3 -53,17 -12,18 47,-9 47,2 0,8 -1,7 6,12 4,2 16,-8 14,-19 -1,-5 -1,6 14,4 10,-1 3,-13 11,-3 4,6 13,-23 11,-6 0,6 6,4 8,-8 3,-13 4,-26 9,-39 10,-19 11,-14 6,-36l-1 -5 -2 -4 -4 1zm49 -50c-15,2 -13,-2 -26,-11 -14,-10 -11,-12 -16,5 -7,27 0,21 -16,22 -8,12 -7,12 -3,28 15,-4 10,-5 8,-15 46,11 17,4 52,-12 8,-3 9,-1 4,-5 0,-4 0,-8 -1,-12l-2 0zm-189 238c-3,4 -3,3 0,0zm65 -87c-4,4 -4,5 0,0zm-48 55c-2,5 -2,5 0,0zm40 -42c4,-11 -3,-10 -14,-7 -6,2 -9,6 -12,12 10,17 6,-1 20,-2 5,1 3,2 6,-3zm-33 18c4,-15 -13,-28 -21,-12 -3,4 -3,7 2,5 10,-5 2,18 3,19 2,2 4,0 6,5 3,0 9,-14 10,-17zm-21 -160c-5,19 2,-10 0,0z"/>
   <path class="fil6" d="M3486 1516c-16,3 -26,5 -41,11 -7,3 -14,1 -21,0 7,-15 5,-11 -3,-26 -22,3 -20,7 -7,-12 4,-6 2,-7 -1,-15 -2,-5 2,-21 4,-27 -6,-3 -12,3 -18,-1 -7,16 -2,18 -27,25 -8,2 -4,1 -10,12 -10,20 -20,41 -31,61 15,12 19,11 21,29 1,8 2,-18 3,3 0,12 1,23 2,34 6,-10 5,-12 4,0 15,-10 -7,10 9,-2 4,12 7,-7 17,-15 6,-4 23,53 23,60 1,9 0,19 1,28 28,-41 -8,18 -4,26 1,3 30,22 37,27 -9,11 -18,-27 -12,11 3,13 11,29 23,35 8,3 14,5 22,7 -3,-15 -7,-51 -26,-55 -4,-1 -3,0 -6,-3 -7,-11 -12,-30 -26,-36 -4,-2 1,-19 3,-24 1,-6 2,-23 7,-25 20,-5 -3,9 22,12 16,2 6,-9 19,18 6,13 17,1 17,20 0,9 14,-3 19,-6 23,-14 41,-20 34,-50 -7,-27 -3,-17 -26,-44 -22,-25 -23,-17 -7,-47 1,-2 15,-6 18,-7 -14,-20 -13,-26 -39,-24zm388 312c-18,-1 -11,-1 2,0l-2 0zm-5 -9c-10,-3 -6,-2 1,0l-1 0zm32 83c2,6 2,4 13,1 5,-2 4,1 9,8 7,9 4,6 4,-7 0,-22 0,-44 0,-66 -4,-2 -38,-14 -39,-14 0,0 -30,20 -33,22 -5,-10 -9,-20 -14,-31 -3,0 -32,1 -33,1 -1,1 -3,6 -4,7 16,1 11,-2 17,11 21,-2 23,-7 16,6 -25,0 -24,-4 -9,15 15,-16 10,-17 14,-2 8,2 41,10 45,14 6,8 12,16 18,24 -26,0 27,1 -6,2 1,6 2,4 -6,4 -9,12 -11,11 1,11 0,0 6,-6 6,-6l1 0zm-57 -14c2,-9 1,-5 0,1l0 -1zm2 -12c8,1 4,0 -1,-1l1 1zm-103 40c30,-13 -2,-8 -6,-4 -6,9 -2,7 6,4zm-191 -77c7,9 12,-7 20,9 16,-7 14,-7 31,-1 3,11 4,12 16,3 8,-5 -2,-14 14,-32 16,-16 5,-26 20,-25 11,1 -6,-1 -10,-17 -9,-29 -3,-19 8,-23 3,-1 -6,-1 5,-9 7,-6 -8,-12 -14,-16 -14,-8 -14,-4 -23,11 -7,12 -5,19 -8,7 -1,-2 -16,7 -18,11 -13,18 -26,10 -28,27 -2,13 -20,-2 -22,-1 -14,12 2,44 9,56zm106 9c4,9 7,18 10,26 16,-1 8,-13 10,-30 2,-15 4,19 15,18 35,-2 -20,-26 1,-38 9,-5 31,-13 1,-4 -12,3 -18,5 -21,-10 -2,-10 15,-7 24,-8 23,-1 25,2 34,-13 -12,2 -9,7 -28,5 -28,-3 -22,-9 -37,19 -5,10 -13,23 -9,35zm-192 16c6,6 17,18 28,14 5,-2 5,-29 5,-34 -17,-9 -12,-3 -18,-20 -2,-7 -6,-7 -12,-10 3,-13 4,-11 -8,-11 1,-11 -9,-12 -19,-20 -11,-8 -42,-39 -51,-41 -2,-1 -21,-3 -23,-3 0,1 38,40 42,45 20,26 32,59 56,80zm187 48c15,-4 -7,-5 -7,-5 7,14 -6,-9 -14,7 2,2 18,-2 21,-2zm120 -108c13,-1 -2,-1 1,-12 3,-15 -10,19 -8,-6 1,-9 -8,5 3,23 9,16 0,-3 -1,-5l5 0zm-86 106c4,-1 29,-5 7,-1 -7,1 -39,7 -11,2l4 -1zm110 -101c12,3 17,1 0,0zm2 42c2,-3 -12,-13 -27,-8 -8,3 11,5 15,6 1,0 11,2 12,2zm-302 -22c-1,-1 -10,0 -2,6 17,11 14,8 2,-6zm227 92c-8,5 -17,16 2,1 9,-7 6,-7 -2,-1zm88 -26c-4,7 -3,7 0,0zm-151 28c18,12 26,3 0,0zm-32 -15c-7,5 -9,6 0,0zm-107 -70c0,6 0,7 0,0zm75 53c-11,3 -13,3 0,0zm-182 -69c8,9 -13,-12 0,0zm315 6c10,-2 -15,2 0,0zm-126 82c1,-12 4,9 12,-1 3,-4 -11,-2 -13,-7 -2,-5 -14,2 -20,-7 -5,-9 -9,-5 -21,-6 -31,0 -33,-2 -61,-11 -17,14 -11,10 18,16 8,2 81,18 83,17l2 -1zm99 -47c-2,7 -2,8 0,0zm8 46c4,-3 4,-3 0,0zm40 -61c18,4 -19,-5 0,0zm40 -19c7,1 8,1 0,0zm-45 -1c-11,1 -12,1 0,0zm20 -12c-4,-6 -4,-7 0,0zm-14 84c-11,1 -11,1 0,0zm-20 6c-8,3 -8,3 0,0zm-300 -60c-3,-6 -5,-9 0,0zm94 -87c-2,6 2,-8 0,0zm243 67c-8,-3 -9,-4 0,0zm-283 -17c-4,-3 -5,-3 0,0zm137 45c2,-9 2,-9 0,0zm208 17c-3,5 -3,6 0,0zm-58 -90c4,-4 5,-6 0,0zm-96 96c0,6 -1,6 0,0zm76 -121c1,-5 0,-4 0,0zm-291 39c-2,1 4,7 -5,-2 1,0 6,2 7,2l-2 0zm-10 -8c5,3 6,3 0,0zm252 86c6,-11 4,-9 0,0zm-22 -292c-5,10 -2,22 -11,27 -5,2 -1,17 6,18 9,2 -3,13 8,11 16,-3 12,15 18,1 3,3 22,24 14,4 -4,-10 -26,1 -27,-22 0,-10 10,-12 8,-30 0,-8 -3,-12 -12,-11 -2,0 -3,0 -4,2zm54 149c6,-8 2,-9 10,-3 5,-12 1,-26 -8,-36 -13,19 -26,13 -28,14 0,0 -19,16 -9,12 19,-9 21,13 33,15l2 -2zm-70 -57c0,-9 -1,-1 -11,10 -9,11 -28,31 -3,9 7,-6 13,-10 14,-19zm70 -16c-2,-1 -13,-5 -7,2 6,7 14,16 7,-2zm-5 23c2,-17 -15,-15 0,0l0 0zm-32 -16c0,0 -9,20 5,9 5,-4 -2,-8 -5,-9zm14 21c-4,3 4,-21 -8,3 -4,6 4,8 6,3 2,-3 16,-30 5,-10l-3 4zm-36 -41c8,24 17,4 7,0 -2,0 -4,-1 -7,-1l0 1zm35 10c-4,1 -1,11 6,8 0,-2 -4,-7 -6,-8zm27 30c-1,-4 -1,-3 0,0zm-65 -24c-5,-2 -6,-2 0,0zm47 27c-8,4 10,-5 0,0zm-14 -40c-1,0 6,5 2,2l-2 -2z"/>
   <path class="fil7" d="M2914 1078c-16,-12 6,0 -17,0 -35,0 -25,11 -52,-12 -6,-6 -6,-4 -16,-4 -11,0 -11,2 -21,10 -6,5 -11,18 -15,26 -17,-10 -13,-11 -16,9 -3,27 -5,31 8,56 2,4 11,4 15,6 14,7 9,4 27,-5 7,-4 8,-2 17,0 11,2 8,-1 8,16 1,12 3,9 -14,10 -6,0 -7,4 -11,9 12,8 10,4 -7,8 14,23 7,16 29,28 -3,18 -2,17 1,37 1,8 3,7 11,13 -6,8 -7,3 2,9 4,3 3,15 3,20 1,7 -1,5 11,1 37,-13 24,-12 62,8 19,10 11,3 15,21 0,3 11,8 18,5 14,-8 19,-8 24,-21 2,-7 6,-4 15,-3 9,1 3,-1 12,2 8,2 6,-6 14,-8 7,8 -15,16 18,4 30,-12 14,1 24,11 5,7 13,-18 30,-16 22,1 18,2 1,-24 -3,-6 -1,-13 6,-19 6,-4 13,2 35,-7 10,-4 18,-8 25,-16 11,-13 24,-4 19,-33 -2,-16 12,-22 25,-25 3,-11 5,-15 8,-27 10,0 12,-7 22,-7 5,-29 2,-20 27,-38 -10,-14 -5,-17 -20,-16 -7,0 -4,-7 -12,-15 -16,-17 -11,-16 -33,-14 -7,1 -7,-1 -13,-6 -4,-2 -2,-7 -7,-2 -4,3 -9,13 -14,6 -12,-18 -8,-36 -20,-54 6,-13 -9,-11 -27,-2 -9,5 -17,9 -26,13 3,-17 6,-11 -22,-13 -9,-1 -6,0 -9,-15 -3,-14 1,-9 -15,-11 -18,-3 -56,11 -73,16 -15,4 -30,6 -46,11 -2,11 -2,10 8,16 -11,3 -10,0 -11,12 -1,4 -6,7 -9,10 5,5 1,11 7,16 -6,11 0,5 -14,6l-4 0 -3 -2zm124 236c1,1 1,1 0,0z"/>
   <path class="fil8" d="M2246 1279l-11 6 9 5 2 -11 0 0zm-154 15l8 -2 -3 32 19 -2 1 -4 21 21 60 -24 17 -50 32 -24 -62 -18 -72 -7 -20 13 0 0 5 19 1 0 0 0 -7 46 0 0zm26 17l2 -10 2 5 -4 5zm410 -62l-1 4 -23 -11 -13 -2 7 -15 -14 -22 -7 -15 -20 -15 -12 3 -3 -11 -6 6 -1 -23 -22 1 -25 -3 -14 12 -5 -1 -13 3 -22 4 1 -2 -25 -12 0 0 -18 2 -13 25 9 -6 10 6 -8 5 1 25 9 3 0 0 -2 7 15 -11 15 5 14 29 55 37 8 18 -6 15 18 -17 -9 -11 5 -11 18 10 -5 -13 -25 -13 2 -8 -17 -2 -28 -36 -3 -20 18 -3 -1 2 -1 0 5 12 5 -10 12 18 0 0 30 22 -5 -8 15 14 -1 1 0 0 10 34 9 11 0 1 14 22 17 -1 0 0 8 3 -17 -3 -9 7 7 16 19 6 -6 -17 10 2 -7 -7 7 -3 6 6 0 -7 -18 -11 10 -5 -10 -20 17 8 -3 -13 28 0 0 0 10 3 8 -7 19 -1 -18 -14 0 0 -15 2zm-214 -1l5 8 3 -27 -8 19 0 0zm113 -13l6 5 -19 -11 13 6 0 0zm-20 -9l9 2 -9 -2 0 0zm-15 -11l-5 -5 5 5 0 0zm18 16l6 0 -6 -1 0 1zm115 120l-29 -7 -2 6 31 1 0 0zm-25 -47l6 5 -5 -10 -16 -3 15 7 0 1zm-43 -1l3 5 -3 -6 0 1zm-150 -39l8 32 8 -5 4 -21 -8 -12 -12 6 0 0zm56 43l-2 9 30 14 7 -25 -35 3 0 -1z"/>
   <g>
    <path class="fil5" d="M4514 774c0,0 0,0 0,0l0 0zm-84 -23c25,-1 19,-4 28,14 3,8 14,12 22,16 5,-5 3,-9 6,1l-56 -31zm56 19c0,0 0,0 0,-1l0 1zm0 -68c-8,-2 -9,-1 -18,0 4,6 8,13 12,19 -12,5 -8,5 -13,-14 -8,-30 -1,-20 -26,-38 -13,-10 -26,-19 -38,-29l-37 65 37 56c4,-13 8,-25 11,-37 4,7 1,7 7,0 0,8 0,16 0,24 1,1 9,3 9,3l56 -49zm-1660 371l32 5 14 18 46 -12 15 13 19 -4 7 -11 -20 -14 13 -7 -1 -12 14 -2 -12 -5 -2 -13 51 -8 46 -23 23 3 4 25 31 1 -3 12 42 -20 -5 8 44 65 7 -10 10 10 24 -5 22 27c22,-4 17,-8 25,7 3,5 16,6 26,0 3,-1 13,-7 30,-12 9,-3 3,-6 11,-7 9,-1 17,-2 17,-2 8,6 -6,8 33,9 9,0 5,1 10,-11 5,-10 10,-20 16,-30 11,2 31,7 38,16 13,19 8,15 33,17 30,1 17,-1 41,14 12,8 29,7 42,1 43,-18 29,-9 70,-4 22,3 31,-21 36,-38 6,-17 -11,-16 4,-29 4,-4 34,-8 37,-7 38,17 28,14 41,54 9,28 15,20 38,34 11,7 5,21 17,20 12,-2 20,-5 33,-2 0,15 -5,28 -12,41 -5,9 -9,5 -17,7 -21,5 -2,24 -14,46 0,0 12,-10 12,-10 16,6 24,5 38,-6 14,-12 61,-76 65,-94 6,-25 2,-31 13,-59 5,-13 -9,-19 -2,-25 3,-9 -28,-34 -31,-14 -1,10 -2,4 0,1 3,-7 -16,13 -12,-2 3,-15 -9,9 -9,-2 -1,-25 -30,-6 -8,-30 3,-3 4,-26 16,-39 22,-25 60,-44 63,-45 23,-1 52,0 77,0 8,-17 2,-14 23,-6 20,7 23,5 4,9 4,10 3,6 20,3 9,-1 18,-3 27,-5 2,-10 -3,-7 -11,-6 1,-16 11,-22 22,-35 18,-22 13,-23 38,-26 2,0 6,5 7,6 13,-10 9,-8 7,17 -1,17 0,11 15,-5 12,-12 7,-12 23,-12 0,-27 -5,-22 19,-21 12,0 -6,2 -8,6 -2,12 -4,24 -5,36 -30,14 -24,12 -46,39 -7,9 -17,27 -29,30 -14,4 -13,7 -19,25 -11,35 -1,76 6,112 2,11 -1,12 10,-1 20,-23 11,-10 14,-28 1,-10 17,6 19,-14 1,-14 -1,-11 12,-19 17,-9 11,-4 13,-25 1,-15 2,-6 13,-11 5,-2 -8,-7 -2,-24 5,-16 3,-8 -11,-16 -4,-3 6,-19 8,-26 4,-9 7,-21 19,-24 2,0 5,6 6,8 20,-20 17,-23 17,-1 9,-6 17,-13 26,-19 8,5 16,11 24,16 9,-10 35,-42 45,-47 2,-2 37,-18 38,-18 0,0 21,6 23,6 10,-12 6,-13 0,-31 -3,-8 -6,-17 -9,-26 -1,9 -1,5 -8,-6 -4,-5 -5,-3 -13,-3 -29,0 -12,-1 5,-4 9,-1 8,1 17,6 4,3 2,3 9,-3 15,-10 12,-12 17,-30 5,-14 3,-22 8,-11 8,-10 4,-6 4,10 0,11 -3,10 8,12 3,0 17,0 22,0 10,22 6,18 29,30 7,-7 2,-8 6,3 1,1 10,-30 12,-36 3,6 0,7 7,0 0,8 0,16 0,24 9,4 12,3 -2,2 12,0 18,0 31,1 11,23 6,17 29,31 6,-9 3,-11 8,2 14,-5 12,-2 -1,-15 16,-12 15,-4 3,-26 25,7 24,12 17,-4 14,9 9,10 22,-9 -2,-2 -24,-24 -25,-25 -5,-3 -24,-5 -30,-4 -8,2 -6,0 2,12 4,9 7,8 -4,11 -1,-4 -11,-41 -11,-41 -1,-1 -52,-39 -58,-43 0,13 0,25 0,37 -9,-1 -8,0 -18,1 4,6 8,13 12,19 -12,5 -8,5 -13,-14 -8,-30 -1,-20 -26,-38 -10,-8 -79,-58 -86,-60 -6,-1 -19,5 -40,0 -9,-3 -19,-6 -28,-8 -5,23 -6,15 7,37 -21,13 -14,14 -27,-5 -4,-7 -9,-13 -13,-20 -15,14 -7,11 -33,8 -7,-1 -15,-2 -22,-3 -16,-2 -10,-3 -24,11 -5,5 -3,3 -4,-8 -1,-5 -4,-5 -10,-8 -9,-5 -6,-2 -5,-18 2,-13 3,-8 -7,-18 -9,-9 -9,-6 -22,-8 -24,-5 -23,-2 -47,4 -16,3 -10,5 -22,-12 -4,-7 -15,-10 -22,-13 -14,-6 -14,-3 2,-12 -13,-18 -7,-13 -32,-19 -27,-7 -54,-15 -80,-22 6,17 9,11 -16,22 -9,4 -4,3 8,7 -15,11 -12,7 -5,28 -27,-7 -19,-8 -23,7 -6,2 -21,-15 -27,-13 -26,11 -14,10 -34,-9 -4,-3 -2,-2 -6,6 -6,12 -11,22 -18,33 -39,-36 -11,-25 -23,-42 -5,11 -5,-1 -3,-3 12,-13 1,-9 2,-25 2,-16 9,-14 -9,-30 -10,-9 -24,5 -30,-9 -3,-7 4,4 -5,-2 -9,-5 -13,-13 -22,-2 -10,12 11,38 -33,29 -10,-2 -19,-6 -28,-10 1,-20 1,-16 -26,-20 -17,-2 -20,1 -35,7 4,6 7,8 -2,9 -15,-51 -4,-12 -19,-20 -12,-7 -3,-7 -6,-11 -1,0 -5,3 -6,4 -10,-5 -9,-3 -14,9 15,5 11,2 -7,13 -13,8 -5,2 -11,11 -3,4 -18,0 -23,2 -5,2 -18,23 -3,-1 12,-21 6,-10 1,-21 3,-4 19,5 30,-8 3,-4 15,-15 13,-18 -4,-7 -3,-3 9,-10 12,-8 47,-35 37,-52 -8,-11 -8,9 -13,-10 10,9 18,14 17,-6 -1,-6 -4,-11 -8,-16 -10,8 -8,5 -11,-8 -10,15 7,-3 -13,-19 -5,-4 -31,-3 -37,3 -7,6 -6,11 -17,8 1,-7 14,-25 -2,-26 -8,-1 -11,6 -13,-4 -18,-1 -11,-2 3,-16 -6,-9 -9,-12 -19,-17 -12,9 -32,23 -35,38 -1,3 -5,21 -6,22 -7,6 -26,-1 -21,13 8,24 1,-1 -7,7 -13,13 -8,11 -26,16 -2,-8 1,-8 -9,1 6,-18 4,-13 -25,-14 -7,0 -7,5 -10,12 31,-3 2,3 -11,7 -8,3 -31,9 -36,15 -10,13 -4,14 -23,14 -5,0 3,4 7,7 -10,21 -6,21 -21,8 -4,14 -1,11 15,17 -6,19 -3,-11 -15,3 -5,5 27,9 13,23 -3,2 -71,12 -80,14 1,15 2,30 5,45 17,7 20,11 30,28 7,11 -6,14 1,37 4,16 4,7 -4,16 -6,5 30,36 8,22 -18,-12 -19,-7 -20,-26 -8,15 -1,-1 0,-12 3,-29 -3,-11 12,-33 5,-7 -16,2 -26,-9 -18,-19 -15,-22 -40,-14 -5,1 2,6 5,9 -10,18 -9,-12 -24,3 -4,4 3,14 8,17 9,5 22,8 18,21 -2,1 -32,-12 -34,-16 -2,-3 0,-18 0,-22 1,-22 5,-21 -7,-37 0,34 2,21 -16,48 -9,12 -7,7 0,24 9,19 8,13 6,35 -4,37 -8,29 21,27 4,0 21,10 22,14 10,32 4,12 -1,36 9,6 20,14 29,19 -26,-23 -19,-7 -28,-7 -4,0 1,-30 -8,-41 -11,-12 -10,-14 -25,-6 -13,7 4,28 -8,45 -3,5 -23,33 -25,35 -2,0 -32,-3 -36,-9 -10,-14 4,-8 20,-10 14,-1 13,-5 20,-19 25,-53 -2,-25 0,-64 1,-13 5,-44 0,-55 -10,-26 -9,-13 -3,-42 2,-8 3,-16 5,-24 -14,-4 -27,-7 -41,-10 -4,15 -8,42 -16,53 -5,9 -11,19 -16,28 13,9 7,11 4,30 -6,32 10,1 23,36 2,5 -5,27 -10,23 -9,-6 -6,-15 -29,-27 16,11 7,2 -5,-4 -7,-3 -50,-22 -55,-20 -4,1 -9,9 -5,16 10,20 13,17 -5,22 -3,10 -2,12 -10,8 4,-10 5,-10 -4,-16 -28,19 -16,6 -41,15 -10,4 -14,14 -19,11 -9,-5 -9,6 -3,-8 4,-10 -4,-13 7,-19 -22,4 -20,19 -25,17 -7,-3 -37,10 -41,21 -4,14 -8,-2 -16,22 -5,20 -46,-2 -25,-18 6,-4 24,-9 5,-22 -7,-5 -14,-6 -23,-7 -7,-1 -4,2 -2,11 4,19 -3,23 5,39 3,7 1,28 -2,30 -4,-2 -16,-24 -34,-6 -2,3 -4,5 -6,8 -13,15 -12,13 -7,34 1,8 3,6 -12,2 -10,-2 -8,-3 -15,2 3,-8 2,-7 -11,-12 -3,-2 -4,-2 -5,5 -2,7 1,6 8,11 7,5 9,4 1,16 -3,5 -2,2 -12,-4 -21,-12 -20,-9 -25,-32 -2,-7 1,-12 2,-20 -6,-4 -11,-7 -18,-11 7,-9 4,-6 -6,-18 -12,-13 -9,-8 7,-2 11,4 58,24 66,23 6,-1 27,-16 29,-21 2,-4 0,-22 -2,-26 -6,-9 -49,-40 -60,-49 -6,7 -3,5 -18,-1 -12,-4 -8,-6 -17,4 7,-14 9,-11 -10,-12 -2,-14 -4,-11 10,-10 -15,-10 -11,-11 -15,2 -27,0 -19,-5 -33,21 -11,22 -10,13 4,35 9,14 8,7 0,24 -7,14 -5,8 1,26 8,21 -5,10 -10,32 -2,8 2,11 6,20 5,12 5,7 -2,20 6,7 12,14 18,22 -14,21 -18,44 -33,64 14,-7 11,-9 10,5 28,13 26,8 -7,15 -2,10 -11,46 -8,55 2,7 8,20 9,26 3,-1 -42,-6 -43,-5 0,0 2,36 1,38 -1,1 -1,11 -8,13 -3,-6 -8,-12 -9,-13 -5,-4 -5,-7 -11,-7 -14,-8 -10,-9 -22,0 11,-18 -7,7 -10,11 0,0 1,0 1,0 0,0 0,1 0,3 0,0 -1,0 -1,1 -3,0 -4,0 -5,0 0,0 -16,-11 -17,-12 -14,7 -28,14 -42,22 1,0 -5,14 -4,24 2,10 5,21 6,32 -17,9 -15,8 -31,12 4,16 8,16 21,28 7,6 4,5 14,-4 6,2 23,5 26,10 5,10 6,9 0,9 -6,11 -9,12 -7,24 0,5 13,10 18,12 7,3 13,0 23,0 7,0 9,3 15,9 11,10 -1,10 15,14 7,2 3,8 3,14 1,12 2,23 4,34 1,3 1,3 2,4 1,0 1,1 3,1 10,1 28,2 30,1 5,-2 6,-10 13,-10 24,-2 7,-1 8,-10 0,-5 27,-41 24,-45 -1,0 0,0 2,-1 0,-13 5,-13 18,-21 8,-5 9,-8 14,0 -7,-1 -12,-3 -6,3 1,2 17,3 20,4 -12,14 -15,13 -3,11 2,14 -1,15 10,17 4,1 25,-12 31,-15 -19,-2 -15,3 -17,-19 -4,11 2,4 14,-1 4,-2 22,-11 26,-10 16,1 7,1 -5,5 -6,2 -3,2 -1,11 1,5 -4,8 -9,12 -9,8 -9,4 8,17 35,26 38,18 77,29 17,4 29,13 44,22 13,-8 1,-16 -2,-31 -5,-27 -11,-19 11,-46 8,-9 0,-7 4,-13 4,-7 -25,-28 -26,-32 -2,-4 7,-29 9,-35 18,11 16,13 13,-5 9,-7 18,-14 27,-21zm-402 51c-3,2 9,2 8,-1 -2,-1 -5,0 -8,1zm1525 46c6,6 7,12 9,3 -1,-13 -16,-18 -8,-44 1,-6 6,-6 11,-7 9,-1 17,25 1,-21 -12,-32 -10,-20 -8,-50 0,-8 -3,-22 -7,-30 -18,53 -6,40 -5,91 0,22 -1,44 -2,66 3,-3 5,-7 8,-9l1 1zm81 15c0,0 28,-22 1,-1l-1 1zm-148 -173c19,-6 -1,-12 0,-1l0 1zm182 147c-6,6 -9,9 0,0zm-1025 -853c-37,4 -26,37 -82,38 -9,0 -2,5 -15,9 -21,6 -28,31 -34,33 -6,3 -13,10 -14,10 -11,1 3,9 1,13 -2,6 3,5 3,7 -1,3 -5,0 -7,7 -1,2 -5,14 -5,14 0,5 10,9 -2,9 -4,-1 -6,3 -10,7 -8,6 -8,6 4,9 16,3 -5,-4 -10,14 -2,7 -12,3 -10,16 2,10 -22,8 1,13 -17,2 4,-4 -12,16 -9,11 -15,14 -7,28 8,-7 7,-7 13,3 11,-4 10,2 14,12 -10,13 -7,14 9,19 9,3 -1,-6 23,0 10,3 -2,1 4,-3 8,-5 -1,-11 -6,-18 -11,-17 -21,-28 -18,-50 2,-9 7,5 5,-9 -1,-7 12,-11 5,-10 -10,1 12,-6 3,-12 -4,-2 -5,-3 -3,-8 6,4 10,9 12,0 3,-7 -10,-14 4,-12 -6,-6 -7,-7 2,-5 -2,-9 -2,-10 7,-10 4,-7 3,-11 6,-19 17,-1 3,-10 13,-7 3,1 2,-1 2,-5 16,-3 6,-10 6,-12 -1,-13 85,-48 98,-64l2 -3c5,-9 11,-19 3,-28l-3 -2 -2 0zm375 -108c19,-8 11,-8 3,-30 11,0 8,2 10,-17 2,-22 2,-16 -9,-35 -14,1 -9,-1 -17,16 -6,11 -12,25 -4,4 3,-5 1,-3 -7,1 -17,6 10,-7 12,-11 0,0 -1,-12 -1,-14 -10,0 -20,0 -31,0 35,-12 23,-4 17,-42 -1,-5 11,0 15,1 -8,-14 -17,-29 -25,-44 -16,0 -8,1 -5,5 -5,6 -38,29 -35,36 2,4 14,-13 5,12 -6,15 -21,6 -5,16 -23,9 -9,6 6,5 -14,1 -14,-1 -3,9 -15,0 -5,2 6,7 12,6 24,-10 14,3 -6,7 18,14 -19,29 8,9 6,7 12,-3 4,12 8,24 11,36 17,-1 9,-2 26,8 11,7 13,11 24,8zm77 19c0,-6 -16,-40 -17,-40 -2,0 -14,18 -18,22 2,-12 4,-24 6,-36 -12,-5 -5,1 -7,10 0,4 -7,-6 -8,-4 0,-1 -17,53 -23,79 35,-20 22,-11 57,-19 6,-1 8,-6 10,-12zm-705 -53c10,-3 7,-5 7,8 17,-7 15,-5 13,-20 11,-1 7,2 11,-8 1,-4 17,-13 22,-17 -18,-6 -17,-1 -11,-17 -30,15 -14,9 -14,18 0,1 -5,11 -6,11 -5,4 -28,4 -12,6 -9,7 -1,4 0,8 0,0 -13,3 -15,3 1,3 1,8 5,8zm140 426c-14,9 7,24 10,24 20,0 -9,-24 -10,-24zm1487 -18c26,-11 24,-5 10,-21 -4,-5 -5,-3 -13,-3 -12,1 -6,-2 -4,16l1 5 2 4 4 -1zm84 23c24,-10 23,-4 7,-23 11,3 -10,-4 -1,0 -23,1 -16,-3 -14,16l1 5 2 3 5 -1zm-94 -30c-1,-25 2,-20 -13,4 -5,8 -4,4 7,2 6,-1 5,1 6,-6zm-358 -159c4,-13 3,-9 -14,-12 -15,-2 -11,-2 -23,-11 -12,4 -7,6 -14,-7 -6,12 -3,10 9,23 15,16 8,14 30,11 6,0 8,1 12,-4zm-1191 162c-6,-11 -6,-9 0,0zm225 142c-4,-2 -16,6 -1,5 2,0 2,-4 1,-5zm-317 -574c14,11 12,7 25,-8 4,-4 2,-5 11,0 5,3 7,5 3,-3 -1,-2 -13,-8 -14,-8 -4,0 -23,14 -26,17l1 2zm565 8c2,-2 19,-11 19,-14 1,-14 -14,-12 -25,-13 -10,-1 -1,15 0,15 17,9 12,2 0,6 -3,1 3,6 6,6zm49 203c14,-6 10,-5 -3,-7 -6,0 2,6 3,7zm881 267c17,8 13,10 17,-4 -14,-5 -7,-5 -16,-1l-3 2 0 1 2 2zm-1050 -229c1,16 3,17 -4,2 7,4 6,5 4,-2zm731 67c-14,3 -12,5 -21,20 -4,6 -5,4 9,6 11,1 21,2 32,3 -4,-6 -13,-27 -20,-29zm-1001 -326c0,8 1,16 1,24 25,0 18,3 26,-22 5,-17 6,-12 -15,-9 -11,1 -9,-2 -12,7zm-42 -3c-11,6 -14,3 2,11 8,-5 9,-4 5,-8 6,4 5,3 12,-4 -16,-16 -15,-18 -36,-26 -11,11 4,10 18,26l-1 1zm2 -41c-8,-3 -10,-6 -8,6 9,-2 16,-4 25,-7 -26,-14 -13,-5 -15,2l-2 -1zm671 352c3,5 10,7 15,9 8,-10 11,-11 -5,-17 -7,-3 -9,2 -10,8zm318 118c5,-6 3,-5 -6,-4 -5,0 6,4 6,4zm-890 -458c-8,18 -3,11 -20,24 -5,4 -4,3 3,11 3,4 3,1 11,-5 20,-13 19,-7 11,-25l-3 -7 -2 2zm64 622c4,6 -8,-5 -4,-3 10,2 4,1 2,1l2 2zm-139 -550c13,-20 15,-15 -10,-20 -7,-1 -6,-2 -5,8 -20,1 -8,-2 -14,14 -2,4 -2,3 7,4 8,1 6,0 7,-13 2,-9 -2,9 10,11l2 -1 3 -3zm239 344c-7,-4 -8,-2 -14,7 -6,8 13,-6 14,-6l0 -1zm706 -60c-8,-13 -5,-8 1,1l-1 -1zm-649 123c1,12 1,11 0,0zm-352 -414c-5,-11 -4,-10 -13,2 -6,8 11,2 13,0l0 -2zm207 558c-6,-3 -7,-2 0,0zm-159 -602c12,-5 8,-3 -8,-13 -17,-10 -6,-4 0,6 3,4 4,8 8,7zm661 210c7,15 9,0 5,-1 -1,0 -4,0 -5,1zm-186 20c3,-6 4,-9 0,0zm478 25c-5,-12 -5,-1 -5,8 -1,7 6,-4 5,-8zm-347 -128c1,-8 -7,-5 -12,-3 1,1 11,3 12,3zm-261 182c-7,4 -6,5 0,0zm-84 64c-3,2 -11,8 -6,11 10,4 10,4 7,-7 0,-2 0,-3 -1,-4zm41 107c-1,-10 -1,-10 0,0zm-103 -103c5,4 6,7 9,-3 0,-1 -9,1 -9,2l0 1zm-223 -372c-9,-7 -6,-7 -16,-1 -7,4 13,2 15,2l2 0 -1 -1zm-60 57c10,2 12,5 11,-7 -1,-1 -12,5 -13,6l2 1zm84 -116c-18,4 -4,6 9,10 -2,-4 -5,-9 -9,-10zm16 573c-7,-9 -8,-8 0,0zm289 -44c-5,-16 -7,-11 0,0zm33 -175c-9,-1 -5,0 1,0l-1 0zm777 -98c-10,6 -7,4 0,0l0 0zm-104 132c4,-14 6,-13 -5,-6 -5,3 4,8 4,8l1 -2zm-778 -250l5 10 10 -2 -15 -8 0 0zm220 142c-8,3 -6,4 0,0zm-153 16c9,2 6,2 -1,0l1 0zm169 -37c-8,6 -7,7 0,0zm-562 -157c-6,3 -6,2 -3,9 2,2 4,-8 4,-9l-1 0zm404 447c-6,-8 -7,-10 0,0zm284 -380c-8,4 -6,5 0,0zm-579 -191c-17,8 -15,8 2,6 1,-4 3,-7 -2,-6zm364 264c-7,-9 -4,-5 1,1l-1 -1zm-74 142c11,0 11,-2 0,0zm-275 -338c11,6 9,6 17,-9 -2,0 -15,6 -18,8l1 1zm37 -54c-17,-3 -11,-2 2,0l-2 0zm-156 38c0,0 0,9 0,10 5,-5 9,-7 0,-10zm47 54c-3,-10 -2,-6 0,1l0 -1zm525 179c-2,-6 -2,-7 0,0zm31 -177c2,-8 1,-5 0,1l0 -1zm-596 511c-4,2 -5,2 0,0zm108 -482c-7,-6 -4,-6 -13,1 0,0 12,0 14,0l-1 -1zm194 293c-8,5 -5,3 0,0l0 0zm-220 -380c-17,7 -8,5 2,0l-2 0zm402 -46c4,1 10,-9 4,-10 -12,-1 -14,-1 -4,10zm-394 64c-11,-9 -6,-4 2,1l-2 -1zm283 252c10,4 6,3 -1,-1l1 1zm91 -65c5,-6 9,-9 0,0zm-435 -153c-2,-9 -1,-5 0,1l0 -1zm352 453c5,8 -7,-10 0,0zm-289 -471c7,-7 6,-5 -6,-4 -8,2 5,5 5,5l1 -1zm18 224c-3,3 -3,2 0,0zm1544 423c0,-1 0,0 0,0zm-1615 -612c-1,12 0,7 0,-1l0 1zm57 200c-4,2 -3,1 0,0zm-12 -225c-13,4 -7,3 1,0l-1 0zm253 350c6,-1 9,-1 0,0zm-242 -404c6,1 6,1 5,-7 0,-2 -6,6 -6,7l1 0zm466 271c-6,6 -8,9 0,0zm-466 -167c-10,-3 -6,-2 1,0l-1 0zm210 287c10,6 6,4 -1,0l1 0zm56 -362c4,-2 -5,-7 -9,-3 -9,10 -4,7 9,3zm-52 376c-9,-3 -6,-1 1,1l-1 -1zm193 -326c-10,1 -6,1 1,0l-1 0zm-454 -14c-6,-5 -4,-3 0,1l0 -1zm341 437c-1,5 0,5 0,0zm99 -428c-10,-4 -12,-4 0,0zm-425 -2c-8,-2 -5,-1 0,0l0 0zm41 -61c-12,-3 -6,0 2,1l-2 -1zm-12 -35c-5,4 -3,3 0,0zm-119 595c-3,0 -3,0 0,0zm69 -568c-5,-8 -2,-4 0,1l0 -1zm483 35c-4,4 -5,5 0,0zm-296 361c-1,16 -5,14 18,6 0,0 -5,-12 -6,-13 -6,2 -11,1 -12,7zm-254 149c-14,3 -9,31 5,15 5,-6 4,-13 -5,-15zm462 -221c-9,1 -15,2 0,0zm112 -103c5,-14 2,-9 -9,-1 -7,5 8,1 9,1zm590 93c11,-20 11,-15 -10,-30 -10,-7 -18,-12 -28,-17 -12,26 -3,23 -28,2 -6,-5 -6,-4 -15,2 -9,7 -9,15 -10,27 -1,13 0,13 10,25 13,14 11,16 20,1 9,7 4,5 20,0 13,-4 9,-5 17,5 9,-4 18,-7 24,-15z"/>
   </g>
   <path class="fil9" d="M2342 1020l-4 10 21 -12 22 15 8 55 -16 16c19,29 11,13 42,24 4,2 9,11 9,14 1,6 -9,7 -17,7 -5,20 0,18 -19,22 -15,4 -34,-13 -52,-7 -4,2 -39,15 -41,17 0,0 -5,15 -5,16 0,7 17,20 -7,31 -9,5 -21,-15 -34,0 -14,16 -8,13 -33,7 -9,-2 -16,-4 -25,-7 0,-14 0,-24 2,-37 7,1 10,5 1,-14 -18,-40 -61,-32 -32,-45 4,-2 17,-3 23,-4 6,-25 8,-6 28,-15 7,-4 11,-8 13,-15 2,-9 3,-9 13,-13 5,-1 26,-5 20,-6 -13,-2 -6,-2 2,-5 -6,-9 -3,-11 3,-21 8,7 3,10 9,-5 3,-7 15,-8 21,-12 4,-2 27,1 32,1 -5,-10 -11,-20 -16,-31 6,2 12,4 18,5 3,14 -1,11 14,9z"/>
   <path class="fil10" d="M2572 1260l-10 -1 10 7 -11 6 -35 6 12 24 -11 3 12 5 0 15 13 -1 -11 5 13 -3 15 12 16 -11 22 12 39 -14 1 13 -4 8 11 20 -10 15 0 0 12 12 -15 -5 0 0 2 -9 -18 30 4 12 0 0 4 12 0 -2 1 2 -1 2 -5 17 48 58 9 35 30 40 0 0 13 21 9 -14 -8 18 0 1 14 42 94 -34 17 -17 40 -16 18 -14 0 -13 0 0 25 -32 -46 -32 3 -9 -1 -2 1 -7 0 0 -1 7 -2 -4 -27 27 -28 -4 0 0 -5 -6 5 -15 -8 1 0 0 1 10 -31 -47 -3 0 0 -1 3 1 -4 -9 0 0 -6 -8 -2 -3 13 1 -13 -35 -25 -23 11 -27 -12 -2 -7 -18 0 0 1 -20c21,-3 21,-1 38,-19l9 20 9 -28 11 -1 -22 -26 -5 6 -8 -10 -21 -6 -19 -10 0 1 -51 -6 17 11 3 20 4 1 -44 9 -42 -20 -61 16 0 0zm-55 91l0 -2 8 2 0 0 -8 0zm123 47l-3 -6 4 -4 -1 10zm-7 9l7 -9 0 7 -7 2zm3 -14l-3 14 -1 0 1 -12 3 -2zm4 12l-2 8 0 0 2 -8zm11 -37l-5 -9 -11 23 16 -14 0 0zm-42 -18l-7 8 21 -3 6 -11 -20 6 0 0zm-87 -59l9 2 -9 -2 0 0zm3 10l-1 6 1 -6 0 0zm24 38l2 -6 -2 6zm332 133l12 -4 -12 4 0 0z"/>
   <path class="fil4" style="mask:url(#id0)" d="M4514 774c0,0 0,0 0,0m-84 -23c25,-1 19,-4 28,14 3,8 14,12 22,16 5,-5 3,-9 6,1m0 -12c0,0 0,0 0,-1m0 -67c-8,-2 -9,-1 -18,0 4,6 8,13 12,19 -12,5 -8,5 -13,-14 -8,-30 -1,-20 -26,-38 -13,-10 -26,-19 -38,-29l-37 65 37 56c4,-13 8,-25 11,-37 4,7 1,7 7,0 0,8 0,16 0,24 1,1 9,3 9,3m-1604 322l32 5 14 18 46 -12 15 13 19 -4 7 -11 -20 -14 13 -7 -1 -12 14 -2 -12 -5 -2 -13 51 -8 46 -23 23 3 4 25 31 1 -3 12 42 -20 -5 8 44 65 7 -10 10 10 24 -5 22 27c22,-4 17,-8 25,7 3,5 16,6 26,0 3,-1 13,-7 30,-12 9,-3 3,-6 11,-7 9,-1 17,-2 17,-2 8,6 -6,8 33,9 9,0 5,1 10,-11 5,-10 10,-20 16,-30 11,2 31,7 38,16 13,19 8,15 33,17 30,1 17,-1 41,14 12,8 29,7 42,1 43,-18 29,-9 70,-4 22,3 31,-21 36,-38 6,-17 -11,-16 4,-29 4,-4 34,-8 37,-7 38,17 28,14 41,54 9,28 15,20 38,34 11,7 5,21 17,20 12,-2 20,-5 33,-2 0,15 -5,28 -12,41 -5,9 -9,5 -17,7 -21,5 -2,24 -14,46 0,0 12,-10 12,-10 16,6 24,5 38,-6 14,-12 61,-76 65,-94 6,-25 2,-31 13,-59 5,-13 -9,-19 -2,-25 3,-9 -28,-34 -31,-14 -1,10 -2,4 0,1 3,-7 -16,13 -12,-2 3,-15 -9,9 -9,-2 -1,-25 -30,-6 -8,-30 3,-3 4,-26 16,-39 22,-25 60,-44 63,-45 23,-1 52,0 77,0 8,-17 2,-14 23,-6 20,7 23,5 4,9 4,10 3,6 20,3 9,-1 18,-3 27,-5 2,-10 -3,-7 -11,-6 1,-16 11,-22 22,-35 18,-22 13,-23 38,-26 2,0 6,5 7,6 13,-10 9,-8 7,17 -1,17 0,11 15,-5 12,-12 7,-12 23,-12 0,-27 -5,-22 19,-21 12,0 -6,2 -8,6 -2,12 -4,24 -5,36 -30,14 -24,12 -46,39 -7,9 -17,27 -29,30 -14,4 -13,7 -19,25 -11,35 -1,76 6,112 2,11 -1,12 10,-1 20,-23 11,-10 14,-28 1,-10 17,6 19,-14 1,-14 -1,-11 12,-19 17,-9 11,-4 13,-25 1,-15 2,-6 13,-11 5,-2 -8,-7 -2,-24 5,-16 3,-8 -11,-16 -4,-3 6,-19 8,-26 4,-9 7,-21 19,-24 2,0 5,6 6,8 20,-20 17,-23 17,-1 9,-6 17,-13 26,-19 8,5 16,11 24,16 9,-10 35,-42 45,-47 2,-2 37,-18 38,-18 0,0 21,6 23,6 10,-12 6,-13 0,-31 -3,-8 -6,-17 -9,-26 -1,9 -1,5 -8,-6 -4,-5 -5,-3 -13,-3 -29,0 -12,-1 5,-4 9,-1 8,1 17,6 4,3 2,3 9,-3 15,-10 12,-12 17,-30 5,-14 3,-22 8,-11 8,-10 4,-6 4,10 0,11 -3,10 8,12 3,0 17,0 22,0 10,22 6,18 29,30 7,-7 2,-8 6,3 1,1 10,-30 12,-36 3,6 0,7 7,0 0,8 0,16 0,24 9,4 12,3 -2,2 12,0 18,0 31,1 11,23 6,17 29,31 6,-9 3,-11 8,2 14,-5 12,-2 -1,-15 16,-12 15,-4 3,-26 25,7 24,12 17,-4 14,9 9,10 22,-9 -2,-2 -24,-24 -25,-25 -5,-3 -24,-5 -30,-4 -8,2 -6,0 2,12 4,9 7,8 -4,11 -1,-4 -11,-41 -11,-41 -1,-1 -52,-39 -58,-43 0,13 0,25 0,37 -9,-1 -8,0 -18,1 4,6 8,13 12,19 -12,5 -8,5 -13,-14 -8,-30 -1,-20 -26,-38 -10,-8 -79,-58 -86,-60 -6,-1 -19,5 -40,0 -9,-3 -19,-6 -28,-8 -5,23 -6,15 7,37 -21,13 -14,14 -27,-5 -4,-7 -9,-13 -13,-20 -15,14 -7,11 -33,8 -7,-1 -15,-2 -22,-3 -16,-2 -10,-3 -24,11 -5,5 -3,3 -4,-8 -1,-5 -4,-5 -10,-8 -9,-5 -6,-2 -5,-18 2,-13 3,-8 -7,-18 -9,-9 -9,-6 -22,-8 -24,-5 -23,-2 -47,4 -16,3 -10,5 -22,-12 -4,-7 -15,-10 -22,-13 -14,-6 -14,-3 2,-12 -13,-18 -7,-13 -32,-19 -27,-7 -54,-15 -80,-22 6,17 9,11 -16,22 -9,4 -4,3 8,7 -15,11 -12,7 -5,28 -27,-7 -19,-8 -23,7 -6,2 -21,-15 -27,-13 -26,11 -14,10 -34,-9 -4,-3 -2,-2 -6,6 -6,12 -11,22 -18,33 -39,-36 -11,-25 -23,-42 -5,11 -5,-1 -3,-3 12,-13 1,-9 2,-25 2,-16 9,-14 -9,-30 -10,-9 -24,5 -30,-9 -3,-7 4,4 -5,-2 -9,-5 -13,-13 -22,-2 -10,12 11,38 -33,29 -10,-2 -19,-6 -28,-10 1,-20 1,-16 -26,-20 -17,-2 -20,1 -35,7 4,6 7,8 -2,9 -15,-51 -4,-12 -19,-20 -12,-7 -3,-7 -6,-11 -1,0 -5,3 -6,4 -10,-5 -9,-3 -14,9 15,5 11,2 -7,13 -13,8 -5,2 -11,11 -3,4 -18,0 -23,2 -5,2 -18,23 -3,-1 12,-21 6,-10 1,-21 3,-4 19,5 30,-8 3,-4 15,-15 13,-18 -4,-7 -3,-3 9,-10 12,-8 47,-35 37,-52 -8,-11 -8,9 -13,-10 10,9 18,14 17,-6 -1,-6 -4,-11 -8,-16 -10,8 -8,5 -11,-8 -10,15 7,-3 -13,-19 -5,-4 -31,-3 -37,3 -7,6 -6,11 -17,8 1,-7 14,-25 -2,-26 -8,-1 -11,6 -13,-4 -18,-1 -11,-2 3,-16 -6,-9 -9,-12 -19,-17 -12,9 -32,23 -35,38 -1,3 -5,21 -6,22 -7,6 -26,-1 -21,13 8,24 1,-1 -7,7 -13,13 -8,11 -26,16 -2,-8 1,-8 -9,1 6,-18 4,-13 -25,-14 -7,0 -7,5 -10,12 31,-3 2,3 -11,7 -8,3 -31,9 -36,15 -10,13 -4,14 -23,14 -5,0 3,4 7,7 -10,21 -6,21 -21,8 -4,14 -1,11 15,17 -6,19 -3,-11 -15,3 -5,5 27,9 13,23 -3,2 -71,12 -80,14 1,15 2,30 5,45 17,7 20,11 30,28 7,11 -6,14 1,37 4,16 4,7 -4,16 -6,5 30,36 8,22 -18,-12 -19,-7 -20,-26 -8,15 -1,-1 0,-12 3,-29 -3,-11 12,-33 5,-7 -16,2 -26,-9 -18,-19 -15,-22 -40,-14 -5,1 2,6 5,9 -10,18 -9,-12 -24,3 -4,4 3,14 8,17 9,5 22,8 18,21 -2,1 -32,-12 -34,-16 -2,-3 0,-18 0,-22 1,-22 5,-21 -7,-37 0,34 2,21 -16,48 -9,12 -7,7 0,24 9,19 8,13 6,35 -4,37 -8,29 21,27 4,0 21,10 22,14 10,32 4,12 -1,36 9,6 20,14 29,19 -26,-23 -19,-7 -28,-7 -4,0 1,-30 -8,-41 -11,-12 -10,-14 -25,-6 -13,7 4,28 -8,45 -3,5 -23,33 -25,35 -2,0 -32,-3 -36,-9 -10,-14 4,-8 20,-10 14,-1 13,-5 20,-19 25,-53 -2,-25 0,-64 1,-13 5,-44 0,-55 -10,-26 -9,-13 -3,-42 2,-8 3,-16 5,-24 -14,-4 -27,-7 -41,-10 -4,15 -8,42 -16,53 -5,9 -11,19 -16,28 13,9 7,11 4,30 -6,32 10,1 23,36 2,5 -5,27 -10,23 -9,-6 -6,-15 -29,-27 16,11 7,2 -5,-4 -7,-3 -50,-22 -55,-20 -4,1 -9,9 -5,16 10,20 13,17 -5,22 -3,10 -2,12 -10,8 4,-10 5,-10 -4,-16 -28,19 -16,6 -41,15 -10,4 -14,14 -19,11 -9,-5 -9,6 -3,-8 4,-10 -4,-13 7,-19 -22,4 -20,19 -25,17 -7,-3 -37,10 -41,21 -4,14 -8,-2 -16,22 -5,20 -46,-2 -25,-18 6,-4 24,-9 5,-22 -7,-5 -14,-6 -23,-7 -7,-1 -4,2 -2,11 4,19 -3,23 5,39 3,7 1,28 -2,30 -4,-2 -16,-24 -34,-6 -2,3 -4,5 -6,8 -13,15 -12,13 -7,34 1,8 3,6 -12,2 -10,-2 -8,-3 -15,2 3,-8 2,-7 -11,-12 -3,-2 -4,-2 -5,5 -2,7 1,6 8,11 7,5 9,4 1,16 -3,5 -2,2 -12,-4 -21,-12 -20,-9 -25,-32 -2,-7 1,-12 2,-20 -6,-4 -11,-7 -18,-11 7,-9 4,-6 -6,-18 -12,-13 -9,-8 7,-2 11,4 58,24 66,23 6,-1 27,-16 29,-21 2,-4 0,-22 -2,-26 -6,-9 -49,-40 -60,-49 -6,7 -3,5 -18,-1 -12,-4 -8,-6 -17,4 7,-14 9,-11 -10,-12 -2,-14 -4,-11 10,-10 -15,-10 -11,-11 -15,2 -27,0 -19,-5 -33,21 -11,22 -10,13 4,35 9,14 8,7 0,24 -7,14 -5,8 1,26 8,21 -5,10 -10,32 -2,8 2,11 6,20 5,12 5,7 -2,20 6,7 12,14 18,22 -14,21 -18,44 -33,64 14,-7 11,-9 10,5 28,13 26,8 -7,15 -2,10 -11,46 -8,55 2,7 8,20 9,26 3,-1 -42,-6 -43,-5 0,0 2,36 1,38 -1,1 -1,11 -8,13 -3,-6 -8,-12 -9,-13 -5,-4 -5,-7 -11,-7 -14,-8 -10,-9 -22,0 11,-18 -7,7 -10,11 0,0 1,0 1,0 0,0 0,1 0,3 0,0 -1,0 -1,1 -3,0 -4,0 -5,0 0,0 -16,-11 -17,-12 -14,7 -28,14 -42,22 1,0 -5,14 -4,24 2,10 5,21 6,32 -17,9 -15,8 -31,12 4,16 8,16 21,28 7,6 4,5 14,-4 6,2 23,5 26,10 5,10 6,9 0,9 -6,11 -9,12 -7,24 0,5 13,10 18,12 7,3 13,0 23,0 7,0 9,3 15,9 11,10 -1,10 15,14 7,2 3,8 3,14 1,12 2,23 4,34 1,3 1,3 2,4 1,0 1,1 3,1 10,1 28,2 30,1 5,-2 6,-10 13,-10 24,-2 7,-1 8,-10 0,-5 27,-41 24,-45 -1,0 0,0 2,-1 0,-13 5,-13 18,-21 8,-5 9,-8 14,0 -7,-1 -12,-3 -6,3 1,2 17,3 20,4 -12,14 -15,13 -3,11 2,14 -1,15 10,17 4,1 25,-12 31,-15 -19,-2 -15,3 -17,-19 -4,11 2,4 14,-1 4,-2 22,-11 26,-10 16,1 7,1 -5,5 -6,2 -3,2 -1,11 1,5 -4,8 -9,12 -9,8 -9,4 8,17 35,26 38,18 77,29 17,4 29,13 44,22 13,-8 1,-16 -2,-31 -5,-27 -11,-19 11,-46 8,-9 0,-7 4,-13 4,-7 -25,-28 -26,-32 -2,-4 7,-29 9,-35 18,11 16,13 13,-5 9,-7 18,-14 27,-21zm-402 51c-3,2 9,2 8,-1 -2,-1 -5,0 -8,1zm1525 46c6,6 7,12 9,3 -1,-13 -16,-18 -8,-44 1,-6 6,-6 11,-7 9,-1 17,25 1,-21 -12,-32 -10,-20 -8,-50 0,-8 -3,-22 -7,-30 -18,53 -6,40 -5,91 0,22 -1,44 -2,66 3,-3 5,-7 8,-9l1 1zm81 15c0,0 28,-22 1,-1l-1 1zm-148 -173c19,-6 -1,-12 0,-1l0 1zm182 147c-6,6 -9,9 0,0zm-1025 -853c-37,4 -26,37 -82,38 -9,0 -2,5 -15,9 -21,6 -28,31 -34,33 -6,3 -13,10 -14,10 -11,1 3,9 1,13 -2,6 3,5 3,7 -1,3 -5,0 -7,7 -1,2 -5,14 -5,14 0,5 10,9 -2,9 -4,-1 -6,3 -10,7 -8,6 -8,6 4,9 16,3 -5,-4 -10,14 -2,7 -12,3 -10,16 2,10 -22,8 1,13 -17,2 4,-4 -12,16 -9,11 -15,14 -7,28 8,-7 7,-7 13,3 11,-4 10,2 14,12 -10,13 -7,14 9,19 9,3 -1,-6 23,0 10,3 -2,1 4,-3 8,-5 -1,-11 -6,-18 -11,-17 -21,-28 -18,-50 2,-9 7,5 5,-9 -1,-7 12,-11 5,-10 -10,1 12,-6 3,-12 -4,-2 -5,-3 -3,-8 6,4 10,9 12,0 3,-7 -10,-14 4,-12 -6,-6 -7,-7 2,-5 -2,-9 -2,-10 7,-10 4,-7 3,-11 6,-19 17,-1 3,-10 13,-7 3,1 2,-1 2,-5 16,-3 6,-10 6,-12 -1,-13 85,-48 98,-64l2 -3c5,-9 11,-19 3,-28l-3 -2 -2 0zm375 -108c19,-8 11,-8 3,-30 11,0 8,2 10,-17 2,-22 2,-16 -9,-35 -14,1 -9,-1 -17,16 -6,11 -12,25 -4,4 3,-5 1,-3 -7,1 -17,6 10,-7 12,-11 0,0 -1,-12 -1,-14 -10,0 -20,0 -31,0 35,-12 23,-4 17,-42 -1,-5 11,0 15,1 -8,-14 -17,-29 -25,-44 -16,0 -8,1 -5,5 -5,6 -38,29 -35,36 2,4 14,-13 5,12 -6,15 -21,6 -5,16 -23,9 -9,6 6,5 -14,1 -14,-1 -3,9 -15,0 -5,2 6,7 12,6 24,-10 14,3 -6,7 18,14 -19,29 8,9 6,7 12,-3 4,12 8,24 11,36 17,-1 9,-2 26,8 11,7 13,11 24,8zm77 19c0,-6 -16,-40 -17,-40 -2,0 -14,18 -18,22 2,-12 4,-24 6,-36 -12,-5 -5,1 -7,10 0,4 -7,-6 -8,-4 0,-1 -17,53 -23,79 35,-20 22,-11 57,-19 6,-1 8,-6 10,-12zm-705 -53c10,-3 7,-5 7,8 17,-7 15,-5 13,-20 11,-1 7,2 11,-8 1,-4 17,-13 22,-17 -18,-6 -17,-1 -11,-17 -30,15 -14,9 -14,18 0,1 -5,11 -6,11 -5,4 -28,4 -12,6 -9,7 -1,4 0,8 0,0 -13,3 -15,3 1,3 1,8 5,8zm140 426c-14,9 7,24 10,24 20,0 -9,-24 -10,-24zm1487 -18c26,-11 24,-5 10,-21 -4,-5 -5,-3 -13,-3 -12,1 -6,-2 -4,16l1 5 2 4 4 -1zm84 23c24,-10 23,-4 7,-23 11,3 -10,-4 -1,0 -23,1 -16,-3 -14,16l1 5 2 3 5 -1zm-94 -30c-1,-25 2,-20 -13,4 -5,8 -4,4 7,2 6,-1 5,1 6,-6zm-358 -159c4,-13 3,-9 -14,-12 -15,-2 -11,-2 -23,-11 -12,4 -7,6 -14,-7 -6,12 -3,10 9,23 15,16 8,14 30,11 6,0 8,1 12,-4zm-1191 162c-6,-11 -6,-9 0,0zm225 142c-4,-2 -16,6 -1,5 2,0 2,-4 1,-5zm-317 -574c14,11 12,7 25,-8 4,-4 2,-5 11,0 5,3 7,5 3,-3 -1,-2 -13,-8 -14,-8 -4,0 -23,14 -26,17l1 2zm565 8c2,-2 19,-11 19,-14 1,-14 -14,-12 -25,-13 -10,-1 -1,15 0,15 17,9 12,2 0,6 -3,1 3,6 6,6zm49 203c14,-6 10,-5 -3,-7 -6,0 2,6 3,7zm881 267c17,8 13,10 17,-4 -14,-5 -7,-5 -16,-1l-3 2 0 1 2 2zm-1050 -229c1,16 3,17 -4,2 7,4 6,5 4,-2zm731 67c-14,3 -12,5 -21,20 -4,6 -5,4 9,6 11,1 21,2 32,3 -4,-6 -13,-27 -20,-29zm-1001 -326c0,8 1,16 1,24 25,0 18,3 26,-22 5,-17 6,-12 -15,-9 -11,1 -9,-2 -12,7zm-42 -3c-11,6 -14,3 2,11 8,-5 9,-4 5,-8 6,4 5,3 12,-4 -16,-16 -15,-18 -36,-26 -11,11 4,10 18,26l-1 1zm2 -41c-8,-3 -10,-6 -8,6 9,-2 16,-4 25,-7 -26,-14 -13,-5 -15,2l-2 -1zm671 352c3,5 10,7 15,9 8,-10 11,-11 -5,-17 -7,-3 -9,2 -10,8zm318 118c5,-6 3,-5 -6,-4 -5,0 6,4 6,4zm-890 -458c-8,18 -3,11 -20,24 -5,4 -4,3 3,11 3,4 3,1 11,-5 20,-13 19,-7 11,-25l-3 -7 -2 2zm64 622c4,6 -8,-5 -4,-3 10,2 4,1 2,1l2 2zm-139 -550c13,-20 15,-15 -10,-20 -7,-1 -6,-2 -5,8 -20,1 -8,-2 -14,14 -2,4 -2,3 7,4 8,1 6,0 7,-13 2,-9 -2,9 10,11l2 -1 3 -3zm239 344c-7,-4 -8,-2 -14,7 -6,8 13,-6 14,-6l0 -1zm706 -60c-8,-13 -5,-8 1,1l-1 -1zm-649 123c1,12 1,11 0,0zm-352 -414c-5,-11 -4,-10 -13,2 -6,8 11,2 13,0l0 -2zm207 558c-6,-3 -7,-2 0,0zm-159 -602c12,-5 8,-3 -8,-13 -17,-10 -6,-4 0,6 3,4 4,8 8,7zm661 210c7,15 9,0 5,-1 -1,0 -4,0 -5,1zm-186 20c3,-6 4,-9 0,0zm478 25c-5,-12 -5,-1 -5,8 -1,7 6,-4 5,-8zm-347 -128c1,-8 -7,-5 -12,-3 1,1 11,3 12,3zm-261 182c-7,4 -6,5 0,0zm-84 64c-3,2 -11,8 -6,11 10,4 10,4 7,-7 0,-2 0,-3 -1,-4zm41 107c-1,-10 -1,-10 0,0zm-103 -103c5,4 6,7 9,-3 0,-1 -9,1 -9,2l0 1zm-223 -372c-9,-7 -6,-7 -16,-1 -7,4 13,2 15,2l2 0 -1 -1zm-60 57c10,2 12,5 11,-7 -1,-1 -12,5 -13,6l2 1zm84 -116c-18,4 -4,6 9,10 -2,-4 -5,-9 -9,-10zm16 573c-7,-9 -8,-8 0,0zm289 -44c-5,-16 -7,-11 0,0zm33 -175c-9,-1 -5,0 1,0l-1 0zm777 -98c-10,6 -7,4 0,0l0 0zm-104 132c4,-14 6,-13 -5,-6 -5,3 4,8 4,8l1 -2zm-778 -250l5 10 10 -2 -15 -8 0 0zm220 142c-8,3 -6,4 0,0zm-153 16c9,2 6,2 -1,0l1 0zm169 -37c-8,6 -7,7 0,0zm-562 -157c-6,3 -6,2 -3,9 2,2 4,-8 4,-9l-1 0zm404 447c-6,-8 -7,-10 0,0zm284 -380c-8,4 -6,5 0,0zm-579 -191c-17,8 -15,8 2,6 1,-4 3,-7 -2,-6zm364 264c-7,-9 -4,-5 1,1l-1 -1zm-74 142c11,0 11,-2 0,0zm-275 -338c11,6 9,6 17,-9 -2,0 -15,6 -18,8l1 1zm37 -54c-17,-3 -11,-2 2,0l-2 0zm-156 38c0,0 0,9 0,10 5,-5 9,-7 0,-10zm47 54c-3,-10 -2,-6 0,1l0 -1zm525 179c-2,-6 -2,-7 0,0zm31 -177c2,-8 1,-5 0,1l0 -1zm-596 511c-4,2 -5,2 0,0zm108 -482c-7,-6 -4,-6 -13,1 0,0 12,0 14,0l-1 -1zm194 293c-8,5 -5,3 0,0l0 0zm-220 -380c-17,7 -8,5 2,0l-2 0zm402 -46c4,1 10,-9 4,-10 -12,-1 -14,-1 -4,10zm-394 64c-11,-9 -6,-4 2,1l-2 -1zm283 252c10,4 6,3 -1,-1l1 1zm91 -65c5,-6 9,-9 0,0zm-435 -153c-2,-9 -1,-5 0,1l0 -1zm352 453c5,8 -7,-10 0,0zm-289 -471c7,-7 6,-5 -6,-4 -8,2 5,5 5,5l1 -1zm18 224c-3,3 -3,2 0,0zm1544 423c0,-1 0,0 0,0zm-1615 -612c-1,12 0,7 0,-1l0 1zm57 200c-4,2 -3,1 0,0zm-12 -225c-13,4 -7,3 1,0l-1 0zm253 350c6,-1 9,-1 0,0zm-242 -404c6,1 6,1 5,-7 0,-2 -6,6 -6,7l1 0zm466 271c-6,6 -8,9 0,0zm-466 -167c-10,-3 -6,-2 1,0l-1 0zm210 287c10,6 6,4 -1,0l1 0zm56 -362c4,-2 -5,-7 -9,-3 -9,10 -4,7 9,3zm-52 376c-9,-3 -6,-1 1,1l-1 -1zm193 -326c-10,1 -6,1 1,0l-1 0zm-454 -14c-6,-5 -4,-3 0,1l0 -1zm341 437c-1,5 0,5 0,0zm99 -428c-10,-4 -12,-4 0,0zm-425 -2c-8,-2 -5,-1 0,0l0 0zm41 -61c-12,-3 -6,0 2,1l-2 -1zm-12 -35c-5,4 -3,3 0,0zm-119 595c-3,0 -3,0 0,0zm69 -568c-5,-8 -2,-4 0,1l0 -1zm483 35c-4,4 -5,5 0,0zm-296 361c-1,16 -5,14 18,6 0,0 -5,-12 -6,-13 -6,2 -11,1 -12,7zm-254 149c-14,3 -9,31 5,15 5,-6 4,-13 -5,-15zm462 -221c-9,1 -15,2 0,0zm112 -103c5,-14 2,-9 -9,-1 -7,5 8,1 9,1zm590 93c11,-20 11,-15 -10,-30 -10,-7 -18,-12 -28,-17 -12,26 -3,23 -28,2 -6,-5 -6,-4 -15,2 -9,7 -9,15 -10,27 -1,13 0,13 10,25 13,14 11,16 20,1 9,7 4,5 20,0 13,-4 9,-5 17,5 9,-4 18,-7 24,-15z"/>
   <path class="fil2" d="M2384 1028c-4,2 -3,2 0,0zm-548 -298l0 -6c3,0 5,-1 7,-2 -8,-9 11,-10 -7,-12l0 -15c1,0 1,0 0,0l0 -8c1,0 1,-1 2,-1 0,0 -1,-1 -2,-2l0 0c27,14 9,7 15,25 4,11 6,6 8,-1 11,-29 8,5 25,-15 9,11 9,14 8,-1 11,4 9,3 20,-2 0,-13 -1,-12 14,-1 2,-2 10,-7 9,-3 0,13 -7,11 4,18 8,4 13,15 6,18 -12,4 6,-1 -4,10 -2,2 -7,11 -10,11 -14,1 -11,1 -24,10 -16,10 -18,18 -35,12 -16,-5 2,-12 -30,-9 -13,1 18,-13 7,-15 -9,-2 -4,-7 -13,-11zm573 -368c-3,6 6,13 8,9 5,-7 7,-29 15,-42 12,-18 -1,-21 12,-36 7,-7 -6,-18 11,-25 51,-18 -5,-26 -11,-43 -2,-7 -4,-15 -8,-21 -8,4 -7,19 -4,-6 1,-13 -15,-31 -22,-22 -15,19 22,110 -8,34 -3,-6 -5,-13 -10,-18 -19,22 -1,34 -13,16 -7,-12 -17,0 -2,-12 4,-3 4,-6 4,-11 -24,-1 -12,19 -24,2 -12,3 -1,3 -9,15 -6,9 1,27 5,26 9,-3 5,-9 6,5 0,10 11,10 -1,10 -11,1 3,20 10,23 12,4 -8,1 3,16 6,8 21,-3 21,-10 0,-7 -5,-11 4,-10 6,-15 5,-9 7,6 13,-10 12,-12 12,3 18,11 -16,8 -28,29 -15,0 -2,12 4,12 6,0 35,-10 27,-1 -5,8 -18,4 -16,14 2,7 1,4 -12,7 7,16 4,16 17,22 4,2 3,4 2,8zm129 -176c3,-5 5,-11 7,-17 -9,-7 -18,-13 -28,-20 -6,7 -5,8 -6,0 -23,26 -11,12 -20,-9 -4,8 -2,25 -6,32 -5,-9 -3,-16 -9,-14 -14,5 -23,-32 -22,-11 1,21 -8,-7 -4,10 2,8 -7,6 -14,6 1,13 3,4 7,8 -7,7 -11,10 0,20 5,4 45,-9 29,-1 -19,9 11,19 -10,12 -18,-6 0,15 10,14 18,-1 13,-7 25,4 7,8 12,3 21,-3 16,-11 13,-13 20,-31zm-41 105c-7,-11 -8,-4 -25,1 -11,4 8,6 2,20 -9,23 -5,20 12,12 3,17 2,18 19,4 6,-5 7,-17 3,-23 -4,-5 -7,-9 -11,-14zm-143 -18c-3,-6 -7,-13 -10,-20 4,9 9,19 14,28 -1,-3 -3,-5 -4,-8zm118 -7c-14,5 -12,2 -6,16 4,10 18,3 17,-2 0,-5 -2,-10 -5,-14l-6 0zm84 -14l20 -6c-19,-5 -13,-8 -20,6zm42 -87c0,3 23,-7 21,-10 -8,-8 -16,5 -21,10zm-159 -10c1,-5 1,-5 0,0zm22 84c12,-5 -4,-9 -1,-3l1 3zm59 142c5,-11 3,-7 0,1l0 -1zm17 -128c4,14 2,9 0,-1l0 1zm-79 -35c-6,-5 -7,-5 0,0zm96 -58c1,10 3,15 0,0zm-182 860c-5,-3 -4,-2 0,0zm-16 -217c3,-2 -2,4 0,0zm102 -165c-3,0 -7,-1 0,0zm9 -8c0,3 -2,4 0,0zm49 138l-10 1 -19 27 0 -1c-4,5 -23,31 -23,35 0,6 2,45 4,47 2,2 16,9 18,10 1,15 0,12 18,7 4,-1 40,-11 41,-11 1,-1 36,-47 40,-53l7 -9 -20 -23 7 -10 -11 -24c8,-33 13,-16 0,-49 -3,-9 -1,-9 5,-20 22,-36 -16,-9 -1,-64 3,-10 2,-15 11,-13 -8,-9 -7,-10 -15,-3 1,-11 0,-9 -10,-14 9,-3 17,-4 26,-7 -10,-15 -8,-14 -25,-18 -15,17 -13,13 -7,-5 -16,-13 -6,5 -16,17 -6,8 -5,-13 -6,-14 -4,1 -25,46 -11,11 7,-19 -10,-14 -11,-13 -4,9 2,8 -9,17 -18,15 3,18 -21,9 -9,-3 -6,5 -5,11 -17,-8 -13,13 -13,13 0,0 -4,0 -9,5 -3,-2 7,-29 -3,-8 -2,4 1,-11 -6,-2 -2,4 5,18 -3,8 -2,-1 3,1 -6,3 -10,2 -3,12 -19,25 -1,2 19,11 -2,10 -13,-1 2,17 -9,5 -3,-3 -5,0 -7,2 7,12 -13,2 -1,9 3,2 1,4 0,6 7,13 -7,-3 -10,9 -1,5 14,4 1,5 -5,0 -12,4 -11,8 0,4 -1,4 -5,6 5,7 -5,0 -1,10 2,4 -4,6 5,3 -1,1 -21,11 -13,9 3,0 4,1 5,3 -5,0 -4,4 -5,9 -5,1 -5,3 -5,8 10,2 -2,2 -8,14 -5,9 -25,27 -18,31 3,3 18,-14 14,-3 -6,15 -23,1 -29,12 -4,6 -7,7 -5,12 -12,-1 4,7 -8,2 -7,-2 -13,0 -2,3 0,2 -10,4 -12,5 3,6 8,11 1,5 -8,7 -8,6 -18,5 1,9 5,6 14,7 -16,4 -17,2 -13,18 12,-5 12,-6 24,-2 8,-10 5,1 -2,8 -11,-8 -11,-6 -24,-2 10,42 4,12 19,14 4,0 1,1 -4,7 -4,5 -9,10 -14,15 6,8 5,5 15,1 -8,15 -15,24 5,33 17,9 26,-25 37,-24 7,1 8,-16 8,-16 0,14 11,19 11,19 -9,-3 2,23 4,27 27,83 23,44 42,38 12,-4 10,-9 14,-23 5,-15 5,-15 0,-30 19,-1 -15,-1 7,-6 14,-3 3,-17 11,-5 1,3 5,-4 6,-5 -7,-9 -5,-7 7,-15 -30,-31 -23,-20 -18,-65 3,-33 1,-18 6,-12 5,5 26,-20 29,-23 4,-4 6,-6 8,-10 10,-14 9,-7 0,-22 5,-7 9,-14 14,-20 -8,-10 -5,-7 3,0 -1,-18 2,-8 21,-8 5,-1 -11,-21 14,9 3,4 1,11 1,15l0 4zm-117 -121c0,-10 -6,11 -5,12 9,1 13,-17 7,-9 -2,3 -1,-1 -2,-3zm90 -66c10,-10 -26,3 -8,4 4,0 4,-1 8,-4zm-99 60c-7,3 -6,14 -2,8 1,-1 2,-6 2,-8zm33 -8c3,-8 -6,-13 -7,1 0,6 5,1 7,-1zm-38 27c-10,8 4,3 4,-2 -1,0 -3,1 -4,2zm-12 4c-4,3 0,7 5,1 2,-3 -4,-2 -5,-1zm143 -97c7,-1 8,-2 0,0zm-82 52c4,-5 -1,-9 -5,-1 -1,4 4,2 5,1zm59 -35c-5,10 -5,10 0,0zm-223 320c0,-5 -1,-8 0,0zm94 -228c4,-4 3,-4 0,0zm-22 90c-4,0 -3,0 0,0zm98 -156c6,-9 -9,-3 -2,1 1,0 1,0 2,-1zm-39 21c-6,7 -5,7 0,0zm96 -52c-1,6 -1,5 0,0zm-138 150c-2,4 -2,3 0,0zm98 -128c3,-4 2,-3 0,0zm-9 6c-5,2 -5,3 0,0zm-138 192c-4,3 5,-2 0,0zm175 90c-8,8 -4,5 1,-1l-1 1zm-160 112c3,-16 14,-19 9,-28 -7,-13 17,-40 -16,-14 -10,9 -14,18 -13,32 1,10 2,0 7,12 3,10 10,8 13,-2zm32 -12c-24,-3 -5,25 0,4l1 -3 -1 -1zm-29 10c6,15 14,-5 3,-3 -4,0 -3,0 -3,3zm16 12c6,0 5,0 0,0zm8 3c-1,-3 -1,-3 0,0zm36 -12c4,3 3,3 0,0zm-49 5c-2,5 -2,5 0,0zm90 -45c8,-8 15,-27 1,-12 -3,4 -3,9 -2,13l1 -1zm-20 6c-1,4 -4,17 1,3 3,-7 8,-20 -1,-3zm98 -25c15,-4 -1,-2 -4,5 -8,17 -5,15 -17,3 -4,-3 -7,-2 -12,1 -4,3 -11,27 -8,31 6,12 -8,13 7,20 13,6 13,9 21,21 5,7 6,5 17,3 12,-3 9,0 11,-13 0,-5 7,-10 11,-14 -7,-7 -6,-8 -13,-15 13,11 5,8 20,6 5,-1 10,-4 12,-8 4,-6 -8,-26 -11,-33 0,-2 8,-36 9,-40 -10,-3 -24,-9 -33,-6 -13,3 -17,3 -22,14 -3,5 6,12 9,22 1,3 0,3 3,3zm-32 -9c1,10 2,8 10,1 7,-6 -7,-4 -10,-3l0 2zm8 -10c9,-3 -2,-6 -2,-6 0,2 0,5 1,6l1 0zm-31 -30c-4,-10 -5,-12 0,0zm-324 38c-8,6 -10,4 -6,14 2,-4 6,-10 7,-14l-1 0zm2 26c-9,-13 8,11 0,0zm62 -72c-2,25 1,5 0,-3l0 3zm-62 92c0,0 11,-1 3,-5 -2,-1 -3,4 -3,5zm37 -62c6,8 4,5 0,0l0 0zm-81 121c-2,5 2,5 8,8 -6,12 -8,11 2,11 -4,3 -9,5 -14,8 12,5 -10,5 4,7 8,1 -8,14 27,-2 16,-7 18,-15 17,-32 -1,-19 -16,-10 5,-19 -1,-11 -3,-16 -16,-11 -7,3 -4,14 -9,10 1,-5 16,-17 -1,-13 -14,3 -3,14 -6,15 -8,3 -18,1 -16,9 1,4 0,5 -1,9zm67 5c3,2 2,1 0,0zm-7 -111c-2,16 1,12 -10,15 4,16 6,11 -3,23 18,5 9,4 6,24 -1,5 5,-7 6,-8 1,29 3,18 19,24 4,1 -1,5 3,10 8,8 8,19 -4,24 -19,8 -6,9 -11,20 -4,7 -5,8 6,13 16,6 20,-7 -10,21 -13,11 8,3 16,1 18,-4 26,-4 44,-7 7,-1 13,-1 14,-10 -7,-6 -16,7 2,-20 9,-14 -18,1 -18,-19 0,-6 -6,-5 -6,-7 6,-3 9,3 5,-8 -3,-6 -11,-7 -19,-24 -7,-15 -5,-14 -23,-20 12,-4 11,-1 5,-7 20,-28 21,-20 -13,-25 5,-8 9,-16 14,-24 -4,0 -20,-1 -22,1l-1 3zm6 91c-3,3 -3,3 0,0z"/>
   <path class="fil11" d="M2248 1082l10 -1 -10 1 0 0zm0 0z"/>
   <path class="fil2" style="mask:url(#id2)" d="M2384 1028c-4,2 -3,2 0,0zm-548 -298l0 -6c3,0 5,-1 7,-2 -8,-9 11,-10 -7,-12l0 -15c1,0 1,0 0,0l0 -8c1,0 1,-1 2,-1 0,0 -1,-1 -2,-2l0 0c27,14 9,7 15,25 4,11 6,6 8,-1 11,-29 8,5 25,-15 9,11 9,14 8,-1 11,4 9,3 20,-2 0,-13 -1,-12 14,-1 2,-2 10,-7 9,-3 0,13 -7,11 4,18 8,4 13,15 6,18 -12,4 6,-1 -4,10 -2,2 -7,11 -10,11 -14,1 -11,1 -24,10 -16,10 -18,18 -35,12 -16,-5 2,-12 -30,-9 -13,1 18,-13 7,-15 -9,-2 -4,-7 -13,-11zm573 -368c-3,6 6,13 8,9 5,-7 7,-29 15,-42 12,-18 -1,-21 12,-36 7,-7 -6,-18 11,-25 51,-18 -5,-26 -11,-43 -2,-7 -4,-15 -8,-21 -8,4 -7,19 -4,-6 1,-13 -15,-31 -22,-22 -15,19 22,110 -8,34 -3,-6 -5,-13 -10,-18 -19,22 -1,34 -13,16 -7,-12 -17,0 -2,-12 4,-3 4,-6 4,-11 -24,-1 -12,19 -24,2 -12,3 -1,3 -9,15 -6,9 1,27 5,26 9,-3 5,-9 6,5 0,10 11,10 -1,10 -11,1 3,20 10,23 12,4 -8,1 3,16 6,8 21,-3 21,-10 0,-7 -5,-11 4,-10 6,-15 5,-9 7,6 13,-10 12,-12 12,3 18,11 -16,8 -28,29 -15,0 -2,12 4,12 6,0 35,-10 27,-1 -5,8 -18,4 -16,14 2,7 1,4 -12,7 7,16 4,16 17,22 4,2 3,4 2,8zm129 -176c3,-5 5,-11 7,-17 -9,-7 -18,-13 -28,-20 -6,7 -5,8 -6,0 -23,26 -11,12 -20,-9 -4,8 -2,25 -6,32 -5,-9 -3,-16 -9,-14 -14,5 -23,-32 -22,-11 1,21 -8,-7 -4,10 2,8 -7,6 -14,6 1,13 3,4 7,8 -7,7 -11,10 0,20 5,4 45,-9 29,-1 -19,9 11,19 -10,12 -18,-6 0,15 10,14 18,-1 13,-7 25,4 7,8 12,3 21,-3 16,-11 13,-13 20,-31zm-41 105c-7,-11 -8,-4 -25,1 -11,4 8,6 2,20 -9,23 -5,20 12,12 3,17 2,18 19,4 6,-5 7,-17 3,-23 -4,-5 -7,-9 -11,-14zm-143 -18c-3,-6 -7,-13 -10,-20 4,9 9,19 14,28 -1,-3 -3,-5 -4,-8zm118 -7c-14,5 -12,2 -6,16 4,10 18,3 17,-2 0,-5 -2,-10 -5,-14l-6 0zm84 -14l20 -6c-19,-5 -13,-8 -20,6zm42 -87c0,3 23,-7 21,-10 -8,-8 -16,5 -21,10zm-159 -10c1,-5 1,-5 0,0zm22 84c12,-5 -4,-9 -1,-3l1 3zm59 142c5,-11 3,-7 0,1l0 -1zm17 -128c4,14 2,9 0,-1l0 1zm-79 -35c-6,-5 -7,-5 0,0zm96 -58c1,10 3,15 0,0zm-182 860c-5,-3 -4,-2 0,0zm-16 -217c3,-2 -2,4 0,0zm102 -165c-3,0 -7,-1 0,0zm9 -8c0,3 -2,4 0,0zm49 138l-10 1 -19 27 0 -1c-4,5 -23,31 -23,35 0,6 2,45 4,47 2,2 16,9 18,10 1,15 0,12 18,7 4,-1 40,-11 41,-11 1,-1 36,-47 40,-53l7 -9 -20 -23 7 -10 -11 -24c8,-33 13,-16 0,-49 -3,-9 -1,-9 5,-20 22,-36 -16,-9 -1,-64 3,-10 2,-15 11,-13 -8,-9 -7,-10 -15,-3 1,-11 0,-9 -10,-14 9,-3 17,-4 26,-7 -10,-15 -8,-14 -25,-18 -15,17 -13,13 -7,-5 -16,-13 -6,5 -16,17 -6,8 -5,-13 -6,-14 -4,1 -25,46 -11,11 7,-19 -10,-14 -11,-13 -4,9 2,8 -9,17 -18,15 3,18 -21,9 -9,-3 -6,5 -5,11 -17,-8 -13,13 -13,13 0,0 -4,0 -9,5 -3,-2 7,-29 -3,-8 -2,4 1,-11 -6,-2 -2,4 5,18 -3,8 -2,-1 3,1 -6,3 -10,2 -3,12 -19,25 -1,2 19,11 -2,10 -13,-1 2,17 -9,5 -3,-3 -5,0 -7,2 7,12 -13,2 -1,9 3,2 1,4 0,6 7,13 -7,-3 -10,9 -1,5 14,4 1,5 -5,0 -12,4 -11,8 0,4 -1,4 -5,6 5,7 -5,0 -1,10 2,4 -4,6 5,3 -1,1 -21,11 -13,9 3,0 4,1 5,3 -5,0 -4,4 -5,9 -5,1 -5,3 -5,8 10,2 -2,2 -8,14 -5,9 -25,27 -18,31 3,3 18,-14 14,-3 -6,15 -23,1 -29,12 -4,6 -7,7 -5,12 -12,-1 4,7 -8,2 -7,-2 -13,0 -2,3 0,2 -10,4 -12,5 3,6 8,11 1,5 -8,7 -8,6 -18,5 1,9 5,6 14,7 -16,4 -17,2 -13,18 12,-5 12,-6 24,-2 8,-10 5,1 -2,8 -11,-8 -11,-6 -24,-2 10,42 4,12 19,14 4,0 1,1 -4,7 -4,5 -9,10 -14,15 6,8 5,5 15,1 -8,15 -15,24 5,33 17,9 26,-25 37,-24 7,1 8,-16 8,-16 0,14 11,19 11,19 -9,-3 2,23 4,27 27,83 23,44 42,38 12,-4 10,-9 14,-23 5,-15 5,-15 0,-30 19,-1 -15,-1 7,-6 14,-3 3,-17 11,-5 1,3 5,-4 6,-5 -7,-9 -5,-7 7,-15 -30,-31 -23,-20 -18,-65 3,-33 1,-18 6,-12 5,5 26,-20 29,-23 4,-4 6,-6 8,-10 10,-14 9,-7 0,-22 5,-7 9,-14 14,-20 -8,-10 -5,-7 3,0 -1,-18 2,-8 21,-8 5,-1 -11,-21 14,9 3,4 1,11 1,15l0 4zm-117 -121c0,-10 -6,11 -5,12 9,1 13,-17 7,-9 -2,3 -1,-1 -2,-3zm90 -66c10,-10 -26,3 -8,4 4,0 4,-1 8,-4zm-99 60c-7,3 -6,14 -2,8 1,-1 2,-6 2,-8zm33 -8c3,-8 -6,-13 -7,1 0,6 5,1 7,-1zm-38 27c-10,8 4,3 4,-2 -1,0 -3,1 -4,2zm-12 4c-4,3 0,7 5,1 2,-3 -4,-2 -5,-1zm143 -97c7,-1 8,-2 0,0zm-82 52c4,-5 -1,-9 -5,-1 -1,4 4,2 5,1zm59 -35c-5,10 -5,10 0,0zm-223 320c0,-5 -1,-8 0,0zm94 -228c4,-4 3,-4 0,0zm-22 90c-4,0 -3,0 0,0zm98 -156c6,-9 -9,-3 -2,1 1,0 1,0 2,-1zm-39 21c-6,7 -5,7 0,0zm96 -52c-1,6 -1,5 0,0zm-138 150c-2,4 -2,3 0,0zm98 -128c3,-4 2,-3 0,0zm-9 6c-5,2 -5,3 0,0zm-138 192c-4,3 5,-2 0,0zm175 90c-8,8 -4,5 1,-1l-1 1zm-160 112c3,-16 14,-19 9,-28 -7,-13 17,-40 -16,-14 -10,9 -14,18 -13,32 1,10 2,0 7,12 3,10 10,8 13,-2zm32 -12c-24,-3 -5,25 0,4l1 -3 -1 -1zm-29 10c6,15 14,-5 3,-3 -4,0 -3,0 -3,3zm16 12c6,0 5,0 0,0zm8 3c-1,-3 -1,-3 0,0zm36 -12c4,3 3,3 0,0zm-49 5c-2,5 -2,5 0,0zm90 -45c8,-8 15,-27 1,-12 -3,4 -3,9 -2,13l1 -1zm-20 6c-1,4 -4,17 1,3 3,-7 8,-20 -1,-3zm98 -25c15,-4 -1,-2 -4,5 -8,17 -5,15 -17,3 -4,-3 -7,-2 -12,1 -4,3 -11,27 -8,31 6,12 -8,13 7,20 13,6 13,9 21,21 5,7 6,5 17,3 12,-3 9,0 11,-13 0,-5 7,-10 11,-14 -7,-7 -6,-8 -13,-15 13,11 5,8 20,6 5,-1 10,-4 12,-8 4,-6 -8,-26 -11,-33 0,-2 8,-36 9,-40 -10,-3 -24,-9 -33,-6 -13,3 -17,3 -22,14 -3,5 6,12 9,22 1,3 0,3 3,3zm-32 -9c1,10 2,8 10,1 7,-6 -7,-4 -10,-3l0 2zm8 -10c9,-3 -2,-6 -2,-6 0,2 0,5 1,6l1 0zm-31 -30c-4,-10 -5,-12 0,0zm-324 38c-8,6 -10,4 -6,14 2,-4 6,-10 7,-14l-1 0zm2 26c-9,-13 8,11 0,0zm62 -72c-2,25 1,5 0,-3l0 3zm-62 92c0,0 11,-1 3,-5 -2,-1 -3,4 -3,5zm37 -62c6,8 4,5 0,0l0 0zm-81 121c-2,5 2,5 8,8 -6,12 -8,11 2,11 -4,3 -9,5 -14,8 12,5 -10,5 4,7 8,1 -8,14 27,-2 16,-7 18,-15 17,-32 -1,-19 -16,-10 5,-19 -1,-11 -3,-16 -16,-11 -7,3 -4,14 -9,10 1,-5 16,-17 -1,-13 -14,3 -3,14 -6,15 -8,3 -18,1 -16,9 1,4 0,5 -1,9zm67 5c3,2 2,1 0,0zm-7 -111c-2,16 1,12 -10,15 4,16 6,11 -3,23 18,5 9,4 6,24 -1,5 5,-7 6,-8 1,29 3,18 19,24 4,1 -1,5 3,10 8,8 8,19 -4,24 -19,8 -6,9 -11,20 -4,7 -5,8 6,13 16,6 20,-7 -10,21 -13,11 8,3 16,1 18,-4 26,-4 44,-7 7,-1 13,-1 14,-10 -7,-6 -16,7 2,-20 9,-14 -18,1 -18,-19 0,-6 -6,-5 -6,-7 6,-3 9,3 5,-8 -3,-6 -11,-7 -19,-24 -7,-15 -5,-14 -23,-20 12,-4 11,-1 5,-7 20,-28 21,-20 -13,-25 5,-8 9,-16 14,-24 -4,0 -20,-1 -22,1l-1 3zm6 91c-3,3 -3,3 0,0z"/>
  </g>
 </g>
</svg>
