<?xml version="1.0" encoding="UTF-8"?>
<!DOCTYPE svg PUBLIC "-//W3C//DTD SVG 1.1//EN" "http://www.w3.org/Graphics/SVG/1.1/DTD/svg11.dtd">
<!-- Creator: CorelDRAW X7 -->
<svg xmlns="http://www.w3.org/2000/svg" xml:space="preserve" width="14.382mm" height="2.93mm" version="1.1" style="shape-rendering:geometricPrecision; text-rendering:geometricPrecision; image-rendering:optimizeQuality; fill-rule:evenodd; clip-rule:evenodd"
viewBox="0 0 1438 293"
 xmlns:xlink="http://www.w3.org/1999/xlink">
 <defs>
  <style type="text/css">
   <![CDATA[
    .fil2 {fill:#838383}
    .fil1 {fill:#F05721}
    .fil0 {fill:#F7991B}
   ]]>
  </style>
 </defs>
 <g id="Capa_x0020_1">
  <metadata id="CorelCorpID_0Corel-Layer"/>
  <g id="_494648906912">
   <path class="fil0" d="M0 190l78 -77 69 69 87 -87c8,-9 31,-31 42,-41 22,-23 17,-11 17,-51 0,-2 0,-3 -2,-3l-291 0 0 190zm78 -7l34 33 0 -69 -15 15c0,0 0,0 0,0 -6,8 -13,12 -19,21z"/>
   <path class="fil1" d="M112 216l-34 -33c-6,4 -42,43 -55,54 -2,2 -2,2 -4,3 -23,24 -19,12 -19,53l293 0 0 -186c-4,1 -33,31 -36,35l-74 73c-8,9 -29,33 -36,37l-35 -36z"/>
   <g>
    <path class="fil2" d="M789 268c-10,0 -17,0 -25,-5 -14,-7 -14,-23 -7,-31 6,-7 21,-10 30,-10 11,-1 27,17 27,24 0,14 -11,22 -25,22zm40 -185l13 4c0,11 0,22 1,33 0,12 -2,19 -2,33l0 50c0,11 -1,6 -5,13 8,0 15,0 23,0 12,0 14,2 18,-5 -8,0 -7,-1 -15,-1 -4,-19 -1,-83 0,-107 1,-17 -1,-16 9,-25 -48,0 -26,4 -42,5zm65 85c0,-4 -5,-12 3,-25 8,-15 32,-14 37,5 -4,6 -8,7 -19,11 -5,2 -6,2 -11,5 -4,2 -7,2 -10,4zm-18 -3c0,21 4,40 25,51 15,7 42,5 54,-13 -11,3 -4,5 -24,5 -19,0 -36,-21 -37,-38 17,0 18,-3 31,-8 9,-3 19,-8 29,-11 -1,-19 -20,-26 -37,-26 -20,0 -41,20 -41,40zm81 38c0,0 0,-1 0,-1l0 0c0,0 0,1 0,1zm-299 -42c0,-30 34,-41 50,-13 19,33 4,76 -27,62 -15,-6 -23,-28 -23,-49zm-20 9c0,51 57,61 82,37 32,-31 15,-82 -34,-82 -24,0 -48,22 -48,45zm-83 -2l0 -13c0,-27 57,-45 57,31 0,18 -17,32 -34,24 -13,-5 -23,-24 -23,-42zm-20 0l0 10c0,34 51,57 83,28 14,-13 19,-34 11,-53 -2,-5 -6,-11 -10,-15 -27,-29 -84,-8 -84,30zm-139 -13c0,18 9,36 18,46 37,38 89,12 109,12 0,-40 -2,-27 7,-40 -18,0 -45,-3 -53,8 11,0 17,1 27,-1l0 30c-11,0 -3,3 -27,3 -31,0 -60,-29 -60,-60l0 -12c0,-34 38,-58 72,-43 7,4 10,8 16,12 -2,3 -3,4 -5,8 9,-2 8,-1 13,-7 4,-4 7,-6 9,-11 -26,-14 -31,-13 -60,-13 -36,0 -66,33 -66,68zm383 -20c24,0 36,55 5,55 -21,0 -35,-55 -5,-55zm2 61c0,20 1,10 3,20 -55,0 -60,40 -36,55 18,10 47,8 62,-2 21,-14 24,-38 6,-53 -4,-4 -16,-12 -17,-16 4,-14 22,-18 22,-34 0,-22 -1,-15 -12,-31 8,0 19,-1 22,-9 -38,0 -61,-3 -80,18 -13,14 -11,52 30,52z"/>
    <path class="fil2" d="M1317 125c0,9 0,9 7,9 1,-3 5,-13 -5,-13 -2,2 -2,1 -2,4zm2 85l6 0 0 -65 -6 0 0 65zm-123 0l8 0 0 -93 -8 0 0 93zm84 -66c-7,1 -8,0 -10,6l10 0c0,50 -5,62 24,62 5,0 4,-2 5,-7 -8,0 -16,2 -19,-3 -4,-6 -3,-43 -3,-52l20 0 0 -5c-22,0 -20,5 -20,-16l-3 0c-1,5 -3,10 -4,15zm55 33c0,40 37,37 44,34 5,-2 4,-2 4,-7 -10,0 -23,5 -33,-4 -12,-12 -9,-50 12,-50 21,0 20,6 21,-5 -6,0 -7,-1 -20,-1 -17,0 -28,16 -28,33zm57 -18c0,24 37,17 39,35 1,19 -39,8 -41,8l0 7c56,13 59,-23 31,-33 -14,-6 -21,-6 -21,-17 0,-14 26,-7 30,-6 6,1 5,1 6,-6 -15,-3 -10,-3 -26,-3 -8,0 -18,7 -18,15zm-319 -7l0 -7 -7 0 0 65 7 0c0,-23 -5,-60 18,-60 15,0 21,-1 21,29l0 31 7 0c0,-43 7,-66 -26,-66 -10,0 -15,4 -20,8zm152 81l-13 0c1,8 0,7 10,7 15,0 20,-24 27,-43l20 -52c-11,1 -7,1 -16,24 -3,7 -10,25 -11,31l-3 0c-1,-8 -8,-22 -10,-29 -2,-5 -4,-9 -6,-15 -3,-9 -1,-10 -11,-11 3,13 25,61 24,68 -1,6 -7,16 -11,20zm-73 -28c-24,0 -18,-26 5,-26l15 0c0,10 2,26 -20,26zm-15 -51c13,-1 36,-16 37,18 -25,0 -43,-1 -43,25 0,17 24,17 33,12 3,-2 7,-5 10,-7l0 8 7 0c0,-29 8,-79 -37,-64 -5,1 -6,1 -7,8zm-118 -19c6,4 15,32 15,39l-28 0c3,-11 13,-30 13,-39zm-36 75l8 0c2,-4 4,-10 6,-15 1,-4 2,-6 3,-9 4,-8 3,-6 34,-6 7,0 8,12 10,17 7,16 5,13 14,13l-34 -88 -6 0 -35 88z"/>
   </g>
  </g>
 </g>
</svg>
