<?xml version="1.0" encoding="UTF-8"?>
<!DOCTYPE svg PUBLIC "-//W3C//DTD SVG 1.1//EN" "http://www.w3.org/Graphics/SVG/1.1/DTD/svg11.dtd">
<!-- Creator: CorelDRAW X7 -->
<svg xmlns="http://www.w3.org/2000/svg" xml:space="preserve" width="14.361mm" height="12.469mm" version="1.1" style="shape-rendering:geometricPrecision; text-rendering:geometricPrecision; image-rendering:optimizeQuality; fill-rule:evenodd; clip-rule:evenodd"
viewBox="0 0 1436 1247"
 xmlns:xlink="http://www.w3.org/1999/xlink">
 <defs>
  <style type="text/css">
   <![CDATA[
    .fil3 {fill:#415BA1}
    .fil1 {fill:#6A7DBD}
    .fil4 {fill:#B0BBDC}
    .fil2 {fill:#BEBBB0}
    .fil0 {fill:#DAD8D0}
    .fil5 {fill:#EAE9E3}
    .fil6 {fill:white}
    .fil8 {fill:#415BA1;fill-rule:nonzero}
    .fil7 {fill:white;fill-opacity:0.501961}
   ]]>
  </style>
 </defs>
 <g id="Capa_x0020_1">
  <metadata id="CorelCorpID_0Corel-Layer"/>
  <g id="_495027746928">
   <path class="fil0" d="M526 582l0 235c212,5 582,-2 725,188 31,40 25,36 41,75l7 15 0 -1027 -7 16c-16,39 -10,35 -41,75 -143,190 -513,183 -725,187l0 236z"/>
   <path class="fil1" d="M32 582l-1 125 4 6c19,19 79,95 100,104l391 0 0 -235 0 -236 -391 0c-21,10 -81,85 -100,105l-4 6 1 125z"/>
   <path class="fil0" d="M283 924c17,51 55,120 78,172 34,74 41,121 128,115 41,-1 75,-9 80,-44 5,-36 -21,-266 -30,-306 -7,-28 1,-17 -11,-25l-232 76c-12,7 -5,0 -13,12z"/>
   <polygon class="fil2" points="283,924 523,840 245,840 "/>
   <path class="fil1" d="M611 891c-33,-58 -28,-51 -51,-51 -3,7 -2,0 -3,11l5 34c2,15 5,33 6,48 38,-1 68,0 43,-42z"/>
   <path class="fil3" d="M135 817l391 0 0 -102 -391 0c-21,-9 -81,-85 -100,-104l-4 -5 0 101 4 6c19,19 79,95 100,104z"/>
   <path class="fil2" d="M526 817c212,5 582,-2 725,188 31,40 25,36 41,75l7 38 0 -125 -7 -15c-16,-39 -10,-35 -41,-75 -143,-190 -513,-183 -725,-188l0 0 0 102z"/>
   <path class="fil4" d="M135 346l391 0 0 102 -391 0c-21,10 -81,85 -100,105l-4 5 0 -101 4 -6c19,-20 79,-95 100,-105z"/>
   <path class="fil5" d="M526 346c212,-4 582,3 725,-187 31,-40 25,-36 41,-75l7 -38 0 124 -7 16c-16,39 -10,35 -41,75 -143,190 -513,183 -725,187l0 0 0 -102z"/>
   <path class="fil6" d="M1299 170l0 823 0 102 0 15c1,6 2,13 2,20l93 0 4 -548 -4 -548 -93 0c0,7 -1,13 -2,20l0 14 0 102z"/>
   <path class="fil7" d="M255 840l38 84c17,51 55,120 78,172 9,20 16,39 24,54 16,33 33,55 70,60 10,2 21,2 34,1 3,0 7,0 10,0 -59,-7 -68,-51 -98,-115 -23,-52 -60,-121 -77,-172l-6 -12 -3 -6 -30 -66 230 0 0 0 -270 0z"/>
   <g>
    <path class="fil8" d="M1425 0c4,1 7,5 7,9l0 0 0 3 4 564 0 0 0 0 0 0 0 0 0 3 0 3 0 0 0 0 0 0 0 3 0 2 0 0 0 0 0 1 -4 564 0 3c0,5 -5,9 -9,9l-4 0 -139 -1 -3 0c-5,0 -9,-4 -9,-8l0 0 0 -4c-10,-137 -114,-209 -242,-248 -129,-40 -283,-46 -393,-50 1,3 3,5 4,8l0 0 0 0c9,17 19,35 18,56 -1,12 -4,20 -10,27 -5,7 -12,12 -21,16 -7,3 -15,5 -23,6 -5,0 -9,1 -14,1 1,10 3,22 5,35l0 1 0 0c4,33 10,72 12,108 3,37 1,71 -9,91 -4,9 -12,17 -21,23 -10,6 -21,11 -34,15 -13,3 -28,6 -43,6 -15,1 -30,1 -45,-1 -35,-5 -56,-15 -71,-30 -15,-15 -23,-35 -34,-59l0 -1c-1,-4 -3,-8 -5,-13 -2,-5 -4,-10 -6,-14 -14,-29 -29,-62 -43,-93 -15,-33 -30,-66 -42,-95 -11,-23 -20,-45 -27,-61 -5,-11 -9,-20 -11,-27 -10,0 -19,0 -26,0 -9,1 -17,1 -24,1l0 0 0 1 0 0 0 0 0 0c-22,1 -33,1 -45,-6 -13,-7 -24,-19 -45,-45 -1,0 -1,-1 -1,-1 -13,-15 -29,-34 -50,-57 -12,-14 -18,-29 -20,-46 -3,-16 -2,-35 -1,-56l0 -1 0 0 0 0 0 0 0 0c0,-11 0,-22 0,-37l1 -1 -1 -4 0 -5 0 -13 0 0 0 0 0 0 0 -1 0 -13 0 0 0 -5 0 0 1 -4 -1 0c0,-15 0,-27 0,-38l0 0 0 0 0 0c-1,-22 -2,-40 1,-56 2,-18 8,-33 20,-46 21,-24 37,-43 50,-57l0 -1c10,-12 18,-21 25,-29 7,-7 13,-12 19,-16 7,-4 13,-6 21,-6 7,-1 15,-1 26,0l1 0 0 0 0 0 0 0 0 0c11,1 24,1 42,1l0 0 2 0 0 0 412 0 1 0 0 0 2 0c56,1 123,-1 193,-7 70,-7 142,-18 208,-39 65,-21 124,-50 168,-91 43,-40 71,-93 76,-162l0 -3c0,-5 5,-9 10,-8l2 0 67 -1 78 0zm11 588c0,5 -4,8 -9,8l9 -8zm-1273 265l0 0 0 0zm-91 -51c-1,-1 -2,-2 -2,-4l2 4zm-71 -234c0,-2 1,-3 2,-5l-2 5zm620 -257c1,0 1,1 2,1l-2 -1zm-576 192c0,12 0,25 0,38 0,13 0,27 0,41l0 0 0 0 0 0 0 1c0,13 0,26 0,39 0,14 0,27 0,39 1,11 1,21 2,29 1,6 2,11 3,12l3 5c7,8 17,20 29,35l0 0 0 0 0 0 0 0 0 0c20,25 44,55 56,63l388 0 0 0 0 0 1 0 21 0 23 0c109,2 247,5 375,29 129,24 248,71 316,163 8,10 15,20 21,30 6,11 11,21 15,32 4,10 8,21 10,32 2,9 4,17 4,26l70 0 3 -535 -3 -536 -70 0c0,9 -2,18 -4,26 -2,11 -6,22 -10,33 -4,10 -9,21 -15,31 -6,11 -13,21 -21,31 -37,49 -87,86 -146,113 -58,27 -124,45 -193,57 -68,12 -138,18 -207,20 -67,3 -132,2 -190,2l-388 0c-6,3 -14,12 -23,22 -11,13 -22,27 -33,41l0 0 0 0 0 0c-12,14 -22,27 -29,34l-3 5c-1,2 -2,7 -3,13 -1,8 -1,18 -2,29zm476 349l-257 1 30 66 0 0 0 0 1 0c0,0 0,1 0,1 5,16 13,35 22,54l0 1c9,18 18,38 28,58 4,8 8,16 14,29 5,10 9,20 13,28l1 1 4 10 0 1 0 -1 5 11 0 1c12,28 22,52 37,67 15,14 35,21 69,19l1 0 0 0 0 0 0 0c10,-1 19,-1 27,-3 8,-1 15,-3 21,-6 6,-2 10,-5 13,-9 3,-4 6,-10 7,-16 1,-7 0,-21 -1,-40 -1,-23 -4,-52 -8,-82 -4,-37 -8,-76 -13,-109 -5,-33 -9,-59 -11,-70l-1 -1c-1,-4 -1,-8 -2,-10l0 -1z"/>
   </g>
  </g>
 </g>
</svg>
