<?xml version="1.0" encoding="UTF-8"?>
<!DOCTYPE svg PUBLIC "-//W3C//DTD SVG 1.1//EN" "http://www.w3.org/Graphics/SVG/1.1/DTD/svg11.dtd">
<!-- Creator: CorelDRAW X7 -->
<svg xmlns="http://www.w3.org/2000/svg" xml:space="preserve" width="14.092mm" height="10.644mm" version="1.1" style="shape-rendering:geometricPrecision; text-rendering:geometricPrecision; image-rendering:optimizeQuality; fill-rule:evenodd; clip-rule:evenodd"
viewBox="0 0 1409 1064"
 xmlns:xlink="http://www.w3.org/1999/xlink">
 <defs>
  <style type="text/css">
   <![CDATA[
    .fil0 {fill:#14365B}
    .fil1 {fill:#1A0000;fill-opacity:0.101961}
    .fil2 {fill:black;fill-opacity:0.250980}
   ]]>
  </style>
 </defs>
 <g id="Capa_x0020_1">
  <metadata id="CorelCorpID_0Corel-Layer"/>
  <g id="_495118628400">
   <path class="fil0" d="M0 0c31,78 24,169 26,270 1,50 3,114 5,179 7,260 135,465 404,478 26,3 200,-9 213,-4 18,6 16,38 16,54 -2,63 48,103 111,82l279 -140c53,-27 109,-48 110,-108 0,-9 0,-18 0,-28l111 -3 74 97c12,14 33,17 47,5 15,-11 17,-32 6,-46l-70 -91 65 -93c11,-15 7,-36 -8,-47 -15,-10 -36,-7 -46,9l-70 100 -24 0 0 0 -87 3c0,-7 0,-14 0,-21 1,-37 -17,-64 -46,-83 -17,-12 -37,-19 -58,-28l-287 -125c-50,-20 -110,3 -120,61 -7,41 26,77 -47,80l-101 4c-110,5 -139,-54 -148,-137 -6,-57 -7,-116 -9,-173 -2,-104 -4,-202 -24,-295l-322 0z"/>
   <path class="fil1" d="M634 844c-242,17 -507,15 -590,-276 15,82 46,155 92,214 66,84 164,138 297,145 0,0 0,0 1,0 0,0 0,0 1,0 0,0 0,0 1,0 12,1 51,0 93,-2 54,-2 112,-5 119,-2 18,6 16,38 16,54 -2,63 48,103 111,82l220 -110c7,-5 -266,100 -266,-29 -1,-48 -36,-76 -95,-76zm584 -129l-56 2 2 66 54 -1c-12,-9 -13,-50 0,-67z"/>
   <path class="fil2" d="M145 420c62,52 136,80 213,92 0,-1 0,-1 0,-1 0,-1 0,-1 0,-1 0,-5 -1,-9 -1,-13 -2,-20 -1,-16 -2,-29 -5,-46 -6,-93 -8,-140 -74,51 -126,72 -202,92zm-18 -263c61,52 142,87 219,100 -2,-66 -5,-130 -13,-192 -76,52 -129,73 -206,92z"/>
  </g>
 </g>
</svg>
