<?xml version="1.0" encoding="UTF-8"?>
<!DOCTYPE svg PUBLIC "-//W3C//DTD SVG 1.1//EN" "http://www.w3.org/Graphics/SVG/1.1/DTD/svg11.dtd">
<!-- Creator: CorelDRAW X7 -->
<svg xmlns="http://www.w3.org/2000/svg" xml:space="preserve" width="9.606mm" height="9.163mm" version="1.1" style="shape-rendering:geometricPrecision; text-rendering:geometricPrecision; image-rendering:optimizeQuality; fill-rule:evenodd; clip-rule:evenodd"
viewBox="0 0 961 916"
 xmlns:xlink="http://www.w3.org/1999/xlink">
 <defs>
  <style type="text/css">
   <![CDATA[
    .fil1 {fill:#14365B}
    .fil2 {fill:#1A0000;fill-opacity:0.101961}
    .fil0 {fill:black;fill-opacity:0.168627}
    .fil3 {fill:black;fill-opacity:0.250980}
   ]]>
  </style>
 </defs>
 <g id="Capa_x0020_1">
  <metadata id="CorelCorpID_0Corel-Layer"/>
  <g id="_495027792944">
   <path class="fil0" d="M331 41l0 0c-119,-26 -229,-41 -331,-41l0 48c2,-1 5,-1 7,-2 4,-1 8,-2 12,-2l8 -2c4,-1 8,-2 12,-2 4,-1 7,-1 11,-2 4,-1 8,-1 12,-2 3,0 6,-1 9,-1 4,-1 7,-1 11,-2 3,0 5,0 8,-1 5,0 11,-1 16,-1 3,-1 6,-1 9,-1 4,0 7,-1 11,-1 2,0 5,0 8,0 6,-1 11,-1 17,-1 3,0 6,0 8,0 4,-1 7,-1 11,-1 3,0 6,0 9,0 5,0 10,0 15,0 3,0 6,0 10,1 3,0 7,0 10,0 3,0 6,0 9,0 4,1 8,1 12,1 4,0 8,1 13,1 3,0 7,1 10,1 4,0 7,1 10,1 3,0 7,1 10,1 4,1 8,1 12,2 4,0 9,1 13,1 3,1 6,1 9,2 3,0 7,1 10,2 3,0 6,1 9,1l0 0zm233 875l-183 0c104,-226 -95,-484 -381,-428l0 -15 1 -1 0 0 2 -1 3 -1 0 0 3 -2 3 -1 3 -1 0 0 2 -2 3 -1 3 -1 0 0 3 -1 0 0 3 -2 0 0 3 -1 3 -1 0 0 3 -1 3 -1 0 0 3 -1 0 0 2 -1 3 -1 0 0 3 -1 0 0 3 -1 0 0 3 -1 3 -1 3 -1 0 0 3 -1 3 -1 4 -1 0 0 3 0 0 0 3 -1 3 -1 0 0 3 -1 3 0 3 -1 3 -1 3 0 3 -1 0 0 3 -1 0 0 4 0 0 0 3 -1 0 0 3 0 0 0 3 -1 3 0 0 0 3 -1 0 0 4 0 0 0 3 -1 0 0 3 0 0 0 3 0 4 -1 0 0 3 0 3 0 0 0 3 -1 4 0 3 0 3 0 3 0 4 -1 3 0 5 0 5 0 5 0 5 0 6 0 5 1 5 0 5 0 5 1 0 0 5 0 5 0 5 1 5 1 5 0 5 1 4 1 0 0 5 1 5 1 0 0 5 1 5 1 0 0 5 1 0 0 4 1 5 1 5 2 0 0 4 1 5 1 5 2 4 1 5 2 4 1 5 2 0 0 4 2 0 0 5 1 4 2 0 0 5 2 0 0 4 2 0 0 5 2 0 0 4 2 4 2 4 2 0 0 5 2 4 3 0 0 4 2 4 2c3,2 6,3 8,5l5 2 0 0 4 3 0 0c2,2 5,3 8,5 14,10 28,20 41,32l0 0c3,3 7,6 10,9 4,3 7,7 10,10l0 0c3,2 5,5 7,7l0 0c3,3 6,7 9,10 2,3 4,5 6,8l3 3 3 4 0 0 3 4 3 3c5,7 9,13 14,20l0 0 2 4 3 4 0 0 2 4 3 4 2 4 0 0 3 4 0 0 2 4 2 4 2 5 3 4 0 0 2 4 0 0 2 4 2 5 2 4 0 0 2 5 0 0 2 4 1 5 2 4 0 0 2 5 1 4 2 5 2 4 1 5 1 5 2 4 1 5 1 5 2 4 1 5 1 5 1 5 1 5 1 5 1 5 0 4 1 5 1 5 0 5 1 5 0 5 1 5 0 5 1 5 0 6 0 5c0,3 0,6 0,10l0 5 0 4c0,3 0,5 0,8l0 2c0,3 0,6 -1,8l0 1c-1,23 -5,45 -10,65z"/>
   <path class="fil1" d="M0 473c51,-26 108,-41 169,-43 110,-3 210,38 283,107 73,69 120,166 123,276 1,38 -3,72 -11,103l390 0c5,-46 8,-96 6,-151 -6,-220 -83,-381 -232,-522 -203,-191 -478,-252 -728,-195l0 425z"/>
   <path class="fil2" d="M619 916l-55 0c8,-31 12,-65 11,-103 -3,-110 -50,-207 -123,-276 -73,-69 -173,-110 -283,-107 -61,2 -118,17 -169,43l0 -19c195,-148 414,-109 542,23 109,113 146,288 77,439z"/>
   <path class="fil3" d="M863 409c-71,89 -106,136 -186,202 88,31 177,31 269,20 -15,-82 -43,-155 -83,-222zm-546 -370c23,106 23,176 10,272 89,-47 157,-119 207,-203 -65,-31 -133,-54 -203,-67 -5,-1 -9,-2 -14,-2zm311 124c-25,103 -38,159 -82,248 98,-9 173,-38 255,-90 -22,-27 -46,-53 -73,-78 -32,-30 -65,-57 -100,-80z"/>
  </g>
 </g>
</svg>
