<?xml version="1.0" encoding="UTF-8"?>
<!DOCTYPE svg PUBLIC "-//W3C//DTD SVG 1.1//EN" "http://www.w3.org/Graphics/SVG/1.1/DTD/svg11.dtd">
<!-- Creator: CorelDRAW X7 -->
<svg xmlns="http://www.w3.org/2000/svg" xml:space="preserve" width="21.778mm" height="22.057mm" version="1.1" style="shape-rendering:geometricPrecision; text-rendering:geometricPrecision; image-rendering:optimizeQuality; fill-rule:evenodd; clip-rule:evenodd"
viewBox="0 0 2178 2206"
 xmlns:xlink="http://www.w3.org/1999/xlink">
 <defs>
  <style type="text/css">
   <![CDATA[
    .fil1 {fill:#14365B}
    .fil2 {fill:#1A0000;fill-opacity:0.101961}
    .fil0 {fill:black;fill-opacity:0.168627}
    .fil3 {fill:black;fill-opacity:0.250980}
   ]]>
  </style>
 </defs>
 <g id="Capa_x0020_1">
  <metadata id="CorelCorpID_0Corel-Layer"/>
  <g id="_494841458736">
   <path class="fil0" d="M690 596l0 0c-42,372 29,637 368,791 66,30 132,51 201,66 135,28 209,33 337,50 198,27 451,132 407,355 5,-13 9,-27 13,-40l0 -2 0 -1c1,-2 1,-4 2,-6l0 -2 0 -1 0 -2 0 0c1,-3 1,-6 2,-9l0 0 0 -2 0 0 1 -2 0 -1 0 -1 1 -5 0 0 0 -1 0 -1 0 -1 0 -1 0 -1 0 -2 0 -1 1 -1 0 -1 0 -1 0 -2 0 0 0 -2 0 -1 0 -2 0 0 0 -2 0 0 1 -2 0 0 0 -3 0 0 0 -2 0 0 0 -2 0 -1 0 -2 0 0 0 -2 0 0 0 -2 0 -1 0 -1 0 -1 0 -3 0 0 0 -1 0 -1 0 0 0 -5 0 -1 0 -1 0 -3 0 0 0 -2 0 -1 0 -1 0 -1 0 -2 0 0 -1 -2 0 -1 0 -2 0 0 0 -2 0 -2 0 -3 -1 -2 0 0 0 -2 0 -3 0 -2 -1 -2 0 0 0 -3 0 -2 0 0 -1 -2 0 -3 0 -2 -1 -2 0 -3 -1 -2 0 -2 0 0 -1 -3 0 0 0 -2 0 0 -1 -2 0 0 0 -2 0 0 -1 -3 0 -2 -1 -2 0 0 0 -3 -1 -2 -1 -2 0 -2 -1 -3 -1 -2 0 -2 0 0 -1 -3 -1 -2 0 0 -1 -2 0 -2 0 0c-1,-2 -1,-3 -2,-5l0 0 -1 -2 -1 -2 -1 -2 0 -3 -1 -2 -1 -2 -1 -2 0 0 -1 -3 0 0 -1 -2 -1 -2 -1 -2 -1 -2 0 0 -1 -2 0 0 -1 -3 0 0 -1 -2 -2 -2 0 0 -1 -2 0 0 -1 -2 0 0 -1 -2 0 0 -1 -2 0 0 -1 -3 0 0 -2 -2 0 0 -1 -2 0 0 -1 -2 0 0 -1 -2 0 0 -2 -2 0 0 -1 -2 0 0 -1 -2 0 0c-1,-2 -2,-3 -3,-5l0 0c-1,-1 -2,-2 -3,-4l0 0c-1,-1 -2,-3 -3,-4l0 0 -3 -4 0 0c-1,-2 -2,-3 -3,-4l0 0c-1,-2 -2,-3 -3,-4l-1 0c-1,-2 -2,-3 -3,-5l0 0c-1,-1 -2,-2 -3,-4l0 0c-1,-1 -3,-2 -4,-4l0 0c-1,-1 -2,-2 -3,-4l0 0c-1,-1 -3,-2 -4,-4l0 0c-1,-1 -2,-2 -4,-4l0 0c-1,-1 -2,-2 -3,-3l0 0c-2,-2 -3,-3 -4,-4l0 0c-2,-2 -3,-3 -4,-4l0 0c-2,-1 -3,-3 -4,-4l0 0c-2,-1 -3,-2 -5,-4l0 0c-1,-1 -2,-2 -4,-3l0 0c-1,-2 -3,-3 -4,-4l0 0c-2,-1 -3,-2 -5,-4l0 0c-1,-1 -3,-2 -4,-3l0 0c-2,-1 -3,-3 -5,-4l0 0c-1,-1 -3,-2 -4,-3l0 0c-2,-1 -4,-3 -5,-4l0 0c-2,-1 -3,-2 -5,-3l0 0c-2,-1 -3,-2 -5,-4l0 0c-2,-1 -3,-2 -5,-3l0 0c-2,-1 -4,-2 -5,-3l0 0c-2,-1 -4,-2 -5,-3l0 0c-2,-1 -4,-3 -6,-4l0 0c-2,-1 -3,-2 -5,-3l0 0c-2,-1 -4,-2 -6,-3l0 0c-2,-1 -3,-2 -5,-3l0 0c-2,-1 -4,-2 -6,-3l0 0c-2,-1 -4,-2 -6,-3l0 0c-2,-1 -4,-2 -6,-3l0 0 -6 -3 0 0c-2,0 -4,-1 -6,-2l0 0c-2,-1 -4,-2 -6,-3l0 0c-2,-1 -4,-2 -6,-3l0 0c-2,-1 -4,-2 -6,-2l0 0c-2,-1 -5,-2 -7,-3l0 0c-2,-1 -4,-2 -6,-2l0 0c-2,-1 -5,-2 -7,-3l0 0c-2,-1 -4,-2 -6,-2l0 0c-3,-1 -5,-2 -7,-3l0 0 -7 -2 0 0c-2,-1 -5,-1 -7,-2l0 0c-2,-1 -5,-2 -7,-2l0 0c-3,-1 -5,-2 -7,-3l0 0c-3,0 -5,-1 -8,-2l0 0c-2,0 -4,-1 -7,-2l0 0c-2,0 -5,-1 -7,-1l0 0c-3,-1 -5,-2 -8,-2l0 0 -8 -2 0 0c-2,-1 -5,-1 -7,-2l0 0c-3,0 -6,-1 -8,-2l0 0c-3,0 -5,-1 -8,-1l0 0c-3,-1 -5,-1 -8,-2l0 0c-3,0 -6,-1 -8,-1l0 0c-3,-1 -6,-1 -9,-2l0 0c-2,0 -5,0 -8,-1l0 0c-3,0 -5,-1 -8,-1l0 0c-3,-1 -6,-1 -9,-1l0 0 -6 -1 0 0 -6 -1 0 0 -5 -1 0 0 -6 0 0 0 -6 -1 -5 -1 0 0 -6 -1 -5 0 0 0 -6 -1 -5 -1 0 0 -5 0 -6 -1 -5 -1 -5 0 -5 -1 0 0 -5 0 0 0 -5 -1 -5 -1 0 0 -5 0 0 0 -5 -1 0 0 -5 -1 -5 0 -5 -1 0 0 -5 0 0 0 -5 -1 0 0 -4 -1 0 0 -5 0 -5 -1 -5 -1 -5 0 0 0 -5 -1 0 0 -4 0 -5 -1 0 0 -5 -1 0 0 -5 0 0 0 -5 -1 -4 -1 0 0 -5 -1 -5 0 0 0 -5 -1 0 0 -5 -1 0 0 -5 0 0 0 -5 -1 0 0 -5 -1 0 0 -5 -1 0 0 -5 -1 0 0 -5 -1 -6 0 0 0 -5 -1 0 0 -5 -1 0 0 -6 -1 0 0 -5 -1 -5 -1 0 0 -6 -1 0 0 -6 -1 0 0 -5 -1 0 0 -6 -1 0 0 -6 -1 -6 -2 0 0 -6 -1 0 0 -6 -1 0 0 -6 -1 0 0 -6 -1 0 0 -6 -2 0 0 -3 0 0 0 -4 -1 0 0 -3 -1 0 0 -3 0 0 0 -3 -1 0 0 -4 -1 -3 -1 0 0 -3 0 0 0 -3 -1 0 0 -3 -1 -4 -1 0 0 -3 -1 0 0 -3 0 -3 -1 -4 -1 -6 -2 0 0 -3 0 0 0 -3 -1 -3 -1 0 0 -4 -1c-3,-1 -6,-2 -9,-3l-3 -1 0 0 -3 -1 -4 -1 0 0 -3 -1 -3 -1 -3 -1 0 0 -3 -1 -6 -2 0 0 -4 -1 0 0 -3 -1 0 0 -3 -1 -3 -1 0 0 -3 -1 0 0 -3 -1 -3 -1 -3 -1 0 0 -3 -1 0 0 -4 -1 -3 -2 -3 -1 0 0 -3 -1 0 0 -3 -1 -3 -1 -3 -1 0 0 -3 -2 0 0 -3 -1 -3 -1 -4 -1 -3 -2 -3 -1 -3 -1 0 0 -3 -1 -3 -2 -3 -1 -3 -1 -3 -2 0 0 -3 -1 -3 -2 -3 -1c-6,-2 -11,-5 -16,-7l-5 -3c-4,-2 -9,-4 -13,-7l-3 -1c-5,-3 -10,-5 -15,-8l-4 -2c-4,-3 -8,-5 -12,-8l-4 -2c-5,-3 -9,-6 -14,-9l-3 -2c-4,-2 -8,-5 -12,-8l-3 -2c-5,-3 -10,-7 -14,-10l-3 -2c-4,-3 -8,-6 -12,-9l-3 -2c-4,-4 -9,-7 -13,-11l-1 -1c-4,-3 -8,-6 -12,-10l-4 -3c-4,-4 -7,-7 -11,-10l-1 -1c-4,-4 -8,-8 -12,-12l-3 -3c-4,-3 -7,-6 -10,-10l-3 -2c-3,-4 -7,-8 -11,-12l-3 -4c-3,-3 -5,-6 -8,-9l-3 -4c-3,-4 -7,-8 -10,-12l-3 -3c-3,-4 -5,-7 -8,-10l-3 -4c-3,-4 -6,-9 -9,-13l-2 -3c-3,-4 -5,-7 -8,-11l-3 -4c-2,-4 -5,-8 -7,-12l-3 -4c-2,-3 -4,-7 -7,-11l-3 -5c-2,-3 -4,-7 -6,-10 0,-1 -1,-3 -2,-4 -2,-4 -5,-9 -7,-13l-3 -6c-2,-3 -3,-6 -5,-10l-2 -4c-3,-5 -5,-9 -7,-14l-2 -5c-2,-4 -3,-7 -5,-10l-2 -6c-2,-4 -4,-9 -6,-13 0,-2 -1,-4 -2,-6 -1,-3 -2,-6 -3,-9l-3 -6c-1,-4 -2,-8 -4,-12 -1,-3 -1,-5 -2,-8 -1,-3 -2,-6 -3,-9l-2 -7c-1,-3 -2,-7 -3,-10 -1,-3 -2,-6 -3,-9 -1,-3 -2,-7 -2,-10 -1,-3 -2,-5 -2,-7 -1,-3 -2,-6 -2,-10 -1,-2 -1,-4 -2,-6 -1,-4 -2,-9 -3,-14 0,-2 -1,-4 -1,-7 -1,-3 -1,-6 -2,-8 0,-3 0,-5 -1,-8 0,-4 -1,-9 -2,-14 0,-2 0,-4 -1,-7 0,-2 0,-5 -1,-8 0,-3 0,-5 -1,-8 0,-4 -1,-8 -1,-13 0,-2 0,-5 -1,-8 0,-3 0,-5 0,-8 0,-3 0,-6 -1,-8 0,-3 0,-7 0,-10 0,-4 0,-7 0,-11 0,-3 0,-6 0,-9 0,-2 0,-5 0,-8 0,-3 0,-6 0,-8 0,-4 0,-7 0,-11 0,-3 0,-7 0,-10 0,-3 1,-6 1,-8 0,-3 0,-6 0,-9 1,-2 1,-5 1,-7l0 0zm1488 266l0 98c-125,17 -240,-32 -334,-99 -124,-89 -211,-238 -343,-337 -230,-172 -515,62 -396,347l-1 0 0 -1 0 0 0 0 0 0 -1 -1 0 0 0 0 0 0 0 0 0 -1 -1 0 0 0 0 0 0 -1 -1 0 0 0 0 0 0 0 0 -1 0 0 -1 0 0 0 0 -1 0 0 0 0 0 0 -1 0 0 -1 0 0 0 0 0 0 -1 -1 0 0 0 0 0 0 0 0 0 -1 -1 0 0 0 0 -1 0 0 -1 0 0 -1 -1 -1 0 0 0 0 0 0 0 -1 -2 -1 0 0 0 -1 0 0 0 0 0 0 -1 -1 0 0 0 0 0 0 -2 -2 -1 -3 -2 -2 -1 -2 -2 -2 -1 -2 -2 -2 -1 -3 -1 -2 0 0 -2 -2 -1 -2 0 0 -1 -2 -2 -3 -1 -2 0 0 -1 -2 -2 -2 -1 -3 0 0 -1 -2 0 0 -1 -2 0 0 -2 -3 -1 -2 0 0 -1 -2 -1 -3 0 0 -1 -2 0 0 -1 -2 -2 -3 0 0 -1 -2 0 0 -1 -3 0 0 -1 -2 -1 -2 -1 -3 0 0 -1 -2 -1 -3 -1 -2 0 0 -1 -3 0 0 -1 -2 -1 -3 0 0 0 -2 -1 -3 -1 -2 -1 -3 -1 -2 -1 -3 0 0 0 -3 0 0 -1 -2 0 0 -1 -3 0 0 -1 -2 0 0 0 -3 -1 -3 0 0 -1 -2 0 0 0 -3 0 0 -1 -3 0 0 -1 -2 0 0 0 -3 -1 -3 0 0 0 -2 -1 -3 0 0 0 -3 -1 -2 0 -3 -1 -3 0 -2 0 -3 -1 -3 0 -4 -1 -5 0 -4 -1 -4 0 -4 0 -5 0 -4 -1 -4 0 -4 0 0 0 -5 0 -4 0 -4 0 -4 1 -4 0 -5 0 -4 0 0 0 -4 1 -4 0 0 0 -4 1 -4 0 0 0 -4 0 0 1 -4 0 -4 1 -4 0 0 1 -5 0 -4 1 -4 1 -4 1 -3 1 -4 1 -4 0 0 1 -4 0 0 1 -4 1 -4 0 0 1 -4 0 0 2 -4 0 0 1 -4 0 0 1 -3 2 -4 1 -4 0 0 1 -4 2 -3 0 0 2 -4 1 -4c1,-2 2,-5 3,-7l2 -4 0 0 2 -3 0 0c1,-3 2,-5 4,-7 6,-13 14,-26 22,-37l0 0c3,-4 5,-7 7,-10 3,-3 5,-6 8,-9l0 0c2,-2 3,-4 5,-6l0 0c3,-3 5,-6 8,-9 2,-2 4,-4 5,-6l3 -3 3 -2 0 0 3 -3 3 -3c5,-4 10,-9 15,-13l0 0 3 -3 3 -2 0 0 3 -2 3 -3 4 -2 0 0 3 -3 0 0 3 -2 4 -2 3 -2 3 -2 0 0 4 -3 0 0 3 -2 4 -2 3 -2 0 0 4 -2 0 0 3 -2 4 -2 3 -1 0 0 4 -2 4 -2 3 -2 4 -1 4 -2 4 -2 3 -1 4 -2 4 -1 4 -1 4 -2 4 -1 4 -1 4 -2 4 -1 4 -1 4 -1 4 -1 4 -1 4 -1 4 -1 4 -1 5 -1 4 0 4 -1 4 -1 4 0c3,-1 6,-1 9,-1l4 -1 4 0c2,0 4,0 6,0l2 -1c2,0 5,0 7,0l0 0c154,-6 232,104 340,217l0 0c8,8 15,16 23,24 46,47 66,76 121,125 3,3 6,5 9,7 105,102 218,163 339,166zm0 1344l0 0 0 0 0 0zm-951 0l-172 0c-43,-45 -77,-84 -110,-110l0 0c-25,-18 -49,-30 -75,-30l0 0 -2 0 0 0c-3,0 -5,0 -7,0l0 0c-3,0 -5,0 -7,1l-1 0 -1 0 -1 0 -2 1 0 0c-2,0 -3,0 -5,1l0 0 -2 0 -1 0 -1 1 -1 0 -2 1 0 0 -2 0 -1 0 -2 1 0 0c-2,1 -3,1 -5,2l0 0 -1 0 -2 1 0 0 -3 1 0 0 -2 1 -1 0 -2 1 0 1 -2 1 -2 1 -1 0 0 0 -3 1 0 0 -3 2 0 0 -2 1 0 0 -3 2 0 0 -3 2c-40,23 -90,67 -144,117l-161 0 190 -183 0 0 48 -46 0 0 3 -3 0 0 4 -4 0 0 4 -3 0 0 3 -3 0 0 4 -3 0 0 4 -4 0 0 4 -3 0 0 3 -3 0 0 4 -2 0 0c1,-1 2,-2 4,-3l0 0 3 -3c138,-105 219,11 303,107l0 0 8 9 0 0 7 8c9,9 17,17 26,26l0 0c6,6 11,12 17,18l0 0c6,6 11,12 17,18l0 0c9,8 17,17 26,26l0 0 9 8c5,6 11,12 17,18l0 0c3,2 6,5 9,8l0 0c3,3 6,6 9,8l0 0c3,3 6,6 9,9l0 0 0 0z"/>
   <path class="fil1" d="M492 2206l238 -229c78,-74 162,-102 248,-22 36,33 73,73 110,112 46,47 91,95 139,139l16 0 935 0 0 0 0 -915c-288,-299 -623,-185 -958,-332 -51,-23 -95,-59 -128,-104 -33,-45 -55,-98 -63,-157 -12,-92 14,-179 65,-246 52,-67 129,-114 220,-126 176,-23 257,94 372,214 36,38 85,86 133,136 107,110 232,180 359,188l0 -354c-33,-5 -63,-25 -94,-52 -45,-40 -89,-85 -131,-129 -189,-196 -355,-368 -711,-321 -184,24 -312,102 -417,238 -261,340 -137,844 255,1022 65,30 131,51 201,65 135,28 209,34 336,51 183,24 298,97 358,189 28,44 44,93 48,143 4,51 -4,103 -23,150 -41,102 -134,186 -266,203 -156,21 -279,-108 -401,-236 -66,-70 -137,-146 -217,-201 -87,-60 -180,-91 -279,-85 -60,3 -119,19 -177,51 -97,52 -180,149 -261,227 -71,68 -290,260 -399,381l492 0z"/>
   <path class="fil2" d="M2178 1286c-17,-17 -36,-34 -55,-50 20,21 38,44 55,67l0 -17zm-1686 920l-131 0 303 -292c77,-74 162,-102 248,-22 16,15 33,32 49,49 -80,-62 -159,-34 -231,36l-238 229zm537 -1508c-12,-92 14,-179 65,-246 52,-67 129,-114 220,-126 126,-17 204,38 280,115 -155,-240 -426,-214 -557,-59 -112,133 -116,352 86,509 -7,-6 -13,-13 -18,-20 -5,-5 -9,-11 -13,-16 -33,-45 -55,-98 -63,-157z"/>
   <path class="fil3" d="M1886 571c85,-4 164,-35 232,-82 0,0 -1,0 -1,0 0,0 0,-1 0,-1 -4,-3 -7,-6 -11,-9 -15,-14 -12,-12 -22,-21 -37,-32 -72,-68 -107,-104 -20,93 -46,147 -91,217zm-934 -452c81,52 123,77 185,139 18,-76 11,-151 -7,-227 -67,20 -125,49 -178,88zm665 1265c70,9 130,25 181,47 -3,-11 -6,-22 -9,-33 -18,-73 -20,-127 -14,-199 -58,35 -104,83 -139,138 -9,15 -18,30 -26,46 2,0 5,0 7,1zm-300 -43c73,14 129,21 190,29 -31,-77 -37,-137 -40,-223 -66,51 -120,117 -150,194zm-237 -73c38,18 77,32 116,44 -2,-15 -3,-29 -4,-43 -5,-67 2,-119 16,-184 -68,28 -125,75 -171,131 -5,7 -11,14 -16,22 19,11 38,21 59,30zm-391 -661c87,-28 146,-34 227,-31 -47,-70 -113,-121 -187,-156 -21,57 -34,116 -39,176 0,4 -1,7 -1,11zm77 -270c89,12 136,18 215,47 -16,-81 -46,-142 -97,-206 -21,21 -40,44 -59,68 -22,29 -42,60 -59,91zm-390 1816c-2,-82 -36,-167 -79,-234 -49,45 -99,92 -150,138 43,10 86,21 117,34 39,16 73,36 112,62zm-27 -282l50 -46c30,-29 61,-61 92,-92 42,67 82,156 84,234 -70,-46 -130,-74 -226,-96zm829 -191c-20,98 -46,153 -92,225 87,-4 166,-37 235,-85 -45,-47 -92,-97 -143,-140l0 0zm198 198c-16,96 -40,151 -82,224 85,-7 163,-43 230,-93 -51,-35 -100,-82 -148,-131zm618 3c-27,59 -72,110 -132,145 95,17 167,34 239,77 -7,-85 -45,-161 -107,-222zm-311 -1502c85,-3 173,-34 242,-79 -49,-50 -96,-98 -147,-140 -22,95 -48,149 -95,219z"/>
  </g>
 </g>
</svg>
