<?xml version="1.0" encoding="UTF-8"?>
<!DOCTYPE svg PUBLIC "-//W3C//DTD SVG 1.1//EN" "http://www.w3.org/Graphics/SVG/1.1/DTD/svg11.dtd">
<!-- Creator: CorelDRAW X7 -->
<svg xmlns="http://www.w3.org/2000/svg" xml:space="preserve" width="6.498mm" height="6.498mm" version="1.1" style="shape-rendering:geometricPrecision; text-rendering:geometricPrecision; image-rendering:optimizeQuality; fill-rule:evenodd; clip-rule:evenodd"
viewBox="0 0 650 650"
 xmlns:xlink="http://www.w3.org/1999/xlink">
 <defs>
  <style type="text/css">
   <![CDATA[
    .fil3 {fill:#F3F3F4}
    .fil0 {fill:#14365B}
    .fil2 {fill:#D7AE30}
    .fil4 {fill:#E6E6E6}
    .fil5 {fill:white}
    .fil1 {fill:#FFD43B;fill-rule:nonzero}
   ]]>
  </style>
 </defs>
 <g id="Capa_x0020_1">
  <metadata id="CorelCorpID_0Corel-Layer"/>
  <g id="_494841456048">
   <circle class="fil0" cx="325" cy="325" r="325"/>
   <g>
    <path class="fil1" d="M312 163c33,0 62,13 84,34 21,21 34,51 34,83 0,33 -13,62 -34,83 -22,22 -51,35 -84,35 -32,0 -62,-13 -83,-35 -21,-21 -34,-50 -34,-83 0,-32 13,-62 34,-83 21,-21 51,-34 83,-34z"/>
    <path class="fil2" d="M227 366c22,21 52,35 85,35 29,0 55,-11 76,-28 -12,4 -24,6 -37,6 -33,0 -63,-14 -84,-35 -17,-17 -29,-38 -33,-63 -1,-7 -2,-14 -2,-21 0,-33 13,-63 35,-84 2,-3 5,-5 7,-7 -18,6 -34,16 -47,29 -21,21 -34,51 -34,83 0,0 0,1 0,1 0,33 13,62 34,84z"/>
    <path class="fil3" d="M343 303c0,0 1,0 1,0 8,-37 40,-64 80,-64 42,0 76,32 80,73 20,11 33,32 33,56 0,36 -29,65 -65,65 -43,0 -86,0 -129,0 -36,0 -65,-29 -65,-65 0,-36 29,-65 65,-65z"/>
    <path class="fil4" d="M278 368c0,9 2,18 5,26 10,23 33,39 60,39l42 0c25,-6 44,-29 44,-57 0,-14 -6,-27 -14,-38 -11,-12 -27,-20 -44,-20l-4 1c-2,-5 -4,-10 -7,-15 -3,-4 -8,-9 -12,-13 -2,4 -3,8 -4,12l-1 0c-5,0 -9,1 -13,1 -30,6 -52,33 -52,64z"/>
    <path class="fil5" d="M185 258c29,0 54,16 67,39 3,-1 6,-1 10,-1 25,0 46,16 54,39 1,0 2,-1 3,-1 32,0 58,26 58,58 0,31 -26,57 -58,57l-191 0c-32,0 -58,-26 -58,-57 0,-25 16,-46 39,-54 0,-1 0,-3 0,-4 0,-42 34,-76 76,-76z"/>
   </g>
  </g>
 </g>
</svg>
