<?xml version="1.0" encoding="UTF-8"?>
<!DOCTYPE svg PUBLIC "-//W3C//DTD SVG 1.1//EN" "http://www.w3.org/Graphics/SVG/1.1/DTD/svg11.dtd">
<!-- Creator: CorelDRAW X7 -->
<svg xmlns="http://www.w3.org/2000/svg" xml:space="preserve" width="6.498mm" height="6.498mm" version="1.1" style="shape-rendering:geometricPrecision; text-rendering:geometricPrecision; image-rendering:optimizeQuality; fill-rule:evenodd; clip-rule:evenodd"
viewBox="0 0 650 650"
 xmlns:xlink="http://www.w3.org/1999/xlink">
 <defs>
  <style type="text/css">
   <![CDATA[
    .fil0 {fill:#14365B}
    .fil2 {fill:#E3E3E3}
    .fil4 {fill:#FFD43B}
    .fil3 {fill:white}
    .fil1 {fill:#F3F3F4;fill-rule:nonzero}
   ]]>
  </style>
 </defs>
 <g id="Capa_x0020_1">
  <metadata id="CorelCorpID_0Corel-Layer"/>
  <g id="_494648886848">
   <circle class="fil0" cx="325" cy="325" r="325"/>
   <g>
    <path class="fil1" d="M292 205l2 0 0 0 1 0c7,0 13,6 13,13 -1,3 -1,5 -3,7l-2 4c-3,6 -6,12 -9,20 -2,8 -3,16 -3,25 0,25 10,47 26,63 16,16 38,26 63,26 6,0 11,0 16,-1 5,-1 11,-2 16,-4 6,-3 14,1 16,7 1,3 1,5 1,7 -6,33 -24,62 -49,83 -24,20 -55,20 -90,20 -38,0 -61,-15 -87,-40l0 -1c-25,-25 -41,-60 -41,-99 0,-39 3,-63 29,-89l0 0c24,-24 58,-40 95,-41l6 0z"/>
    <path class="fil2" d="M230 420l0 0zm0 -199l0 0zm-39 25l0 0zm0 200c25,25 61,41 99,41 35,0 66,-12 90,-32 2,-2 3,-3 5,-5 -17,8 -35,12 -55,12 -39,0 -74,-16 -100,-42 -19,-20 -33,-45 -39,-74 -1,-8 -2,-17 -2,-26 0,-38 16,-74 41,-99 2,-2 4,-3 6,-5 -17,7 -32,17 -45,30 -26,26 -42,61 -42,100 0,39 16,74 42,100z"/>
    <path class="fil3" d="M294 205l0 0zm-32 5l0 0zm-4 69c0,25 10,47 26,63 2,1 3,3 4,4 16,14 37,22 60,22 5,0 11,0 16,-1 4,-1 9,-2 13,-4 -19,0 -36,-7 -50,-17 -4,-3 -7,-6 -10,-9 -16,-16 -26,-38 -26,-63 0,-9 1,-17 3,-25 3,-8 6,-14 9,-20l2 -4c2,-2 2,-4 3,-7 0,-7 -6,-13 -13,-13l-1 0 -2 0 -6 0c-11,0 -22,2 -33,5l6 0 3 0 0 0c7,0 13,6 13,13 0,3 -1,5 -2,7l-2 4c-4,6 -7,12 -9,19 -2,9 -4,17 -4,26z"/>
    <path class="fil4" d="M340 204c37,-9 57,-3 67,-16 11,-12 5,-33 13,-65 8,32 5,53 14,66 9,13 43,7 67,15 -21,10 -53,5 -65,16 -12,12 -6,47 -16,64 -9,-18 -2,-48 -15,-62 -12,-13 -31,-9 -65,-18z"/>
    <path class="fil4" d="M421 320c23,-5 35,-2 41,-10 7,-7 4,-20 9,-40 4,20 3,33 8,41 5,8 27,4 41,9 -13,6 -32,3 -40,10 -7,8 -3,29 -9,40 -6,-12 -2,-30 -10,-39 -7,-8 -19,-5 -40,-11z"/>
   </g>
  </g>
 </g>
</svg>
