<?xml version="1.0" encoding="UTF-8"?>
<!DOCTYPE svg PUBLIC "-//W3C//DTD SVG 1.1//EN" "http://www.w3.org/Graphics/SVG/1.1/DTD/svg11.dtd">
<!-- Creator: CorelDRAW X7 -->
<svg xmlns="http://www.w3.org/2000/svg" xml:space="preserve" width="20.136mm" height="6.599mm" version="1.1" style="shape-rendering:geometricPrecision; text-rendering:geometricPrecision; image-rendering:optimizeQuality; fill-rule:evenodd; clip-rule:evenodd"
viewBox="0 0 2014 660"
 xmlns:xlink="http://www.w3.org/1999/xlink">
 <defs>
  <style type="text/css">
   <![CDATA[
    .fil0 {fill:#072D4F}
    .fil2 {fill:#317992}
    .fil1 {fill:#620E0E}
   ]]>
  </style>
 </defs>
 <g id="Capa_x0020_1">
  <metadata id="CorelCorpID_0Corel-Layer"/>
  <g id="_494670443008">
   <path class="fil0" d="M1136 543l0 15 14 0 0 0 0 0 0 28 0 0 0 1c-2,0 -5,0 -8,1 -3,0 -6,0 -10,0 -6,0 -11,-1 -15,-2 -4,-2 -6,-4 -8,-7 -4,-7 -6,-18 -6,-34 0,-8 1,-15 2,-20 0,-6 2,-10 4,-13 2,-3 5,-6 9,-7 3,-2 8,-3 13,-3 11,0 22,1 35,3l1 -13 -5 -1 0 0c-12,-3 -23,-4 -33,-4 -8,0 -15,1 -20,4 -6,2 -11,5 -14,10 -6,9 -10,24 -10,44 0,10 1,18 3,26 1,7 4,13 7,18 3,5 8,8 13,10 6,3 13,4 22,4 2,0 5,0 8,-1 3,0 7,0 12,-1 4,0 8,0 11,-1 3,0 5,-1 6,-1l0 -56 -31 0zm118 58l0 -40 0 0 1 0 27 0 0 0 0 0 16 40 19 0 -18 -44 0 0 0 0c6,-3 11,-7 14,-13l0 0c3,-5 4,-12 4,-20 0,-23 -12,-35 -37,-35l-43 0 0 112 17 0zm41 -92c3,4 5,9 5,16 0,3 -1,6 -1,8 -1,3 -2,5 -4,7 -2,2 -4,4 -6,5 -3,1 -6,1 -9,1l-25 0 -1 0 0 -1 0 -41 0 0 1 0 25 0c6,0 11,1 15,5zm117 77c-3,-2 -6,-5 -8,-8 -2,-3 -3,-8 -4,-13 -1,-6 -2,-12 -2,-19 0,-8 1,-14 2,-20 1,-5 2,-10 4,-13l0 0c2,-4 5,-7 9,-8 3,-2 8,-3 13,-3 5,0 10,1 13,3 4,1 7,4 9,8 2,3 3,8 4,13 1,6 1,12 1,20 0,7 0,14 -1,19 -1,6 -2,10 -4,13 -2,3 -5,6 -9,8 -3,1 -8,2 -13,2 -6,0 -10,-1 -14,-2zm35 13c6,-2 11,-5 14,-10 3,-4 6,-10 8,-18 1,-7 2,-15 2,-25 0,-10 -1,-19 -2,-26 -2,-8 -5,-14 -8,-19 -3,-4 -8,-8 -14,-10 -6,-3 -13,-4 -21,-4 -9,0 -16,1 -22,4 -5,2 -10,6 -13,11 -4,4 -6,10 -8,18 -2,7 -3,16 -3,26 0,10 1,18 3,25 2,8 4,14 8,18 3,5 7,8 13,10 6,3 13,4 22,4 8,0 15,-1 21,-4zm133 -11c-16,0 -24,-8 -24,-23l0 -76 -17 0 0 76c0,7 1,12 2,17 2,5 5,9 8,12 3,3 8,5 13,7 5,1 11,2 18,2 6,0 12,-1 18,-2 5,-2 9,-4 12,-7 4,-3 6,-7 8,-12 2,-5 3,-10 3,-17l0 -76 -18 0 0 76c0,8 -2,14 -6,17 -4,4 -9,6 -17,6zm131 -22l23 0c6,0 12,-1 16,-3 5,-1 9,-4 12,-7 3,-4 6,-8 7,-13 2,-4 3,-10 3,-17 0,-12 -3,-21 -10,-28 -6,-6 -15,-9 -28,-9l-41 0 0 112 17 0 0 -35 0 0 1 0zm23 -15l-23 0 -1 0 0 0 0 -47 0 0 1 0 23 0c3,0 6,0 9,1 2,1 5,2 6,4 2,2 3,4 4,7 1,3 1,7 1,10 0,9 -2,15 -5,19 -3,4 -9,6 -15,6z"/>
   <path class="fil1" d="M910 384l-28 0c-28,-4 -42,-21 -42,-51l0 -126c0,-8 1,-15 3,-22 3,-6 6,-11 11,-16 9,-9 23,-14 41,-14 6,0 12,1 18,1 5,1 10,2 15,4l0 35c-5,-2 -11,-3 -15,-4 -6,-1 -11,-1 -16,-1 -5,0 -9,0 -12,1 -4,1 -6,2 -8,4 -2,2 -3,4 -4,7 -1,2 -2,5 -2,9l0 118c0,7 2,12 6,16l0 0c5,3 11,5 19,5 12,0 23,-2 32,-5l0 35c-4,2 -9,3 -15,4 -1,0 -2,0 -3,0zm285 -155l0 -21c0,-34 -15,-51 -45,-51l-57 0 0 226 59 0c30,0 44,-17 44,-51l0 -22c0,-11 -1,-20 -5,-27 -3,-7 -8,-11 -15,-14l-1 0 1 -1c6,-3 11,-7 14,-14 3,-6 5,-15 5,-25zm-70 -40l20 0c7,0 11,2 14,6 3,3 5,8 5,15l0 21c0,7 -2,12 -5,16 -3,3 -7,5 -14,5l-20 0 0 0 0 0 0 -62 0 -1 0 0zm41 118l0 23c0,14 -7,20 -19,20l-22 0 0 0 0 0 0 -63 0 -1 0 0 22 0c6,0 11,2 14,6 3,3 5,8 5,15zm133 20l8 56 31 0 -38 -226 -44 0 -39 226 30 0 9 -56 0 -1 0 0 42 0 1 0 0 1zm-6 -33l-31 0 -1 0 0 -1 15 -101 1 -4 1 4 15 101 0 1 0 0zm179 -137l-31 0 0 78c0,14 0,27 1,40 0,12 1,24 2,35l0 0c1,4 1,7 1,9 0,2 1,3 1,4l0 3 -2 -3c0,-1 0,-2 -1,-4 0,-2 -1,-5 -2,-8 -1,-3 -2,-8 -3,-12 -1,-5 -3,-11 -5,-17 -2,-6 -6,-20 -12,-41 -7,-21 -16,-49 -27,-84l-33 0 0 226 31 0 0 -80c0,-14 0,-28 -1,-41 0,-12 -1,-23 -2,-33 -1,-8 -2,-12 -2,-13l0 -4 1 4 2 7 5 16c2,6 6,22 14,46 7,24 18,57 31,98l32 0 0 -226zm178 33l0 -33 -100 0 0 33 33 0 1 0 0 1 0 192 31 0 0 -192 0 -1 1 0 34 0zm110 -33l-87 0 0 226 87 0 0 -34 -56 0 0 0 0 0 0 -63 0 -1 0 0 49 0 0 -33 -49 0 0 0 0 -1 0 -60 0 -1 0 0 56 0 0 -33zm254 0l-32 0 0 97 0 1 -1 0 -45 0 -1 0 0 -1 0 -97 -31 0 0 226 31 0 0 -93 0 -1 1 0 45 0 1 0 0 1 0 93 32 0 0 -226zm-157 227l-29 0c-28,-4 -42,-21 -42,-51l0 -126c0,-8 2,-15 4,-22 2,-6 6,-11 10,-16 9,-9 23,-14 42,-14 6,0 12,1 17,1 6,1 11,2 15,4l0 35c-5,-2 -10,-3 -15,-4 -5,-1 -10,-1 -15,-1 -5,0 -9,0 -13,1 -3,1 -6,2 -8,4 -1,2 -3,4 -4,7 -1,2 -1,5 -1,9l0 118c0,7 2,12 6,16 4,3 10,5 18,5 13,0 24,-2 33,-5l0 35c-5,2 -10,3 -15,4 -1,0 -2,0 -3,0zm-888 -13c-4,-5 -8,-11 -10,-18l0 0c-2,-6 -3,-14 -3,-23l0 -173 31 0 0 171c0,8 2,14 5,18 4,4 9,5 16,5 6,0 11,-1 15,-5 3,-4 5,-10 5,-18l0 -171 31 0 0 173c0,9 -1,17 -3,23 -2,7 -6,13 -10,18 -17,20 -60,20 -77,0z"/>
   <g>
    <path class="fil2" d="M282 382l0 0zm90 49c-3,-3 -6,-4 -10,-4 -4,0 -8,1 -10,4l0 0c-3,2 -4,6 -4,10 0,3 1,7 4,10 2,2 6,4 10,4 4,0 7,-2 10,-4l0 0c2,-3 4,-6 4,-10 0,-4 -2,-8 -4,-10zm-234 -187c0,-4 -1,-7 -4,-10l0 0c-2,-2 -6,-4 -10,-4 -4,0 -7,2 -10,4 -2,3 -4,6 -4,10 0,4 2,7 4,10l0 0c3,2 6,4 10,4 4,0 8,-2 10,-4 3,-3 4,-6 4,-10zm22 275l45 -154c5,-14 6,-30 -10,-45l-55 -48c-5,2 -10,4 -16,4 -9,0 -17,-4 -22,-9l0 0c-6,-6 -10,-14 -10,-23 0,-9 4,-17 10,-23 5,-5 12,-8 20,-9l5 0c7,1 15,4 20,9l0 0c6,6 9,14 9,23 0,4 -1,8 -2,12l50 44c24,21 31,36 22,68l-51 171c5,7 11,14 16,21l0 0 142 -105c-2,-4 -3,-9 -3,-14 0,-9 4,-17 9,-23l0 0c6,-6 14,-9 23,-9 0,0 0,0 0,0l11 -27 -11 -38 -71 45c-3,2 -7,1 -9,-2 -1,-1 -1,-3 0,-5l20 -82 -65 -54c-2,-2 -3,-6 0,-9 1,-1 2,-2 4,-2l0 0 84 -5 32 -79c1,-2 3,-4 5,-4l14 -81 -14 -66c-11,0 -22,0 -33,0l-34 112c-14,51 -22,54 -73,59l-220 19c3,24 10,52 22,83l113 98c1,1 2,3 1,5l-23 76c14,23 29,45 45,67zm-31 -143l-96 -84c1,2 1,3 2,5 19,45 41,89 65,131 3,5 6,9 9,14l20 -66zm146 -270l32 -105c-19,1 -38,2 -57,4 -112,10 -193,32 -229,84l170 -14c2,-1 5,1 5,4 0,2 -2,4 -4,5l-177 15c-11,19 -16,43 -15,70l204 -17 13 -1c39,-4 48,-7 58,-45zm76 554l1 -189c-5,-2 -9,-4 -13,-8l-1 -1 -140 106c30,34 60,59 91,74l0 -80c0,-3 2,-5 5,-5 2,0 4,2 4,5l0 85c18,7 36,12 53,13z"/>
    <path class="fil0" d="M473 5c207,18 307,79 216,292 -3,6 -6,13 -9,19 -39,87 -86,169 -147,244 -52,63 -106,96 -161,100l1 -189c4,-2 8,-5 11,-8l0 0c6,-6 10,-14 10,-22 0,-9 -4,-17 -10,-23l0 0c-5,-6 -13,-9 -22,-9l0 -65 72 45c1,1 3,1 5,1 3,-1 5,-4 4,-8l-21 -82 65 -54c1,-1 2,-2 2,-4 1,-4 -2,-6 -5,-7l-85 -5 -31 -79c-1,-1 -2,-3 -3,-3 -1,-1 -2,-1 -3,-1l0 -147c37,0 74,2 111,5z"/>
    <g>
     <path class="fil2" d="M501 171c-51,-5 -59,-8 -72,-59l-34 -112c8,1 15,1 22,1l31 105c11,38 19,41 59,45l13 1 203 17c-1,7 -1,14 -2,21l-220 -19zm48 368l-51 -171c-9,-32 -2,-47 21,-68l51 -44c-1,-4 -2,-8 -2,-12 0,-9 3,-17 9,-23l0 0c5,-5 12,-8 20,-9l5 0c8,1 15,4 20,9 6,6 10,14 10,23 0,9 -4,17 -10,23l0 0c-6,5 -14,9 -22,9 -6,0 -12,-2 -16,-4l-55 48c-16,15 -15,31 -11,45l46 154 -15 20zm41 -305c-3,3 -4,6 -4,10 0,4 1,7 4,10 2,2 6,4 10,4 3,0 7,-2 10,-4l0 0c2,-3 4,-6 4,-10 0,-4 -2,-7 -4,-10 -3,-2 -7,-4 -10,-4 -4,0 -8,2 -10,4l0 0z"/>
    </g>
   </g>
  </g>
 </g>
</svg>
