<?xml version="1.0" encoding="UTF-8"?>
<!DOCTYPE svg PUBLIC "-//W3C//DTD SVG 1.1//EN" "http://www.w3.org/Graphics/SVG/1.1/DTD/svg11.dtd">
<!-- Creator: CorelDRAW X7 -->
<svg xmlns="http://www.w3.org/2000/svg" xml:space="preserve" width="72.432mm" height="29.511mm" version="1.1" style="shape-rendering:geometricPrecision; text-rendering:geometricPrecision; image-rendering:optimizeQuality; fill-rule:evenodd; clip-rule:evenodd"
viewBox="0 0 7243 2951"
 xmlns:xlink="http://www.w3.org/1999/xlink">
 <defs>
  <style type="text/css">
   <![CDATA[
    .str0 {stroke:whitesmoke;stroke-width:7.62;stroke-opacity:0.149020}
    .fil2 {fill:#14365B}
    .fil9 {fill:#19594A}
    .fil5 {fill:#722C55}
    .fil4 {fill:white}
    .fil3 {fill:#AAB0C2;fill-rule:nonzero}
    .fil8 {fill:#E6E6E6;fill-opacity:0.129412}
    .fil1 {fill:#C1C1C1;fill-opacity:0.149020}
    .fil0 {fill:#F4DC8B;fill-opacity:0.149020}
    .fil12 {fill:white;fill-opacity:0.149020}
    .fil11 {fill:black;fill-opacity:0.231373}
    .fil7 {fill:black;fill-opacity:0.250980}
    .fil10 {fill:#091727;fill-opacity:0.309804}
    .fil6 {fill:#0E253F;fill-opacity:0.309804}
   ]]>
  </style>
 </defs>
 <g id="Capa_x0020_1">
  <metadata id="CorelCorpID_0Corel-Layer"/>
  <g id="_495243242656">
   <path class="fil0" d="M1237 2619c30,24 8,21 -10,45 -14,19 -18,30 -26,46 49,-13 45,-22 71,-55l136 -192c-36,72 -60,121 -62,211 109,-9 56,-38 127,-92 57,-44 24,13 58,-41 18,-29 -13,-7 15,-67 9,6 34,31 36,32 37,21 -11,10 33,6l30 -6c2,-1 8,-3 10,-4 55,-25 147,-129 164,-192l10 29c14,22 -22,10 26,26 11,-41 5,-18 27,-47l80 -103c67,-66 39,2 22,22 -3,3 -14,14 -18,18l-25 31c-4,4 -13,17 -16,21l-17 19c-3,3 -7,7 -9,9 -59,63 -43,62 -25,139 53,-14 60,-40 98,-83l128 -182c2,-3 6,-7 8,-10l97 -85c-21,29 -16,22 -35,56 -25,48 -38,83 -57,124 -37,82 -109,154 -130,235 49,-12 29,-12 80,-24 72,-17 57,-9 188,-164l223 -267c-20,73 -172,259 -230,334 -2,3 -6,7 -8,10l-34 39c-31,41 -23,19 -37,72 59,-16 22,1 64,-45l118 -28c124,-11 -19,-18 64,-97 26,-24 38,-31 62,-51 2,-2 27,-23 28,-24l35 -60c2,-3 19,-24 22,-28l96 -142c24,-55 20,-25 20,-108 80,85 54,-62 182,-72 2,71 -5,42 18,91 67,-18 38,-20 91,-55 12,3 35,14 38,15 44,12 2,18 35,3l21 15c0,7 -12,6 -13,12 -1,5 -18,18 -18,18 -28,42 -10,49 -27,119 49,-36 58,-87 91,-109l39 -16c26,-10 5,6 41,-13 45,-25 22,-14 48,-62l58 51c-77,-12 -51,-34 -76,76 108,-2 72,-25 128,-90l56 -52c33,-31 -7,-28 44,-34 77,-8 19,-4 44,12 -60,25 -13,-15 -57,70 -30,56 -27,21 -34,94 74,-19 29,-17 82,-46 85,-48 37,10 148,-90 7,-6 28,-23 31,-25 17,-11 -21,-26 12,-3 13,27 16,-3 -1,37 -12,28 -17,27 -39,49 -45,46 -52,32 -69,96l76 -51c104,-102 23,-60 124,-64 54,-2 25,2 73,-30 -16,69 -26,100 -80,138 -2,2 -8,4 -11,7 96,0 89,20 109,-54l16 72c75,-30 5,23 93,-18 -7,93 -13,25 -36,109l82 -81c13,-14 26,-26 27,-28 -5,67 -26,74 -54,128 66,-18 38,-19 91,-55 -17,79 -45,48 36,55 -6,66 -26,73 -55,127 66,-18 128,-79 146,-146 39,28 57,68 73,110 -64,42 -65,17 -73,91 84,-7 29,-2 96,-39l25 -14c2,-1 7,-4 9,-5 140,-90 89,-35 106,39 39,-10 50,-28 73,-18 -10,23 11,49 5,78 -10,42 -28,47 -41,104 38,-25 41,-40 71,-75 108,-128 91,-43 170,-82 65,-31 -33,-3 50,-25l-1 64c0,1 -1,6 1,9 50,-33 66,-34 73,-109 74,30 2,26 72,54 67,-138 41,-66 175,-143 56,-32 18,-31 44,-93 47,11 53,16 90,36 30,-43 46,-51 81,-103 43,-63 25,-62 47,-115l54 55c9,-109 34,-21 37,-146l127 -18c40,29 -25,35 -54,91 86,-23 26,-35 96,-49 107,-22 -20,2 67,31 2,-81 33,-137 109,-164l-94 106c72,-15 56,-32 113,-70 29,44 22,19 36,73 -69,31 73,-2 -25,-3 -36,-1 3,-26 -31,6l-53 130c-44,78 -45,11 -55,104 72,-6 184,-114 224,-177 39,-60 144,-169 213,-187 -2,4 -5,5 -7,12 -1,6 -5,9 -6,11l-15 22c-63,86 7,79 -84,169 -62,60 -156,117 -179,204 120,-32 192,-156 262,-247l49 -60c44,-44 70,-56 107,-111 -27,-12 3,-1 -23,0l-31 0c56,-38 34,-38 91,0 -15,-173 16,-92 34,-84 0,0 0,83 39,7 26,-48 2,14 2,-25 -1,-32 -50,17 81,-105l62 -66c-15,-54 -8,-30 -37,-73 -36,12 -46,38 -97,83l-223 153c-86,20 29,-65 57,-99 143,-169 61,-72 125,-183 57,-101 138,-82 138,-227 -187,126 -289,350 -472,473 44,-165 257,-286 345,-418 -87,7 -35,23 -91,0 36,-53 37,-25 55,-91 -80,21 -167,122 -219,182 6,-71 44,-91 81,-138 21,-29 14,-5 29,-44 -48,13 -101,83 -115,32 -8,-32 52,-75 96,-87l0 -72c-79,21 -32,27 -109,0 37,-50 13,-16 39,-35 89,-68 53,-65 59,-83 14,-48 -24,-25 30,-46l-37 -18c-38,-27 -16,12 -36,-37 72,0 74,6 127,18 -25,-109 32,-88 -73,-91 -17,66 -1,49 -72,55 37,-71 88,-108 127,-182 -84,18 -58,40 -36,-54 -66,5 -60,8 -95,50 -19,22 -55,73 -69,95l-21 -15c0,-6 9,-17 11,-14l24 -33c2,-3 5,-8 7,-11 28,-59 1,-82 -39,-109 20,97 -14,87 -73,164 -35,45 -88,135 -127,164 2,-109 120,-162 145,-255 -76,40 -98,91 -155,154 -38,42 -3,30 -63,46 15,-22 33,-54 50,-77 49,-68 94,-53 41,-159 -50,33 -74,62 -109,109 -40,56 -51,91 -128,54 -8,-27 3,2 26,-42 37,-71 139,-183 156,-249l-119 63c-42,50 25,-31 -15,21 -31,39 -36,51 -84,62 29,-28 37,-37 59,-77 32,-56 50,-63 50,-142 -110,-2 -53,12 -73,-36l-71 56c-22,24 -32,47 -53,75 -78,102 -62,28 -131,85 -58,48 -75,130 -132,169l-17 9c-2,1 -6,3 -8,4l-17 11c-2,2 -6,6 -9,8 -2,2 -6,6 -8,9l-45 47 0 -145c-87,7 -35,22 -91,0 -5,62 -43,101 -18,145 -3,1 -8,-2 -10,1 -13,44 -3,-3 -19,4 -58,22 -40,41 -26,104 -41,-9 -41,-14 -90,-18 22,-98 0,-94 -91,-73 38,96 -47,-78 25,30 27,40 18,-32 13,25 -2,32 -28,28 -57,36l-32 -40c14,-65 42,-62 51,-160 -42,10 -42,14 -91,18l0 -36c153,-13 94,-111 127,-182l31 7c3,0 9,2 12,3 72,20 -59,-1 30,8l0 -36c-48,-20 -34,37 -37,-73 -57,31 -54,35 -100,82l-44 46c-32,29 -3,22 -56,36 30,-62 49,-72 55,-146 -37,27 -100,115 -132,160 -5,6 -31,41 -31,41 -2,3 -5,8 -7,11 -31,46 -45,86 -85,116 0,-153 27,-59 55,-164l-64 0c-1,0 -6,1 -9,0 24,-92 48,-36 73,-127 -48,-13 -21,6 -37,-37l-104 133c-41,38 -110,54 -169,67l179 -239c41,-51 57,-60 98,-121 34,-51 72,-72 87,-131 -105,3 -55,16 -107,69l-37 29c-14,15 -31,46 -49,72 -29,39 -29,53 -80,67 9,-103 77,-116 110,-255 -85,23 -26,15 -88,78 -47,47 -61,4 -40,104l-70 -58 -82 123c-6,7 -6,-43 -30,44l-36 0c-3,-110 12,-53 -36,-73 -29,44 -22,19 -37,73l-127 -91c-17,80 12,56 -37,91 -14,-29 -18,34 0,-55 -100,9 -44,42 -164,54 -120,12 -106,16 -199,37 21,-81 -6,-22 52,-57 114,-69 42,-69 100,-108 59,-40 2,53 66,-35 -27,-11 -63,-13 -89,-6l-94 31c-1,1 -5,3 -7,4 -3,1 -11,7 -15,9l-122 53c7,-93 13,-24 36,-109l-200 127 0 -54c-40,11 -19,3 -47,26l-44 47c-94,-50 -80,-79 -182,-55 5,56 17,88 36,127 -101,-2 -80,-15 -182,-18 22,-94 47,-55 55,-145l-159 204c-88,92 -46,144 -150,214 7,-83 12,-40 50,-108 1,-2 3,-7 4,-9l7 -19c19,-48 -13,3 25,-50 21,-29 40,-51 64,-84 46,-65 58,-53 50,-76 -40,-17 -86,79 -123,106 -54,38 -85,95 -114,149 -53,-14 -29,-7 -72,-36 12,58 18,28 0,73 -140,-4 -41,-45 -142,39 -25,21 -40,29 -50,33 5,-23 9,-31 18,-62 -13,3 -23,5 -30,7 23,-44 20,-25 -15,-90 79,16 48,44 55,-37 -78,7 -33,-2 -91,37 -8,-95 17,-33 -36,-55l36 -164c-72,48 -73,24 -93,32 -24,10 -3,-41 -28,30 -10,31 -6,33 -6,66 -108,12 -25,-4 -56,47 -49,81 -86,27 -163,171 -10,-7 -29,-30 -35,-33 -38,-18 -45,4 -86,5l-79 -8c-79,0 38,49 -182,54 67,100 10,48 37,164 -54,-26 -12,-21 -81,-8 -85,16 33,32 -83,8l13 38c0,1 -1,2 0,2 0,0 1,0 1,0l30 84c39,118 33,43 -117,40 -14,39 1,12 -21,36 -1,1 -23,20 -27,21 -40,15 -4,17 -61,-21 -16,33 -14,23 -18,73 -95,8 -71,66 -127,-18 116,-27 72,-67 163,-91 -32,-48 -9,-38 -73,-55 52,-71 134,-52 164,-164l-109 -36 -540 351c-115,62 -345,249 -451,331 -69,54 -40,-4 -64,64 123,59 120,-38 127,-55 72,0 74,-5 128,-18 -30,72 -9,66 -122,106 -57,20 13,14 -78,21 44,62 4,8 52,33 51,28 8,53 158,-22 32,-16 28,-16 46,-27l53 -38c66,47 -152,87 -182,200 56,5 34,0 73,18 60,-44 12,-34 63,-59 69,-35 39,4 247,-122 124,-76 93,-22 198,-130l19 -18c3,-3 7,-6 9,-9 43,-36 41,-38 100,-26 -56,77 -120,50 -145,146l73 0c-123,65 -363,283 -473,309l0 36c36,-3 55,-5 72,-9 76,-16 74,-32 138,-70 68,-39 51,-18 112,-71 48,-40 51,-48 132,-50 -29,26 -58,51 -91,72 -38,24 -60,36 -101,63 -65,42 -150,84 -190,138 41,-9 42,-10 80,-29 26,-13 18,-9 35,-20 33,-22 13,-8 31,-24l21 16c-1,5 -84,52 -94,57l38 100c15,34 34,17 53,100l58 -62c38,-41 -23,-22 15,-10l-11 61c-4,9 -11,28 -14,36l-72 154c-11,30 -6,23 -27,60 -39,70 -38,76 -58,162 92,-10 25,24 75,-53 21,-31 23,-53 60,-78 45,-31 18,-36 65,-106 21,45 38,27 17,87 -25,74 -51,66 -53,168l36 0c20,-74 67,-124 127,-164 -9,109 -29,31 -54,127l73 0 0 55c-50,19 -50,-13 -19,55 47,-17 63,-25 91,-146 58,19 11,2 36,28 22,24 18,18 37,45l-60 -1c-2,2 -9,21 -11,25 -6,9 -13,24 -20,30l91 0 0 30c-1,0 -2,-1 -3,-1 0,0 -9,-52 -11,-1 -2,27 9,24 14,16l0 29 274 -344c-2,3 -13,16 -15,20 -51,79 -168,315 -168,397 -96,0 -27,0 -55,18l41 32c2,2 6,9 8,11 1,2 4,8 6,12l34 -51 -2 49 18 1 2 -55 -14 -1 71 -107c11,19 4,-2 11,34 5,27 5,24 7,57 32,-8 49,-2 55,-37zm3055 -2218c-2,45 29,6 11,1 0,0 -9,-52 -11,-1zm492 127l6 -6c-1,0 -8,4 -6,6zm-13 -250l6 -5c0,0 -7,3 -6,5zm-23 377c18,19 66,-26 21,-10 -1,0 -52,-21 -21,10zm-313 -193c10,-6 17,-8 34,-20l41 -31 -7 1c76,-49 56,-19 63,-85 -48,18 -55,24 -71,85 -41,1 -57,1 -60,50zm4 -135c53,-12 26,3 54,-36 -32,8 -49,2 -54,36zm309 255l18 0 0 -73 -18 0 0 73zm-1242 1822l5 -5c0,0 -7,3 -5,5zm-1278 -1882l6 -5c0,1 -7,4 -6,5zm1957 1768l5 -5c0,0 -7,3 -5,5zm-640 61l5 -5c0,0 -7,3 -5,5zm-778 -2058l6 -5c0,0 -7,3 -6,5zm-166 47l6 -5c0,0 -7,3 -6,5zm1002 1923c18,19 67,-23 22,-9 -1,0 -51,-23 -22,9zm-1485 -1637c-6,10 -15,25 -26,47l-21 -15c0,-6 10,-16 11,-13l23 -38c-2,5 -5,12 -9,18l22 1zm65 -353l5 -6c0,1 -7,4 -5,6zm164 0l5 -6c0,1 -7,4 -5,6zm-200 -91l5 -5c0,0 -7,3 -5,5zm-2001 1000l5 -5c0,0 -7,4 -5,5zm2910 1037l5 -5c0,0 -7,3 -5,5zm-218 -2146l5 -6c0,1 -7,4 -5,6zm-1565 673l6 -6c-1,1 -7,4 -6,6zm419 -346l5 -5c0,0 -7,3 -5,5zm545 -164l6 -5c0,0 -7,4 -6,5zm-545 237l5 -5c0,0 -7,3 -5,5zm673 -36l5 -6c0,1 -7,4 -5,6zm1855 -401l6 -5c-1,0 -8,4 -6,5zm-491 2038l6 -6c-1,1 -8,4 -6,6zm127 72l6 -5c-1,0 -7,4 -6,5zm-1746 -1873l6 -6c-1,1 -8,4 -6,6zm127 91l6 -6c0,1 -7,4 -6,6zm-54 -273l5 -5c0,0 -7,3 -5,5zm909 2074l6 -6c-1,1 -7,4 -6,6zm710 -55l5 -5c0,0 -7,3 -5,5zm-1583 -1964l6 -6c-1,0 -8,4 -6,6zm437 54l5 -5c0,0 -7,3 -5,5zm-600 0l5 -5c0,0 -7,3 -5,5zm-1328 528c1,1 5,-8 5,-6l0 0c0,1 -7,4 -5,6zm-346 1146c2,1 5,-8 5,-6l0 0c0,1 -7,4 -5,6zm0 -73c2,2 5,-8 5,-6l0 0c0,1 -7,4 -5,6zm1855 -1492c-22,23 22,24 9,1l-9 -1zm-109 -91c0,46 29,5 12,0 -1,0 -12,-51 -12,0zm1547 1747c0,45 29,4 11,0 0,0 -11,-52 -11,0zm72 -1783c0,45 29,5 12,0 -1,0 -12,-52 -12,0zm-3420 2037c1,6 21,4 22,4 5,-2 32,42 8,-5 0,-1 -34,-34 -30,1zm-36 -1128c19,19 66,-26 21,-9 0,0 -51,-21 -21,9zm2856 983c19,18 66,-26 21,-10 0,0 -52,-21 -21,10zm-1837 -1383c4,21 40,40 24,4 -6,-15 -33,-51 -24,-4zm-1237 419c53,-13 26,2 54,-37 -32,8 -48,3 -54,37zm3329 -1001l5 -5c0,0 -7,3 -5,5zm-19 0c-14,14 11,62 24,29 8,-22 -10,-43 -24,-29zm-1673 328c95,-9 33,17 54,-37 -31,16 -36,12 -54,37zm2183 -201c10,-6 16,-9 33,-21l40 -33c-53,4 -72,0 -73,54zm-2329 273l55 0c4,-49 8,-49 18,-91 -85,23 -35,13 -73,91zm-1073 1692c2,2 6,-8 6,-5l0 0c-1,0 -8,3 -6,5zm-91 127l37 0c19,-81 36,-58 54,-127 -10,1 -48,-4 -75,34 -26,36 -16,36 -16,93zm-54 0c40,57 13,57 54,0l-54 0zm558 408c2,2 6,-7 6,-5l0 0c-1,1 -8,3 -6,5zm55 3c1,1 4,-5 5,-6 0,-6 0,-14 0,-23 41,44 95,54 18,110 -21,-45 -19,-38 -18,-86 -1,1 -7,3 -5,5zm89 41c-24,21 20,25 8,0 0,0 -3,-1 -3,-1 0,0 -4,-1 -5,1zm-38 16c-19,18 24,67 9,22 0,-1 23,-51 -9,-22zm-29 -147l36 2 3 -55c-31,20 -35,2 -39,53zm-508 25c2,2 5,-8 5,-5l0 0c0,0 -7,3 -5,5zm55 0c1,2 5,-8 5,-5l0 0c0,0 -7,3 -5,5zm127 -91c2,2 5,-8 5,-5l0 0c0,0 -7,3 -5,5zm-146 -109c0,45 29,5 12,0 -1,0 -12,-52 -12,0zm109 236c-22,23 22,25 9,1 0,0 -3,-1 -3,-1 -1,0 -4,-1 -6,0zm-36 19c-19,18 26,65 10,21 0,-1 21,-52 -10,-21zm73 -73l18 0 0 -55 -18 0 0 55zm-109 -73l36 0 0 -54c-30,20 -35,3 -36,54zm163 -18c7,-11 30,28 15,-59 -6,-32 15,-16 -33,-32 4,49 9,50 18,91zm19 18c-10,51 43,-9 18,-7 -34,2 -11,-31 -18,7zm-55 -54l5 5c0,0 -3,-7 -5,-5zm309 181l6 -5c-1,0 -8,4 -6,5zm-18 110l6 5c-1,0 -4,-7 -6,-5zm-109 -164c60,-44 20,-20 55,-91 -94,8 -61,15 -55,91zm-73 91l55 -55c-4,49 -9,50 -18,91 55,-40 49,-65 36,-127 -73,17 -71,5 -73,91zm5494 -819l5 6c0,-1 -7,-4 -5,-6zm73 -73c141,33 30,26 118,-82 13,-16 40,-25 64,-71 10,-19 13,-52 64,-91 45,-34 -32,-18 63,-28 -21,-79 -33,-28 -29,-88 5,-59 21,-2 29,-94 96,0 27,0 54,-18 -88,1 -94,28 -156,80 -109,92 -49,106 -135,65 -3,131 -89,158 -139,207 -47,45 -4,24 -61,66 26,72 3,2 55,73 -126,66 -59,55 -60,151 0,91 -99,124 -15,113 60,-8 23,2 49,-53 57,-121 -43,-33 64,-118 14,-11 50,-38 56,-54 17,-39 6,-31 -21,-58zm-182 -72c-23,48 -23,117 -19,127l77 -69 -58 -58zm-37 72l-5 6c0,0 7,-4 5,-6zm18 0l-5 -5c0,0 4,7 5,5zm164 -18c-28,-68 28,-112 91,-145l-91 145zm127 -200l6 6c0,-1 -7,-4 -6,-6zm-5293 1092c56,-41 29,11 36,-73 -28,32 -24,22 -36,73zm-18 0c-20,19 29,69 9,20 0,-1 21,-51 -9,-20zm-18 36c-38,5 4,96 1,17 0,-7 39,-22 -1,-17zm-273 -218l5 -6c0,1 -7,4 -5,6zm-237 -237c-19,20 29,69 10,20 0,0 21,-50 -10,-20zm-36 73c0,47 29,3 11,0 0,0 -11,-51 -11,0zm-18 18l5 6c0,-1 -3,-8 -5,-6zm0 -182c-20,-19 -69,29 -21,10 1,0 51,21 21,-10zm-237 -545c80,-19 128,-56 193,-99 40,-26 50,-30 92,-55 144,-85 78,-114 -114,15 -57,38 -138,90 -171,139zm-18 0c-46,0 -3,28 0,10 0,0 51,-10 0,-10zm-73 -37c-2,2 6,3 6,6l-6 -6zm-18 18c-2,2 6,3 6,6l-6 -6zm873 -1037c-172,-36 -223,144 -436,201 52,-71 28,-2 54,-73 -99,47 -79,56 -131,57 -51,1 25,-26 -21,-1 -44,24 14,-30 -6,9l-4 16c0,1 0,7 -1,10 -182,4 -105,49 -104,53 3,6 80,-9 5,24 -28,12 -23,0 -23,0l-24 -4c-1,2 0,5 0,9 3,98 65,70 -36,81l0 55c85,-2 57,-1 107,-38 103,-76 97,-37 187,-104l355 -227c57,-35 41,-12 78,-68zm-364 128l-5 -6c0,1 4,8 5,6zm382 164c47,0 3,-29 0,-11 0,0 -50,11 0,11zm37 -19c46,0 3,-28 0,-10 0,0 -51,10 0,10zm127 19l6 5c-1,0 -4,-7 -6,-5zm528 -437l-6 5c1,0 7,-3 6,-5zm72 -91l-36 0 0 73c47,-34 36,6 36,-73zm19 0c19,-19 -29,-69 -10,-20 0,0 -21,50 10,20zm145 -127l-5 -6c0,1 3,8 5,6zm419 163c-32,-31 -61,50 -17,14 2,-1 43,13 17,-14zm18 0c19,-19 -29,-69 -10,-20 0,1 -21,51 10,20zm327 -127c48,-32 38,-9 55,-73l-73 0c36,35 30,15 18,73zm55 -18l5 -6c0,1 -7,4 -5,6zm200 -37l-6 -5c1,0 4,7 6,5zm273 -54c19,19 69,-29 20,-10 0,1 -51,-21 -20,10zm54 -18c2,-2 -5,-8 -5,-6l0 0c0,1 3,8 5,6zm273 -37l-5 -5c0,0 3,7 5,5zm1183 164l-6 -5c0,0 4,7 6,5zm527 73l-5 5c0,0 7,-3 5,-5zm18 0l-5 -6c0,1 3,8 5,6zm0 18c2,2 6,-8 6,-5l0 0c-1,0 -8,3 -6,5zm328 -236c-73,19 -53,4 -55,90 73,-19 53,-4 55,-90zm91 72l-40 90c56,-37 38,4 40,-90zm54 237l-5 -6c0,1 3,8 5,6zm18 -18c47,0 3,-29 0,-11 0,0 -50,11 0,11zm91 36l-7 -8c0,0 2,2 2,3 0,0 4,7 5,5zm164 564l-5 5c0,0 7,-3 5,-5zm218 91c6,0 2,-19 2,-23 -1,-3 41,-21 -6,-16 -2,0 -41,39 4,39zm-145 382l5 -6c0,1 -7,4 -5,6zm-419 691c62,-33 76,-9 37,-91 -40,15 -21,-9 -39,29 -21,43 -12,-5 2,62zm-36 -36c-2,2 5,3 5,5l-5 -5zm0 -310c-67,6 -67,6 -73,73 90,-24 30,-15 73,-73zm-673 364l5 -5c0,0 -7,3 -5,5zm-418 273c45,-30 75,-50 91,-109 -40,14 -29,11 -53,38 -29,32 -26,25 -38,71zm-19 0c-1,2 6,3 6,6l-6 -6zm-218 -164c-2,2 6,3 6,6l-6 -6zm-18 -36l5 5c0,0 -3,-7 -5,-5zm-237 18l55 -109c-85,31 -63,70 -55,109zm-563 -254l5 -6c0,0 -7,4 -5,6zm-146 18c30,-35 59,-57 73,-109 -50,33 -67,34 -73,109zm-600 -128c-2,2 5,3 5,6l0 0c0,-1 -3,-7 -5,-6zm-128 219c4,-49 9,-50 19,-91 -53,27 -184,87 -19,91zm-563 364c-6,1 -55,56 -3,38 33,-11 34,-45 3,-38zm-328 -37c36,50 45,68 55,-18 -23,12 -20,18 -55,18zm-200 18l5 6c0,-1 -3,-8 -5,-6zm-55 19l6 5c-1,0 -4,-7 -6,-5zm-36 54c-10,52 44,-7 14,-3 -33,4 -6,-38 -14,3zm-455 18c0,-46 29,-3 11,0 0,0 -11,51 -11,0zm382 -109l6 6c-1,-1 -8,-4 -6,-6zm-473 -18c8,-95 -17,-33 37,-55 -15,29 -12,44 -37,55zm582 -18c1,-26 -2,-12 4,-33 1,-3 3,-10 4,-14 1,-4 3,-10 5,-14l42 -67c85,63 -16,43 91,55 -68,102 -61,10 -118,38 -20,9 6,2 -28,35zm-345 127c60,-90 95,-181 145,-218 -12,53 -32,85 -53,128 -30,59 -24,72 -92,90zm-219 -200c20,-19 69,29 21,9 -1,0 -51,21 -21,-9zm455 -18l6 5c-1,0 -8,-3 -6,-5zm892 -37c2,-5 70,-29 21,-1 0,0 -40,53 -21,1zm-874 0l6 6c0,-1 -7,-4 -6,-6zm3056 -18l6 6c0,-1 -7,-4 -6,-6zm-2837 55c16,-72 8,-74 72,-91 -6,77 -9,72 -72,91zm-855 36c32,-140 36,-78 91,-182l-26 102c-27,61 -16,47 -65,80zm1015 -124c2,-4 51,-53 58,-58 -14,54 -7,30 -36,73l-22 -15zm2823 -21c-10,-53 39,4 19,3 -37,-2 -12,35 -19,-3zm-164 -19l6 6c-1,0 -8,-4 -6,-6zm-2710 -18l5 6c0,-1 -7,-4 -5,-6zm2765 -18c22,-22 67,31 23,19 0,0 -2,-1 -2,-1 -12,-9 -48,8 -21,-18zm-3314 -33l60 -55c-19,29 -23,41 -39,70l-21 -15zm600 -18c0,-7 9,-19 10,-16 6,19 12,-17 14,-19 35,-31 -19,-16 16,-5 12,28 16,-12 2,23 -9,22 -1,2 -20,32l-22 -15zm2277 -22c0,-46 29,-3 11,0 0,0 -11,51 -11,0zm-1655 -91l5 6c0,-1 -7,-4 -5,-6zm-237 -18l6 6c0,-1 -7,-4 -6,-6zm-1127 -18l5 5c0,0 -7,-3 -5,-5zm-437 0l5 5c0,0 -7,-3 -5,-5zm55 -73c0,-46 28,-3 10,0 0,0 -10,51 -10,0zm2801 0c-31,4 -26,-53 -1,-24 0,0 0,2 0,2l1 22zm-1583 109c23,-43 17,-38 50,-78l78 -67c-29,53 -64,128 -128,145zm3420 -182c2,-5 70,-29 21,-1 0,0 -39,53 -21,1zm-1837 0c5,-37 96,5 17,2 -7,0 -22,39 -17,-2zm-2947 0l6 6c-1,0 -8,-4 -6,-6zm5184 -18l6 6c-1,-1 -7,-4 -6,-6zm-3677 3c0,-6 10,-15 11,-13 1,3 7,-7 8,-10 56,-72 77,-120 166,-180l-76 106c-46,49 -51,58 -88,112l-21 -15zm1749 -21l6 6c-1,-1 -8,-4 -6,-6zm2219 -18c2,-15 35,-84 24,-17 0,0 -3,6 -5,7 -1,2 -23,70 -19,10zm-2583 0l6 5c-1,0 -7,-3 -6,-5zm-2856 0l6 5c0,0 -7,-3 -6,-5zm5039 -55l6 6c-1,-1 -8,-4 -6,-6zm473 -36l6 5c-1,0 -8,-3 -6,-5zm-364 -36l6 5c-1,0 -7,-4 -6,-5zm128 -19c0,-1 66,-51 36,-4 0,0 -57,50 -36,4zm-182 37c-55,10 4,-65 5,-32 0,4 14,28 -5,32zm327 -55l6 6c-1,-1 -8,-4 -6,-6zm18 -36l6 5c0,0 -7,-3 -6,-5zm-236 54c17,-62 36,-85 109,-91 -14,53 2,24 -35,56 -24,21 -37,26 -74,35zm-4948 -72l6 5c-1,0 -8,-4 -6,-5zm18 -73l6 5c-1,0 -7,-3 -6,-5zm-72 0l5 5c0,0 -7,-3 -5,-5zm-385 -34c-1,-6 73,-34 94,-39 -4,3 -9,2 -11,8 -4,14 -13,10 -21,16l-62 15zm-34 -57c0,-47 29,-3 11,0 0,0 -11,51 -11,0zm5639 -73c-34,65 3,53 -72,73 30,-29 28,-55 72,-73zm-145 18l0 37 -55 0c29,-42 4,-22 55,-37zm-5439 55c-54,10 -1,-55 4,-38l-4 38zm36 -73l6 6c-1,-1 -8,-4 -6,-6zm419 -18l5 5c0,0 -7,-3 -5,-5zm-637 18c29,-108 -7,16 156,-153 3,-2 7,-6 9,-9 163,-162 113,-21 298,-175l129 -89c72,-58 -31,-44 99,-47 -26,72 -3,2 -54,73 87,-21 28,-12 54,0l-68 42c-90,46 -108,51 -150,31 31,87 5,-15 36,72 -87,8 -63,30 -127,73 -15,-29 -19,34 0,-54 -82,1 -102,23 -148,70l-178 132c-45,35 0,9 -56,34zm400 -236c47,0 3,-29 0,-11 0,0 -51,11 0,11zm36 -19c47,0 3,-28 0,-10 0,0 -50,10 0,10zm201 -145c-22,-22 -67,31 -24,19l7 -5c2,-1 43,13 17,-14zm-310 327c-13,50 -45,87 -74,58 -24,-25 -16,-7 8,-30 40,-38 -10,-19 66,-28zm273 -72c3,-6 24,-4 26,-4 6,1 47,-45 15,3 -25,37 -52,22 -41,1zm5221 54c16,-60 -11,-10 31,-59l34 15c-17,14 -51,35 -65,44zm-5712 -91l5 6c0,-1 -7,-4 -5,-6zm5657 -54l6 5c-1,0 -8,-4 -6,-5zm-5129 -37l5 6c0,-1 -7,-4 -5,-6zm-364 -218l5 5c0,0 -7,-3 -5,-5zm400 -55l5 6c0,-1 -7,-4 -5,-6zm33 -15l56 -42c-21,63 14,11 -35,57l-21 -15zm76 -57c19,-20 69,29 20,9 0,0 -50,21 -20,-9zm4948 18c32,-48 9,-38 73,-55 -25,69 -5,28 -73,55zm-528 -37c0,-49 65,0 17,1 -19,1 -17,41 -17,-1zm-909 -18l5 6c0,-1 -7,-4 -5,-6zm-200 -36c0,-47 29,-3 11,0 -1,0 -11,51 -11,0zm309 18c-25,-14 -20,-10 -55,-18 37,-50 46,-68 55,18zm837 -55l5 6c0,0 -7,-4 -5,-6zm542 -15l0 0zm-4308 -3l6 6c-1,-1 -8,-4 -6,-6zm-72 -18c20,-24 -1,-25 18,5 14,20 27,-15 -1,13 -17,17 -1,31 -17,-10 0,-1 1,-6 0,-8zm1855 -18c2,-6 70,-30 21,-2 0,0 -40,53 -21,2zm-1728 -36c41,9 42,14 91,18 -39,53 0,32 -42,20 -17,-5 -40,-26 -49,-38zm3674 0l6 5c-1,0 -7,-4 -6,-5zm-1109 -19l5 6c0,-1 -7,-4 -5,-6zm1128 -18c2,-6 70,-30 21,-2 0,1 -40,53 -21,2zm-2114 -51c3,-4 47,-32 76,-40l-76 40zm-33 -58c32,26 28,13 -27,46 -46,28 22,2 -46,27 17,-25 11,-17 34,-40 2,-2 7,-6 9,-8l30 -25zm-564 55l6 5c-1,0 -8,-4 -6,-5zm600 -73c1,-2 67,-52 37,-5 -1,1 -58,51 -37,5zm764 -18l6 5c0,0 -7,-4 -6,-5zm-618 -19c-22,58 39,27 -55,37 27,-25 23,-17 55,-37zm2037 -18c0,-46 29,-3 11,0 0,0 -11,51 -11,0zm-2019 0l6 6c-1,-1 -8,-4 -6,-6zm637 -18l5 5c0,0 -7,-3 -5,-5zm-546 55c28,-39 52,-47 91,-73 -16,71 -5,73 -91,73zm1947 -91l5 5c0,0 -7,-3 -5,-5zm-1456 -19c2,-5 70,-29 22,-1 -1,0 -40,53 -22,1zm-673 -36c5,-37 96,5 17,2 -7,0 -22,39 -17,-2z"/>
   <path class="fil1 str0" d="M6735 2163l6 6c-1,-1 -7,-4 -6,-6zm-21 -1365c1,1 5,-8 5,-6l0 0c0,1 -7,4 -5,6zm-880 -279l6 -5c0,1 -7,3 -6,5zm-197 226l5 -5c0,1 -7,4 -5,5zm-18 0c-2,1 5,3 5,5l0 0c-1,0 -4,-7 -5,-5zm25 -163c-23,22 20,25 9,1l-9 -1zm-373 239c19,15 64,-24 20,-11 -1,0 -7,-3 -14,-5 5,-18 6,-38 9,-58l5 0 1 -33c2,-7 5,-14 8,-20l31 8c3,1 9,3 12,4 71,23 -59,-4 29,10l2 -37c-48,-21 -36,36 -33,-74 -59,28 -56,32 -104,77l-47 44c-33,27 -3,21 -57,33 33,-60 52,-69 61,-143 -37,25 -104,111 -139,153 -5,7 -32,40 -33,40 -2,3 -5,8 -7,11 -33,44 -49,84 -90,111 7,-153 29,-57 62,-161l-64 -2c-1,0 -6,0 -9,-1 29,-91 50,-33 79,-124 -47,-15 -21,6 -35,-38l-110 127c-43,37 -112,49 -172,60l190 -231c44,-49 59,-57 103,-116 37,-49 75,-68 94,-126 -106,-3 -56,13 -111,63l-38 27c-15,14 -33,45 -53,70 -30,38 -31,52 -82,63 13,-102 82,-112 121,-249 -86,18 -26,13 -91,73 -49,46 -61,1 -45,102l-67 -60 -88 119c-6,6 -4,-44 -31,42l-37 -2c3,-110 14,-52 -33,-74 -31,42 -23,18 -39,71l-123 -97c-21,79 9,56 -41,89 -13,-29 -20,33 3,-54 -102,3 -47,39 -167,46 -121,6 -107,10 -201,27 25,-80 -4,-22 55,-54 117,-64 45,-68 104,-104 61,-37 0,53 68,-31 -26,-13 -62,-17 -88,-11l-95 27c-2,0 -6,3 -7,3 -3,2 -13,7 -16,8l-125 48c12,-92 15,-24 41,-107l-205 118 2 -55c-40,9 -19,3 -48,24l-46 45c-92,-55 -76,-83 -179,-64 2,56 13,89 30,129 -101,-7 -80,-19 -181,-26 27,-93 50,-54 62,-143l-169 197c-92,88 -53,141 -160,206 11,-83 14,-39 55,-106 1,-2 4,-6 5,-8l8 -19c21,-47 -14,2 27,-48 22,-29 42,-50 67,-81 50,-63 61,-51 54,-74 -39,-19 -89,75 -128,99 -55,36 -89,92 -120,145 -53,-17 -29,-9 -71,-40 10,58 17,29 -3,73 -140,-10 -39,-46 -143,32 -92,69 -52,-11 -119,101l-20 -16c0,-6 10,-16 11,-13l61 -88c31,-54 28,-29 -5,-99 78,20 45,46 56,-34 -78,3 -32,-4 -92,32 -4,-96 19,-32 -34,-56l44 -162c-74,44 -74,20 -94,27 -25,9 -2,-41 -29,28 -13,31 -8,33 -10,66 -109,7 -24,-5 -58,44 -53,79 -87,23 -171,164 -9,-8 -28,-31 -34,-35 -36,-20 -44,2 -85,1l-79 -12c-79,-4 35,51 -184,46 62,103 7,48 29,165 -53,-28 -11,-21 -80,-12 -86,12 30,34 -84,5l38 126c34,119 31,44 -118,34 -16,38 0,12 -23,35 -1,1 -24,19 -28,20 -40,12 -5,16 -60,-24 -18,32 -15,22 -22,72 -94,3 -74,62 -126,-24 117,-22 75,-63 168,-84 -30,-49 -8,-38 -70,-58 55,-68 136,-45 171,-155l-107 -42 -556 326c-118,55 -356,231 -467,309 -71,50 -39,-6 -66,60 120,65 122,-31 129,-48 72,3 74,-2 128,-12 -32,70 -12,66 -126,100 -58,17 12,14 -79,18 41,63 3,7 50,35 50,29 6,52 159,-15 33,-15 29,-14 47,-25l55 -35c64,50 -156,80 -191,191 56,7 34,1 72,22 62,-42 14,-34 65,-57 71,-31 40,7 253,-110 128,-70 94,-17 204,-120l20 -18c3,-2 7,-6 10,-8 44,-34 42,-36 101,-21 -60,74 -122,44 -152,139l72 3c-126,59 -375,266 -487,287l-1 36c36,-1 55,-3 73,-6 76,-12 75,-29 141,-63 69,-37 51,-16 115,-66 49,-38 53,-46 134,-44 -30,25 -61,49 -95,68 -38,22 -61,33 -104,58 -66,39 -153,76 -195,129 41,-7 42,-8 81,-25 26,-12 18,-9 35,-19 35,-20 14,-7 33,-22l20 16c-1,6 -86,49 -96,53l24 78c-25,20 -42,53 -58,102 48,-2 76,-20 91,-44 8,11 16,28 24,69l61 -60c40,-39 -22,-23 15,-10l-14 61c-4,9 -12,28 -15,36l-79 150c-13,29 -8,23 -30,59 -43,68 -42,74 -66,158 92,-5 24,26 78,-49 22,-30 25,-52 63,-75 46,-29 20,-35 70,-103 19,46 36,29 13,88 -28,73 -54,63 -61,165l36 2c7,-21 16,-40 27,-58 1,6 3,13 4,22 8,-11 27,28 18,-52 24,-28 53,-50 86,-70 -14,108 -30,30 -60,125l72 3 -2 55c-49,16 -49,-13 -24,46 -21,7 -22,21 -26,78l58 -52c-7,49 -11,49 -23,90 57,-37 53,-63 42,-125 -4,1 -8,1 -12,2 4,-3 8,-6 12,-10 0,3 0,5 0,8 63,-41 22,-19 59,-89 -7,1 -14,1 -20,1 3,-11 7,-23 11,-37 56,22 11,3 34,30 21,25 17,19 35,47l-60 -4c-2,2 -11,21 -13,24 -5,9 -14,24 -21,30l91 4 -3 61c-2,-3 -4,-5 -6,-8 -4,74 -9,59 13,110 71,-47 35,-62 -1,-97l284 -324c-3,2 -14,15 -17,20 -53,75 -182,306 -186,388 -96,-5 -27,-1 -55,15l39 34c2,2 6,9 7,11 2,3 4,9 6,12l117 -158c9,19 4,-2 9,35 4,26 3,24 5,57 32,-6 48,0 56,-34 28,25 7,21 -12,44 -15,18 -20,29 -29,45 50,-11 47,-20 74,-52l145 -185c-39,70 -66,118 -72,208 109,-4 58,-35 132,-87 59,-41 22,14 59,-38 19,-28 -12,-7 18,-66 9,7 33,33 35,34 36,22 -12,9 33,8l29 -5c3,-1 8,-2 11,-3 76,-39 142,-113 175,-192 23,80 27,60 62,8 6,7 24,-10 23,-22 0,0 -1,-3 -2,-3l-3 -1c9,-12 19,-25 31,-38 136,-146 106,-69 5,36 -44,46 -103,104 -70,174 26,57 236,-251 259,-276 3,-3 150,-151 93,-69 -62,91 -105,186 -169,279 -10,14 -18,26 -25,38l0 0c-31,19 -35,2 -39,52l10 1c-4,9 -8,18 -12,28 161,-65 254,-139 358,-277 30,-38 127,-155 166,-176 7,5 -235,304 -250,360 78,-17 61,-80 160,-121 32,-13 64,-20 97,-31 -4,-21 -57,-16 16,-60 39,-23 146,-112 162,-160 18,-54 -7,-91 20,-59 43,51 53,-43 145,-60 54,-10 -7,58 32,85 33,23 71,-56 105,-41 27,12 38,25 52,19 3,-1 43,7 17,21 -41,22 -45,100 -52,137 63,-53 67,-114 152,-120 5,0 19,-7 23,-9 46,-22 23,-12 51,-60l56 54c-77,-15 -50,-36 -81,73 109,2 74,-22 133,-84l58 -50c34,-29 -5,-28 45,-31 78,-5 20,-3 45,14 -62,22 -13,-16 -61,67 -32,54 -28,19 -38,92 74,-16 30,-15 83,-42 88,-44 37,12 153,-83 7,-6 29,-22 31,-23 18,-10 -19,-28 13,-2 12,27 16,-3 -3,36 -13,28 -18,26 -41,48 -47,43 -53,29 -73,92l78 -47c109,-97 26,-60 127,-58 53,0 24,3 74,-27 -19,68 -30,98 -86,134 -2,2 -8,4 -12,7 96,4 89,24 112,-50l13 73c76,-26 4,24 94,-13 -13,93 -15,24 -42,107l86 -77c13,-13 27,-25 28,-27 -8,67 -29,72 -60,125 67,-15 39,-17 93,-50 -20,78 -46,45 34,56 -9,66 -29,72 -61,125 67,-15 132,-74 153,-139 37,30 54,70 67,113 -66,39 -65,14 -77,87 85,-3 30,0 98,-34l26 -13c2,-1 6,-4 9,-5 144,-83 90,-30 104,45 39,-8 51,-26 74,-15 -11,22 9,50 1,78 -12,42 -30,46 -46,102 39,-23 43,-38 74,-71 115,-123 93,-39 175,-74 66,-28 -33,-5 50,-23l-3 64c0,1 -1,6 0,9 51,-31 68,-31 78,-106 72,34 1,27 70,58 73,-135 44,-65 181,-135 57,-29 19,-30 48,-91 47,14 52,19 89,41 31,-42 47,-49 85,-99 47,-62 28,-61 52,-113l52 57c15,-108 35,-19 44,-144l97 -9c-9,11 -13,28 -17,70 -4,4 -8,10 -11,15 87,-19 28,-33 98,-44 109,-17 -19,1 66,34 6,-80 40,-135 117,-158l-99 101c73,-12 57,-29 115,-64 27,44 22,20 33,74 -70,27 73,1 -24,-4 -36,-2 3,-25 -32,5l-59 126c-47,77 -45,10 -59,102 72,-3 189,-105 232,-166 41,-58 151,-162 221,-177 -2,4 -6,5 -7,11 -1,7 -6,10 -7,12l-17 21c-14,18 -22,32 -27,43l-8 0 -2 51c-3,11 -9,24 -24,40 -5,0 -8,1 -5,6 -3,3 -6,6 -9,9l-1 1c-1,1 -1,1 -2,2 -4,4 -8,8 -13,12 -64,58 -161,110 -189,196 80,-17 141,-75 194,-137l6 0 1 -8c18,-21 35,-43 52,-64 7,-4 11,-9 9,-11 4,-5 8,-10 12,-15l52 -57c45,-42 73,-53 112,-106 -6,-3 -9,-5 -11,-6l-14 -16c11,-7 16,-9 23,-5 18,55 2,-5 48,65 -129,60 -62,52 -66,148 -5,91 -105,119 -21,112 60,-5 23,3 51,-50 63,-118 -41,-35 70,-115 15,-11 51,-36 59,-51 18,-39 7,-31 -19,-59 139,39 29,26 121,-77 14,-15 42,-23 68,-68 11,-18 16,-51 68,-87 47,-33 -31,-20 64,-26 -17,-80 -31,-30 -24,-89 7,-59 21,-1 33,-93 96,5 27,1 55,-16 -88,-2 -95,24 -160,73 -61,47 -71,74 -82,81 -7,-31 -5,-18 -29,-56 -37,10 -47,36 -101,78l-230 142c-87,17 32,-63 62,-95 150,-163 64,-70 133,-178 62,-97 142,-75 149,-220 -95,58 -170,140 -245,222l-54 -4 0 55 40 -35c-66,73 -133,145 -214,199 7,-8 14,-16 22,-25 55,-59 75,-9 79,-135 67,-65 146,-123 204,-184 12,-4 22,-14 15,-15 8,-10 16,-20 23,-29 -86,3 -36,21 -90,-4 37,-52 38,-23 58,-89 -81,18 -172,115 -226,172 9,-71 48,-89 86,-135 24,-27 15,-3 31,-42 -48,11 -104,79 -115,27 -7,-32 55,-72 100,-82l3 -73c-80,18 -34,26 -109,-5 39,-48 14,-15 41,-33 92,-63 56,-62 62,-80 16,-47 -22,-26 32,-45l-36 -19c-36,-29 -17,11 -34,-39 72,4 73,10 126,25 -20,-111 37,-87 -68,-95 -21,65 -4,49 -75,51 40,-69 93,-103 135,-175 -85,14 -60,37 -33,-57 -66,3 -61,6 -98,46 -19,22 -57,71 -73,92l-20 -16c0,-6 10,-16 11,-13l26 -32c2,-3 6,-8 8,-11 30,-57 5,-82 -34,-110 16,97 -18,86 -81,159 -37,44 -94,131 -135,158 4,-52 34,-90 67,-126 4,2 10,6 17,11l0 -28c31,-32 61,-64 74,-104 -46,21 -73,47 -100,77l-10 0c0,4 1,7 2,9 -17,19 -33,39 -54,60 -40,41 -5,30 -66,43 16,-21 36,-52 54,-75 52,-65 96,-48 48,-157 -51,31 -77,59 -114,105 -42,53 -54,88 -130,48 -7,-28 3,1 28,-41 40,-70 147,-177 168,-241l-122 57c-44,47 26,-30 -17,20 -32,37 -38,49 -86,58 31,-27 38,-35 63,-74 35,-55 52,-61 56,-139 -110,-8 -54,9 -71,-40l-74 52c-23,24 -34,46 -56,73 -83,98 -64,25 -135,79 -60,45 -81,126 -140,162l-17 8c-2,1 -7,3 -9,4l-17 11c-2,1 -7,5 -9,7 -2,2 -6,6 -9,8l-47 45 7 -145c-87,3 -36,21 -91,-4 -8,62 -48,99 -25,144 -3,1 -8,-3 -9,1 -16,43 -4,-3 -20,2 -59,20 -42,40 -30,104 -41,-12 -42,-16 -90,-23 27,-97 4,-94 -88,-77 34,98 -43,-80 25,32 24,40 19,-32 11,24 -4,33 -29,28 -58,34l-31 -41c18,-65 46,-61 58,-158 -42,8 -42,12 -91,14l1 -36c66,-3 94,-22 107,-49zm-295 -343c53,-11 26,3 56,-34 -32,6 -49,0 -56,34zm50 93c90,-54 66,-20 77,-87 -51,15 -56,21 -77,87zm-18 -1c-2,2 5,3 5,6l-5 -6zm630 139c28,-5 55,-1 57,-34 2,-51 -7,-34 -34,-56 -23,43 -19,23 -23,90zm-326 -501l5 -6c0,1 -7,4 -5,6zm545 -146l6 -5c-1,0 -7,3 -6,5zm19 -36c1,2 5,-8 5,-6l0 0c0,1 -7,4 -5,6zm-764 436l5 -5c0,0 -7,4 -5,5zm-19 0c-1,2 6,3 6,6l0 0c-1,0 -4,-7 -6,-6zm19 -163c-23,23 21,24 8,0l-8 0zm163 -200c19,18 66,-26 21,-10 0,0 -51,-21 -21,10zm-163 327c27,-6 54,-4 54,-36 0,-51 -8,-34 -36,-55 -21,44 -18,24 -18,91zm-1991 1913l6 -5c0,0 -7,3 -6,5zm1135 -111l5 -5c0,0 -7,3 -5,5zm-3609 -1098l6 -6c-1,1 -8,4 -6,6zm1694 1536l6 -5c-1,0 -8,3 -6,5zm-1460 -706c2,2 6,-8 6,-5l0 0c-1,0 -8,3 -6,5zm-27 -202c1,2 4,-2 5,-4 -22,8 -45,16 -71,20 34,-47 118,-95 177,-130 197,-119 262,-87 114,-9 -43,23 -53,26 -94,50 -45,27 -82,51 -126,69 -1,0 -6,3 -5,4zm-74 416c1,6 20,5 22,4 4,-1 29,44 8,-4 -1,-1 -33,-35 -30,0zm1817 468c-11,50 44,-7 19,-6 -34,0 -10,-31 -19,6zm166 -29c-10,39 25,14 24,-2 0,0 -1,-3 -1,-3 -36,-12 -17,-22 -23,5zm-558 -154l5 6c-10,53 -20,51 -74,65 10,-39 20,-94 74,-85l1 16 -1 4c-1,-2 -3,-7 -5,-6zm-1042 97c-12,50 43,-7 18,-6 -34,0 -10,-31 -18,6zm225 247l5 6c0,0 -3,-7 -5,-6zm-444 -640c2,2 6,-7 6,-5l0 0c0,1 -7,3 -6,5zm-96 123l36 2c23,-81 39,-57 60,-125 -10,1 -47,-6 -76,31 -28,35 -18,35 -20,92zm-55 -2c38,58 11,57 55,2l-55 -2zm-375 -384c2,1 6,-8 6,-6l0 0c-1,0 -7,4 -6,6zm1747 600c-10,50 43,-9 18,-7 -34,2 -11,-31 -18,7zm164 -53c-1,-1 -1,-1 -1,0 -3,1 -7,1 -11,0 -23,-19 29,-52 49,-65 -5,16 -18,57 -37,65zm-1856 -384c97,-8 110,-81 91,-127 -46,17 -72,54 -91,127zm4544 638l5 -5c0,0 -7,3 -5,5zm1977 -1382l5 -5c0,0 -7,3 -5,5zm-18 -1c-2,2 5,4 5,6l-5 -6zm38 -34c1,2 5,-8 5,-5l0 0c0,0 -7,3 -5,5zm-127 -24l6 -6c0,1 -7,4 -6,6zm-36 -2c10,54 -4,26 34,56l2 -54 -36 -2zm-248 514l6 -5c-1,0 -8,3 -6,5zm-254 200l5 -5c0,0 -7,3 -5,5zm163 -1037c2,2 6,-8 6,-5l0 0c-1,0 -8,4 -6,5zm164 473l5 -5c0,0 -7,4 -5,5zm18 19l6 -6c-1,1 -8,4 -6,6zm18 218l6 -6c-1,1 -7,4 -6,6zm111 -133c5,23 25,-9 10,-13 0,0 -1,-4 -3,-9 2,-4 41,-19 -4,-16 -3,0 -41,34 -3,38zm-94 481c3,-38 11,-33 20,-21 -11,10 -17,16 -20,21zm43 34c5,7 15,5 34,-27 27,-47 1,13 2,-25 0,-1 0,-2 0,-3 18,-15 42,-28 66,-39l-98 141c-6,-18 -7,-33 -4,-47zm-252 -239l6 -7c-1,3 -4,5 -6,7zm352 564c4,-54 29,-88 73,-131 59,-56 76,-4 85,-135 -57,20 -10,29 -70,65 -2,1 -7,3 -9,4 -2,1 -7,4 -10,5 -2,2 -7,6 -10,7 -61,42 -57,44 -70,82 -10,27 -59,76 11,103zm-464 196c92,-55 217,-121 174,-210 -70,42 -38,42 -91,91 -58,53 -70,14 -83,119zm138 -230c80,-15 91,1 112,-68 -73,5 -25,-6 -67,22 -36,25 -22,17 -45,46zm2 -164l-18 -1c11,-21 28,-45 18,1zm555 -65l61 -48 -58 -6 -3 54zm118 -176c5,6 14,6 22,3l0 -12 -1 0c0,0 -50,-23 -21,9zm-185 -337c-1,22 37,43 28,2 -9,-42 47,1 -8,-6 -23,-3 -18,-33 -20,4zm128 389c-33,30 21,12 5,0 0,-1 -4,-1 -5,0zm-189 -246l6 -5c-1,0 -8,3 -6,5zm180 45l6 -5c-1,0 -8,3 -6,5zm-157 -153c2,2 6,-8 6,-5l0 0c0,0 -8,3 -6,5zm-197 701l6 -5c0,0 -7,3 -6,5zm-214 -83l5 -5c0,0 -7,3 -5,5zm150 298l5 -5c0,0 -7,3 -5,5zm-324 -88l6 -5c-1,0 -8,3 -6,5zm292 -22l6 -6c0,1 -7,4 -6,6zm-91 -5l6 -5c0,0 -7,3 -6,5zm399 -728l6 -5c-1,1 -8,4 -6,5zm-288 697l6 -5c-1,0 -8,3 -6,5zm340 -257l6 -5c-1,0 -8,3 -6,5zm-671 -193c-7,14 -14,29 -11,44 -4,2 -8,5 -13,9 -25,20 -39,24 -76,32 18,-58 37,-81 100,-85zm6 68c3,2 6,4 10,5 -1,3 -3,7 -7,12 0,0 -60,48 -36,3 0,-1 20,-14 33,-20zm580 -389c-2,2 5,3 5,6l-5 -6zm192 173l6 -5c0,0 -8,3 -6,5zm-215 -65c-2,2 5,3 5,6l-5 -6zm-19 18c-2,1 5,3 5,5l0 0c0,0 -3,-7 -5,-5zm242 266l6 -5c-1,0 -8,3 -6,5zm23 -90c-2,2 5,3 5,6l0 0c-1,-1 -4,-8 -5,-6zm-290 -32l5 6c0,-1 -7,-4 -5,-6zm-5339 988c58,-39 29,13 40,-71 -30,31 -26,21 -40,71zm-18 -1c-21,18 25,70 8,20 0,0 23,-49 -8,-20zm-20 35c-38,3 0,96 1,17 0,-7 40,-20 -1,-17zm-488 -478c-20,18 26,70 9,21 0,-1 23,-50 -9,-21zm-39 71c-3,47 28,4 10,1 0,-1 -8,-52 -10,-1zm-19 17l5 6c-1,0 -4,-7 -5,-6zm8 -181c-18,-21 -70,25 -21,8 1,0 50,24 21,-8zm-229 -557c-46,-3 -4,28 0,10 0,0 51,-8 0,-10zm-71 -40c-1,2 6,3 6,5l-6 -5zm-19 17c-1,2 6,3 6,6l-6 -6zm921 -995c-170,-44 -229,133 -445,180 55,-68 29,0 58,-70 -101,42 -82,52 -134,51 -51,-2 27,-25 -20,-2 -47,22 14,-30 -8,8l-4 16c-1,2 0,7 -2,10 -182,-5 -106,44 -105,48 1,6 80,-5 2,25 -27,10 -22,-2 -22,-2l-24 -5c-1,2 0,5 0,9 -1,99 62,73 -40,80l-3 54c85,2 57,1 109,-33 107,-71 99,-32 192,-95l365 -210c58,-32 42,-10 81,-64zm-369 111l-5 -6c0,0 3,7 5,6zm374 181c46,2 4,-29 0,-11 0,0 -51,9 0,11zm37 -16c47,2 4,-29 1,-11 0,0 -52,8 -1,11zm126 24l6 5c-1,0 -4,-7 -6,-5zm548 -412l-6 6c1,-1 8,-4 6,-6zm77 -87l-37 -2 -3 73c48,-32 36,8 40,-71zm18 1c20,-18 -26,-70 -8,-21 0,1 -24,50 8,21zm151 -120l-5 -6c1,0 3,7 5,6zm411 183c-30,-33 -64,46 -17,13 1,-1 42,15 17,-13zm18 1c20,-19 -26,-71 -9,-21 0,0 -23,50 9,21zm333 -112c49,-30 38,-8 58,-70l-73 -4c35,36 30,16 15,74zm55 -16l6 -5c-1,0 -8,3 -6,5zm202 -27l-5 -5c0,0 3,7 5,5zm275 -41c18,20 70,-26 21,-9 -1,0 -50,-23 -21,9zm55 -16c2,-2 -5,-8 -5,-6l0 0c0,1 3,8 5,6zm275 -23l-6 -6c1,0 4,7 6,6zm1173 219l-5 -6c0,0 3,7 5,6zm523 97l-5 5c0,0 7,-3 5,-5zm19 1l-6 -6c1,1 4,8 6,6zm-1 18c1,2 5,-7 5,-5l0 0c0,0 -7,3 -5,5zm338 -221c-74,17 -53,3 -59,89 74,-16 53,-3 59,-89zm87 77l-43 89c57,-36 37,5 43,-89zm44 239l-5 -5c0,0 3,7 5,5zm19 -17c46,2 4,-29 0,-11 0,0 -51,9 0,11zm89 41l-7 -8c0,0 2,2 2,2 0,0 3,7 5,6zm137 571l-6 5c1,-1 8,-4 6,-5zm50 475l6 -5c0,1 -7,3 -6,5zm-450 671c63,-30 76,-6 40,-89 -40,13 -20,-10 -40,27 -23,42 -11,-6 0,62zm-35 -38c-2,2 5,3 5,6l-5 -6zm15 -309c-67,3 -68,3 -76,69 90,-19 30,-13 76,-69zm-690 332l6 -5c0,0 -7,3 -6,5zm-430 253c46,-28 77,-46 96,-105 -41,13 -30,10 -55,35 -30,31 -27,25 -41,70zm-19 -1c-1,2 6,3 6,6l-6 -6zm-210 -174c-2,2 5,3 5,6l-5 -6zm-16 -37l5 6c-1,-1 -3,-8 -5,-6zm-237 7l59 -106c-87,26 -66,67 -59,106zm-552 -281l6 -5c0,0 -7,3 -6,5zm-146 11c32,-33 61,-53 78,-105 -51,31 -68,31 -78,105zm-585 -152c-12,-11 -3,-5 0,0zm-188 118c-10,24 54,38 71,39 12,-60 20,-85 -61,-45l-10 6zm-455 324c-26,16 -87,86 -28,57 30,-18 124,-104 28,-57zm-376 86c22,1 30,-58 20,-57 0,0 -51,19 -50,24 2,7 24,27 30,33zm-234 -25l6 6c-1,-1 -4,-8 -6,-6zm-55 15l5 6c0,0 -3,-7 -5,-6zm-39 53c-12,52 45,-4 15,-2 -33,3 -5,-39 -15,2zm-455 -3c2,-46 29,-2 11,1 0,0 -13,50 -11,-1zm387 -91l5 6c0,-1 -7,-4 -5,-6zm-472 -40c13,-95 -16,-34 39,-53 -16,28 -14,43 -39,53zm583 9c1,-26 -2,-12 5,-32 1,-4 3,-11 4,-15 2,-3 4,-9 6,-13l45 -65c74,67 -7,45 88,59 -76,95 -48,15 -120,32 -20,9 7,2 -28,34zm-352 111c65,-87 104,-177 156,-211 -15,52 -36,84 -60,125 -32,58 -27,71 -96,86zm-208 -210c20,-19 67,32 19,10 0,0 -51,19 -19,-10zm455 3l5 5c0,0 -7,-3 -5,-5zm1014 -147c-45,37 -43,3 0,0zm-994 111l5 6c-1,0 -7,-4 -5,-6zm3053 126l5 6c0,-1 -7,-4 -5,-6zm-3693 -83c40,-139 40,-76 100,-177l-31 100c-30,60 -18,47 -69,77zm3841 35c-7,-53 39,7 18,5 -36,-4 -13,34 -18,-5zm-163 -26l6 6c-1,0 -8,-4 -6,-6zm-2699 -144c-8,-4 -9,-9 0,0zm2756 111c23,-21 65,34 22,20 0,0 -2,-1 -2,-1 -11,-10 -48,6 -20,-19zm-3309 -190l63 -52c-21,29 -26,40 -42,69l-21 -17zm616 -7c2,1 39,-58 19,-40 -16,15 48,0 2,49 -17,18 -4,21 -34,2 1,-3 8,-23 13,-11zm2260 103c2,-46 29,-1 11,1 0,0 -13,50 -11,-1zm-1619 -206c-8,-5 -8,-7 0,0zm-242 -23c-8,-4 -8,-6 0,0zm-1149 -40l5 6c-1,-1 -7,-4 -5,-6zm-436 -20l5 5c-1,0 -7,-4 -5,-5zm57 -71c3,-46 29,-1 11,1 0,0 -13,50 -11,-1zm2799 132c-32,3 -23,-55 0,-24 0,0 0,2 0,2l0 22zm-1513 -62c55,-43 100,-85 25,13 -52,67 -146,121 -51,10l26 -23zm3351 76c3,-6 72,-26 22,-1 0,0 -43,51 -22,1zm-1835 -86c7,-38 96,9 17,2 -7,0 -24,38 -17,-2zm-2943 -139l5 6c-1,-1 -7,-4 -5,-6zm5179 226l5 5c0,0 -7,-4 -5,-5zm-3659 -186c0,0 105,-125 132,-146 101,-78 15,10 -16,49 -36,45 -68,72 -107,123 -37,-25 -9,-26 -9,-26zm1734 77l5 6c0,-1 -7,-4 -5,-6zm-363 -35l5 5c0,0 -7,-4 -5,-5zm-2853 -135l6 6c-1,-1 -7,-4 -6,-6zm5036 183l5 5c0,0 -7,-3 -5,-5zm474 -14l6 5c-1,0 -8,-4 -6,-5zm-361 -54l5 6c-1,0 -7,-4 -5,-6zm-56 16c-55,8 7,-65 7,-32 0,4 13,29 -7,32zm330 -39l5 5c0,0 -7,-4 -5,-5zm20 -36l5 6c0,0 -7,-4 -5,-6zm-5178 -262l5 6c0,-1 -7,-4 -5,-6zm22 -72l5 6c0,0 -7,-4 -5,-6zm-73 -3l5 6c0,-1 -7,-4 -5,-6zm-383 -52c-1,-7 75,-31 96,-35 -4,3 -9,2 -11,8 -4,13 -14,9 -21,14l-64 13zm-31 -59c3,-46 29,-1 11,1 0,0 -13,50 -11,-1zm5637 193c-38,63 0,53 -76,69 32,-28 31,-53 76,-69zm-147 11l-1 37 -55 -3c31,-40 5,-21 56,-34zm-5435 -201c-54,8 1,-55 6,-37l-6 37zm40 -71l5 6c0,-1 -7,-4 -5,-6zm418 1l6 6c-1,0 -7,-4 -6,-6zm-636 -11c34,-107 -8,15 163,-146 3,-2 7,-6 10,-8 170,-154 113,-16 305,-162l134 -82c74,-55 -30,-46 100,-42 -29,70 -2,2 -58,70 89,-17 29,-11 55,2l-70 39c-92,42 -110,46 -152,24 28,89 6,-15 33,74 -87,3 -64,27 -130,67 -13,-30 -20,32 2,-55 -82,-2 -103,19 -151,63l-183 124c-48,33 -1,9 -58,32zm411 -218c46,2 4,-28 0,-11 0,1 -51,9 0,11zm37 -16c46,2 4,-29 0,-11 0,0 -51,8 0,11zm206 -136c-21,-23 -68,28 -24,18l8 -5c1,-1 42,15 16,-13zm-324 312c-15,49 -49,84 -76,54 -24,-26 -17,-7 8,-29 43,-36 -8,-20 68,-25zm276 -59c3,-6 24,-3 26,-2 6,0 49,-44 15,3 -27,36 -53,19 -41,-1zm5212 300c19,-60 -9,-11 35,-58l32 16c-17,13 -52,33 -67,42zm-5701 -360l5 6c0,-1 -7,-4 -5,-6zm5654 212l5 5c0,0 -7,-3 -5,-5zm-5123 -278l6 6c-1,-1 -7,-4 -6,-6zm-353 -235l5 6c0,-1 -7,-4 -5,-6zm403 -36l5 6c-1,0 -7,-4 -5,-6zm34 -13l57 -40c-23,62 14,12 -37,56l-20 -16zm78 -54c20,-19 68,32 20,10 -1,0 -52,19 -20,-10zm4942 251c34,-46 11,-37 75,-51 -28,67 -6,27 -75,51zm-526 -61c3,-50 65,3 17,1 -19,0 -19,40 -17,-1zm-907 -61l5 5c-1,0 -7,-4 -5,-5zm-199 -46c3,-47 29,-2 11,0 0,0 -13,50 -11,0zm309 33c-24,-15 -20,-11 -54,-21 38,-48 48,-66 54,21zm838 -16l5 6c0,0 -7,-4 -5,-6zm543 11l0 0zm-4303 -206l5 6c-1,-1 -7,-4 -5,-6zm-72 -22c21,-23 0,-25 18,6 13,21 27,-14 -2,13 -18,16 -2,31 -16,-11 0,-1 1,-5 0,-8zm1854 70c2,-6 71,-27 21,-1 0,0 -42,51 -21,1zm-1725 -118c41,11 42,16 90,22 -40,52 -1,32 -42,19 -17,-6 -39,-28 -48,-41zm3671 173l5 5c0,0 -7,-3 -5,-5zm-1108 -71l6 6c-1,0 -8,-4 -6,-6zm1128 35c2,-5 71,-26 21,0 0,0 -42,51 -21,0zm-2109 -151c3,-3 49,-29 78,-35l-78 35zm-30 -59c30,28 28,14 -29,45 -48,26 21,3 -47,25 17,-24 11,-17 35,-38 3,-3 7,-6 10,-9l31 -23zm-566 28l5 6c0,0 -7,-4 -5,-6zm603 -44c1,-2 69,-48 36,-3 0,0 -59,48 -36,3zm764 18l5 5c0,0 -7,-4 -5,-5zm-617 -48c-24,57 38,28 -56,34 28,-23 23,-16 56,-34zm2036 78c2,-46 29,-2 11,1 0,0 -13,50 -11,-1zm-2017 -95l5 6c0,-1 -7,-4 -5,-6zm637 12l5 5c0,0 -7,-3 -5,-5zm-548 29c30,-37 54,-44 95,-69 -20,70 -9,73 -95,69zm1949 0l5 6c0,0 -7,-4 -5,-6zm-1453 -86c2,-6 71,-27 21,-1 0,0 -42,51 -21,1zm-671 -68c7,-37 96,9 17,2 -7,0 -24,38 -17,-2z"/>
   <path class="fil2" d="M4640 1241c-57,-5 -115,-9 -174,-13l0 -34c59,4 117,9 174,13l0 34z"/>
   <path class="fil2" d="M2398 1273c58,-4 116,-9 174,-13l0 -33c-58,4 -116,8 -174,13l0 33z"/>
   <g>
    <rect class="fil2" x="4535" y="1135" width="36.5104" height="169.003"/>
    <g>
     <path class="fil3" d="M219 1638c-4,1 -9,-2 -10,-6 -1,-5 2,-9 6,-10l8 -2 9 -2c4,-1 9,2 10,7 1,4 -2,9 -7,10l-9 2 -7 1zm66 -14c-5,1 -9,-2 -10,-7 -1,-4 1,-9 6,-10l10 -2 6 -1c5,-1 9,2 10,6 1,5 -1,9 -6,10l-7 2 -9 2zm65 -15c-4,1 -9,-2 -10,-6 -1,-5 2,-9 7,-10l1 0 12 -3 3 -1c5,-1 9,2 10,7 1,4 -2,9 -6,10l-3 0 -12 3 -2 0zm66 -14c-5,1 -9,-2 -10,-6 -1,-5 2,-9 6,-10l7 -2 10 -2c4,-1 9,2 10,7 1,4 -2,9 -7,9l-10 3 -6 1zm65 -14c-4,1 -9,-2 -10,-7 -1,-4 2,-9 7,-9l0 -1 12 -2 4 -1c5,-1 9,2 10,6 1,5 -2,9 -6,10l-4 1 -12 3 -1 0zm66 -14c-5,1 -9,-2 -10,-6 -1,-5 2,-9 7,-10l7 -2 9 -2c5,-1 9,2 10,7 1,4 -2,9 -7,10l-8 1 -8 2zm66 -14c-5,1 -9,-2 -10,-6 -1,-5 2,-9 6,-10l4 -1 12 -2 1 -1c4,-1 9,2 10,7 1,4 -2,9 -7,10l0 0 -13 3 -3 0zm65 -13c-4,1 -9,-2 -9,-7 -1,-4 2,-9 6,-10l0 0 13 -2 4 -1c4,-1 9,2 9,6 1,5 -2,9 -6,10l-4 1 -12 3 -1 0zm66 -14c-4,1 -9,-2 -10,-6 -1,-5 2,-9 7,-10l10 -2 6 -1c5,-1 9,2 10,6 1,5 -2,9 -6,10l-7 1 -10 2zm66 -13c-5,1 -9,-2 -10,-6 -1,-5 2,-9 7,-10l8 -2 8 -2c5,-1 9,2 10,7 1,5 -2,9 -7,10l-7 1 -9 2zm66 -13c-5,1 -9,-2 -10,-6 -1,-5 2,-9 7,-10l8 -2 8 -2c5,0 9,3 10,7 1,5 -2,9 -7,10l-8 2 -8 1zm66 -13c-5,1 -9,-2 -10,-6 -1,-5 2,-9 7,-10l7 -2 9 -1c5,-1 9,2 10,6 1,5 -2,9 -7,10l-8 2 -8 1zm66 -12c-5,1 -9,-2 -10,-7 -1,-4 2,-9 7,-10l8 -1 8 -2c5,-1 9,2 10,7 1,4 -2,9 -7,10l-8 1 -8 2zm66 -13c-5,1 -9,-2 -10,-6 -1,-5 2,-9 7,-10l9 -2 7 -1c5,-1 9,2 10,7 1,4 -2,9 -7,9l-6 2 -10 1zm66 -12c-5,1 -9,-2 -10,-6 -1,-5 2,-9 7,-10l12 -2 4 -1c5,-1 9,2 10,7 1,4 -2,9 -7,9l-4 1 -12 2zm66 -12c-5,1 -9,-2 -10,-6 -1,-5 2,-9 7,-10l1 0 14 -3 1 0c5,-1 9,2 10,7 1,4 -2,9 -7,9l-1 1 -14 2 -1 0zm66 -11c-5,1 -9,-3 -10,-7 -1,-5 2,-9 7,-10l4 -1 12 -2c5,0 9,3 10,7 1,5 -2,9 -7,10l-12 2 -4 1zm66 -12c-5,1 -9,-2 -10,-7 -1,-4 3,-8 7,-9l9 -2 8 -1c4,-1 9,2 9,7 1,4 -2,9 -7,9l-8 2 -8 1zm66 -11c-4,1 -9,-2 -10,-7 0,-4 3,-9 7,-9l13 -3 4 0c4,-1 9,2 10,7 0,4 -3,9 -7,9l-4 1 -13 2zm66 -11c-4,1 -9,-2 -9,-7 -1,-4 2,-9 7,-9l4 -1 12 -2c5,-1 9,2 10,7 1,4 -3,9 -7,9l-13 2 -4 1zm67 -11c-5,1 -9,-2 -10,-7 -1,-4 2,-8 7,-9l10 -2 6 -1c5,0 9,3 10,7 1,5 -2,9 -7,10l-6 1 -10 1zm66 -10c-5,1 -9,-2 -10,-7 0,-5 3,-9 7,-10l2 0 15 -2 0 0c4,-1 9,2 9,7 1,4 -2,9 -7,9l0 0 -14 3 -2 0zm66 -10c-4,0 -9,-3 -9,-7 -1,-5 2,-9 7,-10l9 -1 7 -1c5,-1 9,2 10,7 0,4 -3,9 -7,9l-8 1 -9 2zm67 -10c-5,1 -9,-3 -10,-7 -1,-5 2,-9 7,-10l2 0 15 -2 0 0c4,-1 9,2 9,7 1,4 -2,9 -7,9l0 0 -15 3 -1 0zm66 -10c-5,1 -9,-2 -10,-7 0,-5 3,-9 8,-9l9 -2 7 -1c5,-1 9,3 10,7 0,5 -3,9 -7,10l-7 1 -10 1zm66 -9c-4,0 -8,-3 -9,-7 -1,-5 2,-9 7,-10l3 0 14 -2c4,-1 8,2 9,7 1,5 -2,9 -7,9l-13 2 -4 1zm67 -9c-5,0 -9,-3 -10,-8 0,-4 3,-8 8,-9l12 -2 4 0c5,-1 9,2 10,7 0,4 -3,9 -8,9l-4 1 -12 2zm66 -9c-4,0 -8,-3 -9,-8 -1,-4 3,-8 7,-9l7 -1 10 -1c4,-1 9,3 9,7 1,5 -2,9 -7,10l-10 1 -7 1zm67 -9c-5,1 -9,-3 -9,-7 -1,-5 2,-9 7,-10l1 0 15 -2c5,0 9,3 10,8 0,4 -3,8 -7,9l-16 2 -1 0zm66 -8c-4,0 -8,-3 -9,-8 0,-4 3,-8 7,-9l12 -1 5 -1c5,0 9,3 9,7 1,5 -2,9 -7,10l-5 0 -12 2zm67 -8c-4,0 -9,-3 -9,-8 -1,-4 3,-8 7,-9l7 -1 10 -1c4,0 9,3 9,7 1,5 -3,9 -7,10l-10 1 -7 1zm67 -8c-5,1 -9,-3 -10,-7 0,-5 3,-9 8,-10l3 0 14 -2c4,0 8,3 9,8 0,4 -3,9 -8,9l-13 2 -3 0zm66 -7c-4,0 -8,-3 -9,-8 0,-4 3,-9 8,-9l14 -2 2 0c5,0 9,3 10,7 0,5 -3,9 -8,10l-2 0 -15 2zm268 -27c-5,0 -9,-3 -10,-8 0,-4 3,-9 8,-9l2 0 15 -1c4,-1 8,2 9,7 0,5 -3,9 -8,9l-14 2 -2 0zm66 -6c-4,0 -8,-3 -9,-8 0,-4 3,-9 8,-9l16 -1 1 0c4,-1 8,3 9,7 0,5 -3,9 -8,9l-1 0 -16 2zm67 -6c-4,1 -8,-3 -9,-8 0,-4 3,-8 8,-9l14 -1 3 0c4,0 8,3 9,8 0,4 -3,8 -8,9l-3 0 -14 1zm67 -5c-5,0 -9,-3 -9,-8 0,-4 3,-9 8,-9l12 -1 5 0c4,0 8,3 9,8 0,4 -4,8 -8,9l-5 0 -12 1zm67 -5c-5,0 -9,-3 -9,-8 0,-5 3,-9 8,-9l10 -1 7 0c4,0 8,3 9,8 0,4 -4,8 -8,9l-6 0 -11 1zm67 -5c-5,1 -9,-3 -9,-8 0,-4 3,-8 8,-9l9 0 8 -1c4,0 8,4 9,8 0,5 -4,9 -8,9l-8 1 -9 0zm67 -4c-5,0 -9,-3 -9,-8 0,-5 3,-9 8,-9l8 0 9 -1c4,0 8,3 9,8 0,5 -4,9 -8,9l-9 0 -8 1zm67 -4c-5,0 -9,-3 -9,-8 0,-5 3,-9 8,-9l7 0 10 -1c4,0 8,4 9,8 0,5 -4,9 -8,9l-10 1 -7 0zm67 -4c-5,1 -9,-3 -9,-8 0,-4 3,-8 8,-8l7 -1 10 0c4,-1 8,3 9,8 0,4 -4,8 -8,8l-10 1 -7 0zm67 -3c-5,0 -9,-3 -9,-8 0,-5 3,-9 8,-9l7 0 10 -1c5,0 8,4 9,8 0,5 -4,9 -8,9l-11 1 -6 0zm67 -3c-5,0 -9,-3 -9,-8 0,-5 4,-9 8,-9l6 0 11 0c5,-1 9,3 9,8 0,4 -4,8 -8,8l-11 1 -6 0zm67 -3c-5,1 -9,-3 -9,-8 0,-4 4,-8 8,-8l7 -1 10 0c5,0 9,3 9,8 0,5 -4,9 -8,9l-11 0 -6 0zm67 -2c-5,0 -8,-3 -9,-8 0,-5 4,-9 9,-9l6 0 10 0c5,0 9,3 9,8 0,5 -4,8 -8,9l-10 0 -7 0zm67 -2c-5,0 -8,-3 -9,-8 0,-5 4,-8 9,-9l7 0 9 0c5,0 9,4 9,8 0,5 -4,9 -8,9l-10 0 -7 0zm67 -1c-4,0 -8,-4 -8,-9 0,-4 3,-8 8,-8l8 0 9 0c4,0 8,3 8,8 0,4 -3,8 -8,8l-9 1 -8 0zm67 -1c-4,0 -8,-4 -8,-9 0,-4 3,-8 8,-8l9 0 8 0c4,-1 8,3 8,8 0,4 -3,8 -8,8l-8 0 -9 1zm67 -1c-4,0 -8,-4 -8,-9 0,-4 4,-8 8,-8l10 0 7 0c5,0 8,3 8,8 0,5 -3,9 -8,9l-7 0 -10 0zm67 0c-4,0 -8,-4 -8,-9 0,-5 4,-8 8,-8l12 0 5 0c5,0 9,4 9,8 0,5 -4,9 -9,9l-6 0 -11 0zm67 0c-4,0 -8,-4 -8,-8 0,-5 4,-9 9,-9l12 1 4 0c5,0 9,4 9,8 0,5 -4,9 -9,8l-4 0 -13 0zm68 1c-5,0 -9,-4 -9,-8 0,-5 4,-9 9,-8l13 0 4 0c4,0 8,4 8,8 0,5 -4,9 -9,9l-3 0 -13 -1zm67 2c-5,0 -9,-4 -9,-9 1,-5 4,-8 9,-8l14 0 3 0c4,0 8,4 8,9 0,5 -4,8 -9,8l-3 0 -13 0zm67 2c-5,-1 -9,-5 -8,-9 0,-5 4,-8 8,-8l15 0 2 0c5,0 8,4 8,9 0,5 -4,8 -9,8l-2 0 -14 0zm67 2c-5,-1 -9,-4 -8,-9 0,-5 4,-8 8,-8l15 0 2 0c5,1 8,5 8,9 0,5 -4,8 -9,8l-2 0 -14 0zm67 2c-5,0 -8,-4 -8,-9 0,-4 4,-8 8,-8l15 1 2 0c5,0 8,4 8,9 0,4 -4,8 -8,8l-2 0 -15 -1zm67 3c-5,0 -8,-4 -8,-9 0,-4 4,-8 9,-8l14 1 2 0c5,0 9,4 8,9 0,4 -4,8 -8,8l-2 0 -15 -1zm67 3c-5,0 -8,-4 -8,-9 0,-4 4,-8 9,-8l14 1 2 0c5,1 9,4 8,9 0,5 -4,8 -8,8l-3 0 -14 -1zm67 4c-5,-1 -8,-4 -8,-9 0,-5 4,-8 9,-8l14 1 3 0c4,0 8,4 7,9 0,4 -4,8 -8,8l-3 0 -14 -1zm67 4c-5,-1 -8,-5 -8,-9 0,-5 4,-8 9,-8l13 1 4 0c4,0 8,4 7,9 0,4 -4,8 -8,8l-4 -1 -13 0zm268 18c-5,0 -9,-4 -8,-9 0,-4 4,-8 9,-7l7 0 10 1c4,0 8,4 7,9 0,5 -4,8 -9,8l-9 -1 -7 -1zm66 6c-4,0 -8,-5 -7,-9 0,-5 4,-8 9,-8l5 1 12 1c4,0 8,4 7,9 0,4 -4,8 -9,7l-11 -1 -6 0zm67 6c-4,-1 -8,-5 -7,-9 0,-5 4,-8 9,-8l3 0 13 2c5,0 9,4 8,9 0,4 -4,8 -9,7l-13 -1 -4 0zm67 6c-5,-1 -8,-5 -7,-9 0,-5 4,-8 9,-8l0 0 16 2c5,0 8,4 8,9 0,5 -5,8 -9,8l-16 -2 -1 0zm67 6c-5,0 -8,-4 -8,-9 1,-4 5,-8 10,-7l13 1 3 0c5,1 8,5 8,10 -1,4 -5,7 -9,7l-3 0 -14 -2zm67 7c-5,0 -8,-4 -8,-9 1,-5 5,-8 9,-8l11 2 6 0c5,1 8,5 8,9 -1,5 -5,8 -10,8l-6 -1 -10 -1zm66 7c-4,0 -8,-4 -7,-9 0,-5 5,-8 9,-8l7 1 10 1c4,1 8,5 7,10 0,4 -4,7 -9,7l-9 -1 -8 -1zm67 8c-5,-1 -8,-5 -7,-10 0,-4 4,-8 9,-7l3 0 14 2c4,0 8,4 7,9 0,5 -5,8 -9,7l-14 -1 -3 0zm67 7c-5,0 -8,-5 -8,-9 1,-5 5,-8 10,-8l15 2 1 0c5,1 8,5 8,10 -1,4 -5,8 -10,7l-1 0 -15 -2zm66 8c-4,0 -8,-5 -7,-9 1,-5 5,-8 9,-8l11 2 6 0c5,1 8,5 7,10 0,4 -4,8 -9,7l-6 -1 -11 -1zm67 8c-5,0 -8,-4 -7,-9 0,-5 4,-8 9,-7l6 0 11 2c4,0 8,5 7,9 -1,5 -5,8 -9,7l-11 -1 -6 -1zm67 9c-5,-1 -8,-5 -8,-10 1,-4 5,-7 10,-7l0 0 15 2 1 0c5,1 8,5 8,10 -1,4 -5,8 -10,7l-1 0 -15 -2 0 0zm66 9c-5,-1 -8,-5 -7,-10 0,-4 5,-8 9,-7l10 1 7 1c5,1 8,5 7,10 0,4 -5,7 -9,7l-7 -1 -10 -1zm67 9c-5,-1 -8,-5 -8,-10 1,-4 5,-8 10,-7l4 1 12 1c5,1 8,5 8,10 -1,4 -5,8 -10,7l-12 -2 -4 0zm66 9c-5,-1 -8,-5 -7,-10 1,-4 5,-7 9,-7l13 2 4 1c5,0 8,5 7,9 -1,5 -5,8 -9,7l-4 0 -13 -2zm66 9c-4,0 -7,-4 -7,-9 1,-5 5,-8 10,-7l6 1 10 1c5,1 8,5 8,10 -1,4 -5,8 -10,7l-10 -2 -7 -1zm67 10c-5,0 -8,-5 -7,-9 0,-5 5,-8 9,-7l14 2 3 0c5,1 8,5 7,10 -1,4 -5,8 -10,7l-2 -1 -14 -2zm66 10c-4,0 -8,-5 -7,-9 1,-5 5,-8 10,-7l6 1 10 1c5,1 8,5 7,10 0,5 -5,8 -9,7l-10 -2 -7 -1zm66 11c-4,-1 -7,-5 -7,-10 1,-4 6,-8 10,-7l13 2 4 1c4,1 7,5 7,9 -1,5 -5,8 -10,7l-3 0 -14 -2zm67 10c-5,0 -8,-5 -7,-9 1,-5 5,-8 9,-7l5 1 12 2c5,0 8,5 7,9 -1,5 -5,8 -10,7l-12 -2 -4 -1zm66 11c-5,-1 -8,-5 -7,-9 1,-5 5,-8 10,-7l10 1 6 1c5,1 8,6 7,10 -1,5 -5,8 -10,7l-6 -1 -10 -2zm66 11c-4,0 -8,-5 -7,-9 1,-5 5,-8 10,-7l1 0 14 2 2 1c4,0 7,5 6,9 0,5 -5,8 -9,7l-2 0 -14 -3 -1 0zm66 12c-4,-1 -7,-5 -7,-10 1,-5 6,-8 10,-7l5 1 12 2c4,1 7,5 7,10 -1,4 -6,7 -10,7l-12 -2 -5 -1zm66 11c-4,-1 -7,-5 -6,-9 0,-5 5,-8 9,-7l9 1 8 2c4,0 7,5 7,9 -1,5 -6,8 -10,7l-8 -1 -9 -2zm66 12c-4,-1 -7,-5 -6,-10 1,-4 5,-7 9,-6l12 2 5 1c5,0 8,5 7,9 -1,5 -5,8 -10,7l-5 -1 -12 -2zm66 12c-4,-1 -7,-5 -6,-10 1,-4 5,-7 10,-6l0 0 13 2 3 1c5,0 8,5 7,9 -1,5 -5,8 -10,7l-3 0 -13 -3 -1 0zm66 12c-4,-1 -7,-5 -6,-9 1,-5 5,-8 10,-7l2 0 13 3 1 0c5,1 8,5 7,10 -1,4 -6,7 -10,6l-1 0 -14 -2 -2 -1zm66 13c-4,-1 -7,-5 -6,-10 1,-5 5,-8 10,-7l2 1 14 2 0 0c5,1 8,6 7,10 -1,5 -6,8 -10,7l0 0 -14 -3 -3 0zm66 12c-4,0 -7,-5 -6,-9 1,-5 5,-8 10,-7l3 1 13 2 0 0c5,1 8,5 7,10 -1,5 -6,8 -10,7l-1 0 -13 -3 -3 -1zm66 13c-4,-1 -7,-5 -6,-10 0,-4 5,-7 9,-6l3 0 13 3 1 0c4,1 7,5 6,10 0,5 -5,7 -9,7l-1 -1 -13 -2 -3 -1zm66 13c-5,0 -7,-5 -7,-9 1,-5 6,-8 10,-7l1 0 13 3 3 0c4,1 7,6 6,10 -1,5 -5,8 -10,7l-2 -1 -13 -2 -1 -1zm66 14c-5,-1 -8,-6 -7,-10 1,-5 6,-8 10,-7l12 3 5 1c4,1 7,5 6,10 -1,4 -5,7 -10,6l-5 -1 -11 -2zm66 13c-5,-1 -8,-5 -7,-10 1,-4 5,-7 10,-6l8 2 8 1c5,1 8,6 7,10 -1,5 -6,8 -10,7l-8 -2 -8 -2zm65 14c-4,-1 -7,-6 -6,-10 1,-5 5,-7 10,-7l4 1 12 3c5,1 8,5 7,10 -1,4 -6,7 -10,6l-12 -2 -5 -1zm66 14c-5,-1 -8,-6 -7,-10 1,-5 6,-8 10,-7l12 3 5 1c4,1 7,5 6,10 -1,4 -5,7 -10,6l-4 -1 -12 -2zm66 14c-5,-1 -8,-6 -7,-10 1,-5 6,-8 10,-7l6 2 10 2c5,1 8,5 7,10 -1,4 -6,7 -10,6l-10 -2 -6 -1zm65 14c-4,-1 -7,-6 -6,-10 1,-5 5,-7 10,-6l11 2 5 1c5,1 8,6 7,10 -1,5 -6,7 -10,7l-6 -2 -11 -2zm66 14c-5,-1 -8,-5 -7,-10 1,-4 6,-7 10,-6l4 1 11 2 2 1c4,0 7,5 6,10 -1,4 -5,7 -10,6l-1 0 -12 -3 -3 -1zm65 15c-4,-1 -7,-6 -6,-10 1,-5 5,-8 10,-7l6 2 10 2c5,1 8,6 7,10 -1,5 -6,7 -10,6l-11 -2 -6 -1z"/>
     <rect class="fil2" x="2467" y="1164" width="36.5104" height="169.003"/>
    </g>
   </g>
   <g>
    <path class="fil4" d="M1503 629c431,0 780,349 780,780 0,431 -349,780 -780,780 -431,0 -780,-349 -780,-780 0,-431 349,-780 780,-780zm4090 -11c431,0 780,350 780,781 0,431 -349,780 -780,780 -431,0 -781,-349 -781,-780 0,-431 350,-781 781,-781zm-2054 -99c431,0 781,350 781,781 0,431 -350,780 -781,780 -431,0 -780,-349 -780,-780 0,-431 349,-781 780,-781z"/>
    <g>
     <circle class="fil5" transform="matrix(0.830226 -0.0126472 0.0126473 0.830226 3520.32 1235.33)" r="944"/>
     <path class="fil6" d="M3967 592c-169,48 -491,-1 -673,-62 -32,-11 -52,-13 -66,-22 -59,24 -115,55 -166,92 77,23 143,53 225,74l249 69c158,60 582,75 622,37 -52,-73 -117,-137 -191,-188zm-447 1316c-67,-2 -123,-3 -190,5 -55,6 -100,21 -147,30 106,50 224,78 349,76 111,-2 216,-27 311,-70 -82,-21 -239,-39 -323,-41zm-2 -380c-77,6 -185,-11 -259,-9l-482 -36c21,63 49,122 85,177 50,9 146,2 206,3l77 1c77,-7 225,-5 252,-6 65,-2 125,-11 185,-12 123,-2 542,-43 647,-75 16,-34 30,-70 41,-107 -36,18 -111,24 -159,33 -196,34 -406,18 -593,31zm-388 -277l0 0zm317 -217l-435 -135c-69,-26 -133,-54 -159,-74 -63,101 -102,217 -113,342 70,21 133,43 217,60 17,3 86,13 148,21 0,0 0,0 0,0 9,1 17,2 25,3l0 0c33,4 60,7 72,7l0 0 0 0 2 0 28 3 2 1 4 0c1,0 3,0 6,0l144 11c25,2 47,4 63,4l12 1 18 1c0,0 -1,1 -1,2l139 2 683 11c1,-23 2,-47 2,-71 -1,-33 -3,-66 -8,-98 -109,-3 -212,-6 -321,-15 -77,-7 -166,-22 -245,-30l-89 -11c-56,-13 -135,-23 -194,-35z"/>
     <path class="fil7" d="M3533 452c-412,-7 -763,309 -794,725 -32,432 292,808 723,840 9,0 18,1 26,1l48 0c-416,-237 -446,-1275 -3,-1566z"/>
     <path class="fil8" d="M4302 1294l-822 -13 -17 -3 -12 -1c-16,0 -38,-2 -63,-4l-144 -11c-3,0 -5,0 -6,0l-4 1 0 -1 -2 -1 -28 -3c-15,0 -55,-5 -99,-10 -62,-8 -131,-18 -148,-21 -84,-17 -147,-39 -217,-60 -3,26 -4,53 -3,80 0,4 0,7 0,11 187,59 406,125 607,121l0 0c10,1 16,1 18,1l15 1c11,1 25,3 40,4 197,18 675,9 871,8 7,-32 11,-65 14,-99zm-1157 370l0 0zm437 -18c-60,1 -120,10 -185,12 -27,1 -175,-1 -252,6l-77 -1c-60,-1 -156,6 -206,-3 32,50 70,96 113,138l36 -5c38,-4 93,-13 117,-15 54,-6 109,-10 165,-14 94,-5 196,-1 290,-5l291 5 214 12c57,-60 105,-129 141,-205 -105,32 -524,73 -647,75zm-295 -972c-82,-21 -148,-51 -225,-74 -49,35 -95,77 -134,123l120 61c75,36 226,85 303,105 310,79 595,103 915,105 -25,-78 -62,-149 -108,-214 -40,38 -464,23 -622,-37l-249 -69z"/>
     <g>
      <path class="fil4" d="M3247 1463c-32,0 -36,-4 -36,-26 0,-29 50,-98 74,-124 9,-10 25,-28 33,-34l52 42c64,48 50,47 85,26 10,-6 17,-10 27,-16l-106 -80c-6,-5 -10,-7 -14,-14 13,-18 132,-102 148,-113l33 22c36,24 69,51 95,69l42 -40c-3,-4 -21,-18 -27,-22l-86 -63c8,-4 14,-8 23,-12 9,-4 16,-8 24,-12 50,-25 112,-53 173,-53 23,0 28,7 28,23 0,26 -27,68 -39,85 -10,14 -42,52 -57,67 -11,11 -20,20 -31,31 -21,21 -79,67 -102,84 -43,33 -105,73 -152,97 -45,22 -125,63 -187,63zm5 -501c-26,0 -53,2 -74,20 -57,48 -1,132 -1,135 0,15 -18,28 3,65 17,31 64,42 96,14 27,-24 27,-67 -1,-94 -13,-11 -26,-15 -49,-15 -3,-12 -38,-66 8,-66 76,0 112,22 172,47l46 22c-2,7 -5,7 -9,10 -5,3 -8,5 -12,9 -13,8 -79,58 -91,69l-120 123c-34,45 -67,88 -67,149 0,47 44,72 94,72 54,0 115,-25 162,-45 5,-2 7,-4 12,-6 13,-6 19,-7 35,-17 27,-16 55,-29 87,-50 109,-72 143,-103 229,-188 39,-39 102,-126 102,-176 0,-30 -3,-46 -27,-66 -57,-48 -192,7 -243,32 -10,5 -20,8 -30,14 -20,11 -39,22 -58,33 -10,6 -11,0 -29,-9 -67,-34 -158,-82 -235,-82z"/>
      <path class="fil4" d="M3800 1392c5,9 27,51 8,60 -37,18 -146,-23 -182,-41 -22,-11 -14,-10 -48,13 -6,3 -18,13 -24,15 4,5 39,22 47,25 10,4 16,7 25,11 52,20 168,66 223,20 56,-48 0,-133 0,-135 0,-8 20,-45 -13,-77 -25,-24 -65,-22 -88,2 -6,6 -9,11 -13,19 -12,25 -4,55 15,72 15,12 24,16 50,16z"/>
      <path class="fil4" d="M3514 1567c-27,0 -48,-57 -56,-74l-39 19c-6,2 -8,4 -14,6 15,27 12,34 38,68 52,69 125,42 163,-35l17 -39c-19,-4 -36,-18 -54,-22 -5,18 -33,77 -55,77z"/>
      <path class="fil4" d="M3403 964c20,5 36,19 55,23 4,-19 32,-77 54,-77 27,0 48,57 57,73 8,-4 16,-8 25,-12 9,-5 18,-8 27,-12 -14,-28 -12,-35 -37,-68 -53,-69 -125,-42 -163,34l-18 39z"/>
     </g>
    </g>
   </g>
   <g>
    <g>
     <circle class="fil9" cx="5568" cy="1343" r="784"/>
     <path class="fil10" d="M4896 1549c78,-80 5,-213 -111,-178 2,74 15,144 36,211 18,-7 39,4 75,-33zm738 -987c-12,-1 -24,-2 -36,-2 -10,-1 -20,-1 -30,-1 -33,0 -65,2 -96,6 -4,1 -8,1 -12,2 -8,27 -30,59 32,97 73,44 183,50 256,17 69,-31 63,-60 73,-77 -2,-2 -4,-4 -7,-5 -57,-19 -117,-32 -180,-37zm678 1026c-47,-66 -151,-75 -204,47 -52,121 1,192 26,249 79,-83 141,-184 178,-296zm-434 103c-54,-3 -92,31 -90,94 1,21 -7,41 20,68 12,12 34,29 56,27l30 -4c16,-2 21,-7 31,-15 16,-13 30,-31 34,-60 8,-56 -32,-108 -81,-110zm243 -388l0 0zm-240 -106c-302,17 -216,303 28,276 10,-1 18,-3 27,-4 33,-3 20,-2 58,-20 56,-27 57,-47 88,-102l0 -35c3,-2 8,-4 18,-5 3,0 5,0 7,-1l1 0 3 -1 -3 1c5,0 9,-1 13,-3 157,-41 112,-155 94,-189 -52,-98 -221,-103 -291,-34 -35,35 -40,51 -43,117zm66 269l6 -2c-1,2 1,0 -7,3l1 -1zm-396 -515c-5,-27 -36,-56 -69,-48 -89,23 -52,136 23,121 23,-5 54,-37 46,-73zm-324 254c149,-19 105,-198 -56,-168 -38,7 -53,9 -74,33 -61,71 8,151 130,135zm102 414c102,-30 71,-186 -64,-150 -115,31 -57,185 64,150zm16 288c30,-54 -45,-93 -76,-52 -42,54 49,99 76,52z"/>
     <path class="fil11" d="M5581 559c-413,-7 -764,309 -795,726 -32,431 292,807 724,839 8,1 17,1 25,2l48 0c-416,-237 -446,-1275 -2,-1567z"/>
    </g>
    <g>
     <path class="fil4" d="M5706 1251c-10,-6 -9,-10 -7,-21 0,-6 7,-37 6,-40 -9,-11 -151,-66 -182,-79 -37,-13 -51,2 -89,10 -25,6 -54,9 -76,-5 -22,-14 -9,-50 -17,-63 -8,-7 -53,-3 -49,-13 3,-7 28,-46 23,-50 -5,-4 -28,4 -34,9 -17,11 -29,24 -52,14 -22,-9 -26,-35 -22,-55 5,-29 -10,-42 -29,-65 -24,-29 -43,-23 -80,-31 -14,-2 -62,-13 -74,-12 -6,9 1,42 25,38 20,-3 23,3 35,21 22,36 22,49 26,89 1,16 15,18 31,26 25,14 57,33 87,32 33,-2 32,0 59,25 19,18 26,28 42,47 30,36 82,-1 79,55 -1,30 -10,32 -30,55 -14,15 -10,16 -13,38 -4,25 -4,17 9,40 12,21 47,88 64,100 17,13 77,35 83,51 7,21 -1,184 6,228 5,32 31,50 39,95 5,35 8,33 36,58 28,25 28,16 30,-17 3,-56 3,-41 -7,-93 -8,-44 18,-29 51,-59 37,-35 58,-141 93,-153 53,-16 43,6 65,-52 13,-31 60,-137 48,-164 -11,-25 -66,-30 -92,-36 -21,-5 -67,-14 -84,-23z"/>
     <path class="fil4" d="M5454 989c-23,-21 -63,-34 -93,-19 -29,14 -18,16 7,9 20,-6 26,-4 42,8 7,6 9,11 14,13 10,4 33,3 36,-3 2,-3 0,-3 -6,-8z"/>
     <path class="fil4" d="M5540 1005c-18,-10 -47,-7 -64,2 -5,3 -2,4 3,6 14,6 47,11 61,0 4,-3 3,-5 0,-8z"/>
    </g>
   </g>
   <g>
    <path class="fil2" d="M1796 624c395,176 573,639 397,1034 -176,396 -639,573 -1034,397 -396,-175 -574,-639 -398,-1034 176,-395 639,-573 1035,-397z"/>
    <path class="fil12" d="M2080 1705c-105,144 -197,220 -289,267 3,18 -3,37 -19,52 -26,24 -69,24 -96,0 -1,-1 -3,-3 -4,-5 -96,30 -195,47 -311,96 340,51 686,-128 832,-457 27,-61 46,-124 57,-187 -19,29 -39,57 -66,94 -11,-26 -35,-45 -65,-48 -49,-5 -98,32 -110,84 -11,52 20,98 69,104l2 0zm-637 106c19,-17 50,-17 69,0 19,17 19,45 0,62 -19,17 -50,18 -69,1 -19,-17 -19,-45 0,-63zm-550 -880c43,-38 111,-39 153,-1 42,37 42,99 0,137 -43,38 -111,39 -153,1 -42,-37 -42,-99 0,-137zm332 -188c40,4 68,36 71,75 34,-9 68,-20 103,-33 26,-9 51,-25 74,-45 12,30 41,49 76,46 45,-4 81,-44 82,-90 0,-38 -25,-68 -59,-74 12,-18 23,-37 33,-56 64,11 128,30 191,58 61,27 118,62 168,102 -17,39 -36,77 -47,89 -66,75 -138,147 -216,209 20,11 31,35 26,61 -8,33 -39,57 -71,54 -26,-3 -44,-24 -45,-49 -124,79 -263,129 -420,121 -124,-6 -318,2 -482,-28 11,-54 29,-109 52,-162 35,-79 82,-149 137,-209 73,23 144,33 215,32 1,-5 1,-11 3,-17 11,-52 60,-89 109,-84zm843 410c-6,5 -12,11 -17,16 6,4 12,8 17,12 33,29 32,77 0,106 -32,29 -85,30 -117,1 -5,-5 -9,-9 -13,-15 -292,257 -376,200 -654,184 0,35 -15,70 -44,97 -59,53 -154,54 -213,2 -30,-27 -44,-62 -44,-97 -119,0 -215,-34 -287,-58 5,63 18,125 37,184 27,-24 69,-24 96,-1 26,24 26,62 0,87 -15,13 -34,19 -53,18 13,27 29,54 45,79 26,39 54,76 86,110 16,-15 29,-35 33,-58 5,-19 3,-38 -4,-55 201,-8 433,-35 535,-73 9,-3 17,-6 25,-9 4,17 12,33 27,46 36,33 96,32 133,-1 28,-26 35,-63 21,-93 62,-16 121,-40 248,-133 121,-88 228,-196 321,-313 -12,-61 -31,-120 -57,-177 -30,46 -65,86 -121,141z"/>
    <path class="fil7" d="M1489 556c-412,-7 -763,309 -794,726 -32,432 292,807 723,839 9,1 17,2 26,2l48 0c-416,-237 -446,-1275 -3,-1567z"/>
    <path class="fil4" d="M1374 1024c13,0 24,7 29,17 11,19 -1,48 -29,48 -28,0 -42,-35 -23,-55 5,-5 14,-10 23,-10zm324 204c-5,123 -91,133 -179,133 -29,0 -90,0 -119,0 -11,0 -23,2 -34,6 -11,3 -21,9 -28,14l0 1c-5,4 -9,9 -13,14 -3,5 -6,10 -8,17 -1,3 -2,7 -3,12 0,4 -1,8 -1,10 0,35 0,72 0,108l0 64 0 0 0 6 0 0c0,14 0,24 9,37 7,11 18,20 29,26 13,7 27,12 42,16 34,8 81,11 125,7 38,-3 74,-11 97,-24 7,-5 15,-11 20,-18 4,-6 7,-12 7,-20 1,-4 1,-13 1,-21 0,-7 0,-14 -1,-17 -1,-7 -1,-32 0,-44l-165 0 -16 0 0 -16 0 -26 0 -16 16 0 252 0c3,0 5,0 7,1l0 0c4,-1 9,-1 13,-2l1 0c5,-1 9,-2 13,-4 19,-7 33,-19 43,-33 45,-65 47,-293 -62,-293l-46 0 0 62zm37 270c0,0 0,0 0,0l0 0 0 0zm-423 -456l1 72 165 0 16 0 0 16 0 25 0 16 -16 0 -260 0c-7,0 -15,2 -22,4 -9,3 -17,7 -22,10 -18,12 -31,31 -39,52 -11,27 -15,58 -15,86l0 2 0 1 0 2c0,15 0,27 0,39 1,11 3,23 6,38l0 0c1,6 3,12 4,18 2,7 4,13 6,18l0 0 5 12c4,6 8,12 12,18 4,6 9,11 14,15 3,2 6,4 9,6 3,2 6,3 9,5 3,1 7,3 11,4 3,0 7,1 11,1l50 0 0 -75c0,-12 2,-24 5,-36 4,-13 9,-25 15,-34 10,-16 22,-27 36,-34 13,-8 29,-12 45,-15 15,-2 136,-1 179,-1l14 0 0 0c17,0 33,-2 46,-8 12,-5 23,-13 31,-24 4,-5 7,-11 9,-17 2,-6 3,-14 4,-22 1,-3 1,-46 1,-91 0,-46 0,-92 0,-95 -1,-5 -3,-11 -6,-16 -3,-6 -7,-12 -11,-16 -3,-3 -7,-6 -10,-8l0 0c-5,-4 -10,-7 -15,-9 -12,-7 -29,-12 -47,-16 -22,-4 -46,-6 -65,-6 -19,0 -37,0 -54,1 -17,1 -34,3 -52,8 -7,1 -14,3 -21,6 -6,2 -13,5 -19,9l0 0c-2,1 -3,2 -4,2l0 0c-1,1 -3,2 -4,3 -6,5 -13,11 -17,18 -3,5 -5,10 -5,16l0 0zm236 582c0,-10 1,-19 11,-27 3,-3 4,-4 9,-6 18,-6 34,2 41,15 10,22 -6,47 -26,47l-6 0c-14,0 -29,-14 -29,-29z"/>
   </g>
  </g>
 </g>
</svg>
