<?xml version="1.0" encoding="UTF-8"?>
<!DOCTYPE svg PUBLIC "-//W3C//DTD SVG 1.1//EN" "http://www.w3.org/Graphics/SVG/1.1/DTD/svg11.dtd">
<!-- Creator: CorelDRAW X7 -->
<svg xmlns="http://www.w3.org/2000/svg" xml:space="preserve" width="13.96mm" height="7.017mm" version="1.1" style="shape-rendering:geometricPrecision; text-rendering:geometricPrecision; image-rendering:optimizeQuality; fill-rule:evenodd; clip-rule:evenodd"
viewBox="0 0 1396 702"
 xmlns:xlink="http://www.w3.org/1999/xlink">
 <defs>
  <style type="text/css">
   <![CDATA[
    .fil10 {fill:#0F2844}
    .fil6 {fill:#79641C}
    .fil5 {fill:#A58926}
    .fil3 {fill:#BABDC1}
    .fil4 {fill:#D2AA2F}
    .fil2 {fill:#E5F1F1}
    .fil7 {fill:white}
    .fil0 {fill:#FFD43B;fill-opacity:0.168627}
    .fil9 {fill:white;fill-opacity:0.250980}
    .fil8 {fill:white;fill-opacity:0.309804}
    .fil1 {fill:#C1C1C1;fill-opacity:0.349020}
   ]]>
  </style>
 </defs>
 <g id="Capa_x0020_1">
  <metadata id="CorelCorpID_0Corel-Layer"/>
  <g id="_495115919616">
   <path class="fil0" d="M444 308c2,1 5,-8 6,-6l0 0c-1,1 -8,4 -6,6z"/>
   <path class="fil1" d="M647 228c2,1 6,-8 6,-6l0 0c0,1 -7,4 -6,6z"/>
   <path class="fil1" d="M627 263l6 -5c0,0 -7,3 -6,5z"/>
   <g>
    <polygon class="fil2" points="77,20 561,167 500,366 17,219 "/>
    <path class="fil3" d="M554 251l63 19 -12 40 -63 -19 -21 71c-4,8 -9,15 -16,19 -8,4 -17,5 -26,3l-456 -139c-9,-3 -15,-9 -19,-17 -4,-8 -5,-17 -2,-26l53 -177c3,-9 9,-16 17,-21 7,-4 16,-5 25,-3l456 139c9,3 16,9 20,17 3,7 4,16 2,25l-21 69zm-348 -178l-15 49 101 31 14 -49 -100 -31zm117 36l-15 48 101 31 15 -48 -101 -31zm117 36l-15 48 101 31 15 -49 -101 -30zm62 157l-101 -31 -14 46 101 30 14 -45zm-131 10l14 -46 -101 -31 -14 46 101 31zm-117 -36l14 -46 -101 -30 -14 45 101 31zm-117 -36l14 -45 -101 -31 -14 46 101 30zm-49 -202l-14 48 101 31 14 -48 -101 -31zm433 203l-101 -31 -13 44 100 31 14 -44zm-131 8l14 -44 -101 -31 -14 45 101 30zm-117 -35l14 -45 -101 -30 -14 44 101 31zm-117 -36l13 -44 -100 -31 -14 44 101 31z"/>
    <polygon class="fil2" points="1379,416 895,269 835,468 1319,615 "/>
    <path class="fil3" d="M854 343l-63 -19 -12 39 63 20 -21 70c-2,9 -1,17 2,25 4,7 11,14 20,16l456 139c9,3 18,1 25,-3 8,-4 14,-12 17,-21l53 -176c3,-9 2,-19 -2,-27 -4,-8 -10,-14 -19,-16l-456 -139c-9,-3 -18,-2 -26,3 -7,4 -12,11 -16,19l-21 70zm219 182l-101 -30 -117 -36 14 -46 0 0 5 -16 0 0 14 -45 20 -65 117 36 101 30 16 5 101 31 16 5 101 31 -20 65 -13 44 -19 63 -101 -31 -134 -41z"/>
    <path class="fil4" d="M706 139c31,2 58,11 82,25 31,18 52,50 40,89l-87 288c-12,38 -49,62 -83,51l-82 -25c-34,-10 -52,-50 -40,-89l87 -287c12,-39 48,-54 83,-52z"/>
    <path class="fil5" d="M551 547c41,33 91,46 139,42 18,-2 20,17 14,37l-15 49c-6,20 -24,28 -42,27 -46,-3 -88,-15 -123,-38 -15,-10 -26,-26 -20,-46l15 -48c6,-20 18,-35 32,-23z"/>
    <path class="fil4" d="M548 439c61,47 135,67 205,62 26,-2 29,25 21,52l-20 67c-9,27 -35,38 -61,36 -68,-5 -130,-22 -182,-55 -22,-14 -38,-37 -30,-64l20 -67c9,-27 26,-47 47,-31z"/>
    <path class="fil5" d="M548 439c-21,-16 -38,4 -47,31l-20 67c-8,27 7,49 29,63 0,0 1,0 1,1 19,12 40,22 61,30 -11,-13 -17,-29 -11,-48l6 -19 1 -5 13 -43c6,-21 18,-37 32,-37 2,0 4,0 6,1 1,0 2,1 3,1 2,1 4,2 6,4 0,0 0,0 0,0l-7 -5c-25,-15 -50,-24 -73,-41 0,0 0,0 0,0z"/>
    <path class="fil5" d="M762 473c-71,6 -145,-14 -205,-63 0,0 0,0 0,0l-9 29c0,0 0,0 0,0 60,49 134,69 205,62l9 -28z"/>
    <path class="fil6" d="M623 450c-23,-10 -46,-23 -66,-40 0,0 0,0 0,0l-9 29c0,0 0,0 0,0 21,17 43,30 66,40l9 -29z"/>
    <path class="fil6" d="M510 600l-6 18c-6,20 5,36 20,46 11,7 22,13 34,18l15 -51c0,0 0,0 -1,0 -21,-8 -42,-18 -61,-30l-1 -1z"/>
    <path class="fil5" d="M623 191l-22 74 -13 40 -31 105 0 0c20,17 42,30 65,40l65 -212c11,-37 29,-49 49,-56 3,-2 -3,-25 1,-26 -4,-2 9,-11 5,-11 -11,-3 -23,-5 -36,-6 -35,-2 -71,13 -83,52z"/>
    <path class="fil5" d="M772 63l7 2c9,3 15,14 12,24l-25 82c-3,10 -14,16 -23,13l-7 -2c-10,-3 -15,-14 -12,-24l25 -82c3,-10 13,-16 23,-13z"/>
    <path class="fil6" d="M736 182c-10,-3 -15,-14 -12,-24l25 -82c3,-10 13,-16 23,-13l-36 119z"/>
    <path class="fil5" d="M784 32c22,7 34,29 28,51 -7,22 -30,34 -51,27 -22,-6 -34,-29 -28,-51 7,-21 30,-34 51,-27z"/>
    <path class="fil6" d="M784 32c1,0 2,0 3,1 -16,5 -29,17 -35,34 -4,15 -2,30 6,42 -20,-7 -31,-29 -25,-50 7,-21 30,-34 51,-27z"/>
    <path class="fil7" d="M626 628c12,4 25,7 38,8l35 -116c-13,0 -26,-3 -38,-7l-35 115z"/>
    <path class="fil7" d="M680 450c12,4 25,6 39,6 16,-55 33,-110 50,-165 8,-26 22,-78 -1,-81 -16,-2 -21,24 -29,47l-59 193z"/>
    <path class="fil8" d="M610 682c12,4 24,5 38,5l6 -20c-13,0 -25,-2 -38,-7l-6 22z"/>
    <path class="fil9" d="M787 55c10,3 15,13 12,23 -3,9 -13,15 -22,12 -10,-3 -15,-13 -12,-23 3,-9 13,-15 22,-12z"/>
    <path class="fil10" d="M995 429l0 1c-4,12 -9,21 -17,25 -8,5 -18,5 -29,2 -12,-3 -20,-10 -25,-19 -5,-9 -6,-20 -2,-33l10 -34c3,-13 10,-23 19,-28 8,-5 19,-6 30,-3 12,4 20,9 24,18 5,8 5,18 2,31l-1 0 -21 -6c3,-7 3,-13 2,-17 -2,-4 -5,-7 -11,-8 -5,-2 -10,-1 -13,2 -4,3 -7,9 -9,17l-10 34c-2,8 -3,14 -1,19 2,5 5,8 11,9 5,2 9,1 12,-1 3,-3 6,-8 8,-15l21 6zm116 -50l-22 78c-3,12 -9,20 -18,24 -9,5 -20,6 -31,2 -12,-3 -20,-9 -25,-18 -5,-8 -6,-19 -3,-31l23 -77 22 7 -23 77c-2,7 -2,12 0,16 2,4 6,7 11,9 5,1 10,1 14,-2 3,-2 6,-7 8,-14l22 -77 22 6zm-11 120l33 -113 33 9c12,4 20,9 25,16 5,7 6,16 3,26 -1,5 -4,10 -8,13 -3,4 -8,6 -13,6 6,4 9,8 11,13 1,6 1,12 -1,18 -3,11 -8,18 -16,22 -8,4 -18,4 -29,1l-38 -11zm36 -44l-9 33 16 4c4,1 8,1 11,-1 3,-2 6,-5 7,-10 2,-6 2,-10 1,-14 -1,-3 -4,-6 -8,-7l-18 -5zm5 -15l12 3c5,1 9,1 12,-1 3,-2 5,-5 6,-10 2,-5 2,-9 0,-12 -2,-3 -5,-6 -10,-7l-11 -3 -9 30zm110 76l-29 -8 -13 22 -23 -6 65 -104 23 6 -1 123 -22 -7 0 -26zm-20 -25l21 6 1 -43 0 0 -22 37z"/>
   </g>
  </g>
 </g>
</svg>
