<?xml version="1.0" encoding="UTF-8"?>
<!DOCTYPE svg PUBLIC "-//W3C//DTD SVG 1.1//EN" "http://www.w3.org/Graphics/SVG/1.1/DTD/svg11.dtd">
<!-- Creator: CorelDRAW X7 -->
<svg xmlns="http://www.w3.org/2000/svg" xml:space="preserve" width="27.093mm" height="20.283mm" version="1.1" style="shape-rendering:geometricPrecision; text-rendering:geometricPrecision; image-rendering:optimizeQuality; fill-rule:evenodd; clip-rule:evenodd"
viewBox="0 0 2709 2028"
 xmlns:xlink="http://www.w3.org/1999/xlink">
 <defs>
  <style type="text/css">
   <![CDATA[
    .str0 {stroke:whitesmoke;stroke-width:7.62;stroke-opacity:0.149020}
    .fil1 {fill:#C1C1C1;fill-opacity:0.149020}
    .fil0 {fill:#F4DC8B;fill-opacity:0.149020}
   ]]>
  </style>
 </defs>
 <g id="Capa_x0020_1">
  <metadata id="CorelCorpID_0Corel-Layer"/>
  <g id="_495102516624">
   <path class="fil0" d="M0 1785c3,-3 7,-7 12,-11 39,-30 16,9 40,-28 12,-20 -9,-4 10,-46 6,5 24,22 25,22 26,15 -8,7 23,5l20 -5c2,0 5,-1 7,-2 38,-17 101,-89 113,-132l7 20c9,15 -15,6 18,17 7,-27 3,-12 18,-32l55 -70c46,-46 27,1 15,15 -2,2 -10,9 -12,12l-17 21c-3,3 -9,12 -11,15l-12 13c-2,2 -5,4 -6,6 -41,43 -30,42 -18,95 37,-9 42,-27 68,-57l88 -125c2,-2 4,-4 6,-6l66 -59c-14,20 -11,15 -24,39 -17,32 -26,56 -39,85 -26,56 -75,105 -90,161 34,-8 21,-8 55,-17 50,-11 40,-5 129,-112l154 -184c-14,51 -118,178 -158,230 -2,2 -4,5 -6,7l-23 26c-22,29 -16,14 -26,50 41,-11 16,1 45,-31l80 -19c86,-8 -12,-13 45,-67 18,-16 26,-21 42,-35 1,-1 19,-16 19,-16l24 -41c2,-3 14,-17 16,-20l66 -97c16,-38 14,-17 14,-74 54,58 37,-43 125,-50 1,49 -4,29 12,62 46,-12 26,-13 63,-37 8,2 23,9 26,10 30,8 1,12 24,2l14 11c0,4 -8,4 -9,8 -1,3 -12,12 -12,12 -20,29 -7,33 -18,82 33,-25 39,-60 62,-75l26 -11c18,-7 4,4 29,-9 31,-17 15,-9 33,-43l40 35c-53,-8 -35,-23 -53,53 75,-2 50,-17 89,-62l38 -36c22,-21 -5,-20 30,-23 53,-6 13,-3 31,8 -42,17 -9,-10 -40,48 -20,38 -19,14 -23,65 50,-14 20,-12 56,-32 58,-33 25,7 102,-62 4,-4 19,-16 21,-17 12,-7 -14,-18 9,-2 8,19 10,-2 -1,26 -8,19 -12,18 -27,33 -31,32 -36,22 -47,66l52 -35c72,-70 16,-42 85,-44 37,-1 17,2 50,-21 -11,48 -18,69 -55,95 -1,1 -5,3 -7,5 65,0 61,14 75,-37l11 49c51,-20 3,16 64,-12 -6,64 -10,17 -25,75l56 -56c9,-9 18,-18 19,-19 -4,46 -18,51 -38,88 46,-12 26,-13 63,-38 -12,54 -31,33 25,38 -4,46 -18,50 -38,87 46,-12 88,-54 100,-100 27,19 40,46 50,75 -44,30 -44,12 -50,63 58,-5 21,-1 67,-27l17 -9c1,-1 4,-3 5,-4 97,-62 62,-24 74,27 26,-7 34,-19 50,-12 -7,15 8,33 3,53 -7,29 -19,33 -28,72 26,-18 28,-28 48,-52 75,-87 63,-29 118,-56 44,-22 -23,-2 34,-17l0 44c0,1 -1,4 0,6 34,-23 45,-24 50,-75 51,20 2,18 50,37 46,-95 28,-46 120,-98 38,-22 12,-22 30,-64 33,7 37,11 62,25 20,-30 31,-35 56,-71 29,-44 17,-43 32,-79l37 37c2,-25 6,-35 9,-40l0 -40c-1,1 -4,2 -7,4 0,0 -27,36 -14,1 1,-2 14,-7 21,-9l0 -1005c-21,17 -24,-4 -59,25 -40,33 -52,89 -91,116l-11 6c-2,1 -5,2 -6,3l-12 8c-1,1 -4,4 -6,5 -1,2 -4,4 -5,6l-31 33 0 -100c-60,5 -25,15 -63,0 -3,43 -30,69 -12,100 -2,1 -6,-2 -7,0 -9,31 -2,-1 -13,3 -40,15 -28,28 -18,72 -28,-7 -28,-10 -62,-13 16,-68 0,-64 -63,-50 27,66 -32,-53 18,21 18,27 12,-22 9,16 -2,23 -19,20 -39,26l-23 -28c10,-45 30,-43 35,-110 -28,7 -28,10 -62,13l0 -25c105,-9 65,-76 87,-125l22 4c2,1 6,2 8,2 49,14 -41,-1 20,6l0 -25c-33,-13 -23,26 -25,-50 -39,21 -37,24 -68,56l-31 32c-22,20 -2,15 -38,25 20,-43 33,-50 37,-100 -25,18 -68,79 -90,109 -4,5 -21,28 -22,29 -1,2 -3,5 -5,7 -20,32 -30,59 -58,80 0,-106 19,-41 38,-113l-44 0c-1,0 -4,1 -6,0 17,-63 33,-24 50,-87 -33,-9 -14,4 -25,-25l-72 91c-28,26 -75,37 -116,46l123 -164c28,-36 39,-42 67,-83 24,-35 49,-50 60,-90 -72,1 -38,11 -74,47l-25 19c-10,11 -21,33 -34,50 -19,27 -20,37 -54,46 6,-70 52,-79 75,-175 -59,16 -18,10 -60,53 -33,33 -42,3 -28,72l-48 -40 -56 85c-4,4 -5,-30 -21,30l-25 0c-2,-76 8,-37 -25,-50 -20,30 -15,13 -25,50l-87 -62c-12,54 8,38 -25,62 -10,-20 -13,23 0,-37 -70,5 -31,28 -113,37 -83,8 -73,10 -137,25 14,-56 -4,-15 35,-39 79,-48 29,-48 69,-75 41,-27 1,37 46,-23 -19,-8 -44,-10 -62,-5l-64 22c-1,0 -4,2 -5,2 -2,1 -8,5 -10,6l-84 37c5,-64 9,-17 25,-75l-138 88 0 -38c-27,7 -13,2 -32,18l-30 32c-65,-34 -55,-54 -125,-37 3,38 11,60 25,87 -70,-1 -56,-11 -125,-12 15,-65 32,-39 37,-100l-109 140c-61,63 -32,99 -104,147 5,-57 9,-27 35,-74 1,-2 2,-5 3,-7l5 -12c13,-34 -10,1 16,-35 15,-20 28,-35 44,-57 33,-45 40,-37 35,-52 -27,-12 -59,54 -85,72 -37,26 -58,65 -78,103 -37,-10 -20,-6 -50,-25 9,39 13,19 0,50 -96,-3 -28,-31 -97,27 -17,14 -27,20 -34,22 3,-16 6,-21 12,-42 -9,2 -16,3 -21,5 16,-31 14,-18 -10,-62 54,11 33,30 38,-25 -54,4 -23,-2 -63,25 -5,-66 12,-23 -25,-38l25 -112c-49,32 -49,16 -63,21 -17,7 -3,-28 -19,21 -8,21 -5,22 -5,45 -74,8 -17,-3 -38,32 -34,56 -60,19 -112,118 -7,-5 -21,-20 -25,-22 -25,-13 -30,2 -58,2l-55 -5c-44,0 1,23 -62,33l0 1217 4 4c-1,0 -3,-1 -4,-2l0 86 4 4c-1,-1 -3,-2 -4,-3l0 71zm1950 -1509c-2,31 19,4 7,0 0,0 -6,-36 -7,0zm338 87l4 -4c-1,0 -5,2 -4,4zm-9 -172l4 -3c0,0 -5,2 -4,3zm-16 259c13,13 45,-18 14,-7 0,0 -35,-14 -14,7zm-215 -132c7,-4 11,-6 23,-14l28 -21 -4 0c52,-34 38,-13 43,-58 -33,12 -38,16 -49,58 -28,1 -39,1 -41,35zm2 -93c37,-9 18,2 38,-25 -22,5 -34,2 -38,25zm213 175l12 0 0 -50 -12 0 0 50zm-854 1252l4 -4c0,1 -5,3 -4,4zm-878 -1293l4 -3c0,0 -5,2 -4,3zm1345 1215l4 -4c-1,1 -5,3 -4,4zm-440 42l4 -4c-1,0 -5,2 -4,4zm-534 -1415l4 -3c-1,0 -6,2 -4,3zm-114 32l3 -3c0,0 -5,2 -3,3zm688 1322c12,13 46,-16 15,-6 0,0 -35,-16 -15,6zm-1021 -1124c-4,6 -10,17 -18,32l-14 -11c0,-4 7,-11 7,-9l17 -26c-2,4 -4,8 -7,13l15 1zm45 -243l4 -4c-1,0 -5,2 -4,4zm112 0l4 -4c0,0 -5,2 -4,4zm-137 -63l4 -4c-1,1 -5,3 -4,4zm625 1400l4 -3c0,0 -5,2 -4,3zm-150 -1475l4 -4c0,1 -5,3 -4,4zm-788 225l4 -4c0,1 -5,3 -4,4zm375 -112l4 -4c0,0 -5,2 -4,4zm-375 162l4 -4c0,1 -5,3 -4,4zm463 -25l4 -4c-1,1 -5,3 -4,4zm1275 -275l4 -4c0,1 -5,3 -4,4zm-337 1400l3 -3c0,0 -5,2 -3,3zm87 50l4 -3c0,0 -5,2 -4,3zm-1200 -1287l4 -4c-1,0 -5,2 -4,4zm87 62l4 -4c0,1 -5,3 -4,4zm-37 -187l4 -4c-1,0 -5,2 -4,4zm625 1425l4 -4c0,0 -5,3 -4,4zm488 -38l3 -3c0,0 -5,2 -3,3zm-1088 -1350l4 -4c-1,1 -5,3 -4,4zm300 38l4 -4c-1,0 -5,2 -4,4zm-413 0l4 -4c0,0 -5,2 -4,4zm125 75c-15,15 15,16 6,0l-6 0zm-75 -63c0,31 20,3 8,0 0,0 -8,-35 -8,0zm1063 1200c0,31 20,3 8,0 0,0 -8,-35 -8,0zm50 -1225c0,31 20,3 8,0 0,0 -8,-35 -8,0zm-412 1300c12,13 45,-18 14,-6 0,0 -35,-15 -14,6zm175 -1350l3 -4c0,1 -5,3 -3,4zm-13 0c-10,10 8,43 16,20 5,-15 -6,-29 -16,-20zm-1150 225c65,-6 22,12 37,-25 -21,11 -25,8 -37,25zm1500 -137c7,-5 12,-7 23,-15l27 -23c-36,3 -49,0 -50,38zm-1600 187l37 0c3,-34 6,-34 13,-62 -58,15 -24,9 -50,62zm150 -25l-4 4c0,0 5,-3 4,-4zm50 -62l-25 0 0 50c32,-24 25,4 25,-50zm12 0c14,-14 -19,-48 -6,-14 0,0 -15,35 6,14zm100 -88l-3 -4c0,1 2,5 3,4zm288 113c-22,-22 -42,33 -11,9 1,-1 29,9 11,-9zm12 0c14,-14 -19,-48 -6,-14 0,0 -14,35 6,14zm226 -88c32,-22 25,-6 37,-50l-50 0c25,24 21,10 13,50zm37 -12l4 -4c0,0 -5,2 -4,4zm138 -25l-4 -4c0,0 2,5 4,4zm187 -38c13,13 48,-20 14,-6 0,0 -35,-15 -14,6zm38 -12c1,-2 -4,-6 -4,-4l0 0c0,0 2,5 4,4zm187 -25l-4 -4c1,0 3,5 4,4zm813 112l-4 -4c0,1 3,5 4,4zm362 50l-3 4c0,0 5,-3 3,-4zm13 0l-4 -4c0,1 3,5 4,4zm0 13c1,1 4,-6 4,-4l0 0c-1,0 -5,2 -4,4zm-213 1262l4 -3c0,0 -5,2 -4,3zm-287 188c31,-21 51,-34 62,-75 -27,10 -20,7 -36,26 -20,22 -18,17 -26,49zm-13 0c-1,1 4,2 4,4l-4 -4zm-150 -113c-1,2 4,2 4,4l-4 -4zm-12 -25l3 4c0,0 -2,-5 -3,-4zm-163 13l38 -75c-59,21 -43,48 -38,75zm-387 -175l3 -4c0,0 -5,3 -3,4zm-100 12c21,-24 40,-38 50,-75 -35,23 -46,24 -50,75zm-413 -87c-1,1 4,2 4,3l0 0c0,0 -3,-4 -4,-3zm-87 150c2,-34 5,-34 12,-63 -36,19 -126,60 -12,63zm-388 250c-4,1 -38,39 -1,26 22,-7 23,-30 1,-26zm-225 -25c25,34 31,47 37,-13 -15,9 -13,13 -37,13zm-138 12l4 4c0,0 -2,-5 -4,-4zm-37 13l4 4c-1,-1 -3,-5 -4,-4zm-25 37c-7,36 30,-4 10,-2 -23,3 -5,-26 -10,2zm25 -87c0,-18 -1,-8 3,-22 0,-3 1,-8 2,-10 1,-3 2,-7 3,-10l29 -46c59,43 -11,30 63,38 -47,70 -42,7 -81,26 -14,6 4,1 -19,24zm537 -88c2,-4 49,-20 15,-1 0,0 -27,37 -15,1zm-600 0l4 4c0,0 -5,-2 -4,-4zm2101 -12l3 4c0,-1 -4,-3 -3,-4zm-1951 37c12,-49 6,-50 50,-62 -4,53 -6,49 -50,62zm111 -60c1,-3 35,-36 39,-40 -9,37 -5,21 -25,50l-14 -10zm1940 -15c-7,-36 26,3 13,3 -26,-2 -8,24 -13,-3zm-113 -12l4 4c0,-1 -5,-3 -4,-4zm-1863 -13l4 4c0,0 -5,-2 -4,-4zm1901 -12c15,-15 46,21 16,13 0,0 -1,-1 -2,-1 -8,-6 -32,6 -14,-12zm-1865 -36c0,-4 6,-13 7,-10 4,13 7,-12 9,-13 24,-22 -13,-11 11,-4 8,19 11,-8 1,16 -6,15 0,2 -14,22l-14 -11zm1565 -14c0,-32 19,-2 7,0 0,0 -7,35 -7,0zm-1138 -63l4 4c-1,0 -5,-2 -4,-4zm-163 -12l4 3c0,0 -5,-2 -4,-3zm888 -63c-21,3 -18,-37 -1,-16 0,0 1,1 1,1l0 15zm-1088 75c16,-30 12,-26 34,-53l54 -47c-19,37 -44,89 -88,100zm1088 -125c3,-25 66,3 12,1 -5,0 -15,27 -12,-1zm-990 -10c0,-4 7,-11 8,-9 1,2 5,-5 6,-7 38,-49 52,-83 113,-124l-52 73c-31,34 -35,40 -60,77l-15 -10zm1203 -15l3 4c0,0 -5,-3 -3,-4zm-250 -12l3 3c0,0 -5,-2 -3,-3zm750 -763l3 4c0,0 -4,-3 -3,-4zm-138 -25c0,-32 20,-2 8,0 -1,0 -8,35 -8,0zm213 13c-17,-10 -14,-7 -38,-13 25,-34 31,-47 38,13zm-2013 -50l4 3c-1,0 -5,-2 -4,-3zm-50 -13c14,-17 0,-17 13,3 9,15 18,-10 -1,9 -12,12 -1,21 -12,-7 0,0 1,-3 0,-5zm1275 -12c2,-4 48,-21 15,-2 0,0 -28,37 -15,2zm-1188 -25c29,6 29,9 63,12 -27,37 0,22 -29,14 -11,-3 -27,-18 -34,-26zm1763 -13l4 4c0,0 -5,-3 -4,-4zm-677 -48c1,-3 32,-22 52,-27l-52 27zm-23 -39c22,17 20,8 -18,31 -32,20 14,2 -32,19 11,-17 7,-12 23,-27 2,-2 5,-5 7,-6l20 -17zm-387 37l3 4c0,0 -5,-3 -3,-4zm412 -50c1,-1 46,-35 25,-3 0,0 -39,35 -25,3zm525 -12l4 3c0,0 -5,-2 -4,-3zm-425 -13c-15,40 27,18 -37,25 18,-17 15,-12 37,-25zm13 -12l3 3c0,0 -5,-2 -3,-3zm437 -13l4 4c0,0 -5,-3 -4,-4zm-375 38c19,-27 36,-32 63,-50 -12,48 -4,50 -63,50zm338 -75c1,-4 48,-21 14,-2 0,0 -27,37 -14,2zm-463 -25c3,-26 66,3 12,1 -5,0 -15,27 -12,-1z"/>
   <path class="fil1 str0" d="M2709 750l0 1006c-11,6 -19,19 -42,61 -47,-21 2,-16 -48,-39 -7,51 -19,51 -54,72 -1,-2 0,-5 0,-6l3 -44c-58,13 10,-4 -35,16 -56,24 -41,-34 -120,51 -21,22 -24,32 -51,49 11,-39 23,-42 31,-71 6,-19 -8,-38 0,-53 -16,-8 -24,4 -51,10 -9,-51 27,-88 -72,-31 -1,1 -4,3 -6,4l-17 8c-47,24 -10,22 -68,24 8,-50 8,-33 53,-60 -9,-30 -21,-57 -46,-77 -15,44 -59,85 -105,95 22,-36 36,-40 42,-86 -55,-7 -38,15 -24,-39 -37,23 -17,25 -64,35 22,-36 36,-40 42,-86 -1,1 -11,9 -20,18l-59 54c19,-58 21,-10 29,-74 -62,25 -12,-9 -65,9l-8 -50c-16,51 -11,37 -77,34 2,-2 6,-4 8,-5 38,-24 46,-45 59,-92 -34,21 -14,19 -51,18 -69,0 -12,-26 -87,40l-54 33c14,-43 18,-34 51,-64 16,-14 19,-13 28,-32 13,-27 10,-6 2,-25 -22,-18 3,-6 -9,1 -1,1 -17,12 -22,16 -79,65 -44,27 -104,57 -37,18 -7,18 -58,29 7,-50 4,-26 26,-63 34,-57 -1,-31 42,-46 -17,-12 23,-13 -30,-10 -35,2 -8,1 -32,22l-39 34c-41,43 -17,59 -92,57 22,-74 3,-60 56,-50l-39 -36c-19,32 -3,25 -35,40 -2,2 -12,7 -16,7 -58,4 -61,45 -104,82 5,-25 7,-79 36,-94 18,-9 -10,-15 -12,-14 -10,4 -17,-5 -36,-13 -23,-11 -49,44 -72,28 -27,-19 15,-65 -22,-59 -63,12 -70,77 -99,41 -19,-21 -2,4 -14,41 -11,33 -85,94 -111,110 -50,30 -14,26 -12,41 -22,8 -45,13 -67,22 -67,27 -56,71 -109,83 10,-39 176,-244 172,-248 -27,15 -94,95 -114,121 -72,95 -136,146 -247,191 3,-7 6,-14 9,-20l-7 0c2,-35 5,-23 27,-36l0 0c5,-8 10,-17 17,-26 44,-64 74,-129 116,-192 39,-56 -62,46 -64,48 -16,17 -160,228 -178,190 -23,-49 18,-89 48,-121 70,-72 90,-125 -3,-24 -8,9 -16,18 -22,26l3 1c0,0 1,2 1,2 1,8 -12,20 -16,15 -24,36 -27,50 -42,-5 -23,53 -69,104 -121,131 -2,1 -5,2 -7,2l-21 4c-30,1 3,10 -22,-6 -1,0 -18,-18 -24,-23 -21,40 1,26 -13,45 -25,36 0,-2 -40,27 -51,35 -16,56 -91,59 5,-62 23,-94 50,-143l-100 127c-19,22 -16,29 -51,36 7,-11 10,-18 20,-31 13,-15 28,-13 8,-30 -5,23 -16,19 -38,23 -1,-22 -1,-21 -3,-39 -4,-25 0,-10 -7,-24l-80 109c-2,-3 -3,-7 -4,-8 -1,-2 -3,-6 -5,-8l-10 -9 0 -26 21 1c3,-56 91,-215 128,-267 2,-3 10,-11 11,-13l-160 183 0 -59c1,-2 2,-5 4,-7 -1,0 -3,0 -4,1l0 -18c3,-1 6,-2 6,-2 28,13 9,-10 -6,-10l0 -905c10,3 20,-14 61,-15 5,-34 3,-27 15,-49 38,27 13,25 41,16 3,-1 18,-13 19,-14 16,-16 5,3 16,-24 103,7 105,59 81,-23l-26 -87c79,21 -1,5 58,-3 47,-6 19,-11 55,8 -15,-80 23,-42 -20,-113 151,4 72,-34 127,-32l54 8c28,1 34,-14 58,0 4,2 17,18 24,24 57,-97 81,-59 117,-113 23,-33 -35,-25 40,-30 1,-23 -2,-24 7,-45 19,-48 2,-13 20,-20 14,-5 14,12 64,-18l-30 111c36,16 21,-27 23,38 41,-24 10,-20 64,-22 -8,55 15,38 -39,24 23,48 25,31 4,68l-42 60c-1,-1 -8,5 -8,9l14 11c46,-77 18,-21 81,-69 72,-54 3,-29 99,-22 14,-30 9,-10 2,-50 29,21 12,15 49,27 21,-36 44,-75 83,-99 26,-17 61,-81 87,-68 5,16 -2,7 -37,50 -17,22 -31,36 -46,56 -28,35 -4,1 -19,33l-5 13c-1,1 -2,4 -3,6 -29,46 -31,16 -38,73 74,-45 46,-82 110,-142l116 -136c-8,62 -24,35 -42,99 69,4 54,13 124,18 -12,-28 -20,-50 -21,-89 71,-13 60,7 123,44l32 -31c20,-15 5,-10 33,-16l-2 37 142 -81c-19,58 -21,10 -29,74l86 -33c2,-1 9,-5 11,-5 1,-1 4,-2 5,-3l65 -18c18,-4 43,-1 61,7 -47,58 -5,-4 -47,22 -41,25 9,27 -72,71 -40,22 -20,-18 -37,37 64,-12 55,-14 138,-19 82,-4 45,-29 114,-31 -15,60 -10,17 -2,37 35,-22 14,-7 28,-61l85 67c11,-37 6,-20 27,-49 33,15 25,-25 23,51l25 1c19,-59 17,-25 22,-29l60 -82 46 42c-11,-70 -3,-39 31,-70 44,-41 4,-38 63,-51 -27,95 -74,102 -84,172 36,-8 36,-18 57,-44 13,-17 26,-38 36,-48l26 -18c38,-35 4,-46 76,-44 -12,40 -39,53 -64,87 -30,41 -41,46 -71,80l-130 158c41,-7 88,-15 118,-41l75 -87c10,30 -8,16 24,26 -19,62 -34,23 -54,85 2,1 5,1 6,1l44 1c-22,71 -38,6 -43,111 29,-19 40,-46 62,-77 2,-2 4,-5 6,-7 0,0 19,-23 22,-27 24,-30 70,-88 96,-105 -7,50 -20,56 -42,98 37,-8 16,-5 39,-23l32 -30c33,-31 31,-34 71,-53 -2,75 -9,36 23,51l-1 25c-61,-10 28,9 -20,-7 -2,0 -6,-2 -8,-3l-22 -5c-2,4 -4,9 -5,13l-1 24 -4 0c-1,13 -2,27 -6,39 5,2 10,4 10,4 30,-10 -1,18 -14,7 -9,19 -28,32 -73,34l-1 25c34,-1 34,-4 63,-10 -9,67 -28,64 -40,108l21 29c20,-4 37,-1 40,-23 5,-39 9,11 -8,-17 -46,-77 7,45 -17,-22 64,-11 79,-14 61,53 23,3 30,5 41,9zm-2709 33l0 -34 14 -8c-14,-8 11,-12 -14,-6l0 -18c6,-3 3,5 16,-26 -6,0 -11,0 -16,0l0 -84 85 -50 74 28c-24,76 -80,60 -118,107 43,14 28,6 49,40 -56,12 -41,36 -90,51zm0 -194l0 -57c29,-15 60,-22 100,-12 -28,37 -16,22 -56,44l-44 25zm2419 -261c37,-7 18,3 39,-23 -22,4 -34,0 -39,23zm35 64c62,-37 45,-13 53,-60 -35,11 -39,15 -53,60zm-13 0c-1,1 4,2 4,4l-4 -4zm209 -249l4 -4c0,0 -5,3 -4,4zm-137 175l4 -4c-1,0 -5,3 -4,4zm-13 0c-1,1 4,2 4,4l0 0c0,-1 -2,-5 -4,-4zm13 -113c-16,16 14,17 5,1l-5 -1zm112 -137c13,13 46,-18 15,-7 0,0 -36,-14 -15,7zm-112 225c19,-5 37,-3 37,-25 0,-35 -5,-23 -25,-38 -14,30 -12,17 -12,63zm-1368 1314l4 -3c0,0 -5,2 -4,3zm780 -75l4 -4c-1,0 -6,2 -4,4zm-1316 300l4 -3c-1,0 -5,2 -4,3zm176 -16c-8,34 30,-5 12,-5 -23,1 -6,-21 -12,5zm113 -20c-6,27 18,9 17,-2 0,0 -1,-2 -1,-2 -24,-8 -11,-15 -16,4zm-383 -106l4 4c-7,37 -14,35 -51,45 7,-27 14,-64 50,-59l1 11 0 3c-1,-1 -3,-5 -4,-4zm-28 28c-6,35 30,-6 13,-5 -24,2 -8,-21 -13,5zm113 -36c0,-1 0,-1 0,0 -2,1 -5,1 -8,0 -15,-13 20,-36 34,-45 -3,11 -13,40 -26,45zm1848 175l3 -4c0,0 -5,2 -3,4zm-2367 114c40,-26 20,9 28,-49 -21,21 -18,15 -28,49zm-12 -1c-14,13 17,49 6,15 0,-1 16,-35 -6,-15zm-14 25c-26,2 0,66 1,11 0,-4 27,-13 -1,-11zm48 -1275c32,2 3,-19 0,-7 0,0 -35,6 0,7zm25 -11c32,2 3,-20 1,-7 0,0 -36,5 -1,7zm87 17l4 4c-1,-1 -3,-6 -4,-4zm376 -283l-4 4c1,-1 6,-3 4,-4zm53 -60l-25 -1 -2 50c33,-22 25,5 27,-49zm13 0c14,-12 -18,-48 -6,-14 0,1 -16,34 6,14zm104 -82l-4 -4c0,0 2,5 4,4zm282 126c-21,-23 -44,32 -12,9 1,-1 29,10 12,-9zm12 0c14,-12 -17,-48 -6,-14 0,0 -16,34 6,14zm229 -77c34,-20 26,-5 40,-48l-50 -2c24,25 20,11 10,50zm38 -10l4 -4c0,0 -5,2 -4,4zm139 -19l-4 -4c0,1 2,5 4,4zm189 -28c12,13 48,-18 14,-6 0,0 -34,-16 -14,6zm38 -11c1,-1 -4,-6 -4,-4l0 0c1,0 3,5 4,4zm188 -16l-3 -4c0,0 2,5 3,4zm807 150l-4 -4c0,1 3,6 4,4zm-196 1506c32,-20 53,-32 66,-72 -28,8 -21,6 -38,24 -21,21 -18,16 -28,48zm-13 -1c-1,1 4,2 4,4l-4 -4zm-144 -119c-2,1 3,2 3,3l-3 -3zm-12 -26l4 4c0,0 -2,-5 -4,-4zm-163 5l41 -73c-59,18 -45,46 -41,73zm-378 -193l3 -4c0,0 -5,2 -3,4zm-101 7c22,-23 42,-36 54,-72 -36,21 -47,21 -54,72zm-402 -104c-8,-8 -2,-4 0,0zm-129 81c-7,16 37,26 48,26 9,-40 14,-58 -41,-30l-7 4zm-313 222c-18,12 -60,60 -19,40 20,-13 85,-72 19,-40zm-258 59c15,1 20,-40 13,-39 0,0 -35,14 -34,17 2,5 17,19 21,22zm-161 -17l4 4c-1,0 -3,-5 -4,-4zm-38 11l4 4c-1,0 -3,-5 -4,-4zm-27 36c-8,36 31,-3 10,-1 -23,2 -3,-27 -10,1zm-313 -2c2,-32 20,-1 8,1 0,0 -9,34 -8,-1zm266 -62l4 3c0,0 -5,-2 -4,-3zm76 -22c2,-18 -1,-8 4,-22 1,-2 2,-7 3,-10 1,-2 3,-6 4,-9l31 -45c51,46 -5,31 61,41 -53,65 -34,10 -83,22 -14,6 5,2 -20,23zm-241 76c44,-59 71,-121 107,-145 -10,36 -25,58 -41,87 -22,39 -19,48 -66,58zm169 -142l4 4c0,0 -5,-3 -4,-4zm697 -101c-30,26 -29,2 0,0zm-683 77l4 4c-1,-1 -5,-3 -4,-4zm2099 86l3 4c0,0 -5,-3 -3,-4zm101 -33c-5,-36 27,5 13,3 -25,-2 -9,24 -13,-3zm-111 -17l3 3c0,0 -5,-2 -3,-3zm-1856 -100c-5,-2 -6,-6 0,0zm1894 76c16,-14 45,24 16,14 0,0 -2,-1 -2,-1 -8,-6 -33,5 -14,-13zm-2274 -130l43 -35c-14,19 -17,27 -29,46l-14 -11zm424 -5c1,1 26,-40 13,-27 -11,10 33,-1 1,33 -12,13 -3,15 -23,2 0,-3 5,-16 9,-8zm1553 71c1,-32 20,-1 7,1 0,0 -9,34 -7,-1zm-1113 -142c-5,-3 -6,-5 0,0zm-166 -15c-5,-3 -6,-5 0,0zm-790 -28l3 4c0,0 -4,-3 -3,-4zm1663 29c-21,1 -16,-38 0,-17 0,0 0,1 0,1l0 16zm-1040 -43c38,-30 69,-59 17,9 -35,45 -100,82 -35,7l18 -16zm1043 -7c4,-26 65,6 11,1 -5,0 -16,26 -11,-1zm-979 -68c0,0 72,-86 91,-101 70,-53 11,7 -11,34 -25,31 -47,49 -73,85 -26,-17 -7,-18 -7,-18zm1192 53l4 3c-1,0 -5,-2 -4,-3zm-249 -25l3 4c0,0 -4,-2 -3,-4zm-1704 -768l4 4c0,-1 -5,-3 -4,-4zm24 -10l39 -27c-16,43 10,8 -25,38l-14 -11zm54 -37c13,-12 46,22 13,7 0,0 -35,13 -13,-7zm2411 89l4 4c-1,-1 -5,-3 -4,-4zm-136 -32c1,-32 20,-1 7,1 0,0 -9,34 -7,-1zm212 23c-17,-10 -14,-8 -37,-14 26,-33 33,-46 37,14zm-2009 -145l4 4c0,0 -5,-3 -4,-4zm-49 -15c15,-16 0,-17 13,4 8,15 18,-9 -2,9 -12,11 -1,21 -11,-7 0,-1 1,-4 0,-6zm1274 48c2,-4 49,-18 15,-1 0,0 -29,35 -15,1zm-1185 -81c28,8 28,11 62,15 -28,36 -1,22 -29,13 -12,-4 -27,-19 -33,-28zm1762 70l3 4c0,0 -5,-2 -3,-4zm-675 -79c2,-3 33,-20 54,-25l-54 25zm-21 -41c21,19 19,10 -19,31 -33,18 14,2 -33,17 12,-17 8,-11 24,-26 2,-2 5,-4 7,-6l21 -16zm-389 19l4 4c0,0 -5,-2 -4,-4zm415 -30c0,-1 47,-33 25,-2 0,0 -41,33 -25,2zm525 12l4 4c-1,0 -5,-3 -4,-4zm-424 -32c-17,38 26,19 -39,23 20,-16 16,-11 39,-23zm13 -12l4 4c-1,-1 -5,-3 -4,-4zm438 8l3 4c0,-1 -5,-3 -3,-4zm-377 20c21,-26 37,-31 65,-47 -14,48 -6,49 -65,47zm341 -59c2,-4 49,-19 15,-1 0,0 -29,35 -15,1zm-461 -47c4,-26 66,6 12,2 -5,-1 -17,26 -12,-2z"/>
  </g>
 </g>
</svg>
