<?xml version="1.0" encoding="UTF-8"?>
<!DOCTYPE svg PUBLIC "-//W3C//DTD SVG 1.1//EN" "http://www.w3.org/Graphics/SVG/1.1/DTD/svg11.dtd">
<!-- Creator: CorelDRAW X7 -->
<svg xmlns="http://www.w3.org/2000/svg" xml:space="preserve" width="27.093mm" height="7.717mm" version="1.1" style="shape-rendering:geometricPrecision; text-rendering:geometricPrecision; image-rendering:optimizeQuality; fill-rule:evenodd; clip-rule:evenodd"
viewBox="0 0 2709 772"
 xmlns:xlink="http://www.w3.org/1999/xlink">
 <defs>
  <style type="text/css">
   <![CDATA[
    .fil5 {fill:#14365B}
    .fil7 {fill:#19594A}
    .fil1 {fill:#722C55}
    .fil0 {fill:white}
    .fil4 {fill:#E6E6E6;fill-opacity:0.129412}
    .fil6 {fill:white;fill-opacity:0.149020}
    .fil9 {fill:black;fill-opacity:0.231373}
    .fil3 {fill:black;fill-opacity:0.250980}
    .fil8 {fill:#091727;fill-opacity:0.309804}
    .fil2 {fill:#0E253F;fill-opacity:0.309804}
   ]]>
  </style>
 </defs>
 <g id="Capa_x0020_1">
  <metadata id="CorelCorpID_0Corel-Layer"/>
  <g id="_495115882560">
   <path class="fil0" d="M494 116c181,0 328,146 328,328 0,181 -147,328 -328,328 -181,0 -328,-147 -328,-328 0,-182 147,-328 328,-328zm1720 -5c181,0 328,147 328,328 0,182 -147,328 -328,328 -182,0 -329,-146 -329,-328 0,-181 147,-328 329,-328zm-864 -41c181,0 328,147 328,328 0,181 -147,328 -328,328 -181,0 -328,-147 -328,-328 0,-181 147,-328 328,-328z"/>
   <circle class="fil1" transform="matrix(0.368734 -0.0056171 0.00561711 0.368734 1357.26 348.018)" r="944"/>
   <path class="fil2" d="M1556 62c-76,21 -218,0 -299,-27 -15,-5 -24,-6 -30,-10 -26,11 -51,24 -73,41 34,10 63,23 99,33l111 30c70,27 259,34 276,17 -23,-33 -51,-61 -84,-84zm-199 585c-30,-1 -55,-2 -84,2 -25,3 -45,9 -66,13 47,23 100,35 156,34 49,-1 96,-12 138,-31 -37,-9 -106,-17 -144,-18zm-1 -169c-34,3 -82,-5 -115,-4l-214 -16c9,28 22,54 38,79 22,4 65,0 91,1l35 0c34,-3 99,-2 111,-2 29,-1 56,-5 83,-6 54,-1 241,-19 287,-33 7,-15 13,-31 18,-48 -16,8 -49,11 -70,15 -88,15 -181,8 -264,14zm-172 -123l0 0zm141 -96l-194 -60c-30,-12 -58,-24 -70,-33 -28,45 -46,96 -50,151 31,10 59,20 96,27 8,2 38,6 66,10 0,0 0,0 0,0 4,0 7,1 11,1l0 0c14,2 26,3 32,3l0 0 0 0 1 0 12 1 1 1 2 0c0,0 1,0 2,0l65 5c11,1 20,2 27,2l6 0 8 0c0,1 -1,1 -1,1l62 1 303 5c1,-10 1,-21 1,-31 0,-15 -1,-30 -3,-44 -49,-1 -94,-3 -143,-7 -34,-3 -74,-9 -109,-13l-39 -5c-25,-6 -60,-10 -86,-15z"/>
   <path class="fil3" d="M1363 0c-183,-3 -339,137 -353,322 -14,192 130,359 322,373 3,0 7,1 11,1l21 0c-185,-106 -198,-566 -1,-696z"/>
   <path class="fil4" d="M1704 374l-365 -6 -7 -1 -6 0c-7,0 -16,-1 -27,-2l-65 -5c-1,0 -2,0 -2,0l-2 0 0 0 -1 -1 -12 -1c-7,0 -25,-2 -44,-4 -28,-4 -58,-8 -66,-10 -37,-7 -65,-17 -96,-27 -1,12 -2,24 -2,36 0,2 0,3 0,5 83,26 181,55 270,54l0 0c4,0 7,0 8,0l6 1c6,0 12,1 18,2 88,7 300,3 387,3 3,-14 5,-29 6,-44zm-513 164l0 0zm194 -8c-27,1 -54,5 -83,6 -12,0 -77,-1 -111,2l-35 0c-26,-1 -69,3 -91,-1 14,22 31,42 50,61l16 -2c17,-2 41,-6 52,-7 24,-3 48,-5 73,-6 42,-3 87,-1 129,-2l129 2 95 5c26,-27 47,-57 63,-91 -46,14 -233,32 -287,33zm-132 -431c-36,-10 -65,-23 -99,-33 -22,16 -42,34 -60,54l53 27c34,16 101,38 135,47 138,35 265,46 406,47 -11,-35 -27,-67 -48,-95 -17,17 -206,10 -276,-17l-111 -30z"/>
   <path class="fil0" d="M1236 449c-14,0 -16,-2 -16,-12 0,-12 22,-43 33,-54 4,-5 11,-13 15,-16l23 19c28,21 22,21 37,12 4,-3 8,-5 12,-7l-47 -36c-3,-2 -4,-3 -6,-6 6,-8 59,-45 66,-50l15 9c15,11 30,23 42,31l18 -18c-1,-2 -9,-8 -12,-10l-38 -27c3,-2 6,-4 10,-6 4,-2 7,-3 11,-5 22,-11 50,-24 77,-24 10,0 12,4 12,10 0,12 -12,31 -17,38 -5,6 -19,23 -26,30 -4,5 -9,9 -13,14 -9,9 -35,30 -46,37 -19,15 -46,32 -67,43 -20,10 -55,28 -83,28zm2 -222c-12,0 -24,0 -33,8 -25,22 0,59 0,60 0,7 -8,13 1,29 7,14 29,19 43,7 12,-11 12,-30 -1,-42 -5,-5 -11,-7 -21,-7 -2,-5 -17,-29 3,-29 34,0 50,9 77,21l20 10c-1,2 -2,3 -4,4 -2,1 -3,2 -6,4 -5,3 -35,26 -40,31l-53 54c-15,20 -30,39 -30,66 0,21 20,32 42,32 24,0 51,-11 72,-20 2,-1 3,-1 5,-2 6,-3 9,-4 16,-8 12,-7 24,-13 38,-22 49,-32 64,-46 102,-84 17,-17 45,-55 45,-78 0,-13 -1,-20 -12,-29 -25,-22 -85,3 -107,14 -5,2 -9,4 -14,6 -9,5 -17,10 -26,15 -4,3 -5,0 -13,-4 -29,-15 -70,-36 -104,-36z"/>
   <path class="fil0" d="M1482 417c2,5 12,23 3,27 -16,8 -65,-10 -81,-18 -9,-5 -6,-4 -21,6 -3,1 -8,6 -11,6 2,3 18,10 21,12 5,1 7,3 11,4 23,9 75,30 99,9 25,-21 0,-59 0,-60 0,-3 9,-20 -6,-34 -11,-10 -28,-10 -39,1 -2,3 -4,5 -5,8 -6,12 -2,25 6,32 7,6 11,7 23,7z"/>
   <path class="fil0" d="M1354 495c-12,0 -21,-25 -25,-32l-17 8c-2,1 -3,2 -6,2 6,13 5,16 17,31 23,30 55,18 72,-16l8 -17c-9,-2 -16,-8 -24,-10 -2,8 -15,34 -25,34z"/>
   <path class="fil0" d="M1305 228c9,2 16,8 24,10 2,-9 15,-35 25,-35 12,0 21,26 25,33 3,-2 7,-4 11,-6 4,-2 8,-3 12,-5 -6,-12 -5,-15 -17,-30 -23,-31 -55,-19 -72,15l-8 18z"/>
   <path class="fil5" d="M666 76c176,79 255,284 177,460 -78,175 -284,254 -460,176 -175,-78 -254,-284 -176,-459 78,-176 284,-255 459,-177z"/>
   <path class="fil6" d="M792 557c-46,64 -87,97 -128,118 2,8 -1,17 -8,23 -12,11 -31,11 -43,0 -1,0 -1,-1 -2,-2 -42,14 -87,21 -138,43 151,22 305,-57 370,-203 12,-27 20,-55 25,-83 -8,13 -17,25 -30,41 -4,-11 -15,-19 -28,-21 -22,-2 -44,15 -49,38 -5,23 9,43 31,45l0 1zm-283 47c9,-8 23,-8 31,0 9,7 8,20 0,27 -8,8 -22,8 -31,0 -8,-7 -8,-19 0,-27zm-244 -391c19,-17 50,-17 68,-1 19,17 19,44 0,61 -19,17 -49,18 -68,1 -18,-17 -18,-44 0,-61zm148 -84c18,2 30,16 31,34 15,-4 30,-9 46,-15 12,-4 23,-11 33,-20 5,13 18,22 33,20 20,-1 37,-19 37,-39 0,-17 -11,-31 -26,-33 5,-8 10,-17 14,-25 29,5 57,13 85,25 28,13 53,28 75,46 -8,17 -16,34 -21,40 -29,33 -61,65 -96,92 9,5 14,16 11,27 -3,15 -17,26 -31,24 -11,-1 -19,-10 -20,-22 -55,36 -116,58 -186,54 -56,-2 -142,1 -214,-12 5,-24 12,-49 23,-72 15,-35 36,-66 60,-93 33,10 64,15 96,14 0,-2 1,-5 1,-7 5,-23 27,-40 49,-38zm374 182c-3,3 -5,5 -8,8 3,1 6,3 8,5 15,13 15,34 0,47 -14,13 -38,13 -52,0 -2,-2 -4,-4 -5,-6 -130,114 -168,89 -291,81 0,16 -7,32 -20,44 -26,23 -68,24 -94,0 -13,-12 -20,-27 -20,-43 -53,0 -95,-15 -127,-25 2,27 8,55 16,81 12,-10 31,-11 43,0 11,10 11,28 0,38 -7,6 -15,9 -24,8 6,13 13,24 20,36 12,17 24,33 39,48 7,-6 12,-15 14,-25 2,-9 1,-17 -2,-25 89,-3 193,-15 238,-32 4,-2 8,-3 11,-4 2,7 5,14 12,20 16,15 43,15 59,0 13,-12 16,-28 9,-42 28,-7 54,-17 110,-58 54,-39 102,-87 143,-139 -5,-28 -14,-54 -25,-79 -13,20 -29,38 -54,62z"/>
   <path class="fil0" d="M479 254c6,0 11,3 13,8 4,8 -1,21 -13,21 -13,0 -19,-16 -10,-24 2,-3 6,-5 10,-5zm144 91c-3,55 -41,59 -80,59 -13,0 -40,0 -52,0 -5,0 -11,1 -16,2 -5,2 -9,4 -12,7l0 0c-2,2 -4,4 -6,6 -1,2 -2,5 -3,8 -1,1 -1,3 -2,5 0,2 0,4 0,5 0,15 0,32 0,48l0 28 0 0 0 3 0 0c0,6 0,10 4,16 3,5 8,9 13,12 5,3 12,5 18,7 16,3 36,5 56,3 17,-1 33,-5 43,-11 3,-2 6,-5 9,-8 2,-2 3,-5 3,-8 0,-2 0,-6 0,-10 0,-3 0,-6 0,-7 -1,-4 0,-15 0,-20l-74 0 -7 0 0 -7 0 -12 0 -7 7 0 113 0c1,0 2,0 2,0l0 1c2,-1 4,-1 7,-1l0 0c2,-1 4,-1 6,-2 8,-3 14,-8 19,-15 20,-29 21,-130 -28,-130l-20 0 0 28zm16 119c0,1 0,1 0,1l0 0 0 -1zm-188 -202l1 32 73 0 7 0 0 7 0 11 0 8 -7 0 -115 0c-4,0 -7,0 -10,1 -4,1 -8,3 -10,5 -8,5 -14,13 -17,23 -5,12 -7,26 -7,38l0 1 0 0 0 1c0,7 0,12 0,17 1,5 1,11 3,17l0 0c0,3 1,6 2,8 0,3 1,6 2,8l0 0 3 6c1,2 3,5 5,8 2,2 4,4 6,6 1,1 3,2 4,3 1,1 2,2 4,2 1,1 3,1 5,2 1,0 3,0 5,0l22 0 0 -33c0,-5 1,-11 2,-16 2,-6 4,-11 7,-15 4,-7 10,-12 16,-15 6,-4 12,-5 20,-7 6,0 60,0 79,0l6 0 0 0c8,0 15,-1 21,-4 5,-2 10,-5 14,-10 1,-3 3,-5 4,-8 1,-3 1,-6 2,-10 0,-1 0,-20 0,-40 0,-20 0,-41 0,-42 -1,-2 -1,-5 -3,-7 -1,-3 -3,-6 -5,-7 -1,-2 -3,-3 -4,-4l0 0c-2,-2 -5,-3 -7,-4 -5,-3 -13,-6 -21,-7 -10,-2 -20,-3 -28,-3 -9,0 -17,0 -24,1 -8,0 -16,1 -23,3 -4,1 -7,2 -10,3 -3,1 -6,2 -8,4l0 0c-1,0 -2,1 -2,1l0 0c-1,0 -1,1 -2,1 -3,2 -5,5 -7,8 -2,2 -2,5 -2,7l-1 0zm105 259c0,-5 1,-9 5,-12 1,-2 2,-2 4,-3 8,-3 15,1 18,7 5,9 -2,21 -11,21l-3 0c-6,0 -13,-7 -13,-13z"/>
   <circle class="fil7" cx="2195" cy="396" r="348"/>
   <path class="fil8" d="M1897 488c34,-36 2,-95 -50,-80 2,33 7,64 17,94 8,-3 17,2 33,-14zm328 -439c-6,0 -11,-1 -16,-1 -5,0 -9,0 -14,0 -14,0 -28,1 -42,2 -2,1 -4,1 -5,1 -4,12 -14,26 14,43 32,20 81,23 113,8 31,-14 28,-27 33,-35 -1,0 -2,-1 -3,-2 -26,-8 -52,-14 -80,-16zm301 456c-21,-30 -67,-33 -91,21 -23,53 1,85 12,110 35,-37 62,-82 79,-131zm-193 45c-24,-1 -41,14 -40,42 0,10 -3,18 9,30 6,5 15,13 25,12l13 -1c7,-1 10,-4 14,-7 7,-6 13,-14 15,-27 4,-25 -14,-48 -36,-49zm108 -172l0 0zm-107 -47c-134,8 -96,134 13,123 4,-1 8,-2 12,-2 14,-2 9,-1 26,-9 25,-12 25,-21 38,-45l1 -16c1,-1 3,-2 8,-2 1,0 2,0 3,0l0 -1 2 0 -2 0c2,0 4,0 6,-1 70,-18 50,-69 42,-84 -23,-43 -98,-46 -130,-15 -15,15 -17,22 -19,52zm30 119l3 0c-1,0 0,0 -4,1l1 -1zm-176 -228c-3,-12 -16,-25 -31,-21 -40,10 -23,60 10,53 11,-2 25,-16 21,-32zm-144 113c66,-9 47,-89 -25,-75 -17,3 -24,4 -33,15 -27,31 4,67 58,60zm45 183c46,-13 32,-82 -28,-66 -51,14 -26,82 28,66zm7 128c13,-24 -20,-41 -34,-23 -18,24 22,44 34,23z"/>
   <path class="fil9" d="M2201 48c-183,-3 -339,137 -353,322 -14,192 130,359 321,373 4,0 8,0 12,0l21 0c-185,-105 -198,-566 -1,-695z"/>
   <path class="fil0" d="M2257 355c-5,-3 -4,-4 -4,-10 1,-2 4,-16 3,-17 -4,-5 -67,-29 -80,-35 -17,-6 -23,1 -40,4 -11,3 -24,4 -34,-2 -10,-6 -4,-22 -7,-28 -4,-3 -24,-1 -22,-6 1,-3 12,-20 10,-22 -2,-2 -12,2 -15,4 -8,5 -13,11 -23,6 -10,-4 -12,-15 -10,-24 2,-13 -5,-19 -13,-29 -10,-13 -19,-10 -35,-14 -6,-1 -28,-5 -33,-5 -3,4 0,19 11,17 9,-1 10,1 15,9 10,16 10,22 12,40 0,7 6,8 14,11 11,6 25,15 38,14 15,0 15,0 26,11 9,8 12,13 19,21 14,16 37,0 35,25 0,13 -4,14 -13,24 -6,7 -5,7 -6,17 -1,11 -1,8 4,18 6,9 21,39 29,44 7,6 34,16 36,23 3,9 0,82 3,101 2,14 14,22 17,42 3,16 4,15 17,26 12,11 12,7 13,-7 1,-25 1,-18 -3,-42 -4,-19 8,-13 22,-26 17,-15 26,-63 42,-68 23,-7 19,3 29,-23 5,-14 26,-61 21,-73 -5,-11 -29,-13 -41,-16 -9,-2 -30,-6 -37,-10z"/>
   <path class="fil0" d="M2145 239c-11,-10 -28,-15 -42,-9 -12,6 -8,7 4,4 8,-2 11,-2 18,4 3,2 4,5 6,6 5,1 15,1 17,-2 0,-1 -1,-1 -3,-3z"/>
   <path class="fil0" d="M2183 246c-8,-5 -21,-4 -28,1 -3,1 -1,1 1,2 6,3 21,5 27,0 2,-1 1,-2 0,-3z"/>
   <path class="fil3" d="M530 47c-183,-4 -339,137 -353,322 -14,191 130,358 322,373 3,0 7,0 11,0l21 0c-185,-105 -198,-566 -1,-695z"/>
  </g>
 </g>
</svg>
