<?xml version="1.0" encoding="UTF-8"?>
<!DOCTYPE svg PUBLIC "-//W3C//DTD SVG 1.1//EN" "http://www.w3.org/Graphics/SVG/1.1/DTD/svg11.dtd">
<!-- Creator: CorelDRAW X7 -->
<svg xmlns="http://www.w3.org/2000/svg" xml:space="preserve" width="6.579mm" height="3.518mm" version="1.1" style="shape-rendering:geometricPrecision; text-rendering:geometricPrecision; image-rendering:optimizeQuality; fill-rule:evenodd; clip-rule:evenodd"
viewBox="0 0 658 352"
 xmlns:xlink="http://www.w3.org/1999/xlink">
 <defs>
  <style type="text/css">
   <![CDATA[
    .fil10 {fill:#0F2844}
    .fil5 {fill:#79641C}
    .fil4 {fill:#A58926}
    .fil2 {fill:#BABDC1}
    .fil3 {fill:#D2AA2F}
    .fil1 {fill:#E5F1F1}
    .fil7 {fill:white}
    .fil0 {fill:#FFD43B;fill-opacity:0.168627}
    .fil9 {fill:white;fill-opacity:0.250980}
    .fil8 {fill:white;fill-opacity:0.309804}
    .fil6 {fill:#C1C1C1;fill-opacity:0.349020}
   ]]>
  </style>
 </defs>
 <g id="Capa_x0020_1">
  <metadata id="CorelCorpID_0Corel-Layer"/>
  <g id="_495119931632">
   <path class="fil0" d="M208 158c1,1 3,-4 3,-3l0 0c0,0 -3,2 -3,3z"/>
   <polygon class="fil1" points="43,9 268,95 233,187 8,102 "/>
   <path class="fil2" d="M263 134l29 11 -7 19 -30 -11 -12 33c-2,4 -5,7 -8,8 -4,2 -8,3 -12,1l-213 -80c-4,-2 -7,-5 -9,-9 -1,-4 -1,-8 0,-13l31 -82c2,-4 5,-8 9,-9 3,-2 8,-3 12,-1l213 80c4,2 7,5 8,9 2,4 2,8 1,12l-12 32zm-161 -95l-8 22 47 18 8 -22 -47 -18zm55 20l-9 23 47 18 9 -23 -47 -18zm55 21l-9 23 47 17 9 -22 -47 -18zm24 77l-47 -18 -8 21 47 18 8 -21zm-62 0l8 -21 -47 -18 -8 22 47 17zm-55 -20l8 -22 -47 -17 -8 21 47 18zm-55 -21l8 -21 -47 -18 -8 21 47 18zm-16 -98l-9 23 47 17 9 -22 -47 -18zm199 110l-47 -18 -8 21 47 18 8 -21zm-62 0l7 -20 -47 -18 -7 20 47 18zm-55 -20l8 -21 -47 -18 -8 21 47 18zm-55 -21l8 -21 -47 -18 -8 21 47 18z"/>
   <path class="fil3" d="M339 86c14,1 27,7 38,14 14,10 23,26 16,44l-51 134c-7,18 -25,28 -41,22l-38 -15c-16,-5 -23,-25 -16,-43l50 -134c7,-18 25,-24 42,-22z"/>
   <path class="fil4" d="M252 275c18,17 42,25 65,24 8,0 9,9 5,18l-9 23c-3,9 -12,13 -20,12 -22,-3 -42,-10 -58,-22 -7,-5 -11,-13 -8,-23l9 -22c3,-9 10,-16 16,-10z"/>
   <path class="fil3" d="M254 223c27,25 62,37 95,36 13,0 14,13 9,26l-12 31c-5,13 -18,17 -30,15 -32,-4 -61,-14 -85,-32 -10,-7 -17,-18 -12,-31l12 -31c4,-13 13,-22 23,-14z"/>
   <path class="fil4" d="M254 223c-10,-8 -19,1 -23,14l-12 31c-5,13 2,24 12,31 0,0 0,0 0,0 9,7 18,12 28,17 -5,-7 -7,-15 -4,-24l4 -9 0 -2 8 -20c4,-10 10,-17 17,-16 0,0 1,0 2,0 1,0 1,1 2,1 1,0 1,1 2,2 0,0 0,0 0,0l-3 -3c-11,-8 -23,-13 -33,-22 0,0 0,0 0,0z"/>
   <path class="fil4" d="M354 246c-33,1 -68,-11 -95,-36 0,0 0,0 0,0l-5 13c0,0 0,0 0,0 27,26 61,38 95,37l5 -14z"/>
   <path class="fil5" d="M289 231c-11,-5 -21,-12 -30,-21 0,0 0,0 0,0l-5 13c0,0 0,0 0,0 9,9 19,16 30,22l5 -14z"/>
   <path class="fil5" d="M231 299l-4 8c-3,10 1,18 8,23 5,4 10,7 16,10l9 -24c0,0 -1,0 -1,0 -10,-5 -19,-10 -28,-17l0 0z"/>
   <path class="fil4" d="M297 108l-13 35 -7 18 -18 49 0 0c9,9 19,16 30,21l37 -99c6,-17 16,-22 25,-25 2,-1 0,-12 2,-12 -2,-1 4,-5 2,-6 -5,-1 -11,-3 -16,-3 -17,-2 -35,4 -42,22z"/>
   <path class="fil6" d="M308 126c0,1 3,-4 2,-2l0 0c0,0 -3,1 -2,2z"/>
   <path class="fil6" d="M297 142l3 -2c0,0 -4,1 -3,2z"/>
   <polygon class="fil1" points="650,239 424,154 389,246 615,331 "/>
   <path class="fil2" d="M403 187l-30 -11 -7 19 30 11 -13 33c-1,4 -1,8 1,12 1,3 4,7 8,8l213 81c4,1 8,1 12,-1 4,-2 7,-5 9,-10l31 -82c1,-4 1,-9 0,-13 -2,-3 -5,-7 -9,-8l-213 -81c-4,-1 -8,-1 -12,1 -3,2 -6,5 -8,9l-12 32zm98 94l-47 -18 -55 -20 8 -22 0 0 3 -7 0 0 8 -21 12 -30 54 20 47 18 8 3 47 18 8 2 47 18 -12 31 -8 20 -11 29 -47 -17 -62 -24z"/>
   <path class="fil4" d="M372 52l3 1c5,2 7,7 5,11l-14 39c-2,4 -7,7 -12,5l-3 -1c-4,-2 -6,-7 -5,-11l15 -39c2,-5 7,-7 11,-5z"/>
   <path class="fil5" d="M351 107c-4,-2 -6,-7 -5,-11l15 -39c2,-5 7,-7 11,-5l-21 55z"/>
   <path class="fil4" d="M379 37c10,4 15,15 11,25 -3,10 -15,16 -25,12 -10,-4 -15,-15 -11,-25 4,-11 15,-16 25,-12z"/>
   <path class="fil5" d="M379 37c0,0 1,0 1,1 -8,1 -14,7 -17,15 -3,7 -2,14 1,20 -9,-4 -14,-15 -10,-24 4,-11 15,-16 25,-12z"/>
   <path class="fil7" d="M285 316c5,2 11,4 18,5l20 -54c-6,-1 -12,-2 -18,-5l-20 54z"/>
   <path class="fil7" d="M316 233c6,2 12,4 18,4 10,-26 20,-51 30,-77 4,-12 13,-37 2,-39 -8,-1 -11,11 -16,22l-34 90z"/>
   <path class="fil8" d="M275 341c6,2 12,3 19,4l3 -10c-6,0 -12,-2 -18,-4l-4 10z"/>
   <path class="fil9" d="M380 48c4,2 6,7 5,11 -2,5 -7,7 -11,6 -5,-2 -7,-7 -5,-12 1,-4 6,-6 11,-5z"/>
   <path class="fil10" d="M467 233l0 0c-2,6 -5,10 -9,12 -4,2 -9,2 -14,0 -6,-2 -9,-6 -11,-10 -3,-5 -2,-10 0,-16l6 -16c2,-6 5,-10 9,-12 5,-3 10,-3 15,-1 6,2 9,5 11,9 2,4 2,9 0,15l-1 0 -9 -3c1,-4 1,-6 1,-8 -1,-2 -2,-4 -5,-5 -2,-1 -5,0 -6,1 -2,1 -4,4 -5,8l-6 16c-1,3 -2,6 -1,9 1,2 2,3 5,4 2,1 4,1 6,0 1,-1 3,-3 4,-7l10 4zm57 -20l-13 36c-2,6 -5,9 -10,11 -4,2 -9,2 -15,0 -5,-2 -9,-5 -11,-9 -2,-5 -2,-9 0,-15l13 -36 10 4 -13 36c-1,3 -1,5 0,7 0,2 2,4 4,5 3,1 5,1 7,0 2,-1 3,-4 5,-7l13 -36 10 4zm-9 56l19 -53 15 6c6,2 9,5 12,8 2,4 2,8 0,13 -1,2 -2,4 -4,6 -2,1 -4,2 -6,2 2,2 4,4 4,7 1,3 1,5 0,8 -2,5 -5,9 -9,10 -4,2 -8,2 -14,0l-17 -7zm18 -19l-5 15 7 2c2,1 4,1 6,0 1,0 2,-2 3,-4 1,-3 1,-5 1,-7 0,-1 -2,-3 -4,-3l-8 -3zm3 -8l6 3c2,0 4,0 5,-1 2,0 3,-2 4,-4 1,-2 1,-4 0,-6 -1,-2 -2,-3 -5,-4l-5 -2 -5 14zm50 40l-14 -5 -7 11 -10 -4 34 -48 11 4 -5 59 -10 -4 1 -13zm-9 -12l10 3 2 -20 0 0 -12 17z"/>
  </g>
 </g>
</svg>
